<?xml version="1.0" encoding="UTF-8" standalone="no"?>
<!DOCTYPE svg PUBLIC "-//W3C//DTD SVG 1.1//EN"
 "http://www.w3.org/Graphics/SVG/1.1/DTD/svg11.dtd">
<!-- Generated by graphviz version 2.40.1 (20161225.0304)
 -->
<!-- Title: Solver&lt; VectorType &gt; Pages: 1 -->
<svg width="413pt" height="380pt"
 viewBox="0.00 0.00 412.59 380.00" xmlns="http://www.w3.org/2000/svg" xmlns:xlink="http://www.w3.org/1999/xlink">
<g id="graph0" class="graph" transform="scale(1 1) rotate(0) translate(4 376)">
<title>Solver&lt; VectorType &gt;</title>
<polygon fill="#ffffff" stroke="transparent" points="-4,4 -4,-376 408.5947,-376 408.5947,4 -4,4"/>
<!-- Node0 -->
<g id="node1" class="node">
<title>Node0</title>
<polygon fill="#bfbfbf" stroke="#000000" points="102.5762,-186.5 102.5762,-204.5 214.1963,-204.5 214.1963,-186.5 102.5762,-186.5"/>
<text text-anchor="middle" x="158.3862" y="-192.5" font-family="Helvetica,sans-Serif" font-size="10.00" fill="#000000">Solver&lt; VectorType &gt;</text>
</g>
<!-- Node2 -->
<g id="node3" class="node">
<title>Node2</title>
<g id="a_node3"><a xlink:href="classEigenInverse.html" target="_top" xlink:title="EigenInverse\&lt; VectorType \&gt;">
<polygon fill="#ffffff" stroke="#000000" points="256.5732,-353.5 256.5732,-371.5 398.2178,-371.5 398.2178,-353.5 256.5732,-353.5"/>
<text text-anchor="middle" x="327.3955" y="-359.5" font-family="Helvetica,sans-Serif" font-size="10.00" fill="#000000">EigenInverse&lt; VectorType &gt;</text>
</a>
</g>
</g>
<!-- Node0&#45;&gt;Node2 -->
<g id="edge2" class="edge">
<title>Node0&#45;&gt;Node2</title>
<path fill="none" stroke="#8b1a1a" d="M164.5917,-214.4668C176.0956,-246.5189 203.869,-311.1587 250.1963,-344.5 255.3345,-348.1979 261.1188,-351.1481 267.151,-353.4998"/>
<polygon fill="#8b1a1a" stroke="#8b1a1a" points="167.7584,-212.9122 161.1974,-204.5933 161.1387,-215.188 167.7584,-212.9122"/>
</g>
<!-- Node3 -->
<g id="node4" class="node">
<title>Node3</title>
<g id="a_node4"><a xlink:href="classEigenPower.html" target="_top" xlink:title="EigenPower\&lt; VectorType \&gt;">
<polygon fill="#ffffff" stroke="#000000" points="258.7974,-316.5 258.7974,-334.5 395.9937,-334.5 395.9937,-316.5 258.7974,-316.5"/>
<text text-anchor="middle" x="327.3955" y="-322.5" font-family="Helvetica,sans-Serif" font-size="10.00" fill="#000000">EigenPower&lt; VectorType &gt;</text>
</a>
</g>
</g>
<!-- Node0&#45;&gt;Node3 -->
<g id="edge3" class="edge">
<title>Node0&#45;&gt;Node3</title>
<path fill="none" stroke="#8b1a1a" d="M168.0993,-213.6326C182.5458,-238.779 212.128,-283.8128 250.1963,-307.5 256.1555,-311.208 262.8043,-314.153 269.6313,-316.4918"/>
<polygon fill="#8b1a1a" stroke="#8b1a1a" points="171.085,-211.8001 163.162,-204.7662 164.9693,-215.2058 171.085,-211.8001"/>
</g>
<!-- Node4 -->
<g id="node5" class="node">
<title>Node4</title>
<g id="a_node5"><a xlink:href="classSolverBicgstab.html" target="_top" xlink:title="SolverBicgstab\&lt; VectorType \&gt;">
<polygon fill="#ffffff" stroke="#000000" points="252.4082,-279.5 252.4082,-297.5 402.3828,-297.5 402.3828,-279.5 252.4082,-279.5"/>
<text text-anchor="middle" x="327.3955" y="-285.5" font-family="Helvetica,sans-Serif" font-size="10.00" fill="#000000">SolverBicgstab&lt; VectorType &gt;</text>
</a>
</g>
</g>
<!-- Node0&#45;&gt;Node4 -->
<g id="edge4" class="edge">
<title>Node0&#45;&gt;Node4</title>
<path fill="none" stroke="#191970" d="M174.1954,-212.3247C191.308,-229.5251 220.198,-255.7487 250.1963,-270.5 257.6062,-274.1437 265.7833,-277.0682 273.9611,-279.4105"/>
<polygon fill="#191970" stroke="#191970" points="176.2648,-209.4317 166.7875,-204.6955 171.2427,-214.308 176.2648,-209.4317"/>
</g>
<!-- Node5 -->
<g id="node6" class="node">
<title>Node5</title>
<g id="a_node6"><a xlink:href="classSolverCG.html" target="_top" xlink:title="SolverCG\&lt; VectorType \&gt;">
<polygon fill="#ffffff" stroke="#000000" points="264.0854,-242.5 264.0854,-260.5 390.7056,-260.5 390.7056,-242.5 264.0854,-242.5"/>
<text text-anchor="middle" x="327.3955" y="-248.5" font-family="Helvetica,sans-Serif" font-size="10.00" fill="#000000">SolverCG&lt; VectorType &gt;</text>
</a>
</g>
</g>
<!-- Node0&#45;&gt;Node5 -->
<g id="edge5" class="edge">
<title>Node0&#45;&gt;Node5</title>
<path fill="none" stroke="#191970" d="M187.0331,-208.7767C204.919,-216.708 228.5777,-226.5571 250.1963,-233.5 260.6787,-236.8665 272.1486,-239.8867 282.9651,-242.4484"/>
<polygon fill="#191970" stroke="#191970" points="188.2959,-205.507 177.7401,-204.5983 185.4253,-211.8913 188.2959,-205.507"/>
</g>
<!-- Node6 -->
<g id="node7" class="node">
<title>Node6</title>
<g id="a_node7"><a xlink:href="classSolverFGMRES.html" target="_top" xlink:title="SolverFGMRES\&lt; VectorType \&gt;">
<polygon fill="#ffffff" stroke="#000000" points="250.1963,-205.5 250.1963,-223.5 404.5947,-223.5 404.5947,-205.5 250.1963,-205.5"/>
<text text-anchor="middle" x="327.3955" y="-211.5" font-family="Helvetica,sans-Serif" font-size="10.00" fill="#000000">SolverFGMRES&lt; VectorType &gt;</text>
</a>
</g>
</g>
<!-- Node0&#45;&gt;Node6 -->
<g id="edge6" class="edge">
<title>Node0&#45;&gt;Node6</title>
<path fill="none" stroke="#191970" d="M224.6587,-202.9503C232.972,-203.8849 241.5325,-204.8473 249.9972,-205.7989"/>
<polygon fill="#191970" stroke="#191970" points="224.9923,-199.4659 214.6639,-201.8267 224.2102,-206.4221 224.9923,-199.4659"/>
</g>
<!-- Node7 -->
<g id="node8" class="node">
<title>Node7</title>
<g id="a_node8"><a xlink:href="classSolverGMRES.html" target="_top" xlink:title="SolverGMRES\&lt; VectorType \&gt;">
<polygon fill="#ffffff" stroke="#000000" points="253.2505,-168.5 253.2505,-186.5 401.5405,-186.5 401.5405,-168.5 253.2505,-168.5"/>
<text text-anchor="middle" x="327.3955" y="-174.5" font-family="Helvetica,sans-Serif" font-size="10.00" fill="#000000">SolverGMRES&lt; VectorType &gt;</text>
</a>
</g>
</g>
<!-- Node0&#45;&gt;Node7 -->
<g id="edge7" class="edge">
<title>Node0&#45;&gt;Node7</title>
<path fill="none" stroke="#191970" d="M224.6261,-188.4452C233.9405,-187.4532 243.5659,-186.4281 253.0196,-185.4213"/>
<polygon fill="#191970" stroke="#191970" points="224.2369,-184.9668 214.6639,-189.5063 224.9783,-191.9274 224.2369,-184.9668"/>
</g>
<!-- Node8 -->
<g id="node9" class="node">
<title>Node8</title>
<g id="a_node9"><a xlink:href="classSolverMinRes.html" target="_top" xlink:title="SolverMinRes\&lt; VectorType \&gt;">
<polygon fill="#ffffff" stroke="#000000" points="254.6372,-131.5 254.6372,-149.5 400.1538,-149.5 400.1538,-131.5 254.6372,-131.5"/>
<text text-anchor="middle" x="327.3955" y="-137.5" font-family="Helvetica,sans-Serif" font-size="10.00" fill="#000000">SolverMinRes&lt; VectorType &gt;</text>
</a>
</g>
</g>
<!-- Node0&#45;&gt;Node8 -->
<g id="edge8" class="edge">
<title>Node0&#45;&gt;Node8</title>
<path fill="none" stroke="#191970" d="M187.76,-182.3148C205.5741,-174.6588 228.9045,-165.2285 250.1963,-158.5 260.8255,-155.141 272.4571,-152.1056 283.3925,-149.5253"/>
<polygon fill="#191970" stroke="#191970" points="186.2493,-179.1551 178.4787,-186.3571 189.0445,-185.5728 186.2493,-179.1551"/>
</g>
<!-- Node9 -->
<g id="node10" class="node">
<title>Node9</title>
<g id="a_node10"><a xlink:href="classSolverQMRS.html" target="_top" xlink:title="SolverQMRS\&lt; VectorType \&gt;">
<polygon fill="#ffffff" stroke="#000000" points="256.5854,-94.5 256.5854,-112.5 398.2056,-112.5 398.2056,-94.5 256.5854,-94.5"/>
<text text-anchor="middle" x="327.3955" y="-100.5" font-family="Helvetica,sans-Serif" font-size="10.00" fill="#000000">SolverQMRS&lt; VectorType &gt;</text>
</a>
</g>
</g>
<!-- Node0&#45;&gt;Node9 -->
<g id="edge9" class="edge">
<title>Node0&#45;&gt;Node9</title>
<path fill="none" stroke="#191970" d="M174.5132,-178.6377C191.6955,-161.6699 220.4676,-135.9977 250.1963,-121.5 257.7418,-117.8203 266.0746,-114.8722 274.3911,-112.516"/>
<polygon fill="#191970" stroke="#191970" points="171.5973,-176.6089 167.0559,-186.1811 176.5754,-181.5302 171.5973,-176.6089"/>
</g>
<!-- Node10 -->
<g id="node11" class="node">
<title>Node10</title>
<g id="a_node11"><a xlink:href="classSolverRelaxation.html" target="_top" xlink:title="SolverRelaxation\&lt; Vector\lType \&gt;">
<polygon fill="#ffffff" stroke="#000000" points="263.1113,-47.5 263.1113,-75.5 391.6797,-75.5 391.6797,-47.5 263.1113,-47.5"/>
<text text-anchor="start" x="271.1113" y="-63.5" font-family="Helvetica,sans-Serif" font-size="10.00" fill="#000000">SolverRelaxation&lt; Vector</text>
<text text-anchor="middle" x="327.3955" y="-53.5" font-family="Helvetica,sans-Serif" font-size="10.00" fill="#000000">Type &gt;</text>
</a>
</g>
</g>
<!-- Node0&#45;&gt;Node10 -->
<g id="edge10" class="edge">
<title>Node0&#45;&gt;Node10</title>
<path fill="none" stroke="#191970" d="M168.3419,-177.8435C183.0788,-153.2977 213.0064,-109.1134 250.1963,-84.5 255.4442,-81.0268 261.2325,-78.0639 267.2091,-75.5393"/>
<polygon fill="#191970" stroke="#191970" points="165.3141,-176.0879 163.2948,-186.4885 171.3593,-179.6172 165.3141,-176.0879"/>
</g>
<!-- Node11 -->
<g id="node12" class="node">
<title>Node11</title>
<g id="a_node12"><a xlink:href="classSolverRichardson.html" target="_top" xlink:title="SolverRichardson\&lt; Vector\lType \&gt;">
<polygon fill="#ffffff" stroke="#000000" points="261.4463,-.5 261.4463,-28.5 393.3447,-28.5 393.3447,-.5 261.4463,-.5"/>
<text text-anchor="start" x="269.4463" y="-16.5" font-family="Helvetica,sans-Serif" font-size="10.00" fill="#000000">SolverRichardson&lt; Vector</text>
<text text-anchor="middle" x="327.3955" y="-6.5" font-family="Helvetica,sans-Serif" font-size="10.00" fill="#000000">Type &gt;</text>
</a>
</g>
</g>
<!-- Node0&#45;&gt;Node11 -->
<g id="edge11" class="edge">
<title>Node0&#45;&gt;Node11</title>
<path fill="none" stroke="#191970" d="M164.1787,-176.62C175.3285,-143.4485 202.9434,-74.7048 250.1963,-37.5 254.5914,-34.0395 259.4978,-31.0989 264.6484,-28.6002"/>
<polygon fill="#191970" stroke="#191970" points="160.7602,-175.8173 161.0241,-186.4088 167.4227,-177.9645 160.7602,-175.8173"/>
</g>
<!-- Node1 -->
<g id="node2" class="node">
<title>Node1</title>
<g id="a_node2"><a xlink:href="classSubscriptor.html" target="_top" xlink:title="Subscriptor">
<polygon fill="#ffffff" stroke="#000000" points="0,-186.5 0,-204.5 66.5762,-204.5 66.5762,-186.5 0,-186.5"/>
<text text-anchor="middle" x="33.2881" y="-192.5" font-family="Helvetica,sans-Serif" font-size="10.00" fill="#000000">Subscriptor</text>
</a>
</g>
</g>
<!-- Node1&#45;&gt;Node0 -->
<g id="edge1" class="edge">
<title>Node1&#45;&gt;Node0</title>
<path fill="none" stroke="#191970" d="M76.9674,-195.5C85.2282,-195.5 93.9735,-195.5 102.5486,-195.5"/>
<polygon fill="#191970" stroke="#191970" points="76.8121,-192.0001 66.8121,-195.5 76.8121,-199.0001 76.8121,-192.0001"/>
</g>
</g>
</svg>
