<?xml version="1.0" encoding="UTF-8" standalone="no"?>
<!DOCTYPE svg PUBLIC "-//W3C//DTD SVG 1.1//EN"
 "http://www.w3.org/Graphics/SVG/1.1/DTD/svg11.dtd">
<!-- Generated by graphviz version 2.40.1 (20161225.0304)
 -->
<!-- Title: DataOut_DoFData&lt; DoFHandlerType, patch_dim, patch_space_dim &gt; Pages: 1 -->
<svg width="1483pt" height="218pt"
 viewBox="0.00 0.00 1482.75 217.50" xmlns="http://www.w3.org/2000/svg" xmlns:xlink="http://www.w3.org/1999/xlink">
<g id="graph0" class="graph" transform="scale(1 1) rotate(0) translate(4 213.5)">
<title>DataOut_DoFData&lt; DoFHandlerType, patch_dim, patch_space_dim &gt;</title>
<polygon fill="#ffffff" stroke="transparent" points="-4,4 -4,-213.5 1478.7529,-213.5 1478.7529,4 -4,4"/>
<!-- Node0 -->
<g id="node1" class="node">
<title>Node0</title>
<polygon fill="#bfbfbf" stroke="#000000" points="410.4492,-73.5 410.4492,-101.5 592.3867,-101.5 592.3867,-73.5 410.4492,-73.5"/>
<text text-anchor="start" x="418.4492" y="-89.5" font-family="Helvetica,sans-Serif" font-size="10.00" fill="#000000">DataOut_DoFData&lt; DoFHandler</text>
<text text-anchor="middle" x="501.418" y="-79.5" font-family="Helvetica,sans-Serif" font-size="10.00" fill="#000000">Type, patch_dim, patch_space_dim &gt;</text>
</g>
<!-- Node3 -->
<g id="node4" class="node">
<title>Node3</title>
<g id="a_node4"><a xlink:href="classDataOut__DoFData.html" target="_top" xlink:title="DataOut_DoFData\&lt; DoFHandler\lType, DoFHandlerType::dimension\l&#45;1, DoFHandlerType::dimension \&gt;">
<polygon fill="#ffffff" stroke="#000000" points="801.2627,-158.5 801.2627,-196.5 971.2373,-196.5 971.2373,-158.5 801.2627,-158.5"/>
<text text-anchor="start" x="809.2627" y="-184.5" font-family="Helvetica,sans-Serif" font-size="10.00" fill="#000000">DataOut_DoFData&lt; DoFHandler</text>
<text text-anchor="start" x="809.2627" y="-174.5" font-family="Helvetica,sans-Serif" font-size="10.00" fill="#000000">Type, DoFHandlerType::dimension</text>
<text text-anchor="middle" x="886.25" y="-164.5" font-family="Helvetica,sans-Serif" font-size="10.00" fill="#000000">&#45;1, DoFHandlerType::dimension &gt;</text>
</a>
</g>
</g>
<!-- Node0&#45;&gt;Node3 -->
<g id="edge3" class="edge">
<title>Node0&#45;&gt;Node3</title>
<path fill="none" stroke="#ffa500" stroke-dasharray="5,2" d="M526.2748,-107.9009C547.2944,-123.8933 578.9325,-145.1203 610.3867,-155.5 672.0945,-175.8632 745.5989,-180.8505 801.2112,-181.0249"/>
<polygon fill="#ffa500" stroke="#ffa500" points="528.2608,-105.0114 518.2197,-101.6309 523.9611,-110.5353 528.2608,-105.0114"/>
<text text-anchor="start" x="610.3867" y="-201.5" font-family="Helvetica,sans-Serif" font-size="10.00" fill="#000000"> &lt; DoFHandlerType, DoFHandler</text>
<text text-anchor="start" x="610.3867" y="-191.5" font-family="Helvetica,sans-Serif" font-size="10.00" fill="#000000">Type::dimension&#45;1, DoFHandlerType</text>
<text text-anchor="middle" x="691.8198" y="-181.5" font-family="Helvetica,sans-Serif" font-size="10.00" fill="#000000">::dimension &gt;</text>
</g>
<!-- Node5 -->
<g id="node6" class="node">
<title>Node5</title>
<g id="a_node6"><a xlink:href="classDataOut__DoFData.html" target="_top" xlink:title="DataOut_DoFData\&lt; DoFHandler\l\&lt; dim \&gt;, DoFHandler\&lt; dim\l \&gt; ::dimension, DoFHandler\l\&lt; dim \&gt; ::space_dimension \&gt;">
<polygon fill="#ffffff" stroke="#000000" points="999.2471,-88.5 999.2471,-136.5 1160.5938,-136.5 1160.5938,-88.5 999.2471,-88.5"/>
<text text-anchor="start" x="1007.2471" y="-124.5" font-family="Helvetica,sans-Serif" font-size="10.00" fill="#000000">DataOut_DoFData&lt; DoFHandler</text>
<text text-anchor="start" x="1007.2471" y="-114.5" font-family="Helvetica,sans-Serif" font-size="10.00" fill="#000000">&lt; dim &gt;, DoFHandler&lt; dim</text>
<text text-anchor="start" x="1007.2471" y="-104.5" font-family="Helvetica,sans-Serif" font-size="10.00" fill="#000000"> &gt; ::dimension, DoFHandler</text>
<text text-anchor="middle" x="1079.9204" y="-94.5" font-family="Helvetica,sans-Serif" font-size="10.00" fill="#000000">&lt; dim &gt; ::space_dimension &gt;</text>
</a>
</g>
</g>
<!-- Node0&#45;&gt;Node5 -->
<g id="edge5" class="edge">
<title>Node0&#45;&gt;Node5</title>
<path fill="none" stroke="#ffa500" stroke-dasharray="5,2" d="M602.5977,-92.154C605.2208,-92.271 607.8208,-92.3865 610.3867,-92.5 746.713,-98.5311 905.3197,-105.2182 998.9065,-109.13"/>
<polygon fill="#ffa500" stroke="#ffa500" points="602.5348,-88.6477 592.3882,-91.6965 602.2214,-95.6407 602.5348,-88.6477"/>
<text text-anchor="start" x="627.7549" y="-131.5" font-family="Helvetica,sans-Serif" font-size="10.00" fill="#000000"> &lt; DoFHandler&lt; dim &gt;</text>
<text text-anchor="start" x="627.7549" y="-121.5" font-family="Helvetica,sans-Serif" font-size="10.00" fill="#000000">, DoFHandler&lt; dim &gt;</text>
<text text-anchor="start" x="627.7549" y="-111.5" font-family="Helvetica,sans-Serif" font-size="10.00" fill="#000000"> ::dimension, DoFHandler</text>
<text text-anchor="middle" x="691.8198" y="-101.5" font-family="Helvetica,sans-Serif" font-size="10.00" fill="#000000">&lt; dim &gt; ::space_dimension &gt;</text>
</g>
<!-- Node7 -->
<g id="node8" class="node">
<title>Node7</title>
<g id="a_node8"><a xlink:href="classDataOut__DoFData.html" target="_top" xlink:title="DataOut_DoFData\&lt; DoFHandler\lType, DoFHandlerType::dimension,\l DoFHandlerType::space_dimension \&gt;">
<polygon fill="#ffffff" stroke="#000000" points="793.062,-47.5 793.062,-85.5 979.438,-85.5 979.438,-47.5 793.062,-47.5"/>
<text text-anchor="start" x="801.062" y="-73.5" font-family="Helvetica,sans-Serif" font-size="10.00" fill="#000000">DataOut_DoFData&lt; DoFHandler</text>
<text text-anchor="start" x="801.062" y="-63.5" font-family="Helvetica,sans-Serif" font-size="10.00" fill="#000000">Type, DoFHandlerType::dimension,</text>
<text text-anchor="middle" x="886.25" y="-53.5" font-family="Helvetica,sans-Serif" font-size="10.00" fill="#000000"> DoFHandlerType::space_dimension &gt;</text>
</a>
</g>
</g>
<!-- Node0&#45;&gt;Node7 -->
<g id="edge7" class="edge">
<title>Node0&#45;&gt;Node7</title>
<path fill="none" stroke="#ffa500" stroke-dasharray="5,2" d="M561.8381,-71.0909C577.5266,-67.5341 594.4867,-64.3005 610.3867,-62.5 670.8308,-55.6553 739.1955,-56.5862 792.7462,-59.2625"/>
<polygon fill="#ffa500" stroke="#ffa500" points="560.6711,-67.7697 551.7361,-73.4632 562.2714,-74.5843 560.6711,-67.7697"/>
<text text-anchor="start" x="614.8325" y="-84.5" font-family="Helvetica,sans-Serif" font-size="10.00" fill="#000000"> &lt; DoFHandlerType, DoFHandler</text>
<text text-anchor="start" x="614.8325" y="-74.5" font-family="Helvetica,sans-Serif" font-size="10.00" fill="#000000">Type::dimension, DoFHandlerType</text>
<text text-anchor="middle" x="691.8198" y="-64.5" font-family="Helvetica,sans-Serif" font-size="10.00" fill="#000000">::space_dimension &gt;</text>
</g>
<!-- Node9 -->
<g id="node10" class="node">
<title>Node9</title>
<g id="a_node10"><a xlink:href="classDataOut__DoFData.html" target="_top" xlink:title="DataOut_DoFData\&lt; DoFHandler\lType, DoFHandlerType::dimension+1 \&gt;">
<polygon fill="#ffffff" stroke="#000000" points="791.2529,-.5 791.2529,-28.5 981.2471,-28.5 981.2471,-.5 791.2529,-.5"/>
<text text-anchor="start" x="799.2529" y="-16.5" font-family="Helvetica,sans-Serif" font-size="10.00" fill="#000000">DataOut_DoFData&lt; DoFHandler</text>
<text text-anchor="middle" x="886.25" y="-6.5" font-family="Helvetica,sans-Serif" font-size="10.00" fill="#000000">Type, DoFHandlerType::dimension+1 &gt;</text>
</a>
</g>
</g>
<!-- Node0&#45;&gt;Node9 -->
<g id="edge10" class="edge">
<title>Node0&#45;&gt;Node9</title>
<path fill="none" stroke="#ffa500" stroke-dasharray="5,2" d="M532.1768,-68.1796C553.3234,-55.9416 582.5149,-41.0467 610.3867,-33.5 669.1199,-17.597 737.3189,-12.7841 791.2124,-11.9779"/>
<polygon fill="#ffa500" stroke="#ffa500" points="530.1704,-65.3 523.3477,-73.4057 533.736,-71.3239 530.1704,-65.3"/>
<text text-anchor="start" x="618.5898" y="-45.5" font-family="Helvetica,sans-Serif" font-size="10.00" fill="#000000"> &lt; DoFHandlerType, DoFHandler</text>
<text text-anchor="middle" x="691.8198" y="-35.5" font-family="Helvetica,sans-Serif" font-size="10.00" fill="#000000">Type::dimension+1 &gt;</text>
</g>
<!-- Node1 -->
<g id="node2" class="node">
<title>Node1</title>
<g id="a_node2"><a xlink:href="classDataOutInterface.html" target="_top" xlink:title="DataOutInterface\&lt; patch\l_dim, patch_space_dim \&gt;">
<polygon fill="#ffffff" stroke="#000000" points="243.2158,-73.5 243.2158,-101.5 373.4492,-101.5 373.4492,-73.5 243.2158,-73.5"/>
<text text-anchor="start" x="251.2158" y="-89.5" font-family="Helvetica,sans-Serif" font-size="10.00" fill="#000000">DataOutInterface&lt; patch</text>
<text text-anchor="middle" x="308.3325" y="-79.5" font-family="Helvetica,sans-Serif" font-size="10.00" fill="#000000">_dim, patch_space_dim &gt;</text>
</a>
</g>
</g>
<!-- Node1&#45;&gt;Node0 -->
<g id="edge1" class="edge">
<title>Node1&#45;&gt;Node0</title>
<path fill="none" stroke="#191970" d="M383.8194,-87.5C392.5475,-87.5 401.517,-87.5 410.4233,-87.5"/>
<polygon fill="#191970" stroke="#191970" points="383.7025,-84.0001 373.7024,-87.5 383.7024,-91.0001 383.7025,-84.0001"/>
</g>
<!-- Node2 -->
<g id="node3" class="node">
<title>Node2</title>
<g id="a_node3"><a xlink:href="classDataOutInterface.html" target="_top" xlink:title="DataOutInterface\&lt; dim,\l spacedim \&gt;">
<polygon fill="#ffffff" stroke="#000000" points="0,-73.5 0,-101.5 119.6621,-101.5 119.6621,-73.5 0,-73.5"/>
<text text-anchor="start" x="8" y="-89.5" font-family="Helvetica,sans-Serif" font-size="10.00" fill="#000000">DataOutInterface&lt; dim,</text>
<text text-anchor="middle" x="59.8311" y="-79.5" font-family="Helvetica,sans-Serif" font-size="10.00" fill="#000000"> spacedim &gt;</text>
</a>
</g>
</g>
<!-- Node2&#45;&gt;Node1 -->
<g id="edge2" class="edge">
<title>Node2&#45;&gt;Node1</title>
<path fill="none" stroke="#ffa500" stroke-dasharray="5,2" d="M129.9383,-87.5C165.3848,-87.5 208.1398,-87.5 242.9065,-87.5"/>
<polygon fill="#ffa500" stroke="#ffa500" points="129.6696,-84.0001 119.6696,-87.5 129.6695,-91.0001 129.6696,-84.0001"/>
<text text-anchor="start" x="137.6621" y="-99.5" font-family="Helvetica,sans-Serif" font-size="10.00" fill="#000000"> &lt; patch_dim, patch</text>
<text text-anchor="middle" x="181.439" y="-89.5" font-family="Helvetica,sans-Serif" font-size="10.00" fill="#000000">_space_dim &gt;</text>
</g>
<!-- Node4 -->
<g id="node5" class="node">
<title>Node4</title>
<g id="a_node5"><a xlink:href="classDataOutFaces.html" target="_top" xlink:title="DataOutFaces\&lt; dim,\l DoFHandlerType \&gt;">
<polygon fill="#ffffff" stroke="#000000" points="1193.3228,-163.5 1193.3228,-191.5 1301.3052,-191.5 1301.3052,-163.5 1193.3228,-163.5"/>
<text text-anchor="start" x="1201.3228" y="-179.5" font-family="Helvetica,sans-Serif" font-size="10.00" fill="#000000">DataOutFaces&lt; dim,</text>
<text text-anchor="middle" x="1247.314" y="-169.5" font-family="Helvetica,sans-Serif" font-size="10.00" fill="#000000"> DoFHandlerType &gt;</text>
</a>
</g>
</g>
<!-- Node3&#45;&gt;Node4 -->
<g id="edge4" class="edge">
<title>Node3&#45;&gt;Node4</title>
<path fill="none" stroke="#191970" d="M981.6008,-177.5C1049.2064,-177.5 1137.4889,-177.5 1193.3105,-177.5"/>
<polygon fill="#191970" stroke="#191970" points="981.3599,-174.0001 971.3599,-177.5 981.3599,-181.0001 981.3599,-174.0001"/>
</g>
<!-- Node6 -->
<g id="node7" class="node">
<title>Node6</title>
<g id="a_node7"><a xlink:href="classDataOut.html" target="_top" xlink:title="DataOut\&lt; dim \&gt;">
<polygon fill="#ffffff" stroke="#000000" points="1388.1621,-79.5 1388.1621,-97.5 1474.7529,-97.5 1474.7529,-79.5 1388.1621,-79.5"/>
<text text-anchor="middle" x="1431.4575" y="-85.5" font-family="Helvetica,sans-Serif" font-size="10.00" fill="#000000">DataOut&lt; dim &gt;</text>
</a>
</g>
</g>
<!-- Node5&#45;&gt;Node6 -->
<g id="edge6" class="edge">
<title>Node5&#45;&gt;Node6</title>
<path fill="none" stroke="#191970" d="M1170.8149,-108.4666C1228.0725,-105.6063 1303.5087,-101.2535 1370.1621,-95.5 1375.9245,-95.0026 1381.9832,-94.4036 1387.9568,-93.7679"/>
<polygon fill="#191970" stroke="#191970" points="1170.5192,-104.9768 1160.7039,-108.9656 1170.8643,-111.9683 1170.5192,-104.9768"/>
</g>
<!-- Node8 -->
<g id="node9" class="node">
<title>Node8</title>
<g id="a_node9"><a xlink:href="classDataOut.html" target="_top" xlink:title="DataOut\&lt; dim, DoFHandler\lType \&gt;">
<polygon fill="#ffffff" stroke="#000000" points="1178.5938,-53.5 1178.5938,-81.5 1316.0342,-81.5 1316.0342,-53.5 1178.5938,-53.5"/>
<text text-anchor="start" x="1186.5938" y="-69.5" font-family="Helvetica,sans-Serif" font-size="10.00" fill="#000000">DataOut&lt; dim, DoFHandler</text>
<text text-anchor="middle" x="1247.314" y="-59.5" font-family="Helvetica,sans-Serif" font-size="10.00" fill="#000000">Type &gt;</text>
</a>
</g>
</g>
<!-- Node7&#45;&gt;Node8 -->
<g id="edge8" class="edge">
<title>Node7&#45;&gt;Node8</title>
<path fill="none" stroke="#191970" d="M990.0566,-66.7875C1050.5733,-66.9551 1125.2216,-67.1619 1178.4912,-67.3094"/>
<polygon fill="#191970" stroke="#191970" points="989.7122,-63.2866 979.7025,-66.7588 989.6927,-70.2866 989.7122,-63.2866"/>
</g>
<!-- Node8&#45;&gt;Node6 -->
<g id="edge9" class="edge">
<title>Node8&#45;&gt;Node6</title>
<path fill="none" stroke="#ffa500" stroke-dasharray="5,2" d="M1326.1415,-76.4896C1347.3744,-78.911 1369.5671,-81.4419 1388.0749,-83.5526"/>
<polygon fill="#ffa500" stroke="#ffa500" points="1326.4763,-73.0052 1316.1441,-75.3495 1325.6831,-79.9601 1326.4763,-73.0052"/>
<text text-anchor="middle" x="1352.0981" y="-83.5" font-family="Helvetica,sans-Serif" font-size="10.00" fill="#000000"> &lt; dim &gt;</text>
</g>
<!-- Node10 -->
<g id="node11" class="node">
<title>Node10</title>
<g id="a_node11"><a xlink:href="classDataOutRotation.html" target="_top" xlink:title="DataOutRotation\&lt; dim,\l DoFHandlerType \&gt;">
<polygon fill="#ffffff" stroke="#000000" points="1188.3154,-.5 1188.3154,-28.5 1306.3125,-28.5 1306.3125,-.5 1188.3154,-.5"/>
<text text-anchor="start" x="1196.3154" y="-16.5" font-family="Helvetica,sans-Serif" font-size="10.00" fill="#000000">DataOutRotation&lt; dim,</text>
<text text-anchor="middle" x="1247.314" y="-6.5" font-family="Helvetica,sans-Serif" font-size="10.00" fill="#000000"> DoFHandlerType &gt;</text>
</a>
</g>
</g>
<!-- Node9&#45;&gt;Node10 -->
<g id="edge11" class="edge">
<title>Node9&#45;&gt;Node10</title>
<path fill="none" stroke="#191970" d="M991.7263,-14.5C1055.7579,-14.5 1135.1152,-14.5 1188.2646,-14.5"/>
<polygon fill="#191970" stroke="#191970" points="991.5876,-11.0001 981.5876,-14.5 991.5876,-18.0001 991.5876,-11.0001"/>
</g>
</g>
</svg>
