<?xml version="1.0" encoding="UTF-8" standalone="no"?>
<!DOCTYPE svg PUBLIC "-//W3C//DTD SVG 1.1//EN"
 "http://www.w3.org/Graphics/SVG/1.1/DTD/svg11.dtd">
<!-- Generated by graphviz version 2.40.1 (20161225.0304)
 -->
<!-- Title: SymmetricTensor&lt; rank, dim, Number &gt; Pages: 1 -->
<svg width="374pt" height="112pt"
 viewBox="0.00 0.00 374.19 112.00" xmlns="http://www.w3.org/2000/svg" xmlns:xlink="http://www.w3.org/1999/xlink">
<g id="graph0" class="graph" transform="scale(1 1) rotate(0) translate(4 108)">
<title>SymmetricTensor&lt; rank, dim, Number &gt;</title>
<polygon fill="#ffffff" stroke="transparent" points="-4,4 -4,-108 370.1943,-108 370.1943,4 -4,4"/>
<!-- Node0 -->
<g id="node1" class="node">
<title>Node0</title>
<polygon fill="#bfbfbf" stroke="#000000" points="121.0542,-75.5 121.0542,-103.5 245.1401,-103.5 245.1401,-75.5 121.0542,-75.5"/>
<text text-anchor="start" x="129.0542" y="-91.5" font-family="Helvetica,sans-Serif" font-size="10.00" fill="#000000">SymmetricTensor&lt; rank,</text>
<text text-anchor="middle" x="183.0972" y="-81.5" font-family="Helvetica,sans-Serif" font-size="10.00" fill="#000000"> dim, Number &gt;</text>
</g>
<!-- Node1 -->
<g id="node2" class="node">
<title>Node1</title>
<g id="a_node2"><a xlink:href="classSymmetricTensor.html" target="_top" xlink:title="SymmetricTensor\&lt; 2,\l dim \&gt;">
<polygon fill="#ffffff" stroke="#000000" points="0,-.5 0,-28.5 110.1943,-28.5 110.1943,-.5 0,-.5"/>
<text text-anchor="start" x="8" y="-16.5" font-family="Helvetica,sans-Serif" font-size="10.00" fill="#000000">SymmetricTensor&lt; 2,</text>
<text text-anchor="middle" x="55.0972" y="-6.5" font-family="Helvetica,sans-Serif" font-size="10.00" fill="#000000"> dim &gt;</text>
</a>
</g>
</g>
<!-- Node0&#45;&gt;Node1 -->
<g id="edge1" class="edge">
<title>Node0&#45;&gt;Node1</title>
<path fill="none" stroke="#ffa500" stroke-dasharray="5,2" d="M150.2494,-70.2533C128.0153,-57.2255 99.1468,-40.3104 79.065,-28.5437"/>
<polygon fill="#ffa500" stroke="#ffa500" points="148.6239,-73.3574 159.0213,-75.3931 152.1628,-67.3178 148.6239,-73.3574"/>
<text text-anchor="middle" x="150.7202" y="-49" font-family="Helvetica,sans-Serif" font-size="10.00" fill="#000000"> &lt; 2, dim &gt;</text>
</g>
<!-- Node2 -->
<g id="node3" class="node">
<title>Node2</title>
<g id="a_node3"><a xlink:href="classSymmetricTensor.html" target="_top" xlink:title="SymmetricTensor\&lt; 4,\l dim \&gt;">
<polygon fill="#ffffff" stroke="#000000" points="128,-.5 128,-28.5 238.1943,-28.5 238.1943,-.5 128,-.5"/>
<text text-anchor="start" x="136" y="-16.5" font-family="Helvetica,sans-Serif" font-size="10.00" fill="#000000">SymmetricTensor&lt; 4,</text>
<text text-anchor="middle" x="183.0972" y="-6.5" font-family="Helvetica,sans-Serif" font-size="10.00" fill="#000000"> dim &gt;</text>
</a>
</g>
</g>
<!-- Node0&#45;&gt;Node2 -->
<g id="edge2" class="edge">
<title>Node0&#45;&gt;Node2</title>
<path fill="none" stroke="#ffa500" stroke-dasharray="5,2" d="M183.0972,-65.0415C183.0972,-52.9507 183.0972,-38.7938 183.0972,-28.5437"/>
<polygon fill="#ffa500" stroke="#ffa500" points="179.5973,-65.393 183.0972,-75.3931 186.5973,-65.3931 179.5973,-65.393"/>
<text text-anchor="middle" x="206.7202" y="-49" font-family="Helvetica,sans-Serif" font-size="10.00" fill="#000000"> &lt; 4, dim &gt;</text>
</g>
<!-- Node3 -->
<g id="node4" class="node">
<title>Node3</title>
<g id="a_node4"><a xlink:href="classSymmetricTensor.html" target="_top" xlink:title="SymmetricTensor\&lt; 2,\l spacedim \&gt;">
<polygon fill="#ffffff" stroke="#000000" points="256,-.5 256,-28.5 366.1943,-28.5 366.1943,-.5 256,-.5"/>
<text text-anchor="start" x="264" y="-16.5" font-family="Helvetica,sans-Serif" font-size="10.00" fill="#000000">SymmetricTensor&lt; 2,</text>
<text text-anchor="middle" x="311.0972" y="-6.5" font-family="Helvetica,sans-Serif" font-size="10.00" fill="#000000"> spacedim &gt;</text>
</a>
</g>
</g>
<!-- Node0&#45;&gt;Node3 -->
<g id="edge3" class="edge">
<title>Node0&#45;&gt;Node3</title>
<path fill="none" stroke="#ffa500" stroke-dasharray="5,2" d="M215.9449,-70.2533C238.179,-57.2255 267.0475,-40.3104 287.1293,-28.5437"/>
<polygon fill="#ffa500" stroke="#ffa500" points="214.0316,-67.3178 207.173,-75.3931 217.5704,-73.3574 214.0316,-67.3178"/>
<text text-anchor="middle" x="291.0625" y="-49" font-family="Helvetica,sans-Serif" font-size="10.00" fill="#000000"> &lt; 2, spacedim &gt;</text>
</g>
</g>
</svg>
