<?xml version="1.0" encoding="UTF-8" standalone="no"?>
<!DOCTYPE svg PUBLIC "-//W3C//DTD SVG 1.1//EN"
 "http://www.w3.org/Graphics/SVG/1.1/DTD/svg11.dtd">
<!-- Generated by graphviz version 2.40.1 (20161225.0304)
 -->
<!-- Title: Polynomials::PiecewisePolynomial&lt; number &gt; Pages: 1 -->
<svg width="177pt" height="168pt"
 viewBox="0.00 0.00 177.40 168.00" xmlns="http://www.w3.org/2000/svg" xmlns:xlink="http://www.w3.org/1999/xlink">
<g id="graph0" class="graph" transform="scale(1 1) rotate(0) translate(4 164)">
<title>Polynomials::PiecewisePolynomial&lt; number &gt;</title>
<polygon fill="#ffffff" stroke="transparent" points="-4,4 -4,-164 173.3984,-164 173.3984,4 -4,4"/>
<!-- Node0 -->
<g id="node1" class="node">
<title>Node0</title>
<polygon fill="#bfbfbf" stroke="#000000" points="0,-75.5 0,-103.5 169.3984,-103.5 169.3984,-75.5 0,-75.5"/>
<text text-anchor="start" x="8" y="-91.5" font-family="Helvetica,sans-Serif" font-size="10.00" fill="#000000">Polynomials::PiecewisePolynomial</text>
<text text-anchor="middle" x="84.6992" y="-81.5" font-family="Helvetica,sans-Serif" font-size="10.00" fill="#000000">&lt; number &gt;</text>
</g>
<!-- Node2 -->
<g id="node3" class="node">
<title>Node2</title>
<g id="a_node3"><a xlink:href="classPolynomials_1_1PiecewisePolynomial.html" target="_top" xlink:title="Polynomials::PiecewisePolynomial\l\&lt; double \&gt;">
<polygon fill="#ffffff" stroke="#000000" points="0,-.5 0,-28.5 169.3984,-28.5 169.3984,-.5 0,-.5"/>
<text text-anchor="start" x="8" y="-16.5" font-family="Helvetica,sans-Serif" font-size="10.00" fill="#000000">Polynomials::PiecewisePolynomial</text>
<text text-anchor="middle" x="84.6992" y="-6.5" font-family="Helvetica,sans-Serif" font-size="10.00" fill="#000000">&lt; double &gt;</text>
</a>
</g>
</g>
<!-- Node0&#45;&gt;Node2 -->
<g id="edge2" class="edge">
<title>Node0&#45;&gt;Node2</title>
<path fill="none" stroke="#ffa500" stroke-dasharray="5,2" d="M84.6992,-65.0415C84.6992,-52.9507 84.6992,-38.7938 84.6992,-28.5437"/>
<polygon fill="#ffa500" stroke="#ffa500" points="81.1993,-65.393 84.6992,-75.3931 88.1993,-65.3931 81.1993,-65.393"/>
<text text-anchor="middle" x="109.7212" y="-49" font-family="Helvetica,sans-Serif" font-size="10.00" fill="#000000"> &lt; double &gt;</text>
</g>
<!-- Node1 -->
<g id="node2" class="node">
<title>Node1</title>
<g id="a_node2"><a xlink:href="classSubscriptor.html" target="_top" xlink:title="Subscriptor">
<polygon fill="#ffffff" stroke="#000000" points="51.4111,-141.5 51.4111,-159.5 117.9873,-159.5 117.9873,-141.5 51.4111,-141.5"/>
<text text-anchor="middle" x="84.6992" y="-147.5" font-family="Helvetica,sans-Serif" font-size="10.00" fill="#000000">Subscriptor</text>
</a>
</g>
</g>
<!-- Node1&#45;&gt;Node0 -->
<g id="edge1" class="edge">
<title>Node1&#45;&gt;Node0</title>
<path fill="none" stroke="#191970" d="M84.6992,-131.2842C84.6992,-122.3664 84.6992,-111.9504 84.6992,-103.7488"/>
<polygon fill="#191970" stroke="#191970" points="81.1993,-131.4992 84.6992,-141.4992 88.1993,-131.4993 81.1993,-131.4992"/>
</g>
</g>
</svg>
