<?xml version="1.0" encoding="UTF-8" standalone="no"?>
<!DOCTYPE svg PUBLIC "-//W3C//DTD SVG 1.1//EN"
 "http://www.w3.org/Graphics/SVG/1.1/DTD/svg11.dtd">
<!-- Generated by graphviz version 2.40.1 (20161225.0304)
 -->
<!-- Title: AutoDerivativeFunction&lt; dim &gt; Pages: 1 -->
<svg width="1034pt" height="160pt"
 viewBox="0.00 0.00 1033.66 160.00" xmlns="http://www.w3.org/2000/svg" xmlns:xlink="http://www.w3.org/1999/xlink">
<g id="graph0" class="graph" transform="scale(1 1) rotate(0) translate(4 156)">
<title>AutoDerivativeFunction&lt; dim &gt;</title>
<polygon fill="#ffffff" stroke="transparent" points="-4,4 -4,-156 1029.6602,-156 1029.6602,4 -4,4"/>
<!-- Node0 -->
<g id="node1" class="node">
<title>Node0</title>
<polygon fill="#bfbfbf" stroke="#000000" points="491.6719,-62.5 491.6719,-90.5 611.0557,-90.5 611.0557,-62.5 491.6719,-62.5"/>
<text text-anchor="start" x="499.6719" y="-78.5" font-family="Helvetica,sans-Serif" font-size="10.00" fill="#000000">AutoDerivativeFunction</text>
<text text-anchor="middle" x="551.3638" y="-68.5" font-family="Helvetica,sans-Serif" font-size="10.00" fill="#000000">&lt; dim &gt;</text>
</g>
<!-- Node6 -->
<g id="node7" class="node">
<title>Node6</title>
<g id="a_node7"><a xlink:href="classFunctionDerivative.html" target="_top" xlink:title="FunctionDerivative\l\&lt; dim \&gt;">
<polygon fill="#ffffff" stroke="#000000" points="666.1245,-123.5 666.1245,-151.5 764.937,-151.5 764.937,-123.5 666.1245,-123.5"/>
<text text-anchor="start" x="674.1245" y="-139.5" font-family="Helvetica,sans-Serif" font-size="10.00" fill="#000000">FunctionDerivative</text>
<text text-anchor="middle" x="715.5308" y="-129.5" font-family="Helvetica,sans-Serif" font-size="10.00" fill="#000000">&lt; dim &gt;</text>
</a>
</g>
</g>
<!-- Node0&#45;&gt;Node6 -->
<g id="edge7" class="edge">
<title>Node0&#45;&gt;Node6</title>
<path fill="none" stroke="#191970" d="M595.4934,-94.3359C611.9303,-100.8489 630.7857,-108.1669 648.0557,-114.5 656.1894,-117.4828 664.92,-120.554 673.3129,-123.4423"/>
<polygon fill="#191970" stroke="#191970" points="596.7108,-91.0535 586.1254,-90.6077 594.1224,-97.5574 596.7108,-91.0535"/>
</g>
<!-- Node7 -->
<g id="node8" class="node">
<title>Node7</title>
<g id="a_node8"><a xlink:href="classFunctionParser.html" target="_top" xlink:title="FunctionParser\&lt; dim \&gt;">
<polygon fill="#ffffff" stroke="#000000" points="656.9521,-86.5 656.9521,-104.5 774.1094,-104.5 774.1094,-86.5 656.9521,-86.5"/>
<text text-anchor="middle" x="715.5308" y="-92.5" font-family="Helvetica,sans-Serif" font-size="10.00" fill="#000000">FunctionParser&lt; dim &gt;</text>
</a>
</g>
</g>
<!-- Node0&#45;&gt;Node7 -->
<g id="edge8" class="edge">
<title>Node0&#45;&gt;Node7</title>
<path fill="none" stroke="#191970" d="M621.0336,-84.5633C632.9918,-85.9473 645.3099,-87.3729 656.9408,-88.719"/>
<polygon fill="#191970" stroke="#191970" points="621.4323,-81.0862 611.0962,-83.4132 620.6275,-88.0397 621.4323,-81.0862"/>
</g>
<!-- Node8 -->
<g id="node9" class="node">
<title>Node8</title>
<g id="a_node9"><a xlink:href="classFunctionParser.html" target="_top" xlink:title="FunctionParser\&lt; spacedim \&gt;">
<polygon fill="#ffffff" stroke="#000000" points="881.8184,-64.5 881.8184,-82.5 1025.6602,-82.5 1025.6602,-64.5 881.8184,-64.5"/>
<text text-anchor="middle" x="953.7393" y="-70.5" font-family="Helvetica,sans-Serif" font-size="10.00" fill="#000000">FunctionParser&lt; spacedim &gt;</text>
</a>
</g>
</g>
<!-- Node0&#45;&gt;Node8 -->
<g id="edge10" class="edge">
<title>Node0&#45;&gt;Node8</title>
<path fill="none" stroke="#191970" d="M621.1788,-75.9795C694.1022,-75.4358 807.9422,-74.587 881.6888,-74.0372"/>
<polygon fill="#191970" stroke="#191970" points="621.1426,-72.4796 611.169,-76.0541 621.1948,-79.4794 621.1426,-72.4796"/>
</g>
<!-- Node9 -->
<g id="node10" class="node">
<title>Node9</title>
<g id="a_node10"><a xlink:href="classFunctions_1_1ParsedFunction.html" target="_top" xlink:title="Functions::ParsedFunction\l\&lt; dim \&gt;">
<polygon fill="#ffffff" stroke="#000000" points="648.0557,-.5 648.0557,-28.5 783.0059,-28.5 783.0059,-.5 648.0557,-.5"/>
<text text-anchor="start" x="656.0557" y="-16.5" font-family="Helvetica,sans-Serif" font-size="10.00" fill="#000000">Functions::ParsedFunction</text>
<text text-anchor="middle" x="715.5308" y="-6.5" font-family="Helvetica,sans-Serif" font-size="10.00" fill="#000000">&lt; dim &gt;</text>
</a>
</g>
</g>
<!-- Node0&#45;&gt;Node9 -->
<g id="edge11" class="edge">
<title>Node0&#45;&gt;Node9</title>
<path fill="none" stroke="#191970" d="M592.0972,-58.4918C603.9396,-53.4488 616.9469,-48.094 629.0557,-43.5 642.6763,-38.3324 657.6754,-33.1337 671.3031,-28.5936"/>
<polygon fill="#191970" stroke="#191970" points="590.6947,-55.2849 582.8889,-62.4488 593.4584,-61.7163 590.6947,-55.2849"/>
</g>
<!-- Node1 -->
<g id="node2" class="node">
<title>Node1</title>
<g id="a_node2"><a xlink:href="classFunction.html" target="_top" xlink:title="Function\&lt; dim \&gt;">
<polygon fill="#ffffff" stroke="#000000" points="366.9678,-67.5 366.9678,-85.5 454.6719,-85.5 454.6719,-67.5 366.9678,-67.5"/>
<text text-anchor="middle" x="410.8198" y="-73.5" font-family="Helvetica,sans-Serif" font-size="10.00" fill="#000000">Function&lt; dim &gt;</text>
</a>
</g>
</g>
<!-- Node1&#45;&gt;Node0 -->
<g id="edge1" class="edge">
<title>Node1&#45;&gt;Node0</title>
<path fill="none" stroke="#191970" d="M464.9132,-76.5C473.6061,-76.5 482.6483,-76.5 491.4675,-76.5"/>
<polygon fill="#191970" stroke="#191970" points="464.9032,-73.0001 454.9032,-76.5 464.9032,-80.0001 464.9032,-73.0001"/>
</g>
<!-- Node2 -->
<g id="node3" class="node">
<title>Node2</title>
<g id="a_node3"><a xlink:href="classFunctionTime.html" target="_top" xlink:title="FunctionTime\&lt; double \&gt;">
<polygon fill="#ffffff" stroke="#000000" points="168.6885,-105.5 168.6885,-123.5 292.1641,-123.5 292.1641,-105.5 168.6885,-105.5"/>
<text text-anchor="middle" x="230.4263" y="-111.5" font-family="Helvetica,sans-Serif" font-size="10.00" fill="#000000">FunctionTime&lt; double &gt;</text>
</a>
</g>
</g>
<!-- Node2&#45;&gt;Node1 -->
<g id="edge2" class="edge">
<title>Node2&#45;&gt;Node1</title>
<path fill="none" stroke="#191970" d="M286.1647,-103.4879C306.0099,-99.495 328.5059,-94.8865 348.9678,-90.5 356.2881,-88.9307 364.0836,-87.2073 371.5854,-85.5224"/>
<polygon fill="#191970" stroke="#191970" points="285.4724,-100.057 276.3558,-105.4549 286.8488,-106.9203 285.4724,-100.057"/>
</g>
<!-- Node3 -->
<g id="node4" class="node">
<title>Node3</title>
<g id="a_node4"><a xlink:href="classSubscriptor.html" target="_top" xlink:title="Subscriptor">
<polygon fill="#ffffff" stroke="#000000" points="31.2183,-60.5 31.2183,-78.5 97.7944,-78.5 97.7944,-60.5 31.2183,-60.5"/>
<text text-anchor="middle" x="64.5063" y="-66.5" font-family="Helvetica,sans-Serif" font-size="10.00" fill="#000000">Subscriptor</text>
</a>
</g>
</g>
<!-- Node3&#45;&gt;Node1 -->
<g id="edge3" class="edge">
<title>Node3&#45;&gt;Node1</title>
<path fill="none" stroke="#191970" d="M108.1531,-70.3822C174.5283,-71.7239 300.1457,-74.263 366.7637,-75.6095"/>
<polygon fill="#191970" stroke="#191970" points="108.0957,-66.8804 98.027,-70.1775 107.9542,-73.879 108.0957,-66.8804"/>
</g>
<!-- Node4 -->
<g id="node5" class="node">
<title>Node4</title>
<g id="a_node5"><a xlink:href="classFunction.html" target="_top" xlink:title="Function\&lt; dim, Number \&gt;">
<polygon fill="#ffffff" stroke="#000000" points="166.0127,-29.5 166.0127,-47.5 294.8398,-47.5 294.8398,-29.5 166.0127,-29.5"/>
<text text-anchor="middle" x="230.4263" y="-35.5" font-family="Helvetica,sans-Serif" font-size="10.00" fill="#000000">Function&lt; dim, Number &gt;</text>
</a>
</g>
</g>
<!-- Node3&#45;&gt;Node4 -->
<g id="edge6" class="edge">
<title>Node3&#45;&gt;Node4</title>
<path fill="none" stroke="#191970" d="M108.1335,-61.3488C130.8691,-57.101 158.733,-51.895 182.1184,-47.5257"/>
<polygon fill="#191970" stroke="#191970" points="107.2698,-57.9496 98.0827,-63.2267 108.5555,-64.8305 107.2698,-57.9496"/>
</g>
<!-- Node4&#45;&gt;Node1 -->
<g id="edge4" class="edge">
<title>Node4&#45;&gt;Node1</title>
<path fill="none" stroke="#ffa500" stroke-dasharray="5,2" d="M305.0107,-44.3962C319.7034,-46.3733 334.9159,-49.0039 348.9678,-52.5 363.4985,-56.1152 379.2215,-62.2477 391.1787,-67.4086"/>
<polygon fill="#ffa500" stroke="#ffa500" points="305.3014,-40.9052 294.9426,-43.1292 304.4274,-47.8505 305.3014,-40.9052"/>
<text text-anchor="middle" x="330.9038" y="-54.5" font-family="Helvetica,sans-Serif" font-size="10.00" fill="#000000"> &lt; dim &gt;</text>
</g>
<!-- Node5 -->
<g id="node6" class="node">
<title>Node5</title>
<g id="a_node6"><a xlink:href="classFunctionTime.html" target="_top" xlink:title="FunctionTime\&lt; Number \&gt;">
<polygon fill="#ffffff" stroke="#000000" points="0,-17.5 0,-35.5 129.0127,-35.5 129.0127,-17.5 0,-17.5"/>
<text text-anchor="middle" x="64.5063" y="-23.5" font-family="Helvetica,sans-Serif" font-size="10.00" fill="#000000">FunctionTime&lt; Number &gt;</text>
</a>
</g>
</g>
<!-- Node5&#45;&gt;Node4 -->
<g id="edge5" class="edge">
<title>Node5&#45;&gt;Node4</title>
<path fill="none" stroke="#191970" d="M139.1581,-31.8991C148.1088,-32.5465 157.1897,-33.2032 165.9786,-33.8389"/>
<polygon fill="#191970" stroke="#191970" points="139.3569,-28.4044 129.1304,-31.1739 138.8519,-35.3862 139.3569,-28.4044"/>
</g>
<!-- Node7&#45;&gt;Node8 -->
<g id="edge9" class="edge">
<title>Node7&#45;&gt;Node8</title>
<path fill="none" stroke="#ffa500" stroke-dasharray="5,2" d="M784.513,-89.1291C814.9403,-86.3189 850.7055,-83.0158 881.4985,-80.1719"/>
<polygon fill="#ffa500" stroke="#ffa500" points="784.0495,-85.6569 774.4138,-90.0618 784.6933,-92.6272 784.0495,-85.6569"/>
<text text-anchor="middle" x="832.4121" y="-88.5" font-family="Helvetica,sans-Serif" font-size="10.00" fill="#000000"> &lt; spacedim &gt;</text>
</g>
</g>
</svg>
