<?xml version="1.0" encoding="UTF-8" standalone="no"?>
<!DOCTYPE svg PUBLIC "-//W3C//DTD SVG 1.1//EN"
 "http://www.w3.org/Graphics/SVG/1.1/DTD/svg11.dtd">
<!-- Generated by graphviz version 2.40.1 (20161225.0304)
 -->
<!-- Title: Patterns::Selection Pages: 1 -->
<svg width="122pt" height="137pt"
 viewBox="0.00 0.00 121.83 137.00" xmlns="http://www.w3.org/2000/svg" xmlns:xlink="http://www.w3.org/1999/xlink">
<g id="graph0" class="graph" transform="scale(1 1) rotate(0) translate(4 133)">
<title>Patterns::Selection</title>
<polygon fill="#ffffff" stroke="transparent" points="-4,4 -4,-133 117.832,-133 117.832,4 -4,4"/>
<!-- Node0 -->
<g id="node1" class="node">
<title>Node0</title>
<polygon fill="#bfbfbf" stroke="#000000" points="6.9482,-55.5 6.9482,-73.5 106.8838,-73.5 106.8838,-55.5 6.9482,-55.5"/>
<text text-anchor="middle" x="56.916" y="-61.5" font-family="Helvetica,sans-Serif" font-size="10.00" fill="#000000">Patterns::Selection</text>
</g>
<!-- Node2 -->
<g id="node3" class="node">
<title>Node2</title>
<g id="a_node3"><a xlink:href="classPatterns_1_1Bool.html" target="_top" xlink:title="Patterns::Bool">
<polygon fill="#ffffff" stroke="#000000" points="17.5098,-.5 17.5098,-18.5 96.3223,-18.5 96.3223,-.5 17.5098,-.5"/>
<text text-anchor="middle" x="56.916" y="-6.5" font-family="Helvetica,sans-Serif" font-size="10.00" fill="#000000">Patterns::Bool</text>
</a>
</g>
</g>
<!-- Node0&#45;&gt;Node2 -->
<g id="edge2" class="edge">
<title>Node0&#45;&gt;Node2</title>
<path fill="none" stroke="#191970" d="M56.916,-45.383C56.916,-36.3738 56.916,-26.0373 56.916,-18.7795"/>
<polygon fill="#191970" stroke="#191970" points="53.4161,-45.4178 56.916,-55.4179 60.4161,-45.4179 53.4161,-45.4178"/>
</g>
<!-- Node1 -->
<g id="node2" class="node">
<title>Node1</title>
<g id="a_node2"><a xlink:href="classPatterns_1_1PatternBase.html" target="_top" xlink:title="Patterns::PatternBase">
<polygon fill="#ffffff" stroke="#000000" points="0,-110.5 0,-128.5 113.832,-128.5 113.832,-110.5 0,-110.5"/>
<text text-anchor="middle" x="56.916" y="-116.5" font-family="Helvetica,sans-Serif" font-size="10.00" fill="#000000">Patterns::PatternBase</text>
</a>
</g>
</g>
<!-- Node1&#45;&gt;Node0 -->
<g id="edge1" class="edge">
<title>Node1&#45;&gt;Node0</title>
<path fill="none" stroke="#191970" d="M56.916,-100.383C56.916,-91.3738 56.916,-81.0373 56.916,-73.7795"/>
<polygon fill="#191970" stroke="#191970" points="53.4161,-100.4178 56.916,-110.4179 60.4161,-100.4179 53.4161,-100.4178"/>
</g>
</g>
</svg>
