<?xml version="1.0" encoding="UTF-8" standalone="no"?>
<!DOCTYPE svg PUBLIC "-//W3C//DTD SVG 1.1//EN"
 "http://www.w3.org/Graphics/SVG/1.1/DTD/svg11.dtd">
<!-- Generated by graphviz version 2.40.1 (20161225.0304)
 -->
<!-- Title: TensorProductPolynomialsBubbles&lt; dim &gt; Pages: 1 -->
<svg width="142pt" height="178pt"
 viewBox="0.00 0.00 142.39 178.00" xmlns="http://www.w3.org/2000/svg" xmlns:xlink="http://www.w3.org/1999/xlink">
<g id="graph0" class="graph" transform="scale(1 1) rotate(0) translate(4 174)">
<title>TensorProductPolynomialsBubbles&lt; dim &gt;</title>
<polygon fill="#ffffff" stroke="transparent" points="-4,4 -4,-174 138.3887,-174 138.3887,4 -4,4"/>
<!-- Node0 -->
<g id="node1" class="node">
<title>Node0</title>
<polygon fill="#bfbfbf" stroke="#000000" points="0,-.5 0,-28.5 134.3887,-28.5 134.3887,-.5 0,-.5"/>
<text text-anchor="start" x="8" y="-16.5" font-family="Helvetica,sans-Serif" font-size="10.00" fill="#000000">TensorProductPolynomials</text>
<text text-anchor="middle" x="67.1943" y="-6.5" font-family="Helvetica,sans-Serif" font-size="10.00" fill="#000000">Bubbles&lt; dim &gt;</text>
</g>
<!-- Node1 -->
<g id="node2" class="node">
<title>Node1</title>
<g id="a_node2"><a xlink:href="classTensorProductPolynomials.html" target="_top" xlink:title="TensorProductPolynomials\l\&lt; dim \&gt;">
<polygon fill="#ffffff" stroke="#000000" points="0,-66.5 0,-94.5 134.3887,-94.5 134.3887,-66.5 0,-66.5"/>
<text text-anchor="start" x="8" y="-82.5" font-family="Helvetica,sans-Serif" font-size="10.00" fill="#000000">TensorProductPolynomials</text>
<text text-anchor="middle" x="67.1943" y="-72.5" font-family="Helvetica,sans-Serif" font-size="10.00" fill="#000000">&lt; dim &gt;</text>
</a>
</g>
</g>
<!-- Node1&#45;&gt;Node0 -->
<g id="edge1" class="edge">
<title>Node1&#45;&gt;Node0</title>
<path fill="none" stroke="#191970" d="M67.1943,-56.0322C67.1943,-46.8606 67.1943,-36.7449 67.1943,-28.7931"/>
<polygon fill="#191970" stroke="#191970" points="63.6944,-56.1789 67.1943,-66.179 70.6944,-56.179 63.6944,-56.1789"/>
</g>
<!-- Node2 -->
<g id="node3" class="node">
<title>Node2</title>
<g id="a_node3"><a xlink:href="classTensorProductPolynomials.html" target="_top" xlink:title="TensorProductPolynomials\l\&lt; dim, PolynomialType \&gt;">
<polygon fill="#ffffff" stroke="#000000" points="0,-141.5 0,-169.5 134.3887,-169.5 134.3887,-141.5 0,-141.5"/>
<text text-anchor="start" x="8" y="-157.5" font-family="Helvetica,sans-Serif" font-size="10.00" fill="#000000">TensorProductPolynomials</text>
<text text-anchor="middle" x="67.1943" y="-147.5" font-family="Helvetica,sans-Serif" font-size="10.00" fill="#000000">&lt; dim, PolynomialType &gt;</text>
</a>
</g>
</g>
<!-- Node2&#45;&gt;Node1 -->
<g id="edge2" class="edge">
<title>Node2&#45;&gt;Node1</title>
<path fill="none" stroke="#ffa500" stroke-dasharray="5,2" d="M67.1943,-131.0415C67.1943,-118.9507 67.1943,-104.7938 67.1943,-94.5437"/>
<polygon fill="#ffa500" stroke="#ffa500" points="63.6944,-131.393 67.1943,-141.3931 70.6944,-131.3931 63.6944,-131.393"/>
<text text-anchor="middle" x="85.2583" y="-115" font-family="Helvetica,sans-Serif" font-size="10.00" fill="#000000"> &lt; dim &gt;</text>
</g>
</g>
</svg>
