<?xml version="1.0" encoding="UTF-8" standalone="no"?>
<!DOCTYPE svg PUBLIC "-//W3C//DTD SVG 1.1//EN"
 "http://www.w3.org/Graphics/SVG/1.1/DTD/svg11.dtd">
<!-- Generated by graphviz version 2.40.1 (20161225.0304)
 -->
<!-- Title: Polynomials::Polynomial&lt; number &gt; Pages: 1 -->
<svg width="651pt" height="200pt"
 viewBox="0.00 0.00 650.58 200.00" xmlns="http://www.w3.org/2000/svg" xmlns:xlink="http://www.w3.org/1999/xlink">
<g id="graph0" class="graph" transform="scale(1 1) rotate(0) translate(4 196)">
<title>Polynomials::Polynomial&lt; number &gt;</title>
<polygon fill="#ffffff" stroke="transparent" points="-4,4 -4,-196 646.584,-196 646.584,4 -4,4"/>
<!-- Node0 -->
<g id="node1" class="node">
<title>Node0</title>
<polygon fill="#bfbfbf" stroke="#000000" points="103.5762,-116.5 103.5762,-144.5 227.9551,-144.5 227.9551,-116.5 103.5762,-116.5"/>
<text text-anchor="start" x="111.5762" y="-132.5" font-family="Helvetica,sans-Serif" font-size="10.00" fill="#000000">Polynomials::Polynomial</text>
<text text-anchor="middle" x="165.7656" y="-122.5" font-family="Helvetica,sans-Serif" font-size="10.00" fill="#000000">&lt; number &gt;</text>
</g>
<!-- Node2 -->
<g id="node3" class="node">
<title>Node2</title>
<g id="a_node3"><a xlink:href="classPolynomials_1_1Monomial.html" target="_top" xlink:title="Polynomials::Monomial\l\&lt; number \&gt;">
<polygon fill="#ffffff" stroke="#000000" points="316.7798,-163.5 316.7798,-191.5 435.5972,-191.5 435.5972,-163.5 316.7798,-163.5"/>
<text text-anchor="start" x="324.7798" y="-179.5" font-family="Helvetica,sans-Serif" font-size="10.00" fill="#000000">Polynomials::Monomial</text>
<text text-anchor="middle" x="376.1885" y="-169.5" font-family="Helvetica,sans-Serif" font-size="10.00" fill="#000000">&lt; number &gt;</text>
</a>
</g>
</g>
<!-- Node0&#45;&gt;Node2 -->
<g id="edge2" class="edge">
<title>Node0&#45;&gt;Node2</title>
<path fill="none" stroke="#191970" d="M238.0726,-146.6505C263.6767,-152.3694 292.1716,-158.734 316.598,-164.1899"/>
<polygon fill="#191970" stroke="#191970" points="238.5678,-143.1749 228.0453,-144.4108 237.0419,-150.0066 238.5678,-143.1749"/>
</g>
<!-- Node3 -->
<g id="node4" class="node">
<title>Node3</title>
<g id="a_node4"><a xlink:href="classPolynomialsBernstein.html" target="_top" xlink:title="PolynomialsBernstein\l\&lt; number \&gt;">
<polygon fill="#ffffff" stroke="#000000" points="320.1099,-116.5 320.1099,-144.5 432.2671,-144.5 432.2671,-116.5 320.1099,-116.5"/>
<text text-anchor="start" x="328.1099" y="-132.5" font-family="Helvetica,sans-Serif" font-size="10.00" fill="#000000">PolynomialsBernstein</text>
<text text-anchor="middle" x="376.1885" y="-122.5" font-family="Helvetica,sans-Serif" font-size="10.00" fill="#000000">&lt; number &gt;</text>
</a>
</g>
</g>
<!-- Node0&#45;&gt;Node3 -->
<g id="edge3" class="edge">
<title>Node0&#45;&gt;Node3</title>
<path fill="none" stroke="#191970" d="M238.1167,-130.5C264.8395,-130.5 294.7062,-130.5 319.8077,-130.5"/>
<polygon fill="#191970" stroke="#191970" points="238.0454,-127.0001 228.0453,-130.5 238.0453,-134.0001 238.0454,-127.0001"/>
</g>
<!-- Node4 -->
<g id="node5" class="node">
<title>Node4</title>
<g id="a_node5"><a xlink:href="classPolynomials_1_1Polynomial.html" target="_top" xlink:title="Polynomials::Polynomial\l\&lt; double \&gt;">
<polygon fill="#ffffff" stroke="#000000" points="313.999,-69.5 313.999,-97.5 438.3779,-97.5 438.3779,-69.5 313.999,-69.5"/>
<text text-anchor="start" x="321.999" y="-85.5" font-family="Helvetica,sans-Serif" font-size="10.00" fill="#000000">Polynomials::Polynomial</text>
<text text-anchor="middle" x="376.1885" y="-75.5" font-family="Helvetica,sans-Serif" font-size="10.00" fill="#000000">&lt; double &gt;</text>
</a>
</g>
</g>
<!-- Node0&#45;&gt;Node4 -->
<g id="edge4" class="edge">
<title>Node0&#45;&gt;Node4</title>
<path fill="none" stroke="#ffa500" stroke-dasharray="5,2" d="M238.0476,-114.3551C262.6537,-108.8591 289.9324,-102.7661 313.705,-97.4563"/>
<polygon fill="#ffa500" stroke="#ffa500" points="237.0419,-110.9934 228.0453,-116.5892 238.5678,-117.8251 237.0419,-110.9934"/>
<text text-anchor="middle" x="270.9771" y="-113.5" font-family="Helvetica,sans-Serif" font-size="10.00" fill="#000000"> &lt; double &gt;</text>
</g>
<!-- Node1 -->
<g id="node2" class="node">
<title>Node1</title>
<g id="a_node2"><a xlink:href="classSubscriptor.html" target="_top" xlink:title="Subscriptor">
<polygon fill="#ffffff" stroke="#000000" points="0,-121.5 0,-139.5 66.5762,-139.5 66.5762,-121.5 0,-121.5"/>
<text text-anchor="middle" x="33.2881" y="-127.5" font-family="Helvetica,sans-Serif" font-size="10.00" fill="#000000">Subscriptor</text>
</a>
</g>
</g>
<!-- Node1&#45;&gt;Node0 -->
<g id="edge1" class="edge">
<title>Node1&#45;&gt;Node0</title>
<path fill="none" stroke="#191970" d="M76.7965,-130.5C85.329,-130.5 94.4342,-130.5 103.4424,-130.5"/>
<polygon fill="#191970" stroke="#191970" points="76.7178,-127.0001 66.7178,-130.5 76.7177,-134.0001 76.7178,-127.0001"/>
</g>
<!-- Node5 -->
<g id="node6" class="node">
<title>Node5</title>
<g id="a_node6"><a xlink:href="classPolynomials_1_1HermiteInterpolation.html" target="_top" xlink:title="Polynomials::HermiteInterpolation">
<polygon fill="#ffffff" stroke="#000000" points="476.2251,-148.5 476.2251,-166.5 641.7368,-166.5 641.7368,-148.5 476.2251,-148.5"/>
<text text-anchor="middle" x="558.981" y="-154.5" font-family="Helvetica,sans-Serif" font-size="10.00" fill="#000000">Polynomials::HermiteInterpolation</text>
</a>
</g>
</g>
<!-- Node4&#45;&gt;Node5 -->
<g id="edge5" class="edge">
<title>Node4&#45;&gt;Node5</title>
<path fill="none" stroke="#191970" d="M429.7351,-101.7829C432.7133,-103.2667 435.6155,-104.8393 438.3779,-106.5 457.2629,-117.853 455.7343,-129.517 475.3779,-139.5 482.6576,-143.1996 490.6683,-146.1404 498.7598,-148.4776"/>
<polygon fill="#191970" stroke="#191970" points="431.1835,-98.5966 420.6358,-97.5981 428.2586,-104.9563 431.1835,-98.5966"/>
</g>
<!-- Node6 -->
<g id="node7" class="node">
<title>Node6</title>
<g id="a_node7"><a xlink:href="classPolynomials_1_1Hierarchical.html" target="_top" xlink:title="Polynomials::Hierarchical">
<polygon fill="#ffffff" stroke="#000000" points="494.8506,-111.5 494.8506,-129.5 623.1113,-129.5 623.1113,-111.5 494.8506,-111.5"/>
<text text-anchor="middle" x="558.981" y="-117.5" font-family="Helvetica,sans-Serif" font-size="10.00" fill="#000000">Polynomials::Hierarchical</text>
</a>
</g>
</g>
<!-- Node4&#45;&gt;Node6 -->
<g id="edge6" class="edge">
<title>Node4&#45;&gt;Node6</title>
<path fill="none" stroke="#191970" d="M448.6651,-98.1704C470.8889,-102.6688 494.6735,-107.4832 514.4466,-111.4856"/>
<polygon fill="#191970" stroke="#191970" points="449.0797,-94.6834 438.584,-96.1298 447.6909,-101.5442 449.0797,-94.6834"/>
</g>
<!-- Node7 -->
<g id="node8" class="node">
<title>Node7</title>
<g id="a_node8"><a xlink:href="classPolynomials_1_1LagrangeEquidistant.html" target="_top" xlink:title="Polynomials::LagrangeEquidistant">
<polygon fill="#ffffff" stroke="#000000" points="475.3779,-74.5 475.3779,-92.5 642.584,-92.5 642.584,-74.5 475.3779,-74.5"/>
<text text-anchor="middle" x="558.981" y="-80.5" font-family="Helvetica,sans-Serif" font-size="10.00" fill="#000000">Polynomials::LagrangeEquidistant</text>
</a>
</g>
</g>
<!-- Node4&#45;&gt;Node7 -->
<g id="edge7" class="edge">
<title>Node4&#45;&gt;Node7</title>
<path fill="none" stroke="#191970" d="M448.6826,-83.5C457.3959,-83.5 466.349,-83.5 475.206,-83.5"/>
<polygon fill="#191970" stroke="#191970" points="448.5841,-80.0001 438.584,-83.5 448.584,-87.0001 448.5841,-80.0001"/>
</g>
<!-- Node8 -->
<g id="node9" class="node">
<title>Node8</title>
<g id="a_node9"><a xlink:href="classPolynomials_1_1Legendre.html" target="_top" xlink:title="Polynomials::Legendre">
<polygon fill="#ffffff" stroke="#000000" points="500.1167,-37.5 500.1167,-55.5 617.8452,-55.5 617.8452,-37.5 500.1167,-37.5"/>
<text text-anchor="middle" x="558.981" y="-43.5" font-family="Helvetica,sans-Serif" font-size="10.00" fill="#000000">Polynomials::Legendre</text>
</a>
</g>
</g>
<!-- Node4&#45;&gt;Node8 -->
<g id="edge8" class="edge">
<title>Node4&#45;&gt;Node8</title>
<path fill="none" stroke="#191970" d="M448.6651,-68.8296C470.8889,-64.3312 494.6735,-59.5168 514.4466,-55.5144"/>
<polygon fill="#191970" stroke="#191970" points="447.6909,-65.4558 438.584,-70.8702 449.0797,-72.3166 447.6909,-65.4558"/>
</g>
<!-- Node9 -->
<g id="node10" class="node">
<title>Node9</title>
<g id="a_node10"><a xlink:href="classPolynomials_1_1Lobatto.html" target="_top" xlink:title="Polynomials::Lobatto">
<polygon fill="#ffffff" stroke="#000000" points="504.5649,-.5 504.5649,-18.5 613.397,-18.5 613.397,-.5 504.5649,-.5"/>
<text text-anchor="middle" x="558.981" y="-6.5" font-family="Helvetica,sans-Serif" font-size="10.00" fill="#000000">Polynomials::Lobatto</text>
</a>
</g>
</g>
<!-- Node4&#45;&gt;Node9 -->
<g id="edge9" class="edge">
<title>Node4&#45;&gt;Node9</title>
<path fill="none" stroke="#191970" d="M405.5028,-63.8267C424.6648,-51.7693 450.6413,-36.8962 475.3779,-27.5 484.8159,-23.915 495.1388,-20.9645 505.2104,-18.5644"/>
<polygon fill="#191970" stroke="#191970" points="403.4754,-60.9689 396.9434,-69.3106 407.2516,-66.8629 403.4754,-60.9689"/>
</g>
</g>
</svg>
