<?xml version="1.0" encoding="UTF-8" standalone="no"?>
<!DOCTYPE svg PUBLIC "-//W3C//DTD SVG 1.1//EN"
 "http://www.w3.org/Graphics/SVG/1.1/DTD/svg11.dtd">
<!-- Generated by graphviz version 2.40.1 (20161225.0304)
 -->
<!-- Title: FE_DGQLegendre&lt; dim, spacedim &gt; Pages: 1 -->
<svg width="275pt" height="376pt"
 viewBox="0.00 0.00 274.92 376.00" xmlns="http://www.w3.org/2000/svg" xmlns:xlink="http://www.w3.org/1999/xlink">
<g id="graph0" class="graph" transform="scale(1 1) rotate(0) translate(4 372)">
<title>FE_DGQLegendre&lt; dim, spacedim &gt;</title>
<polygon fill="#ffffff" stroke="transparent" points="-4,4 -4,-372 270.9214,-372 270.9214,4 -4,4"/>
<!-- Node0 -->
<g id="node1" class="node">
<title>Node0</title>
<polygon fill="#bfbfbf" stroke="#000000" points="26.8677,-.5 26.8677,-28.5 153.7563,-28.5 153.7563,-.5 26.8677,-.5"/>
<text text-anchor="start" x="34.8677" y="-16.5" font-family="Helvetica,sans-Serif" font-size="10.00" fill="#000000">FE_DGQLegendre&lt; dim,</text>
<text text-anchor="middle" x="90.312" y="-6.5" font-family="Helvetica,sans-Serif" font-size="10.00" fill="#000000"> spacedim &gt;</text>
</g>
<!-- Node1 -->
<g id="node2" class="node">
<title>Node1</title>
<g id="a_node2"><a xlink:href="classFE__DGQ.html" target="_top" xlink:title="FE_DGQ\&lt; dim, spacedim \&gt;">
<polygon fill="#ffffff" stroke="#000000" points="20.9009,-66.5 20.9009,-84.5 159.7231,-84.5 159.7231,-66.5 20.9009,-66.5"/>
<text text-anchor="middle" x="90.312" y="-72.5" font-family="Helvetica,sans-Serif" font-size="10.00" fill="#000000">FE_DGQ&lt; dim, spacedim &gt;</text>
</a>
</g>
</g>
<!-- Node1&#45;&gt;Node0 -->
<g id="edge1" class="edge">
<title>Node1&#45;&gt;Node0</title>
<path fill="none" stroke="#191970" d="M90.312,-56.2842C90.312,-47.3664 90.312,-36.9504 90.312,-28.7488"/>
<polygon fill="#191970" stroke="#191970" points="86.8121,-56.4992 90.312,-66.4992 93.8121,-56.4993 86.8121,-56.4992"/>
</g>
<!-- Node2 -->
<g id="node3" class="node">
<title>Node2</title>
<g id="a_node3"><a xlink:href="classFE__Poly.html" target="_top" xlink:title="FE_Poly\&lt; TensorProductPolynomials\l\&lt; dim \&gt;, dim, spacedim \&gt;">
<polygon fill="#ffffff" stroke="#000000" points="0,-122.5 0,-150.5 180.624,-150.5 180.624,-122.5 0,-122.5"/>
<text text-anchor="start" x="8" y="-138.5" font-family="Helvetica,sans-Serif" font-size="10.00" fill="#000000">FE_Poly&lt; TensorProductPolynomials</text>
<text text-anchor="middle" x="90.312" y="-128.5" font-family="Helvetica,sans-Serif" font-size="10.00" fill="#000000">&lt; dim &gt;, dim, spacedim &gt;</text>
</a>
</g>
</g>
<!-- Node2&#45;&gt;Node1 -->
<g id="edge2" class="edge">
<title>Node2&#45;&gt;Node1</title>
<path fill="none" stroke="#191970" d="M90.312,-112.1001C90.312,-102.5157 90.312,-92.0935 90.312,-84.831"/>
<polygon fill="#191970" stroke="#191970" points="86.8121,-112.352 90.312,-122.3521 93.8121,-112.3521 86.8121,-112.352"/>
</g>
<!-- Node3 -->
<g id="node4" class="node">
<title>Node3</title>
<g id="a_node4"><a xlink:href="classFiniteElement.html" target="_top" xlink:title="FiniteElement\&lt; dim,\l spacedim \&gt;">
<polygon fill="#ffffff" stroke="#000000" points="33.9883,-273.5 33.9883,-301.5 138.6357,-301.5 138.6357,-273.5 33.9883,-273.5"/>
<text text-anchor="start" x="41.9883" y="-289.5" font-family="Helvetica,sans-Serif" font-size="10.00" fill="#000000">FiniteElement&lt; dim,</text>
<text text-anchor="middle" x="86.312" y="-279.5" font-family="Helvetica,sans-Serif" font-size="10.00" fill="#000000"> spacedim &gt;</text>
</a>
</g>
</g>
<!-- Node3&#45;&gt;Node2 -->
<g id="edge3" class="edge">
<title>Node3&#45;&gt;Node2</title>
<path fill="none" stroke="#191970" d="M86.9592,-263.0677C87.8027,-231.2268 89.2504,-176.576 89.9338,-150.778"/>
<polygon fill="#191970" stroke="#191970" points="83.4545,-263.2051 86.6883,-273.2943 90.452,-263.3905 83.4545,-263.2051"/>
</g>
<!-- Node6 -->
<g id="node7" class="node">
<title>Node6</title>
<g id="a_node7"><a xlink:href="classFE__Poly.html" target="_top" xlink:title="FE_Poly\&lt; PolynomialType,\l dim, spacedim \&gt;">
<polygon fill="#ffffff" stroke="#000000" points="102.4194,-207.5 102.4194,-235.5 238.2046,-235.5 238.2046,-207.5 102.4194,-207.5"/>
<text text-anchor="start" x="110.4194" y="-223.5" font-family="Helvetica,sans-Serif" font-size="10.00" fill="#000000">FE_Poly&lt; PolynomialType,</text>
<text text-anchor="middle" x="170.312" y="-213.5" font-family="Helvetica,sans-Serif" font-size="10.00" fill="#000000"> dim, spacedim &gt;</text>
</a>
</g>
</g>
<!-- Node3&#45;&gt;Node6 -->
<g id="edge7" class="edge">
<title>Node3&#45;&gt;Node6</title>
<path fill="none" stroke="#191970" d="M112.6455,-266.8094C125.5851,-256.6426 140.8405,-244.6562 152.4094,-235.5663"/>
<polygon fill="#191970" stroke="#191970" points="110.2396,-264.2486 104.5388,-273.179 114.5644,-269.7529 110.2396,-264.2486"/>
</g>
<!-- Node4 -->
<g id="node5" class="node">
<title>Node4</title>
<g id="a_node5"><a xlink:href="classSubscriptor.html" target="_top" xlink:title="Subscriptor">
<polygon fill="#ffffff" stroke="#000000" points="2.0239,-344.5 2.0239,-362.5 68.6001,-362.5 68.6001,-344.5 2.0239,-344.5"/>
<text text-anchor="middle" x="35.312" y="-350.5" font-family="Helvetica,sans-Serif" font-size="10.00" fill="#000000">Subscriptor</text>
</a>
</g>
</g>
<!-- Node4&#45;&gt;Node3 -->
<g id="edge4" class="edge">
<title>Node4&#45;&gt;Node3</title>
<path fill="none" stroke="#191970" d="M48.7455,-336.1155C57.0455,-325.3744 67.5619,-311.7648 75.3556,-301.6789"/>
<polygon fill="#191970" stroke="#191970" points="45.7484,-334.27 42.4033,-344.323 51.2874,-338.5502 45.7484,-334.27"/>
</g>
<!-- Node5 -->
<g id="node6" class="node">
<title>Node5</title>
<g id="a_node6"><a xlink:href="classFiniteElementData.html" target="_top" xlink:title="FiniteElementData\&lt;\l dim \&gt;">
<polygon fill="#ffffff" stroke="#000000" points="86.2617,-339.5 86.2617,-367.5 190.3623,-367.5 190.3623,-339.5 86.2617,-339.5"/>
<text text-anchor="start" x="94.2617" y="-355.5" font-family="Helvetica,sans-Serif" font-size="10.00" fill="#000000">FiniteElementData&lt;</text>
<text text-anchor="middle" x="138.312" y="-345.5" font-family="Helvetica,sans-Serif" font-size="10.00" fill="#000000"> dim &gt;</text>
</a>
</g>
</g>
<!-- Node5&#45;&gt;Node3 -->
<g id="edge5" class="edge">
<title>Node5&#45;&gt;Node3</title>
<path fill="none" stroke="#191970" d="M120.6698,-331.108C113.0309,-321.4125 104.315,-310.3499 97.5732,-301.7931"/>
<polygon fill="#191970" stroke="#191970" points="118.0908,-333.4901 127.0288,-339.179 123.5893,-329.158 118.0908,-333.4901"/>
</g>
<!-- Node6&#45;&gt;Node2 -->
<g id="edge6" class="edge">
<title>Node6&#45;&gt;Node2</title>
<path fill="none" stroke="#ffa500" stroke-dasharray="5,2" d="M149.9599,-199.8758C135.3817,-184.3866 116.1713,-163.9755 103.542,-150.5569"/>
<polygon fill="#ffa500" stroke="#ffa500" points="147.6993,-202.5807 157.1016,-207.464 152.7967,-197.7832 147.6993,-202.5807"/>
<text text-anchor="start" x="137.312" y="-181" font-family="Helvetica,sans-Serif" font-size="10.00" fill="#000000"> &lt; TensorProductPolynomials</text>
<text text-anchor="middle" x="202.1167" y="-171" font-family="Helvetica,sans-Serif" font-size="10.00" fill="#000000">&lt; dim &gt;, dim, spacedim &gt;</text>
</g>
</g>
</svg>
