<?xml version="1.0" encoding="UTF-8" standalone="no"?>
<!DOCTYPE svg PUBLIC "-//W3C//DTD SVG 1.1//EN"
 "http://www.w3.org/Graphics/SVG/1.1/DTD/svg11.dtd">
<!-- Generated by graphviz version 2.40.1 (20161225.0304)
 -->
<!-- Title: FE_DGQ&lt; dim, spacedim &gt; Pages: 1 -->
<svg width="1112pt" height="131pt"
 viewBox="0.00 0.00 1112.48 131.00" xmlns="http://www.w3.org/2000/svg" xmlns:xlink="http://www.w3.org/1999/xlink">
<g id="graph0" class="graph" transform="scale(1 1) rotate(0) translate(4 127)">
<title>FE_DGQ&lt; dim, spacedim &gt;</title>
<polygon fill="#ffffff" stroke="transparent" points="-4,4 -4,-127 1108.4775,-127 1108.4775,4 -4,4"/>
<!-- Node0 -->
<g id="node1" class="node">
<title>Node0</title>
<polygon fill="#bfbfbf" stroke="#000000" points="801.7666,-52.5 801.7666,-70.5 940.5889,-70.5 940.5889,-52.5 801.7666,-52.5"/>
<text text-anchor="middle" x="871.1777" y="-58.5" font-family="Helvetica,sans-Serif" font-size="10.00" fill="#000000">FE_DGQ&lt; dim, spacedim &gt;</text>
</g>
<!-- Node6 -->
<g id="node7" class="node">
<title>Node6</title>
<g id="a_node7"><a xlink:href="classFE__DGQArbitraryNodes.html" target="_top" xlink:title="FE_DGQArbitraryNodes\l\&lt; dim, spacedim \&gt;">
<polygon fill="#ffffff" stroke="#000000" points="979.1294,-94.5 979.1294,-122.5 1102.937,-122.5 1102.937,-94.5 979.1294,-94.5"/>
<text text-anchor="start" x="987.1294" y="-110.5" font-family="Helvetica,sans-Serif" font-size="10.00" fill="#000000">FE_DGQArbitraryNodes</text>
<text text-anchor="middle" x="1041.0332" y="-100.5" font-family="Helvetica,sans-Serif" font-size="10.00" fill="#000000">&lt; dim, spacedim &gt;</text>
</a>
</g>
</g>
<!-- Node0&#45;&gt;Node6 -->
<g id="edge7" class="edge">
<title>Node0&#45;&gt;Node6</title>
<path fill="none" stroke="#191970" d="M913.8349,-73.3035C937.0635,-79.731 965.955,-87.7254 990.3298,-94.4701"/>
<polygon fill="#191970" stroke="#191970" points="914.4988,-69.8557 903.9276,-70.5621 912.632,-76.6022 914.4988,-69.8557"/>
</g>
<!-- Node7 -->
<g id="node8" class="node">
<title>Node7</title>
<g id="a_node8"><a xlink:href="classFE__DGQHermite.html" target="_top" xlink:title="FE_DGQHermite\&lt; dim,\l spacedim \&gt;">
<polygon fill="#ffffff" stroke="#000000" points="981.2168,-47.5 981.2168,-75.5 1100.8496,-75.5 1100.8496,-47.5 981.2168,-47.5"/>
<text text-anchor="start" x="989.2168" y="-63.5" font-family="Helvetica,sans-Serif" font-size="10.00" fill="#000000">FE_DGQHermite&lt; dim,</text>
<text text-anchor="middle" x="1041.0332" y="-53.5" font-family="Helvetica,sans-Serif" font-size="10.00" fill="#000000"> spacedim &gt;</text>
</a>
</g>
</g>
<!-- Node0&#45;&gt;Node7 -->
<g id="edge8" class="edge">
<title>Node0&#45;&gt;Node7</title>
<path fill="none" stroke="#191970" d="M950.8635,-61.5C961.0276,-61.5 971.2922,-61.5 981.072,-61.5"/>
<polygon fill="#191970" stroke="#191970" points="950.7546,-58.0001 940.7545,-61.5 950.7545,-65.0001 950.7546,-58.0001"/>
</g>
<!-- Node8 -->
<g id="node9" class="node">
<title>Node8</title>
<g id="a_node9"><a xlink:href="classFE__DGQLegendre.html" target="_top" xlink:title="FE_DGQLegendre\&lt; dim,\l spacedim \&gt;">
<polygon fill="#ffffff" stroke="#000000" points="977.5889,-.5 977.5889,-28.5 1104.4775,-28.5 1104.4775,-.5 977.5889,-.5"/>
<text text-anchor="start" x="985.5889" y="-16.5" font-family="Helvetica,sans-Serif" font-size="10.00" fill="#000000">FE_DGQLegendre&lt; dim,</text>
<text text-anchor="middle" x="1041.0332" y="-6.5" font-family="Helvetica,sans-Serif" font-size="10.00" fill="#000000"> spacedim &gt;</text>
</a>
</g>
</g>
<!-- Node0&#45;&gt;Node8 -->
<g id="edge9" class="edge">
<title>Node0&#45;&gt;Node8</title>
<path fill="none" stroke="#191970" d="M913.8349,-49.6965C937.0635,-43.269 965.955,-35.2746 990.3298,-28.5299"/>
<polygon fill="#191970" stroke="#191970" points="912.632,-46.3978 903.9276,-52.4379 914.4988,-53.1443 912.632,-46.3978"/>
</g>
<!-- Node1 -->
<g id="node2" class="node">
<title>Node1</title>
<g id="a_node2"><a xlink:href="classFE__Poly.html" target="_top" xlink:title="FE_Poly\&lt; TensorProductPolynomials\l\&lt; dim \&gt;, dim, spacedim \&gt;">
<polygon fill="#ffffff" stroke="#000000" points="584.1426,-47.5 584.1426,-75.5 764.7666,-75.5 764.7666,-47.5 584.1426,-47.5"/>
<text text-anchor="start" x="592.1426" y="-63.5" font-family="Helvetica,sans-Serif" font-size="10.00" fill="#000000">FE_Poly&lt; TensorProductPolynomials</text>
<text text-anchor="middle" x="674.4546" y="-53.5" font-family="Helvetica,sans-Serif" font-size="10.00" fill="#000000">&lt; dim &gt;, dim, spacedim &gt;</text>
</a>
</g>
</g>
<!-- Node1&#45;&gt;Node0 -->
<g id="edge1" class="edge">
<title>Node1&#45;&gt;Node0</title>
<path fill="none" stroke="#191970" d="M775.1555,-61.5C784.1167,-61.5 793.052,-61.5 801.6637,-61.5"/>
<polygon fill="#191970" stroke="#191970" points="775.0429,-58.0001 765.0428,-61.5 775.0428,-65.0001 775.0429,-58.0001"/>
</g>
<!-- Node2 -->
<g id="node3" class="node">
<title>Node2</title>
<g id="a_node3"><a xlink:href="classFiniteElement.html" target="_top" xlink:title="FiniteElement\&lt; dim,\l spacedim \&gt;">
<polygon fill="#ffffff" stroke="#000000" points="141.1006,-47.5 141.1006,-75.5 245.748,-75.5 245.748,-47.5 141.1006,-47.5"/>
<text text-anchor="start" x="149.1006" y="-63.5" font-family="Helvetica,sans-Serif" font-size="10.00" fill="#000000">FiniteElement&lt; dim,</text>
<text text-anchor="middle" x="193.4243" y="-53.5" font-family="Helvetica,sans-Serif" font-size="10.00" fill="#000000"> spacedim &gt;</text>
</a>
</g>
</g>
<!-- Node2&#45;&gt;Node1 -->
<g id="edge2" class="edge">
<title>Node2&#45;&gt;Node1</title>
<path fill="none" stroke="#191970" d="M256.0798,-66.1264C258.6696,-66.2633 261.2337,-66.3889 263.748,-66.5 398.0211,-72.4348 431.8297,-74.4535 566.1426,-69.5 571.9838,-69.2846 577.9986,-69.004 584.0593,-68.6773"/>
<polygon fill="#191970" stroke="#191970" points="256.1999,-62.6276 246.0156,-65.5484 255.7985,-69.6161 256.1999,-62.6276"/>
</g>
<!-- Node5 -->
<g id="node6" class="node">
<title>Node5</title>
<g id="a_node6"><a xlink:href="classFE__Poly.html" target="_top" xlink:title="FE_Poly\&lt; PolynomialType,\l dim, spacedim \&gt;">
<polygon fill="#ffffff" stroke="#000000" points="282.748,-26.5 282.748,-54.5 418.5332,-54.5 418.5332,-26.5 282.748,-26.5"/>
<text text-anchor="start" x="290.748" y="-42.5" font-family="Helvetica,sans-Serif" font-size="10.00" fill="#000000">FE_Poly&lt; PolynomialType,</text>
<text text-anchor="middle" x="350.6406" y="-32.5" font-family="Helvetica,sans-Serif" font-size="10.00" fill="#000000"> dim, spacedim &gt;</text>
</a>
</g>
</g>
<!-- Node2&#45;&gt;Node5 -->
<g id="edge6" class="edge">
<title>Node2&#45;&gt;Node5</title>
<path fill="none" stroke="#191970" d="M255.9073,-53.1539C264.6713,-51.9833 273.7148,-50.7753 282.5762,-49.5916"/>
<polygon fill="#191970" stroke="#191970" points="255.2236,-49.7141 245.7751,-54.5073 256.1505,-56.6524 255.2236,-49.7141"/>
</g>
<!-- Node3 -->
<g id="node4" class="node">
<title>Node3</title>
<g id="a_node4"><a xlink:href="classSubscriptor.html" target="_top" xlink:title="Subscriptor">
<polygon fill="#ffffff" stroke="#000000" points="18.7622,-73.5 18.7622,-91.5 85.3384,-91.5 85.3384,-73.5 18.7622,-73.5"/>
<text text-anchor="middle" x="52.0503" y="-79.5" font-family="Helvetica,sans-Serif" font-size="10.00" fill="#000000">Subscriptor</text>
</a>
</g>
</g>
<!-- Node3&#45;&gt;Node2 -->
<g id="edge3" class="edge">
<title>Node3&#45;&gt;Node2</title>
<path fill="none" stroke="#191970" d="M95.6606,-76.022C110.0246,-73.8884 126.1458,-71.4937 141.091,-69.2737"/>
<polygon fill="#191970" stroke="#191970" points="94.9311,-72.5919 85.554,-77.5233 95.9597,-79.5159 94.9311,-72.5919"/>
</g>
<!-- Node4 -->
<g id="node5" class="node">
<title>Node4</title>
<g id="a_node5"><a xlink:href="classFiniteElementData.html" target="_top" xlink:title="FiniteElementData\&lt;\l dim \&gt;">
<polygon fill="#ffffff" stroke="#000000" points="0,-26.5 0,-54.5 104.1006,-54.5 104.1006,-26.5 0,-26.5"/>
<text text-anchor="start" x="8" y="-42.5" font-family="Helvetica,sans-Serif" font-size="10.00" fill="#000000">FiniteElementData&lt;</text>
<text text-anchor="middle" x="52.0503" y="-32.5" font-family="Helvetica,sans-Serif" font-size="10.00" fill="#000000"> dim &gt;</text>
</a>
</g>
</g>
<!-- Node4&#45;&gt;Node2 -->
<g id="edge4" class="edge">
<title>Node4&#45;&gt;Node2</title>
<path fill="none" stroke="#191970" d="M114.2377,-49.7374C123.1434,-51.0603 132.2318,-52.4103 140.9263,-53.7018"/>
<polygon fill="#191970" stroke="#191970" points="114.6968,-46.2673 104.2911,-48.26 113.6683,-53.1914 114.6968,-46.2673"/>
</g>
<!-- Node5&#45;&gt;Node1 -->
<g id="edge5" class="edge">
<title>Node5&#45;&gt;Node1</title>
<path fill="none" stroke="#ffa500" stroke-dasharray="5,2" d="M428.8353,-42.474C469.7736,-43.8341 520.707,-46.0384 566.1426,-49.5 571.9906,-49.9455 578.0105,-50.4591 584.075,-51.0178"/>
<polygon fill="#ffa500" stroke="#ffa500" points="428.7595,-38.9699 418.652,-42.1462 428.5342,-45.9663 428.7595,-38.9699"/>
<text text-anchor="start" x="436.5332" y="-61.5" font-family="Helvetica,sans-Serif" font-size="10.00" fill="#000000"> &lt; TensorProductPolynomials</text>
<text text-anchor="middle" x="501.3379" y="-51.5" font-family="Helvetica,sans-Serif" font-size="10.00" fill="#000000">&lt; dim &gt;, dim, spacedim &gt;</text>
</g>
</g>
</svg>
