<?xml version="1.0" encoding="UTF-8" standalone="no"?>
<!DOCTYPE svg PUBLIC "-//W3C//DTD SVG 1.1//EN"
 "http://www.w3.org/Graphics/SVG/1.1/DTD/svg11.dtd">
<!-- Generated by graphviz version 2.40.1 (20161225.0304)
 -->
<!-- Title: BlockMatrixIterators::Accessor&lt; BlockMatrixType, true &gt; Pages: 1 -->
<svg width="155pt" height="122pt"
 viewBox="0.00 0.00 155.44 122.00" xmlns="http://www.w3.org/2000/svg" xmlns:xlink="http://www.w3.org/1999/xlink">
<g id="graph0" class="graph" transform="scale(1 1) rotate(0) translate(4 118)">
<title>BlockMatrixIterators::Accessor&lt; BlockMatrixType, true &gt;</title>
<polygon fill="#ffffff" stroke="transparent" points="-4,4 -4,-118 151.4355,-118 151.4355,4 -4,4"/>
<!-- Node0 -->
<g id="node1" class="node">
<title>Node0</title>
<polygon fill="#bfbfbf" stroke="#000000" points="0,-.5 0,-38.5 147.4355,-38.5 147.4355,-.5 0,-.5"/>
<text text-anchor="start" x="8" y="-26.5" font-family="Helvetica,sans-Serif" font-size="10.00" fill="#000000">BlockMatrixIterators</text>
<text text-anchor="start" x="8" y="-16.5" font-family="Helvetica,sans-Serif" font-size="10.00" fill="#000000">::Accessor&lt; BlockMatrixType,</text>
<text text-anchor="middle" x="73.7178" y="-6.5" font-family="Helvetica,sans-Serif" font-size="10.00" fill="#000000"> true &gt;</text>
</g>
<!-- Node1 -->
<g id="node2" class="node">
<title>Node1</title>
<g id="a_node2"><a xlink:href="classBlockMatrixIterators_1_1AccessorBase.html" target="_top" xlink:title="BlockMatrixIterators\l::AccessorBase\&lt; BlockMatrix\lType \&gt;">
<polygon fill="#ffffff" stroke="#000000" points=".835,-75.5 .835,-113.5 146.6006,-113.5 146.6006,-75.5 .835,-75.5"/>
<text text-anchor="start" x="8.835" y="-101.5" font-family="Helvetica,sans-Serif" font-size="10.00" fill="#000000">BlockMatrixIterators</text>
<text text-anchor="start" x="8.835" y="-91.5" font-family="Helvetica,sans-Serif" font-size="10.00" fill="#000000">::AccessorBase&lt; BlockMatrix</text>
<text text-anchor="middle" x="73.7178" y="-81.5" font-family="Helvetica,sans-Serif" font-size="10.00" fill="#000000">Type &gt;</text>
</a>
</g>
</g>
<!-- Node1&#45;&gt;Node0 -->
<g id="edge1" class="edge">
<title>Node1&#45;&gt;Node0</title>
<path fill="none" stroke="#191970" d="M73.7178,-64.8977C73.7178,-56.1033 73.7178,-46.7019 73.7178,-38.7489"/>
<polygon fill="#191970" stroke="#191970" points="70.2179,-65.1856 73.7178,-75.1856 77.2179,-65.1857 70.2179,-65.1856"/>
</g>
</g>
</svg>
