<?xml version="1.0" encoding="UTF-8" standalone="no"?>
<!DOCTYPE svg PUBLIC "-//W3C//DTD SVG 1.1//EN"
 "http://www.w3.org/Graphics/SVG/1.1/DTD/svg11.dtd">
<!-- Generated by graphviz version 2.40.1 (20161225.0304)
 -->
<!-- Title: PreconditionPSOR&lt; MatrixType &gt; Pages: 1 -->
<svg width="144pt" height="157pt"
 viewBox="0.00 0.00 143.77 157.00" xmlns="http://www.w3.org/2000/svg" xmlns:xlink="http://www.w3.org/1999/xlink">
<g id="graph0" class="graph" transform="scale(1 1) rotate(0) translate(4 153)">
<title>PreconditionPSOR&lt; MatrixType &gt;</title>
<polygon fill="#ffffff" stroke="transparent" points="-4,4 -4,-153 139.7705,-153 139.7705,4 -4,4"/>
<!-- Node0 -->
<g id="node1" class="node">
<title>Node0</title>
<polygon fill="#bfbfbf" stroke="#000000" points="0,-.5 0,-28.5 135.7705,-28.5 135.7705,-.5 0,-.5"/>
<text text-anchor="start" x="8" y="-16.5" font-family="Helvetica,sans-Serif" font-size="10.00" fill="#000000">PreconditionPSOR&lt; Matrix</text>
<text text-anchor="middle" x="67.8853" y="-6.5" font-family="Helvetica,sans-Serif" font-size="10.00" fill="#000000">Type &gt;</text>
</g>
<!-- Node1 -->
<g id="node2" class="node">
<title>Node1</title>
<g id="a_node2"><a xlink:href="classPreconditionRelaxation.html" target="_top" xlink:title="PreconditionRelaxation\l\&lt; MatrixType \&gt;">
<polygon fill="#ffffff" stroke="#000000" points="8.4644,-65.5 8.4644,-93.5 127.3062,-93.5 127.3062,-65.5 8.4644,-65.5"/>
<text text-anchor="start" x="16.4644" y="-81.5" font-family="Helvetica,sans-Serif" font-size="10.00" fill="#000000">PreconditionRelaxation</text>
<text text-anchor="middle" x="67.8853" y="-71.5" font-family="Helvetica,sans-Serif" font-size="10.00" fill="#000000">&lt; MatrixType &gt;</text>
</a>
</g>
</g>
<!-- Node1&#45;&gt;Node0 -->
<g id="edge1" class="edge">
<title>Node1&#45;&gt;Node0</title>
<path fill="none" stroke="#191970" d="M67.8853,-55.1081C67.8853,-46.1539 67.8853,-36.3227 67.8853,-28.5765"/>
<polygon fill="#191970" stroke="#191970" points="64.3854,-55.3959 67.8853,-65.396 71.3854,-55.396 64.3854,-55.3959"/>
</g>
<!-- Node2 -->
<g id="node3" class="node">
<title>Node2</title>
<g id="a_node3"><a xlink:href="classSubscriptor.html" target="_top" xlink:title="Subscriptor">
<polygon fill="#ffffff" stroke="#000000" points="34.5972,-130.5 34.5972,-148.5 101.1733,-148.5 101.1733,-130.5 34.5972,-130.5"/>
<text text-anchor="middle" x="67.8853" y="-136.5" font-family="Helvetica,sans-Serif" font-size="10.00" fill="#000000">Subscriptor</text>
</a>
</g>
</g>
<!-- Node2&#45;&gt;Node1 -->
<g id="edge2" class="edge">
<title>Node2&#45;&gt;Node1</title>
<path fill="none" stroke="#191970" d="M67.8853,-120.1865C67.8853,-111.6283 67.8853,-101.7354 67.8853,-93.8477"/>
<polygon fill="#191970" stroke="#191970" points="64.3854,-120.3873 67.8853,-130.3873 71.3854,-120.3873 64.3854,-120.3873"/>
</g>
</g>
</svg>
