<?xml version="1.0" encoding="UTF-8" standalone="no"?>
<!DOCTYPE svg PUBLIC "-//W3C//DTD SVG 1.1//EN"
 "http://www.w3.org/Graphics/SVG/1.1/DTD/svg11.dtd">
<!-- Generated by graphviz version 2.40.1 (20161225.0304)
 -->
<!-- Title: Functions::CutOffFunctionBase&lt; dim &gt; Pages: 1 -->
<svg width="801pt" height="131pt"
 viewBox="0.00 0.00 800.64 131.00" xmlns="http://www.w3.org/2000/svg" xmlns:xlink="http://www.w3.org/1999/xlink">
<g id="graph0" class="graph" transform="scale(1 1) rotate(0) translate(4 127)">
<title>Functions::CutOffFunctionBase&lt; dim &gt;</title>
<polygon fill="#ffffff" stroke="transparent" points="-4,4 -4,-127 796.6445,-127 796.6445,4 -4,4"/>
<!-- Node0 -->
<g id="node1" class="node">
<title>Node0</title>
<polygon fill="#bfbfbf" stroke="#000000" points="491.6719,-47.5 491.6719,-75.5 623.6582,-75.5 623.6582,-47.5 491.6719,-47.5"/>
<text text-anchor="start" x="499.6719" y="-63.5" font-family="Helvetica,sans-Serif" font-size="10.00" fill="#000000">Functions::CutOffFunction</text>
<text text-anchor="middle" x="557.665" y="-53.5" font-family="Helvetica,sans-Serif" font-size="10.00" fill="#000000">Base&lt; dim &gt;</text>
</g>
<!-- Node6 -->
<g id="node7" class="node">
<title>Node6</title>
<g id="a_node7"><a xlink:href="classFunctions_1_1CutOffFunctionCinfty.html" target="_top" xlink:title="Functions::CutOffFunction\lCinfty\&lt; dim \&gt;">
<polygon fill="#ffffff" stroke="#000000" points="660.6582,-94.5 660.6582,-122.5 792.6445,-122.5 792.6445,-94.5 660.6582,-94.5"/>
<text text-anchor="start" x="668.6582" y="-110.5" font-family="Helvetica,sans-Serif" font-size="10.00" fill="#000000">Functions::CutOffFunction</text>
<text text-anchor="middle" x="726.6514" y="-100.5" font-family="Helvetica,sans-Serif" font-size="10.00" fill="#000000">Cinfty&lt; dim &gt;</text>
</a>
</g>
</g>
<!-- Node0&#45;&gt;Node6 -->
<g id="edge7" class="edge">
<title>Node0&#45;&gt;Node6</title>
<path fill="none" stroke="#191970" d="M618.142,-78.3204C637.1888,-83.6179 658.0113,-89.4092 676.2771,-94.4894"/>
<polygon fill="#191970" stroke="#191970" points="618.9387,-74.9092 608.3665,-75.6015 617.0629,-81.6532 618.9387,-74.9092"/>
</g>
<!-- Node7 -->
<g id="node8" class="node">
<title>Node7</title>
<g id="a_node8"><a xlink:href="classFunctions_1_1CutOffFunctionLinfty.html" target="_top" xlink:title="Functions::CutOffFunction\lLinfty\&lt; dim \&gt;">
<polygon fill="#ffffff" stroke="#000000" points="660.6582,-47.5 660.6582,-75.5 792.6445,-75.5 792.6445,-47.5 660.6582,-47.5"/>
<text text-anchor="start" x="668.6582" y="-63.5" font-family="Helvetica,sans-Serif" font-size="10.00" fill="#000000">Functions::CutOffFunction</text>
<text text-anchor="middle" x="726.6514" y="-53.5" font-family="Helvetica,sans-Serif" font-size="10.00" fill="#000000">Linfty&lt; dim &gt;</text>
</a>
</g>
</g>
<!-- Node0&#45;&gt;Node7 -->
<g id="edge8" class="edge">
<title>Node0&#45;&gt;Node7</title>
<path fill="none" stroke="#191970" d="M634.2095,-61.5C642.9988,-61.5 651.9039,-61.5 660.5397,-61.5"/>
<polygon fill="#191970" stroke="#191970" points="633.9679,-58.0001 623.9679,-61.5 633.9679,-65.0001 633.9679,-58.0001"/>
</g>
<!-- Node8 -->
<g id="node9" class="node">
<title>Node8</title>
<g id="a_node9"><a xlink:href="classFunctions_1_1CutOffFunctionW1.html" target="_top" xlink:title="Functions::CutOffFunction\lW1\&lt; dim \&gt;">
<polygon fill="#ffffff" stroke="#000000" points="660.6582,-.5 660.6582,-28.5 792.6445,-28.5 792.6445,-.5 660.6582,-.5"/>
<text text-anchor="start" x="668.6582" y="-16.5" font-family="Helvetica,sans-Serif" font-size="10.00" fill="#000000">Functions::CutOffFunction</text>
<text text-anchor="middle" x="726.6514" y="-6.5" font-family="Helvetica,sans-Serif" font-size="10.00" fill="#000000">W1&lt; dim &gt;</text>
</a>
</g>
</g>
<!-- Node0&#45;&gt;Node8 -->
<g id="edge9" class="edge">
<title>Node0&#45;&gt;Node8</title>
<path fill="none" stroke="#191970" d="M618.142,-44.6796C637.1888,-39.3821 658.0113,-33.5908 676.2771,-28.5106"/>
<polygon fill="#191970" stroke="#191970" points="617.0629,-41.3468 608.3665,-47.3985 618.9387,-48.0908 617.0629,-41.3468"/>
</g>
<!-- Node1 -->
<g id="node2" class="node">
<title>Node1</title>
<g id="a_node2"><a xlink:href="classFunction.html" target="_top" xlink:title="Function\&lt; dim \&gt;">
<polygon fill="#ffffff" stroke="#000000" points="366.9678,-52.5 366.9678,-70.5 454.6719,-70.5 454.6719,-52.5 366.9678,-52.5"/>
<text text-anchor="middle" x="410.8198" y="-58.5" font-family="Helvetica,sans-Serif" font-size="10.00" fill="#000000">Function&lt; dim &gt;</text>
</a>
</g>
</g>
<!-- Node1&#45;&gt;Node0 -->
<g id="edge1" class="edge">
<title>Node1&#45;&gt;Node0</title>
<path fill="none" stroke="#191970" d="M464.888,-61.5C473.5953,-61.5 482.6937,-61.5 491.644,-61.5"/>
<polygon fill="#191970" stroke="#191970" points="464.8783,-58.0001 454.8782,-61.5 464.8782,-65.0001 464.8783,-58.0001"/>
</g>
<!-- Node2 -->
<g id="node3" class="node">
<title>Node2</title>
<g id="a_node3"><a xlink:href="classFunctionTime.html" target="_top" xlink:title="FunctionTime\&lt; double \&gt;">
<polygon fill="#ffffff" stroke="#000000" points="168.6885,-90.5 168.6885,-108.5 292.1641,-108.5 292.1641,-90.5 168.6885,-90.5"/>
<text text-anchor="middle" x="230.4263" y="-96.5" font-family="Helvetica,sans-Serif" font-size="10.00" fill="#000000">FunctionTime&lt; double &gt;</text>
</a>
</g>
</g>
<!-- Node2&#45;&gt;Node1 -->
<g id="edge2" class="edge">
<title>Node2&#45;&gt;Node1</title>
<path fill="none" stroke="#191970" d="M286.1647,-88.4879C306.0099,-84.495 328.5059,-79.8865 348.9678,-75.5 356.2881,-73.9307 364.0836,-72.2073 371.5854,-70.5224"/>
<polygon fill="#191970" stroke="#191970" points="285.4724,-85.057 276.3558,-90.4549 286.8488,-91.9203 285.4724,-85.057"/>
</g>
<!-- Node3 -->
<g id="node4" class="node">
<title>Node3</title>
<g id="a_node4"><a xlink:href="classSubscriptor.html" target="_top" xlink:title="Subscriptor">
<polygon fill="#ffffff" stroke="#000000" points="31.2183,-45.5 31.2183,-63.5 97.7944,-63.5 97.7944,-45.5 31.2183,-45.5"/>
<text text-anchor="middle" x="64.5063" y="-51.5" font-family="Helvetica,sans-Serif" font-size="10.00" fill="#000000">Subscriptor</text>
</a>
</g>
</g>
<!-- Node3&#45;&gt;Node1 -->
<g id="edge3" class="edge">
<title>Node3&#45;&gt;Node1</title>
<path fill="none" stroke="#191970" d="M108.1531,-55.3822C174.5283,-56.7239 300.1457,-59.263 366.7637,-60.6095"/>
<polygon fill="#191970" stroke="#191970" points="108.0957,-51.8804 98.027,-55.1775 107.9542,-58.879 108.0957,-51.8804"/>
</g>
<!-- Node4 -->
<g id="node5" class="node">
<title>Node4</title>
<g id="a_node5"><a xlink:href="classFunction.html" target="_top" xlink:title="Function\&lt; dim, Number \&gt;">
<polygon fill="#ffffff" stroke="#000000" points="166.0127,-14.5 166.0127,-32.5 294.8398,-32.5 294.8398,-14.5 166.0127,-14.5"/>
<text text-anchor="middle" x="230.4263" y="-20.5" font-family="Helvetica,sans-Serif" font-size="10.00" fill="#000000">Function&lt; dim, Number &gt;</text>
</a>
</g>
</g>
<!-- Node3&#45;&gt;Node4 -->
<g id="edge6" class="edge">
<title>Node3&#45;&gt;Node4</title>
<path fill="none" stroke="#191970" d="M108.1335,-46.3488C130.8691,-42.101 158.733,-36.895 182.1184,-32.5257"/>
<polygon fill="#191970" stroke="#191970" points="107.2698,-42.9496 98.0827,-48.2267 108.5555,-49.8305 107.2698,-42.9496"/>
</g>
<!-- Node4&#45;&gt;Node1 -->
<g id="edge4" class="edge">
<title>Node4&#45;&gt;Node1</title>
<path fill="none" stroke="#ffa500" stroke-dasharray="5,2" d="M305.0107,-29.3962C319.7034,-31.3733 334.9159,-34.0039 348.9678,-37.5 363.4985,-41.1152 379.2215,-47.2477 391.1787,-52.4086"/>
<polygon fill="#ffa500" stroke="#ffa500" points="305.3014,-25.9052 294.9426,-28.1292 304.4274,-32.8505 305.3014,-25.9052"/>
<text text-anchor="middle" x="330.9038" y="-39.5" font-family="Helvetica,sans-Serif" font-size="10.00" fill="#000000"> &lt; dim &gt;</text>
</g>
<!-- Node5 -->
<g id="node6" class="node">
<title>Node5</title>
<g id="a_node6"><a xlink:href="classFunctionTime.html" target="_top" xlink:title="FunctionTime\&lt; Number \&gt;">
<polygon fill="#ffffff" stroke="#000000" points="0,-2.5 0,-20.5 129.0127,-20.5 129.0127,-2.5 0,-2.5"/>
<text text-anchor="middle" x="64.5063" y="-8.5" font-family="Helvetica,sans-Serif" font-size="10.00" fill="#000000">FunctionTime&lt; Number &gt;</text>
</a>
</g>
</g>
<!-- Node5&#45;&gt;Node4 -->
<g id="edge5" class="edge">
<title>Node5&#45;&gt;Node4</title>
<path fill="none" stroke="#191970" d="M139.1581,-16.8991C148.1088,-17.5465 157.1897,-18.2032 165.9786,-18.8389"/>
<polygon fill="#191970" stroke="#191970" points="139.3569,-13.4044 129.1304,-16.1739 138.8519,-20.3862 139.3569,-13.4044"/>
</g>
</g>
</svg>
