<?xml version="1.0" encoding="UTF-8" standalone="no"?>
<!DOCTYPE svg PUBLIC "-//W3C//DTD SVG 1.1//EN"
 "http://www.w3.org/Graphics/SVG/1.1/DTD/svg11.dtd">
<!-- Generated by graphviz version 2.40.1 (20161225.0304)
 -->
<!-- Title: PrimitiveVectorMemory&lt; VectorType &gt; Pages: 1 -->
<svg width="156pt" height="147pt"
 viewBox="0.00 0.00 155.74 147.00" xmlns="http://www.w3.org/2000/svg" xmlns:xlink="http://www.w3.org/1999/xlink">
<g id="graph0" class="graph" transform="scale(1 1) rotate(0) translate(4 143)">
<title>PrimitiveVectorMemory&lt; VectorType &gt;</title>
<polygon fill="#ffffff" stroke="transparent" points="-4,4 -4,-143 151.7432,-143 151.7432,4 -4,4"/>
<!-- Node0 -->
<g id="node1" class="node">
<title>Node0</title>
<polygon fill="#bfbfbf" stroke="#000000" points="14.4702,-.5 14.4702,-28.5 133.2729,-28.5 133.2729,-.5 14.4702,-.5"/>
<text text-anchor="start" x="22.4702" y="-16.5" font-family="Helvetica,sans-Serif" font-size="10.00" fill="#000000">PrimitiveVectorMemory</text>
<text text-anchor="middle" x="73.8716" y="-6.5" font-family="Helvetica,sans-Serif" font-size="10.00" fill="#000000">&lt; VectorType &gt;</text>
</g>
<!-- Node1 -->
<g id="node2" class="node">
<title>Node1</title>
<g id="a_node2"><a xlink:href="classVectorMemory.html" target="_top" xlink:title="VectorMemory\&lt; VectorType \&gt;">
<polygon fill="#ffffff" stroke="#000000" points="0,-65.5 0,-83.5 147.7432,-83.5 147.7432,-65.5 0,-65.5"/>
<text text-anchor="middle" x="73.8716" y="-71.5" font-family="Helvetica,sans-Serif" font-size="10.00" fill="#000000">VectorMemory&lt; VectorType &gt;</text>
</a>
</g>
</g>
<!-- Node1&#45;&gt;Node0 -->
<g id="edge1" class="edge">
<title>Node1&#45;&gt;Node0</title>
<path fill="none" stroke="#191970" d="M73.8716,-55.1865C73.8716,-46.6283 73.8716,-36.7354 73.8716,-28.8477"/>
<polygon fill="#191970" stroke="#191970" points="70.3717,-55.3873 73.8716,-65.3873 77.3717,-55.3873 70.3717,-55.3873"/>
</g>
<!-- Node2 -->
<g id="node3" class="node">
<title>Node2</title>
<g id="a_node3"><a xlink:href="classSubscriptor.html" target="_top" xlink:title="Subscriptor">
<polygon fill="#ffffff" stroke="#000000" points="40.5835,-120.5 40.5835,-138.5 107.1597,-138.5 107.1597,-120.5 40.5835,-120.5"/>
<text text-anchor="middle" x="73.8716" y="-126.5" font-family="Helvetica,sans-Serif" font-size="10.00" fill="#000000">Subscriptor</text>
</a>
</g>
</g>
<!-- Node2&#45;&gt;Node1 -->
<g id="edge2" class="edge">
<title>Node2&#45;&gt;Node1</title>
<path fill="none" stroke="#191970" d="M73.8716,-110.383C73.8716,-101.3738 73.8716,-91.0373 73.8716,-83.7795"/>
<polygon fill="#191970" stroke="#191970" points="70.3717,-110.4178 73.8716,-120.4179 77.3717,-110.4179 70.3717,-110.4178"/>
</g>
</g>
</svg>
