<?xml version="1.0" encoding="UTF-8" standalone="no"?>
<!DOCTYPE svg PUBLIC "-//W3C//DTD SVG 1.1//EN"
 "http://www.w3.org/Graphics/SVG/1.1/DTD/svg11.dtd">
<!-- Generated by graphviz version 2.40.1 (20161225.0304)
 -->
<!-- Title: mg::SmootherRelaxation&lt; RelaxationType, VectorType &gt; Pages: 1 -->
<svg width="336pt" height="224pt"
 viewBox="0.00 0.00 335.63 224.00" xmlns="http://www.w3.org/2000/svg" xmlns:xlink="http://www.w3.org/1999/xlink">
<g id="graph0" class="graph" transform="scale(1 1) rotate(0) translate(4 220)">
<title>mg::SmootherRelaxation&lt; RelaxationType, VectorType &gt;</title>
<polygon fill="#ffffff" stroke="transparent" points="-4,4 -4,-220 331.6264,-220 331.6264,4 -4,4"/>
<!-- Node0 -->
<g id="node1" class="node">
<title>Node0</title>
<polygon fill="#bfbfbf" stroke="#000000" points="78.9769,-.5 78.9769,-28.5 236.7445,-28.5 236.7445,-.5 78.9769,-.5"/>
<text text-anchor="start" x="86.9769" y="-16.5" font-family="Helvetica,sans-Serif" font-size="10.00" fill="#000000">mg::SmootherRelaxation</text>
<text text-anchor="middle" x="157.8607" y="-6.5" font-family="Helvetica,sans-Serif" font-size="10.00" fill="#000000">&lt; RelaxationType, VectorType &gt;</text>
</g>
<!-- Node1 -->
<g id="node2" class="node">
<title>Node1</title>
<g id="a_node2"><a xlink:href="classMGLevelObject.html" target="_top" xlink:title="MGLevelObject\&lt; Relaxation\lType \&gt;">
<polygon fill="#ffffff" stroke="#000000" points="8.4682,-66.5 8.4682,-94.5 149.2533,-94.5 149.2533,-66.5 8.4682,-66.5"/>
<text text-anchor="start" x="16.4682" y="-82.5" font-family="Helvetica,sans-Serif" font-size="10.00" fill="#000000">MGLevelObject&lt; Relaxation</text>
<text text-anchor="middle" x="78.8607" y="-72.5" font-family="Helvetica,sans-Serif" font-size="10.00" fill="#000000">Type &gt;</text>
</a>
</g>
</g>
<!-- Node1&#45;&gt;Node0 -->
<g id="edge1" class="edge">
<title>Node1&#45;&gt;Node0</title>
<path fill="none" stroke="#191970" d="M103.975,-59.5184C116.0691,-49.4145 130.2471,-37.5696 141.0238,-28.5663"/>
<polygon fill="#191970" stroke="#191970" points="101.4328,-57.0816 96.0026,-66.179 105.9208,-62.4535 101.4328,-57.0816"/>
</g>
<!-- Node2 -->
<g id="node3" class="node">
<title>Node2</title>
<g id="a_node3"><a xlink:href="classSubscriptor.html" target="_top" xlink:title="Subscriptor">
<polygon fill="#ffffff" stroke="#000000" points="45.5727,-197.5 45.5727,-215.5 112.1488,-215.5 112.1488,-197.5 45.5727,-197.5"/>
<text text-anchor="middle" x="78.8607" y="-203.5" font-family="Helvetica,sans-Serif" font-size="10.00" fill="#000000">Subscriptor</text>
</a>
</g>
</g>
<!-- Node2&#45;&gt;Node1 -->
<g id="edge2" class="edge">
<title>Node2&#45;&gt;Node1</title>
<path fill="none" stroke="#191970" d="M42.1153,-193.0582C27.4842,-185.6831 12.1732,-174.9343 3.8607,-160 -10.8583,-133.5557 21.878,-109.2026 48.6496,-94.6002"/>
<polygon fill="#191970" stroke="#191970" points="41.0064,-196.4017 51.5515,-197.4276 43.9478,-190.0496 41.0064,-196.4017"/>
</g>
<!-- Node3 -->
<g id="node4" class="node">
<title>Node3</title>
<g id="a_node4"><a xlink:href="classMGLevelObject.html" target="_top" xlink:title="MGLevelObject\&lt; Object \&gt;">
<polygon fill="#ffffff" stroke="#000000" points="13.3339,-141.5 13.3339,-159.5 144.3876,-159.5 144.3876,-141.5 13.3339,-141.5"/>
<text text-anchor="middle" x="78.8607" y="-147.5" font-family="Helvetica,sans-Serif" font-size="10.00" fill="#000000">MGLevelObject&lt; Object &gt;</text>
</a>
</g>
</g>
<!-- Node2&#45;&gt;Node3 -->
<g id="edge4" class="edge">
<title>Node2&#45;&gt;Node3</title>
<path fill="none" stroke="#191970" d="M78.8607,-187.2065C78.8607,-177.8384 78.8607,-167.0262 78.8607,-159.5752"/>
<polygon fill="#191970" stroke="#191970" points="75.3608,-187.2527 78.8607,-197.2527 82.3608,-187.2528 75.3608,-187.2527"/>
</g>
<!-- Node5 -->
<g id="node6" class="node">
<title>Node5</title>
<g id="a_node6"><a xlink:href="classMGSmootherBase.html" target="_top" xlink:title="MGSmootherBase\&lt; VectorType \&gt;">
<polygon fill="#ffffff" stroke="#000000" points="162.0951,-141.5 162.0951,-159.5 327.6264,-159.5 327.6264,-141.5 162.0951,-141.5"/>
<text text-anchor="middle" x="244.8607" y="-147.5" font-family="Helvetica,sans-Serif" font-size="10.00" fill="#000000">MGSmootherBase&lt; VectorType &gt;</text>
</a>
</g>
</g>
<!-- Node2&#45;&gt;Node5 -->
<g id="edge7" class="edge">
<title>Node2&#45;&gt;Node5</title>
<path fill="none" stroke="#191970" d="M115.4914,-194.1427C146.5198,-183.6753 190.2789,-168.9132 218.1071,-159.5253"/>
<polygon fill="#191970" stroke="#191970" points="114.2575,-190.865 105.901,-197.378 116.4951,-197.4978 114.2575,-190.865"/>
</g>
<!-- Node3&#45;&gt;Node1 -->
<g id="edge3" class="edge">
<title>Node3&#45;&gt;Node1</title>
<path fill="none" stroke="#ffa500" stroke-dasharray="5,2" d="M78.8607,-131.0243C78.8607,-119.5169 78.8607,-105.2016 78.8607,-94.7499"/>
<polygon fill="#ffa500" stroke="#ffa500" points="75.3608,-131.3487 78.8607,-141.3487 82.3608,-131.3488 75.3608,-131.3487"/>
<text text-anchor="middle" x="123.3358" y="-115" font-family="Helvetica,sans-Serif" font-size="10.00" fill="#000000"> &lt; RelaxationType &gt;</text>
</g>
<!-- Node4 -->
<g id="node5" class="node">
<title>Node4</title>
<g id="a_node5"><a xlink:href="classMGSmoother.html" target="_top" xlink:title="MGSmoother\&lt; VectorType \&gt;">
<polygon fill="#ffffff" stroke="#000000" points="170.4916,-71.5 170.4916,-89.5 313.2299,-89.5 313.2299,-71.5 170.4916,-71.5"/>
<text text-anchor="middle" x="241.8607" y="-77.5" font-family="Helvetica,sans-Serif" font-size="10.00" fill="#000000">MGSmoother&lt; VectorType &gt;</text>
</a>
</g>
</g>
<!-- Node4&#45;&gt;Node0 -->
<g id="edge5" class="edge">
<title>Node4&#45;&gt;Node0</title>
<path fill="none" stroke="#191970" d="M222.1544,-65.0165C208.1592,-54.0202 189.5134,-39.37 175.9066,-28.6789"/>
<polygon fill="#191970" stroke="#191970" points="220.1553,-67.8969 230.1809,-71.323 224.4801,-62.3926 220.1553,-67.8969"/>
</g>
<!-- Node5&#45;&gt;Node4 -->
<g id="edge6" class="edge">
<title>Node5&#45;&gt;Node4</title>
<path fill="none" stroke="#191970" d="M244.0338,-131.2039C243.4573,-117.7531 242.7135,-100.3986 242.2626,-89.8769"/>
<polygon fill="#191970" stroke="#191970" points="240.5435,-131.5078 244.4685,-141.3487 247.5371,-131.208 240.5435,-131.5078"/>
</g>
</g>
</svg>
