<?xml version="1.0" encoding="UTF-8" standalone="no"?>
<!DOCTYPE svg PUBLIC "-//W3C//DTD SVG 1.1//EN"
 "http://www.w3.org/Graphics/SVG/1.1/DTD/svg11.dtd">
<!-- Generated by graphviz version 2.40.1 (20161225.0304)
 -->
<!-- Title: PolarManifold&lt; dim, spacedim &gt; Pages: 1 -->
<svg width="251pt" height="290pt"
 viewBox="0.00 0.00 250.59 290.00" xmlns="http://www.w3.org/2000/svg" xmlns:xlink="http://www.w3.org/1999/xlink">
<g id="graph0" class="graph" transform="scale(1 1) rotate(0) translate(4 286)">
<title>PolarManifold&lt; dim, spacedim &gt;</title>
<polygon fill="#ffffff" stroke="transparent" points="-4,4 -4,-286 246.5879,-286 246.5879,4 -4,4"/>
<!-- Node0 -->
<g id="node1" class="node">
<title>Node0</title>
<polygon fill="#bfbfbf" stroke="#000000" points="19.4248,-.5 19.4248,-28.5 124.0771,-28.5 124.0771,-.5 19.4248,-.5"/>
<text text-anchor="start" x="27.4248" y="-16.5" font-family="Helvetica,sans-Serif" font-size="10.00" fill="#000000">PolarManifold&lt; dim,</text>
<text text-anchor="middle" x="71.751" y="-6.5" font-family="Helvetica,sans-Serif" font-size="10.00" fill="#000000"> spacedim &gt;</text>
</g>
<!-- Node1 -->
<g id="node2" class="node">
<title>Node1</title>
<g id="a_node2"><a xlink:href="classChartManifold.html" target="_top" xlink:title="ChartManifold\&lt; dim,\l spacedim, spacedim \&gt;">
<polygon fill="#ffffff" stroke="#000000" points="12.4766,-66.5 12.4766,-94.5 131.0254,-94.5 131.0254,-66.5 12.4766,-66.5"/>
<text text-anchor="start" x="20.4766" y="-82.5" font-family="Helvetica,sans-Serif" font-size="10.00" fill="#000000">ChartManifold&lt; dim,</text>
<text text-anchor="middle" x="71.751" y="-72.5" font-family="Helvetica,sans-Serif" font-size="10.00" fill="#000000"> spacedim, spacedim &gt;</text>
</a>
</g>
</g>
<!-- Node1&#45;&gt;Node0 -->
<g id="edge1" class="edge">
<title>Node1&#45;&gt;Node0</title>
<path fill="none" stroke="#191970" d="M71.751,-56.0322C71.751,-46.8606 71.751,-36.7449 71.751,-28.7931"/>
<polygon fill="#191970" stroke="#191970" points="68.2511,-56.1789 71.751,-66.179 75.2511,-56.179 68.2511,-56.1789"/>
</g>
<!-- Node2 -->
<g id="node3" class="node">
<title>Node2</title>
<g id="a_node3"><a xlink:href="classManifold.html" target="_top" xlink:title="Manifold\&lt; dim, spacedim \&gt;">
<polygon fill="#ffffff" stroke="#000000" points="0,-207.5 0,-225.5 135.502,-225.5 135.502,-207.5 0,-207.5"/>
<text text-anchor="middle" x="67.751" y="-213.5" font-family="Helvetica,sans-Serif" font-size="10.00" fill="#000000">Manifold&lt; dim, spacedim &gt;</text>
</a>
</g>
</g>
<!-- Node2&#45;&gt;Node1 -->
<g id="edge2" class="edge">
<title>Node2&#45;&gt;Node1</title>
<path fill="none" stroke="#191970" d="M68.3212,-197.1119C69.1361,-169.4066 70.6145,-119.1399 71.3345,-94.6595"/>
<polygon fill="#191970" stroke="#191970" points="64.8215,-197.0536 68.0259,-207.1522 71.8185,-197.2594 64.8215,-197.0536"/>
</g>
<!-- Node4 -->
<g id="node5" class="node">
<title>Node4</title>
<g id="a_node5"><a xlink:href="classChartManifold.html" target="_top" xlink:title="ChartManifold\&lt; dim,\l spacedim, chartdim \&gt;">
<polygon fill="#ffffff" stroke="#000000" points="83.7031,-141.5 83.7031,-169.5 197.7988,-169.5 197.7988,-141.5 83.7031,-141.5"/>
<text text-anchor="start" x="91.7031" y="-157.5" font-family="Helvetica,sans-Serif" font-size="10.00" fill="#000000">ChartManifold&lt; dim,</text>
<text text-anchor="middle" x="140.751" y="-147.5" font-family="Helvetica,sans-Serif" font-size="10.00" fill="#000000"> spacedim, chartdim &gt;</text>
</a>
</g>
</g>
<!-- Node2&#45;&gt;Node4 -->
<g id="edge5" class="edge">
<title>Node2&#45;&gt;Node4</title>
<path fill="none" stroke="#191970" d="M86.3039,-200.9968C97.9058,-191.3022 112.7283,-178.9162 123.9775,-169.5162"/>
<polygon fill="#191970" stroke="#191970" points="83.9517,-198.4013 78.5224,-207.4992 88.4403,-203.7728 83.9517,-198.4013"/>
</g>
<!-- Node3 -->
<g id="node4" class="node">
<title>Node3</title>
<g id="a_node4"><a xlink:href="classSubscriptor.html" target="_top" xlink:title="Subscriptor">
<polygon fill="#ffffff" stroke="#000000" points="34.4629,-263.5 34.4629,-281.5 101.0391,-281.5 101.0391,-263.5 34.4629,-263.5"/>
<text text-anchor="middle" x="67.751" y="-269.5" font-family="Helvetica,sans-Serif" font-size="10.00" fill="#000000">Subscriptor</text>
</a>
</g>
</g>
<!-- Node3&#45;&gt;Node2 -->
<g id="edge3" class="edge">
<title>Node3&#45;&gt;Node2</title>
<path fill="none" stroke="#191970" d="M67.751,-253.2065C67.751,-243.8384 67.751,-233.0262 67.751,-225.5752"/>
<polygon fill="#191970" stroke="#191970" points="64.2511,-253.2527 67.751,-263.2527 71.2511,-253.2528 64.2511,-253.2527"/>
</g>
<!-- Node4&#45;&gt;Node1 -->
<g id="edge4" class="edge">
<title>Node4&#45;&gt;Node1</title>
<path fill="none" stroke="#ffa500" stroke-dasharray="5,2" d="M120.9323,-133.9579C109.276,-121.288 94.871,-105.6305 84.6712,-94.5437"/>
<polygon fill="#ffa500" stroke="#ffa500" points="118.4262,-136.4034 127.7726,-141.3931 123.5778,-131.664 118.4262,-136.4034"/>
<text text-anchor="middle" x="176.1694" y="-115" font-family="Helvetica,sans-Serif" font-size="10.00" fill="#000000"> &lt; dim, spacedim, spacedim &gt;</text>
</g>
</g>
</svg>
