<?xml version="1.0" encoding="UTF-8" standalone="no"?>
<!DOCTYPE svg PUBLIC "-//W3C//DTD SVG 1.1//EN"
 "http://www.w3.org/Graphics/SVG/1.1/DTD/svg11.dtd">
<!-- Generated by graphviz version 2.40.1 (20161225.0304)
 -->
<!-- Title: FE_FaceQ&lt; 1, spacedim &gt; Pages: 1 -->
<svg width="298pt" height="280pt"
 viewBox="0.00 0.00 298.43 280.00" xmlns="http://www.w3.org/2000/svg" xmlns:xlink="http://www.w3.org/1999/xlink">
<g id="graph0" class="graph" transform="scale(1 1) rotate(0) translate(4 276)">
<title>FE_FaceQ&lt; 1, spacedim &gt;</title>
<polygon fill="#ffffff" stroke="transparent" points="-4,4 -4,-276 294.4297,-276 294.4297,4 -4,4"/>
<!-- Node0 -->
<g id="node1" class="node">
<title>Node0</title>
<polygon fill="#bfbfbf" stroke="#000000" points="76.4458,-56.5 76.4458,-74.5 211.9478,-74.5 211.9478,-56.5 76.4458,-56.5"/>
<text text-anchor="middle" x="144.1968" y="-62.5" font-family="Helvetica,sans-Serif" font-size="10.00" fill="#000000">FE_FaceQ&lt; 1, spacedim &gt;</text>
</g>
<!-- Node5 -->
<g id="node6" class="node">
<title>Node5</title>
<g id="a_node6"><a xlink:href="classFE__FaceP_3_011_00_01spacedim_01_4.html" target="_top" xlink:title="FE_FaceP\&lt; 1, spacedim \&gt;">
<polygon fill="#ffffff" stroke="#000000" points="0,-.5 0,-18.5 134.3936,-18.5 134.3936,-.5 0,-.5"/>
<text text-anchor="middle" x="67.1968" y="-6.5" font-family="Helvetica,sans-Serif" font-size="10.00" fill="#000000">FE_FaceP&lt; 1, spacedim &gt;</text>
</a>
</g>
</g>
<!-- Node0&#45;&gt;Node5 -->
<g id="edge7" class="edge">
<title>Node0&#45;&gt;Node5</title>
<path fill="none" stroke="#191970" d="M123.3876,-50.3661C109.4187,-40.2069 91.4794,-27.1601 79.6752,-18.5752"/>
<polygon fill="#191970" stroke="#191970" points="121.3358,-53.2016 131.4818,-56.2527 125.453,-47.5404 121.3358,-53.2016"/>
</g>
<!-- Node6 -->
<g id="node7" class="node">
<title>Node6</title>
<g id="a_node7"><a xlink:href="classFE__TraceQ_3_011_00_01spacedim_01_4.html" target="_top" xlink:title="FE_TraceQ\&lt; 1, spacedim \&gt;">
<polygon fill="#ffffff" stroke="#000000" points="151.9639,-.5 151.9639,-18.5 290.4297,-18.5 290.4297,-.5 151.9639,-.5"/>
<text text-anchor="middle" x="221.1968" y="-6.5" font-family="Helvetica,sans-Serif" font-size="10.00" fill="#000000">FE_TraceQ&lt; 1, spacedim &gt;</text>
</a>
</g>
</g>
<!-- Node0&#45;&gt;Node6 -->
<g id="edge8" class="edge">
<title>Node0&#45;&gt;Node6</title>
<path fill="none" stroke="#191970" d="M165.0059,-50.3661C178.9748,-40.2069 196.9141,-27.1601 208.7184,-18.5752"/>
<polygon fill="#191970" stroke="#191970" points="162.9405,-47.5404 156.9118,-56.2527 167.0578,-53.2016 162.9405,-47.5404"/>
</g>
<!-- Node1 -->
<g id="node2" class="node">
<title>Node1</title>
<g id="a_node2"><a xlink:href="classFiniteElement.html" target="_top" xlink:title="FiniteElement\&lt; 1, spacedim \&gt;">
<polygon fill="#ffffff" stroke="#000000" points="70.0518,-112.5 70.0518,-130.5 218.3418,-130.5 218.3418,-112.5 70.0518,-112.5"/>
<text text-anchor="middle" x="144.1968" y="-118.5" font-family="Helvetica,sans-Serif" font-size="10.00" fill="#000000">FiniteElement&lt; 1, spacedim &gt;</text>
</a>
</g>
</g>
<!-- Node1&#45;&gt;Node0 -->
<g id="edge1" class="edge">
<title>Node1&#45;&gt;Node0</title>
<path fill="none" stroke="#191970" d="M144.1968,-102.2065C144.1968,-92.8384 144.1968,-82.0262 144.1968,-74.5752"/>
<polygon fill="#191970" stroke="#191970" points="140.6969,-102.2527 144.1968,-112.2527 147.6969,-102.2528 140.6969,-102.2527"/>
</g>
<!-- Node2 -->
<g id="node3" class="node">
<title>Node2</title>
<g id="a_node3"><a xlink:href="classSubscriptor.html" target="_top" xlink:title="Subscriptor">
<polygon fill="#ffffff" stroke="#000000" points="77.9087,-248.5 77.9087,-266.5 144.4849,-266.5 144.4849,-248.5 77.9087,-248.5"/>
<text text-anchor="middle" x="111.1968" y="-254.5" font-family="Helvetica,sans-Serif" font-size="10.00" fill="#000000">Subscriptor</text>
</a>
</g>
</g>
<!-- Node2&#45;&gt;Node1 -->
<g id="edge2" class="edge">
<title>Node2&#45;&gt;Node1</title>
<path fill="none" stroke="#191970" d="M100.6849,-239.1496C92.5981,-222.5295 84.0661,-197.5698 92.1968,-177 99.9627,-157.353 118.3337,-140.585 131.0199,-130.772"/>
<polygon fill="#191970" stroke="#191970" points="97.7516,-241.091 105.5096,-248.3065 103.9446,-237.8279 97.7516,-241.091"/>
</g>
<!-- Node4 -->
<g id="node5" class="node">
<title>Node4</title>
<g id="a_node5"><a xlink:href="classFiniteElement.html" target="_top" xlink:title="FiniteElement\&lt; dim,\l spacedim \&gt;">
<polygon fill="#ffffff" stroke="#000000" points="100.873,-177.5 100.873,-205.5 205.5205,-205.5 205.5205,-177.5 100.873,-177.5"/>
<text text-anchor="start" x="108.873" y="-193.5" font-family="Helvetica,sans-Serif" font-size="10.00" fill="#000000">FiniteElement&lt; dim,</text>
<text text-anchor="middle" x="153.1968" y="-183.5" font-family="Helvetica,sans-Serif" font-size="10.00" fill="#000000"> spacedim &gt;</text>
</a>
</g>
</g>
<!-- Node2&#45;&gt;Node4 -->
<g id="edge5" class="edge">
<title>Node2&#45;&gt;Node4</title>
<path fill="none" stroke="#191970" d="M122.4653,-239.7924C129.2679,-229.1025 137.8197,-215.6639 144.1738,-205.6789"/>
<polygon fill="#191970" stroke="#191970" points="119.4527,-238.0073 117.0367,-248.323 125.3583,-241.7654 119.4527,-238.0073"/>
</g>
<!-- Node3 -->
<g id="node4" class="node">
<title>Node3</title>
<g id="a_node4"><a xlink:href="classFiniteElementData.html" target="_top" xlink:title="FiniteElementData\&lt;\l dim \&gt;">
<polygon fill="#ffffff" stroke="#000000" points="172.1465,-243.5 172.1465,-271.5 276.2471,-271.5 276.2471,-243.5 172.1465,-243.5"/>
<text text-anchor="start" x="180.1465" y="-259.5" font-family="Helvetica,sans-Serif" font-size="10.00" fill="#000000">FiniteElementData&lt;</text>
<text text-anchor="middle" x="224.1968" y="-249.5" font-family="Helvetica,sans-Serif" font-size="10.00" fill="#000000"> dim &gt;</text>
</a>
</g>
</g>
<!-- Node3&#45;&gt;Node1 -->
<g id="edge3" class="edge">
<title>Node3&#45;&gt;Node1</title>
<path fill="none" stroke="#191970" d="M230.1773,-233.2389C234.5441,-209.4325 236.9888,-173.2643 219.1968,-149 214.1943,-142.1777 196.9264,-135.6124 180.2197,-130.6085"/>
<polygon fill="#191970" stroke="#191970" points="226.7111,-232.7168 228.1015,-243.22 233.5644,-234.1422 226.7111,-232.7168"/>
</g>
<!-- Node3&#45;&gt;Node4 -->
<g id="edge6" class="edge">
<title>Node3&#45;&gt;Node4</title>
<path fill="none" stroke="#191970" d="M201.3651,-236.2762C190.6444,-226.3105 178.1496,-214.6956 168.5727,-205.7931"/>
<polygon fill="#191970" stroke="#191970" points="199.0836,-238.934 208.7908,-243.179 203.8495,-233.807 199.0836,-238.934"/>
</g>
<!-- Node4&#45;&gt;Node1 -->
<g id="edge4" class="edge">
<title>Node4&#45;&gt;Node1</title>
<path fill="none" stroke="#ffa500" stroke-dasharray="5,2" d="M146.7364,-167.4765C146.1505,-164.6359 145.6386,-161.7646 145.2661,-159 143.979,-149.447 143.8227,-138.4061 143.9199,-130.7905"/>
<polygon fill="#ffa500" stroke="#ffa500" points="143.3702,-168.4523 149.0659,-177.3859 150.1845,-166.8503 143.3702,-168.4523"/>
<text text-anchor="middle" x="183.1621" y="-151" font-family="Helvetica,sans-Serif" font-size="10.00" fill="#000000"> &lt; 1, spacedim &gt;</text>
</g>
</g>
</svg>
