<?xml version="1.0" encoding="UTF-8" standalone="no"?>
<!DOCTYPE svg PUBLIC "-//W3C//DTD SVG 1.1//EN"
 "http://www.w3.org/Graphics/SVG/1.1/DTD/svg11.dtd">
<!-- Generated by graphviz version 2.40.1 (20161225.0304)
 -->
<!-- Title: PreconditionBlockBase&lt; number &gt; Pages: 1 -->
<svg width="952pt" height="275pt"
 viewBox="0.00 0.00 952.04 275.00" xmlns="http://www.w3.org/2000/svg" xmlns:xlink="http://www.w3.org/1999/xlink">
<g id="graph0" class="graph" transform="scale(1 1) rotate(0) translate(4 271)">
<title>PreconditionBlockBase&lt; number &gt;</title>
<polygon fill="#ffffff" stroke="transparent" points="-4,4 -4,-271 948.0361,-271 948.0361,4 -4,4"/>
<!-- Node0 -->
<g id="node1" class="node">
<title>Node0</title>
<polygon fill="#bfbfbf" stroke="#000000" points="0,-92.5 0,-120.5 118.8369,-120.5 118.8369,-92.5 0,-92.5"/>
<text text-anchor="start" x="8" y="-108.5" font-family="Helvetica,sans-Serif" font-size="10.00" fill="#000000">PreconditionBlockBase</text>
<text text-anchor="middle" x="59.4185" y="-98.5" font-family="Helvetica,sans-Serif" font-size="10.00" fill="#000000">&lt; number &gt;</text>
</g>
<!-- Node1 -->
<g id="node2" class="node">
<title>Node1</title>
<g id="a_node2"><a xlink:href="classPreconditionBlockBase.html" target="_top" xlink:title="PreconditionBlockBase\l\&lt; InverseNumberType \&gt;">
<polygon fill="#ffffff" stroke="#000000" points="264.8955,-117.5 264.8955,-145.5 388.1758,-145.5 388.1758,-117.5 264.8955,-117.5"/>
<text text-anchor="start" x="272.8955" y="-133.5" font-family="Helvetica,sans-Serif" font-size="10.00" fill="#000000">PreconditionBlockBase</text>
<text text-anchor="middle" x="326.5356" y="-123.5" font-family="Helvetica,sans-Serif" font-size="10.00" fill="#000000">&lt; InverseNumberType &gt;</text>
</a>
</g>
</g>
<!-- Node0&#45;&gt;Node1 -->
<g id="edge1" class="edge">
<title>Node0&#45;&gt;Node1</title>
<path fill="none" stroke="#ffa500" stroke-dasharray="5,2" d="M129.1919,-113.0302C171.2264,-116.9643 224.2773,-121.9294 264.7857,-125.7207"/>
<polygon fill="#ffa500" stroke="#ffa500" points="129.315,-109.5265 119.0323,-112.0794 128.6626,-116.4961 129.315,-109.5265"/>
<text text-anchor="middle" x="191.8662" y="-124.5" font-family="Helvetica,sans-Serif" font-size="10.00" fill="#000000"> &lt; InverseNumberType &gt;</text>
</g>
<!-- Node6 -->
<g id="node7" class="node">
<title>Node6</title>
<g id="a_node7"><a xlink:href="classPreconditionBlockBase.html" target="_top" xlink:title="PreconditionBlockBase\l\&lt; inverse_type \&gt;">
<polygon fill="#ffffff" stroke="#000000" points="267.1172,-69.5 267.1172,-97.5 385.9541,-97.5 385.9541,-69.5 267.1172,-69.5"/>
<text text-anchor="start" x="275.1172" y="-85.5" font-family="Helvetica,sans-Serif" font-size="10.00" fill="#000000">PreconditionBlockBase</text>
<text text-anchor="middle" x="326.5356" y="-75.5" font-family="Helvetica,sans-Serif" font-size="10.00" fill="#000000">&lt; inverse_type &gt;</text>
</a>
</g>
</g>
<!-- Node0&#45;&gt;Node6 -->
<g id="edge6" class="edge">
<title>Node0&#45;&gt;Node6</title>
<path fill="none" stroke="#ffa500" stroke-dasharray="5,2" d="M129.0916,-95.3811C131.704,-95.0657 134.2925,-94.7703 136.8369,-94.5 180.3029,-89.8819 229.5926,-87.0975 267.0336,-85.4857"/>
<polygon fill="#ffa500" stroke="#ffa500" points="128.4121,-91.9395 118.9396,-96.6852 129.304,-98.8825 128.4121,-91.9395"/>
<text text-anchor="middle" x="191.8662" y="-96.5" font-family="Helvetica,sans-Serif" font-size="10.00" fill="#000000"> &lt; inverse_type &gt;</text>
</g>
<!-- Node2 -->
<g id="node3" class="node">
<title>Node2</title>
<g id="a_node3"><a xlink:href="classRelaxationBlock.html" target="_top" xlink:title="RelaxationBlock\&lt; MatrixType,\l InverseNumberType, VectorType \&gt;">
<polygon fill="#ffffff" stroke="#000000" points="425.1758,-147.5 425.1758,-175.5 598.2119,-175.5 598.2119,-147.5 425.1758,-147.5"/>
<text text-anchor="start" x="433.1758" y="-163.5" font-family="Helvetica,sans-Serif" font-size="10.00" fill="#000000">RelaxationBlock&lt; MatrixType,</text>
<text text-anchor="middle" x="511.6938" y="-153.5" font-family="Helvetica,sans-Serif" font-size="10.00" fill="#000000"> InverseNumberType, VectorType &gt;</text>
</a>
</g>
</g>
<!-- Node1&#45;&gt;Node2 -->
<g id="edge2" class="edge">
<title>Node1&#45;&gt;Node2</title>
<path fill="none" stroke="#006400" d="M398.0958,-143.0944C406.9885,-144.5353 416.1542,-146.0203 425.2409,-147.4926"/>
<polygon fill="#006400" stroke="#006400" points="398.6217,-139.6341 388.1906,-141.4896 397.5021,-146.544 398.6217,-139.6341"/>
</g>
<!-- Node3 -->
<g id="node4" class="node">
<title>Node3</title>
<g id="a_node4"><a xlink:href="classRelaxationBlockJacobi.html" target="_top" xlink:title="RelaxationBlockJacobi\l\&lt; MatrixType, InverseNumber\lType, VectorType \&gt;">
<polygon fill="#ffffff" stroke="#000000" points="635.2119,-228.5 635.2119,-266.5 782.6523,-266.5 782.6523,-228.5 635.2119,-228.5"/>
<text text-anchor="start" x="643.2119" y="-254.5" font-family="Helvetica,sans-Serif" font-size="10.00" fill="#000000">RelaxationBlockJacobi</text>
<text text-anchor="start" x="643.2119" y="-244.5" font-family="Helvetica,sans-Serif" font-size="10.00" fill="#000000">&lt; MatrixType, InverseNumber</text>
<text text-anchor="middle" x="708.9321" y="-234.5" font-family="Helvetica,sans-Serif" font-size="10.00" fill="#000000">Type, VectorType &gt;</text>
</a>
</g>
</g>
<!-- Node2&#45;&gt;Node3 -->
<g id="edge3" class="edge">
<title>Node2&#45;&gt;Node3</title>
<path fill="none" stroke="#006400" d="M549.5793,-180.2034C573.8494,-191.9571 606.1365,-207.173 635.2119,-219.5 642.2705,-222.4926 649.7686,-225.5158 657.1762,-228.413"/>
<polygon fill="#006400" stroke="#006400" points="550.8878,-176.9478 540.3643,-175.7206 547.8256,-183.2425 550.8878,-176.9478"/>
</g>
<!-- Node4 -->
<g id="node5" class="node">
<title>Node4</title>
<g id="a_node5"><a xlink:href="classRelaxationBlockSOR.html" target="_top" xlink:title="RelaxationBlockSOR\l\&lt; MatrixType, InverseNumber\lType, VectorType \&gt;">
<polygon fill="#ffffff" stroke="#000000" points="635.2119,-171.5 635.2119,-209.5 782.6523,-209.5 782.6523,-171.5 635.2119,-171.5"/>
<text text-anchor="start" x="643.2119" y="-197.5" font-family="Helvetica,sans-Serif" font-size="10.00" fill="#000000">RelaxationBlockSOR</text>
<text text-anchor="start" x="643.2119" y="-187.5" font-family="Helvetica,sans-Serif" font-size="10.00" fill="#000000">&lt; MatrixType, InverseNumber</text>
<text text-anchor="middle" x="708.9321" y="-177.5" font-family="Helvetica,sans-Serif" font-size="10.00" fill="#000000">Type, VectorType &gt;</text>
</a>
</g>
</g>
<!-- Node2&#45;&gt;Node4 -->
<g id="edge4" class="edge">
<title>Node2&#45;&gt;Node4</title>
<path fill="none" stroke="#006400" d="M608.536,-175.7387C617.4528,-177.0498 626.389,-178.3637 635.0528,-179.6375"/>
<polygon fill="#006400" stroke="#006400" points="608.8952,-172.254 598.4925,-174.262 607.8769,-179.1795 608.8952,-172.254"/>
</g>
<!-- Node5 -->
<g id="node6" class="node">
<title>Node5</title>
<g id="a_node6"><a xlink:href="classRelaxationBlockSSOR.html" target="_top" xlink:title="RelaxationBlockSSOR\l\&lt; MatrixType, InverseNumber\lType, VectorType \&gt;">
<polygon fill="#ffffff" stroke="#000000" points="635.2119,-114.5 635.2119,-152.5 782.6523,-152.5 782.6523,-114.5 635.2119,-114.5"/>
<text text-anchor="start" x="643.2119" y="-140.5" font-family="Helvetica,sans-Serif" font-size="10.00" fill="#000000">RelaxationBlockSSOR</text>
<text text-anchor="start" x="643.2119" y="-130.5" font-family="Helvetica,sans-Serif" font-size="10.00" fill="#000000">&lt; MatrixType, InverseNumber</text>
<text text-anchor="middle" x="708.9321" y="-120.5" font-family="Helvetica,sans-Serif" font-size="10.00" fill="#000000">Type, VectorType &gt;</text>
</a>
</g>
</g>
<!-- Node2&#45;&gt;Node5 -->
<g id="edge5" class="edge">
<title>Node2&#45;&gt;Node5</title>
<path fill="none" stroke="#006400" d="M608.536,-147.7523C617.4528,-146.4864 626.389,-145.2178 635.0528,-143.9879"/>
<polygon fill="#006400" stroke="#006400" points="607.9012,-144.3072 598.4925,-149.178 608.8851,-151.2377 607.9012,-144.3072"/>
</g>
<!-- Node7 -->
<g id="node8" class="node">
<title>Node7</title>
<g id="a_node8"><a xlink:href="classPreconditionBlock.html" target="_top" xlink:title="PreconditionBlock\&lt;\l MatrixType, inverse\l_type \&gt;">
<polygon fill="#ffffff" stroke="#000000" points="458.9551,-57.5 458.9551,-95.5 564.4326,-95.5 564.4326,-57.5 458.9551,-57.5"/>
<text text-anchor="start" x="466.9551" y="-83.5" font-family="Helvetica,sans-Serif" font-size="10.00" fill="#000000">PreconditionBlock&lt;</text>
<text text-anchor="start" x="466.9551" y="-73.5" font-family="Helvetica,sans-Serif" font-size="10.00" fill="#000000"> MatrixType, inverse</text>
<text text-anchor="middle" x="511.6938" y="-63.5" font-family="Helvetica,sans-Serif" font-size="10.00" fill="#000000">_type &gt;</text>
</a>
</g>
</g>
<!-- Node6&#45;&gt;Node7 -->
<g id="edge7" class="edge">
<title>Node6&#45;&gt;Node7</title>
<path fill="none" stroke="#006400" d="M396.168,-80.8675C416.9039,-80.0836 439.279,-79.2377 458.7647,-78.501"/>
<polygon fill="#006400" stroke="#006400" points="396.0007,-77.3712 386.1401,-81.2466 396.2652,-84.3662 396.0007,-77.3712"/>
</g>
<!-- Node8 -->
<g id="node9" class="node">
<title>Node8</title>
<g id="a_node9"><a xlink:href="classPreconditionBlockJacobi.html" target="_top" xlink:title="PreconditionBlockJacobi\l\&lt; MatrixType, inverse\l_type \&gt;">
<polygon fill="#ffffff" stroke="#000000" points="646.457,-57.5 646.457,-95.5 771.4072,-95.5 771.4072,-57.5 646.457,-57.5"/>
<text text-anchor="start" x="654.457" y="-83.5" font-family="Helvetica,sans-Serif" font-size="10.00" fill="#000000">PreconditionBlockJacobi</text>
<text text-anchor="start" x="654.457" y="-73.5" font-family="Helvetica,sans-Serif" font-size="10.00" fill="#000000">&lt; MatrixType, inverse</text>
<text text-anchor="middle" x="708.9321" y="-63.5" font-family="Helvetica,sans-Serif" font-size="10.00" fill="#000000">_type &gt;</text>
</a>
</g>
</g>
<!-- Node7&#45;&gt;Node8 -->
<g id="edge8" class="edge">
<title>Node7&#45;&gt;Node8</title>
<path fill="none" stroke="#8b1a1a" d="M574.8005,-76.5C597.6038,-76.5 623.3307,-76.5 646.1096,-76.5"/>
<polygon fill="#8b1a1a" stroke="#8b1a1a" points="574.5501,-73.0001 564.5501,-76.5 574.5501,-80.0001 574.5501,-73.0001"/>
</g>
<!-- Node9 -->
<g id="node10" class="node">
<title>Node9</title>
<g id="a_node10"><a xlink:href="classPreconditionBlockSOR.html" target="_top" xlink:title="PreconditionBlockSOR\l\&lt; MatrixType, inverse\l_type \&gt;">
<polygon fill="#ffffff" stroke="#000000" points="650.0752,-.5 650.0752,-38.5 767.7891,-38.5 767.7891,-.5 650.0752,-.5"/>
<text text-anchor="start" x="658.0752" y="-26.5" font-family="Helvetica,sans-Serif" font-size="10.00" fill="#000000">PreconditionBlockSOR</text>
<text text-anchor="start" x="658.0752" y="-16.5" font-family="Helvetica,sans-Serif" font-size="10.00" fill="#000000">&lt; MatrixType, inverse</text>
<text text-anchor="middle" x="708.9321" y="-6.5" font-family="Helvetica,sans-Serif" font-size="10.00" fill="#000000">_type &gt;</text>
</a>
</g>
</g>
<!-- Node7&#45;&gt;Node9 -->
<g id="edge9" class="edge">
<title>Node7&#45;&gt;Node9</title>
<path fill="none" stroke="#006400" d="M574.354,-58.3918C598.5801,-51.3907 626.1607,-43.4202 650.0192,-36.5253"/>
<polygon fill="#006400" stroke="#006400" points="573.1852,-55.0863 564.5501,-61.225 575.1287,-61.8111 573.1852,-55.0863"/>
</g>
<!-- Node10 -->
<g id="node11" class="node">
<title>Node10</title>
<g id="a_node11"><a xlink:href="classPreconditionBlockSSOR.html" target="_top" xlink:title="PreconditionBlockSSOR\l\&lt; MatrixType, inverse\l_type \&gt;">
<polygon fill="#ffffff" stroke="#000000" points="819.6523,-.5 819.6523,-38.5 944.0361,-38.5 944.0361,-.5 819.6523,-.5"/>
<text text-anchor="start" x="827.6523" y="-26.5" font-family="Helvetica,sans-Serif" font-size="10.00" fill="#000000">PreconditionBlockSSOR</text>
<text text-anchor="start" x="827.6523" y="-16.5" font-family="Helvetica,sans-Serif" font-size="10.00" fill="#000000">&lt; MatrixType, inverse</text>
<text text-anchor="middle" x="881.8442" y="-6.5" font-family="Helvetica,sans-Serif" font-size="10.00" fill="#000000">_type &gt;</text>
</a>
</g>
</g>
<!-- Node9&#45;&gt;Node10 -->
<g id="edge10" class="edge">
<title>Node9&#45;&gt;Node10</title>
<path fill="none" stroke="#8b1a1a" d="M778.2534,-19.5C791.9028,-19.5 806.1458,-19.5 819.5469,-19.5"/>
<polygon fill="#8b1a1a" stroke="#8b1a1a" points="777.9551,-16.0001 767.955,-19.5 777.955,-23.0001 777.9551,-16.0001"/>
</g>
</g>
</svg>
