<?xml version="1.0" encoding="UTF-8" standalone="no"?>
<!DOCTYPE svg PUBLIC "-//W3C//DTD SVG 1.1//EN"
 "http://www.w3.org/Graphics/SVG/1.1/DTD/svg11.dtd">
<!-- Generated by graphviz version 2.40.1 (20161225.0304)
 -->
<!-- Title: parallel::shared::Triangulation&lt; dim, spacedim &gt; Pages: 1 -->
<svg width="155pt" height="222pt"
 viewBox="0.00 0.00 155.38 222.00" xmlns="http://www.w3.org/2000/svg" xmlns:xlink="http://www.w3.org/1999/xlink">
<g id="graph0" class="graph" transform="scale(1 1) rotate(0) translate(4 218)">
<title>parallel::shared::Triangulation&lt; dim, spacedim &gt;</title>
<polygon fill="#ffffff" stroke="transparent" points="-4,4 -4,-218 151.377,-218 151.377,4 -4,4"/>
<!-- Node0 -->
<g id="node1" class="node">
<title>Node0</title>
<polygon fill="#bfbfbf" stroke="#000000" points="0,-.5 0,-28.5 147.377,-28.5 147.377,-.5 0,-.5"/>
<text text-anchor="start" x="8" y="-16.5" font-family="Helvetica,sans-Serif" font-size="10.00" fill="#000000">parallel::shared::Triangulation</text>
<text text-anchor="middle" x="73.6885" y="-6.5" font-family="Helvetica,sans-Serif" font-size="10.00" fill="#000000">&lt; dim, spacedim &gt;</text>
</g>
<!-- Node1 -->
<g id="node2" class="node">
<title>Node1</title>
<g id="a_node2"><a xlink:href="classparallel_1_1Triangulation.html" target="_top" xlink:title="parallel::Triangulation\l\&lt; dim, spacedim \&gt;">
<polygon fill="#ffffff" stroke="#000000" points="18.0664,-65.5 18.0664,-93.5 129.3105,-93.5 129.3105,-65.5 18.0664,-65.5"/>
<text text-anchor="start" x="26.0664" y="-81.5" font-family="Helvetica,sans-Serif" font-size="10.00" fill="#000000">parallel::Triangulation</text>
<text text-anchor="middle" x="73.6885" y="-71.5" font-family="Helvetica,sans-Serif" font-size="10.00" fill="#000000">&lt; dim, spacedim &gt;</text>
</a>
</g>
</g>
<!-- Node1&#45;&gt;Node0 -->
<g id="edge1" class="edge">
<title>Node1&#45;&gt;Node0</title>
<path fill="none" stroke="#191970" d="M73.6885,-55.1081C73.6885,-46.1539 73.6885,-36.3227 73.6885,-28.5765"/>
<polygon fill="#191970" stroke="#191970" points="70.1886,-55.3959 73.6885,-65.396 77.1886,-55.396 70.1886,-55.3959"/>
</g>
<!-- Node2 -->
<g id="node3" class="node">
<title>Node2</title>
<g id="a_node3"><a xlink:href="classTriangulation.html" target="_top" xlink:title="Triangulation\&lt; dim,\l spacedim \&gt;">
<polygon fill="#ffffff" stroke="#000000" points="23.2104,-130.5 23.2104,-158.5 124.1665,-158.5 124.1665,-130.5 23.2104,-130.5"/>
<text text-anchor="start" x="31.2104" y="-146.5" font-family="Helvetica,sans-Serif" font-size="10.00" fill="#000000">Triangulation&lt; dim,</text>
<text text-anchor="middle" x="73.6885" y="-136.5" font-family="Helvetica,sans-Serif" font-size="10.00" fill="#000000"> spacedim &gt;</text>
</a>
</g>
</g>
<!-- Node2&#45;&gt;Node1 -->
<g id="edge2" class="edge">
<title>Node2&#45;&gt;Node1</title>
<path fill="none" stroke="#191970" d="M73.6885,-120.1081C73.6885,-111.1539 73.6885,-101.3227 73.6885,-93.5765"/>
<polygon fill="#191970" stroke="#191970" points="70.1886,-120.3959 73.6885,-130.396 77.1886,-120.396 70.1886,-120.3959"/>
</g>
<!-- Node3 -->
<g id="node4" class="node">
<title>Node3</title>
<g id="a_node4"><a xlink:href="classSubscriptor.html" target="_top" xlink:title="Subscriptor">
<polygon fill="#ffffff" stroke="#000000" points="40.4004,-195.5 40.4004,-213.5 106.9766,-213.5 106.9766,-195.5 40.4004,-195.5"/>
<text text-anchor="middle" x="73.6885" y="-201.5" font-family="Helvetica,sans-Serif" font-size="10.00" fill="#000000">Subscriptor</text>
</a>
</g>
</g>
<!-- Node3&#45;&gt;Node2 -->
<g id="edge3" class="edge">
<title>Node3&#45;&gt;Node2</title>
<path fill="none" stroke="#191970" d="M73.6885,-185.1865C73.6885,-176.6283 73.6885,-166.7354 73.6885,-158.8477"/>
<polygon fill="#191970" stroke="#191970" points="70.1886,-185.3873 73.6885,-195.3873 77.1886,-185.3873 70.1886,-185.3873"/>
</g>
</g>
</svg>
