<?xml version="1.0" encoding="UTF-8" standalone="no"?>
<!DOCTYPE svg PUBLIC "-//W3C//DTD SVG 1.1//EN"
 "http://www.w3.org/Graphics/SVG/1.1/DTD/svg11.dtd">
<!-- Generated by graphviz version 2.40.1 (20161225.0304)
 -->
<!-- Title: hp::FECollection&lt; dim, spacedim &gt; Pages: 1 -->
<svg width="547pt" height="309pt"
 viewBox="0.00 0.00 547.36 308.50" xmlns="http://www.w3.org/2000/svg" xmlns:xlink="http://www.w3.org/1999/xlink">
<g id="graph0" class="graph" transform="scale(1 1) rotate(0) translate(4 304.5)">
<title>hp::FECollection&lt; dim, spacedim &gt;</title>
<polygon fill="#ffffff" stroke="transparent" points="-4,4 -4,-304.5 543.3643,-304.5 543.3643,4 -4,4"/>
<!-- Node0 -->
<g id="node1" class="node">
<title>Node0</title>
<polygon fill="#bfbfbf" stroke="#000000" points="103.5762,-120.5 103.5762,-148.5 220.4551,-148.5 220.4551,-120.5 103.5762,-120.5"/>
<text text-anchor="start" x="111.5762" y="-136.5" font-family="Helvetica,sans-Serif" font-size="10.00" fill="#000000">hp::FECollection&lt; dim,</text>
<text text-anchor="middle" x="162.0156" y="-126.5" font-family="Helvetica,sans-Serif" font-size="10.00" fill="#000000"> spacedim &gt;</text>
</g>
<!-- Node2 -->
<g id="node3" class="node">
<title>Node2</title>
<g id="a_node3"><a xlink:href="classhp_1_1FECollection.html" target="_top" xlink:title="hp::FECollection\&lt; dim,\l ::FEValues\&lt; dim, spacedim\l \&gt; ::space_dimension \&gt;">
<polygon fill="#ffffff" stroke="#000000" points="386.8579,-255.5 386.8579,-293.5 526.896,-293.5 526.896,-255.5 386.8579,-255.5"/>
<text text-anchor="start" x="394.8579" y="-281.5" font-family="Helvetica,sans-Serif" font-size="10.00" fill="#000000">hp::FECollection&lt; dim,</text>
<text text-anchor="start" x="394.8579" y="-271.5" font-family="Helvetica,sans-Serif" font-size="10.00" fill="#000000"> ::FEValues&lt; dim, spacedim</text>
<text text-anchor="middle" x="456.877" y="-261.5" font-family="Helvetica,sans-Serif" font-size="10.00" fill="#000000"> &gt; ::space_dimension &gt;</text>
</a>
</g>
</g>
<!-- Node0&#45;&gt;Node2 -->
<g id="edge2" class="edge">
<title>Node0&#45;&gt;Node2</title>
<path fill="none" stroke="#ffa500" stroke-dasharray="5,2" d="M173.2207,-157.6883C185.7549,-180.9964 208.3208,-216.0396 238.4551,-234.5 282.9159,-261.7369 341.3641,-271.3591 386.6099,-274.3765"/>
<polygon fill="#ffa500" stroke="#ffa500" points="176.3233,-156.0682 168.6177,-148.7967 170.1069,-159.2864 176.3233,-156.0682"/>
<text text-anchor="start" x="241.9805" y="-292.5" font-family="Helvetica,sans-Serif" font-size="10.00" fill="#000000"> &lt; dim, ::FEValues&lt;</text>
<text text-anchor="start" x="241.9805" y="-282.5" font-family="Helvetica,sans-Serif" font-size="10.00" fill="#000000"> dim, spacedim &gt; ::space</text>
<text text-anchor="middle" x="297.4224" y="-272.5" font-family="Helvetica,sans-Serif" font-size="10.00" fill="#000000">_dimension &gt;</text>
</g>
<!-- Node3 -->
<g id="node4" class="node">
<title>Node3</title>
<g id="a_node4"><a xlink:href="classhp_1_1FECollection.html" target="_top" xlink:title="hp::FECollection\&lt; dim,\l FEValuesType::space\l_dimension \&gt;">
<polygon fill="#ffffff" stroke="#000000" points="398.4375,-198.5 398.4375,-236.5 515.3164,-236.5 515.3164,-198.5 398.4375,-198.5"/>
<text text-anchor="start" x="406.4375" y="-224.5" font-family="Helvetica,sans-Serif" font-size="10.00" fill="#000000">hp::FECollection&lt; dim,</text>
<text text-anchor="start" x="406.4375" y="-214.5" font-family="Helvetica,sans-Serif" font-size="10.00" fill="#000000"> FEValuesType::space</text>
<text text-anchor="middle" x="456.877" y="-204.5" font-family="Helvetica,sans-Serif" font-size="10.00" fill="#000000">_dimension &gt;</text>
</a>
</g>
</g>
<!-- Node0&#45;&gt;Node3 -->
<g id="edge3" class="edge">
<title>Node0&#45;&gt;Node3</title>
<path fill="none" stroke="#ffa500" stroke-dasharray="5,2" d="M187.0148,-154.8144C201.2634,-165.3362 219.9291,-177.4292 238.4551,-184.5 290.2292,-204.2606 353.146,-212.2274 398.1308,-215.4186"/>
<polygon fill="#ffa500" stroke="#ffa500" points="188.8311,-151.7983 178.7545,-148.5251 184.5905,-157.3677 188.8311,-151.7983"/>
<text text-anchor="start" x="248.7383" y="-222.5" font-family="Helvetica,sans-Serif" font-size="10.00" fill="#000000"> &lt; dim, FEValuesType</text>
<text text-anchor="middle" x="297.4224" y="-212.5" font-family="Helvetica,sans-Serif" font-size="10.00" fill="#000000">::space_dimension &gt;</text>
</g>
<!-- Node4 -->
<g id="node5" class="node">
<title>Node4</title>
<g id="a_node5"><a xlink:href="classhp_1_1FECollection.html" target="_top" xlink:title="hp::FECollection\&lt; dim,\l ::FESubfaceValues\&lt; dim,\l spacedim \&gt; ::space_dimension \&gt;">
<polygon fill="#ffffff" stroke="#000000" points="374.3896,-141.5 374.3896,-179.5 539.3643,-179.5 539.3643,-141.5 374.3896,-141.5"/>
<text text-anchor="start" x="382.3896" y="-167.5" font-family="Helvetica,sans-Serif" font-size="10.00" fill="#000000">hp::FECollection&lt; dim,</text>
<text text-anchor="start" x="382.3896" y="-157.5" font-family="Helvetica,sans-Serif" font-size="10.00" fill="#000000"> ::FESubfaceValues&lt; dim,</text>
<text text-anchor="middle" x="456.877" y="-147.5" font-family="Helvetica,sans-Serif" font-size="10.00" fill="#000000"> spacedim &gt; ::space_dimension &gt;</text>
</a>
</g>
</g>
<!-- Node0&#45;&gt;Node4 -->
<g id="edge4" class="edge">
<title>Node0&#45;&gt;Node4</title>
<path fill="none" stroke="#ffa500" stroke-dasharray="5,2" d="M230.6872,-140.5553C273.5905,-144.3383 329.0899,-149.2321 374.3756,-153.2253"/>
<polygon fill="#ffa500" stroke="#ffa500" points="230.8921,-137.0598 220.6233,-139.6678 230.2772,-144.0328 230.8921,-137.0598"/>
<text text-anchor="start" x="238.4551" y="-172.5" font-family="Helvetica,sans-Serif" font-size="10.00" fill="#000000"> &lt; dim, ::FESubfaceValues</text>
<text text-anchor="start" x="238.4551" y="-162.5" font-family="Helvetica,sans-Serif" font-size="10.00" fill="#000000">&lt; dim, spacedim &gt; ::space</text>
<text text-anchor="middle" x="297.4224" y="-152.5" font-family="Helvetica,sans-Serif" font-size="10.00" fill="#000000">_dimension &gt;</text>
</g>
<!-- Node5 -->
<g id="node6" class="node">
<title>Node5</title>
<g id="a_node6"><a xlink:href="classhp_1_1FECollection.html" target="_top" xlink:title="hp::FECollection\&lt; dim,\l dim \&gt;">
<polygon fill="#ffffff" stroke="#000000" points="398.4375,-94.5 398.4375,-122.5 515.3164,-122.5 515.3164,-94.5 398.4375,-94.5"/>
<text text-anchor="start" x="406.4375" y="-110.5" font-family="Helvetica,sans-Serif" font-size="10.00" fill="#000000">hp::FECollection&lt; dim,</text>
<text text-anchor="middle" x="456.877" y="-100.5" font-family="Helvetica,sans-Serif" font-size="10.00" fill="#000000"> dim &gt;</text>
</a>
</g>
</g>
<!-- Node0&#45;&gt;Node5 -->
<g id="edge5" class="edge">
<title>Node0&#45;&gt;Node5</title>
<path fill="none" stroke="#ffa500" stroke-dasharray="5,2" d="M230.841,-127.2252C233.411,-126.9763 235.9558,-126.7337 238.4551,-126.5 292.4393,-121.4513 354.0017,-116.4459 397.9786,-113"/>
<polygon fill="#ffa500" stroke="#ffa500" points="230.4537,-123.7463 220.8455,-128.2109 231.1407,-130.7125 230.4537,-123.7463"/>
<text text-anchor="middle" x="297.4224" y="-128.5" font-family="Helvetica,sans-Serif" font-size="10.00" fill="#000000"> &lt; dim, dim &gt;</text>
</g>
<!-- Node6 -->
<g id="node7" class="node">
<title>Node6</title>
<g id="a_node7"><a xlink:href="classhp_1_1FECollection.html" target="_top" xlink:title="hp::FECollection\&lt; dim,\l ::FEFaceValues\&lt; dim,\l spacedim \&gt; ::space_dimension \&gt;">
<polygon fill="#ffffff" stroke="#000000" points="374.3896,-37.5 374.3896,-75.5 539.3643,-75.5 539.3643,-37.5 374.3896,-37.5"/>
<text text-anchor="start" x="382.3896" y="-63.5" font-family="Helvetica,sans-Serif" font-size="10.00" fill="#000000">hp::FECollection&lt; dim,</text>
<text text-anchor="start" x="382.3896" y="-53.5" font-family="Helvetica,sans-Serif" font-size="10.00" fill="#000000"> ::FEFaceValues&lt; dim,</text>
<text text-anchor="middle" x="456.877" y="-43.5" font-family="Helvetica,sans-Serif" font-size="10.00" fill="#000000"> spacedim &gt; ::space_dimension &gt;</text>
</a>
</g>
</g>
<!-- Node0&#45;&gt;Node6 -->
<g id="edge6" class="edge">
<title>Node0&#45;&gt;Node6</title>
<path fill="none" stroke="#ffa500" stroke-dasharray="5,2" d="M186.5961,-113.7853C200.8376,-102.9391 219.6307,-90.4928 238.4551,-83.5 281.6153,-67.4669 332.5381,-60.5454 374.353,-57.7099"/>
<polygon fill="#ffa500" stroke="#ffa500" points="184.0514,-111.334 178.3574,-120.2687 188.3803,-116.8349 184.0514,-111.334"/>
<text text-anchor="start" x="239.0605" y="-105.5" font-family="Helvetica,sans-Serif" font-size="10.00" fill="#000000"> &lt; dim, ::FEFaceValues</text>
<text text-anchor="start" x="239.0605" y="-95.5" font-family="Helvetica,sans-Serif" font-size="10.00" fill="#000000">&lt; dim, spacedim &gt; ::space</text>
<text text-anchor="middle" x="297.4224" y="-85.5" font-family="Helvetica,sans-Serif" font-size="10.00" fill="#000000">_dimension &gt;</text>
</g>
<!-- Node7 -->
<g id="node8" class="node">
<title>Node7</title>
<g id="a_node8"><a xlink:href="classhp_1_1FECollection.html" target="_top" xlink:title="hp::FECollection\&lt; dim \&gt;">
<polygon fill="#ffffff" stroke="#000000" points="395.5176,-.5 395.5176,-18.5 518.2363,-18.5 518.2363,-.5 395.5176,-.5"/>
<text text-anchor="middle" x="456.877" y="-6.5" font-family="Helvetica,sans-Serif" font-size="10.00" fill="#000000">hp::FECollection&lt; dim &gt;</text>
</a>
</g>
</g>
<!-- Node0&#45;&gt;Node7 -->
<g id="edge7" class="edge">
<title>Node0&#45;&gt;Node7</title>
<path fill="none" stroke="#ffa500" stroke-dasharray="5,2" d="M175.0147,-111.8157C188.2051,-91.0196 210.618,-61.1537 238.4551,-45.5 286.5259,-18.4682 349.3358,-10.4299 395.2564,-8.5854"/>
<polygon fill="#ffa500" stroke="#ffa500" points="172.0103,-110.02 169.7771,-120.3768 177.9814,-113.6731 172.0103,-110.02"/>
<text text-anchor="middle" x="297.4224" y="-47.5" font-family="Helvetica,sans-Serif" font-size="10.00" fill="#000000"> &lt; dim &gt;</text>
</g>
<!-- Node1 -->
<g id="node2" class="node">
<title>Node1</title>
<g id="a_node2"><a xlink:href="classSubscriptor.html" target="_top" xlink:title="Subscriptor">
<polygon fill="#ffffff" stroke="#000000" points="0,-125.5 0,-143.5 66.5762,-143.5 66.5762,-125.5 0,-125.5"/>
<text text-anchor="middle" x="33.2881" y="-131.5" font-family="Helvetica,sans-Serif" font-size="10.00" fill="#000000">Subscriptor</text>
</a>
</g>
</g>
<!-- Node1&#45;&gt;Node0 -->
<g id="edge1" class="edge">
<title>Node1&#45;&gt;Node0</title>
<path fill="none" stroke="#191970" d="M76.8947,-134.5C85.4537,-134.5 94.5612,-134.5 103.5159,-134.5"/>
<polygon fill="#191970" stroke="#191970" points="76.7737,-131.0001 66.7737,-134.5 76.7737,-138.0001 76.7737,-131.0001"/>
</g>
</g>
</svg>
