<?xml version="1.0" encoding="UTF-8" standalone="no"?>
<!DOCTYPE svg PUBLIC "-//W3C//DTD SVG 1.1//EN"
 "http://www.w3.org/Graphics/SVG/1.1/DTD/svg11.dtd">
<!-- Generated by graphviz version 2.40.1 (20161225.0304)
 -->
<!-- Title: MappingQEulerian&lt; dim, VectorType, spacedim &gt; Pages: 1 -->
<svg width="152pt" height="202pt"
 viewBox="0.00 0.00 151.84 202.00" xmlns="http://www.w3.org/2000/svg" xmlns:xlink="http://www.w3.org/1999/xlink">
<g id="graph0" class="graph" transform="scale(1 1) rotate(0) translate(4 198)">
<title>MappingQEulerian&lt; dim, VectorType, spacedim &gt;</title>
<polygon fill="#ffffff" stroke="transparent" points="-4,4 -4,-198 147.8418,-198 147.8418,4 -4,4"/>
<!-- Node0 -->
<g id="node1" class="node">
<title>Node0</title>
<polygon fill="#bfbfbf" stroke="#000000" points="8.7524,-.5 8.7524,-28.5 135.0894,-28.5 135.0894,-.5 8.7524,-.5"/>
<text text-anchor="start" x="16.7524" y="-16.5" font-family="Helvetica,sans-Serif" font-size="10.00" fill="#000000">MappingQEulerian&lt; dim,</text>
<text text-anchor="middle" x="71.9209" y="-6.5" font-family="Helvetica,sans-Serif" font-size="10.00" fill="#000000"> VectorType, spacedim &gt;</text>
</g>
<!-- Node1 -->
<g id="node2" class="node">
<title>Node1</title>
<g id="a_node2"><a xlink:href="classMappingQ.html" target="_top" xlink:title="MappingQ\&lt; dim, spacedim \&gt;">
<polygon fill="#ffffff" stroke="#000000" points="0,-65.5 0,-83.5 143.8418,-83.5 143.8418,-65.5 0,-65.5"/>
<text text-anchor="middle" x="71.9209" y="-71.5" font-family="Helvetica,sans-Serif" font-size="10.00" fill="#000000">MappingQ&lt; dim, spacedim &gt;</text>
</a>
</g>
</g>
<!-- Node1&#45;&gt;Node0 -->
<g id="edge1" class="edge">
<title>Node1&#45;&gt;Node0</title>
<path fill="none" stroke="#191970" d="M71.9209,-55.1865C71.9209,-46.6283 71.9209,-36.7354 71.9209,-28.8477"/>
<polygon fill="#191970" stroke="#191970" points="68.421,-55.3873 71.9209,-65.3873 75.421,-55.3873 68.421,-55.3873"/>
</g>
<!-- Node2 -->
<g id="node3" class="node">
<title>Node2</title>
<g id="a_node3"><a xlink:href="classMapping.html" target="_top" xlink:title="Abstract base class for mapping classes. ">
<polygon fill="#ffffff" stroke="#000000" points="3.8892,-120.5 3.8892,-138.5 139.9526,-138.5 139.9526,-120.5 3.8892,-120.5"/>
<text text-anchor="middle" x="71.9209" y="-126.5" font-family="Helvetica,sans-Serif" font-size="10.00" fill="#000000">Mapping&lt; dim, spacedim &gt;</text>
</a>
</g>
</g>
<!-- Node2&#45;&gt;Node1 -->
<g id="edge2" class="edge">
<title>Node2&#45;&gt;Node1</title>
<path fill="none" stroke="#191970" d="M71.9209,-110.383C71.9209,-101.3738 71.9209,-91.0373 71.9209,-83.7795"/>
<polygon fill="#191970" stroke="#191970" points="68.421,-110.4178 71.9209,-120.4179 75.421,-110.4179 68.421,-110.4178"/>
</g>
<!-- Node3 -->
<g id="node4" class="node">
<title>Node3</title>
<g id="a_node4"><a xlink:href="classSubscriptor.html" target="_top" xlink:title="Subscriptor">
<polygon fill="#ffffff" stroke="#000000" points="38.6328,-175.5 38.6328,-193.5 105.209,-193.5 105.209,-175.5 38.6328,-175.5"/>
<text text-anchor="middle" x="71.9209" y="-181.5" font-family="Helvetica,sans-Serif" font-size="10.00" fill="#000000">Subscriptor</text>
</a>
</g>
</g>
<!-- Node3&#45;&gt;Node2 -->
<g id="edge3" class="edge">
<title>Node3&#45;&gt;Node2</title>
<path fill="none" stroke="#191970" d="M71.9209,-165.383C71.9209,-156.3738 71.9209,-146.0373 71.9209,-138.7795"/>
<polygon fill="#191970" stroke="#191970" points="68.421,-165.4178 71.9209,-175.4179 75.421,-165.4179 68.421,-165.4178"/>
</g>
</g>
</svg>
