<?xml version="1.0" encoding="UTF-8" standalone="no"?>
<!DOCTYPE svg PUBLIC "-//W3C//DTD SVG 1.1//EN"
 "http://www.w3.org/Graphics/SVG/1.1/DTD/svg11.dtd">
<!-- Generated by graphviz version 2.40.1 (20161225.0304)
 -->
<!-- Title: RelaxationBlock&lt; MatrixType, InverseNumberType, VectorType &gt; Pages: 1 -->
<svg width="791pt" height="161pt"
 viewBox="0.00 0.00 790.65 161.00" xmlns="http://www.w3.org/2000/svg" xmlns:xlink="http://www.w3.org/1999/xlink">
<g id="graph0" class="graph" transform="scale(1 1) rotate(0) translate(4 157)">
<title>RelaxationBlock&lt; MatrixType, InverseNumberType, VectorType &gt;</title>
<polygon fill="#ffffff" stroke="transparent" points="-4,4 -4,-157 786.6523,-157 786.6523,4 -4,4"/>
<!-- Node0 -->
<g id="node1" class="node">
<title>Node0</title>
<polygon fill="#bfbfbf" stroke="#000000" points="425.1758,-62.5 425.1758,-90.5 598.2119,-90.5 598.2119,-62.5 425.1758,-62.5"/>
<text text-anchor="start" x="433.1758" y="-78.5" font-family="Helvetica,sans-Serif" font-size="10.00" fill="#000000">RelaxationBlock&lt; MatrixType,</text>
<text text-anchor="middle" x="511.6938" y="-68.5" font-family="Helvetica,sans-Serif" font-size="10.00" fill="#000000"> InverseNumberType, VectorType &gt;</text>
</g>
<!-- Node3 -->
<g id="node4" class="node">
<title>Node3</title>
<g id="a_node4"><a xlink:href="classRelaxationBlockJacobi.html" target="_top" xlink:title="RelaxationBlockJacobi\l\&lt; MatrixType, InverseNumber\lType, VectorType \&gt;">
<polygon fill="#ffffff" stroke="#000000" points="635.2119,-114.5 635.2119,-152.5 782.6523,-152.5 782.6523,-114.5 635.2119,-114.5"/>
<text text-anchor="start" x="643.2119" y="-140.5" font-family="Helvetica,sans-Serif" font-size="10.00" fill="#000000">RelaxationBlockJacobi</text>
<text text-anchor="start" x="643.2119" y="-130.5" font-family="Helvetica,sans-Serif" font-size="10.00" fill="#000000">&lt; MatrixType, InverseNumber</text>
<text text-anchor="middle" x="708.9321" y="-120.5" font-family="Helvetica,sans-Serif" font-size="10.00" fill="#000000">Type, VectorType &gt;</text>
</a>
</g>
</g>
<!-- Node0&#45;&gt;Node3 -->
<g id="edge3" class="edge">
<title>Node0&#45;&gt;Node3</title>
<path fill="none" stroke="#006400" d="M569.819,-93.2976C592.8237,-99.9457 619.3859,-107.622 643.0956,-114.4739"/>
<polygon fill="#006400" stroke="#006400" points="570.775,-89.9307 560.1964,-90.5168 568.8315,-96.6556 570.775,-89.9307"/>
</g>
<!-- Node4 -->
<g id="node5" class="node">
<title>Node4</title>
<g id="a_node5"><a xlink:href="classRelaxationBlockSOR.html" target="_top" xlink:title="RelaxationBlockSOR\l\&lt; MatrixType, InverseNumber\lType, VectorType \&gt;">
<polygon fill="#ffffff" stroke="#000000" points="635.2119,-57.5 635.2119,-95.5 782.6523,-95.5 782.6523,-57.5 635.2119,-57.5"/>
<text text-anchor="start" x="643.2119" y="-83.5" font-family="Helvetica,sans-Serif" font-size="10.00" fill="#000000">RelaxationBlockSOR</text>
<text text-anchor="start" x="643.2119" y="-73.5" font-family="Helvetica,sans-Serif" font-size="10.00" fill="#000000">&lt; MatrixType, InverseNumber</text>
<text text-anchor="middle" x="708.9321" y="-63.5" font-family="Helvetica,sans-Serif" font-size="10.00" fill="#000000">Type, VectorType &gt;</text>
</a>
</g>
</g>
<!-- Node0&#45;&gt;Node4 -->
<g id="edge4" class="edge">
<title>Node0&#45;&gt;Node4</title>
<path fill="none" stroke="#006400" d="M608.536,-76.5C617.4528,-76.5 626.389,-76.5 635.0528,-76.5"/>
<polygon fill="#006400" stroke="#006400" points="608.4925,-73.0001 598.4925,-76.5 608.4924,-80.0001 608.4925,-73.0001"/>
</g>
<!-- Node5 -->
<g id="node6" class="node">
<title>Node5</title>
<g id="a_node6"><a xlink:href="classRelaxationBlockSSOR.html" target="_top" xlink:title="RelaxationBlockSSOR\l\&lt; MatrixType, InverseNumber\lType, VectorType \&gt;">
<polygon fill="#ffffff" stroke="#000000" points="635.2119,-.5 635.2119,-38.5 782.6523,-38.5 782.6523,-.5 635.2119,-.5"/>
<text text-anchor="start" x="643.2119" y="-26.5" font-family="Helvetica,sans-Serif" font-size="10.00" fill="#000000">RelaxationBlockSSOR</text>
<text text-anchor="start" x="643.2119" y="-16.5" font-family="Helvetica,sans-Serif" font-size="10.00" fill="#000000">&lt; MatrixType, InverseNumber</text>
<text text-anchor="middle" x="708.9321" y="-6.5" font-family="Helvetica,sans-Serif" font-size="10.00" fill="#000000">Type, VectorType &gt;</text>
</a>
</g>
</g>
<!-- Node0&#45;&gt;Node5 -->
<g id="edge5" class="edge">
<title>Node0&#45;&gt;Node5</title>
<path fill="none" stroke="#006400" d="M569.819,-59.7024C592.8237,-53.0543 619.3859,-45.378 643.0956,-38.5261"/>
<polygon fill="#006400" stroke="#006400" points="568.8315,-56.3444 560.1964,-62.4832 570.775,-63.0693 568.8315,-56.3444"/>
</g>
<!-- Node1 -->
<g id="node2" class="node">
<title>Node1</title>
<g id="a_node2"><a xlink:href="classPreconditionBlockBase.html" target="_top" xlink:title="PreconditionBlockBase\l\&lt; InverseNumberType \&gt;">
<polygon fill="#ffffff" stroke="#000000" points="264.8955,-62.5 264.8955,-90.5 388.1758,-90.5 388.1758,-62.5 264.8955,-62.5"/>
<text text-anchor="start" x="272.8955" y="-78.5" font-family="Helvetica,sans-Serif" font-size="10.00" fill="#000000">PreconditionBlockBase</text>
<text text-anchor="middle" x="326.5356" y="-68.5" font-family="Helvetica,sans-Serif" font-size="10.00" fill="#000000">&lt; InverseNumberType &gt;</text>
</a>
</g>
</g>
<!-- Node1&#45;&gt;Node0 -->
<g id="edge1" class="edge">
<title>Node1&#45;&gt;Node0</title>
<path fill="none" stroke="#006400" d="M398.2914,-76.5C407.0144,-76.5 415.9976,-76.5 424.9089,-76.5"/>
<polygon fill="#006400" stroke="#006400" points="398.1907,-73.0001 388.1906,-76.5 398.1906,-80.0001 398.1907,-73.0001"/>
</g>
<!-- Node2 -->
<g id="node3" class="node">
<title>Node2</title>
<g id="a_node3"><a xlink:href="classPreconditionBlockBase.html" target="_top" xlink:title="PreconditionBlockBase\l\&lt; number \&gt;">
<polygon fill="#ffffff" stroke="#000000" points="0,-62.5 0,-90.5 118.8369,-90.5 118.8369,-62.5 0,-62.5"/>
<text text-anchor="start" x="8" y="-78.5" font-family="Helvetica,sans-Serif" font-size="10.00" fill="#000000">PreconditionBlockBase</text>
<text text-anchor="middle" x="59.4185" y="-68.5" font-family="Helvetica,sans-Serif" font-size="10.00" fill="#000000">&lt; number &gt;</text>
</a>
</g>
</g>
<!-- Node2&#45;&gt;Node1 -->
<g id="edge2" class="edge">
<title>Node2&#45;&gt;Node1</title>
<path fill="none" stroke="#ffa500" stroke-dasharray="5,2" d="M129.1919,-76.5C171.2264,-76.5 224.2773,-76.5 264.7857,-76.5"/>
<polygon fill="#ffa500" stroke="#ffa500" points="129.0323,-73.0001 119.0323,-76.5 129.0323,-80.0001 129.0323,-73.0001"/>
<text text-anchor="middle" x="191.8662" y="-78.5" font-family="Helvetica,sans-Serif" font-size="10.00" fill="#000000"> &lt; InverseNumberType &gt;</text>
</g>
</g>
</svg>
