<?xml version="1.0" encoding="UTF-8" standalone="no"?>
<!DOCTYPE svg PUBLIC "-//W3C//DTD SVG 1.1//EN"
 "http://www.w3.org/Graphics/SVG/1.1/DTD/svg11.dtd">
<!-- Generated by graphviz version 2.40.1 (20161225.0304)
 -->
<!-- Title: RelaxationBlock&lt; MatrixType, InverseNumberType, VectorType &gt;::AdditionalData Pages: 1 -->
<svg width="172pt" height="102pt"
 viewBox="0.00 0.00 172.42 102.00" xmlns="http://www.w3.org/2000/svg" xmlns:xlink="http://www.w3.org/1999/xlink">
<g id="graph0" class="graph" transform="scale(1 1) rotate(0) translate(4 98)">
<title>RelaxationBlock&lt; MatrixType, InverseNumberType, VectorType &gt;::AdditionalData</title>
<polygon fill="#ffffff" stroke="transparent" points="-4,4 -4,-98 168.418,-98 168.418,4 -4,4"/>
<!-- Node0 -->
<g id="node1" class="node">
<title>Node0</title>
<polygon fill="#bfbfbf" stroke="#000000" points="0,-.5 0,-38.5 164.418,-38.5 164.418,-.5 0,-.5"/>
<text text-anchor="start" x="8" y="-26.5" font-family="Helvetica,sans-Serif" font-size="10.00" fill="#000000">RelaxationBlock&lt; MatrixType,</text>
<text text-anchor="start" x="8" y="-16.5" font-family="Helvetica,sans-Serif" font-size="10.00" fill="#000000"> InverseNumberType, VectorType</text>
<text text-anchor="middle" x="82.209" y="-6.5" font-family="Helvetica,sans-Serif" font-size="10.00" fill="#000000"> &gt;::AdditionalData</text>
</g>
<!-- Node1 -->
<g id="node2" class="node">
<title>Node1</title>
<g id="a_node2"><a xlink:href="classSubscriptor.html" target="_top" xlink:title="Subscriptor">
<polygon fill="#ffffff" stroke="#000000" points="48.9209,-75.5 48.9209,-93.5 115.4971,-93.5 115.4971,-75.5 48.9209,-75.5"/>
<text text-anchor="middle" x="82.209" y="-81.5" font-family="Helvetica,sans-Serif" font-size="10.00" fill="#000000">Subscriptor</text>
</a>
</g>
</g>
<!-- Node1&#45;&gt;Node0 -->
<g id="edge1" class="edge">
<title>Node1&#45;&gt;Node0</title>
<path fill="none" stroke="#191970" d="M82.209,-65.4456C82.209,-56.9924 82.209,-47.066 82.209,-38.6068"/>
<polygon fill="#191970" stroke="#191970" points="78.7091,-65.462 82.209,-75.462 85.7091,-65.4621 78.7091,-65.462"/>
</g>
</g>
</svg>
