<?xml version="1.0" encoding="UTF-8" standalone="no"?>
<!DOCTYPE svg PUBLIC "-//W3C//DTD SVG 1.1//EN"
 "http://www.w3.org/Graphics/SVG/1.1/DTD/svg11.dtd">
<!-- Generated by graphviz version 2.40.1 (20161225.0304)
 -->
<!-- Title: MeshWorker::Assembler::SystemSimple&lt; MatrixType, VectorType &gt; Pages: 1 -->
<svg width="348pt" height="84pt"
 viewBox="0.00 0.00 348.08 84.00" xmlns="http://www.w3.org/2000/svg" xmlns:xlink="http://www.w3.org/1999/xlink">
<g id="graph0" class="graph" transform="scale(1 1) rotate(0) translate(4 80)">
<title>MeshWorker::Assembler::SystemSimple&lt; MatrixType, VectorType &gt;</title>
<polygon fill="#ffffff" stroke="transparent" points="-4,4 -4,-80 344.0752,-80 344.0752,4 -4,4"/>
<!-- Node0 -->
<g id="node1" class="node">
<title>Node0</title>
<polygon fill="#bfbfbf" stroke="#000000" points="194.3096,-18.5 194.3096,-56.5 340.0752,-56.5 340.0752,-18.5 194.3096,-18.5"/>
<text text-anchor="start" x="202.3096" y="-44.5" font-family="Helvetica,sans-Serif" font-size="10.00" fill="#000000">MeshWorker::Assembler</text>
<text text-anchor="start" x="202.3096" y="-34.5" font-family="Helvetica,sans-Serif" font-size="10.00" fill="#000000">::SystemSimple&lt; MatrixType,</text>
<text text-anchor="middle" x="267.1924" y="-24.5" font-family="Helvetica,sans-Serif" font-size="10.00" fill="#000000"> VectorType &gt;</text>
</g>
<!-- Node1 -->
<g id="node2" class="node">
<title>Node1</title>
<g id="a_node2"><a xlink:href="classMeshWorker_1_1Assembler_1_1MatrixSimple.html" target="_top" xlink:title="MeshWorker::Assembler\l::MatrixSimple\&lt; MatrixType \&gt;">
<polygon fill="#ffffff" stroke="#000000" points="6.4111,-47.5 6.4111,-75.5 151.8984,-75.5 151.8984,-47.5 6.4111,-47.5"/>
<text text-anchor="start" x="14.4111" y="-63.5" font-family="Helvetica,sans-Serif" font-size="10.00" fill="#000000">MeshWorker::Assembler</text>
<text text-anchor="middle" x="79.1548" y="-53.5" font-family="Helvetica,sans-Serif" font-size="10.00" fill="#000000">::MatrixSimple&lt; MatrixType &gt;</text>
</a>
</g>
</g>
<!-- Node1&#45;&gt;Node0 -->
<g id="edge1" class="edge">
<title>Node1&#45;&gt;Node0</title>
<path fill="none" stroke="#8b1a1a" d="M162.2696,-50.8917C172.9309,-49.531 183.7818,-48.146 194.264,-46.8081"/>
<polygon fill="#8b1a1a" stroke="#8b1a1a" points="161.6005,-47.4486 152.1242,-52.1866 162.4868,-54.3923 161.6005,-47.4486"/>
</g>
<!-- Node2 -->
<g id="node3" class="node">
<title>Node2</title>
<g id="a_node3"><a xlink:href="classMeshWorker_1_1Assembler_1_1ResidualSimple.html" target="_top" xlink:title="MeshWorker::Assembler\l::ResidualSimple\&lt; VectorType \&gt;">
<polygon fill="#ffffff" stroke="#000000" points="0,-.5 0,-28.5 158.3096,-28.5 158.3096,-.5 0,-.5"/>
<text text-anchor="start" x="8" y="-16.5" font-family="Helvetica,sans-Serif" font-size="10.00" fill="#000000">MeshWorker::Assembler</text>
<text text-anchor="middle" x="79.1548" y="-6.5" font-family="Helvetica,sans-Serif" font-size="10.00" fill="#000000">::ResidualSimple&lt; VectorType &gt;</text>
</a>
</g>
</g>
<!-- Node2&#45;&gt;Node0 -->
<g id="edge2" class="edge">
<title>Node2&#45;&gt;Node0</title>
<path fill="none" stroke="#8b1a1a" d="M168.4068,-25.4169C177.0053,-26.4687 185.6572,-27.5269 194.0736,-28.5564"/>
<polygon fill="#8b1a1a" stroke="#8b1a1a" points="168.7057,-21.9275 158.3547,-24.1874 167.8557,-28.8757 168.7057,-21.9275"/>
</g>
</g>
</svg>
