<?xml version="1.0" encoding="UTF-8" standalone="no"?>
<!DOCTYPE svg PUBLIC "-//W3C//DTD SVG 1.1//EN"
 "http://www.w3.org/Graphics/SVG/1.1/DTD/svg11.dtd">
<!-- Generated by graphviz version 2.40.1 (20161225.0304)
 -->
<!-- Title: internal::DataOut::DataEntry&lt; DoFHandlerType, VectorType &gt; Pages: 1 -->
<svg width="184pt" height="112pt"
 viewBox="0.00 0.00 184.09 112.00" xmlns="http://www.w3.org/2000/svg" xmlns:xlink="http://www.w3.org/1999/xlink">
<g id="graph0" class="graph" transform="scale(1 1) rotate(0) translate(4 108)">
<title>internal::DataOut::DataEntry&lt; DoFHandlerType, VectorType &gt;</title>
<polygon fill="#ffffff" stroke="transparent" points="-4,4 -4,-108 180.0879,-108 180.0879,4 -4,4"/>
<!-- Node0 -->
<g id="node1" class="node">
<title>Node0</title>
<polygon fill="#bfbfbf" stroke="#000000" points="14.3164,-.5 14.3164,-38.5 161.7715,-38.5 161.7715,-.5 14.3164,-.5"/>
<text text-anchor="start" x="22.3164" y="-26.5" font-family="Helvetica,sans-Serif" font-size="10.00" fill="#000000">internal::DataOut::</text>
<text text-anchor="start" x="22.3164" y="-16.5" font-family="Helvetica,sans-Serif" font-size="10.00" fill="#000000">DataEntry&lt; DoFHandlerType,</text>
<text text-anchor="middle" x="88.0439" y="-6.5" font-family="Helvetica,sans-Serif" font-size="10.00" fill="#000000"> VectorType &gt;</text>
</g>
<!-- Node1 -->
<g id="node2" class="node">
<title>Node1</title>
<g id="a_node2"><a xlink:href="classinternal_1_1DataOut_1_1DataEntryBase.html" target="_top" xlink:title="internal::DataOut::\lDataEntryBase\&lt; DoFHandlerType \&gt;">
<polygon fill="#ffffff" stroke="#000000" points="0,-75.5 0,-103.5 176.0879,-103.5 176.0879,-75.5 0,-75.5"/>
<text text-anchor="start" x="8" y="-91.5" font-family="Helvetica,sans-Serif" font-size="10.00" fill="#000000">internal::DataOut::</text>
<text text-anchor="middle" x="88.0439" y="-81.5" font-family="Helvetica,sans-Serif" font-size="10.00" fill="#000000">DataEntryBase&lt; DoFHandlerType &gt;</text>
</a>
</g>
</g>
<!-- Node1&#45;&gt;Node0 -->
<g id="edge1" class="edge">
<title>Node1&#45;&gt;Node0</title>
<path fill="none" stroke="#191970" d="M88.0439,-65.0725C88.0439,-56.4275 88.0439,-46.8328 88.0439,-38.6857"/>
<polygon fill="#191970" stroke="#191970" points="84.544,-65.3344 88.0439,-75.3345 91.544,-65.3345 84.544,-65.3344"/>
</g>
</g>
</svg>
