<?xml version="1.0" encoding="UTF-8" standalone="no"?>
<!DOCTYPE svg PUBLIC "-//W3C//DTD SVG 1.1//EN"
 "http://www.w3.org/Graphics/SVG/1.1/DTD/svg11.dtd">
<!-- Generated by graphviz version 2.40.1 (20161225.0304)
 -->
<!-- Title: FE_Nedelec&lt; dim &gt; Pages: 1 -->
<svg width="294pt" height="319pt"
 viewBox="0.00 0.00 293.96 319.00" xmlns="http://www.w3.org/2000/svg" xmlns:xlink="http://www.w3.org/1999/xlink">
<g id="graph0" class="graph" transform="scale(1 1) rotate(0) translate(4 315)">
<title>FE_Nedelec&lt; dim &gt;</title>
<polygon fill="#ffffff" stroke="transparent" points="-4,4 -4,-315 289.9565,-315 289.9565,4 -4,4"/>
<!-- Node0 -->
<g id="node1" class="node">
<title>Node0</title>
<polygon fill="#bfbfbf" stroke="#000000" points="88.479,-.5 88.479,-18.5 192.8579,-18.5 192.8579,-.5 88.479,-.5"/>
<text text-anchor="middle" x="140.6685" y="-6.5" font-family="Helvetica,sans-Serif" font-size="10.00" fill="#000000">FE_Nedelec&lt; dim &gt;</text>
</g>
<!-- Node1 -->
<g id="node2" class="node">
<title>Node1</title>
<g id="a_node2"><a xlink:href="classFE__PolyTensor.html" target="_top" xlink:title="FE_PolyTensor\&lt; Polynomials\lNedelec\&lt; dim \&gt;, dim \&gt;">
<polygon fill="#ffffff" stroke="#000000" points="67.5,-56.5 67.5,-84.5 213.8369,-84.5 213.8369,-56.5 67.5,-56.5"/>
<text text-anchor="start" x="75.5" y="-72.5" font-family="Helvetica,sans-Serif" font-size="10.00" fill="#000000">FE_PolyTensor&lt; Polynomials</text>
<text text-anchor="middle" x="140.6685" y="-62.5" font-family="Helvetica,sans-Serif" font-size="10.00" fill="#000000">Nedelec&lt; dim &gt;, dim &gt;</text>
</a>
</g>
</g>
<!-- Node1&#45;&gt;Node0 -->
<g id="edge1" class="edge">
<title>Node1&#45;&gt;Node0</title>
<path fill="none" stroke="#191970" d="M140.6685,-46.1001C140.6685,-36.5157 140.6685,-26.0935 140.6685,-18.831"/>
<polygon fill="#191970" stroke="#191970" points="137.1686,-46.352 140.6685,-56.3521 144.1686,-46.3521 137.1686,-46.352"/>
</g>
<!-- Node2 -->
<g id="node3" class="node">
<title>Node2</title>
<g id="a_node3"><a xlink:href="classFiniteElement.html" target="_top" xlink:title="FiniteElement\&lt; dim,\l dim \&gt;">
<polygon fill="#ffffff" stroke="#000000" points="159.3447,-141.5 159.3447,-169.5 263.9922,-169.5 263.9922,-141.5 159.3447,-141.5"/>
<text text-anchor="start" x="167.3447" y="-157.5" font-family="Helvetica,sans-Serif" font-size="10.00" fill="#000000">FiniteElement&lt; dim,</text>
<text text-anchor="middle" x="211.6685" y="-147.5" font-family="Helvetica,sans-Serif" font-size="10.00" fill="#000000"> dim &gt;</text>
</a>
</g>
</g>
<!-- Node2&#45;&gt;Node1 -->
<g id="edge2" class="edge">
<title>Node2&#45;&gt;Node1</title>
<path fill="none" stroke="#191970" d="M206.0745,-131.5181C202.9801,-121.9214 198.3647,-111.2182 191.6685,-103 185.6996,-95.6746 177.6242,-89.483 169.6612,-84.5334"/>
<polygon fill="#191970" stroke="#191970" points="202.7617,-132.6649 208.8617,-141.3274 209.4951,-130.7515 202.7617,-132.6649"/>
</g>
<!-- Node3 -->
<g id="node4" class="node">
<title>Node3</title>
<g id="a_node4"><a xlink:href="classSubscriptor.html" target="_top" xlink:title="Subscriptor">
<polygon fill="#ffffff" stroke="#000000" points="219.3804,-287.5 219.3804,-305.5 285.9565,-305.5 285.9565,-287.5 219.3804,-287.5"/>
<text text-anchor="middle" x="252.6685" y="-293.5" font-family="Helvetica,sans-Serif" font-size="10.00" fill="#000000">Subscriptor</text>
</a>
</g>
</g>
<!-- Node3&#45;&gt;Node2 -->
<g id="edge3" class="edge">
<title>Node3&#45;&gt;Node2</title>
<path fill="none" stroke="#191970" d="M247.1843,-277.6398C238.8802,-249.0819 223.2962,-195.4882 215.8444,-169.8613"/>
<polygon fill="#191970" stroke="#191970" points="243.8253,-278.6236 249.9783,-287.2486 250.5469,-276.669 243.8253,-278.6236"/>
</g>
<!-- Node5 -->
<g id="node6" class="node">
<title>Node5</title>
<g id="a_node6"><a xlink:href="classFiniteElement.html" target="_top" xlink:title="FiniteElement\&lt; dim,\l spacedim \&gt;">
<polygon fill="#ffffff" stroke="#000000" points="73.3447,-216.5 73.3447,-244.5 177.9922,-244.5 177.9922,-216.5 73.3447,-216.5"/>
<text text-anchor="start" x="81.3447" y="-232.5" font-family="Helvetica,sans-Serif" font-size="10.00" fill="#000000">FiniteElement&lt; dim,</text>
<text text-anchor="middle" x="125.6685" y="-222.5" font-family="Helvetica,sans-Serif" font-size="10.00" fill="#000000"> spacedim &gt;</text>
</a>
</g>
</g>
<!-- Node3&#45;&gt;Node5 -->
<g id="edge6" class="edge">
<title>Node3&#45;&gt;Node5</title>
<path fill="none" stroke="#191970" d="M226.3937,-282.8454C204.9674,-271.7105 174.8005,-256.0332 153.0741,-244.7423"/>
<polygon fill="#191970" stroke="#191970" points="224.7886,-285.9557 235.2759,-287.4614 228.0166,-279.7443 224.7886,-285.9557"/>
</g>
<!-- Node4 -->
<g id="node5" class="node">
<title>Node4</title>
<g id="a_node5"><a xlink:href="classFiniteElementData.html" target="_top" xlink:title="FiniteElementData\&lt;\l dim \&gt;">
<polygon fill="#ffffff" stroke="#000000" points="84.6182,-282.5 84.6182,-310.5 188.7188,-310.5 188.7188,-282.5 84.6182,-282.5"/>
<text text-anchor="start" x="92.6182" y="-298.5" font-family="Helvetica,sans-Serif" font-size="10.00" fill="#000000">FiniteElementData&lt;</text>
<text text-anchor="middle" x="136.6685" y="-288.5" font-family="Helvetica,sans-Serif" font-size="10.00" fill="#000000"> dim &gt;</text>
</a>
</g>
</g>
<!-- Node4&#45;&gt;Node2 -->
<g id="edge4" class="edge">
<title>Node4&#45;&gt;Node2</title>
<path fill="none" stroke="#191970" d="M161.6111,-275.6485C170.6241,-266.9841 180.1692,-256.3116 186.6685,-245 200.6532,-220.6601 207.1768,-188.0605 209.9212,-169.6736"/>
<polygon fill="#191970" stroke="#191970" points="159.235,-273.0786 154.2439,-282.4242 163.9736,-278.2309 159.235,-273.0786"/>
</g>
<!-- Node4&#45;&gt;Node5 -->
<g id="edge7" class="edge">
<title>Node4&#45;&gt;Node5</title>
<path fill="none" stroke="#191970" d="M132.5905,-272.0322C131.0619,-262.8606 129.3759,-252.7449 128.0506,-244.7931"/>
<polygon fill="#191970" stroke="#191970" points="129.1852,-272.8905 134.2816,-282.179 136.0899,-271.7396 129.1852,-272.8905"/>
</g>
<!-- Node5&#45;&gt;Node2 -->
<g id="edge5" class="edge">
<title>Node5&#45;&gt;Node2</title>
<path fill="none" stroke="#ffa500" stroke-dasharray="5,2" d="M126.1881,-206.5176C127.3604,-199.9437 129.6385,-193.2029 133.8706,-188 140.521,-179.824 149.5845,-173.6763 159.1777,-169.0625"/>
<polygon fill="#ffa500" stroke="#ffa500" points="122.7073,-206.1527 125.1345,-216.4657 129.6684,-206.89 122.7073,-206.1527"/>
<text text-anchor="middle" x="163.5674" y="-190" font-family="Helvetica,sans-Serif" font-size="10.00" fill="#000000"> &lt; dim, dim &gt;</text>
</g>
<!-- Node6 -->
<g id="node7" class="node">
<title>Node6</title>
<g id="a_node7"><a xlink:href="classFE__PolyTensor.html" target="_top" xlink:title="FE_PolyTensor\&lt; Polynomial\lType, dim, spacedim \&gt;">
<polygon fill="#ffffff" stroke="#000000" points="0,-141.5 0,-169.5 141.3369,-169.5 141.3369,-141.5 0,-141.5"/>
<text text-anchor="start" x="8" y="-157.5" font-family="Helvetica,sans-Serif" font-size="10.00" fill="#000000">FE_PolyTensor&lt; Polynomial</text>
<text text-anchor="middle" x="70.6685" y="-147.5" font-family="Helvetica,sans-Serif" font-size="10.00" fill="#000000">Type, dim, spacedim &gt;</text>
</a>
</g>
</g>
<!-- Node5&#45;&gt;Node6 -->
<g id="edge9" class="edge">
<title>Node5&#45;&gt;Node6</title>
<path fill="none" stroke="#191970" d="M109.3427,-208.2376C100.1476,-195.6988 88.9441,-180.4213 80.9671,-169.5437"/>
<polygon fill="#191970" stroke="#191970" points="106.5873,-210.3988 115.3234,-216.3931 112.2321,-206.2592 106.5873,-210.3988"/>
</g>
<!-- Node6&#45;&gt;Node1 -->
<g id="edge8" class="edge">
<title>Node6&#45;&gt;Node1</title>
<path fill="none" stroke="#ffa500" stroke-dasharray="5,2" d="M75.7611,-131.5226C78.6659,-121.9266 83.085,-111.2228 89.6714,-103 95.5129,-95.7072 103.4565,-89.5571 111.3345,-84.6365"/>
<polygon fill="#ffa500" stroke="#ffa500" points="72.3403,-130.7686 73.1724,-141.3307 79.1085,-132.555 72.3403,-130.7686"/>
<text text-anchor="start" x="90.6685" y="-115" font-family="Helvetica,sans-Serif" font-size="10.00" fill="#000000"> &lt; PolynomialsNedelec</text>
<text text-anchor="middle" x="141.667" y="-105" font-family="Helvetica,sans-Serif" font-size="10.00" fill="#000000">&lt; dim &gt;, dim &gt;</text>
</g>
</g>
</svg>
