<?xml version="1.0" encoding="UTF-8" standalone="no"?>
<!DOCTYPE svg PUBLIC "-//W3C//DTD SVG 1.1//EN"
 "http://www.w3.org/Graphics/SVG/1.1/DTD/svg11.dtd">
<!-- Generated by graphviz version 2.40.1 (20161225.0304)
 -->
<!-- Title: PolynomialsBernstein&lt; number &gt; Pages: 1 -->
<svg width="132pt" height="157pt"
 viewBox="0.00 0.00 132.38 157.00" xmlns="http://www.w3.org/2000/svg" xmlns:xlink="http://www.w3.org/1999/xlink">
<g id="graph0" class="graph" transform="scale(1 1) rotate(0) translate(4 153)">
<title>PolynomialsBernstein&lt; number &gt;</title>
<polygon fill="#ffffff" stroke="transparent" points="-4,4 -4,-153 128.3789,-153 128.3789,4 -4,4"/>
<!-- Node0 -->
<g id="node1" class="node">
<title>Node0</title>
<polygon fill="#bfbfbf" stroke="#000000" points="6.1108,-.5 6.1108,-28.5 118.2681,-28.5 118.2681,-.5 6.1108,-.5"/>
<text text-anchor="start" x="14.1108" y="-16.5" font-family="Helvetica,sans-Serif" font-size="10.00" fill="#000000">PolynomialsBernstein</text>
<text text-anchor="middle" x="62.1895" y="-6.5" font-family="Helvetica,sans-Serif" font-size="10.00" fill="#000000">&lt; number &gt;</text>
</g>
<!-- Node1 -->
<g id="node2" class="node">
<title>Node1</title>
<g id="a_node2"><a xlink:href="classPolynomials_1_1Polynomial.html" target="_top" xlink:title="Polynomials::Polynomial\l\&lt; number \&gt;">
<polygon fill="#ffffff" stroke="#000000" points="0,-65.5 0,-93.5 124.3789,-93.5 124.3789,-65.5 0,-65.5"/>
<text text-anchor="start" x="8" y="-81.5" font-family="Helvetica,sans-Serif" font-size="10.00" fill="#000000">Polynomials::Polynomial</text>
<text text-anchor="middle" x="62.1895" y="-71.5" font-family="Helvetica,sans-Serif" font-size="10.00" fill="#000000">&lt; number &gt;</text>
</a>
</g>
</g>
<!-- Node1&#45;&gt;Node0 -->
<g id="edge1" class="edge">
<title>Node1&#45;&gt;Node0</title>
<path fill="none" stroke="#191970" d="M62.1895,-55.1081C62.1895,-46.1539 62.1895,-36.3227 62.1895,-28.5765"/>
<polygon fill="#191970" stroke="#191970" points="58.6896,-55.3959 62.1895,-65.396 65.6896,-55.396 58.6896,-55.3959"/>
</g>
<!-- Node2 -->
<g id="node3" class="node">
<title>Node2</title>
<g id="a_node3"><a xlink:href="classSubscriptor.html" target="_top" xlink:title="Subscriptor">
<polygon fill="#ffffff" stroke="#000000" points="28.9014,-130.5 28.9014,-148.5 95.4775,-148.5 95.4775,-130.5 28.9014,-130.5"/>
<text text-anchor="middle" x="62.1895" y="-136.5" font-family="Helvetica,sans-Serif" font-size="10.00" fill="#000000">Subscriptor</text>
</a>
</g>
</g>
<!-- Node2&#45;&gt;Node1 -->
<g id="edge2" class="edge">
<title>Node2&#45;&gt;Node1</title>
<path fill="none" stroke="#191970" d="M62.1895,-120.1865C62.1895,-111.6283 62.1895,-101.7354 62.1895,-93.8477"/>
<polygon fill="#191970" stroke="#191970" points="58.6896,-120.3873 62.1895,-130.3873 65.6896,-120.3873 58.6896,-120.3873"/>
</g>
</g>
</svg>
