<?xml version="1.0" encoding="UTF-8" standalone="no"?>
<!DOCTYPE svg PUBLIC "-//W3C//DTD SVG 1.1//EN"
 "http://www.w3.org/Graphics/SVG/1.1/DTD/svg11.dtd">
<!-- Generated by graphviz version 2.40.1 (20161225.0304)
 -->
<!-- Title: PreconditionBlockSSOR&lt; MatrixType, inverse_type &gt; Pages: 1 -->
<svg width="276pt" height="340pt"
 viewBox="0.00 0.00 275.91 340.00" xmlns="http://www.w3.org/2000/svg" xmlns:xlink="http://www.w3.org/1999/xlink">
<g id="graph0" class="graph" transform="scale(1 1) rotate(0) translate(4 336)">
<title>PreconditionBlockSSOR&lt; MatrixType, inverse_type &gt;</title>
<polygon fill="#ffffff" stroke="transparent" points="-4,4 -4,-336 271.9058,-336 271.9058,4 -4,4"/>
<!-- Node0 -->
<g id="node1" class="node">
<title>Node0</title>
<polygon fill="#bfbfbf" stroke="#000000" points="0,-.5 0,-38.5 124.3838,-38.5 124.3838,-.5 0,-.5"/>
<text text-anchor="start" x="8" y="-26.5" font-family="Helvetica,sans-Serif" font-size="10.00" fill="#000000">PreconditionBlockSSOR</text>
<text text-anchor="start" x="8" y="-16.5" font-family="Helvetica,sans-Serif" font-size="10.00" fill="#000000">&lt; MatrixType, inverse</text>
<text text-anchor="middle" x="62.1919" y="-6.5" font-family="Helvetica,sans-Serif" font-size="10.00" fill="#000000">_type &gt;</text>
</g>
<!-- Node1 -->
<g id="node2" class="node">
<title>Node1</title>
<g id="a_node2"><a xlink:href="classSubscriptor.html" target="_top" xlink:title="Subscriptor">
<polygon fill="#ffffff" stroke="#000000" points="46.9038,-233.5 46.9038,-251.5 113.48,-251.5 113.48,-233.5 46.9038,-233.5"/>
<text text-anchor="middle" x="80.1919" y="-239.5" font-family="Helvetica,sans-Serif" font-size="10.00" fill="#000000">Subscriptor</text>
</a>
</g>
</g>
<!-- Node1&#45;&gt;Node0 -->
<g id="edge1" class="edge">
<title>Node1&#45;&gt;Node0</title>
<path fill="none" stroke="#191970" d="M78.4537,-223.2551C76.2175,-198.2979 72.2565,-153.4117 69.1919,-115 67.0765,-88.4853 64.871,-57.8093 63.5143,-38.5309"/>
<polygon fill="#191970" stroke="#191970" points="74.9686,-223.5784 79.3504,-233.2247 81.9405,-222.9513 74.9686,-223.5784"/>
</g>
<!-- Node2 -->
<g id="node3" class="node">
<title>Node2</title>
<g id="a_node3"><a xlink:href="classPreconditionBlockSOR.html" target="_top" xlink:title="PreconditionBlockSOR\l\&lt; MatrixType, inverse\l_type \&gt;">
<polygon fill="#ffffff" stroke="#000000" points="78.335,-76.5 78.335,-114.5 196.0488,-114.5 196.0488,-76.5 78.335,-76.5"/>
<text text-anchor="start" x="86.335" y="-102.5" font-family="Helvetica,sans-Serif" font-size="10.00" fill="#000000">PreconditionBlockSOR</text>
<text text-anchor="start" x="86.335" y="-92.5" font-family="Helvetica,sans-Serif" font-size="10.00" fill="#000000">&lt; MatrixType, inverse</text>
<text text-anchor="middle" x="137.1919" y="-82.5" font-family="Helvetica,sans-Serif" font-size="10.00" fill="#000000">_type &gt;</text>
</a>
</g>
</g>
<!-- Node1&#45;&gt;Node2 -->
<g id="edge3" class="edge">
<title>Node1&#45;&gt;Node2</title>
<path fill="none" stroke="#191970" d="M84.7053,-223.4354C89.3755,-204.8569 97.3607,-175.9832 107.1919,-152 112.4574,-139.1548 119.7333,-125.3831 125.801,-114.6522"/>
<polygon fill="#191970" stroke="#191970" points="81.2678,-222.7585 82.2943,-233.3035 88.0678,-224.42 81.2678,-222.7585"/>
</g>
<!-- Node3 -->
<g id="node4" class="node">
<title>Node3</title>
<g id="a_node4"><a xlink:href="classPreconditionBlock.html" target="_top" xlink:title="PreconditionBlock\&lt;\l MatrixType, inverse\l_type \&gt;">
<polygon fill="#ffffff" stroke="#000000" points="116.4531,-152.5 116.4531,-190.5 221.9307,-190.5 221.9307,-152.5 116.4531,-152.5"/>
<text text-anchor="start" x="124.4531" y="-178.5" font-family="Helvetica,sans-Serif" font-size="10.00" fill="#000000">PreconditionBlock&lt;</text>
<text text-anchor="start" x="124.4531" y="-168.5" font-family="Helvetica,sans-Serif" font-size="10.00" fill="#000000"> MatrixType, inverse</text>
<text text-anchor="middle" x="169.1919" y="-158.5" font-family="Helvetica,sans-Serif" font-size="10.00" fill="#000000">_type &gt;</text>
</a>
</g>
</g>
<!-- Node1&#45;&gt;Node3 -->
<g id="edge5" class="edge">
<title>Node1&#45;&gt;Node3</title>
<path fill="none" stroke="#191970" d="M99.8881,-226.7873C113.2405,-216.1354 130.9706,-201.9911 145.1549,-190.6756"/>
<polygon fill="#191970" stroke="#191970" points="97.4617,-224.2457 91.8271,-233.218 101.8271,-229.7178 97.4617,-224.2457"/>
</g>
<!-- Node2&#45;&gt;Node0 -->
<g id="edge2" class="edge">
<title>Node2&#45;&gt;Node0</title>
<path fill="none" stroke="#8b1a1a" d="M111.0119,-68.9709C101.1657,-58.9935 90.1707,-47.8518 81.1115,-38.6719"/>
<polygon fill="#8b1a1a" stroke="#8b1a1a" points="108.7509,-71.6627 118.2662,-76.322 113.7333,-66.7458 108.7509,-71.6627"/>
</g>
<!-- Node3&#45;&gt;Node2 -->
<g id="edge4" class="edge">
<title>Node3&#45;&gt;Node2</title>
<path fill="none" stroke="#006400" d="M157.1503,-142.9013C153.1807,-133.4734 148.8642,-123.2218 145.2643,-114.6719"/>
<polygon fill="#006400" stroke="#006400" points="154.0106,-144.4639 161.1169,-152.322 160.462,-141.7474 154.0106,-144.4639"/>
</g>
<!-- Node4 -->
<g id="node5" class="node">
<title>Node4</title>
<g id="a_node5"><a xlink:href="classPreconditionBlockBase.html" target="_top" xlink:title="PreconditionBlockBase\l\&lt; inverse_type \&gt;">
<polygon fill="#ffffff" stroke="#000000" points="131.7734,-228.5 131.7734,-256.5 250.6104,-256.5 250.6104,-228.5 131.7734,-228.5"/>
<text text-anchor="start" x="139.7734" y="-244.5" font-family="Helvetica,sans-Serif" font-size="10.00" fill="#000000">PreconditionBlockBase</text>
<text text-anchor="middle" x="191.1919" y="-234.5" font-family="Helvetica,sans-Serif" font-size="10.00" fill="#000000">&lt; inverse_type &gt;</text>
</a>
</g>
</g>
<!-- Node4&#45;&gt;Node3 -->
<g id="edge6" class="edge">
<title>Node4&#45;&gt;Node3</title>
<path fill="none" stroke="#006400" d="M183.8427,-218.7821C181.0037,-209.6198 177.7987,-199.2766 175.1119,-190.6055"/>
<polygon fill="#006400" stroke="#006400" points="180.5424,-219.9567 186.8454,-228.4727 187.2288,-217.8848 180.5424,-219.9567"/>
</g>
<!-- Node5 -->
<g id="node6" class="node">
<title>Node5</title>
<g id="a_node6"><a xlink:href="classPreconditionBlockBase.html" target="_top" xlink:title="PreconditionBlockBase\l\&lt; number \&gt;">
<polygon fill="#ffffff" stroke="#000000" points="131.7734,-303.5 131.7734,-331.5 250.6104,-331.5 250.6104,-303.5 131.7734,-303.5"/>
<text text-anchor="start" x="139.7734" y="-319.5" font-family="Helvetica,sans-Serif" font-size="10.00" fill="#000000">PreconditionBlockBase</text>
<text text-anchor="middle" x="191.1919" y="-309.5" font-family="Helvetica,sans-Serif" font-size="10.00" fill="#000000">&lt; number &gt;</text>
</a>
</g>
</g>
<!-- Node5&#45;&gt;Node4 -->
<g id="edge7" class="edge">
<title>Node5&#45;&gt;Node4</title>
<path fill="none" stroke="#ffa500" stroke-dasharray="5,2" d="M191.1919,-293.0415C191.1919,-280.9507 191.1919,-266.7938 191.1919,-256.5437"/>
<polygon fill="#ffa500" stroke="#ffa500" points="187.692,-293.393 191.1919,-303.3931 194.692,-293.3931 187.692,-293.393"/>
<text text-anchor="middle" x="229.5488" y="-277" font-family="Helvetica,sans-Serif" font-size="10.00" fill="#000000"> &lt; inverse_type &gt;</text>
</g>
</g>
</svg>
