<?xml version="1.0" encoding="UTF-8" standalone="no"?>
<!DOCTYPE svg PUBLIC "-//W3C//DTD SVG 1.1//EN"
 "http://www.w3.org/Graphics/SVG/1.1/DTD/svg11.dtd">
<!-- Generated by graphviz version 2.40.1 (20161225.0304)
 -->
<!-- Title: MappingQEulerian&lt; dim, VectorType, spacedim &gt;::MappingQEulerianGeneric Pages: 1 -->
<svg width="156pt" height="222pt"
 viewBox="0.00 0.00 156.02 222.00" xmlns="http://www.w3.org/2000/svg" xmlns:xlink="http://www.w3.org/1999/xlink">
<g id="graph0" class="graph" transform="scale(1 1) rotate(0) translate(4 218)">
<title>MappingQEulerian&lt; dim, VectorType, spacedim &gt;::MappingQEulerianGeneric</title>
<polygon fill="#ffffff" stroke="transparent" points="-4,4 -4,-218 152.0166,-218 152.0166,4 -4,4"/>
<!-- Node0 -->
<g id="node1" class="node">
<title>Node0</title>
<polygon fill="#bfbfbf" stroke="#000000" points="0,-.5 0,-38.5 148.0166,-38.5 148.0166,-.5 0,-.5"/>
<text text-anchor="start" x="8" y="-26.5" font-family="Helvetica,sans-Serif" font-size="10.00" fill="#000000">MappingQEulerian&lt; dim,</text>
<text text-anchor="start" x="8" y="-16.5" font-family="Helvetica,sans-Serif" font-size="10.00" fill="#000000"> VectorType, spacedim</text>
<text text-anchor="middle" x="74.0083" y="-6.5" font-family="Helvetica,sans-Serif" font-size="10.00" fill="#000000"> &gt;::MappingQEulerianGeneric</text>
</g>
<!-- Node1 -->
<g id="node2" class="node">
<title>Node1</title>
<g id="a_node2"><a xlink:href="classMappingQGeneric.html" target="_top" xlink:title="MappingQGeneric\&lt; dim,\l spacedim \&gt;">
<polygon fill="#ffffff" stroke="#000000" points="11.6772,-75.5 11.6772,-103.5 136.3394,-103.5 136.3394,-75.5 11.6772,-75.5"/>
<text text-anchor="start" x="19.6772" y="-91.5" font-family="Helvetica,sans-Serif" font-size="10.00" fill="#000000">MappingQGeneric&lt; dim,</text>
<text text-anchor="middle" x="74.0083" y="-81.5" font-family="Helvetica,sans-Serif" font-size="10.00" fill="#000000"> spacedim &gt;</text>
</a>
</g>
</g>
<!-- Node1&#45;&gt;Node0 -->
<g id="edge1" class="edge">
<title>Node1&#45;&gt;Node0</title>
<path fill="none" stroke="#191970" d="M74.0083,-65.0725C74.0083,-56.4275 74.0083,-46.8328 74.0083,-38.6857"/>
<polygon fill="#191970" stroke="#191970" points="70.5084,-65.3344 74.0083,-75.3345 77.5084,-65.3345 70.5084,-65.3344"/>
</g>
<!-- Node2 -->
<g id="node3" class="node">
<title>Node2</title>
<g id="a_node3"><a xlink:href="classMapping.html" target="_top" xlink:title="Abstract base class for mapping classes. ">
<polygon fill="#ffffff" stroke="#000000" points="5.9766,-140.5 5.9766,-158.5 142.04,-158.5 142.04,-140.5 5.9766,-140.5"/>
<text text-anchor="middle" x="74.0083" y="-146.5" font-family="Helvetica,sans-Serif" font-size="10.00" fill="#000000">Mapping&lt; dim, spacedim &gt;</text>
</a>
</g>
</g>
<!-- Node2&#45;&gt;Node1 -->
<g id="edge2" class="edge">
<title>Node2&#45;&gt;Node1</title>
<path fill="none" stroke="#191970" d="M74.0083,-130.1865C74.0083,-121.6283 74.0083,-111.7354 74.0083,-103.8477"/>
<polygon fill="#191970" stroke="#191970" points="70.5084,-130.3873 74.0083,-140.3873 77.5084,-130.3873 70.5084,-130.3873"/>
</g>
<!-- Node3 -->
<g id="node4" class="node">
<title>Node3</title>
<g id="a_node4"><a xlink:href="classSubscriptor.html" target="_top" xlink:title="Subscriptor">
<polygon fill="#ffffff" stroke="#000000" points="40.7202,-195.5 40.7202,-213.5 107.2964,-213.5 107.2964,-195.5 40.7202,-195.5"/>
<text text-anchor="middle" x="74.0083" y="-201.5" font-family="Helvetica,sans-Serif" font-size="10.00" fill="#000000">Subscriptor</text>
</a>
</g>
</g>
<!-- Node3&#45;&gt;Node2 -->
<g id="edge3" class="edge">
<title>Node3&#45;&gt;Node2</title>
<path fill="none" stroke="#191970" d="M74.0083,-185.383C74.0083,-176.3738 74.0083,-166.0373 74.0083,-158.7795"/>
<polygon fill="#191970" stroke="#191970" points="70.5084,-185.4178 74.0083,-195.4179 77.5084,-185.4179 70.5084,-185.4178"/>
</g>
</g>
</svg>
