<?xml version="1.0" encoding="UTF-8" standalone="no"?>
<!DOCTYPE svg PUBLIC "-//W3C//DTD SVG 1.1//EN"
 "http://www.w3.org/Graphics/SVG/1.1/DTD/svg11.dtd">
<!-- Generated by graphviz version 2.40.1 (20161225.0304)
 -->
<!-- Title: Manifold&lt; dim, spacedim &gt; Pages: 1 -->
<svg width="1476pt" height="862pt"
 viewBox="0.00 0.00 1476.42 862.00" xmlns="http://www.w3.org/2000/svg" xmlns:xlink="http://www.w3.org/1999/xlink">
<g id="graph0" class="graph" transform="scale(1 1) rotate(0) translate(4 858)">
<title>Manifold&lt; dim, spacedim &gt;</title>
<polygon fill="#ffffff" stroke="transparent" points="-4,4 -4,-858 1472.4189,-858 1472.4189,4 -4,4"/>
<!-- Node0 -->
<g id="node1" class="node">
<title>Node0</title>
<polygon fill="#bfbfbf" stroke="#000000" points="103.5762,-318.5 103.5762,-336.5 239.0781,-336.5 239.0781,-318.5 103.5762,-318.5"/>
<text text-anchor="middle" x="171.3271" y="-324.5" font-family="Helvetica,sans-Serif" font-size="10.00" fill="#000000">Manifold&lt; dim, spacedim &gt;</text>
</g>
<!-- Node2 -->
<g id="node3" class="node">
<title>Node2</title>
<g id="a_node3"><a xlink:href="classChartManifold.html" target="_top" xlink:title="ChartManifold\&lt; dim,\l spacedim \&gt;">
<polygon fill="#ffffff" stroke="#000000" points="334.4043,-532.5 334.4043,-560.5 440.165,-560.5 440.165,-532.5 334.4043,-532.5"/>
<text text-anchor="start" x="342.4043" y="-548.5" font-family="Helvetica,sans-Serif" font-size="10.00" fill="#000000">ChartManifold&lt; dim,</text>
<text text-anchor="middle" x="387.2847" y="-538.5" font-family="Helvetica,sans-Serif" font-size="10.00" fill="#000000"> spacedim &gt;</text>
</a>
</g>
</g>
<!-- Node0&#45;&gt;Node2 -->
<g id="edge2" class="edge">
<title>Node0&#45;&gt;Node2</title>
<path fill="none" stroke="#191970" d="M179.1536,-345.9606C192.0374,-374.684 220.0235,-430.6011 257.0781,-467.5 285.8374,-496.1384 326.9214,-518.8361 355.2102,-532.4209"/>
<polygon fill="#191970" stroke="#191970" points="182.3149,-344.4541 175.1014,-336.6942 175.9014,-347.2588 182.3149,-344.4541"/>
</g>
<!-- Node5 -->
<g id="node6" class="node">
<title>Node5</title>
<g id="a_node6"><a xlink:href="classChartManifold.html" target="_top" xlink:title="ChartManifold\&lt; dim,\l spacedim, 2 \&gt;">
<polygon fill="#ffffff" stroke="#000000" points="643.6089,-825.5 643.6089,-853.5 749.3696,-853.5 749.3696,-825.5 643.6089,-825.5"/>
<text text-anchor="start" x="651.6089" y="-841.5" font-family="Helvetica,sans-Serif" font-size="10.00" fill="#000000">ChartManifold&lt; dim,</text>
<text text-anchor="middle" x="696.4893" y="-831.5" font-family="Helvetica,sans-Serif" font-size="10.00" fill="#000000"> spacedim, 2 &gt;</text>
</a>
</g>
</g>
<!-- Node0&#45;&gt;Node5 -->
<g id="edge21" class="edge">
<title>Node0&#45;&gt;Node5</title>
<path fill="none" stroke="#191970" d="M172.0648,-346.8255C175.804,-415.2796 198.3229,-647.8664 332.876,-755.5 423.9452,-828.3494 566.7132,-840.2826 643.4553,-840.9475"/>
<polygon fill="#191970" stroke="#191970" points="175.5522,-346.4735 171.5863,-336.649 168.5599,-346.8024 175.5522,-346.4735"/>
</g>
<!-- Node7 -->
<g id="node8" class="node">
<title>Node7</title>
<g id="a_node8"><a xlink:href="classChartManifold.html" target="_top" xlink:title="ChartManifold\&lt; dim\l_B, spacedim_B, chartdim_B \&gt;">
<polygon fill="#ffffff" stroke="#000000" points="619.7051,-774.5 619.7051,-802.5 773.2734,-802.5 773.2734,-774.5 619.7051,-774.5"/>
<text text-anchor="start" x="627.7051" y="-790.5" font-family="Helvetica,sans-Serif" font-size="10.00" fill="#000000">ChartManifold&lt; dim</text>
<text text-anchor="middle" x="696.4893" y="-780.5" font-family="Helvetica,sans-Serif" font-size="10.00" fill="#000000">_B, spacedim_B, chartdim_B &gt;</text>
</a>
</g>
</g>
<!-- Node0&#45;&gt;Node7 -->
<g id="edge27" class="edge">
<title>Node0&#45;&gt;Node7</title>
<path fill="none" stroke="#191970" d="M174.8712,-346.7898C183.8568,-392.8759 210.2069,-512.191 257.0781,-601.5 282.5035,-649.9458 293.6993,-660.3079 332.876,-698.5 383.1127,-747.4742 393.0729,-770.5018 459.6934,-792.5 511.1323,-809.4853 572.3438,-807.9282 619.6447,-802.4156"/>
<polygon fill="#191970" stroke="#191970" points="178.2622,-345.8856 172.9589,-336.7136 171.3849,-347.1908 178.2622,-345.8856"/>
</g>
<!-- Node8 -->
<g id="node9" class="node">
<title>Node8</title>
<g id="a_node9"><a xlink:href="classChartManifold.html" target="_top" xlink:title="ChartManifold\&lt; dim,\l spacedim, 1 \&gt;">
<polygon fill="#ffffff" stroke="#000000" points="643.6089,-718.5 643.6089,-746.5 749.3696,-746.5 749.3696,-718.5 643.6089,-718.5"/>
<text text-anchor="start" x="651.6089" y="-734.5" font-family="Helvetica,sans-Serif" font-size="10.00" fill="#000000">ChartManifold&lt; dim,</text>
<text text-anchor="middle" x="696.4893" y="-724.5" font-family="Helvetica,sans-Serif" font-size="10.00" fill="#000000"> spacedim, 1 &gt;</text>
</a>
</g>
</g>
<!-- Node0&#45;&gt;Node8 -->
<g id="edge20" class="edge">
<title>Node0&#45;&gt;Node8</title>
<path fill="none" stroke="#191970" d="M176.1325,-346.2881C186.8269,-386.1783 215.0132,-481.4886 257.0781,-552.5 283.5585,-597.2025 294.8259,-606.1205 332.876,-641.5 384.0626,-689.0941 393.2676,-712.7541 459.6934,-734.5 520.2541,-754.3259 594.2872,-749.4107 643.2773,-742.4463"/>
<polygon fill="#191970" stroke="#191970" points="179.5067,-345.3569 173.5829,-336.5729 172.736,-347.1338 179.5067,-345.3569"/>
</g>
<!-- Node10 -->
<g id="node11" class="node">
<title>Node10</title>
<g id="a_node11"><a xlink:href="classChartManifold.html" target="_top" xlink:title="ChartManifold\&lt; dim\l_A, spacedim_A, chartdim_A \&gt;">
<polygon fill="#ffffff" stroke="#000000" points="619.9785,-503.5 619.9785,-531.5 773,-531.5 773,-503.5 619.9785,-503.5"/>
<text text-anchor="start" x="627.9785" y="-519.5" font-family="Helvetica,sans-Serif" font-size="10.00" fill="#000000">ChartManifold&lt; dim</text>
<text text-anchor="middle" x="696.4893" y="-509.5" font-family="Helvetica,sans-Serif" font-size="10.00" fill="#000000">_A, spacedim_A, chartdim_A &gt;</text>
</a>
</g>
</g>
<!-- Node0&#45;&gt;Node10 -->
<g id="edge26" class="edge">
<title>Node0&#45;&gt;Node10</title>
<path fill="none" stroke="#191970" d="M200.3516,-340.7454C251.6906,-363.7245 362.3001,-411.2234 459.6934,-439.5 521.4736,-457.4369 548.2041,-431.7763 601.7051,-467.5 613.6992,-475.5087 608.1106,-485.9229 619.7051,-494.5 624.4038,-497.9759 629.6275,-500.9304 635.0774,-503.4409"/>
<polygon fill="#191970" stroke="#191970" points="201.7389,-337.5317 191.1834,-336.6198 198.8663,-343.9152 201.7389,-337.5317"/>
</g>
<!-- Node11 -->
<g id="node12" class="node">
<title>Node11</title>
<g id="a_node12"><a xlink:href="classChartManifold.html" target="_top" xlink:title="ChartManifold\&lt; dim1,\l intermediate_dim, chartdim \&gt;">
<polygon fill="#ffffff" stroke="#000000" points="622.4883,-396.5 622.4883,-424.5 770.4902,-424.5 770.4902,-396.5 622.4883,-396.5"/>
<text text-anchor="start" x="630.4883" y="-412.5" font-family="Helvetica,sans-Serif" font-size="10.00" fill="#000000">ChartManifold&lt; dim1,</text>
<text text-anchor="middle" x="696.4893" y="-402.5" font-family="Helvetica,sans-Serif" font-size="10.00" fill="#000000"> intermediate_dim, chartdim &gt;</text>
</a>
</g>
</g>
<!-- Node0&#45;&gt;Node11 -->
<g id="edge24" class="edge">
<title>Node0&#45;&gt;Node11</title>
<path fill="none" stroke="#191970" d="M249.4302,-322.503C357.3726,-317.0917 545.2479,-313.5127 601.7051,-349.5 616.1232,-358.6905 606.7498,-372.3417 619.7051,-383.5 625.808,-388.7564 632.9998,-393.0106 640.4931,-396.4483"/>
<polygon fill="#191970" stroke="#191970" points="249.0462,-319.0181 239.2408,-323.0312 249.4086,-326.0087 249.0462,-319.0181"/>
</g>
<!-- Node12 -->
<g id="node13" class="node">
<title>Node12</title>
<g id="a_node13"><a xlink:href="classChartManifold.html" target="_top" xlink:title="ChartManifold\&lt; dim,\l spacedim, spacedim \&gt;">
<polygon fill="#ffffff" stroke="#000000" points="637.2148,-346.5 637.2148,-374.5 755.7637,-374.5 755.7637,-346.5 637.2148,-346.5"/>
<text text-anchor="start" x="645.2148" y="-362.5" font-family="Helvetica,sans-Serif" font-size="10.00" fill="#000000">ChartManifold&lt; dim,</text>
<text text-anchor="middle" x="696.4893" y="-352.5" font-family="Helvetica,sans-Serif" font-size="10.00" fill="#000000"> spacedim, spacedim &gt;</text>
</a>
</g>
</g>
<!-- Node0&#45;&gt;Node12 -->
<g id="edge22" class="edge">
<title>Node0&#45;&gt;Node12</title>
<path fill="none" stroke="#191970" d="M215.5098,-315.9714C311.6526,-291.9147 536.4477,-241.5519 601.7051,-278.5 615.236,-286.1611 609.0158,-297.2077 619.7051,-308.5 634.2039,-323.8168 653.9705,-337.0744 669.817,-346.3694"/>
<polygon fill="#191970" stroke="#191970" points="214.6386,-312.5814 205.7987,-318.4216 216.3511,-319.3687 214.6386,-312.5814"/>
</g>
<!-- Node14 -->
<g id="node15" class="node">
<title>Node14</title>
<g id="a_node15"><a xlink:href="classChartManifold.html" target="_top" xlink:title="ChartManifold\&lt; dim2,\l spacedim, intermediate_dim \&gt;">
<polygon fill="#ffffff" stroke="#000000" points="620.2617,-271.5 620.2617,-299.5 772.7168,-299.5 772.7168,-271.5 620.2617,-271.5"/>
<text text-anchor="start" x="628.2617" y="-287.5" font-family="Helvetica,sans-Serif" font-size="10.00" fill="#000000">ChartManifold&lt; dim2,</text>
<text text-anchor="middle" x="696.4893" y="-277.5" font-family="Helvetica,sans-Serif" font-size="10.00" fill="#000000"> spacedim, intermediate_dim &gt;</text>
</a>
</g>
</g>
<!-- Node0&#45;&gt;Node14 -->
<g id="edge25" class="edge">
<title>Node0&#45;&gt;Node14</title>
<path fill="none" stroke="#191970" d="M199.0536,-313.8468C230.5741,-299.1715 284.0061,-276.8291 332.876,-268.5 450.6971,-248.4192 483.1026,-246.7178 601.7051,-261.5 617.8759,-263.5155 635.2476,-267.3943 650.6455,-271.4556"/>
<polygon fill="#191970" stroke="#191970" points="197.1618,-310.8701 189.6232,-318.3147 200.1589,-317.1961 197.1618,-310.8701"/>
</g>
<!-- Node15 -->
<g id="node16" class="node">
<title>Node15</title>
<g id="a_node16"><a xlink:href="classChartManifold.html" target="_top" xlink:title="ChartManifold\&lt; dim,\l 3, 3 \&gt;">
<polygon fill="#ffffff" stroke="#000000" points="643.6089,-655.5 643.6089,-683.5 749.3696,-683.5 749.3696,-655.5 643.6089,-655.5"/>
<text text-anchor="start" x="651.6089" y="-671.5" font-family="Helvetica,sans-Serif" font-size="10.00" fill="#000000">ChartManifold&lt; dim,</text>
<text text-anchor="middle" x="696.4893" y="-661.5" font-family="Helvetica,sans-Serif" font-size="10.00" fill="#000000"> 3, 3 &gt;</text>
</a>
</g>
</g>
<!-- Node0&#45;&gt;Node15 -->
<g id="edge19" class="edge">
<title>Node0&#45;&gt;Node15</title>
<path fill="none" stroke="#191970" d="M177.8366,-346.4025C189.9755,-379.991 218.3855,-451.3477 257.0781,-502.5 326.9692,-594.8973 350.103,-628.9239 459.6934,-666.5 519.9746,-687.1691 594.0666,-683.909 643.1467,-678.1193"/>
<polygon fill="#191970" stroke="#191970" points="180.9845,-344.8056 174.3524,-336.5433 174.3845,-347.1381 180.9845,-344.8056"/>
</g>
<!-- Node17 -->
<g id="node18" class="node">
<title>Node17</title>
<g id="a_node18"><a xlink:href="classChartManifold.html" target="_top" xlink:title="ChartManifold\&lt; dim,\l spacedim_A+spacedim\l_B, chartdim_A+chartdim_B \&gt;">
<polygon fill="#ffffff" stroke="#000000" points="621.79,-446.5 621.79,-484.5 771.1885,-484.5 771.1885,-446.5 621.79,-446.5"/>
<text text-anchor="start" x="629.79" y="-472.5" font-family="Helvetica,sans-Serif" font-size="10.00" fill="#000000">ChartManifold&lt; dim,</text>
<text text-anchor="start" x="629.79" y="-462.5" font-family="Helvetica,sans-Serif" font-size="10.00" fill="#000000"> spacedim_A+spacedim</text>
<text text-anchor="middle" x="696.4893" y="-452.5" font-family="Helvetica,sans-Serif" font-size="10.00" fill="#000000">_B, chartdim_A+chartdim_B &gt;</text>
</a>
</g>
</g>
<!-- Node0&#45;&gt;Node17 -->
<g id="edge23" class="edge">
<title>Node0&#45;&gt;Node17</title>
<path fill="none" stroke="#191970" d="M242.2702,-338.0519C360.6867,-355.8964 587.1746,-391.1076 601.7051,-401.5 615.2939,-411.2189 607.2288,-423.389 619.7051,-434.5 624.8583,-439.0893 630.7784,-443.0474 636.9968,-446.4498"/>
<polygon fill="#191970" stroke="#191970" points="242.6089,-334.5636 232.1995,-336.537 241.5676,-341.4857 242.6089,-334.5636"/>
</g>
<!-- Node19 -->
<g id="node20" class="node">
<title>Node19</title>
<g id="a_node20"><a xlink:href="classCylindricalManifold.html" target="_top" xlink:title="CylindricalManifold\l\&lt; dim, spacedim \&gt;">
<polygon fill="#ffffff" stroke="#000000" points="337.3242,-177.5 337.3242,-205.5 437.2451,-205.5 437.2451,-177.5 337.3242,-177.5"/>
<text text-anchor="start" x="345.3242" y="-193.5" font-family="Helvetica,sans-Serif" font-size="10.00" fill="#000000">CylindricalManifold</text>
<text text-anchor="middle" x="387.2847" y="-183.5" font-family="Helvetica,sans-Serif" font-size="10.00" fill="#000000">&lt; dim, spacedim &gt;</text>
</a>
</g>
</g>
<!-- Node0&#45;&gt;Node19 -->
<g id="edge28" class="edge">
<title>Node0&#45;&gt;Node19</title>
<path fill="none" stroke="#191970" d="M180.6457,-309.446C194.1177,-285.2386 221.3835,-242.7383 257.0781,-220.5 281.059,-205.5595 311.7546,-198.273 337.3185,-194.7383"/>
<polygon fill="#191970" stroke="#191970" points="177.533,-307.8446 175.8769,-318.3092 183.6973,-311.1614 177.533,-307.8446"/>
</g>
<!-- Node20 -->
<g id="node21" class="node">
<title>Node20</title>
<g id="a_node21"><a xlink:href="classFlatManifold.html" target="_top" xlink:title="FlatManifold\&lt; dim,\l spacedim \&gt;">
<polygon fill="#ffffff" stroke="#000000" points="338.2959,-130.5 338.2959,-158.5 436.2734,-158.5 436.2734,-130.5 338.2959,-130.5"/>
<text text-anchor="start" x="346.2959" y="-146.5" font-family="Helvetica,sans-Serif" font-size="10.00" fill="#000000">FlatManifold&lt; dim,</text>
<text text-anchor="middle" x="387.2847" y="-136.5" font-family="Helvetica,sans-Serif" font-size="10.00" fill="#000000"> spacedim &gt;</text>
</a>
</g>
</g>
<!-- Node0&#45;&gt;Node20 -->
<g id="edge29" class="edge">
<title>Node0&#45;&gt;Node20</title>
<path fill="none" stroke="#191970" d="M178.8817,-308.9746C191.2536,-280.777 218.3891,-227.0431 257.0781,-195.5 280.5044,-176.4006 311.9408,-163.8161 338.0555,-155.927"/>
<polygon fill="#191970" stroke="#191970" points="175.553,-307.859 174.8695,-318.4317 181.9971,-310.5929 175.553,-307.859"/>
</g>
<!-- Node37 -->
<g id="node35" class="node">
<title>Node37</title>
<g id="a_node35"><a xlink:href="classFlatManifold.html" target="_top" xlink:title="FlatManifold\&lt; chartdim,\l chartdim \&gt;">
<polygon fill="#ffffff" stroke="#000000" points="636.3848,-88.5 636.3848,-116.5 756.5938,-116.5 756.5938,-88.5 636.3848,-88.5"/>
<text text-anchor="start" x="644.3848" y="-104.5" font-family="Helvetica,sans-Serif" font-size="10.00" fill="#000000">FlatManifold&lt; chartdim,</text>
<text text-anchor="middle" x="696.4893" y="-94.5" font-family="Helvetica,sans-Serif" font-size="10.00" fill="#000000"> chartdim &gt;</text>
</a>
</g>
</g>
<!-- Node0&#45;&gt;Node37 -->
<g id="edge48" class="edge">
<title>Node0&#45;&gt;Node37</title>
<path fill="none" stroke="#191970" d="M176.877,-308.4755C187.5102,-274.8751 213.6353,-204.4323 257.0781,-160.5 283.8612,-133.4151 296.375,-131.3908 332.876,-120.5 435.9899,-89.734 562.772,-91.9282 636.1369,-96.8501"/>
<polygon fill="#191970" stroke="#191970" points="173.43,-307.7804 173.8623,-318.3664 180.1258,-309.8214 173.43,-307.7804"/>
</g>
<!-- Node38 -->
<g id="node36" class="node">
<title>Node38</title>
<g id="a_node36"><a xlink:href="classSphericalManifold.html" target="_top" xlink:title="SphericalManifold\&lt;\l dim, spacedim \&gt;">
<polygon fill="#ffffff" stroke="#000000" points="336.6211,-37.5 336.6211,-65.5 437.9482,-65.5 437.9482,-37.5 336.6211,-37.5"/>
<text text-anchor="start" x="344.6211" y="-53.5" font-family="Helvetica,sans-Serif" font-size="10.00" fill="#000000">SphericalManifold&lt;</text>
<text text-anchor="middle" x="387.2847" y="-43.5" font-family="Helvetica,sans-Serif" font-size="10.00" fill="#000000"> dim, spacedim &gt;</text>
</a>
</g>
</g>
<!-- Node0&#45;&gt;Node38 -->
<g id="edge49" class="edge">
<title>Node0&#45;&gt;Node38</title>
<path fill="none" stroke="#191970" d="M175.4079,-308.5375C187.0237,-256.2859 221.717,-112.0115 257.0781,-80.5 278.6043,-61.3173 309.9887,-53.9338 336.5514,-51.41"/>
<polygon fill="#191970" stroke="#191970" points="171.9526,-307.955 173.2326,-318.4722 178.7906,-309.4523 171.9526,-307.955"/>
</g>
<!-- Node39 -->
<g id="node37" class="node">
<title>Node39</title>
<g id="a_node37"><a xlink:href="classManifold.html" target="_top" xlink:title="Manifold\&lt; dim, dim \&gt;">
<polygon fill="#ffffff" stroke="#000000" points="332.876,-.5 332.876,-18.5 441.6934,-18.5 441.6934,-.5 332.876,-.5"/>
<text text-anchor="middle" x="387.2847" y="-6.5" font-family="Helvetica,sans-Serif" font-size="10.00" fill="#000000">Manifold&lt; dim, dim &gt;</text>
</a>
</g>
</g>
<!-- Node0&#45;&gt;Node39 -->
<g id="edge50" class="edge">
<title>Node0&#45;&gt;Node39</title>
<path fill="none" stroke="#ffa500" stroke-dasharray="5,2" d="M174.5449,-308.3114C184.6219,-250.4499 217.2834,-79.3413 257.0781,-41.5 277.152,-22.4115 306.6985,-14.1548 332.5734,-10.7843"/>
<polygon fill="#ffa500" stroke="#ffa500" points="171.0724,-307.8535 172.8352,-318.3006 177.9721,-309.0344 171.0724,-307.8535"/>
<text text-anchor="middle" x="285.9771" y="-43.5" font-family="Helvetica,sans-Serif" font-size="10.00" fill="#000000"> &lt; dim, dim &gt;</text>
</g>
<!-- Node1 -->
<g id="node2" class="node">
<title>Node1</title>
<g id="a_node2"><a xlink:href="classSubscriptor.html" target="_top" xlink:title="Subscriptor">
<polygon fill="#ffffff" stroke="#000000" points="0,-318.5 0,-336.5 66.5762,-336.5 66.5762,-318.5 0,-318.5"/>
<text text-anchor="middle" x="33.2881" y="-324.5" font-family="Helvetica,sans-Serif" font-size="10.00" fill="#000000">Subscriptor</text>
</a>
</g>
</g>
<!-- Node1&#45;&gt;Node0 -->
<g id="edge1" class="edge">
<title>Node1&#45;&gt;Node0</title>
<path fill="none" stroke="#191970" d="M76.9826,-327.5C85.3786,-327.5 94.3551,-327.5 103.3091,-327.5"/>
<polygon fill="#191970" stroke="#191970" points="76.7035,-324.0001 66.7035,-327.5 76.7035,-331.0001 76.7035,-324.0001"/>
</g>
<!-- Node3 -->
<g id="node4" class="node">
<title>Node3</title>
<g id="a_node4"><a xlink:href="classCompositionManifold.html" target="_top" xlink:title="CompositionManifold\l\&lt; dim, spacedim, chartdim \&gt;">
<polygon fill="#ffffff" stroke="#000000" points="625.6865,-597.5 625.6865,-625.5 767.292,-625.5 767.292,-597.5 625.6865,-597.5"/>
<text text-anchor="start" x="633.6865" y="-613.5" font-family="Helvetica,sans-Serif" font-size="10.00" fill="#000000">CompositionManifold</text>
<text text-anchor="middle" x="696.4893" y="-603.5" font-family="Helvetica,sans-Serif" font-size="10.00" fill="#000000">&lt; dim, spacedim, chartdim &gt;</text>
</a>
</g>
</g>
<!-- Node2&#45;&gt;Node3 -->
<g id="edge3" class="edge">
<title>Node2&#45;&gt;Node3</title>
<path fill="none" stroke="#191970" d="M440.6494,-563.4709C447.0375,-565.2776 453.4918,-567.0001 459.6934,-568.5 514.9254,-581.8583 578.3035,-593.1591 625.5845,-600.8185"/>
<polygon fill="#191970" stroke="#191970" points="441.291,-560.0126 430.7115,-560.5824 439.3372,-566.7344 441.291,-560.0126"/>
</g>
<!-- Node4 -->
<g id="node5" class="node">
<title>Node4</title>
<g id="a_node5"><a xlink:href="classFunctionManifold.html" target="_top" xlink:title="FunctionManifold\&lt; dim,\l spacedim, chartdim \&gt;">
<polygon fill="#ffffff" stroke="#000000" points="636.6582,-550.5 636.6582,-578.5 756.3203,-578.5 756.3203,-550.5 636.6582,-550.5"/>
<text text-anchor="start" x="644.6582" y="-566.5" font-family="Helvetica,sans-Serif" font-size="10.00" fill="#000000">FunctionManifold&lt; dim,</text>
<text text-anchor="middle" x="696.4893" y="-556.5" font-family="Helvetica,sans-Serif" font-size="10.00" fill="#000000"> spacedim, chartdim &gt;</text>
</a>
</g>
</g>
<!-- Node2&#45;&gt;Node4 -->
<g id="edge4" class="edge">
<title>Node2&#45;&gt;Node4</title>
<path fill="none" stroke="#191970" d="M450.6688,-550.1898C505.1622,-553.3621 583.193,-557.9046 636.6367,-561.0158"/>
<polygon fill="#191970" stroke="#191970" points="450.6254,-546.6815 440.4388,-549.5943 450.2185,-553.6696 450.6254,-546.6815"/>
</g>
<!-- Node2&#45;&gt;Node5 -->
<g id="edge5" class="edge">
<title>Node2&#45;&gt;Node5</title>
<path fill="none" stroke="#ffa500" stroke-dasharray="5,2" d="M388.7171,-570.6476C392.6001,-614.3371 406.9411,-706.8472 459.6934,-759.5 485.8374,-785.5948 581.9372,-812.3636 643.3832,-827.3688"/>
<polygon fill="#ffa500" stroke="#ffa500" points="392.2041,-570.3439 387.9382,-560.6459 385.2253,-570.8875 392.2041,-570.3439"/>
<text text-anchor="middle" x="530.6992" y="-817.5" font-family="Helvetica,sans-Serif" font-size="10.00" fill="#000000"> &lt; dim, spacedim, 2 &gt;</text>
</g>
<!-- Node2&#45;&gt;Node7 -->
<g id="edge7" class="edge">
<title>Node2&#45;&gt;Node7</title>
<path fill="none" stroke="#ffa500" stroke-dasharray="5,2" d="M393.1261,-570.5474C402.1126,-602.5704 422.3377,-658.9475 459.6934,-691.5 509.9222,-735.2704 544.6086,-705.1667 601.7051,-739.5 611.1354,-745.1706 610.4758,-750.5078 619.7051,-756.5 630.4855,-763.4992 643.0507,-769.4995 654.8567,-774.3494"/>
<polygon fill="#ffa500" stroke="#ffa500" points="396.4567,-569.4531 390.5009,-560.6907 389.6925,-571.2547 396.4567,-569.4531"/>
<text text-anchor="start" x="479.1465" y="-751.5" font-family="Helvetica,sans-Serif" font-size="10.00" fill="#000000"> &lt; dim_B, spacedim_B,</text>
<text text-anchor="middle" x="530.6992" y="-741.5" font-family="Helvetica,sans-Serif" font-size="10.00" fill="#000000"> chartdim_B &gt;</text>
</g>
<!-- Node2&#45;&gt;Node8 -->
<g id="edge8" class="edge">
<title>Node2&#45;&gt;Node8</title>
<path fill="none" stroke="#ffa500" stroke-dasharray="5,2" d="M401.0274,-569.2341C413.9341,-588.8094 434.9333,-616.513 459.6934,-633.5 514.6313,-671.1909 541.9171,-652.1031 601.7051,-681.5 610.3333,-685.7424 611.4044,-688.6478 619.7051,-693.5 634.9365,-702.4035 652.4403,-711.3852 666.8855,-718.4813"/>
<polygon fill="#ffa500" stroke="#ffa500" points="403.8561,-567.1608 395.5213,-560.62 397.9581,-570.9309 403.8561,-567.1608"/>
<text text-anchor="middle" x="530.6992" y="-683.5" font-family="Helvetica,sans-Serif" font-size="10.00" fill="#000000"> &lt; dim, spacedim, 1 &gt;</text>
</g>
<!-- Node2&#45;&gt;Node10 -->
<g id="edge10" class="edge">
<title>Node2&#45;&gt;Node10</title>
<path fill="none" stroke="#ffa500" stroke-dasharray="5,2" d="M441.7563,-530.0125C447.7667,-528.6253 453.8314,-527.4084 459.6934,-526.5 512.7479,-518.2785 573.2457,-516.1003 619.8113,-515.9406"/>
<polygon fill="#ffa500" stroke="#ffa500" points="440.6089,-526.6906 431.738,-532.4834 442.2852,-533.4869 440.6089,-526.6906"/>
<text text-anchor="start" x="479.1465" y="-538.5" font-family="Helvetica,sans-Serif" font-size="10.00" fill="#000000"> &lt; dim_A, spacedim_A,</text>
<text text-anchor="middle" x="530.6992" y="-528.5" font-family="Helvetica,sans-Serif" font-size="10.00" fill="#000000"> chartdim_A &gt;</text>
</g>
<!-- Node2&#45;&gt;Node11 -->
<g id="edge11" class="edge">
<title>Node2&#45;&gt;Node11</title>
<path fill="none" stroke="#ffa500" stroke-dasharray="5,2" d="M396.4644,-522.8189C407.473,-497.8713 428.4424,-459.6069 459.6934,-440.5 508.2175,-410.8322 572.7751,-404.353 622.2264,-404.7258"/>
<polygon fill="#ffa500" stroke="#ffa500" points="393.1328,-521.7125 392.4806,-532.2872 399.5849,-524.4273 393.1328,-521.7125"/>
<text text-anchor="start" x="483.8706" y="-452.5" font-family="Helvetica,sans-Serif" font-size="10.00" fill="#000000"> &lt; dim1, intermediate</text>
<text text-anchor="middle" x="530.6992" y="-442.5" font-family="Helvetica,sans-Serif" font-size="10.00" fill="#000000">_dim, chartdim &gt;</text>
</g>
<!-- Node2&#45;&gt;Node12 -->
<g id="edge12" class="edge">
<title>Node2&#45;&gt;Node12</title>
<path fill="none" stroke="#ffa500" stroke-dasharray="5,2" d="M391.1949,-522.1797C398.2135,-487.1253 416.4743,-423.1424 459.6934,-391.5 510.8773,-354.0262 585.4623,-350.2723 637.1942,-353.3179"/>
<polygon fill="#ffa500" stroke="#ffa500" points="387.7444,-521.5915 389.3625,-532.0621 394.6271,-522.8678 387.7444,-521.5915"/>
<text text-anchor="middle" x="530.6992" y="-393.5" font-family="Helvetica,sans-Serif" font-size="10.00" fill="#000000"> &lt; dim, spacedim, spacedim &gt;</text>
</g>
<!-- Node2&#45;&gt;Node14 -->
<g id="edge14" class="edge">
<title>Node2&#45;&gt;Node14</title>
<path fill="none" stroke="#ffa500" stroke-dasharray="5,2" d="M392.1207,-522.4064C402.8332,-471.4622 429.9777,-355.3649 459.6934,-329.5 503.3761,-291.478 569.1024,-281.7183 620.2346,-280.7691"/>
<polygon fill="#ffa500" stroke="#ffa500" points="388.6864,-521.7309 390.0892,-532.2325 395.5414,-523.1482 388.6864,-521.7309"/>
<text text-anchor="start" x="459.6934" y="-341.5" font-family="Helvetica,sans-Serif" font-size="10.00" fill="#000000"> &lt; dim2, spacedim, intermediate</text>
<text text-anchor="middle" x="530.6992" y="-331.5" font-family="Helvetica,sans-Serif" font-size="10.00" fill="#000000">_dim &gt;</text>
</g>
<!-- Node2&#45;&gt;Node15 -->
<g id="edge15" class="edge">
<title>Node2&#45;&gt;Node15</title>
<path fill="none" stroke="#ffa500" stroke-dasharray="5,2" d="M411.5568,-567.0817C424.9519,-577.4153 442.3512,-589.2473 459.6934,-596.5 518.9656,-621.2886 542.2324,-599.1964 601.7051,-623.5 610.6054,-627.1371 611.2785,-630.87 619.7051,-635.5 632.9935,-642.8014 648.1574,-649.7817 661.4799,-655.4969"/>
<polygon fill="#ffa500" stroke="#ffa500" points="413.3778,-564.0579 403.3733,-560.5706 409.0195,-569.5357 413.3778,-564.0579"/>
<text text-anchor="middle" x="530.6992" y="-625.5" font-family="Helvetica,sans-Serif" font-size="10.00" fill="#000000"> &lt; dim, 3, 3 &gt;</text>
</g>
<!-- Node2&#45;&gt;Node17 -->
<g id="edge17" class="edge">
<title>Node2&#45;&gt;Node17</title>
<path fill="none" stroke="#ffa500" stroke-dasharray="5,2" d="M408.7824,-525.1737C422.2524,-513.1698 440.629,-499.1031 459.6934,-491.5 511.2657,-470.9323 573.8688,-464.7863 621.7504,-463.5925"/>
<polygon fill="#ffa500" stroke="#ffa500" points="406.035,-522.947 401.0672,-532.3049 410.7864,-528.0874 406.035,-522.947"/>
<text text-anchor="start" x="462.3325" y="-503.5" font-family="Helvetica,sans-Serif" font-size="10.00" fill="#000000"> &lt; dim, spacedim_A+spacedim</text>
<text text-anchor="middle" x="530.6992" y="-493.5" font-family="Helvetica,sans-Serif" font-size="10.00" fill="#000000">_B, chartdim_A+chartdim_B &gt;</text>
</g>
<!-- Node6 -->
<g id="node7" class="node">
<title>Node6</title>
<g id="a_node7"><a xlink:href="classOpenCASCADE_1_1NURBSPatchManifold.html" target="_top" xlink:title="OpenCASCADE::NURBSPatchManifold\l\&lt; dim, spacedim \&gt;">
<polygon fill="#ffffff" stroke="#000000" points="867.0713,-825.5 867.0713,-853.5 1059.8096,-853.5 1059.8096,-825.5 867.0713,-825.5"/>
<text text-anchor="start" x="875.0713" y="-841.5" font-family="Helvetica,sans-Serif" font-size="10.00" fill="#000000">OpenCASCADE::NURBSPatchManifold</text>
<text text-anchor="middle" x="963.4404" y="-831.5" font-family="Helvetica,sans-Serif" font-size="10.00" fill="#000000">&lt; dim, spacedim &gt;</text>
</a>
</g>
</g>
<!-- Node5&#45;&gt;Node6 -->
<g id="edge6" class="edge">
<title>Node5&#45;&gt;Node6</title>
<path fill="none" stroke="#191970" d="M759.6663,-839.5C791.6883,-839.5 831.2641,-839.5 866.9953,-839.5"/>
<polygon fill="#191970" stroke="#191970" points="759.5494,-836.0001 749.5494,-839.5 759.5494,-843.0001 759.5494,-836.0001"/>
</g>
<!-- Node9 -->
<g id="node10" class="node">
<title>Node9</title>
<g id="a_node10"><a xlink:href="classOpenCASCADE_1_1ArclengthProjectionLineManifold.html" target="_top" xlink:title="OpenCASCADE::ArclengthProjection\lLineManifold\&lt; dim, spacedim \&gt;">
<polygon fill="#ffffff" stroke="#000000" points="872.9014,-718.5 872.9014,-746.5 1053.9795,-746.5 1053.9795,-718.5 872.9014,-718.5"/>
<text text-anchor="start" x="880.9014" y="-734.5" font-family="Helvetica,sans-Serif" font-size="10.00" fill="#000000">OpenCASCADE::ArclengthProjection</text>
<text text-anchor="middle" x="963.4404" y="-724.5" font-family="Helvetica,sans-Serif" font-size="10.00" fill="#000000">LineManifold&lt; dim, spacedim &gt;</text>
</a>
</g>
</g>
<!-- Node8&#45;&gt;Node9 -->
<g id="edge9" class="edge">
<title>Node8&#45;&gt;Node9</title>
<path fill="none" stroke="#191970" d="M759.7483,-732.5C793.5269,-732.5 835.6932,-732.5 872.8844,-732.5"/>
<polygon fill="#191970" stroke="#191970" points="759.5494,-729.0001 749.5494,-732.5 759.5494,-736.0001 759.5494,-729.0001"/>
</g>
<!-- Node13 -->
<g id="node14" class="node">
<title>Node13</title>
<g id="a_node14"><a xlink:href="classPolarManifold.html" target="_top" xlink:title="PolarManifold\&lt; dim,\l spacedim \&gt;">
<polygon fill="#ffffff" stroke="#000000" points="911.1143,-449.5 911.1143,-477.5 1015.7666,-477.5 1015.7666,-449.5 911.1143,-449.5"/>
<text text-anchor="start" x="919.1143" y="-465.5" font-family="Helvetica,sans-Serif" font-size="10.00" fill="#000000">PolarManifold&lt; dim,</text>
<text text-anchor="middle" x="963.4404" y="-455.5" font-family="Helvetica,sans-Serif" font-size="10.00" fill="#000000"> spacedim &gt;</text>
</a>
</g>
</g>
<!-- Node12&#45;&gt;Node13 -->
<g id="edge13" class="edge">
<title>Node12&#45;&gt;Node13</title>
<path fill="none" stroke="#191970" d="M764.4011,-379.5482C767.5642,-381.6304 770.5495,-383.9395 773.2734,-386.5 788.6683,-400.9713 774.9234,-417.1173 791.2734,-430.5 824.5981,-457.7766 873.683,-464.9818 910.9245,-465.9705"/>
<polygon fill="#191970" stroke="#191970" points="766.0874,-376.4807 755.6701,-374.5493 762.6093,-382.5554 766.0874,-376.4807"/>
</g>
<!-- Node16 -->
<g id="node17" class="node">
<title>Node16</title>
<g id="a_node17"><a xlink:href="classTorusManifold.html" target="_top" xlink:title="TorusManifold\&lt; dim \&gt;">
<polygon fill="#ffffff" stroke="#000000" points="907.6401,-660.5 907.6401,-678.5 1019.2407,-678.5 1019.2407,-660.5 907.6401,-660.5"/>
<text text-anchor="middle" x="963.4404" y="-666.5" font-family="Helvetica,sans-Serif" font-size="10.00" fill="#000000">TorusManifold&lt; dim &gt;</text>
</a>
</g>
</g>
<!-- Node15&#45;&gt;Node16 -->
<g id="edge16" class="edge">
<title>Node15&#45;&gt;Node16</title>
<path fill="none" stroke="#191970" d="M759.737,-669.5C804.5458,-669.5 864.1189,-669.5 907.2575,-669.5"/>
<polygon fill="#191970" stroke="#191970" points="759.5494,-666.0001 749.5494,-669.5 759.5494,-673.0001 759.5494,-666.0001"/>
</g>
<!-- Node18 -->
<g id="node19" class="node">
<title>Node18</title>
<g id="a_node19"><a xlink:href="classTensorProductManifold.html" target="_top" xlink:title="Tensor product manifold of two ChartManifolds. ">
<polygon fill="#ffffff" stroke="#000000" points="894.1611,-496.5 894.1611,-544.5 1032.7197,-544.5 1032.7197,-496.5 894.1611,-496.5"/>
<text text-anchor="start" x="902.1611" y="-532.5" font-family="Helvetica,sans-Serif" font-size="10.00" fill="#000000">TensorProductManifold</text>
<text text-anchor="start" x="902.1611" y="-522.5" font-family="Helvetica,sans-Serif" font-size="10.00" fill="#000000">&lt; dim, dim_A, spacedim</text>
<text text-anchor="start" x="902.1611" y="-512.5" font-family="Helvetica,sans-Serif" font-size="10.00" fill="#000000">_A, chartdim_A, dim_B,</text>
<text text-anchor="middle" x="963.4404" y="-502.5" font-family="Helvetica,sans-Serif" font-size="10.00" fill="#000000"> spacedim_B, chartdim_B &gt;</text>
</a>
</g>
</g>
<!-- Node17&#45;&gt;Node18 -->
<g id="edge18" class="edge">
<title>Node17&#45;&gt;Node18</title>
<path fill="none" stroke="#191970" d="M781.2757,-482.9686C817.5417,-490.4405 859.3648,-499.0573 893.7835,-506.1486"/>
<polygon fill="#191970" stroke="#191970" points="781.7056,-479.4837 771.205,-480.8937 780.293,-486.3397 781.7056,-479.4837"/>
</g>
<!-- Node21 -->
<g id="node22" class="node">
<title>Node21</title>
<g id="a_node22"><a xlink:href="classBoundary.html" target="_top" xlink:title="Boundary\&lt; dim, spacedim \&gt;">
<polygon fill="#ffffff" stroke="#000000" points="626.2334,-230.5 626.2334,-248.5 766.7451,-248.5 766.7451,-230.5 626.2334,-230.5"/>
<text text-anchor="middle" x="696.4893" y="-236.5" font-family="Helvetica,sans-Serif" font-size="10.00" fill="#000000">Boundary&lt; dim, spacedim &gt;</text>
</a>
</g>
</g>
<!-- Node20&#45;&gt;Node21 -->
<g id="edge30" class="edge">
<title>Node20&#45;&gt;Node21</title>
<path fill="none" stroke="#191970" d="M442.687,-161.5218C508.3888,-181.708 615.4671,-214.6068 666.9771,-230.4327"/>
<polygon fill="#191970" stroke="#191970" points="443.4958,-158.1089 432.9089,-158.5176 441.4399,-164.8002 443.4958,-158.1089"/>
</g>
<!-- Node36 -->
<g id="node34" class="node">
<title>Node36</title>
<g id="a_node34"><a xlink:href="classBoundary.html" target="_top" xlink:title="Boundary\&lt; dim, dim \&gt;">
<polygon fill="#ffffff" stroke="#000000" points="906.5269,-118.5 906.5269,-136.5 1020.354,-136.5 1020.354,-118.5 906.5269,-118.5"/>
<text text-anchor="middle" x="963.4404" y="-124.5" font-family="Helvetica,sans-Serif" font-size="10.00" fill="#000000">Boundary&lt; dim, dim &gt;</text>
</a>
</g>
</g>
<!-- Node20&#45;&gt;Node36 -->
<g id="edge46" class="edge">
<title>Node20&#45;&gt;Node36</title>
<path fill="none" stroke="#191970" d="M446.7012,-142.876C489.7409,-141.6903 549.3233,-140.0293 601.7051,-138.5 709.4132,-135.3554 835.1544,-131.4873 906.4283,-129.2764"/>
<polygon fill="#191970" stroke="#191970" points="446.5809,-139.3779 436.681,-143.1518 446.7736,-146.3753 446.5809,-139.3779"/>
</g>
<!-- Node20&#45;&gt;Node37 -->
<g id="edge47" class="edge">
<title>Node20&#45;&gt;Node37</title>
<path fill="none" stroke="#ffa500" stroke-dasharray="5,2" d="M446.7776,-130.8167C451.1381,-129.9789 455.4777,-129.1951 459.6934,-128.5 519.2708,-118.6764 587.9121,-111.6012 635.9008,-107.3347"/>
<polygon fill="#ffa500" stroke="#ffa500" points="445.7311,-127.4567 436.6136,-132.8532 447.1064,-134.3203 445.7311,-127.4567"/>
<text text-anchor="middle" x="530.6992" y="-130.5" font-family="Helvetica,sans-Serif" font-size="10.00" fill="#000000"> &lt; chartdim, chartdim &gt;</text>
</g>
<!-- Node22 -->
<g id="node23" class="node">
<title>Node22</title>
<g id="a_node23"><a xlink:href="classOpenCASCADE_1_1DirectionalProjectionBoundary.html" target="_top" xlink:title="OpenCASCADE::Directional\lProjectionBoundary\&lt; dim,\l spacedim \&gt;">
<polygon fill="#ffffff" stroke="#000000" points="892.6377,-155.5 892.6377,-193.5 1034.2432,-193.5 1034.2432,-155.5 892.6377,-155.5"/>
<text text-anchor="start" x="900.6377" y="-181.5" font-family="Helvetica,sans-Serif" font-size="10.00" fill="#000000">OpenCASCADE::Directional</text>
<text text-anchor="start" x="900.6377" y="-171.5" font-family="Helvetica,sans-Serif" font-size="10.00" fill="#000000">ProjectionBoundary&lt; dim,</text>
<text text-anchor="middle" x="963.4404" y="-161.5" font-family="Helvetica,sans-Serif" font-size="10.00" fill="#000000"> spacedim &gt;</text>
</a>
</g>
</g>
<!-- Node21&#45;&gt;Node22 -->
<g id="edge31" class="edge">
<title>Node21&#45;&gt;Node22</title>
<path fill="none" stroke="#191970" d="M743.4038,-228.0768C784.6829,-218.0257 845.3849,-203.2454 892.5814,-191.7535"/>
<polygon fill="#191970" stroke="#191970" points="742.4958,-224.6955 733.6077,-230.462 744.1519,-231.4968 742.4958,-224.6955"/>
</g>
<!-- Node23 -->
<g id="node24" class="node">
<title>Node23</title>
<g id="a_node24"><a xlink:href="classOpenCASCADE_1_1NormalProjectionBoundary.html" target="_top" xlink:title="OpenCASCADE::NormalProjection\lBoundary\&lt; dim, spacedim \&gt;">
<polygon fill="#ffffff" stroke="#000000" points="877.9111,-402.5 877.9111,-430.5 1048.9697,-430.5 1048.9697,-402.5 877.9111,-402.5"/>
<text text-anchor="start" x="885.9111" y="-418.5" font-family="Helvetica,sans-Serif" font-size="10.00" fill="#000000">OpenCASCADE::NormalProjection</text>
<text text-anchor="middle" x="963.4404" y="-408.5" font-family="Helvetica,sans-Serif" font-size="10.00" fill="#000000">Boundary&lt; dim, spacedim &gt;</text>
</a>
</g>
</g>
<!-- Node21&#45;&gt;Node23 -->
<g id="edge32" class="edge">
<title>Node21&#45;&gt;Node23</title>
<path fill="none" stroke="#191970" d="M763.3324,-253.3985C766.9593,-255.7073 770.3202,-258.3882 773.2734,-261.5 797.7651,-287.3058 771.3703,-310.0103 791.2734,-339.5 814.2695,-373.5723 829.6581,-375.4708 867.0713,-392.5 875.5453,-396.3571 884.7323,-399.6549 893.9544,-402.4576"/>
<polygon fill="#191970" stroke="#191970" points="764.9238,-250.2806 754.4538,-248.659 761.6274,-256.4558 764.9238,-250.2806"/>
</g>
<!-- Node24 -->
<g id="node25" class="node">
<title>Node24</title>
<g id="a_node25"><a xlink:href="classOpenCASCADE_1_1NormalToMeshProjectionBoundary.html" target="_top" xlink:title="OpenCASCADE::NormalToMesh\lProjectionBoundary\&lt; dim,\l spacedim \&gt;">
<polygon fill="#ffffff" stroke="#000000" points="882.6377,-345.5 882.6377,-383.5 1044.2432,-383.5 1044.2432,-345.5 882.6377,-345.5"/>
<text text-anchor="start" x="890.6377" y="-371.5" font-family="Helvetica,sans-Serif" font-size="10.00" fill="#000000">OpenCASCADE::NormalToMesh</text>
<text text-anchor="start" x="890.6377" y="-361.5" font-family="Helvetica,sans-Serif" font-size="10.00" fill="#000000">ProjectionBoundary&lt; dim,</text>
<text text-anchor="middle" x="963.4404" y="-351.5" font-family="Helvetica,sans-Serif" font-size="10.00" fill="#000000"> spacedim &gt;</text>
</a>
</g>
</g>
<!-- Node21&#45;&gt;Node24 -->
<g id="edge33" class="edge">
<title>Node21&#45;&gt;Node24</title>
<path fill="none" stroke="#191970" d="M761.1313,-252.9185C765.5173,-255.3261 769.6321,-258.1615 773.2734,-261.5 789.7609,-276.6165 775.2714,-292.8705 791.2734,-308.5 815.7827,-332.4388 850.6329,-346.1444 882.5748,-353.9912"/>
<polygon fill="#191970" stroke="#191970" points="762.3527,-249.6257 751.8123,-248.5531 759.3833,-255.9647 762.3527,-249.6257"/>
</g>
<!-- Node25 -->
<g id="node26" class="node">
<title>Node25</title>
<g id="a_node26"><a xlink:href="classStraightBoundary.html" target="_top" xlink:title="StraightBoundary\&lt; dim,\l spacedim \&gt;">
<polygon fill="#ffffff" stroke="#000000" points="903.0503,-298.5 903.0503,-326.5 1023.8306,-326.5 1023.8306,-298.5 903.0503,-298.5"/>
<text text-anchor="start" x="911.0503" y="-314.5" font-family="Helvetica,sans-Serif" font-size="10.00" fill="#000000">StraightBoundary&lt; dim,</text>
<text text-anchor="middle" x="963.4404" y="-304.5" font-family="Helvetica,sans-Serif" font-size="10.00" fill="#000000"> spacedim &gt;</text>
</a>
</g>
</g>
<!-- Node21&#45;&gt;Node25 -->
<g id="edge34" class="edge">
<title>Node21&#45;&gt;Node25</title>
<path fill="none" stroke="#191970" d="M754.7592,-252.0563C761.2692,-254.6472 767.5921,-257.761 773.2734,-261.5 783.8266,-268.4451 780.3475,-277.1573 791.2734,-283.5 824.9587,-303.0549 868.2058,-310.2852 902.9283,-312.6368"/>
<polygon fill="#191970" stroke="#191970" points="755.7349,-248.6883 745.1403,-248.6224 753.3814,-255.2808 755.7349,-248.6883"/>
</g>
<!-- Node32 -->
<g id="node30" class="node">
<title>Node32</title>
<g id="a_node30"><a xlink:href="classStraightBoundary.html" target="_top" xlink:title="StraightBoundary\&lt; dim,\l dim \&gt;">
<polygon fill="#ffffff" stroke="#000000" points="1156.5273,-288.5 1156.5273,-316.5 1277.3076,-316.5 1277.3076,-288.5 1156.5273,-288.5"/>
<text text-anchor="start" x="1164.5273" y="-304.5" font-family="Helvetica,sans-Serif" font-size="10.00" fill="#000000">StraightBoundary&lt; dim,</text>
<text text-anchor="middle" x="1216.9175" y="-294.5" font-family="Helvetica,sans-Serif" font-size="10.00" fill="#000000"> dim &gt;</text>
</a>
</g>
</g>
<!-- Node21&#45;&gt;Node32 -->
<g id="edge42" class="edge">
<title>Node21&#45;&gt;Node32</title>
<path fill="none" stroke="#191970" d="M776.9514,-246.3018C884.3259,-255.5968 1068.7038,-272.3795 1135.6074,-283.5 1143.9017,-284.8786 1152.6113,-286.6079 1161.1223,-288.4581"/>
<polygon fill="#191970" stroke="#191970" points="777.0712,-242.7992 766.8072,-245.4261 776.4691,-249.7733 777.0712,-242.7992"/>
</g>
<!-- Node35 -->
<g id="node33" class="node">
<title>Node35</title>
<g id="a_node33"><a xlink:href="classTorusBoundary.html" target="_top" xlink:title="TorusBoundary\&lt; dim,\l spacedim \&gt;">
<polygon fill="#ffffff" stroke="#000000" points="908.0552,-212.5 908.0552,-240.5 1018.8257,-240.5 1018.8257,-212.5 908.0552,-212.5"/>
<text text-anchor="start" x="916.0552" y="-228.5" font-family="Helvetica,sans-Serif" font-size="10.00" fill="#000000">TorusBoundary&lt; dim,</text>
<text text-anchor="middle" x="963.4404" y="-218.5" font-family="Helvetica,sans-Serif" font-size="10.00" fill="#000000"> spacedim &gt;</text>
</a>
</g>
</g>
<!-- Node21&#45;&gt;Node35 -->
<g id="edge43" class="edge">
<title>Node21&#45;&gt;Node35</title>
<path fill="none" stroke="#191970" d="M777.2317,-235.568C819.4284,-233.5131 870.0038,-231.0502 907.7903,-229.2101"/>
<polygon fill="#191970" stroke="#191970" points="776.7946,-232.085 766.9767,-236.0674 777.1352,-239.0768 776.7946,-232.085"/>
</g>
<!-- Node21&#45;&gt;Node36 -->
<g id="edge44" class="edge">
<title>Node21&#45;&gt;Node36</title>
<path fill="none" stroke="#ffa500" stroke-dasharray="5,2" d="M722.0097,-225.4807C740.9625,-215.206 767.5304,-201.0886 791.2734,-189.5 816.5866,-177.145 825.8885,-179.4988 849.0713,-163.5 858.3829,-157.0739 857.0625,-150.7748 867.0713,-145.5 879.1169,-139.1518 893.0451,-135.0134 906.5029,-132.3236"/>
<polygon fill="#ffa500" stroke="#ffa500" points="720.2149,-222.4728 713.106,-230.3286 723.5623,-228.6205 720.2149,-222.4728"/>
<text text-anchor="middle" x="820.1724" y="-191.5" font-family="Helvetica,sans-Serif" font-size="10.00" fill="#000000"> &lt; dim, dim &gt;</text>
</g>
<!-- Node26 -->
<g id="node27" class="node">
<title>Node26</title>
<g id="a_node27"><a xlink:href="classCylinderBoundary.html" target="_top" xlink:title="CylinderBoundary\&lt; dim,\l spacedim \&gt;">
<polygon fill="#ffffff" stroke="#000000" points="1155.4189,-382.5 1155.4189,-410.5 1278.416,-410.5 1278.416,-382.5 1155.4189,-382.5"/>
<text text-anchor="start" x="1163.4189" y="-398.5" font-family="Helvetica,sans-Serif" font-size="10.00" fill="#000000">CylinderBoundary&lt; dim,</text>
<text text-anchor="middle" x="1216.9175" y="-388.5" font-family="Helvetica,sans-Serif" font-size="10.00" fill="#000000"> spacedim &gt;</text>
</a>
</g>
</g>
<!-- Node25&#45;&gt;Node26 -->
<g id="edge35" class="edge">
<title>Node25&#45;&gt;Node26</title>
<path fill="none" stroke="#191970" d="M1033.7477,-325.8591C1042.7034,-328.5483 1051.5996,-331.7359 1059.8096,-335.5 1068.78,-339.6128 1069.0513,-343.9529 1077.8096,-348.5 1105.2454,-362.7441 1137.823,-374.2465 1164.5526,-382.4167"/>
<polygon fill="#191970" stroke="#191970" points="1034.61,-322.4659 1024.0361,-323.1329 1032.718,-329.2054 1034.61,-322.4659"/>
</g>
<!-- Node27 -->
<g id="node28" class="node">
<title>Node27</title>
<g id="a_node28"><a xlink:href="classHyperBallBoundary.html" target="_top" xlink:title="HyperBallBoundary\&lt;\l dim, spacedim \&gt;">
<polygon fill="#ffffff" stroke="#000000" points="1162.9189,-335.5 1162.9189,-363.5 1270.916,-363.5 1270.916,-335.5 1162.9189,-335.5"/>
<text text-anchor="start" x="1170.9189" y="-351.5" font-family="Helvetica,sans-Serif" font-size="10.00" fill="#000000">HyperBallBoundary&lt;</text>
<text text-anchor="middle" x="1216.9175" y="-341.5" font-family="Helvetica,sans-Serif" font-size="10.00" fill="#000000"> dim, spacedim &gt;</text>
</a>
</g>
</g>
<!-- Node25&#45;&gt;Node27 -->
<g id="edge36" class="edge">
<title>Node25&#45;&gt;Node27</title>
<path fill="none" stroke="#191970" d="M1033.8985,-323.0269C1048.4174,-325.1809 1063.6077,-327.4236 1077.8096,-329.5 1105.8147,-333.5945 1137.0021,-338.0848 1162.7378,-341.7716"/>
<polygon fill="#191970" stroke="#191970" points="1034.3804,-319.5601 1023.9747,-321.5529 1033.3519,-326.4842 1034.3804,-319.5601"/>
</g>
<!-- Node25&#45;&gt;Node32 -->
<g id="edge38" class="edge">
<title>Node25&#45;&gt;Node32</title>
<path fill="none" stroke="#ffa500" stroke-dasharray="5,2" d="M1034.3716,-315.2378C1065.4701,-315.8379 1102.3827,-315.7372 1135.6074,-313.5 1142.2874,-313.0502 1149.2553,-312.3948 1156.1802,-311.6244"/>
<polygon fill="#ffa500" stroke="#ffa500" points="1034.1368,-311.7319 1024.0618,-315.0096 1033.9818,-318.7302 1034.1368,-311.7319"/>
<text text-anchor="middle" x="1106.7085" y="-317.5" font-family="Helvetica,sans-Serif" font-size="10.00" fill="#000000"> &lt; dim, dim &gt;</text>
</g>
<!-- Node33 -->
<g id="node31" class="node">
<title>Node33</title>
<g id="a_node31"><a xlink:href="classStraightBoundary.html" target="_top" xlink:title="StraightBoundary\&lt; dim \&gt;">
<polygon fill="#ffffff" stroke="#000000" points="1153.6074,-249.5 1153.6074,-267.5 1280.2275,-267.5 1280.2275,-249.5 1153.6074,-249.5"/>
<text text-anchor="middle" x="1216.9175" y="-255.5" font-family="Helvetica,sans-Serif" font-size="10.00" fill="#000000">StraightBoundary&lt; dim &gt;</text>
</a>
</g>
</g>
<!-- Node25&#45;&gt;Node33 -->
<g id="edge40" class="edge">
<title>Node25&#45;&gt;Node33</title>
<path fill="none" stroke="#ffa500" stroke-dasharray="5,2" d="M1033.8559,-297.4989C1078.9971,-287.8821 1136.1053,-275.716 1174.4281,-267.5518"/>
<polygon fill="#ffa500" stroke="#ffa500" points="1032.8837,-294.1274 1023.8325,-299.6343 1034.3423,-300.9738 1032.8837,-294.1274"/>
<text text-anchor="middle" x="1106.7085" y="-289.5" font-family="Helvetica,sans-Serif" font-size="10.00" fill="#000000"> &lt; dim &gt;</text>
</g>
<!-- Node28 -->
<g id="node29" class="node">
<title>Node28</title>
<g id="a_node29"><a xlink:href="classHyperBallBoundary.html" target="_top" xlink:title="HyperBallBoundary\&lt;\l dim \&gt;">
<polygon fill="#ffffff" stroke="#ff0000" points="1356.3887,-307.5 1356.3887,-335.5 1464.3857,-335.5 1464.3857,-307.5 1356.3887,-307.5"/>
<text text-anchor="start" x="1364.3887" y="-323.5" font-family="Helvetica,sans-Serif" font-size="10.00" fill="#000000">HyperBallBoundary&lt;</text>
<text text-anchor="middle" x="1410.3872" y="-313.5" font-family="Helvetica,sans-Serif" font-size="10.00" fill="#000000"> dim &gt;</text>
</a>
</g>
</g>
<!-- Node27&#45;&gt;Node28 -->
<g id="edge37" class="edge">
<title>Node27&#45;&gt;Node28</title>
<path fill="none" stroke="#ffa500" stroke-dasharray="5,2" d="M1281.2746,-340.1859C1305.5821,-336.668 1332.9727,-332.7038 1356.2509,-329.3349"/>
<polygon fill="#ffa500" stroke="#ffa500" points="1280.4624,-336.7669 1271.0668,-341.6632 1281.4651,-343.6947 1280.4624,-336.7669"/>
<text text-anchor="middle" x="1316.2915" y="-339.5" font-family="Helvetica,sans-Serif" font-size="10.00" fill="#000000"> &lt; dim &gt;</text>
</g>
<!-- Node32&#45;&gt;Node28 -->
<g id="edge39" class="edge">
<title>Node32&#45;&gt;Node28</title>
<path fill="none" stroke="#191970" d="M1287.5937,-309.4409C1310.2772,-311.6685 1335.0264,-314.0991 1356.3243,-316.1907"/>
<polygon fill="#191970" stroke="#191970" points="1287.6309,-305.9278 1277.3367,-308.4336 1286.9467,-312.8943 1287.6309,-305.9278"/>
</g>
<!-- Node34 -->
<g id="node32" class="node">
<title>Node34</title>
<g id="a_node32"><a xlink:href="classConeBoundary.html" target="_top" xlink:title="ConeBoundary\&lt; dim \&gt;">
<polygon fill="#ffffff" stroke="#000000" points="1352.3555,-249.5 1352.3555,-267.5 1468.4189,-267.5 1468.4189,-249.5 1352.3555,-249.5"/>
<text text-anchor="middle" x="1410.3872" y="-255.5" font-family="Helvetica,sans-Serif" font-size="10.00" fill="#000000">ConeBoundary&lt; dim &gt;</text>
</a>
</g>
</g>
<!-- Node33&#45;&gt;Node34 -->
<g id="edge41" class="edge">
<title>Node33&#45;&gt;Node34</title>
<path fill="none" stroke="#191970" d="M1290.4644,-258.5C1310.8685,-258.5 1332.7353,-258.5 1352.135,-258.5"/>
<polygon fill="#191970" stroke="#191970" points="1290.2667,-255.0001 1280.2667,-258.5 1290.2667,-262.0001 1290.2667,-255.0001"/>
</g>
<!-- Node36&#45;&gt;Node33 -->
<g id="edge45" class="edge">
<title>Node36&#45;&gt;Node33</title>
<path fill="none" stroke="#191970" d="M1030.4739,-136.0735C1040.5233,-138.4803 1050.596,-141.5601 1059.8096,-145.5 1122.5205,-172.3167 1184.5652,-227.6581 1207.5676,-249.4235"/>
<polygon fill="#191970" stroke="#191970" points="1030.9819,-132.6019 1020.465,-133.884 1029.486,-139.4402 1030.9819,-132.6019"/>
</g>
</g>
</svg>
