<?xml version="1.0" encoding="UTF-8" standalone="no"?>
<!DOCTYPE svg PUBLIC "-//W3C//DTD SVG 1.1//EN"
 "http://www.w3.org/Graphics/SVG/1.1/DTD/svg11.dtd">
<!-- Generated by graphviz version 2.40.1 (20161225.0304)
 -->
<!-- Title: DataPostprocessorScalar&lt; dim &gt; Pages: 1 -->
<svg width="137pt" height="157pt"
 viewBox="0.00 0.00 137.38 157.00" xmlns="http://www.w3.org/2000/svg" xmlns:xlink="http://www.w3.org/1999/xlink">
<g id="graph0" class="graph" transform="scale(1 1) rotate(0) translate(4 153)">
<title>DataPostprocessorScalar&lt; dim &gt;</title>
<polygon fill="#ffffff" stroke="transparent" points="-4,4 -4,-153 133.3838,-153 133.3838,4 -4,4"/>
<!-- Node0 -->
<g id="node1" class="node">
<title>Node0</title>
<polygon fill="#bfbfbf" stroke="#000000" points="0,-.5 0,-28.5 129.3838,-28.5 129.3838,-.5 0,-.5"/>
<text text-anchor="start" x="8" y="-16.5" font-family="Helvetica,sans-Serif" font-size="10.00" fill="#000000">DataPostprocessorScalar</text>
<text text-anchor="middle" x="64.6919" y="-6.5" font-family="Helvetica,sans-Serif" font-size="10.00" fill="#000000">&lt; dim &gt;</text>
</g>
<!-- Node1 -->
<g id="node2" class="node">
<title>Node1</title>
<g id="a_node2"><a xlink:href="classDataPostprocessor.html" target="_top" xlink:title="DataPostprocessor\&lt;\l dim \&gt;">
<polygon fill="#ffffff" stroke="#000000" points="11.2524,-65.5 11.2524,-93.5 118.1313,-93.5 118.1313,-65.5 11.2524,-65.5"/>
<text text-anchor="start" x="19.2524" y="-81.5" font-family="Helvetica,sans-Serif" font-size="10.00" fill="#000000">DataPostprocessor&lt;</text>
<text text-anchor="middle" x="64.6919" y="-71.5" font-family="Helvetica,sans-Serif" font-size="10.00" fill="#000000"> dim &gt;</text>
</a>
</g>
</g>
<!-- Node1&#45;&gt;Node0 -->
<g id="edge1" class="edge">
<title>Node1&#45;&gt;Node0</title>
<path fill="none" stroke="#191970" d="M64.6919,-55.1081C64.6919,-46.1539 64.6919,-36.3227 64.6919,-28.5765"/>
<polygon fill="#191970" stroke="#191970" points="61.192,-55.3959 64.6919,-65.396 68.192,-55.396 61.192,-55.3959"/>
</g>
<!-- Node2 -->
<g id="node3" class="node">
<title>Node2</title>
<g id="a_node3"><a xlink:href="classSubscriptor.html" target="_top" xlink:title="Subscriptor">
<polygon fill="#ffffff" stroke="#000000" points="31.4038,-130.5 31.4038,-148.5 97.98,-148.5 97.98,-130.5 31.4038,-130.5"/>
<text text-anchor="middle" x="64.6919" y="-136.5" font-family="Helvetica,sans-Serif" font-size="10.00" fill="#000000">Subscriptor</text>
</a>
</g>
</g>
<!-- Node2&#45;&gt;Node1 -->
<g id="edge2" class="edge">
<title>Node2&#45;&gt;Node1</title>
<path fill="none" stroke="#191970" d="M64.6919,-120.1865C64.6919,-111.6283 64.6919,-101.7354 64.6919,-93.8477"/>
<polygon fill="#191970" stroke="#191970" points="61.192,-120.3873 64.6919,-130.3873 68.192,-120.3873 61.192,-120.3873"/>
</g>
</g>
</svg>
