<?xml version="1.0" encoding="UTF-8" standalone="no"?>
<!DOCTYPE svg PUBLIC "-//W3C//DTD SVG 1.1//EN"
 "http://www.w3.org/Graphics/SVG/1.1/DTD/svg11.dtd">
<!-- Generated by graphviz version 2.40.1 (20161225.0304)
 -->
<!-- Title: DoFAccessor&lt; structdim, DoFHandlerType, level_dof_access &gt; Pages: 1 -->
<svg width="1065pt" height="68pt"
 viewBox="0.00 0.00 1065.27 67.50" xmlns="http://www.w3.org/2000/svg" xmlns:xlink="http://www.w3.org/1999/xlink">
<g id="graph0" class="graph" transform="scale(1 1) rotate(0) translate(4 63.5)">
<title>DoFAccessor&lt; structdim, DoFHandlerType, level_dof_access &gt;</title>
<polygon fill="#ffffff" stroke="transparent" points="-4,4 -4,-63.5 1061.2734,-63.5 1061.2734,4 -4,4"/>
<!-- Node0 -->
<g id="node1" class="node">
<title>Node0</title>
<polygon fill="#bfbfbf" stroke="#000000" points="400.4873,-10.5 400.4873,-48.5 527.9131,-48.5 527.9131,-10.5 400.4873,-10.5"/>
<text text-anchor="start" x="408.4873" y="-36.5" font-family="Helvetica,sans-Serif" font-size="10.00" fill="#000000">DoFAccessor&lt; structdim,</text>
<text text-anchor="start" x="408.4873" y="-26.5" font-family="Helvetica,sans-Serif" font-size="10.00" fill="#000000"> DoFHandlerType, level</text>
<text text-anchor="middle" x="464.2002" y="-16.5" font-family="Helvetica,sans-Serif" font-size="10.00" fill="#000000">_dof_access &gt;</text>
</g>
<!-- Node3 -->
<g id="node4" class="node">
<title>Node3</title>
<g id="a_node4"><a xlink:href="classDoFAccessor.html" target="_top" xlink:title="DoFAccessor\&lt; DoFHandlerType\l::dimension, DoFHandlerType,\l level_dof_access \&gt;">
<polygon fill="#ffffff" stroke="#000000" points="704.8213,-10.5 704.8213,-48.5 864.5029,-48.5 864.5029,-10.5 704.8213,-10.5"/>
<text text-anchor="start" x="712.8213" y="-36.5" font-family="Helvetica,sans-Serif" font-size="10.00" fill="#000000">DoFAccessor&lt; DoFHandlerType</text>
<text text-anchor="start" x="712.8213" y="-26.5" font-family="Helvetica,sans-Serif" font-size="10.00" fill="#000000">::dimension, DoFHandlerType,</text>
<text text-anchor="middle" x="784.6621" y="-16.5" font-family="Helvetica,sans-Serif" font-size="10.00" fill="#000000"> level_dof_access &gt;</text>
</a>
</g>
</g>
<!-- Node0&#45;&gt;Node3 -->
<g id="edge3" class="edge">
<title>Node0&#45;&gt;Node3</title>
<path fill="none" stroke="#ffa500" stroke-dasharray="5,2" d="M538.3434,-29.5C588.1695,-29.5 653.792,-29.5 704.7742,-29.5"/>
<polygon fill="#ffa500" stroke="#ffa500" points="538.2803,-26.0001 528.2802,-29.5 538.2802,-33.0001 538.2803,-26.0001"/>
<text text-anchor="start" x="545.9131" y="-51.5" font-family="Helvetica,sans-Serif" font-size="10.00" fill="#000000"> &lt; DoFHandlerType::dimension,</text>
<text text-anchor="start" x="545.9131" y="-41.5" font-family="Helvetica,sans-Serif" font-size="10.00" fill="#000000"> DoFHandlerType, level_dof</text>
<text text-anchor="middle" x="616.3672" y="-31.5" font-family="Helvetica,sans-Serif" font-size="10.00" fill="#000000">_access &gt;</text>
</g>
<!-- Node1 -->
<g id="node2" class="node">
<title>Node1</title>
<g id="a_node2"><a xlink:href="classTriaAccessor.html" target="_top" xlink:title="internal::DoFAccessor\l::Inheritance\&lt; structdim,\l DoFHandlerType::dimension,\l DoFHandlerType::space_dimension\l \&gt;::BaseClass">
<polygon fill="#ffffff" stroke="#000000" points="185.7295,-.5 185.7295,-58.5 363.4873,-58.5 363.4873,-.5 185.7295,-.5"/>
<text text-anchor="start" x="193.7295" y="-46.5" font-family="Helvetica,sans-Serif" font-size="10.00" fill="#000000">internal::DoFAccessor</text>
<text text-anchor="start" x="193.7295" y="-36.5" font-family="Helvetica,sans-Serif" font-size="10.00" fill="#000000">::Inheritance&lt; structdim,</text>
<text text-anchor="start" x="193.7295" y="-26.5" font-family="Helvetica,sans-Serif" font-size="10.00" fill="#000000"> DoFHandlerType::dimension,</text>
<text text-anchor="start" x="193.7295" y="-16.5" font-family="Helvetica,sans-Serif" font-size="10.00" fill="#000000"> DoFHandlerType::space_dimension</text>
<text text-anchor="middle" x="274.6084" y="-6.5" font-family="Helvetica,sans-Serif" font-size="10.00" fill="#000000"> &gt;::BaseClass</text>
</a>
</g>
</g>
<!-- Node1&#45;&gt;Node0 -->
<g id="edge1" class="edge">
<title>Node1&#45;&gt;Node0</title>
<path fill="none" stroke="#191970" d="M373.7688,-29.5C382.7928,-29.5 391.764,-29.5 400.3543,-29.5"/>
<polygon fill="#191970" stroke="#191970" points="373.5754,-26.0001 363.5754,-29.5 373.5754,-33.0001 373.5754,-26.0001"/>
</g>
<!-- Node2 -->
<g id="node3" class="node">
<title>Node2</title>
<g id="a_node3"><a xlink:href="classTriaAccessorBase.html" target="_top" xlink:title="TriaAccessorBase\&lt; structdim,\l dim, spacedim \&gt;">
<polygon fill="#ffffff" stroke="#000000" points="0,-15.5 0,-43.5 148.7295,-43.5 148.7295,-15.5 0,-15.5"/>
<text text-anchor="start" x="8" y="-31.5" font-family="Helvetica,sans-Serif" font-size="10.00" fill="#000000">TriaAccessorBase&lt; structdim,</text>
<text text-anchor="middle" x="74.3647" y="-21.5" font-family="Helvetica,sans-Serif" font-size="10.00" fill="#000000"> dim, spacedim &gt;</text>
</a>
</g>
</g>
<!-- Node2&#45;&gt;Node1 -->
<g id="edge2" class="edge">
<title>Node2&#45;&gt;Node1</title>
<path fill="none" stroke="#191970" d="M159.0731,-29.5C167.7915,-29.5 176.6698,-29.5 185.4347,-29.5"/>
<polygon fill="#191970" stroke="#191970" points="158.9281,-26.0001 148.9281,-29.5 158.9281,-33.0001 158.9281,-26.0001"/>
</g>
<!-- Node4 -->
<g id="node5" class="node">
<title>Node4</title>
<g id="a_node5"><a xlink:href="classDoFCellAccessor.html" target="_top" xlink:title="DoFCellAccessor\&lt; DoFHandler\lType, level_dof_access \&gt;">
<polygon fill="#ffffff" stroke="#000000" points="901.5029,-15.5 901.5029,-43.5 1057.2734,-43.5 1057.2734,-15.5 901.5029,-15.5"/>
<text text-anchor="start" x="909.5029" y="-31.5" font-family="Helvetica,sans-Serif" font-size="10.00" fill="#000000">DoFCellAccessor&lt; DoFHandler</text>
<text text-anchor="middle" x="979.3882" y="-21.5" font-family="Helvetica,sans-Serif" font-size="10.00" fill="#000000">Type, level_dof_access &gt;</text>
</a>
</g>
</g>
<!-- Node3&#45;&gt;Node4 -->
<g id="edge4" class="edge">
<title>Node3&#45;&gt;Node4</title>
<path fill="none" stroke="#191970" d="M874.9559,-29.5C883.7306,-29.5 892.5823,-29.5 901.2239,-29.5"/>
<polygon fill="#191970" stroke="#191970" points="874.7077,-26.0001 864.7076,-29.5 874.7076,-33.0001 874.7077,-26.0001"/>
</g>
</g>
</svg>
