<?xml version="1.0" encoding="UTF-8" standalone="no"?>
<!DOCTYPE svg PUBLIC "-//W3C//DTD SVG 1.1//EN"
 "http://www.w3.org/Graphics/SVG/1.1/DTD/svg11.dtd">
<!-- Generated by graphviz version 2.40.1 (20161225.0304)
 -->
<!-- Title: MGTransferSelect&lt; number &gt; Pages: 1 -->
<svg width="298pt" height="214pt"
 viewBox="0.00 0.00 298.10 214.00" xmlns="http://www.w3.org/2000/svg" xmlns:xlink="http://www.w3.org/1999/xlink">
<g id="graph0" class="graph" transform="scale(1 1) rotate(0) translate(4 210)">
<title>MGTransferSelect&lt; number &gt;</title>
<polygon fill="#ffffff" stroke="transparent" points="-4,4 -4,-210 294.1025,-210 294.1025,4 -4,4"/>
<!-- Node0 -->
<g id="node1" class="node">
<title>Node0</title>
<polygon fill="#bfbfbf" stroke="#000000" points="67.415,-.5 67.415,-18.5 215.3242,-18.5 215.3242,-.5 67.415,-.5"/>
<text text-anchor="middle" x="141.3696" y="-6.5" font-family="Helvetica,sans-Serif" font-size="10.00" fill="#000000">MGTransferSelect&lt; number &gt;</text>
</g>
<!-- Node1 -->
<g id="node2" class="node">
<title>Node1</title>
<g id="a_node2"><a xlink:href="classMGTransferBase.html" target="_top" xlink:title="MGTransferBase\&lt; Vector\l\&lt; number \&gt; \&gt;">
<polygon fill="#ffffff" stroke="#000000" points="0,-56.5 0,-84.5 128.7393,-84.5 128.7393,-56.5 0,-56.5"/>
<text text-anchor="start" x="8" y="-72.5" font-family="Helvetica,sans-Serif" font-size="10.00" fill="#000000">MGTransferBase&lt; Vector</text>
<text text-anchor="middle" x="64.3696" y="-62.5" font-family="Helvetica,sans-Serif" font-size="10.00" fill="#000000">&lt; number &gt; &gt;</text>
</a>
</g>
</g>
<!-- Node1&#45;&gt;Node0 -->
<g id="edge1" class="edge">
<title>Node1&#45;&gt;Node0</title>
<path fill="none" stroke="#191970" d="M90.1718,-50.0593C103.5119,-39.4912 119.1423,-27.1086 129.5912,-18.831"/>
<polygon fill="#191970" stroke="#191970" points="87.8935,-47.3989 82.2285,-56.3521 92.2403,-52.8858 87.8935,-47.3989"/>
</g>
<!-- Node2 -->
<g id="node3" class="node">
<title>Node2</title>
<g id="a_node3"><a xlink:href="classSubscriptor.html" target="_top" xlink:title="Subscriptor">
<polygon fill="#ffffff" stroke="#000000" points="27.0815,-187.5 27.0815,-205.5 93.6577,-205.5 93.6577,-187.5 27.0815,-187.5"/>
<text text-anchor="middle" x="60.3696" y="-193.5" font-family="Helvetica,sans-Serif" font-size="10.00" fill="#000000">Subscriptor</text>
</a>
</g>
</g>
<!-- Node2&#45;&gt;Node1 -->
<g id="edge2" class="edge">
<title>Node2&#45;&gt;Node1</title>
<path fill="none" stroke="#191970" d="M60.9827,-177.1897C61.7923,-151.6844 63.1995,-107.3578 63.9186,-84.7089"/>
<polygon fill="#191970" stroke="#191970" points="57.4765,-177.3323 60.6573,-187.4384 64.4729,-177.5545 57.4765,-177.3323"/>
</g>
<!-- Node3 -->
<g id="node4" class="node">
<title>Node3</title>
<g id="a_node4"><a xlink:href="classMGTransferBase.html" target="_top" xlink:title="MGTransferBase\&lt; VectorType \&gt;">
<polygon fill="#ffffff" stroke="#000000" points="76.8486,-131.5 76.8486,-149.5 235.8906,-149.5 235.8906,-131.5 76.8486,-131.5"/>
<text text-anchor="middle" x="156.3696" y="-137.5" font-family="Helvetica,sans-Serif" font-size="10.00" fill="#000000">MGTransferBase&lt; VectorType &gt;</text>
</a>
</g>
</g>
<!-- Node2&#45;&gt;Node3 -->
<g id="edge4" class="edge">
<title>Node2&#45;&gt;Node3</title>
<path fill="none" stroke="#191970" d="M85.3331,-181.938C102.8826,-171.7008 125.8175,-158.3221 140.8122,-149.5752"/>
<polygon fill="#191970" stroke="#191970" points="83.0963,-179.1908 76.2221,-187.2527 86.6234,-185.2372 83.0963,-179.1908"/>
</g>
<!-- Node3&#45;&gt;Node1 -->
<g id="edge3" class="edge">
<title>Node3&#45;&gt;Node1</title>
<path fill="none" stroke="#ffa500" stroke-dasharray="5,2" d="M136.2545,-125.195C120.432,-113.1561 98.5516,-96.508 83.0981,-84.7499"/>
<polygon fill="#ffa500" stroke="#ffa500" points="134.2646,-128.0789 144.3422,-131.3487 138.5033,-122.5081 134.2646,-128.0789"/>
<text text-anchor="middle" x="169.1255" y="-105" font-family="Helvetica,sans-Serif" font-size="10.00" fill="#000000"> &lt; Vector&lt; number &gt; &gt;</text>
</g>
<!-- Node4 -->
<g id="node5" class="node">
<title>Node4</title>
<g id="a_node5"><a xlink:href="classMGTransferComponentBase.html" target="_top" xlink:title="MGTransferComponentBase">
<polygon fill="#ffffff" stroke="#000000" points="146.6367,-61.5 146.6367,-79.5 290.1025,-79.5 290.1025,-61.5 146.6367,-61.5"/>
<text text-anchor="middle" x="218.3696" y="-67.5" font-family="Helvetica,sans-Serif" font-size="10.00" fill="#000000">MGTransferComponentBase</text>
</a>
</g>
</g>
<!-- Node4&#45;&gt;Node0 -->
<g id="edge5" class="edge">
<title>Node4&#45;&gt;Node0</title>
<path fill="none" stroke="#8b1a1a" d="M199.0851,-55.2226C184.4997,-43.668 164.9663,-28.1935 152.7779,-18.5377"/>
<polygon fill="#8b1a1a" stroke="#8b1a1a" points="196.9962,-58.033 207.008,-61.4992 201.343,-52.5461 196.9962,-58.033"/>
</g>
</g>
</svg>
