<?xml version="1.0" encoding="UTF-8" standalone="no"?>
<!DOCTYPE svg PUBLIC "-//W3C//DTD SVG 1.1//EN"
 "http://www.w3.org/Graphics/SVG/1.1/DTD/svg11.dtd">
<!-- Generated by graphviz version 2.40.1 (20161225.0304)
 -->
<!-- Title: internal::Triangulation::TriaObjectsQuad3D Pages: 1 -->
<svg width="160pt" height="188pt"
 viewBox="0.00 0.00 159.65 188.00" xmlns="http://www.w3.org/2000/svg" xmlns:xlink="http://www.w3.org/1999/xlink">
<g id="graph0" class="graph" transform="scale(1 1) rotate(0) translate(4 184)">
<title>internal::Triangulation::TriaObjectsQuad3D</title>
<polygon fill="#ffffff" stroke="transparent" points="-4,4 -4,-184 155.6499,-184 155.6499,4 -4,4"/>
<!-- Node0 -->
<g id="node1" class="node">
<title>Node0</title>
<polygon fill="#bfbfbf" stroke="#000000" points="7.356,-.5 7.356,-28.5 119.1567,-28.5 119.1567,-.5 7.356,-.5"/>
<text text-anchor="start" x="15.356" y="-16.5" font-family="Helvetica,sans-Serif" font-size="10.00" fill="#000000">internal::Triangulation</text>
<text text-anchor="middle" x="63.2563" y="-6.5" font-family="Helvetica,sans-Serif" font-size="10.00" fill="#000000">::TriaObjectsQuad3D</text>
</g>
<!-- Node1 -->
<g id="node2" class="node">
<title>Node1</title>
<g id="a_node2"><a xlink:href="classinternal_1_1Triangulation_1_1TriaObjects.html" target="_top" xlink:title="internal::Triangulation\l::TriaObjects\&lt; TriaObject\l\&lt; 2 \&gt; \&gt;">
<polygon fill="#ffffff" stroke="#000000" points="0,-66.5 0,-104.5 126.5127,-104.5 126.5127,-66.5 0,-66.5"/>
<text text-anchor="start" x="8" y="-92.5" font-family="Helvetica,sans-Serif" font-size="10.00" fill="#000000">internal::Triangulation</text>
<text text-anchor="start" x="8" y="-82.5" font-family="Helvetica,sans-Serif" font-size="10.00" fill="#000000">::TriaObjects&lt; TriaObject</text>
<text text-anchor="middle" x="63.2563" y="-72.5" font-family="Helvetica,sans-Serif" font-size="10.00" fill="#000000">&lt; 2 &gt; &gt;</text>
</a>
</g>
</g>
<!-- Node1&#45;&gt;Node0 -->
<g id="edge1" class="edge">
<title>Node1&#45;&gt;Node0</title>
<path fill="none" stroke="#191970" d="M63.2563,-56.2143C63.2563,-46.768 63.2563,-36.7158 63.2563,-28.8465"/>
<polygon fill="#191970" stroke="#191970" points="59.7564,-56.4733 63.2563,-66.4733 66.7564,-56.4733 59.7564,-56.4733"/>
</g>
<!-- Node2 -->
<g id="node3" class="node">
<title>Node2</title>
<g id="a_node3"><a xlink:href="classinternal_1_1Triangulation_1_1TriaObjects.html" target="_top" xlink:title="internal::Triangulation\l::TriaObjects\&lt; G \&gt;">
<polygon fill="#ffffff" stroke="#000000" points="7.356,-151.5 7.356,-179.5 119.1567,-179.5 119.1567,-151.5 7.356,-151.5"/>
<text text-anchor="start" x="15.356" y="-167.5" font-family="Helvetica,sans-Serif" font-size="10.00" fill="#000000">internal::Triangulation</text>
<text text-anchor="middle" x="63.2563" y="-157.5" font-family="Helvetica,sans-Serif" font-size="10.00" fill="#000000">::TriaObjects&lt; G &gt;</text>
</a>
</g>
</g>
<!-- Node2&#45;&gt;Node1 -->
<g id="edge2" class="edge">
<title>Node2&#45;&gt;Node1</title>
<path fill="none" stroke="#ffa500" stroke-dasharray="5,2" d="M63.2563,-140.8555C63.2563,-129.2548 63.2563,-115.6226 63.2563,-104.7893"/>
<polygon fill="#ffa500" stroke="#ffa500" points="59.7564,-141.1976 63.2563,-151.1976 66.7564,-141.1976 59.7564,-141.1976"/>
<text text-anchor="middle" x="107.4531" y="-125" font-family="Helvetica,sans-Serif" font-size="10.00" fill="#000000"> &lt; TriaObject&lt; 2 &gt; &gt;</text>
</g>
</g>
</svg>
