<?xml version="1.0" encoding="UTF-8" standalone="no"?>
<!DOCTYPE svg PUBLIC "-//W3C//DTD SVG 1.1//EN"
 "http://www.w3.org/Graphics/SVG/1.1/DTD/svg11.dtd">
<!-- Generated by graphviz version 2.40.1 (20161225.0304)
 -->
<!-- Title: VectorView&lt; Number &gt; Pages: 1 -->
<svg width="127pt" height="137pt"
 viewBox="0.00 0.00 126.66 137.00" xmlns="http://www.w3.org/2000/svg" xmlns:xlink="http://www.w3.org/1999/xlink">
<g id="graph0" class="graph" transform="scale(1 1) rotate(0) translate(4 133)">
<title>VectorView&lt; Number &gt;</title>
<polygon fill="#ffffff" stroke="transparent" points="-4,4 -4,-133 122.6563,-133 122.6563,4 -4,4"/>
<!-- Node0 -->
<g id="node1" class="node">
<title>Node0</title>
<polygon fill="#bfbfbf" stroke="#000000" points="0,-.5 0,-18.5 118.6563,-18.5 118.6563,-.5 0,-.5"/>
<text text-anchor="middle" x="59.3281" y="-6.5" font-family="Helvetica,sans-Serif" font-size="10.00" fill="#000000">VectorView&lt; Number &gt;</text>
</g>
<!-- Node1 -->
<g id="node2" class="node">
<title>Node1</title>
<g id="a_node2"><a xlink:href="classVector.html" target="_top" xlink:title="Vector\&lt; Number \&gt;">
<polygon fill="#ffffff" stroke="#000000" points="10.7495,-55.5 10.7495,-73.5 107.9067,-73.5 107.9067,-55.5 10.7495,-55.5"/>
<text text-anchor="middle" x="59.3281" y="-61.5" font-family="Helvetica,sans-Serif" font-size="10.00" fill="#000000">Vector&lt; Number &gt;</text>
</a>
</g>
</g>
<!-- Node1&#45;&gt;Node0 -->
<g id="edge1" class="edge">
<title>Node1&#45;&gt;Node0</title>
<path fill="none" stroke="#191970" d="M59.3281,-45.383C59.3281,-36.3738 59.3281,-26.0373 59.3281,-18.7795"/>
<polygon fill="#191970" stroke="#191970" points="55.8282,-45.4178 59.3281,-55.4179 62.8282,-45.4179 55.8282,-45.4178"/>
</g>
<!-- Node2 -->
<g id="node3" class="node">
<title>Node2</title>
<g id="a_node3"><a xlink:href="classSubscriptor.html" target="_top" xlink:title="Subscriptor">
<polygon fill="#ffffff" stroke="#000000" points="26.04,-110.5 26.04,-128.5 92.6162,-128.5 92.6162,-110.5 26.04,-110.5"/>
<text text-anchor="middle" x="59.3281" y="-116.5" font-family="Helvetica,sans-Serif" font-size="10.00" fill="#000000">Subscriptor</text>
</a>
</g>
</g>
<!-- Node2&#45;&gt;Node1 -->
<g id="edge2" class="edge">
<title>Node2&#45;&gt;Node1</title>
<path fill="none" stroke="#191970" d="M59.3281,-100.383C59.3281,-91.3738 59.3281,-81.0373 59.3281,-73.7795"/>
<polygon fill="#191970" stroke="#191970" points="55.8282,-100.4178 59.3281,-110.4179 62.8282,-100.4179 55.8282,-100.4178"/>
</g>
</g>
</svg>
