<?xml version="1.0" encoding="UTF-8" standalone="no"?>
<!DOCTYPE svg PUBLIC "-//W3C//DTD SVG 1.1//EN"
 "http://www.w3.org/Graphics/SVG/1.1/DTD/svg11.dtd">
<!-- Generated by graphviz version 2.40.1 (20161225.0304)
 -->
<!-- Title: DataOut&lt; dim, DoFHandlerType &gt; Pages: 1 -->
<svg width="1310pt" height="65pt"
 viewBox="0.00 0.00 1309.90 64.50" xmlns="http://www.w3.org/2000/svg" xmlns:xlink="http://www.w3.org/1999/xlink">
<g id="graph0" class="graph" transform="scale(1 1) rotate(0) translate(4 60.5)">
<title>DataOut&lt; dim, DoFHandlerType &gt;</title>
<polygon fill="#ffffff" stroke="transparent" points="-4,4 -4,-60.5 1305.8965,-60.5 1305.8965,4 -4,4"/>
<!-- Node0 -->
<g id="node1" class="node">
<title>Node0</title>
<polygon fill="#bfbfbf" stroke="#000000" points="1005.7373,-21.5 1005.7373,-49.5 1143.1777,-49.5 1143.1777,-21.5 1005.7373,-21.5"/>
<text text-anchor="start" x="1013.7373" y="-37.5" font-family="Helvetica,sans-Serif" font-size="10.00" fill="#000000">DataOut&lt; dim, DoFHandler</text>
<text text-anchor="middle" x="1074.4575" y="-27.5" font-family="Helvetica,sans-Serif" font-size="10.00" fill="#000000">Type &gt;</text>
</g>
<!-- Node5 -->
<g id="node6" class="node">
<title>Node5</title>
<g id="a_node6"><a xlink:href="classDataOut.html" target="_top" xlink:title="DataOut\&lt; dim \&gt;">
<polygon fill="#ffffff" stroke="#000000" points="1215.3057,-26.5 1215.3057,-44.5 1301.8965,-44.5 1301.8965,-26.5 1215.3057,-26.5"/>
<text text-anchor="middle" x="1258.6011" y="-32.5" font-family="Helvetica,sans-Serif" font-size="10.00" fill="#000000">DataOut&lt; dim &gt;</text>
</a>
</g>
</g>
<!-- Node0&#45;&gt;Node5 -->
<g id="edge6" class="edge">
<title>Node0&#45;&gt;Node5</title>
<path fill="none" stroke="#ffa500" stroke-dasharray="5,2" d="M1153.5733,-35.5C1174.7187,-35.5 1196.7944,-35.5 1215.2185,-35.5"/>
<polygon fill="#ffa500" stroke="#ffa500" points="1153.2877,-32.0001 1143.2876,-35.5 1153.2876,-39.0001 1153.2877,-32.0001"/>
<text text-anchor="middle" x="1179.2417" y="-37.5" font-family="Helvetica,sans-Serif" font-size="10.00" fill="#000000"> &lt; dim &gt;</text>
</g>
<!-- Node1 -->
<g id="node2" class="node">
<title>Node1</title>
<g id="a_node2"><a xlink:href="classDataOut__DoFData.html" target="_top" xlink:title="DataOut_DoFData\&lt; DoFHandler\lType, DoFHandlerType::dimension,\l DoFHandlerType::space_dimension \&gt;">
<polygon fill="#ffffff" stroke="#000000" points="782.3613,-16.5 782.3613,-54.5 968.7373,-54.5 968.7373,-16.5 782.3613,-16.5"/>
<text text-anchor="start" x="790.3613" y="-42.5" font-family="Helvetica,sans-Serif" font-size="10.00" fill="#000000">DataOut_DoFData&lt; DoFHandler</text>
<text text-anchor="start" x="790.3613" y="-32.5" font-family="Helvetica,sans-Serif" font-size="10.00" fill="#000000">Type, DoFHandlerType::dimension,</text>
<text text-anchor="middle" x="875.5493" y="-22.5" font-family="Helvetica,sans-Serif" font-size="10.00" fill="#000000"> DoFHandlerType::space_dimension &gt;</text>
</a>
</g>
</g>
<!-- Node1&#45;&gt;Node0 -->
<g id="edge1" class="edge">
<title>Node1&#45;&gt;Node0</title>
<path fill="none" stroke="#191970" d="M979.0023,-35.5C987.958,-35.5 996.8704,-35.5 1005.4484,-35.5"/>
<polygon fill="#191970" stroke="#191970" points="978.8881,-32.0001 968.8881,-35.5 978.8881,-39.0001 978.8881,-32.0001"/>
</g>
<!-- Node2 -->
<g id="node3" class="node">
<title>Node2</title>
<g id="a_node3"><a xlink:href="classDataOutInterface.html" target="_top" xlink:title="DataOutInterface\&lt; patch\l_dim, patch_space_dim \&gt;">
<polygon fill="#ffffff" stroke="#000000" points="243.2158,-22.5 243.2158,-50.5 373.4492,-50.5 373.4492,-22.5 243.2158,-22.5"/>
<text text-anchor="start" x="251.2158" y="-38.5" font-family="Helvetica,sans-Serif" font-size="10.00" fill="#000000">DataOutInterface&lt; patch</text>
<text text-anchor="middle" x="308.3325" y="-28.5" font-family="Helvetica,sans-Serif" font-size="10.00" fill="#000000">_dim, patch_space_dim &gt;</text>
</a>
</g>
</g>
<!-- Node2&#45;&gt;Node1 -->
<g id="edge2" class="edge">
<title>Node2&#45;&gt;Node1</title>
<path fill="none" stroke="#191970" d="M383.7543,-41.1901C386.3503,-41.3028 388.9211,-41.4067 391.4492,-41.5 557.0805,-47.6134 598.7524,-51.1916 764.3613,-44.5 770.1666,-44.2654 776.1381,-43.9622 782.1573,-43.6097"/>
<polygon fill="#191970" stroke="#191970" points="383.8074,-37.6889 373.6543,-40.7164 383.4793,-44.6812 383.8074,-37.6889"/>
</g>
<!-- Node4 -->
<g id="node5" class="node">
<title>Node4</title>
<g id="a_node5"><a xlink:href="classDataOut__DoFData.html" target="_top" xlink:title="DataOut_DoFData\&lt; DoFHandler\lType, patch_dim, patch_space_dim \&gt;">
<polygon fill="#ffffff" stroke="#000000" points="410.4492,-.5 410.4492,-28.5 592.3867,-28.5 592.3867,-.5 410.4492,-.5"/>
<text text-anchor="start" x="418.4492" y="-16.5" font-family="Helvetica,sans-Serif" font-size="10.00" fill="#000000">DataOut_DoFData&lt; DoFHandler</text>
<text text-anchor="middle" x="501.418" y="-6.5" font-family="Helvetica,sans-Serif" font-size="10.00" fill="#000000">Type, patch_dim, patch_space_dim &gt;</text>
</a>
</g>
</g>
<!-- Node2&#45;&gt;Node4 -->
<g id="edge5" class="edge">
<title>Node2&#45;&gt;Node4</title>
<path fill="none" stroke="#191970" d="M383.8194,-27.8991C392.5475,-26.9046 401.517,-25.8826 410.4233,-24.8679"/>
<polygon fill="#191970" stroke="#191970" points="383.2419,-24.4421 373.7024,-29.0518 384.0344,-31.3971 383.2419,-24.4421"/>
</g>
<!-- Node3 -->
<g id="node4" class="node">
<title>Node3</title>
<g id="a_node4"><a xlink:href="classDataOutInterface.html" target="_top" xlink:title="DataOutInterface\&lt; dim,\l spacedim \&gt;">
<polygon fill="#ffffff" stroke="#000000" points="0,-22.5 0,-50.5 119.6621,-50.5 119.6621,-22.5 0,-22.5"/>
<text text-anchor="start" x="8" y="-38.5" font-family="Helvetica,sans-Serif" font-size="10.00" fill="#000000">DataOutInterface&lt; dim,</text>
<text text-anchor="middle" x="59.8311" y="-28.5" font-family="Helvetica,sans-Serif" font-size="10.00" fill="#000000"> spacedim &gt;</text>
</a>
</g>
</g>
<!-- Node3&#45;&gt;Node2 -->
<g id="edge3" class="edge">
<title>Node3&#45;&gt;Node2</title>
<path fill="none" stroke="#ffa500" stroke-dasharray="5,2" d="M129.9383,-36.5C165.3848,-36.5 208.1398,-36.5 242.9065,-36.5"/>
<polygon fill="#ffa500" stroke="#ffa500" points="129.6696,-33.0001 119.6696,-36.5 129.6695,-40.0001 129.6696,-33.0001"/>
<text text-anchor="start" x="137.6621" y="-48.5" font-family="Helvetica,sans-Serif" font-size="10.00" fill="#000000"> &lt; patch_dim, patch</text>
<text text-anchor="middle" x="181.439" y="-38.5" font-family="Helvetica,sans-Serif" font-size="10.00" fill="#000000">_space_dim &gt;</text>
</g>
<!-- Node4&#45;&gt;Node1 -->
<g id="edge4" class="edge">
<title>Node4&#45;&gt;Node1</title>
<path fill="none" stroke="#ffa500" stroke-dasharray="5,2" d="M602.8471,-10.0956C651.759,-9.0949 711.2141,-9.525 764.3613,-14.5 770.2291,-15.0493 776.2485,-15.7582 782.3035,-16.5818"/>
<polygon fill="#ffa500" stroke="#ffa500" points="602.4935,-6.6027 592.5759,-10.3298 602.6531,-13.6009 602.4935,-6.6027"/>
<text text-anchor="start" x="610.3867" y="-36.5" font-family="Helvetica,sans-Serif" font-size="10.00" fill="#000000"> &lt; DoFHandlerType, DoFHandler</text>
<text text-anchor="start" x="610.3867" y="-26.5" font-family="Helvetica,sans-Serif" font-size="10.00" fill="#000000">Type::dimension, DoFHandlerType</text>
<text text-anchor="middle" x="687.374" y="-16.5" font-family="Helvetica,sans-Serif" font-size="10.00" fill="#000000">::space_dimension &gt;</text>
</g>
</g>
</svg>
