<?xml version="1.0" encoding="UTF-8" standalone="no"?>
<!DOCTYPE svg PUBLIC "-//W3C//DTD SVG 1.1//EN"
 "http://www.w3.org/Graphics/SVG/1.1/DTD/svg11.dtd">
<!-- Generated by graphviz version 2.40.1 (20161225.0304)
 -->
<!-- Title: MGTransferBase&lt; VectorType &gt; Pages: 1 -->
<svg width="934pt" height="217pt"
 viewBox="0.00 0.00 933.67 217.00" xmlns="http://www.w3.org/2000/svg" xmlns:xlink="http://www.w3.org/1999/xlink">
<g id="graph0" class="graph" transform="scale(1 1) rotate(0) translate(4 213)">
<title>MGTransferBase&lt; VectorType &gt;</title>
<polygon fill="#ffffff" stroke="transparent" points="-4,4 -4,-213 929.667,-213 929.667,4 -4,4"/>
<!-- Node0 -->
<g id="node1" class="node">
<title>Node0</title>
<polygon fill="#bfbfbf" stroke="#000000" points="103.5762,-109.5 103.5762,-127.5 262.6182,-127.5 262.6182,-109.5 103.5762,-109.5"/>
<text text-anchor="middle" x="183.0972" y="-115.5" font-family="Helvetica,sans-Serif" font-size="10.00" fill="#000000">MGTransferBase&lt; VectorType &gt;</text>
</g>
<!-- Node2 -->
<g id="node3" class="node">
<title>Node2</title>
<g id="a_node3"><a xlink:href="classMGLevelGlobalTransfer.html" target="_top" xlink:title="MGLevelGlobalTransfer\l\&lt; VectorType \&gt;">
<polygon fill="#ffffff" stroke="#000000" points="444.5947,-177.5 444.5947,-205.5 566.3809,-205.5 566.3809,-177.5 444.5947,-177.5"/>
<text text-anchor="start" x="452.5947" y="-193.5" font-family="Helvetica,sans-Serif" font-size="10.00" fill="#000000">MGLevelGlobalTransfer</text>
<text text-anchor="middle" x="505.4878" y="-183.5" font-family="Helvetica,sans-Serif" font-size="10.00" fill="#000000">&lt; VectorType &gt;</text>
</a>
</g>
</g>
<!-- Node0&#45;&gt;Node2 -->
<g id="edge2" class="edge">
<title>Node0&#45;&gt;Node2</title>
<path fill="none" stroke="#191970" d="M209.9857,-132.0155C229.2066,-141.1227 255.9337,-152.6771 280.6182,-159.5 334.9696,-174.523 398.7657,-182.7473 444.4959,-187.0808"/>
<polygon fill="#191970" stroke="#191970" points="211.4595,-128.8405 200.9325,-127.6436 208.4155,-135.144 211.4595,-128.8405"/>
</g>
<!-- Node4 -->
<g id="node5" class="node">
<title>Node4</title>
<g id="a_node5"><a xlink:href="classMGTransferBase.html" target="_top" xlink:title="MGTransferBase\&lt; LinearAlgebra\l::distributed::Vector\&lt; Number \&gt; \&gt;">
<polygon fill="#ffffff" stroke="#000000" points="423.9746,-128.5 423.9746,-156.5 587.001,-156.5 587.001,-128.5 423.9746,-128.5"/>
<text text-anchor="start" x="431.9746" y="-144.5" font-family="Helvetica,sans-Serif" font-size="10.00" fill="#000000">MGTransferBase&lt; LinearAlgebra</text>
<text text-anchor="middle" x="505.4878" y="-134.5" font-family="Helvetica,sans-Serif" font-size="10.00" fill="#000000">::distributed::Vector&lt; Number &gt; &gt;</text>
</a>
</g>
</g>
<!-- Node0&#45;&gt;Node4 -->
<g id="edge4" class="edge">
<title>Node0&#45;&gt;Node4</title>
<path fill="none" stroke="#ffa500" stroke-dasharray="5,2" d="M273.0291,-125.1949C320.3387,-128.7168 377.9021,-133.002 423.9104,-136.4271"/>
<polygon fill="#ffa500" stroke="#ffa500" points="273.0215,-121.6847 262.7893,-124.4326 272.5018,-128.6654 273.0215,-121.6847"/>
<text text-anchor="start" x="280.6182" y="-147.5" font-family="Helvetica,sans-Serif" font-size="10.00" fill="#000000"> &lt; LinearAlgebra::distributed</text>
<text text-anchor="middle" x="343.2964" y="-137.5" font-family="Helvetica,sans-Serif" font-size="10.00" fill="#000000">::Vector&lt; Number &gt; &gt;</text>
</g>
<!-- Node7 -->
<g id="node8" class="node">
<title>Node7</title>
<g id="a_node8"><a xlink:href="classMGTransferBase.html" target="_top" xlink:title="MGTransferBase\&lt; BlockVector\l\&lt; number \&gt; \&gt;">
<polygon fill="#ffffff" stroke="#000000" points="428.8916,-81.5 428.8916,-109.5 582.084,-109.5 582.084,-81.5 428.8916,-81.5"/>
<text text-anchor="start" x="436.8916" y="-97.5" font-family="Helvetica,sans-Serif" font-size="10.00" fill="#000000">MGTransferBase&lt; BlockVector</text>
<text text-anchor="middle" x="505.4878" y="-87.5" font-family="Helvetica,sans-Serif" font-size="10.00" fill="#000000">&lt; number &gt; &gt;</text>
</a>
</g>
</g>
<!-- Node0&#45;&gt;Node7 -->
<g id="edge7" class="edge">
<title>Node0&#45;&gt;Node7</title>
<path fill="none" stroke="#ffa500" stroke-dasharray="5,2" d="M261.248,-108.3694C267.7943,-107.6772 274.3164,-107.0411 280.6182,-106.5 329.784,-102.2783 385.1469,-99.5453 428.6369,-97.8593"/>
<polygon fill="#ffa500" stroke="#ffa500" points="260.5274,-104.9274 250.969,-109.4978 261.2913,-111.8856 260.5274,-104.9274"/>
<text text-anchor="middle" x="343.2964" y="-108.5" font-family="Helvetica,sans-Serif" font-size="10.00" fill="#000000"> &lt; BlockVector&lt; number &gt; &gt;</text>
</g>
<!-- Node9 -->
<g id="node10" class="node">
<title>Node9</title>
<g id="a_node10"><a xlink:href="classMGTransferBase.html" target="_top" xlink:title="MGTransferBase\&lt; Vector\l\&lt; number \&gt; \&gt;">
<polygon fill="#ffffff" stroke="#000000" points="441.1182,-34.5 441.1182,-62.5 569.8574,-62.5 569.8574,-34.5 441.1182,-34.5"/>
<text text-anchor="start" x="449.1182" y="-50.5" font-family="Helvetica,sans-Serif" font-size="10.00" fill="#000000">MGTransferBase&lt; Vector</text>
<text text-anchor="middle" x="505.4878" y="-40.5" font-family="Helvetica,sans-Serif" font-size="10.00" fill="#000000">&lt; number &gt; &gt;</text>
</a>
</g>
</g>
<!-- Node0&#45;&gt;Node9 -->
<g id="edge9" class="edge">
<title>Node0&#45;&gt;Node9</title>
<path fill="none" stroke="#ffa500" stroke-dasharray="5,2" d="M215.9628,-105.8827C234.6878,-99.0738 258.7158,-90.9688 280.6182,-85.5 333.9751,-72.1773 395.6847,-62.4141 440.9461,-56.2727"/>
<polygon fill="#ffa500" stroke="#ffa500" points="214.592,-102.6578 206.4238,-109.4054 217.0171,-109.2243 214.592,-102.6578"/>
<text text-anchor="middle" x="343.2964" y="-87.5" font-family="Helvetica,sans-Serif" font-size="10.00" fill="#000000"> &lt; Vector&lt; number &gt; &gt;</text>
</g>
<!-- Node1 -->
<g id="node2" class="node">
<title>Node1</title>
<g id="a_node2"><a xlink:href="classSubscriptor.html" target="_top" xlink:title="Subscriptor">
<polygon fill="#ffffff" stroke="#000000" points="0,-109.5 0,-127.5 66.5762,-127.5 66.5762,-109.5 0,-109.5"/>
<text text-anchor="middle" x="33.2881" y="-115.5" font-family="Helvetica,sans-Serif" font-size="10.00" fill="#000000">Subscriptor</text>
</a>
</g>
</g>
<!-- Node1&#45;&gt;Node0 -->
<g id="edge1" class="edge">
<title>Node1&#45;&gt;Node0</title>
<path fill="none" stroke="#191970" d="M77.079,-118.5C85.4033,-118.5 94.3511,-118.5 103.3926,-118.5"/>
<polygon fill="#191970" stroke="#191970" points="76.9082,-115.0001 66.9082,-118.5 76.9081,-122.0001 76.9082,-115.0001"/>
</g>
<!-- Node3 -->
<g id="node4" class="node">
<title>Node3</title>
<g id="a_node4"><a xlink:href="classMGTransferPrebuilt.html" target="_top" xlink:title="MGTransferPrebuilt\l\&lt; VectorType \&gt;">
<polygon fill="#ffffff" stroke="#000000" points="646.5156,-180.5 646.5156,-208.5 749.3955,-208.5 749.3955,-180.5 646.5156,-180.5"/>
<text text-anchor="start" x="654.5156" y="-196.5" font-family="Helvetica,sans-Serif" font-size="10.00" fill="#000000">MGTransferPrebuilt</text>
<text text-anchor="middle" x="697.9556" y="-186.5" font-family="Helvetica,sans-Serif" font-size="10.00" fill="#000000">&lt; VectorType &gt;</text>
</a>
</g>
</g>
<!-- Node2&#45;&gt;Node3 -->
<g id="edge3" class="edge">
<title>Node2&#45;&gt;Node3</title>
<path fill="none" stroke="#191970" d="M576.5283,-192.6073C599.7288,-192.9689 625.0308,-193.3633 646.5042,-193.698"/>
<polygon fill="#191970" stroke="#191970" points="576.4392,-189.1056 566.3858,-192.4492 576.33,-196.1047 576.4392,-189.1056"/>
</g>
<!-- Node5 -->
<g id="node6" class="node">
<title>Node5</title>
<g id="a_node6"><a xlink:href="classMGLevelGlobalTransfer_3_01LinearAlgebra_1_1distributed_1_1Vector_3_01Number_01_4_01_4.html" target="_top" xlink:title="MGLevelGlobalTransfer\l\&lt; LinearAlgebra::distributed\l::Vector\&lt; Number \&gt; \&gt;">
<polygon fill="#ffffff" stroke="#000000" points="628.6665,-123.5 628.6665,-161.5 767.2446,-161.5 767.2446,-123.5 628.6665,-123.5"/>
<text text-anchor="start" x="636.6665" y="-149.5" font-family="Helvetica,sans-Serif" font-size="10.00" fill="#000000">MGLevelGlobalTransfer</text>
<text text-anchor="start" x="636.6665" y="-139.5" font-family="Helvetica,sans-Serif" font-size="10.00" fill="#000000">&lt; LinearAlgebra::distributed</text>
<text text-anchor="middle" x="697.9556" y="-129.5" font-family="Helvetica,sans-Serif" font-size="10.00" fill="#000000">::Vector&lt; Number &gt; &gt;</text>
</a>
</g>
</g>
<!-- Node4&#45;&gt;Node5 -->
<g id="edge5" class="edge">
<title>Node4&#45;&gt;Node5</title>
<path fill="none" stroke="#191970" d="M597.2167,-142.5C607.7972,-142.5 618.4506,-142.5 628.6636,-142.5"/>
<polygon fill="#191970" stroke="#191970" points="597.1115,-139.0001 587.1115,-142.5 597.1114,-146.0001 597.1115,-139.0001"/>
</g>
<!-- Node6 -->
<g id="node7" class="node">
<title>Node6</title>
<g id="a_node7"><a xlink:href="classMGTransferMatrixFree.html" target="_top" xlink:title="MGTransferMatrixFree\l\&lt; dim, Number \&gt;">
<polygon fill="#ffffff" stroke="#000000" points="808.9102,-128.5 808.9102,-156.5 925.667,-156.5 925.667,-128.5 808.9102,-128.5"/>
<text text-anchor="start" x="816.9102" y="-144.5" font-family="Helvetica,sans-Serif" font-size="10.00" fill="#000000">MGTransferMatrixFree</text>
<text text-anchor="middle" x="867.2886" y="-134.5" font-family="Helvetica,sans-Serif" font-size="10.00" fill="#000000">&lt; dim, Number &gt;</text>
</a>
</g>
</g>
<!-- Node5&#45;&gt;Node6 -->
<g id="edge6" class="edge">
<title>Node5&#45;&gt;Node6</title>
<path fill="none" stroke="#191970" d="M777.4157,-142.5C788.0049,-142.5 798.703,-142.5 808.8443,-142.5"/>
<polygon fill="#191970" stroke="#191970" points="777.3184,-139.0001 767.3184,-142.5 777.3183,-146.0001 777.3184,-139.0001"/>
</g>
<!-- Node8 -->
<g id="node9" class="node">
<title>Node8</title>
<g id="a_node9"><a xlink:href="classMGTransferBlock.html" target="_top" xlink:title="MGTransferBlock\&lt; number \&gt;">
<polygon fill="#ffffff" stroke="#000000" points="625.6709,-86.5 625.6709,-104.5 770.2402,-104.5 770.2402,-86.5 625.6709,-86.5"/>
<text text-anchor="middle" x="697.9556" y="-92.5" font-family="Helvetica,sans-Serif" font-size="10.00" fill="#000000">MGTransferBlock&lt; number &gt;</text>
</a>
</g>
</g>
<!-- Node7&#45;&gt;Node8 -->
<g id="edge8" class="edge">
<title>Node7&#45;&gt;Node8</title>
<path fill="none" stroke="#191970" d="M592.2901,-95.5C603.4473,-95.5 614.7752,-95.5 625.6662,-95.5"/>
<polygon fill="#191970" stroke="#191970" points="592.1092,-92.0001 582.1092,-95.5 592.1091,-99.0001 592.1092,-92.0001"/>
</g>
<!-- Node10 -->
<g id="node11" class="node">
<title>Node10</title>
<g id="a_node11"><a xlink:href="classMGTransferBlockSelect.html" target="_top" xlink:title="MGTransferBlockSelect\l\&lt; number \&gt;">
<polygon fill="#ffffff" stroke="#000000" points="637.3457,-37.5 637.3457,-65.5 758.5654,-65.5 758.5654,-37.5 637.3457,-37.5"/>
<text text-anchor="start" x="645.3457" y="-53.5" font-family="Helvetica,sans-Serif" font-size="10.00" fill="#000000">MGTransferBlockSelect</text>
<text text-anchor="middle" x="697.9556" y="-43.5" font-family="Helvetica,sans-Serif" font-size="10.00" fill="#000000">&lt; number &gt;</text>
</a>
</g>
</g>
<!-- Node9&#45;&gt;Node10 -->
<g id="edge10" class="edge">
<title>Node9&#45;&gt;Node10</title>
<path fill="none" stroke="#191970" d="M580.1433,-49.6637C598.9907,-49.9574 619.0023,-50.2694 637.0803,-50.5511"/>
<polygon fill="#191970" stroke="#191970" points="580.1656,-46.1637 570.1122,-49.5073 580.0564,-53.1628 580.1656,-46.1637"/>
</g>
<!-- Node11 -->
<g id="node12" class="node">
<title>Node11</title>
<g id="a_node12"><a xlink:href="classMGTransferSelect.html" target="_top" xlink:title="MGTransferSelect\&lt; number \&gt;">
<polygon fill="#ffffff" stroke="#000000" points="624.001,-.5 624.001,-18.5 771.9102,-18.5 771.9102,-.5 624.001,-.5"/>
<text text-anchor="middle" x="697.9556" y="-6.5" font-family="Helvetica,sans-Serif" font-size="10.00" fill="#000000">MGTransferSelect&lt; number &gt;</text>
</a>
</g>
</g>
<!-- Node9&#45;&gt;Node11 -->
<g id="edge11" class="edge">
<title>Node9&#45;&gt;Node11</title>
<path fill="none" stroke="#191970" d="M580.221,-33.3567C604.9984,-28.336 631.7798,-22.9093 653.5305,-18.5019"/>
<polygon fill="#191970" stroke="#191970" points="579.2179,-29.9888 570.1122,-35.4051 580.6081,-36.8493 579.2179,-29.9888"/>
</g>
</g>
</svg>
