<?xml version="1.0" encoding="UTF-8" standalone="no"?>
<!DOCTYPE svg PUBLIC "-//W3C//DTD SVG 1.1//EN"
 "http://www.w3.org/Graphics/SVG/1.1/DTD/svg11.dtd">
<!-- Generated by graphviz version 2.40.1 (20161225.0304)
 -->
<!-- Title: MGSmootherRelaxation&lt; MatrixType, RelaxationType, VectorType &gt; Pages: 1 -->
<svg width="174pt" height="212pt"
 viewBox="0.00 0.00 173.53 212.00" xmlns="http://www.w3.org/2000/svg" xmlns:xlink="http://www.w3.org/1999/xlink">
<g id="graph0" class="graph" transform="scale(1 1) rotate(0) translate(4 208)">
<title>MGSmootherRelaxation&lt; MatrixType, RelaxationType, VectorType &gt;</title>
<polygon fill="#ffffff" stroke="transparent" points="-4,4 -4,-208 169.5313,-208 169.5313,4 -4,4"/>
<!-- Node0 -->
<g id="node1" class="node">
<title>Node0</title>
<polygon fill="#bfbfbf" stroke="#000000" points="7.3682,-.5 7.3682,-38.5 158.1631,-38.5 158.1631,-.5 7.3682,-.5"/>
<text text-anchor="start" x="15.3682" y="-26.5" font-family="Helvetica,sans-Serif" font-size="10.00" fill="#000000">MGSmootherRelaxation</text>
<text text-anchor="start" x="15.3682" y="-16.5" font-family="Helvetica,sans-Serif" font-size="10.00" fill="#000000">&lt; MatrixType, RelaxationType,</text>
<text text-anchor="middle" x="82.7656" y="-6.5" font-family="Helvetica,sans-Serif" font-size="10.00" fill="#000000"> VectorType &gt;</text>
</g>
<!-- Node1 -->
<g id="node2" class="node">
<title>Node1</title>
<g id="a_node2"><a xlink:href="classMGSmoother.html" target="_top" xlink:title="MGSmoother\&lt; VectorType \&gt;">
<polygon fill="#ffffff" stroke="#000000" points="11.3965,-75.5 11.3965,-93.5 154.1348,-93.5 154.1348,-75.5 11.3965,-75.5"/>
<text text-anchor="middle" x="82.7656" y="-81.5" font-family="Helvetica,sans-Serif" font-size="10.00" fill="#000000">MGSmoother&lt; VectorType &gt;</text>
</a>
</g>
</g>
<!-- Node1&#45;&gt;Node0 -->
<g id="edge1" class="edge">
<title>Node1&#45;&gt;Node0</title>
<path fill="none" stroke="#191970" d="M82.7656,-65.4456C82.7656,-56.9924 82.7656,-47.066 82.7656,-38.6068"/>
<polygon fill="#191970" stroke="#191970" points="79.2657,-65.462 82.7656,-75.462 86.2657,-65.4621 79.2657,-65.462"/>
</g>
<!-- Node2 -->
<g id="node3" class="node">
<title>Node2</title>
<g id="a_node3"><a xlink:href="classMGSmootherBase.html" target="_top" xlink:title="MGSmootherBase\&lt; VectorType \&gt;">
<polygon fill="#ffffff" stroke="#000000" points="0,-130.5 0,-148.5 165.5313,-148.5 165.5313,-130.5 0,-130.5"/>
<text text-anchor="middle" x="82.7656" y="-136.5" font-family="Helvetica,sans-Serif" font-size="10.00" fill="#000000">MGSmootherBase&lt; VectorType &gt;</text>
</a>
</g>
</g>
<!-- Node2&#45;&gt;Node1 -->
<g id="edge2" class="edge">
<title>Node2&#45;&gt;Node1</title>
<path fill="none" stroke="#191970" d="M82.7656,-120.383C82.7656,-111.3738 82.7656,-101.0373 82.7656,-93.7795"/>
<polygon fill="#191970" stroke="#191970" points="79.2657,-120.4178 82.7656,-130.4179 86.2657,-120.4179 79.2657,-120.4178"/>
</g>
<!-- Node3 -->
<g id="node4" class="node">
<title>Node3</title>
<g id="a_node4"><a xlink:href="classSubscriptor.html" target="_top" xlink:title="Subscriptor">
<polygon fill="#ffffff" stroke="#000000" points="49.4775,-185.5 49.4775,-203.5 116.0537,-203.5 116.0537,-185.5 49.4775,-185.5"/>
<text text-anchor="middle" x="82.7656" y="-191.5" font-family="Helvetica,sans-Serif" font-size="10.00" fill="#000000">Subscriptor</text>
</a>
</g>
</g>
<!-- Node3&#45;&gt;Node2 -->
<g id="edge3" class="edge">
<title>Node3&#45;&gt;Node2</title>
<path fill="none" stroke="#191970" d="M82.7656,-175.383C82.7656,-166.3738 82.7656,-156.0373 82.7656,-148.7795"/>
<polygon fill="#191970" stroke="#191970" points="79.2657,-175.4178 82.7656,-185.4179 86.2657,-175.4179 79.2657,-175.4178"/>
</g>
</g>
</svg>
