<?xml version="1.0" encoding="UTF-8" standalone="no"?>
<!DOCTYPE svg PUBLIC "-//W3C//DTD SVG 1.1//EN"
 "http://www.w3.org/Graphics/SVG/1.1/DTD/svg11.dtd">
<!-- Generated by graphviz version 2.40.1 (20161225.0304)
 -->
<!-- Title: MappingManifold&lt; dim, spacedim &gt;::InternalData Pages: 1 -->
<svg width="138pt" height="102pt"
 viewBox="0.00 0.00 138.23 102.00" xmlns="http://www.w3.org/2000/svg" xmlns:xlink="http://www.w3.org/1999/xlink">
<g id="graph0" class="graph" transform="scale(1 1) rotate(0) translate(4 98)">
<title>MappingManifold&lt; dim, spacedim &gt;::InternalData</title>
<polygon fill="#ffffff" stroke="transparent" points="-4,4 -4,-98 134.2285,-98 134.2285,4 -4,4"/>
<!-- Node0 -->
<g id="node1" class="node">
<title>Node0</title>
<polygon fill="#bfbfbf" stroke="#000000" points="0,-.5 0,-28.5 130.2285,-28.5 130.2285,-.5 0,-.5"/>
<text text-anchor="start" x="8" y="-16.5" font-family="Helvetica,sans-Serif" font-size="10.00" fill="#000000">MappingManifold&lt; dim,</text>
<text text-anchor="middle" x="65.1143" y="-6.5" font-family="Helvetica,sans-Serif" font-size="10.00" fill="#000000"> spacedim &gt;::InternalData</text>
</g>
<!-- Node1 -->
<g id="node2" class="node">
<title>Node1</title>
<g id="a_node2"><a xlink:href="classMapping_1_1InternalDataBase.html" target="_top" xlink:title="Mapping\&lt; dim, spacedim\l \&gt;::InternalDataBase">
<polygon fill="#ffffff" stroke="#000000" points="1.3916,-65.5 1.3916,-93.5 128.8369,-93.5 128.8369,-65.5 1.3916,-65.5"/>
<text text-anchor="start" x="9.3916" y="-81.5" font-family="Helvetica,sans-Serif" font-size="10.00" fill="#000000">Mapping&lt; dim, spacedim</text>
<text text-anchor="middle" x="65.1143" y="-71.5" font-family="Helvetica,sans-Serif" font-size="10.00" fill="#000000"> &gt;::InternalDataBase</text>
</a>
</g>
</g>
<!-- Node1&#45;&gt;Node0 -->
<g id="edge1" class="edge">
<title>Node1&#45;&gt;Node0</title>
<path fill="none" stroke="#191970" d="M65.1143,-55.1081C65.1143,-46.1539 65.1143,-36.3227 65.1143,-28.5765"/>
<polygon fill="#191970" stroke="#191970" points="61.6144,-55.3959 65.1143,-65.396 68.6144,-55.396 61.6144,-55.3959"/>
</g>
</g>
</svg>
