<?xml version="1.0" encoding="UTF-8" standalone="no"?>
<!DOCTYPE svg PUBLIC "-//W3C//DTD SVG 1.1//EN"
 "http://www.w3.org/Graphics/SVG/1.1/DTD/svg11.dtd">
<!-- Generated by graphviz version 2.40.1 (20161225.0304)
 -->
<!-- Title: Mapping&lt; dim, spacedim &gt; Pages: 1 -->
<svg width="659pt" height="348pt"
 viewBox="0.00 0.00 659.19 348.00" xmlns="http://www.w3.org/2000/svg" xmlns:xlink="http://www.w3.org/1999/xlink">
<g id="graph0" class="graph" transform="scale(1 1) rotate(0) translate(4 344)">
<title>Mapping&lt; dim, spacedim &gt;</title>
<polygon fill="#ffffff" stroke="transparent" points="-4,4 -4,-344 655.1875,-344 655.1875,4 -4,4"/>
<!-- Node0 -->
<g id="node1" class="node">
<title>Node0</title>
<polygon fill="#bfbfbf" stroke="#000000" points="103.5762,-209.5 103.5762,-227.5 239.6396,-227.5 239.6396,-209.5 103.5762,-209.5"/>
<text text-anchor="middle" x="171.6079" y="-215.5" font-family="Helvetica,sans-Serif" font-size="10.00" fill="#000000">Mapping&lt; dim, spacedim &gt;</text>
</g>
<!-- Node2 -->
<g id="node3" class="node">
<title>Node2</title>
<g id="a_node3"><a xlink:href="classMappingCartesian.html" target="_top" xlink:title="MappingCartesian\&lt; dim,\l spacedim \&gt;">
<polygon fill="#ffffff" stroke="#000000" points="321.355,-311.5 321.355,-339.5 446.022,-339.5 446.022,-311.5 321.355,-311.5"/>
<text text-anchor="start" x="329.355" y="-327.5" font-family="Helvetica,sans-Serif" font-size="10.00" fill="#000000">MappingCartesian&lt; dim,</text>
<text text-anchor="middle" x="383.6885" y="-317.5" font-family="Helvetica,sans-Serif" font-size="10.00" fill="#000000"> spacedim &gt;</text>
</a>
</g>
</g>
<!-- Node0&#45;&gt;Node2 -->
<g id="edge2" class="edge">
<title>Node0&#45;&gt;Node2</title>
<path fill="none" stroke="#191970" d="M193.1519,-233.5672C219.9595,-251.7985 267.6044,-282.5275 311.7676,-302.5 318.9343,-305.7411 326.6923,-308.7264 334.3709,-311.3977"/>
<polygon fill="#191970" stroke="#191970" points="194.8029,-230.4551 184.5785,-227.6778 190.8394,-236.2249 194.8029,-230.4551"/>
</g>
<!-- Node3 -->
<g id="node4" class="node">
<title>Node3</title>
<g id="a_node4"><a xlink:href="classMappingFEField.html" target="_top" xlink:title="MappingFEField\&lt; dim,\l spacedim \&gt;">
<polygon fill="#ffffff" stroke="#000000" points="325.5273,-264.5 325.5273,-292.5 441.8496,-292.5 441.8496,-264.5 325.5273,-264.5"/>
<text text-anchor="start" x="333.5273" y="-280.5" font-family="Helvetica,sans-Serif" font-size="10.00" fill="#000000">MappingFEField&lt; dim,</text>
<text text-anchor="middle" x="383.6885" y="-270.5" font-family="Helvetica,sans-Serif" font-size="10.00" fill="#000000"> spacedim &gt;</text>
</a>
</g>
</g>
<!-- Node0&#45;&gt;Node3 -->
<g id="edge3" class="edge">
<title>Node0&#45;&gt;Node3</title>
<path fill="none" stroke="#191970" d="M213.6361,-230.3903C248.3186,-240.2023 297.6001,-254.1446 334.1888,-264.496"/>
<polygon fill="#191970" stroke="#191970" points="214.3935,-226.9672 203.8184,-227.6127 212.4879,-233.7029 214.3935,-226.9672"/>
</g>
<!-- Node4 -->
<g id="node5" class="node">
<title>Node4</title>
<g id="a_node5"><a xlink:href="classMappingManifold.html" target="_top" xlink:title="MappingManifold\&lt; dim,\l spacedim \&gt;">
<polygon fill="#ffffff" stroke="#000000" points="323.855,-217.5 323.855,-245.5 443.522,-245.5 443.522,-217.5 323.855,-217.5"/>
<text text-anchor="start" x="331.855" y="-233.5" font-family="Helvetica,sans-Serif" font-size="10.00" fill="#000000">MappingManifold&lt; dim,</text>
<text text-anchor="middle" x="383.6885" y="-223.5" font-family="Helvetica,sans-Serif" font-size="10.00" fill="#000000"> spacedim &gt;</text>
</a>
</g>
</g>
<!-- Node0&#45;&gt;Node4 -->
<g id="edge4" class="edge">
<title>Node0&#45;&gt;Node4</title>
<path fill="none" stroke="#191970" d="M250.1648,-223.3153C274.4999,-224.807 300.9091,-226.4258 323.7673,-227.827"/>
<polygon fill="#191970" stroke="#191970" points="250.0744,-219.8033 239.8789,-222.6848 249.646,-226.7902 250.0744,-219.8033"/>
</g>
<!-- Node5 -->
<g id="node6" class="node">
<title>Node5</title>
<g id="a_node6"><a xlink:href="classMappingQ.html" target="_top" xlink:title="MappingQ\&lt; dim, spacedim \&gt;">
<polygon fill="#ffffff" stroke="#000000" points="311.7676,-180.5 311.7676,-198.5 455.6094,-198.5 455.6094,-180.5 311.7676,-180.5"/>
<text text-anchor="middle" x="383.6885" y="-186.5" font-family="Helvetica,sans-Serif" font-size="10.00" fill="#000000">MappingQ&lt; dim, spacedim &gt;</text>
</a>
</g>
</g>
<!-- Node0&#45;&gt;Node5 -->
<g id="edge5" class="edge">
<title>Node0&#45;&gt;Node5</title>
<path fill="none" stroke="#191970" d="M247.5896,-208.1102C270.5446,-204.9713 295.5482,-201.5523 317.7882,-198.5112"/>
<polygon fill="#191970" stroke="#191970" points="246.9826,-204.6606 237.549,-209.4832 247.931,-211.596 246.9826,-204.6606"/>
</g>
<!-- Node8 -->
<g id="node9" class="node">
<title>Node8</title>
<g id="a_node9"><a xlink:href="classMappingQGeneric.html" target="_top" xlink:title="MappingQGeneric\&lt; dim,\l spacedim \&gt;">
<polygon fill="#ffffff" stroke="#000000" points="321.3574,-120.5 321.3574,-148.5 446.0195,-148.5 446.0195,-120.5 321.3574,-120.5"/>
<text text-anchor="start" x="329.3574" y="-136.5" font-family="Helvetica,sans-Serif" font-size="10.00" fill="#000000">MappingQGeneric&lt; dim,</text>
<text text-anchor="middle" x="383.6885" y="-126.5" font-family="Helvetica,sans-Serif" font-size="10.00" fill="#000000"> spacedim &gt;</text>
</a>
</g>
</g>
<!-- Node0&#45;&gt;Node8 -->
<g id="edge8" class="edge">
<title>Node0&#45;&gt;Node8</title>
<path fill="none" stroke="#191970" d="M204.0149,-205.6644C242.9624,-190.2382 308.084,-164.4451 348.3094,-148.5128"/>
<polygon fill="#191970" stroke="#191970" points="202.7164,-202.4141 194.708,-209.3506 205.2941,-208.9222 202.7164,-202.4141"/>
</g>
<!-- Node13 -->
<g id="node14" class="node">
<title>Node13</title>
<g id="a_node14"><a xlink:href="classMapping.html" target="_top" xlink:title="Mapping\&lt; dim \&gt;">
<polygon fill="#ffffff" stroke="#000000" points="339.834,-83.5 339.834,-101.5 427.543,-101.5 427.543,-83.5 339.834,-83.5"/>
<text text-anchor="middle" x="383.6885" y="-89.5" font-family="Helvetica,sans-Serif" font-size="10.00" fill="#000000">Mapping&lt; dim &gt;</text>
</a>
</g>
</g>
<!-- Node0&#45;&gt;Node13 -->
<g id="edge13" class="edge">
<title>Node0&#45;&gt;Node13</title>
<path fill="none" stroke="#ffa500" stroke-dasharray="5,2" d="M187.9322,-202.1983C212.6051,-178.4841 261.8369,-134.6735 311.7676,-110.5 320.4564,-106.2934 330.2271,-103.0066 339.7,-100.4618"/>
<polygon fill="#ffa500" stroke="#ffa500" points="185.2523,-199.9231 180.5408,-209.4127 190.1418,-204.9325 185.2523,-199.9231"/>
<text text-anchor="middle" x="275.7036" y="-145.5" font-family="Helvetica,sans-Serif" font-size="10.00" fill="#000000"> &lt; dim &gt;</text>
</g>
<!-- Node1 -->
<g id="node2" class="node">
<title>Node1</title>
<g id="a_node2"><a xlink:href="classSubscriptor.html" target="_top" xlink:title="Subscriptor">
<polygon fill="#ffffff" stroke="#000000" points="0,-209.5 0,-227.5 66.5762,-227.5 66.5762,-209.5 0,-209.5"/>
<text text-anchor="middle" x="33.2881" y="-215.5" font-family="Helvetica,sans-Serif" font-size="10.00" fill="#000000">Subscriptor</text>
</a>
</g>
</g>
<!-- Node1&#45;&gt;Node0 -->
<g id="edge1" class="edge">
<title>Node1&#45;&gt;Node0</title>
<path fill="none" stroke="#191970" d="M76.7913,-218.5C85.2847,-218.5 94.3796,-218.5 103.4516,-218.5"/>
<polygon fill="#191970" stroke="#191970" points="76.7715,-215.0001 66.7715,-218.5 76.7714,-222.0001 76.7715,-215.0001"/>
</g>
<!-- Node6 -->
<g id="node7" class="node">
<title>Node6</title>
<g id="a_node7"><a xlink:href="classMappingC1.html" target="_top" xlink:title="MappingC1\&lt; dim, spacedim \&gt;">
<polygon fill="#ffffff" stroke="#000000" points="497.4751,-235.5 497.4751,-253.5 646.3218,-253.5 646.3218,-235.5 497.4751,-235.5"/>
<text text-anchor="middle" x="571.8984" y="-241.5" font-family="Helvetica,sans-Serif" font-size="10.00" fill="#000000">MappingC1&lt; dim, spacedim &gt;</text>
</a>
</g>
</g>
<!-- Node5&#45;&gt;Node6 -->
<g id="edge6" class="edge">
<title>Node5&#45;&gt;Node6</title>
<path fill="none" stroke="#191970" d="M436.7974,-201.3203C443.2037,-203.1768 449.6009,-205.2396 455.6094,-207.5 472.9114,-214.009 475.2367,-220.1818 492.6094,-226.5 502.2933,-230.0219 512.9017,-232.9989 523.1198,-235.4554"/>
<polygon fill="#191970" stroke="#191970" points="437.3468,-197.8419 426.7773,-198.5741 435.4965,-204.5929 437.3468,-197.8419"/>
</g>
<!-- Node7 -->
<g id="node8" class="node">
<title>Node7</title>
<g id="a_node8"><a xlink:href="classMappingQEulerian.html" target="_top" xlink:title="MappingQEulerian\&lt; dim,\l spacedim \&gt;">
<polygon fill="#ffffff" stroke="#000000" points="508.73,-188.5 508.73,-216.5 635.0669,-216.5 635.0669,-188.5 508.73,-188.5"/>
<text text-anchor="start" x="516.73" y="-204.5" font-family="Helvetica,sans-Serif" font-size="10.00" fill="#000000">MappingQEulerian&lt; dim,</text>
<text text-anchor="middle" x="571.8984" y="-194.5" font-family="Helvetica,sans-Serif" font-size="10.00" fill="#000000"> spacedim &gt;</text>
</a>
</g>
</g>
<!-- Node5&#45;&gt;Node7 -->
<g id="edge7" class="edge">
<title>Node5&#45;&gt;Node7</title>
<path fill="none" stroke="#191970" d="M465.9673,-195.1831C480.2549,-196.17 494.9121,-197.1824 508.5931,-198.1274"/>
<polygon fill="#191970" stroke="#191970" points="465.8656,-191.6679 455.6482,-194.4704 465.3832,-198.6512 465.8656,-191.6679"/>
</g>
<!-- Node9 -->
<g id="node10" class="node">
<title>Node9</title>
<g id="a_node10"><a xlink:href="classMappingC1_1_1MappingC1Generic.html" target="_top" xlink:title="MappingC1\&lt; dim, spacedim\l \&gt;::MappingC1Generic">
<polygon fill="#ffffff" stroke="#000000" points="501.7842,-141.5 501.7842,-169.5 642.0127,-169.5 642.0127,-141.5 501.7842,-141.5"/>
<text text-anchor="start" x="509.7842" y="-157.5" font-family="Helvetica,sans-Serif" font-size="10.00" fill="#000000">MappingC1&lt; dim, spacedim</text>
<text text-anchor="middle" x="571.8984" y="-147.5" font-family="Helvetica,sans-Serif" font-size="10.00" fill="#000000"> &gt;::MappingC1Generic</text>
</a>
</g>
</g>
<!-- Node8&#45;&gt;Node9 -->
<g id="edge9" class="edge">
<title>Node8&#45;&gt;Node9</title>
<path fill="none" stroke="#191970" d="M456.2501,-142.5962C471.1171,-144.2551 486.7422,-145.9985 501.5306,-147.6485"/>
<polygon fill="#191970" stroke="#191970" points="456.4247,-139.0941 446.0982,-141.4635 455.6484,-146.0509 456.4247,-139.0941"/>
</g>
<!-- Node10 -->
<g id="node11" class="node">
<title>Node10</title>
<g id="a_node11"><a xlink:href="classMappingQ1.html" target="_top" xlink:title="MappingQ1\&lt; dim, spacedim \&gt;">
<polygon fill="#ffffff" stroke="#000000" points="497.1968,-104.5 497.1968,-122.5 646.6001,-122.5 646.6001,-104.5 497.1968,-104.5"/>
<text text-anchor="middle" x="571.8984" y="-110.5" font-family="Helvetica,sans-Serif" font-size="10.00" fill="#000000">MappingQ1&lt; dim, spacedim &gt;</text>
</a>
</g>
</g>
<!-- Node8&#45;&gt;Node10 -->
<g id="edge10" class="edge">
<title>Node8&#45;&gt;Node10</title>
<path fill="none" stroke="#191970" d="M456.1674,-126.413C469.5163,-124.9235 483.4789,-123.3656 496.9002,-121.8681"/>
<polygon fill="#191970" stroke="#191970" points="455.6484,-122.9491 446.0982,-127.5365 456.4247,-129.9059 455.6484,-122.9491"/>
</g>
<!-- Node11 -->
<g id="node12" class="node">
<title>Node11</title>
<g id="a_node12"><a xlink:href="classMappingQ1Eulerian.html" target="_top" xlink:title="MappingQ1Eulerian\&lt;\l dim, spacedim \&gt;">
<polygon fill="#ffffff" stroke="#000000" points="516.7842,-57.5 516.7842,-85.5 627.0127,-85.5 627.0127,-57.5 516.7842,-57.5"/>
<text text-anchor="start" x="524.7842" y="-73.5" font-family="Helvetica,sans-Serif" font-size="10.00" fill="#000000">MappingQ1Eulerian&lt;</text>
<text text-anchor="middle" x="571.8984" y="-63.5" font-family="Helvetica,sans-Serif" font-size="10.00" fill="#000000"> dim, spacedim &gt;</text>
</a>
</g>
</g>
<!-- Node8&#45;&gt;Node11 -->
<g id="edge11" class="edge">
<title>Node8&#45;&gt;Node11</title>
<path fill="none" stroke="#191970" d="M437.5747,-117.0808C443.6847,-114.9393 449.7998,-112.7207 455.6094,-110.5 472.3445,-104.1029 475.7504,-100.5632 492.6094,-94.5 501.3761,-91.3471 510.8025,-88.3126 519.9886,-85.5395"/>
<polygon fill="#191970" stroke="#191970" points="436.3368,-113.8054 428.0223,-120.372 438.617,-120.4236 436.3368,-113.8054"/>
</g>
<!-- Node12 -->
<g id="node13" class="node">
<title>Node12</title>
<g id="a_node13"><a xlink:href="classMappingQEulerian_1_1MappingQEulerianGeneric.html" target="_top" xlink:title="MappingQEulerian\&lt; dim,\l spacedim \&gt;::MappingQEulerian\lGeneric">
<polygon fill="#ffffff" stroke="#000000" points="492.6094,-.5 492.6094,-38.5 651.1875,-38.5 651.1875,-.5 492.6094,-.5"/>
<text text-anchor="start" x="500.6094" y="-26.5" font-family="Helvetica,sans-Serif" font-size="10.00" fill="#000000">MappingQEulerian&lt; dim,</text>
<text text-anchor="start" x="500.6094" y="-16.5" font-family="Helvetica,sans-Serif" font-size="10.00" fill="#000000"> spacedim &gt;::MappingQEulerian</text>
<text text-anchor="middle" x="571.8984" y="-6.5" font-family="Helvetica,sans-Serif" font-size="10.00" fill="#000000">Generic</text>
</a>
</g>
</g>
<!-- Node8&#45;&gt;Node12 -->
<g id="edge12" class="edge">
<title>Node8&#45;&gt;Node12</title>
<path fill="none" stroke="#191970" d="M448.4567,-115.5773C450.958,-114.0147 453.3561,-112.3256 455.6094,-110.5 480.8397,-90.0586 467.5577,-68.1599 492.6094,-47.5 496.6639,-44.1562 501.1461,-41.1992 505.8555,-38.5862"/>
<polygon fill="#191970" stroke="#191970" points="446.7062,-112.5454 439.615,-120.4173 450.0674,-118.6856 446.7062,-112.5454"/>
</g>
</g>
</svg>
