<?xml version="1.0" encoding="UTF-8" standalone="no"?>
<!DOCTYPE svg PUBLIC "-//W3C//DTD SVG 1.1//EN"
 "http://www.w3.org/Graphics/SVG/1.1/DTD/svg11.dtd">
<!-- Generated by graphviz version 2.40.1 (20161225.0304)
 -->
<!-- Title: LinearAlgebra::Vector&lt; Number &gt; Pages: 1 -->
<svg width="399pt" height="84pt"
 viewBox="0.00 0.00 399.28 84.00" xmlns="http://www.w3.org/2000/svg" xmlns:xlink="http://www.w3.org/1999/xlink">
<g id="graph0" class="graph" transform="scale(1 1) rotate(0) translate(4 80)">
<title>LinearAlgebra::Vector&lt; Number &gt;</title>
<polygon fill="#ffffff" stroke="transparent" points="-4,4 -4,-80 395.2842,-80 395.2842,4 -4,4"/>
<!-- Node0 -->
<g id="node1" class="node">
<title>Node0</title>
<polygon fill="#bfbfbf" stroke="#000000" points="279.1074,-23.5 279.1074,-51.5 391.2842,-51.5 391.2842,-23.5 279.1074,-23.5"/>
<text text-anchor="start" x="287.1074" y="-39.5" font-family="Helvetica,sans-Serif" font-size="10.00" fill="#000000">LinearAlgebra::Vector</text>
<text text-anchor="middle" x="335.1958" y="-29.5" font-family="Helvetica,sans-Serif" font-size="10.00" fill="#000000">&lt; Number &gt;</text>
</g>
<!-- Node1 -->
<g id="node2" class="node">
<title>Node1</title>
<g id="a_node2"><a xlink:href="classLinearAlgebra_1_1ReadWriteVector.html" target="_top" xlink:title="LinearAlgebra::ReadWrite\lVector\&lt; Number \&gt;">
<polygon fill="#ffffff" stroke="#000000" points="107.4004,-47.5 107.4004,-75.5 238.2832,-75.5 238.2832,-47.5 107.4004,-47.5"/>
<text text-anchor="start" x="115.4004" y="-63.5" font-family="Helvetica,sans-Serif" font-size="10.00" fill="#000000">LinearAlgebra::ReadWrite</text>
<text text-anchor="middle" x="172.8418" y="-53.5" font-family="Helvetica,sans-Serif" font-size="10.00" fill="#000000">Vector&lt; Number &gt;</text>
</a>
</g>
</g>
<!-- Node1&#45;&gt;Node0 -->
<g id="edge1" class="edge">
<title>Node1&#45;&gt;Node0</title>
<path fill="none" stroke="#191970" d="M248.5954,-50.3017C258.8444,-48.7867 269.2092,-47.2545 279.0323,-45.8024"/>
<polygon fill="#191970" stroke="#191970" points="247.79,-46.8826 238.4094,-51.8075 248.8138,-53.8074 247.79,-46.8826"/>
</g>
<!-- Node2 -->
<g id="node3" class="node">
<title>Node2</title>
<g id="a_node3"><a xlink:href="classSubscriptor.html" target="_top" xlink:title="Subscriptor">
<polygon fill="#ffffff" stroke="#000000" points="0,-52.5 0,-70.5 66.5762,-70.5 66.5762,-52.5 0,-52.5"/>
<text text-anchor="middle" x="33.2881" y="-58.5" font-family="Helvetica,sans-Serif" font-size="10.00" fill="#000000">Subscriptor</text>
</a>
</g>
</g>
<!-- Node2&#45;&gt;Node1 -->
<g id="edge2" class="edge">
<title>Node2&#45;&gt;Node1</title>
<path fill="none" stroke="#191970" d="M76.8778,-61.5C86.569,-61.5 97.0484,-61.5 107.4001,-61.5"/>
<polygon fill="#191970" stroke="#191970" points="76.7147,-58.0001 66.7147,-61.5 76.7146,-65.0001 76.7147,-58.0001"/>
</g>
<!-- Node3 -->
<g id="node4" class="node">
<title>Node3</title>
<g id="a_node4"><a xlink:href="classLinearAlgebra_1_1VectorSpaceVector.html" target="_top" xlink:title="LinearAlgebra::VectorSpace\lVector\&lt; Number \&gt;">
<polygon fill="#ffffff" stroke="#000000" points="102.5762,-.5 102.5762,-28.5 243.1074,-28.5 243.1074,-.5 102.5762,-.5"/>
<text text-anchor="start" x="110.5762" y="-16.5" font-family="Helvetica,sans-Serif" font-size="10.00" fill="#000000">LinearAlgebra::VectorSpace</text>
<text text-anchor="middle" x="172.8418" y="-6.5" font-family="Helvetica,sans-Serif" font-size="10.00" fill="#000000">Vector&lt; Number &gt;</text>
</a>
</g>
</g>
<!-- Node3&#45;&gt;Node0 -->
<g id="edge3" class="edge">
<title>Node3&#45;&gt;Node0</title>
<path fill="none" stroke="#191970" d="M253.2846,-25.896C261.9779,-27.1275 270.6825,-28.3607 278.9995,-29.5389"/>
<polygon fill="#191970" stroke="#191970" points="253.5005,-22.3917 243.1084,-24.4544 252.5185,-29.3225 253.5005,-22.3917"/>
</g>
</g>
</svg>
