<?xml version="1.0" encoding="UTF-8" standalone="no"?>
<!DOCTYPE svg PUBLIC "-//W3C//DTD SVG 1.1//EN"
 "http://www.w3.org/Graphics/SVG/1.1/DTD/svg11.dtd">
<!-- Generated by graphviz version 2.40.1 (20161225.0304)
 -->
<!-- Title: TrilinosWrappers::SparseMatrixIterators::AccessorBase Pages: 1 -->
<svg width="554pt" height="185pt"
 viewBox="0.00 0.00 554.18 185.00" xmlns="http://www.w3.org/2000/svg" xmlns:xlink="http://www.w3.org/1999/xlink">
<g id="graph0" class="graph" transform="scale(1 1) rotate(0) translate(4 181)">
<title>TrilinosWrappers::SparseMatrixIterators::AccessorBase</title>
<polygon fill="#ffffff" stroke="transparent" points="-4,4 -4,-181 550.1758,-181 550.1758,4 -4,4"/>
<!-- Node0 -->
<g id="node1" class="node">
<title>Node0</title>
<polygon fill="#bfbfbf" stroke="#000000" points="0,-90.5 0,-118.5 149.374,-118.5 149.374,-90.5 0,-90.5"/>
<text text-anchor="start" x="8" y="-106.5" font-family="Helvetica,sans-Serif" font-size="10.00" fill="#000000">TrilinosWrappers::Sparse</text>
<text text-anchor="middle" x="74.687" y="-96.5" font-family="Helvetica,sans-Serif" font-size="10.00" fill="#000000">MatrixIterators::AccessorBase</text>
</g>
<!-- Node1 -->
<g id="node2" class="node">
<title>Node1</title>
<g id="a_node2"><a xlink:href="classTrilinosWrappers_1_1SparseMatrixIterators_1_1Accessor.html" target="_top" xlink:title="TrilinosWrappers::Sparse\lMatrixIterators::Accessor\l\&lt; Constness \&gt;">
<polygon fill="#ffffff" stroke="#000000" points="417.9053,-138.5 417.9053,-176.5 546.1758,-176.5 546.1758,-138.5 417.9053,-138.5"/>
<text text-anchor="start" x="425.9053" y="-164.5" font-family="Helvetica,sans-Serif" font-size="10.00" fill="#000000">TrilinosWrappers::Sparse</text>
<text text-anchor="start" x="425.9053" y="-154.5" font-family="Helvetica,sans-Serif" font-size="10.00" fill="#000000">MatrixIterators::Accessor</text>
<text text-anchor="middle" x="482.0405" y="-144.5" font-family="Helvetica,sans-Serif" font-size="10.00" fill="#000000">&lt; Constness &gt;</text>
</a>
</g>
</g>
<!-- Node0&#45;&gt;Node1 -->
<g id="edge1" class="edge">
<title>Node0&#45;&gt;Node1</title>
<path fill="none" stroke="#191970" d="M102.8988,-124.0182C124.6149,-137.7967 155.9664,-155.0753 186.374,-162.5 264.3008,-181.5276 357.2465,-175.4655 417.8474,-167.8525"/>
<polygon fill="#191970" stroke="#191970" points="104.7908,-121.0736 94.4991,-118.5573 100.9753,-126.9424 104.7908,-121.0736"/>
</g>
<!-- Node2 -->
<g id="node3" class="node">
<title>Node2</title>
<g id="a_node3"><a xlink:href="classTrilinosWrappers_1_1SparseMatrixIterators_1_1Accessor.html" target="_top" xlink:title="TrilinosWrappers::Sparse\lMatrixIterators::Accessor\l\&lt; Constess \&gt;">
<polygon fill="#ffffff" stroke="#000000" points="186.374,-114.5 186.374,-152.5 314.6445,-152.5 314.6445,-114.5 186.374,-114.5"/>
<text text-anchor="start" x="194.374" y="-140.5" font-family="Helvetica,sans-Serif" font-size="10.00" fill="#000000">TrilinosWrappers::Sparse</text>
<text text-anchor="start" x="194.374" y="-130.5" font-family="Helvetica,sans-Serif" font-size="10.00" fill="#000000">MatrixIterators::Accessor</text>
<text text-anchor="middle" x="250.5093" y="-120.5" font-family="Helvetica,sans-Serif" font-size="10.00" fill="#000000">&lt; Constess &gt;</text>
</a>
</g>
</g>
<!-- Node0&#45;&gt;Node2 -->
<g id="edge2" class="edge">
<title>Node0&#45;&gt;Node2</title>
<path fill="none" stroke="#191970" d="M159.6081,-118.5068C168.5886,-119.9881 177.6108,-121.4762 186.2992,-122.9092"/>
<polygon fill="#191970" stroke="#191970" points="159.9427,-115.0148 149.5064,-116.8407 158.8035,-121.9215 159.9427,-115.0148"/>
</g>
<!-- Node3 -->
<g id="node4" class="node">
<title>Node3</title>
<g id="a_node4"><a xlink:href="classTrilinosWrappers_1_1SparseMatrixIterators_1_1Accessor_3_01false_01_4.html" target="_top" xlink:title="TrilinosWrappers::Sparse\lMatrixIterators::Accessor\l\&lt; false \&gt;">
<polygon fill="#ffffff" stroke="#000000" points="186.374,-57.5 186.374,-95.5 314.6445,-95.5 314.6445,-57.5 186.374,-57.5"/>
<text text-anchor="start" x="194.374" y="-83.5" font-family="Helvetica,sans-Serif" font-size="10.00" fill="#000000">TrilinosWrappers::Sparse</text>
<text text-anchor="start" x="194.374" y="-73.5" font-family="Helvetica,sans-Serif" font-size="10.00" fill="#000000">MatrixIterators::Accessor</text>
<text text-anchor="middle" x="250.5093" y="-63.5" font-family="Helvetica,sans-Serif" font-size="10.00" fill="#000000">&lt; false &gt;</text>
</a>
</g>
</g>
<!-- Node0&#45;&gt;Node3 -->
<g id="edge4" class="edge">
<title>Node0&#45;&gt;Node3</title>
<path fill="none" stroke="#191970" d="M159.6081,-90.9762C168.5886,-89.546 177.6108,-88.1092 186.2992,-86.7256"/>
<polygon fill="#191970" stroke="#191970" points="158.8315,-87.5557 149.5064,-92.5849 159.9325,-94.4685 158.8315,-87.5557"/>
</g>
<!-- Node4 -->
<g id="node5" class="node">
<title>Node4</title>
<g id="a_node5"><a xlink:href="classTrilinosWrappers_1_1SparseMatrixIterators_1_1Accessor_3_01true_01_4.html" target="_top" xlink:title="TrilinosWrappers::Sparse\lMatrixIterators::Accessor\l\&lt; true \&gt;">
<polygon fill="#ffffff" stroke="#000000" points="186.374,-.5 186.374,-38.5 314.6445,-38.5 314.6445,-.5 186.374,-.5"/>
<text text-anchor="start" x="194.374" y="-26.5" font-family="Helvetica,sans-Serif" font-size="10.00" fill="#000000">TrilinosWrappers::Sparse</text>
<text text-anchor="start" x="194.374" y="-16.5" font-family="Helvetica,sans-Serif" font-size="10.00" fill="#000000">MatrixIterators::Accessor</text>
<text text-anchor="middle" x="250.5093" y="-6.5" font-family="Helvetica,sans-Serif" font-size="10.00" fill="#000000">&lt; true &gt;</text>
</a>
</g>
</g>
<!-- Node0&#45;&gt;Node4 -->
<g id="edge5" class="edge">
<title>Node0&#45;&gt;Node4</title>
<path fill="none" stroke="#191970" d="M110.0034,-85.7876C131.8429,-74.3883 160.5448,-59.7157 186.374,-47.5 192.6344,-44.5392 199.2865,-41.5088 205.8455,-38.5865"/>
<polygon fill="#191970" stroke="#191970" points="108.3261,-82.7151 101.0922,-90.4559 111.5745,-88.9158 108.3261,-82.7151"/>
</g>
<!-- Node2&#45;&gt;Node1 -->
<g id="edge3" class="edge">
<title>Node2&#45;&gt;Node1</title>
<path fill="none" stroke="#ffa500" stroke-dasharray="5,2" d="M324.6745,-141.1878C354.6233,-144.2922 388.8564,-147.8407 417.7288,-150.8336"/>
<polygon fill="#ffa500" stroke="#ffa500" points="325.0038,-137.7033 314.6962,-140.1535 324.282,-144.666 325.0038,-137.7033"/>
<text text-anchor="middle" x="366.2749" y="-150.5" font-family="Helvetica,sans-Serif" font-size="10.00" fill="#000000"> &lt; Constness &gt;</text>
</g>
</g>
</svg>
