<?xml version="1.0" encoding="UTF-8" standalone="no"?>
<!DOCTYPE svg PUBLIC "-//W3C//DTD SVG 1.1//EN"
 "http://www.w3.org/Graphics/SVG/1.1/DTD/svg11.dtd">
<!-- Generated by graphviz version 2.40.1 (20161225.0304)
 -->
<!-- Title: OpenCASCADE::NormalProjectionBoundary&lt; dim, spacedim &gt; Pages: 1 -->
<svg width="179pt" height="267pt"
 viewBox="0.00 0.00 179.06 267.00" xmlns="http://www.w3.org/2000/svg" xmlns:xlink="http://www.w3.org/1999/xlink">
<g id="graph0" class="graph" transform="scale(1 1) rotate(0) translate(4 263)">
<title>OpenCASCADE::NormalProjectionBoundary&lt; dim, spacedim &gt;</title>
<polygon fill="#ffffff" stroke="transparent" points="-4,4 -4,-263 175.0586,-263 175.0586,4 -4,4"/>
<!-- Node0 -->
<g id="node1" class="node">
<title>Node0</title>
<polygon fill="#bfbfbf" stroke="#000000" points="0,-.5 0,-28.5 171.0586,-28.5 171.0586,-.5 0,-.5"/>
<text text-anchor="start" x="8" y="-16.5" font-family="Helvetica,sans-Serif" font-size="10.00" fill="#000000">OpenCASCADE::NormalProjection</text>
<text text-anchor="middle" x="85.5293" y="-6.5" font-family="Helvetica,sans-Serif" font-size="10.00" fill="#000000">Boundary&lt; dim, spacedim &gt;</text>
</g>
<!-- Node1 -->
<g id="node2" class="node">
<title>Node1</title>
<g id="a_node2"><a xlink:href="classBoundary.html" target="_top" xlink:title="Boundary\&lt; dim, spacedim \&gt;">
<polygon fill="#ffffff" stroke="#000000" points="15.2734,-65.5 15.2734,-83.5 155.7852,-83.5 155.7852,-65.5 15.2734,-65.5"/>
<text text-anchor="middle" x="85.5293" y="-71.5" font-family="Helvetica,sans-Serif" font-size="10.00" fill="#000000">Boundary&lt; dim, spacedim &gt;</text>
</a>
</g>
</g>
<!-- Node1&#45;&gt;Node0 -->
<g id="edge1" class="edge">
<title>Node1&#45;&gt;Node0</title>
<path fill="none" stroke="#191970" d="M85.5293,-55.1865C85.5293,-46.6283 85.5293,-36.7354 85.5293,-28.8477"/>
<polygon fill="#191970" stroke="#191970" points="82.0294,-55.3873 85.5293,-65.3873 89.0294,-55.3873 82.0294,-55.3873"/>
</g>
<!-- Node2 -->
<g id="node3" class="node">
<title>Node2</title>
<g id="a_node3"><a xlink:href="classFlatManifold.html" target="_top" xlink:title="FlatManifold\&lt; dim,\l spacedim \&gt;">
<polygon fill="#ffffff" stroke="#000000" points="36.5405,-120.5 36.5405,-148.5 134.5181,-148.5 134.5181,-120.5 36.5405,-120.5"/>
<text text-anchor="start" x="44.5405" y="-136.5" font-family="Helvetica,sans-Serif" font-size="10.00" fill="#000000">FlatManifold&lt; dim,</text>
<text text-anchor="middle" x="85.5293" y="-126.5" font-family="Helvetica,sans-Serif" font-size="10.00" fill="#000000"> spacedim &gt;</text>
</a>
</g>
</g>
<!-- Node2&#45;&gt;Node1 -->
<g id="edge2" class="edge">
<title>Node2&#45;&gt;Node1</title>
<path fill="none" stroke="#191970" d="M85.5293,-110.2151C85.5293,-100.8253 85.5293,-90.6598 85.5293,-83.5842"/>
<polygon fill="#191970" stroke="#191970" points="82.0294,-110.2808 85.5293,-120.2808 89.0294,-110.2809 82.0294,-110.2808"/>
</g>
<!-- Node3 -->
<g id="node4" class="node">
<title>Node3</title>
<g id="a_node4"><a xlink:href="classManifold.html" target="_top" xlink:title="Manifold\&lt; dim, spacedim \&gt;">
<polygon fill="#ffffff" stroke="#000000" points="17.7783,-185.5 17.7783,-203.5 153.2803,-203.5 153.2803,-185.5 17.7783,-185.5"/>
<text text-anchor="middle" x="85.5293" y="-191.5" font-family="Helvetica,sans-Serif" font-size="10.00" fill="#000000">Manifold&lt; dim, spacedim &gt;</text>
</a>
</g>
</g>
<!-- Node3&#45;&gt;Node2 -->
<g id="edge3" class="edge">
<title>Node3&#45;&gt;Node2</title>
<path fill="none" stroke="#191970" d="M85.5293,-175.1865C85.5293,-166.6283 85.5293,-156.7354 85.5293,-148.8477"/>
<polygon fill="#191970" stroke="#191970" points="82.0294,-175.3873 85.5293,-185.3873 89.0294,-175.3873 82.0294,-175.3873"/>
</g>
<!-- Node4 -->
<g id="node5" class="node">
<title>Node4</title>
<g id="a_node5"><a xlink:href="classSubscriptor.html" target="_top" xlink:title="Subscriptor">
<polygon fill="#ffffff" stroke="#000000" points="52.2412,-240.5 52.2412,-258.5 118.8174,-258.5 118.8174,-240.5 52.2412,-240.5"/>
<text text-anchor="middle" x="85.5293" y="-246.5" font-family="Helvetica,sans-Serif" font-size="10.00" fill="#000000">Subscriptor</text>
</a>
</g>
</g>
<!-- Node4&#45;&gt;Node3 -->
<g id="edge4" class="edge">
<title>Node4&#45;&gt;Node3</title>
<path fill="none" stroke="#191970" d="M85.5293,-230.383C85.5293,-221.3738 85.5293,-211.0373 85.5293,-203.7795"/>
<polygon fill="#191970" stroke="#191970" points="82.0294,-230.4178 85.5293,-240.4179 89.0294,-230.4179 82.0294,-230.4178"/>
</g>
</g>
</svg>
