<?xml version="1.0" encoding="UTF-8" standalone="no"?>
<!DOCTYPE svg PUBLIC "-//W3C//DTD SVG 1.1//EN"
 "http://www.w3.org/Graphics/SVG/1.1/DTD/svg11.dtd">
<!-- Generated by graphviz version 2.40.1 (20161225.0304)
 -->
<!-- Title: PersistentTriangulation&lt; dim, spacedim &gt; Pages: 1 -->
<svg width="126pt" height="157pt"
 viewBox="0.00 0.00 125.91 157.00" xmlns="http://www.w3.org/2000/svg" xmlns:xlink="http://www.w3.org/1999/xlink">
<g id="graph0" class="graph" transform="scale(1 1) rotate(0) translate(4 153)">
<title>PersistentTriangulation&lt; dim, spacedim &gt;</title>
<polygon fill="#ffffff" stroke="transparent" points="-4,4 -4,-153 121.9092,-153 121.9092,4 -4,4"/>
<!-- Node0 -->
<g id="node1" class="node">
<title>Node0</title>
<polygon fill="#bfbfbf" stroke="#000000" points="0,-.5 0,-28.5 117.9092,-28.5 117.9092,-.5 0,-.5"/>
<text text-anchor="start" x="8" y="-16.5" font-family="Helvetica,sans-Serif" font-size="10.00" fill="#000000">PersistentTriangulation</text>
<text text-anchor="middle" x="58.9546" y="-6.5" font-family="Helvetica,sans-Serif" font-size="10.00" fill="#000000">&lt; dim, spacedim &gt;</text>
</g>
<!-- Node1 -->
<g id="node2" class="node">
<title>Node1</title>
<g id="a_node2"><a xlink:href="classTriangulation.html" target="_top" xlink:title="Triangulation\&lt; dim,\l spacedim \&gt;">
<polygon fill="#ffffff" stroke="#000000" points="8.4766,-65.5 8.4766,-93.5 109.4326,-93.5 109.4326,-65.5 8.4766,-65.5"/>
<text text-anchor="start" x="16.4766" y="-81.5" font-family="Helvetica,sans-Serif" font-size="10.00" fill="#000000">Triangulation&lt; dim,</text>
<text text-anchor="middle" x="58.9546" y="-71.5" font-family="Helvetica,sans-Serif" font-size="10.00" fill="#000000"> spacedim &gt;</text>
</a>
</g>
</g>
<!-- Node1&#45;&gt;Node0 -->
<g id="edge1" class="edge">
<title>Node1&#45;&gt;Node0</title>
<path fill="none" stroke="#191970" d="M58.9546,-55.1081C58.9546,-46.1539 58.9546,-36.3227 58.9546,-28.5765"/>
<polygon fill="#191970" stroke="#191970" points="55.4547,-55.3959 58.9546,-65.396 62.4547,-55.396 55.4547,-55.3959"/>
</g>
<!-- Node2 -->
<g id="node3" class="node">
<title>Node2</title>
<g id="a_node3"><a xlink:href="classSubscriptor.html" target="_top" xlink:title="Subscriptor">
<polygon fill="#ffffff" stroke="#000000" points="25.6665,-130.5 25.6665,-148.5 92.2427,-148.5 92.2427,-130.5 25.6665,-130.5"/>
<text text-anchor="middle" x="58.9546" y="-136.5" font-family="Helvetica,sans-Serif" font-size="10.00" fill="#000000">Subscriptor</text>
</a>
</g>
</g>
<!-- Node2&#45;&gt;Node1 -->
<g id="edge2" class="edge">
<title>Node2&#45;&gt;Node1</title>
<path fill="none" stroke="#191970" d="M58.9546,-120.1865C58.9546,-111.6283 58.9546,-101.7354 58.9546,-93.8477"/>
<polygon fill="#191970" stroke="#191970" points="55.4547,-120.3873 58.9546,-130.3873 62.4547,-120.3873 55.4547,-120.3873"/>
</g>
</g>
</svg>
