<?xml version="1.0" encoding="UTF-8" standalone="no"?>
<!DOCTYPE svg PUBLIC "-//W3C//DTD SVG 1.1//EN"
 "http://www.w3.org/Graphics/SVG/1.1/DTD/svg11.dtd">
<!-- Generated by graphviz version 2.40.1 (20161225.0304)
 -->
<!-- Title: MeshWorker::DoFInfo&lt; dim, spacedim, number &gt; Pages: 1 -->
<svg width="145pt" height="102pt"
 viewBox="0.00 0.00 145.17 102.00" xmlns="http://www.w3.org/2000/svg" xmlns:xlink="http://www.w3.org/1999/xlink">
<g id="graph0" class="graph" transform="scale(1 1) rotate(0) translate(4 98)">
<title>MeshWorker::DoFInfo&lt; dim, spacedim, number &gt;</title>
<polygon fill="#ffffff" stroke="transparent" points="-4,4 -4,-98 141.167,-98 141.167,4 -4,4"/>
<!-- Node0 -->
<g id="node1" class="node">
<title>Node0</title>
<polygon fill="#bfbfbf" stroke="#000000" points="0,-.5 0,-28.5 137.167,-28.5 137.167,-.5 0,-.5"/>
<text text-anchor="start" x="8" y="-16.5" font-family="Helvetica,sans-Serif" font-size="10.00" fill="#000000">MeshWorker::DoFInfo</text>
<text text-anchor="middle" x="68.5835" y="-6.5" font-family="Helvetica,sans-Serif" font-size="10.00" fill="#000000">&lt; dim, spacedim, number &gt;</text>
</g>
<!-- Node1 -->
<g id="node2" class="node">
<title>Node1</title>
<g id="a_node2"><a xlink:href="classMeshWorker_1_1LocalResults.html" target="_top" xlink:title="MeshWorker::LocalResults\l\&lt; number \&gt;">
<polygon fill="#ffffff" stroke="#000000" points=".9302,-65.5 .9302,-93.5 136.2368,-93.5 136.2368,-65.5 .9302,-65.5"/>
<text text-anchor="start" x="8.9302" y="-81.5" font-family="Helvetica,sans-Serif" font-size="10.00" fill="#000000">MeshWorker::LocalResults</text>
<text text-anchor="middle" x="68.5835" y="-71.5" font-family="Helvetica,sans-Serif" font-size="10.00" fill="#000000">&lt; number &gt;</text>
</a>
</g>
</g>
<!-- Node1&#45;&gt;Node0 -->
<g id="edge1" class="edge">
<title>Node1&#45;&gt;Node0</title>
<path fill="none" stroke="#191970" d="M68.5835,-55.1081C68.5835,-46.1539 68.5835,-36.3227 68.5835,-28.5765"/>
<polygon fill="#191970" stroke="#191970" points="65.0836,-55.3959 68.5835,-65.396 72.0836,-55.396 65.0836,-55.3959"/>
</g>
</g>
</svg>
