<?xml version="1.0" encoding="UTF-8" standalone="no"?>
<!DOCTYPE svg PUBLIC "-//W3C//DTD SVG 1.1//EN"
 "http://www.w3.org/Graphics/SVG/1.1/DTD/svg11.dtd">
<!-- Generated by graphviz version 2.40.1 (20161225.0304)
 -->
<!-- Title: LinearAlgebra::EpetraWrappers::Vector Pages: 1 -->
<svg width="234pt" height="178pt"
 viewBox="0.00 0.00 233.55 178.00" xmlns="http://www.w3.org/2000/svg" xmlns:xlink="http://www.w3.org/1999/xlink">
<g id="graph0" class="graph" transform="scale(1 1) rotate(0) translate(4 174)">
<title>LinearAlgebra::EpetraWrappers::Vector</title>
<polygon fill="#ffffff" stroke="transparent" points="-4,4 -4,-174 229.5537,-174 229.5537,4 -4,4"/>
<!-- Node0 -->
<g id="node1" class="node">
<title>Node0</title>
<polygon fill="#bfbfbf" stroke="#000000" points="53.0386,-.5 53.0386,-28.5 209.4927,-28.5 209.4927,-.5 53.0386,-.5"/>
<text text-anchor="start" x="61.0386" y="-16.5" font-family="Helvetica,sans-Serif" font-size="10.00" fill="#000000">LinearAlgebra::EpetraWrappers</text>
<text text-anchor="middle" x="131.2656" y="-6.5" font-family="Helvetica,sans-Serif" font-size="10.00" fill="#000000">::Vector</text>
</g>
<!-- Node1 -->
<g id="node2" class="node">
<title>Node1</title>
<g id="a_node2"><a xlink:href="classLinearAlgebra_1_1VectorSpaceVector.html" target="_top" xlink:title="LinearAlgebra::VectorSpace\lVector\&lt; double \&gt;">
<polygon fill="#ffffff" stroke="#000000" points="0,-66.5 0,-94.5 140.5313,-94.5 140.5313,-66.5 0,-66.5"/>
<text text-anchor="start" x="8" y="-82.5" font-family="Helvetica,sans-Serif" font-size="10.00" fill="#000000">LinearAlgebra::VectorSpace</text>
<text text-anchor="middle" x="70.2656" y="-72.5" font-family="Helvetica,sans-Serif" font-size="10.00" fill="#000000">Vector&lt; double &gt;</text>
</a>
</g>
</g>
<!-- Node1&#45;&gt;Node0 -->
<g id="edge1" class="edge">
<title>Node1&#45;&gt;Node0</title>
<path fill="none" stroke="#191970" d="M90.4198,-58.6939C99.5082,-48.8605 109.987,-37.5228 118.0554,-28.7931"/>
<polygon fill="#191970" stroke="#191970" points="87.7188,-56.4596 83.5017,-66.179 92.8595,-61.2108 87.7188,-56.4596"/>
</g>
<!-- Node2 -->
<g id="node3" class="node">
<title>Node2</title>
<g id="a_node3"><a xlink:href="classLinearAlgebra_1_1VectorSpaceVector.html" target="_top" xlink:title="LinearAlgebra::VectorSpace\lVector\&lt; Number \&gt;">
<polygon fill="#ffffff" stroke="#000000" points="0,-141.5 0,-169.5 140.5313,-169.5 140.5313,-141.5 0,-141.5"/>
<text text-anchor="start" x="8" y="-157.5" font-family="Helvetica,sans-Serif" font-size="10.00" fill="#000000">LinearAlgebra::VectorSpace</text>
<text text-anchor="middle" x="70.2656" y="-147.5" font-family="Helvetica,sans-Serif" font-size="10.00" fill="#000000">Vector&lt; Number &gt;</text>
</a>
</g>
</g>
<!-- Node2&#45;&gt;Node1 -->
<g id="edge2" class="edge">
<title>Node2&#45;&gt;Node1</title>
<path fill="none" stroke="#ffa500" stroke-dasharray="5,2" d="M70.2656,-131.0415C70.2656,-118.9507 70.2656,-104.7938 70.2656,-94.5437"/>
<polygon fill="#ffa500" stroke="#ffa500" points="66.7657,-131.393 70.2656,-141.3931 73.7657,-131.3931 66.7657,-131.393"/>
<text text-anchor="middle" x="95.2876" y="-115" font-family="Helvetica,sans-Serif" font-size="10.00" fill="#000000"> &lt; double &gt;</text>
</g>
<!-- Node3 -->
<g id="node4" class="node">
<title>Node3</title>
<g id="a_node4"><a xlink:href="classSubscriptor.html" target="_top" xlink:title="Subscriptor">
<polygon fill="#ffffff" stroke="#000000" points="158.9775,-71.5 158.9775,-89.5 225.5537,-89.5 225.5537,-71.5 158.9775,-71.5"/>
<text text-anchor="middle" x="192.2656" y="-77.5" font-family="Helvetica,sans-Serif" font-size="10.00" fill="#000000">Subscriptor</text>
</a>
</g>
</g>
<!-- Node3&#45;&gt;Node0 -->
<g id="edge3" class="edge">
<title>Node3&#45;&gt;Node0</title>
<path fill="none" stroke="#191970" d="M176.7905,-63.7564C166.7752,-52.9202 153.8786,-38.9665 144.3704,-28.6789"/>
<polygon fill="#191970" stroke="#191970" points="174.4261,-66.3548 183.7838,-71.323 179.5667,-61.6036 174.4261,-66.3548"/>
</g>
</g>
</svg>
