<?xml version="1.0" encoding="UTF-8" standalone="no"?>
<!DOCTYPE svg PUBLIC "-//W3C//DTD SVG 1.1//EN"
 "http://www.w3.org/Graphics/SVG/1.1/DTD/svg11.dtd">
<!-- Generated by graphviz version 2.40.1 (20161225.0304)
 -->
<!-- Title: TrilinosWrappers::SolverBase Pages: 1 -->
<svg width="338pt" height="205pt"
 viewBox="0.00 0.00 338.32 205.00" xmlns="http://www.w3.org/2000/svg" xmlns:xlink="http://www.w3.org/1999/xlink">
<g id="graph0" class="graph" transform="scale(1 1) rotate(0) translate(4 201)">
<title>TrilinosWrappers::SolverBase</title>
<polygon fill="#ffffff" stroke="transparent" points="-4,4 -4,-201 334.3242,-201 334.3242,4 -4,4"/>
<!-- Node0 -->
<g id="node1" class="node">
<title>Node0</title>
<polygon fill="#bfbfbf" stroke="#000000" points="0,-94.5 0,-112.5 147.7236,-112.5 147.7236,-94.5 0,-94.5"/>
<text text-anchor="middle" x="73.8618" y="-100.5" font-family="Helvetica,sans-Serif" font-size="10.00" fill="#000000">TrilinosWrappers::SolverBase</text>
</g>
<!-- Node1 -->
<g id="node2" class="node">
<title>Node1</title>
<g id="a_node2"><a xlink:href="classTrilinosWrappers_1_1SolverBicgstab.html" target="_top" xlink:title="TrilinosWrappers::Solver\lBicgstab">
<polygon fill="#ffffff" stroke="#000000" points="194.5586,-168.5 194.5586,-196.5 319.4893,-196.5 319.4893,-168.5 194.5586,-168.5"/>
<text text-anchor="start" x="202.5586" y="-184.5" font-family="Helvetica,sans-Serif" font-size="10.00" fill="#000000">TrilinosWrappers::Solver</text>
<text text-anchor="middle" x="257.0239" y="-174.5" font-family="Helvetica,sans-Serif" font-size="10.00" fill="#000000">Bicgstab</text>
</a>
</g>
</g>
<!-- Node0&#45;&gt;Node1 -->
<g id="edge1" class="edge">
<title>Node0&#45;&gt;Node1</title>
<path fill="none" stroke="#191970" d="M98.4185,-117.5203C120.3243,-129.6603 153.5112,-147.1613 183.7236,-159.5 191.5025,-162.6769 199.892,-165.6831 208.1204,-168.4102"/>
<polygon fill="#191970" stroke="#191970" points="99.9163,-114.3477 89.4808,-112.517 96.497,-120.4558 99.9163,-114.3477"/>
</g>
<!-- Node2 -->
<g id="node3" class="node">
<title>Node2</title>
<g id="a_node3"><a xlink:href="classTrilinosWrappers_1_1SolverCG.html" target="_top" xlink:title="TrilinosWrappers::SolverCG">
<polygon fill="#ffffff" stroke="#000000" points="187.0586,-131.5 187.0586,-149.5 326.9893,-149.5 326.9893,-131.5 187.0586,-131.5"/>
<text text-anchor="middle" x="257.0239" y="-137.5" font-family="Helvetica,sans-Serif" font-size="10.00" fill="#000000">TrilinosWrappers::SolverCG</text>
</a>
</g>
</g>
<!-- Node0&#45;&gt;Node2 -->
<g id="edge2" class="edge">
<title>Node0&#45;&gt;Node2</title>
<path fill="none" stroke="#191970" d="M128.644,-114.5664C155.3761,-119.9665 187.126,-126.3801 212.3629,-131.4782"/>
<polygon fill="#191970" stroke="#191970" points="129.1634,-111.1007 118.6683,-112.5512 127.7773,-117.9621 129.1634,-111.1007"/>
</g>
<!-- Node3 -->
<g id="node4" class="node">
<title>Node3</title>
<g id="a_node4"><a xlink:href="classTrilinosWrappers_1_1SolverCGS.html" target="_top" xlink:title="TrilinosWrappers::SolverCGS">
<polygon fill="#ffffff" stroke="#000000" points="183.7236,-94.5 183.7236,-112.5 330.3242,-112.5 330.3242,-94.5 183.7236,-94.5"/>
<text text-anchor="middle" x="257.0239" y="-100.5" font-family="Helvetica,sans-Serif" font-size="10.00" fill="#000000">TrilinosWrappers::SolverCGS</text>
</a>
</g>
</g>
<!-- Node0&#45;&gt;Node3 -->
<g id="edge3" class="edge">
<title>Node0&#45;&gt;Node3</title>
<path fill="none" stroke="#191970" d="M157.8798,-103.5C166.4891,-103.5 175.1882,-103.5 183.6698,-103.5"/>
<polygon fill="#191970" stroke="#191970" points="157.8329,-100.0001 147.8329,-103.5 157.8329,-107.0001 157.8329,-100.0001"/>
</g>
<!-- Node4 -->
<g id="node5" class="node">
<title>Node4</title>
<g id="a_node5"><a xlink:href="classTrilinosWrappers_1_1SolverGMRES.html" target="_top" xlink:title="TrilinosWrappers::Solver\lGMRES">
<polygon fill="#ffffff" stroke="#000000" points="194.5586,-47.5 194.5586,-75.5 319.4893,-75.5 319.4893,-47.5 194.5586,-47.5"/>
<text text-anchor="start" x="202.5586" y="-63.5" font-family="Helvetica,sans-Serif" font-size="10.00" fill="#000000">TrilinosWrappers::Solver</text>
<text text-anchor="middle" x="257.0239" y="-53.5" font-family="Helvetica,sans-Serif" font-size="10.00" fill="#000000">GMRES</text>
</a>
</g>
</g>
<!-- Node0&#45;&gt;Node4 -->
<g id="edge4" class="edge">
<title>Node0&#45;&gt;Node4</title>
<path fill="none" stroke="#191970" d="M123.1027,-92.2088C145.4738,-87.079 172.167,-80.9581 195.8138,-75.5358"/>
<polygon fill="#191970" stroke="#191970" points="122.1194,-88.8434 113.1547,-94.4899 123.684,-95.6663 122.1194,-88.8434"/>
</g>
<!-- Node5 -->
<g id="node6" class="node">
<title>Node5</title>
<g id="a_node6"><a xlink:href="classTrilinosWrappers_1_1SolverTFQMR.html" target="_top" xlink:title="TrilinosWrappers::Solver\lTFQMR">
<polygon fill="#ffffff" stroke="#000000" points="194.5586,-.5 194.5586,-28.5 319.4893,-28.5 319.4893,-.5 194.5586,-.5"/>
<text text-anchor="start" x="202.5586" y="-16.5" font-family="Helvetica,sans-Serif" font-size="10.00" fill="#000000">TrilinosWrappers::Solver</text>
<text text-anchor="middle" x="257.0239" y="-6.5" font-family="Helvetica,sans-Serif" font-size="10.00" fill="#000000">TFQMR</text>
</a>
</g>
</g>
<!-- Node0&#45;&gt;Node5 -->
<g id="edge5" class="edge">
<title>Node0&#45;&gt;Node5</title>
<path fill="none" stroke="#191970" d="M95.6585,-88.6699C117.292,-74.4233 151.7526,-52.9826 183.7236,-38.5 191.7739,-34.8533 200.5453,-31.4917 209.131,-28.5106"/>
<polygon fill="#191970" stroke="#191970" points="93.5986,-85.8366 87.2169,-94.2939 97.4797,-91.6621 93.5986,-85.8366"/>
</g>
</g>
</svg>
