<?xml version="1.0" encoding="UTF-8" standalone="no"?>
<!DOCTYPE svg PUBLIC "-//W3C//DTD SVG 1.1//EN"
 "http://www.w3.org/Graphics/SVG/1.1/DTD/svg11.dtd">
<!-- Generated by graphviz version 2.40.1 (20161225.0304)
 -->
<!-- Title: AlignedVector&lt; T &gt; Pages: 1 -->
<svg width="462pt" height="455pt"
 viewBox="0.00 0.00 461.70 454.72" xmlns="http://www.w3.org/2000/svg" xmlns:xlink="http://www.w3.org/1999/xlink">
<g id="graph0" class="graph" transform="scale(1 1) rotate(0) translate(4 450.7243)">
<title>AlignedVector&lt; T &gt;</title>
<polygon fill="#ffffff" stroke="transparent" points="-4,4 -4,-450.7243 457.6982,-450.7243 457.6982,4 -4,4"/>
<!-- Node0 -->
<g id="node1" class="node">
<title>Node0</title>
<polygon fill="#bfbfbf" stroke="#000000" points="0,-195.7243 0,-213.7243 100.707,-213.7243 100.707,-195.7243 0,-195.7243"/>
<text text-anchor="middle" x="50.3535" y="-201.7243" font-family="Helvetica,sans-Serif" font-size="10.00" fill="#000000">AlignedVector&lt; T &gt;</text>
</g>
<!-- Node1 -->
<g id="node2" class="node">
<title>Node1</title>
<g id="a_node2"><a xlink:href="classAlignedVector.html" target="_top" xlink:title="AlignedVector\&lt; Tensor\l\&lt; 1, dim, VectorizedArray\l\&lt; Number \&gt; \&gt; \&gt;">
<polygon fill="#ffffff" stroke="#000000" points="299.9883,-395.7243 299.9883,-433.7243 427.9854,-433.7243 427.9854,-395.7243 299.9883,-395.7243"/>
<text text-anchor="start" x="307.9883" y="-421.7243" font-family="Helvetica,sans-Serif" font-size="10.00" fill="#000000">AlignedVector&lt; Tensor</text>
<text text-anchor="start" x="307.9883" y="-411.7243" font-family="Helvetica,sans-Serif" font-size="10.00" fill="#000000">&lt; 1, dim, VectorizedArray</text>
<text text-anchor="middle" x="363.9868" y="-401.7243" font-family="Helvetica,sans-Serif" font-size="10.00" fill="#000000">&lt; Number &gt; &gt; &gt;</text>
</a>
</g>
</g>
<!-- Node0&#45;&gt;Node1 -->
<g id="edge1" class="edge">
<title>Node0&#45;&gt;Node1</title>
<path fill="none" stroke="#ffa500" stroke-dasharray="5,2" d="M54.7876,-223.9367C65.0684,-266.728 91.7205,-367.7644 118.707,-388.7243 169.7745,-428.3873 245.935,-430.3062 299.8194,-425.2078"/>
<polygon fill="#ffa500" stroke="#ffa500" points="58.1879,-223.1066 52.4855,-214.1772 51.3749,-224.7137 58.1879,-223.1066"/>
<text text-anchor="start" x="122.8208" y="-438.7243" font-family="Helvetica,sans-Serif" font-size="10.00" fill="#000000"> &lt; Tensor&lt; 1, dim, Vectorized</text>
<text text-anchor="middle" x="187.4912" y="-428.7243" font-family="Helvetica,sans-Serif" font-size="10.00" fill="#000000">Array&lt; Number &gt; &gt; &gt;</text>
</g>
<!-- Node2 -->
<g id="node3" class="node">
<title>Node2</title>
<g id="a_node3"><a xlink:href="classAlignedVector.html" target="_top" xlink:title="AlignedVector\&lt; Point\l\&lt; dim, VectorizedArray\l\&lt; Number \&gt; \&gt; \&gt;">
<polygon fill="#ffffff" stroke="#000000" points="305.5474,-338.7243 305.5474,-376.7243 422.4263,-376.7243 422.4263,-338.7243 305.5474,-338.7243"/>
<text text-anchor="start" x="313.5474" y="-364.7243" font-family="Helvetica,sans-Serif" font-size="10.00" fill="#000000">AlignedVector&lt; Point</text>
<text text-anchor="start" x="313.5474" y="-354.7243" font-family="Helvetica,sans-Serif" font-size="10.00" fill="#000000">&lt; dim, VectorizedArray</text>
<text text-anchor="middle" x="363.9868" y="-344.7243" font-family="Helvetica,sans-Serif" font-size="10.00" fill="#000000">&lt; Number &gt; &gt; &gt;</text>
</a>
</g>
</g>
<!-- Node0&#45;&gt;Node2 -->
<g id="edge2" class="edge">
<title>Node0&#45;&gt;Node2</title>
<path fill="none" stroke="#ffa500" stroke-dasharray="5,2" d="M54.9593,-223.4543C62.8669,-251.2785 81.8552,-302.9088 118.707,-327.7243 173.8634,-364.8657 252.1466,-368.029 305.3315,-364.7437"/>
<polygon fill="#ffa500" stroke="#ffa500" points="58.3316,-222.5162 52.3802,-213.7508 51.5665,-224.3143 58.3316,-222.5162"/>
<text text-anchor="start" x="131.9028" y="-376.7243" font-family="Helvetica,sans-Serif" font-size="10.00" fill="#000000"> &lt; Point&lt; dim, Vectorized</text>
<text text-anchor="middle" x="187.4912" y="-366.7243" font-family="Helvetica,sans-Serif" font-size="10.00" fill="#000000">Array&lt; Number &gt; &gt; &gt;</text>
</g>
<!-- Node3 -->
<g id="node4" class="node">
<title>Node3</title>
<g id="a_node4"><a xlink:href="classAlignedVector.html" target="_top" xlink:title="AlignedVector\&lt; Tensor\l\&lt; 3, dim, VectorizedArray\l\&lt; Number \&gt; \&gt; \&gt;">
<polygon fill="#ffffff" stroke="#000000" points="299.9883,-281.7243 299.9883,-319.7243 427.9854,-319.7243 427.9854,-281.7243 299.9883,-281.7243"/>
<text text-anchor="start" x="307.9883" y="-307.7243" font-family="Helvetica,sans-Serif" font-size="10.00" fill="#000000">AlignedVector&lt; Tensor</text>
<text text-anchor="start" x="307.9883" y="-297.7243" font-family="Helvetica,sans-Serif" font-size="10.00" fill="#000000">&lt; 3, dim, VectorizedArray</text>
<text text-anchor="middle" x="363.9868" y="-287.7243" font-family="Helvetica,sans-Serif" font-size="10.00" fill="#000000">&lt; Number &gt; &gt; &gt;</text>
</a>
</g>
</g>
<!-- Node0&#45;&gt;Node3 -->
<g id="edge3" class="edge">
<title>Node0&#45;&gt;Node3</title>
<path fill="none" stroke="#ffa500" stroke-dasharray="5,2" d="M62.0443,-222.0305C74.1402,-238.3842 94.6211,-262.0933 118.707,-273.7243 175.6096,-301.2023 248.3674,-305.9795 299.8195,-305.093"/>
<polygon fill="#ffa500" stroke="#ffa500" points="64.8611,-219.9521 56.2174,-213.8253 59.1538,-224.0051 64.8611,-219.9521"/>
<text text-anchor="start" x="122.8208" y="-315.7243" font-family="Helvetica,sans-Serif" font-size="10.00" fill="#000000"> &lt; Tensor&lt; 3, dim, Vectorized</text>
<text text-anchor="middle" x="187.4912" y="-305.7243" font-family="Helvetica,sans-Serif" font-size="10.00" fill="#000000">Array&lt; Number &gt; &gt; &gt;</text>
</g>
<!-- Node4 -->
<g id="node5" class="node">
<title>Node4</title>
<g id="a_node5"><a xlink:href="classAlignedVector.html" target="_top" xlink:title="AlignedVector\&lt; std\l::pair\&lt; Tensor\&lt; 1, dim,\l VectorizedArray\&lt; Number\l \&gt; \&gt;, VectorizedArray\&lt; Number \&gt; \&gt; \&gt;">
<polygon fill="#ffffff" stroke="#000000" points="274.2754,-214.7243 274.2754,-262.7243 453.6982,-262.7243 453.6982,-214.7243 274.2754,-214.7243"/>
<text text-anchor="start" x="282.2754" y="-250.7243" font-family="Helvetica,sans-Serif" font-size="10.00" fill="#000000">AlignedVector&lt; std</text>
<text text-anchor="start" x="282.2754" y="-240.7243" font-family="Helvetica,sans-Serif" font-size="10.00" fill="#000000">::pair&lt; Tensor&lt; 1, dim,</text>
<text text-anchor="start" x="282.2754" y="-230.7243" font-family="Helvetica,sans-Serif" font-size="10.00" fill="#000000"> VectorizedArray&lt; Number</text>
<text text-anchor="middle" x="363.9868" y="-220.7243" font-family="Helvetica,sans-Serif" font-size="10.00" fill="#000000"> &gt; &gt;, VectorizedArray&lt; Number &gt; &gt; &gt;</text>
</a>
</g>
</g>
<!-- Node0&#45;&gt;Node4 -->
<g id="edge4" class="edge">
<title>Node0&#45;&gt;Node4</title>
<path fill="none" stroke="#ffa500" stroke-dasharray="5,2" d="M111.0727,-214.7091C113.65,-215.0655 116.2031,-215.4057 118.707,-215.7243 170.0451,-222.2549 227.6492,-227.7503 274.1267,-231.7302"/>
<polygon fill="#ffa500" stroke="#ffa500" points="111.4611,-211.229 101.0642,-213.2673 110.4629,-218.1575 111.4611,-211.229"/>
<text text-anchor="start" x="118.707" y="-261.7243" font-family="Helvetica,sans-Serif" font-size="10.00" fill="#000000"> &lt; std::pair&lt; Tensor</text>
<text text-anchor="start" x="118.707" y="-251.7243" font-family="Helvetica,sans-Serif" font-size="10.00" fill="#000000">&lt; 1, dim, VectorizedArray</text>
<text text-anchor="start" x="118.707" y="-241.7243" font-family="Helvetica,sans-Serif" font-size="10.00" fill="#000000">&lt; Number &gt; &gt;, VectorizedArray</text>
<text text-anchor="middle" x="187.4912" y="-231.7243" font-family="Helvetica,sans-Serif" font-size="10.00" fill="#000000">&lt; Number &gt; &gt; &gt;</text>
</g>
<!-- Node5 -->
<g id="node6" class="node">
<title>Node5</title>
<g id="a_node6"><a xlink:href="classAlignedVector.html" target="_top" xlink:title="AlignedVector\&lt; std\l::pair\&lt; Tensor\&lt; 2, dim,\l VectorizedArray\&lt; Number\l \&gt; \&gt;, VectorizedArray\&lt; Number \&gt; \&gt; \&gt;">
<polygon fill="#ffffff" stroke="#000000" points="274.2754,-147.7243 274.2754,-195.7243 453.6982,-195.7243 453.6982,-147.7243 274.2754,-147.7243"/>
<text text-anchor="start" x="282.2754" y="-183.7243" font-family="Helvetica,sans-Serif" font-size="10.00" fill="#000000">AlignedVector&lt; std</text>
<text text-anchor="start" x="282.2754" y="-173.7243" font-family="Helvetica,sans-Serif" font-size="10.00" fill="#000000">::pair&lt; Tensor&lt; 2, dim,</text>
<text text-anchor="start" x="282.2754" y="-163.7243" font-family="Helvetica,sans-Serif" font-size="10.00" fill="#000000"> VectorizedArray&lt; Number</text>
<text text-anchor="middle" x="363.9868" y="-153.7243" font-family="Helvetica,sans-Serif" font-size="10.00" fill="#000000"> &gt; &gt;, VectorizedArray&lt; Number &gt; &gt; &gt;</text>
</a>
</g>
</g>
<!-- Node0&#45;&gt;Node5 -->
<g id="edge5" class="edge">
<title>Node0&#45;&gt;Node5</title>
<path fill="none" stroke="#ffa500" stroke-dasharray="5,2" d="M75.9456,-191.0911C88.4649,-185.1527 103.9799,-178.8444 118.707,-175.7243 169.4331,-164.9772 227.3879,-163.5477 274.2222,-165.004"/>
<polygon fill="#ffa500" stroke="#ffa500" points="74.03,-188.134 66.6199,-195.7064 77.1348,-194.4077 74.03,-188.134"/>
<text text-anchor="start" x="118.707" y="-207.7243" font-family="Helvetica,sans-Serif" font-size="10.00" fill="#000000"> &lt; std::pair&lt; Tensor</text>
<text text-anchor="start" x="118.707" y="-197.7243" font-family="Helvetica,sans-Serif" font-size="10.00" fill="#000000">&lt; 2, dim, VectorizedArray</text>
<text text-anchor="start" x="118.707" y="-187.7243" font-family="Helvetica,sans-Serif" font-size="10.00" fill="#000000">&lt; Number &gt; &gt;, VectorizedArray</text>
<text text-anchor="middle" x="187.4912" y="-177.7243" font-family="Helvetica,sans-Serif" font-size="10.00" fill="#000000">&lt; Number &gt; &gt; &gt;</text>
</g>
<!-- Node6 -->
<g id="node7" class="node">
<title>Node6</title>
<g id="a_node7"><a xlink:href="classAlignedVector.html" target="_top" xlink:title="AlignedVector\&lt; Tensor\l\&lt; 2, dim, VectorizedArray\l\&lt; Number \&gt; \&gt; \&gt;">
<polygon fill="#ffffff" stroke="#000000" points="299.9883,-90.7243 299.9883,-128.7243 427.9854,-128.7243 427.9854,-90.7243 299.9883,-90.7243"/>
<text text-anchor="start" x="307.9883" y="-116.7243" font-family="Helvetica,sans-Serif" font-size="10.00" fill="#000000">AlignedVector&lt; Tensor</text>
<text text-anchor="start" x="307.9883" y="-106.7243" font-family="Helvetica,sans-Serif" font-size="10.00" fill="#000000">&lt; 2, dim, VectorizedArray</text>
<text text-anchor="middle" x="363.9868" y="-96.7243" font-family="Helvetica,sans-Serif" font-size="10.00" fill="#000000">&lt; Number &gt; &gt; &gt;</text>
</a>
</g>
</g>
<!-- Node0&#45;&gt;Node6 -->
<g id="edge6" class="edge">
<title>Node0&#45;&gt;Node6</title>
<path fill="none" stroke="#ffa500" stroke-dasharray="5,2" d="M63.0422,-187.5574C75.4104,-172.2362 95.681,-150.5921 118.707,-139.7243 175.8348,-112.7612 248.3941,-106.8907 299.7319,-106.7688"/>
<polygon fill="#ffa500" stroke="#ffa500" points="60.0755,-185.6716 56.7121,-195.7184 65.6067,-189.9619 60.0755,-185.6716"/>
<text text-anchor="start" x="122.8208" y="-151.7243" font-family="Helvetica,sans-Serif" font-size="10.00" fill="#000000"> &lt; Tensor&lt; 2, dim, Vectorized</text>
<text text-anchor="middle" x="187.4912" y="-141.7243" font-family="Helvetica,sans-Serif" font-size="10.00" fill="#000000">Array&lt; Number &gt; &gt; &gt;</text>
</g>
<!-- Node7 -->
<g id="node8" class="node">
<title>Node7</title>
<g id="a_node8"><a xlink:href="classAlignedVector.html" target="_top" xlink:title="AlignedVector\&lt; number \&gt;">
<polygon fill="#ffffff" stroke="#000000" points="299.5586,-53.7243 299.5586,-71.7243 428.415,-71.7243 428.415,-53.7243 299.5586,-53.7243"/>
<text text-anchor="middle" x="363.9868" y="-59.7243" font-family="Helvetica,sans-Serif" font-size="10.00" fill="#000000">AlignedVector&lt; number &gt;</text>
</a>
</g>
</g>
<!-- Node0&#45;&gt;Node7 -->
<g id="edge7" class="edge">
<title>Node0&#45;&gt;Node7</title>
<path fill="none" stroke="#ffa500" stroke-dasharray="5,2" d="M56.1483,-186.0043C65.1075,-160.4923 84.9127,-115.4943 118.707,-93.7243 172.471,-59.09 246.7414,-54.2706 299.4344,-56.2924"/>
<polygon fill="#ffa500" stroke="#ffa500" points="52.785,-185.0271 52.9635,-195.6204 59.43,-187.2279 52.785,-185.0271"/>
<text text-anchor="middle" x="187.4912" y="-95.7243" font-family="Helvetica,sans-Serif" font-size="10.00" fill="#000000"> &lt; number &gt;</text>
</g>
<!-- Node8 -->
<g id="node9" class="node">
<title>Node8</title>
<g id="a_node9"><a xlink:href="classAlignedVector.html" target="_top" xlink:title="AlignedVector\&lt; Vectorized\lArray\&lt; Number \&gt; \&gt;">
<polygon fill="#ffffff" stroke="#000000" points="297.4712,-6.7243 297.4712,-34.7243 430.5024,-34.7243 430.5024,-6.7243 297.4712,-6.7243"/>
<text text-anchor="start" x="305.4712" y="-22.7243" font-family="Helvetica,sans-Serif" font-size="10.00" fill="#000000">AlignedVector&lt; Vectorized</text>
<text text-anchor="middle" x="363.9868" y="-12.7243" font-family="Helvetica,sans-Serif" font-size="10.00" fill="#000000">Array&lt; Number &gt; &gt;</text>
</a>
</g>
</g>
<!-- Node0&#45;&gt;Node8 -->
<g id="edge8" class="edge">
<title>Node0&#45;&gt;Node8</title>
<path fill="none" stroke="#ffa500" stroke-dasharray="5,2" d="M51.511,-185.0845C54.8697,-147.9532 67.9411,-67.9409 118.707,-31.7243 172.6667,6.7708 251.5725,2.5589 305.2098,-6.6808"/>
<polygon fill="#ffa500" stroke="#ffa500" points="47.9858,-185.2893 50.7264,-195.5235 54.9661,-185.814 47.9858,-185.2893"/>
<text text-anchor="start" x="143.5776" y="-43.7243" font-family="Helvetica,sans-Serif" font-size="10.00" fill="#000000"> &lt; VectorizedArray&lt;</text>
<text text-anchor="middle" x="187.4912" y="-33.7243" font-family="Helvetica,sans-Serif" font-size="10.00" fill="#000000"> Number &gt; &gt;</text>
</g>
</g>
</svg>
