<?xml version="1.0" encoding="UTF-8" standalone="no"?>
<!DOCTYPE svg PUBLIC "-//W3C//DTD SVG 1.1//EN"
 "http://www.w3.org/Graphics/SVG/1.1/DTD/svg11.dtd">
<!-- Generated by graphviz version 2.40.1 (20161225.0304)
 -->
<!-- Title: Functions::StokesLSingularity Pages: 1 -->
<svg width="340pt" height="335pt"
 viewBox="0.00 0.00 340.24 335.00" xmlns="http://www.w3.org/2000/svg" xmlns:xlink="http://www.w3.org/1999/xlink">
<g id="graph0" class="graph" transform="scale(1 1) rotate(0) translate(4 331)">
<title>Functions::StokesLSingularity</title>
<polygon fill="#ffffff" stroke="transparent" points="-4,4 -4,-331 336.2441,-331 336.2441,4 -4,4"/>
<!-- Node0 -->
<g id="node1" class="node">
<title>Node0</title>
<polygon fill="#bfbfbf" stroke="#000000" points="81.8711,-.5 81.8711,-18.5 229.6045,-18.5 229.6045,-.5 81.8711,-.5"/>
<text text-anchor="middle" x="155.7378" y="-6.5" font-family="Helvetica,sans-Serif" font-size="10.00" fill="#000000">Functions::StokesLSingularity</text>
</g>
<!-- Node1 -->
<g id="node2" class="node">
<title>Node1</title>
<g id="a_node2"><a xlink:href="classFunctions_1_1FlowFunction.html" target="_top" xlink:title="Functions::FlowFunction\&lt; 2 \&gt;">
<polygon fill="#ffffff" stroke="#000000" points="82.1494,-56.5 82.1494,-74.5 229.3262,-74.5 229.3262,-56.5 82.1494,-56.5"/>
<text text-anchor="middle" x="155.7378" y="-62.5" font-family="Helvetica,sans-Serif" font-size="10.00" fill="#000000">Functions::FlowFunction&lt; 2 &gt;</text>
</a>
</g>
</g>
<!-- Node1&#45;&gt;Node0 -->
<g id="edge1" class="edge">
<title>Node1&#45;&gt;Node0</title>
<path fill="none" stroke="#191970" d="M155.7378,-46.2065C155.7378,-36.8384 155.7378,-26.0262 155.7378,-18.5752"/>
<polygon fill="#191970" stroke="#191970" points="152.2379,-46.2527 155.7378,-56.2527 159.2379,-46.2528 152.2379,-46.2527"/>
</g>
<!-- Node2 -->
<g id="node3" class="node">
<title>Node2</title>
<g id="a_node3"><a xlink:href="classFunction.html" target="_top" xlink:title="Function\&lt; dim \&gt;">
<polygon fill="#ffffff" stroke="#000000" points="107.8857,-187.5 107.8857,-205.5 195.5898,-205.5 195.5898,-187.5 107.8857,-187.5"/>
<text text-anchor="middle" x="151.7378" y="-193.5" font-family="Helvetica,sans-Serif" font-size="10.00" fill="#000000">Function&lt; dim &gt;</text>
</a>
</g>
</g>
<!-- Node2&#45;&gt;Node1 -->
<g id="edge2" class="edge">
<title>Node2&#45;&gt;Node1</title>
<path fill="none" stroke="#191970" d="M152.3289,-177.1413C153.2057,-148.4247 154.8168,-95.664 155.4609,-74.5672"/>
<polygon fill="#191970" stroke="#191970" points="148.8197,-177.3936 152.0127,-187.4958 155.8164,-177.6074 148.8197,-177.3936"/>
</g>
<!-- Node7 -->
<g id="node8" class="node">
<title>Node7</title>
<g id="a_node8"><a xlink:href="classFunctions_1_1FlowFunction.html" target="_top" xlink:title="Functions::FlowFunction\l\&lt; dim \&gt;">
<polygon fill="#ffffff" stroke="#000000" points="167.5483,-121.5 167.5483,-149.5 291.9272,-149.5 291.9272,-121.5 167.5483,-121.5"/>
<text text-anchor="start" x="175.5483" y="-137.5" font-family="Helvetica,sans-Serif" font-size="10.00" fill="#000000">Functions::FlowFunction</text>
<text text-anchor="middle" x="229.7378" y="-127.5" font-family="Helvetica,sans-Serif" font-size="10.00" fill="#000000">&lt; dim &gt;</text>
</a>
</g>
</g>
<!-- Node2&#45;&gt;Node7 -->
<g id="edge9" class="edge">
<title>Node2&#45;&gt;Node7</title>
<path fill="none" stroke="#191970" d="M171.2014,-181.2784C183.6501,-171.5429 199.6791,-159.0074 211.8155,-149.5162"/>
<polygon fill="#191970" stroke="#191970" points="168.968,-178.5818 163.247,-187.4992 173.2803,-184.0959 168.968,-178.5818"/>
</g>
<!-- Node3 -->
<g id="node4" class="node">
<title>Node3</title>
<g id="a_node4"><a xlink:href="classFunctionTime.html" target="_top" xlink:title="FunctionTime\&lt; double \&gt;">
<polygon fill="#ffffff" stroke="#000000" points="0,-252.5 0,-270.5 123.4756,-270.5 123.4756,-252.5 0,-252.5"/>
<text text-anchor="middle" x="61.7378" y="-258.5" font-family="Helvetica,sans-Serif" font-size="10.00" fill="#000000">FunctionTime&lt; double &gt;</text>
</a>
</g>
</g>
<!-- Node3&#45;&gt;Node2 -->
<g id="edge3" class="edge">
<title>Node3&#45;&gt;Node2</title>
<path fill="none" stroke="#191970" d="M82.6642,-246.3865C100.1105,-233.7864 124.3984,-216.2451 139.0398,-205.6708"/>
<polygon fill="#191970" stroke="#191970" points="80.3095,-243.7697 74.2519,-252.462 84.4079,-249.4445 80.3095,-243.7697"/>
</g>
<!-- Node4 -->
<g id="node5" class="node">
<title>Node4</title>
<g id="a_node5"><a xlink:href="classSubscriptor.html" target="_top" xlink:title="Subscriptor">
<polygon fill="#ffffff" stroke="#000000" points="118.4497,-308.5 118.4497,-326.5 185.0259,-326.5 185.0259,-308.5 118.4497,-308.5"/>
<text text-anchor="middle" x="151.7378" y="-314.5" font-family="Helvetica,sans-Serif" font-size="10.00" fill="#000000">Subscriptor</text>
</a>
</g>
</g>
<!-- Node4&#45;&gt;Node2 -->
<g id="edge4" class="edge">
<title>Node4&#45;&gt;Node2</title>
<path fill="none" stroke="#191970" d="M151.7378,-298.1238C151.7378,-271.6786 151.7378,-225.3298 151.7378,-205.7002"/>
<polygon fill="#191970" stroke="#191970" points="148.2379,-298.4053 151.7378,-308.4053 155.2379,-298.4054 148.2379,-298.4053"/>
</g>
<!-- Node5 -->
<g id="node6" class="node">
<title>Node5</title>
<g id="a_node6"><a xlink:href="classFunction.html" target="_top" xlink:title="Function\&lt; dim, Number \&gt;">
<polygon fill="#ffffff" stroke="#000000" points="179.3242,-252.5 179.3242,-270.5 308.1514,-270.5 308.1514,-252.5 179.3242,-252.5"/>
<text text-anchor="middle" x="243.7378" y="-258.5" font-family="Helvetica,sans-Serif" font-size="10.00" fill="#000000">Function&lt; dim, Number &gt;</text>
</a>
</g>
</g>
<!-- Node4&#45;&gt;Node5 -->
<g id="edge7" class="edge">
<title>Node4&#45;&gt;Node5</title>
<path fill="none" stroke="#191970" d="M175.6611,-302.938C192.4794,-292.7008 214.4587,-279.3221 228.8286,-270.5752"/>
<polygon fill="#191970" stroke="#191970" points="173.6519,-300.0635 166.9297,-308.2527 177.2916,-306.0429 173.6519,-300.0635"/>
</g>
<!-- Node5&#45;&gt;Node2 -->
<g id="edge5" class="edge">
<title>Node5&#45;&gt;Node2</title>
<path fill="none" stroke="#ffa500" stroke-dasharray="5,2" d="M222.3463,-246.3865C204.5123,-233.7864 179.6847,-216.2451 164.7179,-205.6708"/>
<polygon fill="#ffa500" stroke="#ffa500" points="220.7587,-249.5502 230.9456,-252.462 224.798,-243.8331 220.7587,-249.5502"/>
<text text-anchor="middle" x="221.8018" y="-226" font-family="Helvetica,sans-Serif" font-size="10.00" fill="#000000"> &lt; dim &gt;</text>
</g>
<!-- Node6 -->
<g id="node7" class="node">
<title>Node6</title>
<g id="a_node7"><a xlink:href="classFunctionTime.html" target="_top" xlink:title="FunctionTime\&lt; Number \&gt;">
<polygon fill="#ffffff" stroke="#000000" points="203.2314,-308.5 203.2314,-326.5 332.2441,-326.5 332.2441,-308.5 203.2314,-308.5"/>
<text text-anchor="middle" x="267.7378" y="-314.5" font-family="Helvetica,sans-Serif" font-size="10.00" fill="#000000">FunctionTime&lt; Number &gt;</text>
</a>
</g>
</g>
<!-- Node6&#45;&gt;Node5 -->
<g id="edge6" class="edge">
<title>Node6&#45;&gt;Node5</title>
<path fill="none" stroke="#191970" d="M259.7301,-298.8154C255.6564,-289.3101 250.8899,-278.1882 247.6272,-270.5752"/>
<polygon fill="#191970" stroke="#191970" points="256.6184,-300.44 263.7747,-308.2527 263.0524,-297.6825 256.6184,-300.44"/>
</g>
<!-- Node7&#45;&gt;Node1 -->
<g id="edge8" class="edge">
<title>Node7&#45;&gt;Node1</title>
<path fill="none" stroke="#ffa500" stroke-dasharray="5,2" d="M207.4034,-114.3729C193.4249,-101.1499 176.1143,-84.7751 165.5024,-74.7368"/>
<polygon fill="#ffa500" stroke="#ffa500" points="205.0929,-117.0051 214.7628,-121.3345 209.9033,-111.9198 205.0929,-117.0051"/>
<text text-anchor="middle" x="208.5259" y="-95" font-family="Helvetica,sans-Serif" font-size="10.00" fill="#000000"> &lt; 2 &gt;</text>
</g>
</g>
</svg>
