<?xml version="1.0" encoding="UTF-8" standalone="no"?>
<!DOCTYPE svg PUBLIC "-//W3C//DTD SVG 1.1//EN"
 "http://www.w3.org/Graphics/SVG/1.1/DTD/svg11.dtd">
<!-- Generated by graphviz version 2.40.1 (20161225.0304)
 -->
<!-- Title: internal::hp::FEValuesBase&lt; dim, q_dim, FEValuesType &gt; Pages: 1 -->
<svg width="648pt" height="161pt"
 viewBox="0.00 0.00 648.23 161.00" xmlns="http://www.w3.org/2000/svg" xmlns:xlink="http://www.w3.org/1999/xlink">
<g id="graph0" class="graph" transform="scale(1 1) rotate(0) translate(4 157)">
<title>internal::hp::FEValuesBase&lt; dim, q_dim, FEValuesType &gt;</title>
<polygon fill="#ffffff" stroke="transparent" points="-4,4 -4,-157 644.2334,-157 644.2334,4 -4,4"/>
<!-- Node0 -->
<g id="node1" class="node">
<title>Node0</title>
<polygon fill="#bfbfbf" stroke="#000000" points="0,-62.5 0,-90.5 152.001,-90.5 152.001,-62.5 0,-62.5"/>
<text text-anchor="start" x="8" y="-78.5" font-family="Helvetica,sans-Serif" font-size="10.00" fill="#000000">internal::hp::FEValuesBase</text>
<text text-anchor="middle" x="76.0005" y="-68.5" font-family="Helvetica,sans-Serif" font-size="10.00" fill="#000000">&lt; dim, q_dim, FEValuesType &gt;</text>
</g>
<!-- Node1 -->
<g id="node2" class="node">
<title>Node1</title>
<g id="a_node2"><a xlink:href="classinternal_1_1hp_1_1FEValuesBase.html" target="_top" xlink:title="internal::hp::FEValuesBase\l\&lt; dim, dim&#45;1,::FEFaceValues\l\&lt; dim, spacedim \&gt; \&gt;">
<polygon fill="#ffffff" stroke="#000000" points="326.4873,-114.5 326.4873,-152.5 470.9639,-152.5 470.9639,-114.5 326.4873,-114.5"/>
<text text-anchor="start" x="334.4873" y="-140.5" font-family="Helvetica,sans-Serif" font-size="10.00" fill="#000000">internal::hp::FEValuesBase</text>
<text text-anchor="start" x="334.4873" y="-130.5" font-family="Helvetica,sans-Serif" font-size="10.00" fill="#000000">&lt; dim, dim&#45;1,::FEFaceValues</text>
<text text-anchor="middle" x="398.7256" y="-120.5" font-family="Helvetica,sans-Serif" font-size="10.00" fill="#000000">&lt; dim, spacedim &gt; &gt;</text>
</a>
</g>
</g>
<!-- Node0&#45;&gt;Node1 -->
<g id="edge1" class="edge">
<title>Node0&#45;&gt;Node1</title>
<path fill="none" stroke="#ffa500" stroke-dasharray="5,2" d="M136.9282,-93.0624C147.892,-95.7549 159.2511,-98.3585 170.001,-100.5 221.9393,-110.8465 281.127,-119.2968 326.2794,-125.0556"/>
<polygon fill="#ffa500" stroke="#ffa500" points="137.5501,-89.6101 126.9994,-90.5755 135.8493,-96.4004 137.5501,-89.6101"/>
<text text-anchor="start" x="170.001" y="-133.5" font-family="Helvetica,sans-Serif" font-size="10.00" fill="#000000"> &lt; dim, dim&#45;1,::FEFaceValues</text>
<text text-anchor="middle" x="235.6284" y="-123.5" font-family="Helvetica,sans-Serif" font-size="10.00" fill="#000000">&lt; dim, spacedim &gt; &gt;</text>
</g>
<!-- Node3 -->
<g id="node4" class="node">
<title>Node3</title>
<g id="a_node4"><a xlink:href="classinternal_1_1hp_1_1FEValuesBase.html" target="_top" xlink:title="internal::hp::FEValuesBase\l\&lt; dim, dim&#45;1,::FESubfaceValues\l\&lt; dim, spacedim \&gt; \&gt;">
<polygon fill="#ffffff" stroke="#000000" points="319.2559,-57.5 319.2559,-95.5 478.1953,-95.5 478.1953,-57.5 319.2559,-57.5"/>
<text text-anchor="start" x="327.2559" y="-83.5" font-family="Helvetica,sans-Serif" font-size="10.00" fill="#000000">internal::hp::FEValuesBase</text>
<text text-anchor="start" x="327.2559" y="-73.5" font-family="Helvetica,sans-Serif" font-size="10.00" fill="#000000">&lt; dim, dim&#45;1,::FESubfaceValues</text>
<text text-anchor="middle" x="398.7256" y="-63.5" font-family="Helvetica,sans-Serif" font-size="10.00" fill="#000000">&lt; dim, spacedim &gt; &gt;</text>
</a>
</g>
</g>
<!-- Node0&#45;&gt;Node3 -->
<g id="edge3" class="edge">
<title>Node0&#45;&gt;Node3</title>
<path fill="none" stroke="#ffa500" stroke-dasharray="5,2" d="M162.2933,-76.5C211.0669,-76.5 271.6149,-76.5 319.2274,-76.5"/>
<polygon fill="#ffa500" stroke="#ffa500" points="162.0732,-73.0001 152.0732,-76.5 162.0731,-80.0001 162.0732,-73.0001"/>
<text text-anchor="start" x="175.5479" y="-88.5" font-family="Helvetica,sans-Serif" font-size="10.00" fill="#000000"> &lt; dim, dim&#45;1,::FESubface</text>
<text text-anchor="middle" x="235.6284" y="-78.5" font-family="Helvetica,sans-Serif" font-size="10.00" fill="#000000">Values&lt; dim, spacedim &gt; &gt;</text>
</g>
<!-- Node5 -->
<g id="node6" class="node">
<title>Node5</title>
<g id="a_node6"><a xlink:href="classinternal_1_1hp_1_1FEValuesBase.html" target="_top" xlink:title="internal::hp::FEValuesBase\l\&lt; dim, dim,::FEValues\&lt; dim,\l spacedim \&gt; \&gt;">
<polygon fill="#ffffff" stroke="#000000" points="328.2939,-.5 328.2939,-38.5 469.1572,-38.5 469.1572,-.5 328.2939,-.5"/>
<text text-anchor="start" x="336.2939" y="-26.5" font-family="Helvetica,sans-Serif" font-size="10.00" fill="#000000">internal::hp::FEValuesBase</text>
<text text-anchor="start" x="336.2939" y="-16.5" font-family="Helvetica,sans-Serif" font-size="10.00" fill="#000000">&lt; dim, dim,::FEValues&lt; dim,</text>
<text text-anchor="middle" x="398.7256" y="-6.5" font-family="Helvetica,sans-Serif" font-size="10.00" fill="#000000"> spacedim &gt; &gt;</text>
</a>
</g>
</g>
<!-- Node0&#45;&gt;Node5 -->
<g id="edge5" class="edge">
<title>Node0&#45;&gt;Node5</title>
<path fill="none" stroke="#ffa500" stroke-dasharray="5,2" d="M136.9282,-59.9376C147.892,-57.2451 159.2511,-54.6415 170.001,-52.5 222.6278,-42.0163 282.6976,-33.4794 328.0678,-27.7167"/>
<polygon fill="#ffa500" stroke="#ffa500" points="135.8493,-56.5996 126.9994,-62.4245 137.5501,-63.3899 135.8493,-56.5996"/>
<text text-anchor="start" x="185.5625" y="-64.5" font-family="Helvetica,sans-Serif" font-size="10.00" fill="#000000"> &lt; dim, dim,::FEValues</text>
<text text-anchor="middle" x="235.6284" y="-54.5" font-family="Helvetica,sans-Serif" font-size="10.00" fill="#000000">&lt; dim, spacedim &gt; &gt;</text>
</g>
<!-- Node2 -->
<g id="node3" class="node">
<title>Node2</title>
<g id="a_node3"><a xlink:href="classhp_1_1FEFaceValues.html" target="_top" xlink:title="hp::FEFaceValues\&lt; dim,\l spacedim \&gt;">
<polygon fill="#ffffff" stroke="#000000" points="515.1953,-119.5 515.1953,-147.5 640.2334,-147.5 640.2334,-119.5 515.1953,-119.5"/>
<text text-anchor="start" x="523.1953" y="-135.5" font-family="Helvetica,sans-Serif" font-size="10.00" fill="#000000">hp::FEFaceValues&lt; dim,</text>
<text text-anchor="middle" x="577.7144" y="-125.5" font-family="Helvetica,sans-Serif" font-size="10.00" fill="#000000"> spacedim &gt;</text>
</a>
</g>
</g>
<!-- Node1&#45;&gt;Node2 -->
<g id="edge2" class="edge">
<title>Node1&#45;&gt;Node2</title>
<path fill="none" stroke="#191970" d="M481.3273,-133.5C492.6282,-133.5 504.0765,-133.5 514.9458,-133.5"/>
<polygon fill="#191970" stroke="#191970" points="481.0113,-130.0001 471.0112,-133.5 481.0112,-137.0001 481.0113,-130.0001"/>
</g>
<!-- Node4 -->
<g id="node5" class="node">
<title>Node4</title>
<g id="a_node5"><a xlink:href="classhp_1_1FESubfaceValues.html" target="_top" xlink:title="hp::FESubfaceValues\l\&lt; dim, spacedim \&gt;">
<polygon fill="#ffffff" stroke="#000000" points="521.7188,-62.5 521.7188,-90.5 633.71,-90.5 633.71,-62.5 521.7188,-62.5"/>
<text text-anchor="start" x="529.7188" y="-78.5" font-family="Helvetica,sans-Serif" font-size="10.00" fill="#000000">hp::FESubfaceValues</text>
<text text-anchor="middle" x="577.7144" y="-68.5" font-family="Helvetica,sans-Serif" font-size="10.00" fill="#000000">&lt; dim, spacedim &gt;</text>
</a>
</g>
</g>
<!-- Node3&#45;&gt;Node4 -->
<g id="edge4" class="edge">
<title>Node3&#45;&gt;Node4</title>
<path fill="none" stroke="#191970" d="M488.5546,-76.5C499.7677,-76.5 510.9738,-76.5 521.4688,-76.5"/>
<polygon fill="#191970" stroke="#191970" points="488.2751,-73.0001 478.275,-76.5 488.275,-80.0001 488.2751,-73.0001"/>
</g>
<!-- Node6 -->
<g id="node7" class="node">
<title>Node6</title>
<g id="a_node7"><a xlink:href="classhp_1_1FEValues.html" target="_top" xlink:title="hp::FEValues\&lt; dim,\l spacedim \&gt;">
<polygon fill="#ffffff" stroke="#000000" points="526.311,-5.5 526.311,-33.5 629.1177,-33.5 629.1177,-5.5 526.311,-5.5"/>
<text text-anchor="start" x="534.311" y="-21.5" font-family="Helvetica,sans-Serif" font-size="10.00" fill="#000000">hp::FEValues&lt; dim,</text>
<text text-anchor="middle" x="577.7144" y="-11.5" font-family="Helvetica,sans-Serif" font-size="10.00" fill="#000000"> spacedim &gt;</text>
</a>
</g>
</g>
<!-- Node5&#45;&gt;Node6 -->
<g id="edge6" class="edge">
<title>Node5&#45;&gt;Node6</title>
<path fill="none" stroke="#191970" d="M479.5352,-19.5C495.3599,-19.5 511.5502,-19.5 526.1019,-19.5"/>
<polygon fill="#191970" stroke="#191970" points="479.2098,-16.0001 469.2098,-19.5 479.2097,-23.0001 479.2098,-16.0001"/>
</g>
</g>
</svg>
