<?xml version="1.0" encoding="UTF-8" standalone="no"?>
<!DOCTYPE svg PUBLIC "-//W3C//DTD SVG 1.1//EN"
 "http://www.w3.org/Graphics/SVG/1.1/DTD/svg11.dtd">
<!-- Generated by graphviz version 2.40.1 (20161225.0304)
 -->
<!-- Title: FE_PolyFace&lt; PolynomialType, dim, spacedim &gt;::InternalData Pages: 1 -->
<svg width="166pt" height="102pt"
 viewBox="0.00 0.00 166.02 102.00" xmlns="http://www.w3.org/2000/svg" xmlns:xlink="http://www.w3.org/1999/xlink">
<g id="graph0" class="graph" transform="scale(1 1) rotate(0) translate(4 98)">
<title>FE_PolyFace&lt; PolynomialType, dim, spacedim &gt;::InternalData</title>
<polygon fill="#ffffff" stroke="transparent" points="-4,4 -4,-98 162.0166,-98 162.0166,4 -4,4"/>
<!-- Node0 -->
<g id="node1" class="node">
<title>Node0</title>
<polygon fill="#bfbfbf" stroke="#000000" points="0,-.5 0,-28.5 158.0166,-28.5 158.0166,-.5 0,-.5"/>
<text text-anchor="start" x="8" y="-16.5" font-family="Helvetica,sans-Serif" font-size="10.00" fill="#000000">FE_PolyFace&lt; PolynomialType,</text>
<text text-anchor="middle" x="79.0083" y="-6.5" font-family="Helvetica,sans-Serif" font-size="10.00" fill="#000000"> dim, spacedim &gt;::InternalData</text>
</g>
<!-- Node1 -->
<g id="node2" class="node">
<title>Node1</title>
<g id="a_node2"><a xlink:href="classFiniteElement_1_1InternalDataBase.html" target="_top" xlink:title="FiniteElement\&lt; dim,\l spacedim \&gt;::InternalDataBase">
<polygon fill="#ffffff" stroke="#000000" points="2.4976,-65.5 2.4976,-93.5 155.519,-93.5 155.519,-65.5 2.4976,-65.5"/>
<text text-anchor="start" x="10.4976" y="-81.5" font-family="Helvetica,sans-Serif" font-size="10.00" fill="#000000">FiniteElement&lt; dim,</text>
<text text-anchor="middle" x="79.0083" y="-71.5" font-family="Helvetica,sans-Serif" font-size="10.00" fill="#000000"> spacedim &gt;::InternalDataBase</text>
</a>
</g>
</g>
<!-- Node1&#45;&gt;Node0 -->
<g id="edge1" class="edge">
<title>Node1&#45;&gt;Node0</title>
<path fill="none" stroke="#191970" d="M79.0083,-55.1081C79.0083,-46.1539 79.0083,-36.3227 79.0083,-28.5765"/>
<polygon fill="#191970" stroke="#191970" points="75.5084,-55.3959 79.0083,-65.396 82.5084,-55.396 75.5084,-55.3959"/>
</g>
</g>
</svg>
