<?xml version="1.0" encoding="UTF-8" standalone="no"?>
<!DOCTYPE svg PUBLIC "-//W3C//DTD SVG 1.1//EN"
 "http://www.w3.org/Graphics/SVG/1.1/DTD/svg11.dtd">
<!-- Generated by graphviz version 2.40.1 (20161225.0304)
 -->
<!-- Title: PETScWrappers::SolverBase Pages: 1 -->
<svg width="366pt" height="481pt"
 viewBox="0.00 0.00 365.75 481.00" xmlns="http://www.w3.org/2000/svg" xmlns:xlink="http://www.w3.org/1999/xlink">
<g id="graph0" class="graph" transform="scale(1 1) rotate(0) translate(4 477)">
<title>PETScWrappers::SolverBase</title>
<polygon fill="#ffffff" stroke="transparent" points="-4,4 -4,-477 361.751,-477 361.751,4 -4,4"/>
<!-- Node0 -->
<g id="node1" class="node">
<title>Node0</title>
<polygon fill="#bfbfbf" stroke="#000000" points="0,-232.5 0,-250.5 146.9814,-250.5 146.9814,-232.5 0,-232.5"/>
<text text-anchor="middle" x="73.4907" y="-238.5" font-family="Helvetica,sans-Serif" font-size="10.00" fill="#000000">PETScWrappers::SolverBase</text>
</g>
<!-- Node1 -->
<g id="node2" class="node">
<title>Node1</title>
<g id="a_node2"><a xlink:href="classPETScWrappers_1_1SolverBiCG.html" target="_top" xlink:title="PETScWrappers::SolverBiCG">
<polygon fill="#ffffff" stroke="#000000" points="196.3262,-454.5 196.3262,-472.5 344.4063,-472.5 344.4063,-454.5 196.3262,-454.5"/>
<text text-anchor="middle" x="270.3662" y="-460.5" font-family="Helvetica,sans-Serif" font-size="10.00" fill="#000000">PETScWrappers::SolverBiCG</text>
</a>
</g>
</g>
<!-- Node0&#45;&gt;Node1 -->
<g id="edge1" class="edge">
<title>Node0&#45;&gt;Node1</title>
<path fill="none" stroke="#191970" d="M77.8559,-260.3638C88.333,-301.1572 118.9273,-397.7416 182.9814,-445.5 187.8244,-449.1109 193.2198,-452.0393 198.887,-454.4094"/>
<polygon fill="#191970" stroke="#191970" points="81.2505,-259.5108 75.4711,-250.631 74.4516,-261.1767 81.2505,-259.5108"/>
</g>
<!-- Node2 -->
<g id="node3" class="node">
<title>Node2</title>
<g id="a_node3"><a xlink:href="classPETScWrappers_1_1SolverBicgstab.html" target="_top" xlink:title="PETScWrappers::SolverBicgstab">
<polygon fill="#ffffff" stroke="#000000" points="189.0947,-417.5 189.0947,-435.5 351.6377,-435.5 351.6377,-417.5 189.0947,-417.5"/>
<text text-anchor="middle" x="270.3662" y="-423.5" font-family="Helvetica,sans-Serif" font-size="10.00" fill="#000000">PETScWrappers::SolverBicgstab</text>
</a>
</g>
</g>
<!-- Node0&#45;&gt;Node2 -->
<g id="edge2" class="edge">
<title>Node0&#45;&gt;Node2</title>
<path fill="none" stroke="#191970" d="M80.0582,-260.0145C93.4989,-295.0485 127.6282,-370.8896 182.9814,-408.5 188.3624,-412.1562 194.3299,-415.0972 200.5465,-417.4592"/>
<polygon fill="#191970" stroke="#191970" points="83.3046,-258.7024 76.5505,-250.5395 76.74,-261.1326 83.3046,-258.7024"/>
</g>
<!-- Node3 -->
<g id="node4" class="node">
<title>Node3</title>
<g id="a_node4"><a xlink:href="classPETScWrappers_1_1SolverCG.html" target="_top" xlink:title="PETScWrappers::SolverCG">
<polygon fill="#ffffff" stroke="#000000" points="200.772,-380.5 200.772,-398.5 339.9604,-398.5 339.9604,-380.5 200.772,-380.5"/>
<text text-anchor="middle" x="270.3662" y="-386.5" font-family="Helvetica,sans-Serif" font-size="10.00" fill="#000000">PETScWrappers::SolverCG</text>
</a>
</g>
</g>
<!-- Node0&#45;&gt;Node3 -->
<g id="edge3" class="edge">
<title>Node0&#45;&gt;Node3</title>
<path fill="none" stroke="#191970" d="M83.2161,-259.4302C99.7176,-288.0194 136.0325,-343.5495 182.9814,-371.5 189.1038,-375.1449 195.8473,-378.061 202.7912,-380.3927"/>
<polygon fill="#191970" stroke="#191970" points="86.1676,-257.5377 78.2206,-250.5307 80.0634,-260.9641 86.1676,-257.5377"/>
</g>
<!-- Node4 -->
<g id="node5" class="node">
<title>Node4</title>
<g id="a_node5"><a xlink:href="classPETScWrappers_1_1SolverCGS.html" target="_top" xlink:title="PETScWrappers::SolverCGS">
<polygon fill="#ffffff" stroke="#000000" points="197.437,-343.5 197.437,-361.5 343.2954,-361.5 343.2954,-343.5 197.437,-343.5"/>
<text text-anchor="middle" x="270.3662" y="-349.5" font-family="Helvetica,sans-Serif" font-size="10.00" fill="#000000">PETScWrappers::SolverCGS</text>
</a>
</g>
</g>
<!-- Node0&#45;&gt;Node4 -->
<g id="edge4" class="edge">
<title>Node0&#45;&gt;Node4</title>
<path fill="none" stroke="#191970" d="M88.0178,-258.1904C107.4467,-279.3886 143.9937,-315.4914 182.9814,-334.5 190.4998,-338.1656 198.7345,-341.0857 207.0488,-343.4116"/>
<polygon fill="#191970" stroke="#191970" points="90.5024,-255.7186 81.2198,-250.6113 85.2914,-260.3926 90.5024,-255.7186"/>
</g>
<!-- Node5 -->
<g id="node6" class="node">
<title>Node5</title>
<g id="a_node6"><a xlink:href="classPETScWrappers_1_1SolverChebychev.html" target="_top" xlink:title="PETScWrappers::SolverChebychev">
<polygon fill="#ffffff" stroke="#000000" points="183.2573,-306.5 183.2573,-324.5 357.4751,-324.5 357.4751,-306.5 183.2573,-306.5"/>
<text text-anchor="middle" x="270.3662" y="-312.5" font-family="Helvetica,sans-Serif" font-size="10.00" fill="#000000">PETScWrappers::SolverChebychev</text>
</a>
</g>
</g>
<!-- Node0&#45;&gt;Node5 -->
<g id="edge5" class="edge">
<title>Node0&#45;&gt;Node5</title>
<path fill="none" stroke="#191970" d="M96.9343,-255.8488C118.5605,-268.5044 151.9242,-286.5852 182.9814,-297.5 193.2107,-301.095 204.3795,-304.0698 215.2091,-306.4948"/>
<polygon fill="#191970" stroke="#191970" points="98.5346,-252.7284 88.1501,-250.6276 94.9579,-258.7457 98.5346,-252.7284"/>
</g>
<!-- Node6 -->
<g id="node7" class="node">
<title>Node6</title>
<g id="a_node7"><a xlink:href="classPETScWrappers_1_1SolverCR.html" target="_top" xlink:title="PETScWrappers::SolverCR">
<polygon fill="#ffffff" stroke="#000000" points="201.0503,-269.5 201.0503,-287.5 339.6821,-287.5 339.6821,-269.5 201.0503,-269.5"/>
<text text-anchor="middle" x="270.3662" y="-275.5" font-family="Helvetica,sans-Serif" font-size="10.00" fill="#000000">PETScWrappers::SolverCR</text>
</a>
</g>
</g>
<!-- Node0&#45;&gt;Node6 -->
<g id="edge6" class="edge">
<title>Node0&#45;&gt;Node6</title>
<path fill="none" stroke="#191970" d="M131.3653,-252.3767C160.2643,-257.8079 194.8163,-264.3015 222.242,-269.4557"/>
<polygon fill="#191970" stroke="#191970" points="131.8746,-248.9112 121.4001,-250.5039 130.5816,-255.7908 131.8746,-248.9112"/>
</g>
<!-- Node7 -->
<g id="node8" class="node">
<title>Node7</title>
<g id="a_node8"><a xlink:href="classPETScWrappers_1_1SolverGMRES.html" target="_top" xlink:title="PETScWrappers::SolverGMRES">
<polygon fill="#ffffff" stroke="#000000" points="189.937,-232.5 189.937,-250.5 350.7954,-250.5 350.7954,-232.5 189.937,-232.5"/>
<text text-anchor="middle" x="270.3662" y="-238.5" font-family="Helvetica,sans-Serif" font-size="10.00" fill="#000000">PETScWrappers::SolverGMRES</text>
</a>
</g>
</g>
<!-- Node0&#45;&gt;Node7 -->
<g id="edge7" class="edge">
<title>Node0&#45;&gt;Node7</title>
<path fill="none" stroke="#191970" d="M157.3455,-241.5C168.1476,-241.5 179.1892,-241.5 189.9344,-241.5"/>
<polygon fill="#191970" stroke="#191970" points="157.0799,-238.0001 147.0799,-241.5 157.0798,-245.0001 157.0799,-238.0001"/>
</g>
<!-- Node8 -->
<g id="node9" class="node">
<title>Node8</title>
<g id="a_node9"><a xlink:href="classPETScWrappers_1_1SolverLSQR.html" target="_top" xlink:title="PETScWrappers::SolverLSQR">
<polygon fill="#ffffff" stroke="#000000" points="194.6563,-195.5 194.6563,-213.5 346.0762,-213.5 346.0762,-195.5 194.6563,-195.5"/>
<text text-anchor="middle" x="270.3662" y="-201.5" font-family="Helvetica,sans-Serif" font-size="10.00" fill="#000000">PETScWrappers::SolverLSQR</text>
</a>
</g>
</g>
<!-- Node0&#45;&gt;Node8 -->
<g id="edge8" class="edge">
<title>Node0&#45;&gt;Node8</title>
<path fill="none" stroke="#191970" d="M131.3653,-230.6233C160.2643,-225.1921 194.8163,-218.6985 222.242,-213.5443"/>
<polygon fill="#191970" stroke="#191970" points="130.5816,-227.2092 121.4001,-232.4961 131.8746,-234.0888 130.5816,-227.2092"/>
</g>
<!-- Node9 -->
<g id="node10" class="node">
<title>Node9</title>
<g id="a_node10"><a xlink:href="classPETScWrappers_1_1SolverPreOnly.html" target="_top" xlink:title="PETScWrappers::SolverPreOnly">
<polygon fill="#ffffff" stroke="#000000" points="190.2104,-158.5 190.2104,-176.5 350.522,-176.5 350.522,-158.5 190.2104,-158.5"/>
<text text-anchor="middle" x="270.3662" y="-164.5" font-family="Helvetica,sans-Serif" font-size="10.00" fill="#000000">PETScWrappers::SolverPreOnly</text>
</a>
</g>
</g>
<!-- Node0&#45;&gt;Node9 -->
<g id="edge9" class="edge">
<title>Node0&#45;&gt;Node9</title>
<path fill="none" stroke="#191970" d="M97.3664,-227.2979C119.0445,-214.9463 152.2331,-197.3699 182.9814,-186.5 194.2525,-182.5155 206.6489,-179.2091 218.4741,-176.5332"/>
<polygon fill="#191970" stroke="#191970" points="95.4488,-224.3637 88.5439,-232.3995 98.9529,-230.4235 95.4488,-224.3637"/>
</g>
<!-- Node10 -->
<g id="node11" class="node">
<title>Node10</title>
<g id="a_node11"><a xlink:href="classPETScWrappers_1_1SolverRichardson.html" target="_top" xlink:title="PETScWrappers::SolverRichardson">
<polygon fill="#ffffff" stroke="#000000" points="182.9814,-121.5 182.9814,-139.5 357.751,-139.5 357.751,-121.5 182.9814,-121.5"/>
<text text-anchor="middle" x="270.3662" y="-127.5" font-family="Helvetica,sans-Serif" font-size="10.00" fill="#000000">PETScWrappers::SolverRichardson</text>
</a>
</g>
</g>
<!-- Node0&#45;&gt;Node10 -->
<g id="edge10" class="edge">
<title>Node0&#45;&gt;Node10</title>
<path fill="none" stroke="#191970" d="M88.3866,-224.7401C107.9651,-203.8038 144.4189,-168.4357 182.9814,-149.5 191.4824,-145.3257 200.8936,-142.062 210.2987,-139.5118"/>
<polygon fill="#191970" stroke="#191970" points="85.6887,-222.5038 81.5165,-232.2425 90.8512,-227.2312 85.6887,-222.5038"/>
</g>
<!-- Node11 -->
<g id="node12" class="node">
<title>Node11</title>
<g id="a_node12"><a xlink:href="classPETScWrappers_1_1SolverTCQMR.html" target="_top" xlink:title="PETScWrappers::SolverTCQMR">
<polygon fill="#ffffff" stroke="#000000" points="189.9419,-84.5 189.9419,-102.5 350.7905,-102.5 350.7905,-84.5 189.9419,-84.5"/>
<text text-anchor="middle" x="270.3662" y="-90.5" font-family="Helvetica,sans-Serif" font-size="10.00" fill="#000000">PETScWrappers::SolverTCQMR</text>
</a>
</g>
</g>
<!-- Node0&#45;&gt;Node11 -->
<g id="edge11" class="edge">
<title>Node0&#45;&gt;Node11</title>
<path fill="none" stroke="#191970" d="M83.5294,-223.3548C100.242,-194.9496 136.5685,-140.3565 182.9814,-112.5 189.9036,-108.3454 197.6191,-105.0947 205.5201,-102.552"/>
<polygon fill="#191970" stroke="#191970" points="80.3832,-221.8059 78.4516,-232.2232 86.4579,-225.2842 80.3832,-221.8059"/>
</g>
<!-- Node12 -->
<g id="node13" class="node">
<title>Node12</title>
<g id="a_node13"><a xlink:href="classPETScWrappers_1_1SolverTFQMR.html" target="_top" xlink:title="PETScWrappers::SolverTFQMR">
<polygon fill="#ffffff" stroke="#000000" points="190.4985,-47.5 190.4985,-65.5 350.2339,-65.5 350.2339,-47.5 190.4985,-47.5"/>
<text text-anchor="middle" x="270.3662" y="-53.5" font-family="Helvetica,sans-Serif" font-size="10.00" fill="#000000">PETScWrappers::SolverTFQMR</text>
</a>
</g>
</g>
<!-- Node0&#45;&gt;Node12 -->
<g id="edge12" class="edge">
<title>Node0&#45;&gt;Node12</title>
<path fill="none" stroke="#191970" d="M80.3205,-222.6578C94.0113,-187.7108 128.2718,-113.0017 182.9814,-75.5 189.0001,-71.3744 195.7543,-68.1232 202.771,-65.5645"/>
<polygon fill="#191970" stroke="#191970" points="76.9975,-221.5501 76.7322,-232.1416 83.5446,-224.0273 76.9975,-221.5501"/>
</g>
<!-- Node13 -->
<g id="node14" class="node">
<title>Node13</title>
<g id="a_node14"><a xlink:href="classPETScWrappers_1_1SparseDirectMUMPS.html" target="_top" xlink:title="PETScWrappers::SparseDirect\lMUMPS">
<polygon fill="#ffffff" stroke="#000000" points="193.5454,-.5 193.5454,-28.5 347.187,-28.5 347.187,-.5 193.5454,-.5"/>
<text text-anchor="start" x="201.5454" y="-16.5" font-family="Helvetica,sans-Serif" font-size="10.00" fill="#000000">PETScWrappers::SparseDirect</text>
<text text-anchor="middle" x="270.3662" y="-6.5" font-family="Helvetica,sans-Serif" font-size="10.00" fill="#000000">MUMPS</text>
</a>
</g>
</g>
<!-- Node0&#45;&gt;Node13 -->
<g id="edge13" class="edge">
<title>Node0&#45;&gt;Node13</title>
<path fill="none" stroke="#191970" d="M78.3461,-222.2186C89.5506,-181.7679 121.1163,-87.7244 182.9814,-38.5 187.9059,-34.5817 193.4249,-31.302 199.2324,-28.5569"/>
<polygon fill="#191970" stroke="#191970" points="74.8994,-221.5617 75.7176,-232.1249 81.6653,-223.357 74.8994,-221.5617"/>
</g>
</g>
</svg>
