<?xml version="1.0" encoding="UTF-8" standalone="no"?>
<!DOCTYPE svg PUBLIC "-//W3C//DTD SVG 1.1//EN"
 "http://www.w3.org/Graphics/SVG/1.1/DTD/svg11.dtd">
<!-- Generated by graphviz version 2.40.1 (20161225.0304)
 -->
<!-- Title: DataPostprocessor&lt; dim &gt; Pages: 1 -->
<svg width="503pt" height="141pt"
 viewBox="0.00 0.00 503.08 141.00" xmlns="http://www.w3.org/2000/svg" xmlns:xlink="http://www.w3.org/1999/xlink">
<g id="graph0" class="graph" transform="scale(1 1) rotate(0) translate(4 137)">
<title>DataPostprocessor&lt; dim &gt;</title>
<polygon fill="#ffffff" stroke="transparent" points="-4,4 -4,-137 499.082,-137 499.082,4 -4,4"/>
<!-- Node0 -->
<g id="node1" class="node">
<title>Node0</title>
<polygon fill="#bfbfbf" stroke="#000000" points="103.5762,-57.5 103.5762,-85.5 210.4551,-85.5 210.4551,-57.5 103.5762,-57.5"/>
<text text-anchor="start" x="111.5762" y="-73.5" font-family="Helvetica,sans-Serif" font-size="10.00" fill="#000000">DataPostprocessor&lt;</text>
<text text-anchor="middle" x="157.0156" y="-63.5" font-family="Helvetica,sans-Serif" font-size="10.00" fill="#000000"> dim &gt;</text>
</g>
<!-- Node2 -->
<g id="node3" class="node">
<title>Node2</title>
<g id="a_node3"><a xlink:href="classDataPostprocessorScalar.html" target="_top" xlink:title="DataPostprocessorScalar\l\&lt; dim \&gt;">
<polygon fill="#ffffff" stroke="#000000" points="365.6934,-104.5 365.6934,-132.5 495.0771,-132.5 495.0771,-104.5 365.6934,-104.5"/>
<text text-anchor="start" x="373.6934" y="-120.5" font-family="Helvetica,sans-Serif" font-size="10.00" fill="#000000">DataPostprocessorScalar</text>
<text text-anchor="middle" x="430.3853" y="-110.5" font-family="Helvetica,sans-Serif" font-size="10.00" fill="#000000">&lt; dim &gt;</text>
</a>
</g>
</g>
<!-- Node0&#45;&gt;Node2 -->
<g id="edge2" class="edge">
<title>Node0&#45;&gt;Node2</title>
<path fill="none" stroke="#191970" d="M220.8241,-84.1086C223.4003,-84.5847 225.9516,-85.0503 228.4551,-85.5 274.0813,-93.6968 325.664,-102.1121 365.2738,-108.3931"/>
<polygon fill="#191970" stroke="#191970" points="221.2865,-80.6344 210.8127,-82.2311 219.9962,-87.5144 221.2865,-80.6344"/>
</g>
<!-- Node3 -->
<g id="node4" class="node">
<title>Node3</title>
<g id="a_node4"><a xlink:href="classDataPostprocessorVector.html" target="_top" xlink:title="DataPostprocessorVector\l\&lt; dim \&gt;">
<polygon fill="#ffffff" stroke="#000000" points="365.6885,-57.5 365.6885,-85.5 495.082,-85.5 495.082,-57.5 365.6885,-57.5"/>
<text text-anchor="start" x="373.6885" y="-73.5" font-family="Helvetica,sans-Serif" font-size="10.00" fill="#000000">DataPostprocessorVector</text>
<text text-anchor="middle" x="430.3853" y="-63.5" font-family="Helvetica,sans-Serif" font-size="10.00" fill="#000000">&lt; dim &gt;</text>
</a>
</g>
</g>
<!-- Node0&#45;&gt;Node3 -->
<g id="edge3" class="edge">
<title>Node0&#45;&gt;Node3</title>
<path fill="none" stroke="#191970" d="M220.8611,-71.5C264.2856,-71.5 321.5665,-71.5 365.2598,-71.5"/>
<polygon fill="#191970" stroke="#191970" points="220.6985,-68.0001 210.6985,-71.5 220.6985,-75.0001 220.6985,-68.0001"/>
</g>
<!-- Node4 -->
<g id="node5" class="node">
<title>Node4</title>
<g id="a_node5"><a xlink:href="classDataPostprocessor.html" target="_top" xlink:title="DataPostprocessor\&lt;\l DoFHandlerType::space\l_dimension \&gt;">
<polygon fill="#ffffff" stroke="#000000" points="367.0776,-.5 367.0776,-38.5 493.6929,-38.5 493.6929,-.5 367.0776,-.5"/>
<text text-anchor="start" x="375.0776" y="-26.5" font-family="Helvetica,sans-Serif" font-size="10.00" fill="#000000">DataPostprocessor&lt;</text>
<text text-anchor="start" x="375.0776" y="-16.5" font-family="Helvetica,sans-Serif" font-size="10.00" fill="#000000"> DoFHandlerType::space</text>
<text text-anchor="middle" x="430.3853" y="-6.5" font-family="Helvetica,sans-Serif" font-size="10.00" fill="#000000">_dimension &gt;</text>
</a>
</g>
</g>
<!-- Node0&#45;&gt;Node4 -->
<g id="edge4" class="edge">
<title>Node0&#45;&gt;Node4</title>
<path fill="none" stroke="#ffa500" stroke-dasharray="5,2" d="M204.092,-54.3088C212.1465,-51.7649 220.4868,-49.3736 228.4551,-47.5 274.2777,-36.7254 326.9913,-29.5887 367.0676,-25.2181"/>
<polygon fill="#ffa500" stroke="#ffa500" points="202.8686,-51.0265 194.4531,-57.4631 205.0458,-57.6793 202.8686,-51.0265"/>
<text text-anchor="start" x="228.4551" y="-59.5" font-family="Helvetica,sans-Serif" font-size="10.00" fill="#000000"> &lt; DoFHandlerType::space</text>
<text text-anchor="middle" x="288.0718" y="-49.5" font-family="Helvetica,sans-Serif" font-size="10.00" fill="#000000">_dimension &gt;</text>
</g>
<!-- Node1 -->
<g id="node2" class="node">
<title>Node1</title>
<g id="a_node2"><a xlink:href="classSubscriptor.html" target="_top" xlink:title="Subscriptor">
<polygon fill="#ffffff" stroke="#000000" points="0,-62.5 0,-80.5 66.5762,-80.5 66.5762,-62.5 0,-62.5"/>
<text text-anchor="middle" x="33.2881" y="-68.5" font-family="Helvetica,sans-Serif" font-size="10.00" fill="#000000">Subscriptor</text>
</a>
</g>
</g>
<!-- Node1&#45;&gt;Node0 -->
<g id="edge1" class="edge">
<title>Node1&#45;&gt;Node0</title>
<path fill="none" stroke="#191970" d="M76.9312,-71.5C85.5108,-71.5 94.6039,-71.5 103.4651,-71.5"/>
<polygon fill="#191970" stroke="#191970" points="76.7706,-68.0001 66.7705,-71.5 76.7705,-75.0001 76.7706,-68.0001"/>
</g>
</g>
</svg>
