<?xml version="1.0" encoding="UTF-8" standalone="no"?>
<!DOCTYPE svg PUBLIC "-//W3C//DTD SVG 1.1//EN"
 "http://www.w3.org/Graphics/SVG/1.1/DTD/svg11.dtd">
<!-- Generated by graphviz version 2.40.1 (20161225.0304)
 -->
<!-- Title: internal::Triangulation::TriaObject&lt; structdim &gt; Pages: 1 -->
<svg width="317pt" height="178pt"
 viewBox="0.00 0.00 317.04 178.00" xmlns="http://www.w3.org/2000/svg" xmlns:xlink="http://www.w3.org/1999/xlink">
<g id="graph0" class="graph" transform="scale(1 1) rotate(0) translate(4 174)">
<title>internal::Triangulation::TriaObject&lt; structdim &gt;</title>
<polygon fill="#ffffff" stroke="transparent" points="-4,4 -4,-174 313.04,-174 313.04,4 -4,4"/>
<!-- Node0 -->
<g id="node1" class="node">
<title>Node0</title>
<polygon fill="#bfbfbf" stroke="#000000" points="0,-70.5 0,-98.5 125.1113,-98.5 125.1113,-70.5 0,-70.5"/>
<text text-anchor="start" x="8" y="-86.5" font-family="Helvetica,sans-Serif" font-size="10.00" fill="#000000">internal::Triangulation</text>
<text text-anchor="middle" x="62.5557" y="-76.5" font-family="Helvetica,sans-Serif" font-size="10.00" fill="#000000">::TriaObject&lt; structdim &gt;</text>
</g>
<!-- Node1 -->
<g id="node2" class="node">
<title>Node1</title>
<g id="a_node2"><a xlink:href="classinternal_1_1Triangulation_1_1TriaObject.html" target="_top" xlink:title="internal::Triangulation\l::TriaObject\&lt; 1 \&gt;">
<polygon fill="#ffffff" stroke="#000000" points="197.2393,-141.5 197.2393,-169.5 309.04,-169.5 309.04,-141.5 197.2393,-141.5"/>
<text text-anchor="start" x="205.2393" y="-157.5" font-family="Helvetica,sans-Serif" font-size="10.00" fill="#000000">internal::Triangulation</text>
<text text-anchor="middle" x="253.1396" y="-147.5" font-family="Helvetica,sans-Serif" font-size="10.00" fill="#000000">::TriaObject&lt; 1 &gt;</text>
</a>
</g>
</g>
<!-- Node0&#45;&gt;Node1 -->
<g id="edge1" class="edge">
<title>Node0&#45;&gt;Node1</title>
<path fill="none" stroke="#ffa500" stroke-dasharray="5,2" d="M109.9475,-102.1553C142.4462,-114.2624 184.9903,-130.1117 215.2389,-141.3805"/>
<polygon fill="#ffa500" stroke="#ffa500" points="110.8017,-98.7386 100.2089,-98.5273 108.3579,-105.2982 110.8017,-98.7386"/>
<text text-anchor="middle" x="161.1753" y="-127.5" font-family="Helvetica,sans-Serif" font-size="10.00" fill="#000000"> &lt; 1 &gt;</text>
</g>
<!-- Node2 -->
<g id="node3" class="node">
<title>Node2</title>
<g id="a_node3"><a xlink:href="classinternal_1_1Triangulation_1_1TriaObject.html" target="_top" xlink:title="internal::Triangulation\l::TriaObject\&lt; 2 \&gt;">
<polygon fill="#ffffff" stroke="#000000" points="197.2393,-94.5 197.2393,-122.5 309.04,-122.5 309.04,-94.5 197.2393,-94.5"/>
<text text-anchor="start" x="205.2393" y="-110.5" font-family="Helvetica,sans-Serif" font-size="10.00" fill="#000000">internal::Triangulation</text>
<text text-anchor="middle" x="253.1396" y="-100.5" font-family="Helvetica,sans-Serif" font-size="10.00" fill="#000000">::TriaObject&lt; 2 &gt;</text>
</a>
</g>
</g>
<!-- Node0&#45;&gt;Node2 -->
<g id="edge2" class="edge">
<title>Node0&#45;&gt;Node2</title>
<path fill="none" stroke="#ffa500" stroke-dasharray="5,2" d="M135.175,-93.6449C155.7269,-96.2329 177.7725,-99.0091 197.1787,-101.4529"/>
<polygon fill="#ffa500" stroke="#ffa500" points="135.5829,-90.1687 125.224,-92.3917 134.7083,-97.1138 135.5829,-90.1687"/>
<text text-anchor="middle" x="161.1753" y="-100.5" font-family="Helvetica,sans-Serif" font-size="10.00" fill="#000000"> &lt; 2 &gt;</text>
</g>
<!-- Node3 -->
<g id="node4" class="node">
<title>Node3</title>
<g id="a_node4"><a xlink:href="classinternal_1_1Triangulation_1_1TriaObject.html" target="_top" xlink:title="internal::Triangulation\l::TriaObject\&lt; 3 \&gt;">
<polygon fill="#ffffff" stroke="#000000" points="197.2393,-47.5 197.2393,-75.5 309.04,-75.5 309.04,-47.5 197.2393,-47.5"/>
<text text-anchor="start" x="205.2393" y="-63.5" font-family="Helvetica,sans-Serif" font-size="10.00" fill="#000000">internal::Triangulation</text>
<text text-anchor="middle" x="253.1396" y="-53.5" font-family="Helvetica,sans-Serif" font-size="10.00" fill="#000000">::TriaObject&lt; 3 &gt;</text>
</a>
</g>
</g>
<!-- Node0&#45;&gt;Node3 -->
<g id="edge3" class="edge">
<title>Node0&#45;&gt;Node3</title>
<path fill="none" stroke="#ffa500" stroke-dasharray="5,2" d="M135.175,-75.7362C155.7269,-73.2559 177.7725,-70.5954 197.1787,-68.2535"/>
<polygon fill="#ffa500" stroke="#ffa500" points="134.7325,-72.2641 125.224,-76.9371 135.5713,-79.2137 134.7325,-72.2641"/>
<text text-anchor="middle" x="161.1753" y="-75.5" font-family="Helvetica,sans-Serif" font-size="10.00" fill="#000000"> &lt; 3 &gt;</text>
</g>
<!-- Node4 -->
<g id="node5" class="node">
<title>Node4</title>
<g id="a_node5"><a xlink:href="classinternal_1_1Triangulation_1_1TriaObject.html" target="_top" xlink:title="internal::Triangulation\l::TriaObject\&lt; dim \&gt;">
<polygon fill="#ffffff" stroke="#000000" points="197.2393,-.5 197.2393,-28.5 309.04,-28.5 309.04,-.5 197.2393,-.5"/>
<text text-anchor="start" x="205.2393" y="-16.5" font-family="Helvetica,sans-Serif" font-size="10.00" fill="#000000">internal::Triangulation</text>
<text text-anchor="middle" x="253.1396" y="-6.5" font-family="Helvetica,sans-Serif" font-size="10.00" fill="#000000">::TriaObject&lt; dim &gt;</text>
</a>
</g>
</g>
<!-- Node0&#45;&gt;Node4 -->
<g id="edge4" class="edge">
<title>Node0&#45;&gt;Node4</title>
<path fill="none" stroke="#ffa500" stroke-dasharray="5,2" d="M110.8098,-66.7766C143.0938,-54.919 184.9922,-39.53 214.9552,-28.5249"/>
<polygon fill="#ffa500" stroke="#ffa500" points="109.3033,-63.6013 101.1232,-70.3345 111.7168,-70.1721 109.3033,-63.6013"/>
<text text-anchor="middle" x="161.1753" y="-55.5" font-family="Helvetica,sans-Serif" font-size="10.00" fill="#000000"> &lt; dim &gt;</text>
</g>
</g>
</svg>
