<?xml version="1.0" encoding="UTF-8" standalone="no"?>
<!DOCTYPE svg PUBLIC "-//W3C//DTD SVG 1.1//EN"
 "http://www.w3.org/Graphics/SVG/1.1/DTD/svg11.dtd">
<!-- Generated by graphviz version 2.40.1 (20161225.0304)
 -->
<!-- Title: FE_RannacherTurek&lt; dim &gt; Pages: 1 -->
<svg width="297pt" height="329pt"
 viewBox="0.00 0.00 297.18 329.00" xmlns="http://www.w3.org/2000/svg" xmlns:xlink="http://www.w3.org/1999/xlink">
<g id="graph0" class="graph" transform="scale(1 1) rotate(0) translate(4 325)">
<title>FE_RannacherTurek&lt; dim &gt;</title>
<polygon fill="#ffffff" stroke="transparent" points="-4,4 -4,-325 293.1807,-325 293.1807,4 -4,4"/>
<!-- Node0 -->
<g id="node1" class="node">
<title>Node0</title>
<polygon fill="#bfbfbf" stroke="#000000" points="79.7446,-.5 79.7446,-28.5 194.0405,-28.5 194.0405,-.5 79.7446,-.5"/>
<text text-anchor="start" x="87.7446" y="-16.5" font-family="Helvetica,sans-Serif" font-size="10.00" fill="#000000">FE_RannacherTurek&lt;</text>
<text text-anchor="middle" x="136.8926" y="-6.5" font-family="Helvetica,sans-Serif" font-size="10.00" fill="#000000"> dim &gt;</text>
</g>
<!-- Node1 -->
<g id="node2" class="node">
<title>Node1</title>
<g id="a_node2"><a xlink:href="classFE__Poly.html" target="_top" xlink:title="FE_Poly\&lt; PolynomialsRannacher\lTurek\&lt; dim \&gt;, dim \&gt;">
<polygon fill="#ffffff" stroke="#000000" points="54.271,-66.5 54.271,-94.5 219.5142,-94.5 219.5142,-66.5 54.271,-66.5"/>
<text text-anchor="start" x="62.271" y="-82.5" font-family="Helvetica,sans-Serif" font-size="10.00" fill="#000000">FE_Poly&lt; PolynomialsRannacher</text>
<text text-anchor="middle" x="136.8926" y="-72.5" font-family="Helvetica,sans-Serif" font-size="10.00" fill="#000000">Turek&lt; dim &gt;, dim &gt;</text>
</a>
</g>
</g>
<!-- Node1&#45;&gt;Node0 -->
<g id="edge1" class="edge">
<title>Node1&#45;&gt;Node0</title>
<path fill="none" stroke="#191970" d="M136.8926,-56.0322C136.8926,-46.8606 136.8926,-36.7449 136.8926,-28.7931"/>
<polygon fill="#191970" stroke="#191970" points="133.3927,-56.1789 136.8926,-66.179 140.3927,-56.179 133.3927,-56.1789"/>
</g>
<!-- Node2 -->
<g id="node3" class="node">
<title>Node2</title>
<g id="a_node3"><a xlink:href="classFiniteElement.html" target="_top" xlink:title="FiniteElement\&lt; dim,\l dim \&gt;">
<polygon fill="#ffffff" stroke="#000000" points="159.5688,-151.5 159.5688,-179.5 264.2163,-179.5 264.2163,-151.5 159.5688,-151.5"/>
<text text-anchor="start" x="167.5688" y="-167.5" font-family="Helvetica,sans-Serif" font-size="10.00" fill="#000000">FiniteElement&lt; dim,</text>
<text text-anchor="middle" x="211.8926" y="-157.5" font-family="Helvetica,sans-Serif" font-size="10.00" fill="#000000"> dim &gt;</text>
</a>
</g>
</g>
<!-- Node2&#45;&gt;Node1 -->
<g id="edge2" class="edge">
<title>Node2&#45;&gt;Node1</title>
<path fill="none" stroke="#191970" d="M210.6825,-141.0238C209.1562,-131.4782 206.0537,-120.9448 199.8926,-113 193.9344,-105.3169 185.654,-99.2808 177.0521,-94.6068"/>
<polygon fill="#191970" stroke="#191970" points="207.2294,-141.6397 211.8151,-151.1907 214.1864,-140.8647 207.2294,-141.6397"/>
</g>
<!-- Node3 -->
<g id="node4" class="node">
<title>Node3</title>
<g id="a_node4"><a xlink:href="classSubscriptor.html" target="_top" xlink:title="Subscriptor">
<polygon fill="#ffffff" stroke="#000000" points="222.6045,-297.5 222.6045,-315.5 289.1807,-315.5 289.1807,-297.5 222.6045,-297.5"/>
<text text-anchor="middle" x="255.8926" y="-303.5" font-family="Helvetica,sans-Serif" font-size="10.00" fill="#000000">Subscriptor</text>
</a>
</g>
</g>
<!-- Node3&#45;&gt;Node2 -->
<g id="edge3" class="edge">
<title>Node3&#45;&gt;Node2</title>
<path fill="none" stroke="#191970" d="M250.3356,-287.5911C243.9153,-265.898 232.9426,-229.2873 222.8926,-198 220.9615,-191.9883 218.7437,-185.383 216.8077,-179.7064"/>
<polygon fill="#191970" stroke="#191970" points="247.0628,-288.867 253.249,-297.4683 253.7768,-286.8866 247.0628,-288.867"/>
</g>
<!-- Node5 -->
<g id="node6" class="node">
<title>Node5</title>
<g id="a_node6"><a xlink:href="classFiniteElement.html" target="_top" xlink:title="FiniteElement\&lt; dim,\l spacedim \&gt;">
<polygon fill="#ffffff" stroke="#000000" points="76.5688,-226.5 76.5688,-254.5 181.2163,-254.5 181.2163,-226.5 76.5688,-226.5"/>
<text text-anchor="start" x="84.5688" y="-242.5" font-family="Helvetica,sans-Serif" font-size="10.00" fill="#000000">FiniteElement&lt; dim,</text>
<text text-anchor="middle" x="128.8926" y="-232.5" font-family="Helvetica,sans-Serif" font-size="10.00" fill="#000000"> spacedim &gt;</text>
</a>
</g>
</g>
<!-- Node3&#45;&gt;Node5 -->
<g id="edge6" class="edge">
<title>Node3&#45;&gt;Node5</title>
<path fill="none" stroke="#191970" d="M229.6178,-292.8454C208.1916,-281.7105 178.0247,-266.0332 156.2982,-254.7423"/>
<polygon fill="#191970" stroke="#191970" points="228.0128,-295.9557 238.5001,-297.4614 231.2407,-289.7443 228.0128,-295.9557"/>
</g>
<!-- Node4 -->
<g id="node5" class="node">
<title>Node4</title>
<g id="a_node5"><a xlink:href="classFiniteElementData.html" target="_top" xlink:title="FiniteElementData\&lt;\l dim \&gt;">
<polygon fill="#ffffff" stroke="#000000" points="87.8423,-292.5 87.8423,-320.5 191.9429,-320.5 191.9429,-292.5 87.8423,-292.5"/>
<text text-anchor="start" x="95.8423" y="-308.5" font-family="Helvetica,sans-Serif" font-size="10.00" fill="#000000">FiniteElementData&lt;</text>
<text text-anchor="middle" x="139.8926" y="-298.5" font-family="Helvetica,sans-Serif" font-size="10.00" fill="#000000"> dim &gt;</text>
</a>
</g>
</g>
<!-- Node4&#45;&gt;Node2 -->
<g id="edge4" class="edge">
<title>Node4&#45;&gt;Node2</title>
<path fill="none" stroke="#191970" d="M165.6945,-285.107C174.5282,-276.5727 183.7281,-266.1294 189.8926,-255 203.3825,-230.6452 208.698,-198.0509 210.7192,-179.669"/>
<polygon fill="#191970" stroke="#191970" points="163.1,-282.738 158.1112,-292.0848 167.8399,-287.8892 163.1,-282.738"/>
</g>
<!-- Node4&#45;&gt;Node5 -->
<g id="edge7" class="edge">
<title>Node4&#45;&gt;Node5</title>
<path fill="none" stroke="#191970" d="M135.8146,-282.0322C134.286,-272.8606 132.6001,-262.7449 131.2748,-254.7931"/>
<polygon fill="#191970" stroke="#191970" points="132.4093,-282.8905 137.5057,-292.179 139.3141,-281.7396 132.4093,-282.8905"/>
</g>
<!-- Node5&#45;&gt;Node2 -->
<g id="edge5" class="edge">
<title>Node5&#45;&gt;Node2</title>
<path fill="none" stroke="#ffa500" stroke-dasharray="5,2" d="M129.545,-216.0859C130.7417,-209.662 132.9995,-203.1082 137.0947,-198 143.3827,-190.1567 151.9362,-184.1642 161.0149,-179.599"/>
<polygon fill="#ffa500" stroke="#ffa500" points="126.0143,-216.1721 128.3958,-226.4958 132.9721,-216.9402 126.0143,-216.1721"/>
<text text-anchor="middle" x="166.7915" y="-200" font-family="Helvetica,sans-Serif" font-size="10.00" fill="#000000"> &lt; dim, dim &gt;</text>
</g>
<!-- Node6 -->
<g id="node7" class="node">
<title>Node6</title>
<g id="a_node7"><a xlink:href="classFE__Poly.html" target="_top" xlink:title="FE_Poly\&lt; PolynomialType,\l dim, spacedim \&gt;">
<polygon fill="#ffffff" stroke="#000000" points="0,-151.5 0,-179.5 135.7852,-179.5 135.7852,-151.5 0,-151.5"/>
<text text-anchor="start" x="8" y="-167.5" font-family="Helvetica,sans-Serif" font-size="10.00" fill="#000000">FE_Poly&lt; PolynomialType,</text>
<text text-anchor="middle" x="67.8926" y="-157.5" font-family="Helvetica,sans-Serif" font-size="10.00" fill="#000000"> dim, spacedim &gt;</text>
</a>
</g>
</g>
<!-- Node5&#45;&gt;Node6 -->
<g id="edge9" class="edge">
<title>Node5&#45;&gt;Node6</title>
<path fill="none" stroke="#191970" d="M111.0794,-218.5986C100.8269,-205.993 88.247,-190.5259 79.3148,-179.5437"/>
<polygon fill="#191970" stroke="#191970" points="108.3938,-220.8435 117.4189,-226.3931 113.8244,-216.4266 108.3938,-220.8435"/>
</g>
<!-- Node6&#45;&gt;Node1 -->
<g id="edge8" class="edge">
<title>Node6&#45;&gt;Node1</title>
<path fill="none" stroke="#ffa500" stroke-dasharray="5,2" d="M57.8641,-141.6439C55.4548,-132.0671 54.9494,-121.3448 60.4688,-113 65.7183,-105.0631 73.3407,-99.0585 81.7635,-94.5174"/>
<polygon fill="#ffa500" stroke="#ffa500" points="54.6193,-142.9847 61.0307,-151.4195 61.2786,-140.8275 54.6193,-142.9847"/>
<text text-anchor="start" x="60.8926" y="-125" font-family="Helvetica,sans-Serif" font-size="10.00" fill="#000000"> &lt; PolynomialsRannacherTurek</text>
<text text-anchor="middle" x="130.6045" y="-115" font-family="Helvetica,sans-Serif" font-size="10.00" fill="#000000">&lt; dim &gt;, dim &gt;</text>
</g>
</g>
</svg>
