<?xml version="1.0" encoding="UTF-8" standalone="no"?>
<!DOCTYPE svg PUBLIC "-//W3C//DTD SVG 1.1//EN"
 "http://www.w3.org/Graphics/SVG/1.1/DTD/svg11.dtd">
<!-- Generated by graphviz version 2.40.1 (20161225.0304)
 -->
<!-- Title: OpenCASCADE::ArclengthProjectionLineManifold&lt; dim, spacedim &gt; Pages: 1 -->
<svg width="232pt" height="290pt"
 viewBox="0.00 0.00 232.14 290.00" xmlns="http://www.w3.org/2000/svg" xmlns:xlink="http://www.w3.org/1999/xlink">
<g id="graph0" class="graph" transform="scale(1 1) rotate(0) translate(4 286)">
<title>OpenCASCADE::ArclengthProjectionLineManifold&lt; dim, spacedim &gt;</title>
<polygon fill="#ffffff" stroke="transparent" points="-4,4 -4,-286 228.1396,-286 228.1396,4 -4,4"/>
<!-- Node0 -->
<g id="node1" class="node">
<title>Node0</title>
<polygon fill="#bfbfbf" stroke="#000000" points="0,-.5 0,-28.5 181.0781,-28.5 181.0781,-.5 0,-.5"/>
<text text-anchor="start" x="8" y="-16.5" font-family="Helvetica,sans-Serif" font-size="10.00" fill="#000000">OpenCASCADE::ArclengthProjection</text>
<text text-anchor="middle" x="90.5391" y="-6.5" font-family="Helvetica,sans-Serif" font-size="10.00" fill="#000000">LineManifold&lt; dim, spacedim &gt;</text>
</g>
<!-- Node1 -->
<g id="node2" class="node">
<title>Node1</title>
<g id="a_node2"><a xlink:href="classChartManifold.html" target="_top" xlink:title="ChartManifold\&lt; dim,\l spacedim, 1 \&gt;">
<polygon fill="#ffffff" stroke="#000000" points="37.6587,-66.5 37.6587,-94.5 143.4194,-94.5 143.4194,-66.5 37.6587,-66.5"/>
<text text-anchor="start" x="45.6587" y="-82.5" font-family="Helvetica,sans-Serif" font-size="10.00" fill="#000000">ChartManifold&lt; dim,</text>
<text text-anchor="middle" x="90.5391" y="-72.5" font-family="Helvetica,sans-Serif" font-size="10.00" fill="#000000"> spacedim, 1 &gt;</text>
</a>
</g>
</g>
<!-- Node1&#45;&gt;Node0 -->
<g id="edge1" class="edge">
<title>Node1&#45;&gt;Node0</title>
<path fill="none" stroke="#191970" d="M90.5391,-56.0322C90.5391,-46.8606 90.5391,-36.7449 90.5391,-28.7931"/>
<polygon fill="#191970" stroke="#191970" points="87.0392,-56.1789 90.5391,-66.179 94.0392,-56.179 87.0392,-56.1789"/>
</g>
<!-- Node2 -->
<g id="node3" class="node">
<title>Node2</title>
<g id="a_node3"><a xlink:href="classManifold.html" target="_top" xlink:title="Manifold\&lt; dim, spacedim \&gt;">
<polygon fill="#ffffff" stroke="#000000" points="18.7881,-207.5 18.7881,-225.5 154.29,-225.5 154.29,-207.5 18.7881,-207.5"/>
<text text-anchor="middle" x="86.5391" y="-213.5" font-family="Helvetica,sans-Serif" font-size="10.00" fill="#000000">Manifold&lt; dim, spacedim &gt;</text>
</a>
</g>
</g>
<!-- Node2&#45;&gt;Node1 -->
<g id="edge2" class="edge">
<title>Node2&#45;&gt;Node1</title>
<path fill="none" stroke="#191970" d="M87.1093,-197.1119C87.9242,-169.4066 89.4026,-119.1399 90.1226,-94.6595"/>
<polygon fill="#191970" stroke="#191970" points="83.6096,-197.0536 86.814,-207.1522 90.6066,-197.2594 83.6096,-197.0536"/>
</g>
<!-- Node4 -->
<g id="node5" class="node">
<title>Node4</title>
<g id="a_node5"><a xlink:href="classChartManifold.html" target="_top" xlink:title="ChartManifold\&lt; dim,\l spacedim, chartdim \&gt;">
<polygon fill="#ffffff" stroke="#000000" points="102.4912,-141.5 102.4912,-169.5 216.5869,-169.5 216.5869,-141.5 102.4912,-141.5"/>
<text text-anchor="start" x="110.4912" y="-157.5" font-family="Helvetica,sans-Serif" font-size="10.00" fill="#000000">ChartManifold&lt; dim,</text>
<text text-anchor="middle" x="159.5391" y="-147.5" font-family="Helvetica,sans-Serif" font-size="10.00" fill="#000000"> spacedim, chartdim &gt;</text>
</a>
</g>
</g>
<!-- Node2&#45;&gt;Node4 -->
<g id="edge5" class="edge">
<title>Node2&#45;&gt;Node4</title>
<path fill="none" stroke="#191970" d="M105.092,-200.9968C116.6939,-191.3022 131.5164,-178.9162 142.7656,-169.5162"/>
<polygon fill="#191970" stroke="#191970" points="102.7398,-198.4013 97.3105,-207.4992 107.2284,-203.7728 102.7398,-198.4013"/>
</g>
<!-- Node3 -->
<g id="node4" class="node">
<title>Node3</title>
<g id="a_node4"><a xlink:href="classSubscriptor.html" target="_top" xlink:title="Subscriptor">
<polygon fill="#ffffff" stroke="#000000" points="53.251,-263.5 53.251,-281.5 119.8271,-281.5 119.8271,-263.5 53.251,-263.5"/>
<text text-anchor="middle" x="86.5391" y="-269.5" font-family="Helvetica,sans-Serif" font-size="10.00" fill="#000000">Subscriptor</text>
</a>
</g>
</g>
<!-- Node3&#45;&gt;Node2 -->
<g id="edge3" class="edge">
<title>Node3&#45;&gt;Node2</title>
<path fill="none" stroke="#191970" d="M86.5391,-253.2065C86.5391,-243.8384 86.5391,-233.0262 86.5391,-225.5752"/>
<polygon fill="#191970" stroke="#191970" points="83.0392,-253.2527 86.5391,-263.2527 90.0392,-253.2528 83.0392,-253.2527"/>
</g>
<!-- Node4&#45;&gt;Node1 -->
<g id="edge4" class="edge">
<title>Node4&#45;&gt;Node1</title>
<path fill="none" stroke="#ffa500" stroke-dasharray="5,2" d="M139.7204,-133.9579C128.064,-121.288 113.6591,-105.6305 103.4592,-94.5437"/>
<polygon fill="#ffa500" stroke="#ffa500" points="137.2143,-136.4034 146.5607,-141.3931 142.3659,-131.664 137.2143,-136.4034"/>
<text text-anchor="middle" x="176.3394" y="-115" font-family="Helvetica,sans-Serif" font-size="10.00" fill="#000000"> &lt; dim, spacedim, 1 &gt;</text>
</g>
</g>
</svg>
