<?xml version="1.0" encoding="UTF-8" standalone="no"?>
<!DOCTYPE svg PUBLIC "-//W3C//DTD SVG 1.1//EN"
 "http://www.w3.org/Graphics/SVG/1.1/DTD/svg11.dtd">
<!-- Generated by graphviz version 2.40.1 (20161225.0304)
 -->
<!-- Title: SolverRichardson&lt; VectorType &gt; Pages: 1 -->
<svg width="140pt" height="147pt"
 viewBox="0.00 0.00 139.90 147.00" xmlns="http://www.w3.org/2000/svg" xmlns:xlink="http://www.w3.org/1999/xlink">
<g id="graph0" class="graph" transform="scale(1 1) rotate(0) translate(4 143)">
<title>SolverRichardson&lt; VectorType &gt;</title>
<polygon fill="#ffffff" stroke="transparent" points="-4,4 -4,-143 135.8984,-143 135.8984,4 -4,4"/>
<!-- Node0 -->
<g id="node1" class="node">
<title>Node0</title>
<polygon fill="#bfbfbf" stroke="#000000" points="0,-.5 0,-28.5 131.8984,-28.5 131.8984,-.5 0,-.5"/>
<text text-anchor="start" x="8" y="-16.5" font-family="Helvetica,sans-Serif" font-size="10.00" fill="#000000">SolverRichardson&lt; Vector</text>
<text text-anchor="middle" x="65.9492" y="-6.5" font-family="Helvetica,sans-Serif" font-size="10.00" fill="#000000">Type &gt;</text>
</g>
<!-- Node1 -->
<g id="node2" class="node">
<title>Node1</title>
<g id="a_node2"><a xlink:href="classSolver.html" target="_top" xlink:title="Solver\&lt; VectorType \&gt;">
<polygon fill="#ffffff" stroke="#000000" points="10.1392,-65.5 10.1392,-83.5 121.7593,-83.5 121.7593,-65.5 10.1392,-65.5"/>
<text text-anchor="middle" x="65.9492" y="-71.5" font-family="Helvetica,sans-Serif" font-size="10.00" fill="#000000">Solver&lt; VectorType &gt;</text>
</a>
</g>
</g>
<!-- Node1&#45;&gt;Node0 -->
<g id="edge1" class="edge">
<title>Node1&#45;&gt;Node0</title>
<path fill="none" stroke="#191970" d="M65.9492,-55.1865C65.9492,-46.6283 65.9492,-36.7354 65.9492,-28.8477"/>
<polygon fill="#191970" stroke="#191970" points="62.4493,-55.3873 65.9492,-65.3873 69.4493,-55.3873 62.4493,-55.3873"/>
</g>
<!-- Node2 -->
<g id="node3" class="node">
<title>Node2</title>
<g id="a_node3"><a xlink:href="classSubscriptor.html" target="_top" xlink:title="Subscriptor">
<polygon fill="#ffffff" stroke="#000000" points="32.6611,-120.5 32.6611,-138.5 99.2373,-138.5 99.2373,-120.5 32.6611,-120.5"/>
<text text-anchor="middle" x="65.9492" y="-126.5" font-family="Helvetica,sans-Serif" font-size="10.00" fill="#000000">Subscriptor</text>
</a>
</g>
</g>
<!-- Node2&#45;&gt;Node1 -->
<g id="edge2" class="edge">
<title>Node2&#45;&gt;Node1</title>
<path fill="none" stroke="#191970" d="M65.9492,-110.383C65.9492,-101.3738 65.9492,-91.0373 65.9492,-83.7795"/>
<polygon fill="#191970" stroke="#191970" points="62.4493,-110.4178 65.9492,-120.4179 69.4493,-110.4179 62.4493,-110.4178"/>
</g>
</g>
</svg>
