<?xml version="1.0" encoding="UTF-8" standalone="no"?>
<!DOCTYPE svg PUBLIC "-//W3C//DTD SVG 1.1//EN"
 "http://www.w3.org/Graphics/SVG/1.1/DTD/svg11.dtd">
<!-- Generated by graphviz version 2.40.1 (20161225.0304)
 -->
<!-- Title: MappingQ&lt; dim, spacedim &gt; Pages: 1 -->
<svg width="302pt" height="202pt"
 viewBox="0.00 0.00 301.59 202.00" xmlns="http://www.w3.org/2000/svg" xmlns:xlink="http://www.w3.org/1999/xlink">
<g id="graph0" class="graph" transform="scale(1 1) rotate(0) translate(4 198)">
<title>MappingQ&lt; dim, spacedim &gt;</title>
<polygon fill="#ffffff" stroke="transparent" points="-4,4 -4,-198 297.5918,-198 297.5918,4 -4,4"/>
<!-- Node0 -->
<g id="node1" class="node">
<title>Node0</title>
<polygon fill="#bfbfbf" stroke="#000000" points="80.5024,-65.5 80.5024,-83.5 224.3442,-83.5 224.3442,-65.5 80.5024,-65.5"/>
<text text-anchor="middle" x="152.4233" y="-71.5" font-family="Helvetica,sans-Serif" font-size="10.00" fill="#000000">MappingQ&lt; dim, spacedim &gt;</text>
</g>
<!-- Node3 -->
<g id="node4" class="node">
<title>Node3</title>
<g id="a_node4"><a xlink:href="classMappingC1.html" target="_top" xlink:title="MappingC1\&lt; dim, spacedim \&gt;">
<polygon fill="#ffffff" stroke="#000000" points="0,-5.5 0,-23.5 148.8467,-23.5 148.8467,-5.5 0,-5.5"/>
<text text-anchor="middle" x="74.4233" y="-11.5" font-family="Helvetica,sans-Serif" font-size="10.00" fill="#000000">MappingC1&lt; dim, spacedim &gt;</text>
</a>
</g>
</g>
<!-- Node0&#45;&gt;Node3 -->
<g id="edge3" class="edge">
<title>Node0&#45;&gt;Node3</title>
<path fill="none" stroke="#191970" d="M132.5801,-59.2359C117.8977,-47.9418 98.396,-32.9405 86.1258,-23.5019"/>
<polygon fill="#191970" stroke="#191970" points="130.5166,-62.0643 140.5768,-65.3873 134.7846,-56.516 130.5166,-62.0643"/>
</g>
<!-- Node4 -->
<g id="node5" class="node">
<title>Node4</title>
<g id="a_node5"><a xlink:href="classMappingQEulerian.html" target="_top" xlink:title="MappingQEulerian\&lt; dim,\l spacedim \&gt;">
<polygon fill="#ffffff" stroke="#000000" points="167.2549,-.5 167.2549,-28.5 293.5918,-28.5 293.5918,-.5 167.2549,-.5"/>
<text text-anchor="start" x="175.2549" y="-16.5" font-family="Helvetica,sans-Serif" font-size="10.00" fill="#000000">MappingQEulerian&lt; dim,</text>
<text text-anchor="middle" x="230.4233" y="-6.5" font-family="Helvetica,sans-Serif" font-size="10.00" fill="#000000"> spacedim &gt;</text>
</a>
</g>
</g>
<!-- Node0&#45;&gt;Node4 -->
<g id="edge4" class="edge">
<title>Node0&#45;&gt;Node4</title>
<path fill="none" stroke="#191970" d="M172.4859,-59.0673C184.6982,-49.6732 200.1819,-37.7627 212.0696,-28.6183"/>
<polygon fill="#191970" stroke="#191970" points="170.0621,-56.516 164.2699,-65.3873 174.3301,-62.0643 170.0621,-56.516"/>
</g>
<!-- Node1 -->
<g id="node2" class="node">
<title>Node1</title>
<g id="a_node2"><a xlink:href="classMapping.html" target="_top" xlink:title="Abstract base class for mapping classes. ">
<polygon fill="#ffffff" stroke="#000000" points="84.3916,-120.5 84.3916,-138.5 220.4551,-138.5 220.4551,-120.5 84.3916,-120.5"/>
<text text-anchor="middle" x="152.4233" y="-126.5" font-family="Helvetica,sans-Serif" font-size="10.00" fill="#000000">Mapping&lt; dim, spacedim &gt;</text>
</a>
</g>
</g>
<!-- Node1&#45;&gt;Node0 -->
<g id="edge1" class="edge">
<title>Node1&#45;&gt;Node0</title>
<path fill="none" stroke="#191970" d="M152.4233,-110.383C152.4233,-101.3738 152.4233,-91.0373 152.4233,-83.7795"/>
<polygon fill="#191970" stroke="#191970" points="148.9234,-110.4178 152.4233,-120.4179 155.9234,-110.4179 148.9234,-110.4178"/>
</g>
<!-- Node2 -->
<g id="node3" class="node">
<title>Node2</title>
<g id="a_node3"><a xlink:href="classSubscriptor.html" target="_top" xlink:title="Subscriptor">
<polygon fill="#ffffff" stroke="#000000" points="119.1353,-175.5 119.1353,-193.5 185.7114,-193.5 185.7114,-175.5 119.1353,-175.5"/>
<text text-anchor="middle" x="152.4233" y="-181.5" font-family="Helvetica,sans-Serif" font-size="10.00" fill="#000000">Subscriptor</text>
</a>
</g>
</g>
<!-- Node2&#45;&gt;Node1 -->
<g id="edge2" class="edge">
<title>Node2&#45;&gt;Node1</title>
<path fill="none" stroke="#191970" d="M152.4233,-165.383C152.4233,-156.3738 152.4233,-146.0373 152.4233,-138.7795"/>
<polygon fill="#191970" stroke="#191970" points="148.9234,-165.4178 152.4233,-175.4179 155.9234,-165.4179 148.9234,-165.4178"/>
</g>
</g>
</svg>
