<?xml version="1.0" encoding="UTF-8" standalone="no"?>
<!DOCTYPE svg PUBLIC "-//W3C//DTD SVG 1.1//EN"
 "http://www.w3.org/Graphics/SVG/1.1/DTD/svg11.dtd">
<!-- Generated by graphviz version 2.40.1 (20161225.0304)
 -->
<!-- Title: PreconditionBlockSOR&lt; MatrixType, inverse_type &gt; Pages: 1 -->
<svg width="246pt" height="340pt"
 viewBox="0.00 0.00 245.91 340.00" xmlns="http://www.w3.org/2000/svg" xmlns:xlink="http://www.w3.org/1999/xlink">
<g id="graph0" class="graph" transform="scale(1 1) rotate(0) translate(4 336)">
<title>PreconditionBlockSOR&lt; MatrixType, inverse_type &gt;</title>
<polygon fill="#ffffff" stroke="transparent" points="-4,4 -4,-336 241.9058,-336 241.9058,4 -4,4"/>
<!-- Node0 -->
<g id="node1" class="node">
<title>Node0</title>
<polygon fill="#bfbfbf" stroke="#000000" points="3.335,-76.5 3.335,-114.5 121.0488,-114.5 121.0488,-76.5 3.335,-76.5"/>
<text text-anchor="start" x="11.335" y="-102.5" font-family="Helvetica,sans-Serif" font-size="10.00" fill="#000000">PreconditionBlockSOR</text>
<text text-anchor="start" x="11.335" y="-92.5" font-family="Helvetica,sans-Serif" font-size="10.00" fill="#000000">&lt; MatrixType, inverse</text>
<text text-anchor="middle" x="62.1919" y="-82.5" font-family="Helvetica,sans-Serif" font-size="10.00" fill="#000000">_type &gt;</text>
</g>
<!-- Node5 -->
<g id="node6" class="node">
<title>Node5</title>
<g id="a_node6"><a xlink:href="classPreconditionBlockSSOR.html" target="_top" xlink:title="PreconditionBlockSSOR\l\&lt; MatrixType, inverse\l_type \&gt;">
<polygon fill="#ffffff" stroke="#000000" points="0,-.5 0,-38.5 124.3838,-38.5 124.3838,-.5 0,-.5"/>
<text text-anchor="start" x="8" y="-26.5" font-family="Helvetica,sans-Serif" font-size="10.00" fill="#000000">PreconditionBlockSSOR</text>
<text text-anchor="start" x="8" y="-16.5" font-family="Helvetica,sans-Serif" font-size="10.00" fill="#000000">&lt; MatrixType, inverse</text>
<text text-anchor="middle" x="62.1919" y="-6.5" font-family="Helvetica,sans-Serif" font-size="10.00" fill="#000000">_type &gt;</text>
</a>
</g>
</g>
<!-- Node0&#45;&gt;Node5 -->
<g id="edge6" class="edge">
<title>Node0&#45;&gt;Node5</title>
<path fill="none" stroke="#8b1a1a" d="M62.1919,-66.3048C62.1919,-57.0426 62.1919,-47.0418 62.1919,-38.6719"/>
<polygon fill="#8b1a1a" stroke="#8b1a1a" points="58.692,-66.322 62.1919,-76.322 65.692,-66.322 58.692,-66.322"/>
</g>
<!-- Node1 -->
<g id="node2" class="node">
<title>Node1</title>
<g id="a_node2"><a xlink:href="classSubscriptor.html" target="_top" xlink:title="Subscriptor">
<polygon fill="#ffffff" stroke="#000000" points="16.9038,-233.5 16.9038,-251.5 83.48,-251.5 83.48,-233.5 16.9038,-233.5"/>
<text text-anchor="middle" x="50.1919" y="-239.5" font-family="Helvetica,sans-Serif" font-size="10.00" fill="#000000">Subscriptor</text>
</a>
</g>
</g>
<!-- Node1&#45;&gt;Node0 -->
<g id="edge1" class="edge">
<title>Node1&#45;&gt;Node0</title>
<path fill="none" stroke="#191970" d="M51.7754,-223.1024C54.0846,-194.814 58.3499,-142.5639 60.6408,-114.5012"/>
<polygon fill="#191970" stroke="#191970" points="48.2679,-223.0528 50.9425,-233.3045 55.2447,-223.6224 48.2679,-223.0528"/>
</g>
<!-- Node2 -->
<g id="node3" class="node">
<title>Node2</title>
<g id="a_node3"><a xlink:href="classPreconditionBlock.html" target="_top" xlink:title="PreconditionBlock\&lt;\l MatrixType, inverse\l_type \&gt;">
<polygon fill="#ffffff" stroke="#000000" points="78.4531,-152.5 78.4531,-190.5 183.9307,-190.5 183.9307,-152.5 78.4531,-152.5"/>
<text text-anchor="start" x="86.4531" y="-178.5" font-family="Helvetica,sans-Serif" font-size="10.00" fill="#000000">PreconditionBlock&lt;</text>
<text text-anchor="start" x="86.4531" y="-168.5" font-family="Helvetica,sans-Serif" font-size="10.00" fill="#000000"> MatrixType, inverse</text>
<text text-anchor="middle" x="131.1919" y="-158.5" font-family="Helvetica,sans-Serif" font-size="10.00" fill="#000000">_type &gt;</text>
</a>
</g>
</g>
<!-- Node1&#45;&gt;Node2 -->
<g id="edge3" class="edge">
<title>Node1&#45;&gt;Node2</title>
<path fill="none" stroke="#191970" d="M68.4659,-226.482C80.5769,-215.8662 96.5292,-201.8834 109.3155,-190.6756"/>
<polygon fill="#191970" stroke="#191970" points="65.9942,-223.9943 60.7812,-233.218 70.6083,-229.2584 65.9942,-223.9943"/>
</g>
<!-- Node2&#45;&gt;Node0 -->
<g id="edge2" class="edge">
<title>Node2&#45;&gt;Node0</title>
<path fill="none" stroke="#006400" d="M106.8395,-144.6771C97.8496,-134.7752 87.8507,-123.7618 79.5979,-114.6719"/>
<polygon fill="#006400" stroke="#006400" points="104.467,-147.2708 113.7803,-152.322 109.6497,-142.5655 104.467,-147.2708"/>
</g>
<!-- Node3 -->
<g id="node4" class="node">
<title>Node3</title>
<g id="a_node4"><a xlink:href="classPreconditionBlockBase.html" target="_top" xlink:title="PreconditionBlockBase\l\&lt; inverse_type \&gt;">
<polygon fill="#ffffff" stroke="#000000" points="101.7734,-228.5 101.7734,-256.5 220.6104,-256.5 220.6104,-228.5 101.7734,-228.5"/>
<text text-anchor="start" x="109.7734" y="-244.5" font-family="Helvetica,sans-Serif" font-size="10.00" fill="#000000">PreconditionBlockBase</text>
<text text-anchor="middle" x="161.1919" y="-234.5" font-family="Helvetica,sans-Serif" font-size="10.00" fill="#000000">&lt; inverse_type &gt;</text>
</a>
</g>
</g>
<!-- Node3&#45;&gt;Node2 -->
<g id="edge4" class="edge">
<title>Node3&#45;&gt;Node2</title>
<path fill="none" stroke="#006400" d="M151.295,-219.0772C147.3929,-209.8425 142.9679,-199.3698 139.2646,-190.6055"/>
<polygon fill="#006400" stroke="#006400" points="148.1486,-220.6235 155.2649,-228.4727 154.5966,-217.8989 148.1486,-220.6235"/>
</g>
<!-- Node4 -->
<g id="node5" class="node">
<title>Node4</title>
<g id="a_node5"><a xlink:href="classPreconditionBlockBase.html" target="_top" xlink:title="PreconditionBlockBase\l\&lt; number \&gt;">
<polygon fill="#ffffff" stroke="#000000" points="101.7734,-303.5 101.7734,-331.5 220.6104,-331.5 220.6104,-303.5 101.7734,-303.5"/>
<text text-anchor="start" x="109.7734" y="-319.5" font-family="Helvetica,sans-Serif" font-size="10.00" fill="#000000">PreconditionBlockBase</text>
<text text-anchor="middle" x="161.1919" y="-309.5" font-family="Helvetica,sans-Serif" font-size="10.00" fill="#000000">&lt; number &gt;</text>
</a>
</g>
</g>
<!-- Node4&#45;&gt;Node3 -->
<g id="edge5" class="edge">
<title>Node4&#45;&gt;Node3</title>
<path fill="none" stroke="#ffa500" stroke-dasharray="5,2" d="M161.1919,-293.0415C161.1919,-280.9507 161.1919,-266.7938 161.1919,-256.5437"/>
<polygon fill="#ffa500" stroke="#ffa500" points="157.692,-293.393 161.1919,-303.3931 164.692,-293.3931 157.692,-293.393"/>
<text text-anchor="middle" x="199.5488" y="-277" font-family="Helvetica,sans-Serif" font-size="10.00" fill="#000000"> &lt; inverse_type &gt;</text>
</g>
</g>
</svg>
