<?xml version="1.0" encoding="UTF-8" standalone="no"?>
<!DOCTYPE svg PUBLIC "-//W3C//DTD SVG 1.1//EN"
 "http://www.w3.org/Graphics/SVG/1.1/DTD/svg11.dtd">
<!-- Generated by graphviz version 2.40.1 (20161225.0304)
 -->
<!-- Title: FEEvaluationAccess&lt; 1, 1, Number &gt; Pages: 1 -->
<svg width="156pt" height="178pt"
 viewBox="0.00 0.00 155.66 178.00" xmlns="http://www.w3.org/2000/svg" xmlns:xlink="http://www.w3.org/1999/xlink">
<g id="graph0" class="graph" transform="scale(1 1) rotate(0) translate(4 174)">
<title>FEEvaluationAccess&lt; 1, 1, Number &gt;</title>
<polygon fill="#ffffff" stroke="transparent" points="-4,4 -4,-174 151.6582,-174 151.6582,4 -4,4"/>
<!-- Node0 -->
<g id="node1" class="node">
<title>Node0</title>
<polygon fill="#bfbfbf" stroke="#000000" points="15.9863,-.5 15.9863,-28.5 123.6953,-28.5 123.6953,-.5 15.9863,-.5"/>
<text text-anchor="start" x="23.9863" y="-16.5" font-family="Helvetica,sans-Serif" font-size="10.00" fill="#000000">FEEvaluationAccess</text>
<text text-anchor="middle" x="69.8408" y="-6.5" font-family="Helvetica,sans-Serif" font-size="10.00" fill="#000000">&lt; 1, 1, Number &gt;</text>
</g>
<!-- Node1 -->
<g id="node2" class="node">
<title>Node1</title>
<g id="a_node2"><a xlink:href="classFEEvaluationBase.html" target="_top" xlink:title="FEEvaluationBase\&lt; 1,\l 1, Number \&gt;">
<polygon fill="#ffffff" stroke="#000000" points="12.2266,-66.5 12.2266,-94.5 127.4551,-94.5 127.4551,-66.5 12.2266,-66.5"/>
<text text-anchor="start" x="20.2266" y="-82.5" font-family="Helvetica,sans-Serif" font-size="10.00" fill="#000000">FEEvaluationBase&lt; 1,</text>
<text text-anchor="middle" x="69.8408" y="-72.5" font-family="Helvetica,sans-Serif" font-size="10.00" fill="#000000"> 1, Number &gt;</text>
</a>
</g>
</g>
<!-- Node1&#45;&gt;Node0 -->
<g id="edge1" class="edge">
<title>Node1&#45;&gt;Node0</title>
<path fill="none" stroke="#191970" d="M69.8408,-56.0322C69.8408,-46.8606 69.8408,-36.7449 69.8408,-28.7931"/>
<polygon fill="#191970" stroke="#191970" points="66.3409,-56.1789 69.8408,-66.179 73.3409,-56.179 66.3409,-56.1789"/>
</g>
<!-- Node2 -->
<g id="node3" class="node">
<title>Node2</title>
<g id="a_node3"><a xlink:href="classFEEvaluationBase.html" target="_top" xlink:title="FEEvaluationBase\&lt; dim,\l n_components_, Number \&gt;">
<polygon fill="#ffffff" stroke="#000000" points="0,-141.5 0,-169.5 139.6816,-169.5 139.6816,-141.5 0,-141.5"/>
<text text-anchor="start" x="8" y="-157.5" font-family="Helvetica,sans-Serif" font-size="10.00" fill="#000000">FEEvaluationBase&lt; dim,</text>
<text text-anchor="middle" x="69.8408" y="-147.5" font-family="Helvetica,sans-Serif" font-size="10.00" fill="#000000"> n_components_, Number &gt;</text>
</a>
</g>
</g>
<!-- Node2&#45;&gt;Node1 -->
<g id="edge2" class="edge">
<title>Node2&#45;&gt;Node1</title>
<path fill="none" stroke="#ffa500" stroke-dasharray="5,2" d="M69.8408,-131.0415C69.8408,-118.9507 69.8408,-104.7938 69.8408,-94.5437"/>
<polygon fill="#ffa500" stroke="#ffa500" points="66.3409,-131.393 69.8408,-141.3931 73.3409,-131.3931 66.3409,-131.393"/>
<text text-anchor="middle" x="108.7495" y="-115" font-family="Helvetica,sans-Serif" font-size="10.00" fill="#000000"> &lt; 1, 1, Number &gt;</text>
</g>
</g>
</svg>
