<?xml version="1.0" encoding="UTF-8" standalone="no"?>
<!DOCTYPE svg PUBLIC "-//W3C//DTD SVG 1.1//EN"
 "http://www.w3.org/Graphics/SVG/1.1/DTD/svg11.dtd">
<!-- Generated by graphviz version 2.40.1 (20161225.0304)
 -->
<!-- Title: MeshWorker::LocalResults&lt; number &gt; Pages: 1 -->
<svg width="143pt" height="102pt"
 viewBox="0.00 0.00 143.31 102.00" xmlns="http://www.w3.org/2000/svg" xmlns:xlink="http://www.w3.org/1999/xlink">
<g id="graph0" class="graph" transform="scale(1 1) rotate(0) translate(4 98)">
<title>MeshWorker::LocalResults&lt; number &gt;</title>
<polygon fill="#ffffff" stroke="transparent" points="-4,4 -4,-98 139.3066,-98 139.3066,4 -4,4"/>
<!-- Node0 -->
<g id="node1" class="node">
<title>Node0</title>
<polygon fill="#bfbfbf" stroke="#000000" points="0,-65.5 0,-93.5 135.3066,-93.5 135.3066,-65.5 0,-65.5"/>
<text text-anchor="start" x="8" y="-81.5" font-family="Helvetica,sans-Serif" font-size="10.00" fill="#000000">MeshWorker::LocalResults</text>
<text text-anchor="middle" x="67.6533" y="-71.5" font-family="Helvetica,sans-Serif" font-size="10.00" fill="#000000">&lt; number &gt;</text>
</g>
<!-- Node1 -->
<g id="node2" class="node">
<title>Node1</title>
<g id="a_node2"><a xlink:href="classMeshWorker_1_1DoFInfo.html" target="_top" xlink:title="MeshWorker::DoFInfo\l\&lt; number \&gt;">
<polygon fill="#ffffff" stroke="#000000" points="10.8398,-.5 10.8398,-28.5 124.4668,-28.5 124.4668,-.5 10.8398,-.5"/>
<text text-anchor="start" x="18.8398" y="-16.5" font-family="Helvetica,sans-Serif" font-size="10.00" fill="#000000">MeshWorker::DoFInfo</text>
<text text-anchor="middle" x="67.6533" y="-6.5" font-family="Helvetica,sans-Serif" font-size="10.00" fill="#000000">&lt; number &gt;</text>
</a>
</g>
</g>
<!-- Node0&#45;&gt;Node1 -->
<g id="edge1" class="edge">
<title>Node0&#45;&gt;Node1</title>
<path fill="none" stroke="#191970" d="M67.6533,-55.1081C67.6533,-46.1539 67.6533,-36.3227 67.6533,-28.5765"/>
<polygon fill="#191970" stroke="#191970" points="64.1534,-55.3959 67.6533,-65.396 71.1534,-55.396 64.1534,-55.3959"/>
</g>
</g>
</svg>
