<?xml version="1.0" encoding="UTF-8" standalone="no"?>
<!DOCTYPE svg PUBLIC "-//W3C//DTD SVG 1.1//EN"
 "http://www.w3.org/Graphics/SVG/1.1/DTD/svg11.dtd">
<!-- Generated by graphviz version 2.40.1 (20161225.0304)
 -->
<!-- Title: FEEvaluationBase&lt; dim, n_components_, Number &gt; Pages: 1 -->
<svg width="596pt" height="235pt"
 viewBox="0.00 0.00 595.93 235.00" xmlns="http://www.w3.org/2000/svg" xmlns:xlink="http://www.w3.org/1999/xlink">
<g id="graph0" class="graph" transform="scale(1 1) rotate(0) translate(4 231)">
<title>FEEvaluationBase&lt; dim, n_components_, Number &gt;</title>
<polygon fill="#ffffff" stroke="transparent" points="-4,4 -4,-231 591.9287,-231 591.9287,4 -4,4"/>
<!-- Node0 -->
<g id="node1" class="node">
<title>Node0</title>
<polygon fill="#bfbfbf" stroke="#000000" points="0,-94.5 0,-122.5 139.6816,-122.5 139.6816,-94.5 0,-94.5"/>
<text text-anchor="start" x="8" y="-110.5" font-family="Helvetica,sans-Serif" font-size="10.00" fill="#000000">FEEvaluationBase&lt; dim,</text>
<text text-anchor="middle" x="69.8408" y="-100.5" font-family="Helvetica,sans-Serif" font-size="10.00" fill="#000000"> n_components_, Number &gt;</text>
</g>
<!-- Node1 -->
<g id="node2" class="node">
<title>Node1</title>
<g id="a_node2"><a xlink:href="classFEEvaluationAccess.html" target="_top" xlink:title="FEEvaluationAccess\l\&lt; dim, n_components\l_, Number \&gt;">
<polygon fill="#ffffff" stroke="#000000" points="288.2427,-188.5 288.2427,-226.5 400.1313,-226.5 400.1313,-188.5 288.2427,-188.5"/>
<text text-anchor="start" x="296.2427" y="-214.5" font-family="Helvetica,sans-Serif" font-size="10.00" fill="#000000">FEEvaluationAccess</text>
<text text-anchor="start" x="296.2427" y="-204.5" font-family="Helvetica,sans-Serif" font-size="10.00" fill="#000000">&lt; dim, n_components</text>
<text text-anchor="middle" x="344.187" y="-194.5" font-family="Helvetica,sans-Serif" font-size="10.00" fill="#000000">_, Number &gt;</text>
</a>
</g>
</g>
<!-- Node0&#45;&gt;Node1 -->
<g id="edge1" class="edge">
<title>Node0&#45;&gt;Node1</title>
<path fill="none" stroke="#191970" d="M96.6061,-128.4997C113.3908,-140.1982 135.9076,-154.4082 157.6816,-163.5 199.7399,-181.0616 250.1964,-192.4281 288.0172,-199.2006"/>
<polygon fill="#191970" stroke="#191970" points="98.5629,-125.5965 88.3856,-122.6515 94.5051,-131.3004 98.5629,-125.5965"/>
</g>
<!-- Node3 -->
<g id="node4" class="node">
<title>Node3</title>
<g id="a_node4"><a xlink:href="classFEEvaluationBase.html" target="_top" xlink:title="FEEvaluationBase\&lt; dim,\l n_components, Number \&gt;">
<polygon fill="#ffffff" stroke="#000000" points="277.127,-141.5 277.127,-169.5 411.2471,-169.5 411.2471,-141.5 277.127,-141.5"/>
<text text-anchor="start" x="285.127" y="-157.5" font-family="Helvetica,sans-Serif" font-size="10.00" fill="#000000">FEEvaluationBase&lt; dim,</text>
<text text-anchor="middle" x="344.187" y="-147.5" font-family="Helvetica,sans-Serif" font-size="10.00" fill="#000000"> n_components, Number &gt;</text>
</a>
</g>
</g>
<!-- Node0&#45;&gt;Node3 -->
<g id="edge3" class="edge">
<title>Node0&#45;&gt;Node3</title>
<path fill="none" stroke="#ffa500" stroke-dasharray="5,2" d="M149.8342,-122.2042C190.1032,-129.1029 238.3798,-137.3735 276.7436,-143.9458"/>
<polygon fill="#ffa500" stroke="#ffa500" points="150.2272,-118.7206 139.7798,-120.4817 149.0452,-125.6201 150.2272,-118.7206"/>
<text text-anchor="start" x="157.6816" y="-151.5" font-family="Helvetica,sans-Serif" font-size="10.00" fill="#000000"> &lt; dim, n_components,</text>
<text text-anchor="middle" x="208.4043" y="-141.5" font-family="Helvetica,sans-Serif" font-size="10.00" fill="#000000"> Number &gt;</text>
</g>
<!-- Node4 -->
<g id="node5" class="node">
<title>Node4</title>
<g id="a_node5"><a xlink:href="classFEEvaluationBase.html" target="_top" xlink:title="FEEvaluationBase\&lt; 1,\l 1, Number \&gt;">
<polygon fill="#ffffff" stroke="#000000" points="286.5728,-94.5 286.5728,-122.5 401.8013,-122.5 401.8013,-94.5 286.5728,-94.5"/>
<text text-anchor="start" x="294.5728" y="-110.5" font-family="Helvetica,sans-Serif" font-size="10.00" fill="#000000">FEEvaluationBase&lt; 1,</text>
<text text-anchor="middle" x="344.187" y="-100.5" font-family="Helvetica,sans-Serif" font-size="10.00" fill="#000000"> 1, Number &gt;</text>
</a>
</g>
</g>
<!-- Node0&#45;&gt;Node4 -->
<g id="edge4" class="edge">
<title>Node0&#45;&gt;Node4</title>
<path fill="none" stroke="#ffa500" stroke-dasharray="5,2" d="M149.8169,-108.5C193.5507,-108.5 246.7335,-108.5 286.4059,-108.5"/>
<polygon fill="#ffa500" stroke="#ffa500" points="149.7798,-105.0001 139.7798,-108.5 149.7798,-112.0001 149.7798,-105.0001"/>
<text text-anchor="middle" x="208.4043" y="-110.5" font-family="Helvetica,sans-Serif" font-size="10.00" fill="#000000"> &lt; 1, 1, Number &gt;</text>
</g>
<!-- Node6 -->
<g id="node7" class="node">
<title>Node6</title>
<g id="a_node7"><a xlink:href="classFEEvaluationBase.html" target="_top" xlink:title="FEEvaluationBase\&lt; dim,\l dim, Number \&gt;">
<polygon fill="#ffffff" stroke="#000000" points="281.2969,-47.5 281.2969,-75.5 407.0771,-75.5 407.0771,-47.5 281.2969,-47.5"/>
<text text-anchor="start" x="289.2969" y="-63.5" font-family="Helvetica,sans-Serif" font-size="10.00" fill="#000000">FEEvaluationBase&lt; dim,</text>
<text text-anchor="middle" x="344.187" y="-53.5" font-family="Helvetica,sans-Serif" font-size="10.00" fill="#000000"> dim, Number &gt;</text>
</a>
</g>
</g>
<!-- Node0&#45;&gt;Node6 -->
<g id="edge6" class="edge">
<title>Node0&#45;&gt;Node6</title>
<path fill="none" stroke="#ffa500" stroke-dasharray="5,2" d="M149.6527,-94.8269C191.4407,-87.6679 241.8912,-79.025 280.9424,-72.3348"/>
<polygon fill="#ffa500" stroke="#ffa500" points="149.0452,-91.3799 139.7798,-96.5183 150.2272,-98.2794 149.0452,-91.3799"/>
<text text-anchor="middle" x="208.4043" y="-94.5" font-family="Helvetica,sans-Serif" font-size="10.00" fill="#000000"> &lt; dim, dim, Number &gt;</text>
</g>
<!-- Node8 -->
<g id="node9" class="node">
<title>Node8</title>
<g id="a_node9"><a xlink:href="classFEEvaluationBase.html" target="_top" xlink:title="FEEvaluationBase\&lt; dim,\l 1, Number \&gt;">
<polygon fill="#ffffff" stroke="#000000" points="281.2969,-.5 281.2969,-28.5 407.0771,-28.5 407.0771,-.5 281.2969,-.5"/>
<text text-anchor="start" x="289.2969" y="-16.5" font-family="Helvetica,sans-Serif" font-size="10.00" fill="#000000">FEEvaluationBase&lt; dim,</text>
<text text-anchor="middle" x="344.187" y="-6.5" font-family="Helvetica,sans-Serif" font-size="10.00" fill="#000000"> 1, Number &gt;</text>
</a>
</g>
</g>
<!-- Node0&#45;&gt;Node8 -->
<g id="edge8" class="edge">
<title>Node0&#45;&gt;Node8</title>
<path fill="none" stroke="#ffa500" stroke-dasharray="5,2" d="M102.0801,-89.3281C118.3379,-80.258 138.6092,-69.8351 157.6816,-62.5 197.6256,-47.1379 244.252,-35.1379 280.8923,-26.9784"/>
<polygon fill="#ffa500" stroke="#ffa500" points="99.9782,-86.4967 93.011,-94.4785 103.435,-92.5836 99.9782,-86.4967"/>
<text text-anchor="middle" x="208.4043" y="-64.5" font-family="Helvetica,sans-Serif" font-size="10.00" fill="#000000"> &lt; dim, 1, Number &gt;</text>
</g>
<!-- Node2 -->
<g id="node3" class="node">
<title>Node2</title>
<g id="a_node3"><a xlink:href="classFEEvaluation.html" target="_top" xlink:title="FEEvaluation\&lt; dim,\l n_components_, Number \&gt;">
<polygon fill="#ffffff" stroke="#000000" points="448.2471,-193.5 448.2471,-221.5 587.9287,-221.5 587.9287,-193.5 448.2471,-193.5"/>
<text text-anchor="start" x="456.2471" y="-209.5" font-family="Helvetica,sans-Serif" font-size="10.00" fill="#000000">FEEvaluation&lt; dim,</text>
<text text-anchor="middle" x="518.0879" y="-199.5" font-family="Helvetica,sans-Serif" font-size="10.00" fill="#000000"> n_components_, Number &gt;</text>
</a>
</g>
</g>
<!-- Node1&#45;&gt;Node2 -->
<g id="edge2" class="edge">
<title>Node1&#45;&gt;Node2</title>
<path fill="none" stroke="#191970" d="M410.3894,-207.5C422.7529,-207.5 435.7108,-207.5 448.1818,-207.5"/>
<polygon fill="#191970" stroke="#191970" points="410.1676,-204.0001 400.1676,-207.5 410.1675,-211.0001 410.1676,-204.0001"/>
</g>
<!-- Node5 -->
<g id="node6" class="node">
<title>Node5</title>
<g id="a_node6"><a xlink:href="classFEEvaluationAccess_3_011_00_011_00_01Number_01_4.html" target="_top" xlink:title="FEEvaluationAccess\l\&lt; 1, 1, Number \&gt;">
<polygon fill="#ffffff" stroke="#000000" points="464.2334,-94.5 464.2334,-122.5 571.9424,-122.5 571.9424,-94.5 464.2334,-94.5"/>
<text text-anchor="start" x="472.2334" y="-110.5" font-family="Helvetica,sans-Serif" font-size="10.00" fill="#000000">FEEvaluationAccess</text>
<text text-anchor="middle" x="518.0879" y="-100.5" font-family="Helvetica,sans-Serif" font-size="10.00" fill="#000000">&lt; 1, 1, Number &gt;</text>
</a>
</g>
</g>
<!-- Node4&#45;&gt;Node5 -->
<g id="edge5" class="edge">
<title>Node4&#45;&gt;Node5</title>
<path fill="none" stroke="#191970" d="M412.564,-108.5C429.6282,-108.5 447.6936,-108.5 463.9621,-108.5"/>
<polygon fill="#191970" stroke="#191970" points="412.0935,-105.0001 402.0935,-108.5 412.0935,-112.0001 412.0935,-105.0001"/>
</g>
<!-- Node7 -->
<g id="node8" class="node">
<title>Node7</title>
<g id="a_node8"><a xlink:href="classFEEvaluationAccess_3_01dim_00_01dim_00_01Number_01_4.html" target="_top" xlink:title="FEEvaluationAccess\l\&lt; dim, dim, Number \&gt;">
<polygon fill="#ffffff" stroke="#000000" points="462.0166,-47.5 462.0166,-75.5 574.1592,-75.5 574.1592,-47.5 462.0166,-47.5"/>
<text text-anchor="start" x="470.0166" y="-63.5" font-family="Helvetica,sans-Serif" font-size="10.00" fill="#000000">FEEvaluationAccess</text>
<text text-anchor="middle" x="518.0879" y="-53.5" font-family="Helvetica,sans-Serif" font-size="10.00" fill="#000000">&lt; dim, dim, Number &gt;</text>
</a>
</g>
</g>
<!-- Node6&#45;&gt;Node7 -->
<g id="edge7" class="edge">
<title>Node6&#45;&gt;Node7</title>
<path fill="none" stroke="#191970" d="M417.5868,-61.5C432.3677,-61.5 447.6842,-61.5 461.7708,-61.5"/>
<polygon fill="#191970" stroke="#191970" points="417.4612,-58.0001 407.4612,-61.5 417.4611,-65.0001 417.4612,-58.0001"/>
</g>
<!-- Node9 -->
<g id="node10" class="node">
<title>Node9</title>
<g id="a_node10"><a xlink:href="classFEEvaluationAccess_3_01dim_00_011_00_01Number_01_4.html" target="_top" xlink:title="FEEvaluationAccess\l\&lt; dim, 1, Number \&gt;">
<polygon fill="#ffffff" stroke="#000000" points="464.2334,-.5 464.2334,-28.5 571.9424,-28.5 571.9424,-.5 464.2334,-.5"/>
<text text-anchor="start" x="472.2334" y="-16.5" font-family="Helvetica,sans-Serif" font-size="10.00" fill="#000000">FEEvaluationAccess</text>
<text text-anchor="middle" x="518.0879" y="-6.5" font-family="Helvetica,sans-Serif" font-size="10.00" fill="#000000">&lt; dim, 1, Number &gt;</text>
</a>
</g>
</g>
<!-- Node8&#45;&gt;Node9 -->
<g id="edge9" class="edge">
<title>Node8&#45;&gt;Node9</title>
<path fill="none" stroke="#191970" d="M417.5892,-14.5C433.1646,-14.5 449.3347,-14.5 464.0336,-14.5"/>
<polygon fill="#191970" stroke="#191970" points="417.4612,-11.0001 407.4612,-14.5 417.4611,-18.0001 417.4612,-11.0001"/>
</g>
</g>
</svg>
