<?xml version="1.0" encoding="UTF-8" standalone="no"?>
<!DOCTYPE svg PUBLIC "-//W3C//DTD SVG 1.1//EN"
 "http://www.w3.org/Graphics/SVG/1.1/DTD/svg11.dtd">
<!-- Generated by graphviz version 2.40.1 (20161225.0304)
 -->
<!-- Title: QGaussLobatto&lt; dim &gt; Pages: 1 -->
<svg width="127pt" height="204pt"
 viewBox="0.00 0.00 127.39 204.00" xmlns="http://www.w3.org/2000/svg" xmlns:xlink="http://www.w3.org/1999/xlink">
<g id="graph0" class="graph" transform="scale(1 1) rotate(0) translate(4 200)">
<title>QGaussLobatto&lt; dim &gt;</title>
<polygon fill="#ffffff" stroke="transparent" points="-4,4 -4,-200 123.3936,-200 123.3936,4 -4,4"/>
<!-- Node0 -->
<g id="node1" class="node">
<title>Node0</title>
<polygon fill="#bfbfbf" stroke="#000000" points="0,-65.5 0,-83.5 119.3936,-83.5 119.3936,-65.5 0,-65.5"/>
<text text-anchor="middle" x="59.6968" y="-71.5" font-family="Helvetica,sans-Serif" font-size="10.00" fill="#000000">QGaussLobatto&lt; dim &gt;</text>
</g>
<!-- Node3 -->
<g id="node4" class="node">
<title>Node3</title>
<g id="a_node4"><a xlink:href="classQGaussLobatto.html" target="_top" xlink:title="QGaussLobatto\&lt; 1 \&gt;">
<polygon fill="#ffffff" stroke="#000000" points="5.2759,-.5 5.2759,-18.5 114.1177,-18.5 114.1177,-.5 5.2759,-.5"/>
<text text-anchor="middle" x="59.6968" y="-6.5" font-family="Helvetica,sans-Serif" font-size="10.00" fill="#000000">QGaussLobatto&lt; 1 &gt;</text>
</a>
</g>
</g>
<!-- Node0&#45;&gt;Node3 -->
<g id="edge3" class="edge">
<title>Node0&#45;&gt;Node3</title>
<path fill="none" stroke="#ffa500" stroke-dasharray="5,2" d="M59.6968,-55.1265C59.6968,-43.1522 59.6968,-28.3205 59.6968,-18.8821"/>
<polygon fill="#ffa500" stroke="#ffa500" points="56.1969,-55.462 59.6968,-65.462 63.1969,-55.4621 56.1969,-55.462"/>
<text text-anchor="middle" x="72.4849" y="-39" font-family="Helvetica,sans-Serif" font-size="10.00" fill="#000000"> &lt; 1 &gt;</text>
</g>
<!-- Node1 -->
<g id="node2" class="node">
<title>Node1</title>
<g id="a_node2"><a xlink:href="classQuadrature.html" target="_top" xlink:title="Quadrature\&lt; dim \&gt;">
<polygon fill="#ffffff" stroke="#000000" points="9.729,-121.5 9.729,-139.5 109.6646,-139.5 109.6646,-121.5 9.729,-121.5"/>
<text text-anchor="middle" x="59.6968" y="-127.5" font-family="Helvetica,sans-Serif" font-size="10.00" fill="#000000">Quadrature&lt; dim &gt;</text>
</a>
</g>
</g>
<!-- Node1&#45;&gt;Node0 -->
<g id="edge1" class="edge">
<title>Node1&#45;&gt;Node0</title>
<path fill="none" stroke="#191970" d="M59.6968,-111.2065C59.6968,-101.8384 59.6968,-91.0262 59.6968,-83.5752"/>
<polygon fill="#191970" stroke="#191970" points="56.1969,-111.2527 59.6968,-121.2527 63.1969,-111.2528 56.1969,-111.2527"/>
</g>
<!-- Node2 -->
<g id="node3" class="node">
<title>Node2</title>
<g id="a_node3"><a xlink:href="classSubscriptor.html" target="_top" xlink:title="Subscriptor">
<polygon fill="#ffffff" stroke="#000000" points="26.4087,-177.5 26.4087,-195.5 92.9849,-195.5 92.9849,-177.5 26.4087,-177.5"/>
<text text-anchor="middle" x="59.6968" y="-183.5" font-family="Helvetica,sans-Serif" font-size="10.00" fill="#000000">Subscriptor</text>
</a>
</g>
</g>
<!-- Node2&#45;&gt;Node1 -->
<g id="edge2" class="edge">
<title>Node2&#45;&gt;Node1</title>
<path fill="none" stroke="#191970" d="M59.6968,-167.2065C59.6968,-157.8384 59.6968,-147.0262 59.6968,-139.5752"/>
<polygon fill="#191970" stroke="#191970" points="56.1969,-167.2527 59.6968,-177.2527 63.1969,-167.2528 56.1969,-167.2527"/>
</g>
</g>
</svg>
