<?xml version="1.0" encoding="UTF-8" standalone="no"?>
<!DOCTYPE svg PUBLIC "-//W3C//DTD SVG 1.1//EN"
 "http://www.w3.org/Graphics/SVG/1.1/DTD/svg11.dtd">
<!-- Generated by graphviz version 2.40.1 (20161225.0304)
 -->
<!-- Title: PETScWrappers::MPI::BlockVector Pages: 1 -->
<svg width="247pt" height="214pt"
 viewBox="0.00 0.00 247.03 214.00" xmlns="http://www.w3.org/2000/svg" xmlns:xlink="http://www.w3.org/1999/xlink">
<g id="graph0" class="graph" transform="scale(1 1) rotate(0) translate(4 210)">
<title>PETScWrappers::MPI::BlockVector</title>
<polygon fill="#ffffff" stroke="transparent" points="-4,4 -4,-210 243.0337,-210 243.0337,4 -4,4"/>
<!-- Node0 -->
<g id="node1" class="node">
<title>Node0</title>
<polygon fill="#bfbfbf" stroke="#000000" points="11.7847,-.5 11.7847,-28.5 125.4067,-28.5 125.4067,-.5 11.7847,-.5"/>
<text text-anchor="start" x="19.7847" y="-16.5" font-family="Helvetica,sans-Serif" font-size="10.00" fill="#000000">PETScWrappers::MPI</text>
<text text-anchor="middle" x="68.5957" y="-6.5" font-family="Helvetica,sans-Serif" font-size="10.00" fill="#000000">::BlockVector</text>
</g>
<!-- Node1 -->
<g id="node2" class="node">
<title>Node1</title>
<g id="a_node2"><a xlink:href="classBlockVectorBase.html" target="_top" xlink:title="BlockVectorBase\&lt; Vector \&gt;">
<polygon fill="#ffffff" stroke="#000000" points="0,-66.5 0,-84.5 137.1914,-84.5 137.1914,-66.5 0,-66.5"/>
<text text-anchor="middle" x="68.5957" y="-72.5" font-family="Helvetica,sans-Serif" font-size="10.00" fill="#000000">BlockVectorBase&lt; Vector &gt;</text>
</a>
</g>
</g>
<!-- Node1&#45;&gt;Node0 -->
<g id="edge1" class="edge">
<title>Node1&#45;&gt;Node0</title>
<path fill="none" stroke="#191970" d="M68.5957,-56.2842C68.5957,-47.3664 68.5957,-36.9504 68.5957,-28.7488"/>
<polygon fill="#191970" stroke="#191970" points="65.0958,-56.4992 68.5957,-66.4992 72.0958,-56.4993 65.0958,-56.4992"/>
</g>
<!-- Node2 -->
<g id="node3" class="node">
<title>Node2</title>
<g id="a_node3"><a xlink:href="classSubscriptor.html" target="_top" xlink:title="Subscriptor">
<polygon fill="#ffffff" stroke="#000000" points="31.3076,-187.5 31.3076,-205.5 97.8838,-205.5 97.8838,-187.5 31.3076,-187.5"/>
<text text-anchor="middle" x="64.5957" y="-193.5" font-family="Helvetica,sans-Serif" font-size="10.00" fill="#000000">Subscriptor</text>
</a>
</g>
</g>
<!-- Node2&#45;&gt;Node1 -->
<g id="edge2" class="edge">
<title>Node2&#45;&gt;Node1</title>
<path fill="none" stroke="#191970" d="M65.2362,-177.1238C66.1105,-150.6786 67.6427,-104.3298 68.2916,-84.7002"/>
<polygon fill="#191970" stroke="#191970" points="61.7288,-177.2951 64.8964,-187.4053 68.7249,-177.5265 61.7288,-177.2951"/>
</g>
<!-- Node3 -->
<g id="node4" class="node">
<title>Node3</title>
<g id="a_node4"><a xlink:href="classBlockVectorBase.html" target="_top" xlink:title="BlockVectorBase\&lt; VectorType \&gt;">
<polygon fill="#ffffff" stroke="#000000" points="80.1577,-131.5 80.1577,-149.5 239.0337,-149.5 239.0337,-131.5 80.1577,-131.5"/>
<text text-anchor="middle" x="159.5957" y="-137.5" font-family="Helvetica,sans-Serif" font-size="10.00" fill="#000000">BlockVectorBase&lt; VectorType &gt;</text>
</a>
</g>
</g>
<!-- Node2&#45;&gt;Node3 -->
<g id="edge4" class="edge">
<title>Node2&#45;&gt;Node3</title>
<path fill="none" stroke="#191970" d="M89.2991,-181.938C106.6658,-171.7008 129.3618,-158.3221 144.2003,-149.5752"/>
<polygon fill="#191970" stroke="#191970" points="87.1204,-179.1594 80.283,-187.2527 90.6751,-185.1897 87.1204,-179.1594"/>
</g>
<!-- Node3&#45;&gt;Node1 -->
<g id="edge3" class="edge">
<title>Node3&#45;&gt;Node1</title>
<path fill="none" stroke="#ffa500" stroke-dasharray="5,2" d="M138.4368,-125.3865C120.7966,-112.7864 96.2389,-95.2451 81.4348,-84.6708"/>
<polygon fill="#ffa500" stroke="#ffa500" points="136.7708,-128.4977 146.9425,-131.462 140.8395,-122.8015 136.7708,-128.4977"/>
<text text-anchor="middle" x="142.7803" y="-105" font-family="Helvetica,sans-Serif" font-size="10.00" fill="#000000"> &lt; Vector &gt;</text>
</g>
</g>
</svg>
