<?xml version="1.0" encoding="UTF-8" standalone="no"?>
<!DOCTYPE svg PUBLIC "-//W3C//DTD SVG 1.1//EN"
 "http://www.w3.org/Graphics/SVG/1.1/DTD/svg11.dtd">
<!-- Generated by graphviz version 2.40.1 (20161225.0304)
 -->
<!-- Title: TimeStepping::EmbeddedExplicitRungeKutta&lt; VectorType &gt; Pages: 1 -->
<svg width="171pt" height="167pt"
 viewBox="0.00 0.00 170.93 167.00" xmlns="http://www.w3.org/2000/svg" xmlns:xlink="http://www.w3.org/1999/xlink">
<g id="graph0" class="graph" transform="scale(1 1) rotate(0) translate(4 163)">
<title>TimeStepping::EmbeddedExplicitRungeKutta&lt; VectorType &gt;</title>
<polygon fill="#ffffff" stroke="transparent" points="-4,4 -4,-163 166.9336,-163 166.9336,4 -4,4"/>
<!-- Node0 -->
<g id="node1" class="node">
<title>Node0</title>
<polygon fill="#bfbfbf" stroke="#000000" points="0,-.5 0,-28.5 162.9336,-28.5 162.9336,-.5 0,-.5"/>
<text text-anchor="start" x="8" y="-16.5" font-family="Helvetica,sans-Serif" font-size="10.00" fill="#000000">TimeStepping::EmbeddedExplicit</text>
<text text-anchor="middle" x="81.4668" y="-6.5" font-family="Helvetica,sans-Serif" font-size="10.00" fill="#000000">RungeKutta&lt; VectorType &gt;</text>
</g>
<!-- Node1 -->
<g id="node2" class="node">
<title>Node1</title>
<g id="a_node2"><a xlink:href="classTimeStepping_1_1RungeKutta.html" target="_top" xlink:title="TimeStepping::RungeKutta\l\&lt; VectorType \&gt;">
<polygon fill="#ffffff" stroke="#000000" points="13.6133,-65.5 13.6133,-93.5 149.3203,-93.5 149.3203,-65.5 13.6133,-65.5"/>
<text text-anchor="start" x="21.6133" y="-81.5" font-family="Helvetica,sans-Serif" font-size="10.00" fill="#000000">TimeStepping::RungeKutta</text>
<text text-anchor="middle" x="81.4668" y="-71.5" font-family="Helvetica,sans-Serif" font-size="10.00" fill="#000000">&lt; VectorType &gt;</text>
</a>
</g>
</g>
<!-- Node1&#45;&gt;Node0 -->
<g id="edge1" class="edge">
<title>Node1&#45;&gt;Node0</title>
<path fill="none" stroke="#191970" d="M81.4668,-55.1081C81.4668,-46.1539 81.4668,-36.3227 81.4668,-28.5765"/>
<polygon fill="#191970" stroke="#191970" points="77.9669,-55.3959 81.4668,-65.396 84.9669,-55.396 77.9669,-55.3959"/>
</g>
<!-- Node2 -->
<g id="node3" class="node">
<title>Node2</title>
<g id="a_node3"><a xlink:href="classTimeStepping_1_1TimeStepping.html" target="_top" xlink:title="TimeStepping::TimeStepping\l\&lt; VectorType \&gt;">
<polygon fill="#ffffff" stroke="#000000" points="9.3555,-130.5 9.3555,-158.5 153.5781,-158.5 153.5781,-130.5 9.3555,-130.5"/>
<text text-anchor="start" x="17.3555" y="-146.5" font-family="Helvetica,sans-Serif" font-size="10.00" fill="#000000">TimeStepping::TimeStepping</text>
<text text-anchor="middle" x="81.4668" y="-136.5" font-family="Helvetica,sans-Serif" font-size="10.00" fill="#000000">&lt; VectorType &gt;</text>
</a>
</g>
</g>
<!-- Node2&#45;&gt;Node1 -->
<g id="edge2" class="edge">
<title>Node2&#45;&gt;Node1</title>
<path fill="none" stroke="#191970" d="M81.4668,-120.1081C81.4668,-111.1539 81.4668,-101.3227 81.4668,-93.5765"/>
<polygon fill="#191970" stroke="#191970" points="77.9669,-120.3959 81.4668,-130.396 84.9669,-120.396 77.9669,-120.3959"/>
</g>
</g>
</svg>
