<?xml version="1.0" encoding="UTF-8" standalone="no"?>
<!DOCTYPE svg PUBLIC "-//W3C//DTD SVG 1.1//EN"
 "http://www.w3.org/Graphics/SVG/1.1/DTD/svg11.dtd">
<!-- Generated by graphviz version 2.40.1 (20161225.0304)
 -->
<!-- Title: hp::DoFHandler&lt; dim, spacedim &gt; Pages: 1 -->
<svg width="128pt" height="158pt"
 viewBox="0.00 0.00 127.94 158.00" xmlns="http://www.w3.org/2000/svg" xmlns:xlink="http://www.w3.org/1999/xlink">
<g id="graph0" class="graph" transform="scale(1 1) rotate(0) translate(4 154)">
<title>hp::DoFHandler&lt; dim, spacedim &gt;</title>
<polygon fill="#ffffff" stroke="transparent" points="-4,4 -4,-154 123.9404,-154 123.9404,4 -4,4"/>
<!-- Node0 -->
<g id="node1" class="node">
<title>Node0</title>
<polygon fill="#bfbfbf" stroke="#000000" points="2.9199,-65.5 2.9199,-93.5 117.0205,-93.5 117.0205,-65.5 2.9199,-65.5"/>
<text text-anchor="start" x="10.9199" y="-81.5" font-family="Helvetica,sans-Serif" font-size="10.00" fill="#000000">hp::DoFHandler&lt; dim,</text>
<text text-anchor="middle" x="59.9702" y="-71.5" font-family="Helvetica,sans-Serif" font-size="10.00" fill="#000000"> spacedim &gt;</text>
</g>
<!-- Node2 -->
<g id="node3" class="node">
<title>Node2</title>
<g id="a_node3"><a xlink:href="classhp_1_1DoFHandler.html" target="_top" xlink:title="hp::DoFHandler\&lt; dim \&gt;">
<polygon fill="#ffffff" stroke="#000000" points="0,-.5 0,-18.5 119.9404,-18.5 119.9404,-.5 0,-.5"/>
<text text-anchor="middle" x="59.9702" y="-6.5" font-family="Helvetica,sans-Serif" font-size="10.00" fill="#000000">hp::DoFHandler&lt; dim &gt;</text>
</a>
</g>
</g>
<!-- Node0&#45;&gt;Node2 -->
<g id="edge2" class="edge">
<title>Node0&#45;&gt;Node2</title>
<path fill="none" stroke="#ffa500" stroke-dasharray="5,2" d="M59.9702,-55.007C59.9702,-42.4648 59.9702,-27.9386 59.9702,-18.7368"/>
<polygon fill="#ffa500" stroke="#ffa500" points="56.4703,-55.3344 59.9702,-65.3345 63.4703,-55.3345 56.4703,-55.3344"/>
<text text-anchor="middle" x="78.0342" y="-39" font-family="Helvetica,sans-Serif" font-size="10.00" fill="#000000"> &lt; dim &gt;</text>
</g>
<!-- Node1 -->
<g id="node2" class="node">
<title>Node1</title>
<g id="a_node2"><a xlink:href="classSubscriptor.html" target="_top" xlink:title="Subscriptor">
<polygon fill="#ffffff" stroke="#000000" points="26.6821,-131.5 26.6821,-149.5 93.2583,-149.5 93.2583,-131.5 26.6821,-131.5"/>
<text text-anchor="middle" x="59.9702" y="-137.5" font-family="Helvetica,sans-Serif" font-size="10.00" fill="#000000">Subscriptor</text>
</a>
</g>
</g>
<!-- Node1&#45;&gt;Node0 -->
<g id="edge1" class="edge">
<title>Node1&#45;&gt;Node0</title>
<path fill="none" stroke="#191970" d="M59.9702,-121.2842C59.9702,-112.3664 59.9702,-101.9504 59.9702,-93.7488"/>
<polygon fill="#191970" stroke="#191970" points="56.4703,-121.4992 59.9702,-131.4992 63.4703,-121.4993 56.4703,-121.4992"/>
</g>
</g>
</svg>
