<?xml version="1.0" encoding="UTF-8" standalone="no"?>
<!DOCTYPE svg PUBLIC "-//W3C//DTD SVG 1.1//EN"
 "http://www.w3.org/Graphics/SVG/1.1/DTD/svg11.dtd">
<!-- Generated by graphviz version 2.40.1 (20161225.0304)
 -->
<!-- Title: RelaxationBlockSOR&lt; MatrixType, InverseNumberType, VectorType &gt; Pages: 1 -->
<svg width="318pt" height="254pt"
 viewBox="0.00 0.00 317.78 254.00" xmlns="http://www.w3.org/2000/svg" xmlns:xlink="http://www.w3.org/1999/xlink">
<g id="graph0" class="graph" transform="scale(1 1) rotate(0) translate(4 250)">
<title>RelaxationBlockSOR&lt; MatrixType, InverseNumberType, VectorType &gt;</title>
<polygon fill="#ffffff" stroke="transparent" points="-4,4 -4,-250 313.7788,-250 313.7788,4 -4,4"/>
<!-- Node0 -->
<g id="node1" class="node">
<title>Node0</title>
<polygon fill="#bfbfbf" stroke="#000000" points="0,-.5 0,-38.5 147.4404,-38.5 147.4404,-.5 0,-.5"/>
<text text-anchor="start" x="8" y="-26.5" font-family="Helvetica,sans-Serif" font-size="10.00" fill="#000000">RelaxationBlockSOR</text>
<text text-anchor="start" x="8" y="-16.5" font-family="Helvetica,sans-Serif" font-size="10.00" fill="#000000">&lt; MatrixType, InverseNumber</text>
<text text-anchor="middle" x="73.7202" y="-6.5" font-family="Helvetica,sans-Serif" font-size="10.00" fill="#000000">Type, VectorType &gt;</text>
</g>
<!-- Node1 -->
<g id="node2" class="node">
<title>Node1</title>
<g id="a_node2"><a xlink:href="classSubscriptor.html" target="_top" xlink:title="Subscriptor">
<polygon fill="#ffffff" stroke="#000000" points="28.4321,-81.5 28.4321,-99.5 95.0083,-99.5 95.0083,-81.5 28.4321,-81.5"/>
<text text-anchor="middle" x="61.7202" y="-87.5" font-family="Helvetica,sans-Serif" font-size="10.00" fill="#000000">Subscriptor</text>
</a>
</g>
</g>
<!-- Node1&#45;&gt;Node0 -->
<g id="edge1" class="edge">
<title>Node1&#45;&gt;Node0</title>
<path fill="none" stroke="#191970" d="M64.9599,-71.3318C66.6718,-61.2029 68.7671,-48.8057 70.4793,-38.6756"/>
<polygon fill="#191970" stroke="#191970" points="61.5045,-70.7745 63.289,-81.218 68.4067,-71.9411 61.5045,-70.7745"/>
</g>
<!-- Node2 -->
<g id="node3" class="node">
<title>Node2</title>
<g id="a_node3"><a xlink:href="classRelaxationBlock.html" target="_top" xlink:title="RelaxationBlock\&lt; MatrixType,\l InverseNumberType, VectorType \&gt;">
<polygon fill="#ffffff" stroke="#000000" points="113.2021,-76.5 113.2021,-104.5 286.2383,-104.5 286.2383,-76.5 113.2021,-76.5"/>
<text text-anchor="start" x="121.2021" y="-92.5" font-family="Helvetica,sans-Serif" font-size="10.00" fill="#000000">RelaxationBlock&lt; MatrixType,</text>
<text text-anchor="middle" x="199.7202" y="-82.5" font-family="Helvetica,sans-Serif" font-size="10.00" fill="#000000"> InverseNumberType, VectorType &gt;</text>
</a>
</g>
</g>
<!-- Node2&#45;&gt;Node0 -->
<g id="edge2" class="edge">
<title>Node2&#45;&gt;Node0</title>
<path fill="none" stroke="#006400" d="M165.8096,-71.3916C147.7733,-61.2283 125.6612,-48.7684 107.6257,-38.6055"/>
<polygon fill="#006400" stroke="#006400" points="164.3964,-74.6127 174.8267,-76.4727 167.8328,-68.5142 164.3964,-74.6127"/>
</g>
<!-- Node3 -->
<g id="node4" class="node">
<title>Node3</title>
<g id="a_node4"><a xlink:href="classPreconditionBlockBase.html" target="_top" xlink:title="PreconditionBlockBase\l\&lt; InverseNumberType \&gt;">
<polygon fill="#ffffff" stroke="#000000" points="138.0801,-142.5 138.0801,-170.5 261.3604,-170.5 261.3604,-142.5 138.0801,-142.5"/>
<text text-anchor="start" x="146.0801" y="-158.5" font-family="Helvetica,sans-Serif" font-size="10.00" fill="#000000">PreconditionBlockBase</text>
<text text-anchor="middle" x="199.7202" y="-148.5" font-family="Helvetica,sans-Serif" font-size="10.00" fill="#000000">&lt; InverseNumberType &gt;</text>
</a>
</g>
</g>
<!-- Node3&#45;&gt;Node2 -->
<g id="edge3" class="edge">
<title>Node3&#45;&gt;Node2</title>
<path fill="none" stroke="#006400" d="M199.7202,-132.0322C199.7202,-122.8606 199.7202,-112.7449 199.7202,-104.7931"/>
<polygon fill="#006400" stroke="#006400" points="196.2203,-132.1789 199.7202,-142.179 203.2203,-132.179 196.2203,-132.1789"/>
</g>
<!-- Node4 -->
<g id="node5" class="node">
<title>Node4</title>
<g id="a_node5"><a xlink:href="classPreconditionBlockBase.html" target="_top" xlink:title="PreconditionBlockBase\l\&lt; number \&gt;">
<polygon fill="#ffffff" stroke="#000000" points="140.3018,-217.5 140.3018,-245.5 259.1387,-245.5 259.1387,-217.5 140.3018,-217.5"/>
<text text-anchor="start" x="148.3018" y="-233.5" font-family="Helvetica,sans-Serif" font-size="10.00" fill="#000000">PreconditionBlockBase</text>
<text text-anchor="middle" x="199.7202" y="-223.5" font-family="Helvetica,sans-Serif" font-size="10.00" fill="#000000">&lt; number &gt;</text>
</a>
</g>
</g>
<!-- Node4&#45;&gt;Node3 -->
<g id="edge4" class="edge">
<title>Node4&#45;&gt;Node3</title>
<path fill="none" stroke="#ffa500" stroke-dasharray="5,2" d="M199.7202,-207.0415C199.7202,-194.9507 199.7202,-180.7938 199.7202,-170.5437"/>
<polygon fill="#ffa500" stroke="#ffa500" points="196.2203,-207.393 199.7202,-217.3931 203.2203,-207.3931 196.2203,-207.393"/>
<text text-anchor="middle" x="254.7495" y="-191" font-family="Helvetica,sans-Serif" font-size="10.00" fill="#000000"> &lt; InverseNumberType &gt;</text>
</g>
</g>
</svg>
