<?xml version="1.0" encoding="UTF-8" standalone="no"?>
<!DOCTYPE svg PUBLIC "-//W3C//DTD SVG 1.1//EN"
 "http://www.w3.org/Graphics/SVG/1.1/DTD/svg11.dtd">
<!-- Generated by graphviz version 2.40.1 (20161225.0304)
 -->
<!-- Title: hp::FESubfaceValues&lt; dim, spacedim &gt; Pages: 1 -->
<svg width="208pt" height="198pt"
 viewBox="0.00 0.00 207.63 198.00" xmlns="http://www.w3.org/2000/svg" xmlns:xlink="http://www.w3.org/1999/xlink">
<g id="graph0" class="graph" transform="scale(1 1) rotate(0) translate(4 194)">
<title>hp::FESubfaceValues&lt; dim, spacedim &gt;</title>
<polygon fill="#ffffff" stroke="transparent" points="-4,4 -4,-194 203.6309,-194 203.6309,4 -4,4"/>
<!-- Node0 -->
<g id="node1" class="node">
<title>Node0</title>
<polygon fill="#bfbfbf" stroke="#000000" points="23.4741,-.5 23.4741,-28.5 135.4653,-28.5 135.4653,-.5 23.4741,-.5"/>
<text text-anchor="start" x="31.4741" y="-16.5" font-family="Helvetica,sans-Serif" font-size="10.00" fill="#000000">hp::FESubfaceValues</text>
<text text-anchor="middle" x="79.4697" y="-6.5" font-family="Helvetica,sans-Serif" font-size="10.00" fill="#000000">&lt; dim, spacedim &gt;</text>
</g>
<!-- Node1 -->
<g id="node2" class="node">
<title>Node1</title>
<g id="a_node2"><a xlink:href="classinternal_1_1hp_1_1FEValuesBase.html" target="_top" xlink:title="internal::hp::FEValuesBase\l\&lt; dim, dim&#45;1,::FESubfaceValues\l\&lt; dim, spacedim \&gt; \&gt;">
<polygon fill="#ffffff" stroke="#000000" points="0,-66.5 0,-104.5 158.9395,-104.5 158.9395,-66.5 0,-66.5"/>
<text text-anchor="start" x="8" y="-92.5" font-family="Helvetica,sans-Serif" font-size="10.00" fill="#000000">internal::hp::FEValuesBase</text>
<text text-anchor="start" x="8" y="-82.5" font-family="Helvetica,sans-Serif" font-size="10.00" fill="#000000">&lt; dim, dim&#45;1,::FESubfaceValues</text>
<text text-anchor="middle" x="79.4697" y="-72.5" font-family="Helvetica,sans-Serif" font-size="10.00" fill="#000000">&lt; dim, spacedim &gt; &gt;</text>
</a>
</g>
</g>
<!-- Node1&#45;&gt;Node0 -->
<g id="edge1" class="edge">
<title>Node1&#45;&gt;Node0</title>
<path fill="none" stroke="#191970" d="M79.4697,-56.2143C79.4697,-46.768 79.4697,-36.7158 79.4697,-28.8465"/>
<polygon fill="#191970" stroke="#191970" points="75.9698,-56.4733 79.4697,-66.4733 82.9698,-56.4733 75.9698,-56.4733"/>
</g>
<!-- Node2 -->
<g id="node3" class="node">
<title>Node2</title>
<g id="a_node3"><a xlink:href="classinternal_1_1hp_1_1FEValuesBase.html" target="_top" xlink:title="internal::hp::FEValuesBase\l\&lt; dim, q_dim, FEValuesType \&gt;">
<polygon fill="#ffffff" stroke="#000000" points="3.4692,-161.5 3.4692,-189.5 155.4702,-189.5 155.4702,-161.5 3.4692,-161.5"/>
<text text-anchor="start" x="11.4692" y="-177.5" font-family="Helvetica,sans-Serif" font-size="10.00" fill="#000000">internal::hp::FEValuesBase</text>
<text text-anchor="middle" x="79.4697" y="-167.5" font-family="Helvetica,sans-Serif" font-size="10.00" fill="#000000">&lt; dim, q_dim, FEValuesType &gt;</text>
</a>
</g>
</g>
<!-- Node2&#45;&gt;Node1 -->
<g id="edge2" class="edge">
<title>Node2&#45;&gt;Node1</title>
<path fill="none" stroke="#ffa500" stroke-dasharray="5,2" d="M79.4697,-151.1632C79.4697,-136.6073 79.4697,-118.367 79.4697,-104.8073"/>
<polygon fill="#ffa500" stroke="#ffa500" points="75.9698,-151.4375 79.4697,-161.4375 82.9698,-151.4375 75.9698,-151.4375"/>
<text text-anchor="start" x="79.4697" y="-135" font-family="Helvetica,sans-Serif" font-size="10.00" fill="#000000"> &lt; dim, dim&#45;1,::FESubface</text>
<text text-anchor="middle" x="139.5503" y="-125" font-family="Helvetica,sans-Serif" font-size="10.00" fill="#000000">Values&lt; dim, spacedim &gt; &gt;</text>
</g>
</g>
</svg>
