<?xml version="1.0" encoding="UTF-8" standalone="no"?>
<!DOCTYPE svg PUBLIC "-//W3C//DTD SVG 1.1//EN"
 "http://www.w3.org/Graphics/SVG/1.1/DTD/svg11.dtd">
<!-- Generated by graphviz version 2.40.1 (20161225.0304)
 -->
<!-- Title: Triangulation&lt; dim, spacedim &gt; Pages: 1 -->
<svg width="1139pt" height="364pt"
 viewBox="0.00 0.00 1139.14 363.50" xmlns="http://www.w3.org/2000/svg" xmlns:xlink="http://www.w3.org/1999/xlink">
<g id="graph0" class="graph" transform="scale(1 1) rotate(0) translate(4 359.5)">
<title>Triangulation&lt; dim, spacedim &gt;</title>
<polygon fill="#ffffff" stroke="transparent" points="-4,4 -4,-359.5 1135.1416,-359.5 1135.1416,4 -4,4"/>
<!-- Node0 -->
<g id="node1" class="node">
<title>Node0</title>
<polygon fill="#bfbfbf" stroke="#000000" points="103.5762,-161.5 103.5762,-189.5 204.5322,-189.5 204.5322,-161.5 103.5762,-161.5"/>
<text text-anchor="start" x="111.5762" y="-177.5" font-family="Helvetica,sans-Serif" font-size="10.00" fill="#000000">Triangulation&lt; dim,</text>
<text text-anchor="middle" x="154.0542" y="-167.5" font-family="Helvetica,sans-Serif" font-size="10.00" fill="#000000"> spacedim &gt;</text>
</g>
<!-- Node2 -->
<g id="node3" class="node">
<title>Node2</title>
<g id="a_node3"><a xlink:href="classparallel_1_1Triangulation.html" target="_top" xlink:title="parallel::Triangulation\l\&lt; dim, spacedim \&gt;">
<polygon fill="#ffffff" stroke="#000000" points="440.2734,-247.5 440.2734,-275.5 551.5176,-275.5 551.5176,-247.5 440.2734,-247.5"/>
<text text-anchor="start" x="448.2734" y="-263.5" font-family="Helvetica,sans-Serif" font-size="10.00" fill="#000000">parallel::Triangulation</text>
<text text-anchor="middle" x="495.8955" y="-253.5" font-family="Helvetica,sans-Serif" font-size="10.00" fill="#000000">&lt; dim, spacedim &gt;</text>
</a>
</g>
</g>
<!-- Node0&#45;&gt;Node2 -->
<g id="edge2" class="edge">
<title>Node0&#45;&gt;Node2</title>
<path fill="none" stroke="#191970" d="M173.546,-197.1627C186.1946,-209.718 203.7722,-224.5699 222.5322,-232.5 293.3063,-262.4173 383.1813,-266.1744 440.1391,-264.843"/>
<polygon fill="#191970" stroke="#191970" points="175.8125,-194.4721 166.3409,-189.7244 170.7845,-199.3424 175.8125,-194.4721"/>
</g>
<!-- Node6 -->
<g id="node7" class="node">
<title>Node6</title>
<g id="a_node7"><a xlink:href="classparallel_1_1distributed_1_1Triangulation.html" target="_top" xlink:title="Triangulation\&lt; dim \&gt;">
<polygon fill="#ffffff" stroke="#000000" points="781.772,-323.5 781.772,-341.5 888.5679,-341.5 888.5679,-323.5 781.772,-323.5"/>
<text text-anchor="middle" x="835.1699" y="-329.5" font-family="Helvetica,sans-Serif" font-size="10.00" fill="#000000">Triangulation&lt; dim &gt;</text>
</a>
</g>
</g>
<!-- Node0&#45;&gt;Node6 -->
<g id="edge15" class="edge">
<title>Node0&#45;&gt;Node6</title>
<path fill="none" stroke="#ffa500" stroke-dasharray="5,2" d="M165.6869,-198.5072C177.2055,-218.6997 196.8294,-247.0373 222.5322,-261.5 406.1282,-364.8073 669.3877,-351.258 781.4133,-339.4523"/>
<polygon fill="#ffa500" stroke="#ffa500" points="168.6957,-196.7142 160.8322,-189.6138 162.5515,-200.0682 168.6957,-196.7142"/>
<text text-anchor="middle" x="495.8955" y="-347.5" font-family="Helvetica,sans-Serif" font-size="10.00" fill="#000000"> &lt; dim &gt;</text>
</g>
<!-- Node9 -->
<g id="node10" class="node">
<title>Node9</title>
<g id="a_node10"><a xlink:href="classPersistentTriangulation.html" target="_top" xlink:title="PersistentTriangulation\l\&lt; dim, spacedim \&gt;">
<polygon fill="#ffffff" stroke="#000000" points="436.9409,-161.5 436.9409,-189.5 554.8501,-189.5 554.8501,-161.5 436.9409,-161.5"/>
<text text-anchor="start" x="444.9409" y="-177.5" font-family="Helvetica,sans-Serif" font-size="10.00" fill="#000000">PersistentTriangulation</text>
<text text-anchor="middle" x="495.8955" y="-167.5" font-family="Helvetica,sans-Serif" font-size="10.00" fill="#000000">&lt; dim, spacedim &gt;</text>
</a>
</g>
</g>
<!-- Node0&#45;&gt;Node9 -->
<g id="edge9" class="edge">
<title>Node0&#45;&gt;Node9</title>
<path fill="none" stroke="#191970" d="M215.0034,-175.5C277.7075,-175.5 374.7306,-175.5 436.7621,-175.5"/>
<polygon fill="#191970" stroke="#191970" points="214.8622,-172.0001 204.8622,-175.5 214.8621,-179.0001 214.8622,-172.0001"/>
</g>
<!-- Node10 -->
<g id="node11" class="node">
<title>Node10</title>
<g id="a_node11"><a xlink:href="classparallel_1_1Triangulation.html" target="_top" xlink:title="Triangulation\&lt; 1, spacedim \&gt;">
<polygon fill="#ffffff" stroke="#000000" points="598.8828,-150.5 598.8828,-168.5 743.4814,-168.5 743.4814,-150.5 598.8828,-150.5"/>
<text text-anchor="middle" x="671.1821" y="-156.5" font-family="Helvetica,sans-Serif" font-size="10.00" fill="#000000">Triangulation&lt; 1, spacedim &gt;</text>
</a>
</g>
</g>
<!-- Node0&#45;&gt;Node10 -->
<g id="edge10" class="edge">
<title>Node0&#45;&gt;Node10</title>
<path fill="none" stroke="#191970" d="M214.6787,-188.4129C298.093,-204.0041 452.5182,-225.0356 580.8828,-198.5 608.4759,-192.796 638.0119,-178.2434 655.5236,-168.6182"/>
<polygon fill="#191970" stroke="#191970" points="215.0977,-184.9298 204.619,-186.4943 213.7862,-191.8059 215.0977,-184.9298"/>
</g>
<!-- Node11 -->
<g id="node12" class="node">
<title>Node11</title>
<g id="a_node12"><a xlink:href="classTriangulation.html" target="_top" xlink:title="Triangulation\&lt; DoFHandler\l\&lt; dim \&gt; ::dimension, DoFHandler\l\&lt; dim \&gt; ::space_dimension \&gt;">
<polygon fill="#ffffff" stroke="#000000" points="414.5288,-104.5 414.5288,-142.5 577.2622,-142.5 577.2622,-104.5 414.5288,-104.5"/>
<text text-anchor="start" x="422.5288" y="-130.5" font-family="Helvetica,sans-Serif" font-size="10.00" fill="#000000">Triangulation&lt; DoFHandler</text>
<text text-anchor="start" x="422.5288" y="-120.5" font-family="Helvetica,sans-Serif" font-size="10.00" fill="#000000">&lt; dim &gt; ::dimension, DoFHandler</text>
<text text-anchor="middle" x="495.8955" y="-110.5" font-family="Helvetica,sans-Serif" font-size="10.00" fill="#000000">&lt; dim &gt; ::space_dimension &gt;</text>
</a>
</g>
</g>
<!-- Node0&#45;&gt;Node11 -->
<g id="edge12" class="edge">
<title>Node0&#45;&gt;Node11</title>
<path fill="none" stroke="#ffa500" stroke-dasharray="5,2" d="M185.607,-156.58C196.878,-150.7132 209.9166,-144.9007 222.5322,-141.5 285.4461,-124.541 359.3116,-120.5783 414.389,-120.5588"/>
<polygon fill="#ffa500" stroke="#ffa500" points="183.7211,-153.6213 176.6032,-161.469 187.0614,-159.7729 183.7211,-153.6213"/>
<text text-anchor="start" x="243.6553" y="-163.5" font-family="Helvetica,sans-Serif" font-size="10.00" fill="#000000"> &lt; DoFHandler&lt; dim &gt;</text>
<text text-anchor="start" x="243.6553" y="-153.5" font-family="Helvetica,sans-Serif" font-size="10.00" fill="#000000"> ::dimension, DoFHandler</text>
<text text-anchor="middle" x="307.7202" y="-143.5" font-family="Helvetica,sans-Serif" font-size="10.00" fill="#000000">&lt; dim &gt; ::space_dimension &gt;</text>
</g>
<!-- Node12 -->
<g id="node13" class="node">
<title>Node12</title>
<g id="a_node13"><a xlink:href="classTriangulation.html" target="_top" xlink:title="Triangulation\&lt; DoFHandler\lType::dimension, DoFHandlerType\l::space_dimension \&gt;">
<polygon fill="#ffffff" stroke="#000000" points="410.9082,-47.5 410.9082,-85.5 580.8828,-85.5 580.8828,-47.5 410.9082,-47.5"/>
<text text-anchor="start" x="418.9082" y="-73.5" font-family="Helvetica,sans-Serif" font-size="10.00" fill="#000000">Triangulation&lt; DoFHandler</text>
<text text-anchor="start" x="418.9082" y="-63.5" font-family="Helvetica,sans-Serif" font-size="10.00" fill="#000000">Type::dimension, DoFHandlerType</text>
<text text-anchor="middle" x="495.8955" y="-53.5" font-family="Helvetica,sans-Serif" font-size="10.00" fill="#000000">::space_dimension &gt;</text>
</a>
</g>
</g>
<!-- Node0&#45;&gt;Node12 -->
<g id="edge13" class="edge">
<title>Node0&#45;&gt;Node12</title>
<path fill="none" stroke="#ffa500" stroke-dasharray="5,2" d="M167.4662,-152.5383C179.4371,-134.3276 198.7331,-109.939 222.5322,-97.5 280.4184,-67.2448 354.465,-60.4673 410.8891,-60.718"/>
<polygon fill="#ffa500" stroke="#ffa500" points="164.2521,-151.0743 161.8888,-161.4022 170.1769,-154.8023 164.2521,-151.0743"/>
<text text-anchor="start" x="222.5322" y="-109.5" font-family="Helvetica,sans-Serif" font-size="10.00" fill="#000000"> &lt; DoFHandlerType::dimension,</text>
<text text-anchor="middle" x="307.7202" y="-99.5" font-family="Helvetica,sans-Serif" font-size="10.00" fill="#000000"> DoFHandlerType::space_dimension &gt;</text>
</g>
<!-- Node13 -->
<g id="node14" class="node">
<title>Node13</title>
<g id="a_node14"><a xlink:href="classTriangulation.html" target="_top" xlink:title="Triangulation\&lt; dim,\l dim \&gt;">
<polygon fill="#ffffff" stroke="#000000" points="445.4175,-.5 445.4175,-28.5 546.3735,-28.5 546.3735,-.5 445.4175,-.5"/>
<text text-anchor="start" x="453.4175" y="-16.5" font-family="Helvetica,sans-Serif" font-size="10.00" fill="#000000">Triangulation&lt; dim,</text>
<text text-anchor="middle" x="495.8955" y="-6.5" font-family="Helvetica,sans-Serif" font-size="10.00" fill="#000000"> dim &gt;</text>
</a>
</g>
</g>
<!-- Node0&#45;&gt;Node13 -->
<g id="edge14" class="edge">
<title>Node0&#45;&gt;Node13</title>
<path fill="none" stroke="#ffa500" stroke-dasharray="5,2" d="M159.6637,-151.5086C167.9704,-121.7892 186.5891,-72.0819 222.5322,-47.5 289.0191,-2.029 386.4118,-2.1197 445.2215,-7.4938"/>
<polygon fill="#ffa500" stroke="#ffa500" points="156.2027,-150.9096 157.0569,-161.4699 162.9746,-152.6818 156.2027,-150.9096"/>
<text text-anchor="middle" x="307.7202" y="-49.5" font-family="Helvetica,sans-Serif" font-size="10.00" fill="#000000"> &lt; dim, dim &gt;</text>
</g>
<!-- Node1 -->
<g id="node2" class="node">
<title>Node1</title>
<g id="a_node2"><a xlink:href="classSubscriptor.html" target="_top" xlink:title="Subscriptor">
<polygon fill="#ffffff" stroke="#000000" points="0,-166.5 0,-184.5 66.5762,-184.5 66.5762,-166.5 0,-166.5"/>
<text text-anchor="middle" x="33.2881" y="-172.5" font-family="Helvetica,sans-Serif" font-size="10.00" fill="#000000">Subscriptor</text>
</a>
</g>
</g>
<!-- Node1&#45;&gt;Node0 -->
<g id="edge1" class="edge">
<title>Node1&#45;&gt;Node0</title>
<path fill="none" stroke="#191970" d="M76.7644,-175.5C85.3345,-175.5 94.3987,-175.5 103.1871,-175.5"/>
<polygon fill="#191970" stroke="#191970" points="76.6077,-172.0001 66.6076,-175.5 76.6076,-179.0001 76.6077,-172.0001"/>
</g>
<!-- Node3 -->
<g id="node4" class="node">
<title>Node3</title>
<g id="a_node4"><a xlink:href="classparallel_1_1distributed_1_1Triangulation.html" target="_top" xlink:title="parallel::distributed\l::Triangulation\&lt; dim,\l spacedim \&gt;">
<polygon fill="#ffffff" stroke="#000000" points="781.9136,-266.5 781.9136,-304.5 888.4263,-304.5 888.4263,-266.5 781.9136,-266.5"/>
<text text-anchor="start" x="789.9136" y="-292.5" font-family="Helvetica,sans-Serif" font-size="10.00" fill="#000000">parallel::distributed</text>
<text text-anchor="start" x="789.9136" y="-282.5" font-family="Helvetica,sans-Serif" font-size="10.00" fill="#000000">::Triangulation&lt; dim,</text>
<text text-anchor="middle" x="835.1699" y="-272.5" font-family="Helvetica,sans-Serif" font-size="10.00" fill="#000000"> spacedim &gt;</text>
</a>
</g>
</g>
<!-- Node2&#45;&gt;Node3 -->
<g id="edge3" class="edge">
<title>Node2&#45;&gt;Node3</title>
<path fill="none" stroke="#191970" d="M561.9639,-265.8987C611.8432,-269.253 681.9718,-274.0404 743.4814,-278.5 755.9011,-279.4005 769.2644,-280.4021 781.8433,-281.3595"/>
<polygon fill="#191970" stroke="#191970" points="562.1646,-262.4044 551.9526,-265.2264 561.6956,-269.3887 562.1646,-262.4044"/>
</g>
<!-- Node5 -->
<g id="node6" class="node">
<title>Node5</title>
<g id="a_node6"><a xlink:href="classparallel_1_1shared_1_1Triangulation.html" target="_top" xlink:title="parallel::shared::Triangulation\l\&lt; dim, spacedim \&gt;">
<polygon fill="#ffffff" stroke="#000000" points="761.4814,-219.5 761.4814,-247.5 908.8584,-247.5 908.8584,-219.5 761.4814,-219.5"/>
<text text-anchor="start" x="769.4814" y="-235.5" font-family="Helvetica,sans-Serif" font-size="10.00" fill="#000000">parallel::shared::Triangulation</text>
<text text-anchor="middle" x="835.1699" y="-225.5" font-family="Helvetica,sans-Serif" font-size="10.00" fill="#000000">&lt; dim, spacedim &gt;</text>
</a>
</g>
</g>
<!-- Node2&#45;&gt;Node5 -->
<g id="edge5" class="edge">
<title>Node2&#45;&gt;Node5</title>
<path fill="none" stroke="#191970" d="M561.5663,-256.0803C618.8343,-251.354 701.8332,-244.5042 761.3797,-239.5898"/>
<polygon fill="#191970" stroke="#191970" points="561.2181,-252.597 551.5399,-256.9077 561.7939,-259.5733 561.2181,-252.597"/>
</g>
<!-- Node2&#45;&gt;Node6 -->
<g id="edge6" class="edge">
<title>Node2&#45;&gt;Node6</title>
<path fill="none" stroke="#191970" d="M561.7689,-272.8001C611.8302,-281.743 682.2781,-295.0908 743.4814,-309.5 751.5634,-311.4028 753.4476,-312.4035 761.4814,-314.5 773.0772,-317.526 785.7402,-320.6751 797.2465,-323.4775"/>
<polygon fill="#191970" stroke="#191970" points="562.1802,-269.3185 551.7222,-271.0156 560.9559,-276.2106 562.1802,-269.3185"/>
</g>
<!-- Node7 -->
<g id="node8" class="node">
<title>Node7</title>
<g id="a_node8"><a xlink:href="classparallel_1_1Triangulation.html" target="_top" xlink:title="parallel::Triangulation\l\&lt; 1, spacedim \&gt;">
<polygon fill="#ffffff" stroke="#000000" points="779.5479,-172.5 779.5479,-200.5 890.792,-200.5 890.792,-172.5 779.5479,-172.5"/>
<text text-anchor="start" x="787.5479" y="-188.5" font-family="Helvetica,sans-Serif" font-size="10.00" fill="#000000">parallel::Triangulation</text>
<text text-anchor="middle" x="835.1699" y="-178.5" font-family="Helvetica,sans-Serif" font-size="10.00" fill="#000000">&lt; 1, spacedim &gt;</text>
</a>
</g>
</g>
<!-- Node2&#45;&gt;Node7 -->
<g id="edge7" class="edge">
<title>Node2&#45;&gt;Node7</title>
<path fill="none" stroke="#ffa500" stroke-dasharray="5,2" d="M546.2194,-244.1196C566.928,-237.1284 588.476,-230.1057 598.8828,-227.5 659.8691,-212.23 731.1186,-200.7093 779.3059,-193.8276"/>
<polygon fill="#ffa500" stroke="#ffa500" points="544.8359,-240.893 536.4912,-247.4211 547.0856,-247.5216 544.8359,-240.893"/>
<text text-anchor="middle" x="671.1821" y="-229.5" font-family="Helvetica,sans-Serif" font-size="10.00" fill="#000000"> &lt; 1, spacedim &gt;</text>
</g>
<!-- Node4 -->
<g id="node5" class="node">
<title>Node4</title>
<g id="a_node5"><a xlink:href="classparallel_1_1distributed_1_1Triangulation.html" target="_top" xlink:title="parallel::distributed\l::Triangulation\&lt; dim \&gt;">
<polygon fill="#ffffff" stroke="#000000" points="999.8877,-271.5 999.8877,-299.5 1112.2402,-299.5 1112.2402,-271.5 999.8877,-271.5"/>
<text text-anchor="start" x="1007.8877" y="-287.5" font-family="Helvetica,sans-Serif" font-size="10.00" fill="#000000">parallel::distributed</text>
<text text-anchor="middle" x="1056.064" y="-277.5" font-family="Helvetica,sans-Serif" font-size="10.00" fill="#000000">::Triangulation&lt; dim &gt;</text>
</a>
</g>
</g>
<!-- Node3&#45;&gt;Node4 -->
<g id="edge4" class="edge">
<title>Node3&#45;&gt;Node4</title>
<path fill="none" stroke="#ffa500" stroke-dasharray="5,2" d="M898.7397,-285.5C930.5848,-285.5 968.8138,-285.5 999.6128,-285.5"/>
<polygon fill="#ffa500" stroke="#ffa500" points="898.6422,-282.0001 888.6422,-285.5 898.6422,-289.0001 898.6422,-282.0001"/>
<text text-anchor="middle" x="944.9224" y="-287.5" font-family="Helvetica,sans-Serif" font-size="10.00" fill="#000000"> &lt; dim &gt;</text>
</g>
<!-- Node8 -->
<g id="node9" class="node">
<title>Node8</title>
<g id="a_node9"><a xlink:href="classparallel_1_1distributed_1_1Triangulation_3_011_00_01spacedim_01_4.html" target="_top" xlink:title="parallel::distributed\l::Triangulation\&lt; 1, spacedim \&gt;">
<polygon fill="#ffffff" stroke="#000000" points="980.9863,-146.5 980.9863,-174.5 1131.1416,-174.5 1131.1416,-146.5 980.9863,-146.5"/>
<text text-anchor="start" x="988.9863" y="-162.5" font-family="Helvetica,sans-Serif" font-size="10.00" fill="#000000">parallel::distributed</text>
<text text-anchor="middle" x="1056.064" y="-152.5" font-family="Helvetica,sans-Serif" font-size="10.00" fill="#000000">::Triangulation&lt; 1, spacedim &gt;</text>
</a>
</g>
</g>
<!-- Node7&#45;&gt;Node8 -->
<g id="edge8" class="edge">
<title>Node7&#45;&gt;Node8</title>
<path fill="none" stroke="#191970" d="M901.0443,-178.7463C926.1094,-175.7961 954.8547,-172.4127 980.7301,-169.3671"/>
<polygon fill="#191970" stroke="#191970" points="900.4331,-175.294 890.9108,-179.9391 901.2514,-182.2461 900.4331,-175.294"/>
</g>
<!-- Node10&#45;&gt;Node8 -->
<g id="edge11" class="edge">
<title>Node10&#45;&gt;Node8</title>
<path fill="none" stroke="#191970" d="M753.7243,-159.7145C821.0595,-159.8894 915.3967,-160.1345 980.7086,-160.3042"/>
<polygon fill="#191970" stroke="#191970" points="753.5846,-156.2142 743.5755,-159.6881 753.5663,-163.2142 753.5846,-156.2142"/>
</g>
</g>
</svg>
