<?xml version="1.0" encoding="UTF-8" standalone="no"?>
<!DOCTYPE svg PUBLIC "-//W3C//DTD SVG 1.1//EN"
 "http://www.w3.org/Graphics/SVG/1.1/DTD/svg11.dtd">
<!-- Generated by graphviz version 2.40.1 (20161225.0304)
 -->
<!-- Title: MGTransferBlockBase Pages: 1 -->
<svg width="292pt" height="92pt"
 viewBox="0.00 0.00 291.89 92.00" xmlns="http://www.w3.org/2000/svg" xmlns:xlink="http://www.w3.org/1999/xlink">
<g id="graph0" class="graph" transform="scale(1 1) rotate(0) translate(4 88)">
<title>MGTransferBlockBase</title>
<polygon fill="#ffffff" stroke="transparent" points="-4,4 -4,-88 287.8945,-88 287.8945,4 -4,4"/>
<!-- Node0 -->
<g id="node1" class="node">
<title>Node0</title>
<polygon fill="#bfbfbf" stroke="#000000" points="89.1748,-65.5 89.1748,-83.5 205.3945,-83.5 205.3945,-65.5 89.1748,-65.5"/>
<text text-anchor="middle" x="147.2847" y="-71.5" font-family="Helvetica,sans-Serif" font-size="10.00" fill="#000000">MGTransferBlockBase</text>
</g>
<!-- Node1 -->
<g id="node2" class="node">
<title>Node1</title>
<g id="a_node2"><a xlink:href="classMGTransferBlock.html" target="_top" xlink:title="MGTransferBlock\&lt; number \&gt;">
<polygon fill="#ffffff" stroke="#000000" points="0,-5.5 0,-23.5 144.5693,-23.5 144.5693,-5.5 0,-5.5"/>
<text text-anchor="middle" x="72.2847" y="-11.5" font-family="Helvetica,sans-Serif" font-size="10.00" fill="#000000">MGTransferBlock&lt; number &gt;</text>
</a>
</g>
</g>
<!-- Node0&#45;&gt;Node1 -->
<g id="edge1" class="edge">
<title>Node0&#45;&gt;Node1</title>
<path fill="none" stroke="#8b1a1a" d="M127.8582,-58.9588C113.8796,-47.7759 95.4974,-33.0702 83.7828,-23.6985"/>
<polygon fill="#8b1a1a" stroke="#8b1a1a" points="125.8986,-61.8734 135.8938,-65.3873 130.2715,-56.4073 125.8986,-61.8734"/>
</g>
<!-- Node2 -->
<g id="node3" class="node">
<title>Node2</title>
<g id="a_node3"><a xlink:href="classMGTransferBlockSelect.html" target="_top" xlink:title="MGTransferBlockSelect\l\&lt; number \&gt;">
<polygon fill="#ffffff" stroke="#000000" points="162.6748,-.5 162.6748,-28.5 283.8945,-28.5 283.8945,-.5 162.6748,-.5"/>
<text text-anchor="start" x="170.6748" y="-16.5" font-family="Helvetica,sans-Serif" font-size="10.00" fill="#000000">MGTransferBlockSelect</text>
<text text-anchor="middle" x="223.2847" y="-6.5" font-family="Helvetica,sans-Serif" font-size="10.00" fill="#000000">&lt; number &gt;</text>
</a>
</g>
</g>
<!-- Node0&#45;&gt;Node2 -->
<g id="edge2" class="edge">
<title>Node0&#45;&gt;Node2</title>
<path fill="none" stroke="#8b1a1a" d="M166.8328,-59.0673C178.7319,-49.6732 193.8186,-37.7627 205.4015,-28.6183"/>
<polygon fill="#8b1a1a" stroke="#8b1a1a" points="164.5075,-56.4437 158.8274,-65.3873 168.845,-61.9379 164.5075,-56.4437"/>
</g>
</g>
</svg>
