<?xml version="1.0" encoding="UTF-8" standalone="no"?>
<!DOCTYPE svg PUBLIC "-//W3C//DTD SVG 1.1//EN"
 "http://www.w3.org/Graphics/SVG/1.1/DTD/svg11.dtd">
<!-- Generated by graphviz version 2.40.1 (20161225.0304)
 -->
<!-- Title: PETScWrappers::VectorBase Pages: 1 -->
<svg width="264pt" height="147pt"
 viewBox="0.00 0.00 263.91 147.00" xmlns="http://www.w3.org/2000/svg" xmlns:xlink="http://www.w3.org/1999/xlink">
<g id="graph0" class="graph" transform="scale(1 1) rotate(0) translate(4 143)">
<title>PETScWrappers::VectorBase</title>
<polygon fill="#ffffff" stroke="transparent" points="-4,4 -4,-143 259.9102,-143 259.9102,4 -4,4"/>
<!-- Node0 -->
<g id="node1" class="node">
<title>Node0</title>
<polygon fill="#bfbfbf" stroke="#000000" points="51.3154,-65.5 51.3154,-83.5 198.3066,-83.5 198.3066,-65.5 51.3154,-65.5"/>
<text text-anchor="middle" x="124.811" y="-71.5" font-family="Helvetica,sans-Serif" font-size="10.00" fill="#000000">PETScWrappers::VectorBase</text>
</g>
<!-- Node2 -->
<g id="node3" class="node">
<title>Node2</title>
<g id="a_node3"><a xlink:href="classPETScWrappers_1_1MPI_1_1Vector.html" target="_top" xlink:title="PETScWrappers::MPI\l::Vector">
<polygon fill="#ffffff" stroke="#000000" points="0,-.5 0,-28.5 113.6221,-28.5 113.6221,-.5 0,-.5"/>
<text text-anchor="start" x="8" y="-16.5" font-family="Helvetica,sans-Serif" font-size="10.00" fill="#000000">PETScWrappers::MPI</text>
<text text-anchor="middle" x="56.811" y="-6.5" font-family="Helvetica,sans-Serif" font-size="10.00" fill="#000000">::Vector</text>
</a>
</g>
</g>
<!-- Node0&#45;&gt;Node2 -->
<g id="edge2" class="edge">
<title>Node0&#45;&gt;Node2</title>
<path fill="none" stroke="#191970" d="M106.6972,-58.5172C96.151,-49.2117 82.9742,-37.5851 72.8118,-28.6183"/>
<polygon fill="#191970" stroke="#191970" points="104.6692,-61.3955 114.4833,-65.3873 109.3006,-56.1466 104.6692,-61.3955"/>
</g>
<!-- Node3 -->
<g id="node4" class="node">
<title>Node3</title>
<g id="a_node4"><a xlink:href="classPETScWrappers_1_1Vector.html" target="_top" xlink:title="PETScWrappers::Vector">
<polygon fill="#ffffff" stroke="#000000" points="131.7119,-5.5 131.7119,-23.5 255.9102,-23.5 255.9102,-5.5 131.7119,-5.5"/>
<text text-anchor="middle" x="193.811" y="-11.5" font-family="Helvetica,sans-Serif" font-size="10.00" fill="#000000">PETScWrappers::Vector</text>
</a>
</g>
</g>
<!-- Node0&#45;&gt;Node3 -->
<g id="edge3" class="edge">
<title>Node0&#45;&gt;Node3</title>
<path fill="none" stroke="#191970" d="M143.0484,-58.6414C155.8622,-47.4989 172.557,-32.9817 183.2328,-23.6985"/>
<polygon fill="#191970" stroke="#191970" points="140.5401,-56.1843 135.2907,-65.3873 145.1334,-61.4666 140.5401,-56.1843"/>
</g>
<!-- Node1 -->
<g id="node2" class="node">
<title>Node1</title>
<g id="a_node2"><a xlink:href="classSubscriptor.html" target="_top" xlink:title="Subscriptor">
<polygon fill="#ffffff" stroke="#000000" points="91.5229,-120.5 91.5229,-138.5 158.0991,-138.5 158.0991,-120.5 91.5229,-120.5"/>
<text text-anchor="middle" x="124.811" y="-126.5" font-family="Helvetica,sans-Serif" font-size="10.00" fill="#000000">Subscriptor</text>
</a>
</g>
</g>
<!-- Node1&#45;&gt;Node0 -->
<g id="edge1" class="edge">
<title>Node1&#45;&gt;Node0</title>
<path fill="none" stroke="#191970" d="M124.811,-110.383C124.811,-101.3738 124.811,-91.0373 124.811,-83.7795"/>
<polygon fill="#191970" stroke="#191970" points="121.3111,-110.4178 124.811,-120.4179 128.3111,-110.4179 121.3111,-110.4178"/>
</g>
</g>
</svg>
