<?xml version="1.0" encoding="UTF-8" standalone="no"?>
<!DOCTYPE svg PUBLIC "-//W3C//DTD SVG 1.1//EN"
 "http://www.w3.org/Graphics/SVG/1.1/DTD/svg11.dtd">
<!-- Generated by graphviz version 2.40.1 (20161225.0304)
 -->
<!-- Title: hp::QCollection&lt; dim &gt; Pages: 1 -->
<svg width="252pt" height="158pt"
 viewBox="0.00 0.00 251.58 158.00" xmlns="http://www.w3.org/2000/svg" xmlns:xlink="http://www.w3.org/1999/xlink">
<g id="graph0" class="graph" transform="scale(1 1) rotate(0) translate(4 154)">
<title>hp::QCollection&lt; dim &gt;</title>
<polygon fill="#ffffff" stroke="transparent" points="-4,4 -4,-154 247.5796,-154 247.5796,4 -4,4"/>
<!-- Node0 -->
<g id="node1" class="node">
<title>Node0</title>
<polygon fill="#bfbfbf" stroke="#000000" points="55.415,-75.5 55.415,-93.5 173.1338,-93.5 173.1338,-75.5 55.415,-75.5"/>
<text text-anchor="middle" x="114.2744" y="-81.5" font-family="Helvetica,sans-Serif" font-size="10.00" fill="#000000">hp::QCollection&lt; dim &gt;</text>
</g>
<!-- Node2 -->
<g id="node3" class="node">
<title>Node2</title>
<g id="a_node3"><a xlink:href="classhp_1_1QCollection.html" target="_top" xlink:title="hp::QCollection\&lt; q\l_dim \&gt;">
<polygon fill="#ffffff" stroke="#000000" points="0,-.5 0,-28.5 98.5488,-28.5 98.5488,-.5 0,-.5"/>
<text text-anchor="start" x="8" y="-16.5" font-family="Helvetica,sans-Serif" font-size="10.00" fill="#000000">hp::QCollection&lt; q</text>
<text text-anchor="middle" x="49.2744" y="-6.5" font-family="Helvetica,sans-Serif" font-size="10.00" fill="#000000">_dim &gt;</text>
</a>
</g>
</g>
<!-- Node0&#45;&gt;Node2 -->
<g id="edge2" class="edge">
<title>Node0&#45;&gt;Node2</title>
<path fill="none" stroke="#ffa500" stroke-dasharray="5,2" d="M98.8033,-67.8388C87.7448,-55.9296 73.0204,-40.0726 62.5065,-28.7499"/>
<polygon fill="#ffa500" stroke="#ffa500" points="96.4075,-70.4024 105.7768,-75.3487 101.537,-65.6392 96.4075,-70.4024"/>
<text text-anchor="middle" x="111.8999" y="-49" font-family="Helvetica,sans-Serif" font-size="10.00" fill="#000000"> &lt; q_dim &gt;</text>
</g>
<!-- Node3 -->
<g id="node4" class="node">
<title>Node3</title>
<g id="a_node4"><a xlink:href="classhp_1_1QCollection.html" target="_top" xlink:title="hp::QCollection\&lt; dim&#45;1 \&gt;">
<polygon fill="#ffffff" stroke="#000000" points="116.9692,-5.5 116.9692,-23.5 243.5796,-23.5 243.5796,-5.5 116.9692,-5.5"/>
<text text-anchor="middle" x="180.2744" y="-11.5" font-family="Helvetica,sans-Serif" font-size="10.00" fill="#000000">hp::QCollection&lt; dim&#45;1 &gt;</text>
</a>
</g>
</g>
<!-- Node0&#45;&gt;Node3 -->
<g id="edge3" class="edge">
<title>Node0&#45;&gt;Node3</title>
<path fill="none" stroke="#ffa500" stroke-dasharray="5,2" d="M129.8622,-67.9675C142.8277,-54.2163 160.8185,-35.1351 171.4333,-23.8769"/>
<polygon fill="#ffa500" stroke="#ffa500" points="127.2163,-65.6717 122.9028,-75.3487 132.3095,-70.4739 127.2163,-65.6717"/>
<text text-anchor="middle" x="171.7842" y="-49" font-family="Helvetica,sans-Serif" font-size="10.00" fill="#000000"> &lt; dim&#45;1 &gt;</text>
</g>
<!-- Node1 -->
<g id="node2" class="node">
<title>Node1</title>
<g id="a_node2"><a xlink:href="classSubscriptor.html" target="_top" xlink:title="Subscriptor">
<polygon fill="#ffffff" stroke="#000000" points="80.9863,-131.5 80.9863,-149.5 147.5625,-149.5 147.5625,-131.5 80.9863,-131.5"/>
<text text-anchor="middle" x="114.2744" y="-137.5" font-family="Helvetica,sans-Serif" font-size="10.00" fill="#000000">Subscriptor</text>
</a>
</g>
</g>
<!-- Node1&#45;&gt;Node0 -->
<g id="edge1" class="edge">
<title>Node1&#45;&gt;Node0</title>
<path fill="none" stroke="#191970" d="M114.2744,-121.2065C114.2744,-111.8384 114.2744,-101.0262 114.2744,-93.5752"/>
<polygon fill="#191970" stroke="#191970" points="110.7745,-121.2527 114.2744,-131.2527 117.7745,-121.2528 110.7745,-121.2527"/>
</g>
</g>
</svg>
