<?xml version="1.0" encoding="UTF-8" standalone="no"?>
<!DOCTYPE svg PUBLIC "-//W3C//DTD SVG 1.1//EN"
 "http://www.w3.org/Graphics/SVG/1.1/DTD/svg11.dtd">
<!-- Generated by graphviz version 2.40.1 (20161225.0304)
 -->
<!-- Title: hp::FEFaceValues&lt; dim, spacedim &gt; Pages: 1 -->
<svg width="215pt" height="198pt"
 viewBox="0.00 0.00 215.26 198.00" xmlns="http://www.w3.org/2000/svg" xmlns:xlink="http://www.w3.org/1999/xlink">
<g id="graph0" class="graph" transform="scale(1 1) rotate(0) translate(4 194)">
<title>hp::FEFaceValues&lt; dim, spacedim &gt;</title>
<polygon fill="#ffffff" stroke="transparent" points="-4,4 -4,-194 211.2554,-194 211.2554,4 -4,4"/>
<!-- Node0 -->
<g id="node1" class="node">
<title>Node0</title>
<polygon fill="#bfbfbf" stroke="#000000" points="13.4814,-.5 13.4814,-28.5 138.5195,-28.5 138.5195,-.5 13.4814,-.5"/>
<text text-anchor="start" x="21.4814" y="-16.5" font-family="Helvetica,sans-Serif" font-size="10.00" fill="#000000">hp::FEFaceValues&lt; dim,</text>
<text text-anchor="middle" x="76.0005" y="-6.5" font-family="Helvetica,sans-Serif" font-size="10.00" fill="#000000"> spacedim &gt;</text>
</g>
<!-- Node1 -->
<g id="node2" class="node">
<title>Node1</title>
<g id="a_node2"><a xlink:href="classinternal_1_1hp_1_1FEValuesBase.html" target="_top" xlink:title="internal::hp::FEValuesBase\l\&lt; dim, dim&#45;1,::FEFaceValues\l\&lt; dim, spacedim \&gt; \&gt;">
<polygon fill="#ffffff" stroke="#000000" points="3.7622,-66.5 3.7622,-104.5 148.2388,-104.5 148.2388,-66.5 3.7622,-66.5"/>
<text text-anchor="start" x="11.7622" y="-92.5" font-family="Helvetica,sans-Serif" font-size="10.00" fill="#000000">internal::hp::FEValuesBase</text>
<text text-anchor="start" x="11.7622" y="-82.5" font-family="Helvetica,sans-Serif" font-size="10.00" fill="#000000">&lt; dim, dim&#45;1,::FEFaceValues</text>
<text text-anchor="middle" x="76.0005" y="-72.5" font-family="Helvetica,sans-Serif" font-size="10.00" fill="#000000">&lt; dim, spacedim &gt; &gt;</text>
</a>
</g>
</g>
<!-- Node1&#45;&gt;Node0 -->
<g id="edge1" class="edge">
<title>Node1&#45;&gt;Node0</title>
<path fill="none" stroke="#191970" d="M76.0005,-56.2143C76.0005,-46.768 76.0005,-36.7158 76.0005,-28.8465"/>
<polygon fill="#191970" stroke="#191970" points="72.5006,-56.4733 76.0005,-66.4733 79.5006,-56.4733 72.5006,-56.4733"/>
</g>
<!-- Node2 -->
<g id="node3" class="node">
<title>Node2</title>
<g id="a_node3"><a xlink:href="classinternal_1_1hp_1_1FEValuesBase.html" target="_top" xlink:title="internal::hp::FEValuesBase\l\&lt; dim, q_dim, FEValuesType \&gt;">
<polygon fill="#ffffff" stroke="#000000" points="0,-161.5 0,-189.5 152.001,-189.5 152.001,-161.5 0,-161.5"/>
<text text-anchor="start" x="8" y="-177.5" font-family="Helvetica,sans-Serif" font-size="10.00" fill="#000000">internal::hp::FEValuesBase</text>
<text text-anchor="middle" x="76.0005" y="-167.5" font-family="Helvetica,sans-Serif" font-size="10.00" fill="#000000">&lt; dim, q_dim, FEValuesType &gt;</text>
</a>
</g>
</g>
<!-- Node2&#45;&gt;Node1 -->
<g id="edge2" class="edge">
<title>Node2&#45;&gt;Node1</title>
<path fill="none" stroke="#ffa500" stroke-dasharray="5,2" d="M76.0005,-151.1632C76.0005,-136.6073 76.0005,-118.367 76.0005,-104.8073"/>
<polygon fill="#ffa500" stroke="#ffa500" points="72.5006,-151.4375 76.0005,-161.4375 79.5006,-151.4375 72.5006,-151.4375"/>
<text text-anchor="start" x="76.0005" y="-135" font-family="Helvetica,sans-Serif" font-size="10.00" fill="#000000"> &lt; dim, dim&#45;1,::FEFaceValues</text>
<text text-anchor="middle" x="141.6279" y="-125" font-family="Helvetica,sans-Serif" font-size="10.00" fill="#000000">&lt; dim, spacedim &gt; &gt;</text>
</g>
</g>
</svg>
