<?xml version="1.0" encoding="UTF-8" standalone="no"?>
<!DOCTYPE svg PUBLIC "-//W3C//DTD SVG 1.1//EN"
 "http://www.w3.org/Graphics/SVG/1.1/DTD/svg11.dtd">
<!-- Generated by graphviz version 2.40.1 (20161225.0304)
 -->
<!-- Title: DataOutRotation&lt; dim, DoFHandlerType &gt; Pages: 1 -->
<svg width="1252pt" height="80pt"
 viewBox="0.00 0.00 1252.07 80.00" xmlns="http://www.w3.org/2000/svg" xmlns:xlink="http://www.w3.org/1999/xlink">
<g id="graph0" class="graph" transform="scale(1 1) rotate(0) translate(4 76)">
<title>DataOutRotation&lt; dim, DoFHandlerType &gt;</title>
<polygon fill="#ffffff" stroke="transparent" points="-4,4 -4,-76 1248.0713,-76 1248.0713,4 -4,4"/>
<!-- Node0 -->
<g id="node1" class="node">
<title>Node0</title>
<polygon fill="#bfbfbf" stroke="#000000" points="1126.0742,-23.5 1126.0742,-51.5 1244.0713,-51.5 1244.0713,-23.5 1126.0742,-23.5"/>
<text text-anchor="start" x="1134.0742" y="-39.5" font-family="Helvetica,sans-Serif" font-size="10.00" fill="#000000">DataOutRotation&lt; dim,</text>
<text text-anchor="middle" x="1185.0728" y="-29.5" font-family="Helvetica,sans-Serif" font-size="10.00" fill="#000000"> DoFHandlerType &gt;</text>
</g>
<!-- Node1 -->
<g id="node2" class="node">
<title>Node1</title>
<g id="a_node2"><a xlink:href="classDataOut__DoFData.html" target="_top" xlink:title="DataOut_DoFData\&lt; DoFHandler\lType, DoFHandlerType::dimension+1 \&gt;">
<polygon fill="#ffffff" stroke="#000000" points="899.0801,-23.5 899.0801,-51.5 1089.0742,-51.5 1089.0742,-23.5 899.0801,-23.5"/>
<text text-anchor="start" x="907.0801" y="-39.5" font-family="Helvetica,sans-Serif" font-size="10.00" fill="#000000">DataOut_DoFData&lt; DoFHandler</text>
<text text-anchor="middle" x="994.0771" y="-29.5" font-family="Helvetica,sans-Serif" font-size="10.00" fill="#000000">Type, DoFHandlerType::dimension+1 &gt;</text>
</a>
</g>
</g>
<!-- Node1&#45;&gt;Node0 -->
<g id="edge1" class="edge">
<title>Node1&#45;&gt;Node0</title>
<path fill="none" stroke="#191970" d="M1099.5503,-37.5C1108.6034,-37.5 1117.5357,-37.5 1126.0168,-37.5"/>
<polygon fill="#191970" stroke="#191970" points="1099.2952,-34.0001 1089.2952,-37.5 1099.2951,-41.0001 1099.2952,-34.0001"/>
</g>
<!-- Node2 -->
<g id="node3" class="node">
<title>Node2</title>
<g id="a_node3"><a xlink:href="classDataOutInterface.html" target="_top" xlink:title="DataOutInterface\&lt; patch\l_dim, patch_dim \&gt;">
<polygon fill="#ffffff" stroke="#000000" points="391.4492,-43.5 391.4492,-71.5 516.6826,-71.5 516.6826,-43.5 391.4492,-43.5"/>
<text text-anchor="start" x="399.4492" y="-59.5" font-family="Helvetica,sans-Serif" font-size="10.00" fill="#000000">DataOutInterface&lt; patch</text>
<text text-anchor="middle" x="454.0659" y="-49.5" font-family="Helvetica,sans-Serif" font-size="10.00" fill="#000000">_dim, patch_dim &gt;</text>
</a>
</g>
</g>
<!-- Node2&#45;&gt;Node1 -->
<g id="edge2" class="edge">
<title>Node2&#45;&gt;Node1</title>
<path fill="none" stroke="#191970" d="M527.0966,-55.5561C612.1341,-53.188 756.8166,-48.8356 881.0801,-43.5 886.8701,-43.2514 892.8261,-42.9804 898.8331,-42.6955"/>
<polygon fill="#191970" stroke="#191970" points="526.9264,-52.0593 517.0272,-55.8349 527.1203,-59.0566 526.9264,-52.0593"/>
</g>
<!-- Node3 -->
<g id="node4" class="node">
<title>Node3</title>
<g id="a_node4"><a xlink:href="classDataOutInterface.html" target="_top" xlink:title="DataOutInterface\&lt; dim,\l spacedim \&gt;">
<polygon fill="#ffffff" stroke="#000000" points="0,-21.5 0,-49.5 119.6621,-49.5 119.6621,-21.5 0,-21.5"/>
<text text-anchor="start" x="8" y="-37.5" font-family="Helvetica,sans-Serif" font-size="10.00" fill="#000000">DataOutInterface&lt; dim,</text>
<text text-anchor="middle" x="59.8311" y="-27.5" font-family="Helvetica,sans-Serif" font-size="10.00" fill="#000000"> spacedim &gt;</text>
</a>
</g>
</g>
<!-- Node3&#45;&gt;Node2 -->
<g id="edge3" class="edge">
<title>Node3&#45;&gt;Node2</title>
<path fill="none" stroke="#ffa500" stroke-dasharray="5,2" d="M129.8868,-39.4094C204.0633,-43.5488 320.0733,-50.0226 391.3412,-53.9997"/>
<polygon fill="#ffa500" stroke="#ffa500" points="129.8864,-35.904 119.7068,-38.8413 129.4963,-42.8932 129.8864,-35.904"/>
<text text-anchor="start" x="137.6621" y="-57.5" font-family="Helvetica,sans-Serif" font-size="10.00" fill="#000000"> &lt; patch_dim, patch</text>
<text text-anchor="middle" x="181.439" y="-47.5" font-family="Helvetica,sans-Serif" font-size="10.00" fill="#000000">_dim &gt;</text>
</g>
<!-- Node5 -->
<g id="node6" class="node">
<title>Node5</title>
<g id="a_node6"><a xlink:href="classDataOutInterface.html" target="_top" xlink:title="DataOutInterface\&lt; patch\l_dim, patch_space_dim \&gt;">
<polygon fill="#ffffff" stroke="#000000" points="243.2158,-.5 243.2158,-28.5 373.4492,-28.5 373.4492,-.5 243.2158,-.5"/>
<text text-anchor="start" x="251.2158" y="-16.5" font-family="Helvetica,sans-Serif" font-size="10.00" fill="#000000">DataOutInterface&lt; patch</text>
<text text-anchor="middle" x="308.3325" y="-6.5" font-family="Helvetica,sans-Serif" font-size="10.00" fill="#000000">_dim, patch_space_dim &gt;</text>
</a>
</g>
</g>
<!-- Node3&#45;&gt;Node5 -->
<g id="edge6" class="edge">
<title>Node3&#45;&gt;Node5</title>
<path fill="none" stroke="#ffa500" stroke-dasharray="5,2" d="M116.8814,-19.1428C123.8333,-17.654 130.876,-16.3782 137.6621,-15.5 172.1904,-11.0318 210.9773,-10.4546 242.8397,-11.1379"/>
<polygon fill="#ffa500" stroke="#ffa500" points="115.7657,-15.8077 106.8015,-21.4551 117.3309,-22.6305 115.7657,-15.8077"/>
<text text-anchor="start" x="137.6621" y="-27.5" font-family="Helvetica,sans-Serif" font-size="10.00" fill="#000000"> &lt; patch_dim, patch</text>
<text text-anchor="middle" x="181.439" y="-17.5" font-family="Helvetica,sans-Serif" font-size="10.00" fill="#000000">_space_dim &gt;</text>
</g>
<!-- Node4 -->
<g id="node5" class="node">
<title>Node4</title>
<g id="a_node5"><a xlink:href="classDataOut__DoFData.html" target="_top" xlink:title="DataOut_DoFData\&lt; DoFHandler\lType, patch_dim, patch_space_dim \&gt;">
<polygon fill="#ffffff" stroke="#000000" points="534.6826,-.5 534.6826,-28.5 716.6201,-28.5 716.6201,-.5 534.6826,-.5"/>
<text text-anchor="start" x="542.6826" y="-16.5" font-family="Helvetica,sans-Serif" font-size="10.00" fill="#000000">DataOut_DoFData&lt; DoFHandler</text>
<text text-anchor="middle" x="625.6514" y="-6.5" font-family="Helvetica,sans-Serif" font-size="10.00" fill="#000000">Type, patch_dim, patch_space_dim &gt;</text>
</a>
</g>
</g>
<!-- Node4&#45;&gt;Node1 -->
<g id="edge4" class="edge">
<title>Node4&#45;&gt;Node1</title>
<path fill="none" stroke="#ffa500" stroke-dasharray="5,2" d="M726.9621,-16.02C773.9028,-17.2499 830.3921,-19.4748 881.0801,-23.5 886.8932,-23.9616 892.8671,-24.5028 898.8874,-25.099"/>
<polygon fill="#ffa500" stroke="#ffa500" points="726.8742,-12.5168 716.7896,-15.765 726.6987,-19.5146 726.8742,-12.5168"/>
<text text-anchor="start" x="734.6201" y="-35.5" font-family="Helvetica,sans-Serif" font-size="10.00" fill="#000000"> &lt; DoFHandlerType, DoFHandler</text>
<text text-anchor="middle" x="807.8501" y="-25.5" font-family="Helvetica,sans-Serif" font-size="10.00" fill="#000000">Type::dimension+1 &gt;</text>
</g>
<!-- Node5&#45;&gt;Node4 -->
<g id="edge5" class="edge">
<title>Node5&#45;&gt;Node4</title>
<path fill="none" stroke="#191970" d="M383.7291,-14.5C428.9423,-14.5 486.7431,-14.5 534.508,-14.5"/>
<polygon fill="#191970" stroke="#191970" points="383.6965,-11.0001 373.6964,-14.5 383.6964,-18.0001 383.6965,-11.0001"/>
</g>
</g>
</svg>
