<?xml version="1.0" encoding="UTF-8" standalone="no"?>
<!DOCTYPE svg PUBLIC "-//W3C//DTD SVG 1.1//EN"
 "http://www.w3.org/Graphics/SVG/1.1/DTD/svg11.dtd">
<!-- Generated by graphviz version 2.40.1 (20161225.0304)
 -->
<!-- Title: MappingC1&lt; dim, spacedim &gt;::MappingC1Generic Pages: 1 -->
<svg width="148pt" height="212pt"
 viewBox="0.00 0.00 148.23 212.00" xmlns="http://www.w3.org/2000/svg" xmlns:xlink="http://www.w3.org/1999/xlink">
<g id="graph0" class="graph" transform="scale(1 1) rotate(0) translate(4 208)">
<title>MappingC1&lt; dim, spacedim &gt;::MappingC1Generic</title>
<polygon fill="#ffffff" stroke="transparent" points="-4,4 -4,-208 144.2285,-208 144.2285,4 -4,4"/>
<!-- Node0 -->
<g id="node1" class="node">
<title>Node0</title>
<polygon fill="#bfbfbf" stroke="#000000" points="0,-.5 0,-28.5 140.2285,-28.5 140.2285,-.5 0,-.5"/>
<text text-anchor="start" x="8" y="-16.5" font-family="Helvetica,sans-Serif" font-size="10.00" fill="#000000">MappingC1&lt; dim, spacedim</text>
<text text-anchor="middle" x="70.1143" y="-6.5" font-family="Helvetica,sans-Serif" font-size="10.00" fill="#000000"> &gt;::MappingC1Generic</text>
</g>
<!-- Node1 -->
<g id="node2" class="node">
<title>Node1</title>
<g id="a_node2"><a xlink:href="classMappingQGeneric.html" target="_top" xlink:title="MappingQGeneric\&lt; dim,\l spacedim \&gt;">
<polygon fill="#ffffff" stroke="#000000" points="7.7832,-65.5 7.7832,-93.5 132.4453,-93.5 132.4453,-65.5 7.7832,-65.5"/>
<text text-anchor="start" x="15.7832" y="-81.5" font-family="Helvetica,sans-Serif" font-size="10.00" fill="#000000">MappingQGeneric&lt; dim,</text>
<text text-anchor="middle" x="70.1143" y="-71.5" font-family="Helvetica,sans-Serif" font-size="10.00" fill="#000000"> spacedim &gt;</text>
</a>
</g>
</g>
<!-- Node1&#45;&gt;Node0 -->
<g id="edge1" class="edge">
<title>Node1&#45;&gt;Node0</title>
<path fill="none" stroke="#191970" d="M70.1143,-55.1081C70.1143,-46.1539 70.1143,-36.3227 70.1143,-28.5765"/>
<polygon fill="#191970" stroke="#191970" points="66.6144,-55.3959 70.1143,-65.396 73.6144,-55.396 66.6144,-55.3959"/>
</g>
<!-- Node2 -->
<g id="node3" class="node">
<title>Node2</title>
<g id="a_node3"><a xlink:href="classMapping.html" target="_top" xlink:title="Abstract base class for mapping classes. ">
<polygon fill="#ffffff" stroke="#000000" points="2.0825,-130.5 2.0825,-148.5 138.146,-148.5 138.146,-130.5 2.0825,-130.5"/>
<text text-anchor="middle" x="70.1143" y="-136.5" font-family="Helvetica,sans-Serif" font-size="10.00" fill="#000000">Mapping&lt; dim, spacedim &gt;</text>
</a>
</g>
</g>
<!-- Node2&#45;&gt;Node1 -->
<g id="edge2" class="edge">
<title>Node2&#45;&gt;Node1</title>
<path fill="none" stroke="#191970" d="M70.1143,-120.1865C70.1143,-111.6283 70.1143,-101.7354 70.1143,-93.8477"/>
<polygon fill="#191970" stroke="#191970" points="66.6144,-120.3873 70.1143,-130.3873 73.6144,-120.3873 66.6144,-120.3873"/>
</g>
<!-- Node3 -->
<g id="node4" class="node">
<title>Node3</title>
<g id="a_node4"><a xlink:href="classSubscriptor.html" target="_top" xlink:title="Subscriptor">
<polygon fill="#ffffff" stroke="#000000" points="36.8262,-185.5 36.8262,-203.5 103.4023,-203.5 103.4023,-185.5 36.8262,-185.5"/>
<text text-anchor="middle" x="70.1143" y="-191.5" font-family="Helvetica,sans-Serif" font-size="10.00" fill="#000000">Subscriptor</text>
</a>
</g>
</g>
<!-- Node3&#45;&gt;Node2 -->
<g id="edge3" class="edge">
<title>Node3&#45;&gt;Node2</title>
<path fill="none" stroke="#191970" d="M70.1143,-175.383C70.1143,-166.3738 70.1143,-156.0373 70.1143,-148.7795"/>
<polygon fill="#191970" stroke="#191970" points="66.6144,-175.4178 70.1143,-185.4179 73.6144,-175.4179 66.6144,-175.4178"/>
</g>
</g>
</svg>
