<?xml version="1.0" encoding="UTF-8" standalone="no"?>
<!DOCTYPE svg PUBLIC "-//W3C//DTD SVG 1.1//EN"
 "http://www.w3.org/Graphics/SVG/1.1/DTD/svg11.dtd">
<!-- Generated by graphviz version 2.40.1 (20161225.0304)
 -->
<!-- Title: MGCoarseGridBase&lt; VectorType &gt; Pages: 1 -->
<svg width="461pt" height="215pt"
 viewBox="0.00 0.00 460.65 215.00" xmlns="http://www.w3.org/2000/svg" xmlns:xlink="http://www.w3.org/1999/xlink">
<g id="graph0" class="graph" transform="scale(1 1) rotate(0) translate(4 211)">
<title>MGCoarseGridBase&lt; VectorType &gt;</title>
<polygon fill="#ffffff" stroke="transparent" points="-4,4 -4,-211 456.6514,-211 456.6514,4 -4,4"/>
<!-- Node0 -->
<g id="node1" class="node">
<title>Node0</title>
<polygon fill="#bfbfbf" stroke="#000000" points="102.5762,-84.5 102.5762,-112.5 245.5781,-112.5 245.5781,-84.5 102.5762,-84.5"/>
<text text-anchor="start" x="110.5762" y="-100.5" font-family="Helvetica,sans-Serif" font-size="10.00" fill="#000000">MGCoarseGridBase&lt; Vector</text>
<text text-anchor="middle" x="174.0771" y="-90.5" font-family="Helvetica,sans-Serif" font-size="10.00" fill="#000000">Type &gt;</text>
</g>
<!-- Node2 -->
<g id="node3" class="node">
<title>Node2</title>
<g id="a_node3"><a xlink:href="classMGCoarseGridApplySmoother.html" target="_top" xlink:title="MGCoarseGridApplySmoother\l\&lt; VectorType \&gt;">
<polygon fill="#ffffff" stroke="#000000" points="291.312,-178.5 291.312,-206.5 442.9175,-206.5 442.9175,-178.5 291.312,-178.5"/>
<text text-anchor="start" x="299.312" y="-194.5" font-family="Helvetica,sans-Serif" font-size="10.00" fill="#000000">MGCoarseGridApplySmoother</text>
<text text-anchor="middle" x="367.1147" y="-184.5" font-family="Helvetica,sans-Serif" font-size="10.00" fill="#000000">&lt; VectorType &gt;</text>
</a>
</g>
</g>
<!-- Node0&#45;&gt;Node2 -->
<g id="edge2" class="edge">
<title>Node0&#45;&gt;Node2</title>
<path fill="none" stroke="#191970" d="M199.7386,-118.8821C220.6976,-134.6562 251.6451,-156.0182 281.5781,-169.5 289.0093,-172.847 297.0297,-175.7939 305.077,-178.363"/>
<polygon fill="#191970" stroke="#191970" points="201.7432,-116.0089 191.6732,-112.7155 197.4915,-121.5698 201.7432,-116.0089"/>
</g>
<!-- Node3 -->
<g id="node4" class="node">
<title>Node3</title>
<g id="a_node4"><a xlink:href="classMGCoarseGridHouseholder.html" target="_top" xlink:title="MGCoarseGridHouseholder\l\&lt; VectorType \&gt;">
<polygon fill="#ffffff" stroke="#000000" points="297.1445,-131.5 297.1445,-159.5 437.085,-159.5 437.085,-131.5 297.1445,-131.5"/>
<text text-anchor="start" x="305.1445" y="-147.5" font-family="Helvetica,sans-Serif" font-size="10.00" fill="#000000">MGCoarseGridHouseholder</text>
<text text-anchor="middle" x="367.1147" y="-137.5" font-family="Helvetica,sans-Serif" font-size="10.00" fill="#000000">&lt; VectorType &gt;</text>
</a>
</g>
</g>
<!-- Node0&#45;&gt;Node3 -->
<g id="edge3" class="edge">
<title>Node0&#45;&gt;Node3</title>
<path fill="none" stroke="#191970" d="M241.7102,-114.967C263.8064,-120.3469 288.1273,-126.2685 309.4223,-131.4533"/>
<polygon fill="#191970" stroke="#191970" points="242.2775,-111.503 231.7333,-112.5379 240.6215,-118.3043 242.2775,-111.503"/>
</g>
<!-- Node4 -->
<g id="node5" class="node">
<title>Node4</title>
<g id="a_node5"><a xlink:href="classMGCoarseGridIterativeSolver.html" target="_top" xlink:title="MGCoarseGridIterativeSolver\l\&lt; VectorType \&gt;">
<polygon fill="#ffffff" stroke="#000000" points="293.5386,-84.5 293.5386,-112.5 440.6909,-112.5 440.6909,-84.5 293.5386,-84.5"/>
<text text-anchor="start" x="301.5386" y="-100.5" font-family="Helvetica,sans-Serif" font-size="10.00" fill="#000000">MGCoarseGridIterativeSolver</text>
<text text-anchor="middle" x="367.1147" y="-90.5" font-family="Helvetica,sans-Serif" font-size="10.00" fill="#000000">&lt; VectorType &gt;</text>
</a>
</g>
</g>
<!-- Node0&#45;&gt;Node4 -->
<g id="edge4" class="edge">
<title>Node0&#45;&gt;Node4</title>
<path fill="none" stroke="#191970" d="M256.0075,-98.5C268.4129,-98.5 281.1475,-98.5 293.3658,-98.5"/>
<polygon fill="#191970" stroke="#191970" points="255.6829,-95.0001 245.6829,-98.5 255.6829,-102.0001 255.6829,-95.0001"/>
</g>
<!-- Node5 -->
<g id="node6" class="node">
<title>Node5</title>
<g id="a_node6"><a xlink:href="classMGCoarseGridLACIteration.html" target="_top" xlink:title="MGCoarseGridLACIteration\l\&lt; VectorType \&gt;">
<polygon fill="#ffffff" stroke="#000000" points="297.7036,-37.5 297.7036,-65.5 436.5259,-65.5 436.5259,-37.5 297.7036,-37.5"/>
<text text-anchor="start" x="305.7036" y="-53.5" font-family="Helvetica,sans-Serif" font-size="10.00" fill="#000000">MGCoarseGridLACIteration</text>
<text text-anchor="middle" x="367.1147" y="-43.5" font-family="Helvetica,sans-Serif" font-size="10.00" fill="#000000">&lt; VectorType &gt;</text>
</a>
</g>
</g>
<!-- Node0&#45;&gt;Node5 -->
<g id="edge5" class="edge">
<title>Node0&#45;&gt;Node5</title>
<path fill="none" stroke="#191970" d="M241.7102,-82.033C263.8064,-76.6531 288.1273,-70.7315 309.4223,-65.5467"/>
<polygon fill="#191970" stroke="#191970" points="240.6215,-78.6957 231.7333,-84.4621 242.2775,-85.497 240.6215,-78.6957"/>
</g>
<!-- Node6 -->
<g id="node7" class="node">
<title>Node6</title>
<g id="a_node7"><a xlink:href="classMGCoarseGridSVD.html" target="_top" xlink:title="MGCoarseGridSVD\&lt; VectorType \&gt;">
<polygon fill="#ffffff" stroke="#000000" points="281.5781,-.5 281.5781,-18.5 452.6514,-18.5 452.6514,-.5 281.5781,-.5"/>
<text text-anchor="middle" x="367.1147" y="-6.5" font-family="Helvetica,sans-Serif" font-size="10.00" fill="#000000">MGCoarseGridSVD&lt; VectorType &gt;</text>
</a>
</g>
</g>
<!-- Node0&#45;&gt;Node6 -->
<g id="edge6" class="edge">
<title>Node0&#45;&gt;Node6</title>
<path fill="none" stroke="#191970" d="M199.168,-77.9508C220.0194,-61.8913 251.1027,-40.2253 281.5781,-27.5 290.2603,-23.8747 299.7542,-20.9496 309.1574,-18.5982"/>
<polygon fill="#191970" stroke="#191970" points="196.8689,-75.306 191.1605,-84.2315 201.189,-80.8139 196.8689,-75.306"/>
</g>
<!-- Node1 -->
<g id="node2" class="node">
<title>Node1</title>
<g id="a_node2"><a xlink:href="classSubscriptor.html" target="_top" xlink:title="Subscriptor">
<polygon fill="#ffffff" stroke="#000000" points="0,-89.5 0,-107.5 66.5762,-107.5 66.5762,-89.5 0,-89.5"/>
<text text-anchor="middle" x="33.2881" y="-95.5" font-family="Helvetica,sans-Serif" font-size="10.00" fill="#000000">Subscriptor</text>
</a>
</g>
</g>
<!-- Node1&#45;&gt;Node0 -->
<g id="edge1" class="edge">
<title>Node1&#45;&gt;Node0</title>
<path fill="none" stroke="#191970" d="M76.6749,-98.5C84.8619,-98.5 93.6235,-98.5 102.4114,-98.5"/>
<polygon fill="#191970" stroke="#191970" points="76.6532,-95.0001 66.6531,-98.5 76.6531,-102.0001 76.6532,-95.0001"/>
</g>
</g>
</svg>
