<?xml version="1.0" encoding="UTF-8" standalone="no"?>
<!DOCTYPE svg PUBLIC "-//W3C//DTD SVG 1.1//EN"
 "http://www.w3.org/Graphics/SVG/1.1/DTD/svg11.dtd">
<!-- Generated by graphviz version 2.40.1 (20161225.0304)
 -->
<!-- Title: PETScWrappers::MPI::BlockSparseMatrix Pages: 1 -->
<svg width="260pt" height="214pt"
 viewBox="0.00 0.00 259.61 214.00" xmlns="http://www.w3.org/2000/svg" xmlns:xlink="http://www.w3.org/1999/xlink">
<g id="graph0" class="graph" transform="scale(1 1) rotate(0) translate(4 210)">
<title>PETScWrappers::MPI::BlockSparseMatrix</title>
<polygon fill="#ffffff" stroke="transparent" points="-4,4 -4,-210 255.6104,-210 255.6104,4 -4,4"/>
<!-- Node0 -->
<g id="node1" class="node">
<title>Node0</title>
<polygon fill="#bfbfbf" stroke="#000000" points="26.4941,-.5 26.4941,-28.5 140.1162,-28.5 140.1162,-.5 26.4941,-.5"/>
<text text-anchor="start" x="34.4941" y="-16.5" font-family="Helvetica,sans-Serif" font-size="10.00" fill="#000000">PETScWrappers::MPI</text>
<text text-anchor="middle" x="83.3052" y="-6.5" font-family="Helvetica,sans-Serif" font-size="10.00" fill="#000000">::BlockSparseMatrix</text>
</g>
<!-- Node1 -->
<g id="node2" class="node">
<title>Node1</title>
<g id="a_node2"><a xlink:href="classBlockMatrixBase.html" target="_top" xlink:title="BlockMatrixBase\&lt; SparseMatrix \&gt;">
<polygon fill="#ffffff" stroke="#000000" points="0,-66.5 0,-84.5 166.6104,-84.5 166.6104,-66.5 0,-66.5"/>
<text text-anchor="middle" x="83.3052" y="-72.5" font-family="Helvetica,sans-Serif" font-size="10.00" fill="#000000">BlockMatrixBase&lt; SparseMatrix &gt;</text>
</a>
</g>
</g>
<!-- Node1&#45;&gt;Node0 -->
<g id="edge1" class="edge">
<title>Node1&#45;&gt;Node0</title>
<path fill="none" stroke="#191970" d="M83.3052,-56.2842C83.3052,-47.3664 83.3052,-36.9504 83.3052,-28.7488"/>
<polygon fill="#191970" stroke="#191970" points="79.8053,-56.4992 83.3052,-66.4992 86.8053,-56.4993 79.8053,-56.4992"/>
</g>
<!-- Node2 -->
<g id="node3" class="node">
<title>Node2</title>
<g id="a_node3"><a xlink:href="classSubscriptor.html" target="_top" xlink:title="Subscriptor">
<polygon fill="#ffffff" stroke="#000000" points="46.0171,-187.5 46.0171,-205.5 112.5933,-205.5 112.5933,-187.5 46.0171,-187.5"/>
<text text-anchor="middle" x="79.3052" y="-193.5" font-family="Helvetica,sans-Serif" font-size="10.00" fill="#000000">Subscriptor</text>
</a>
</g>
</g>
<!-- Node2&#45;&gt;Node1 -->
<g id="edge2" class="edge">
<title>Node2&#45;&gt;Node1</title>
<path fill="none" stroke="#191970" d="M79.9457,-177.1238C80.8199,-150.6786 82.3521,-104.3298 83.001,-84.7002"/>
<polygon fill="#191970" stroke="#191970" points="76.4382,-177.2951 79.6058,-187.4053 83.4344,-177.5265 76.4382,-177.2951"/>
</g>
<!-- Node3 -->
<g id="node4" class="node">
<title>Node3</title>
<g id="a_node4"><a xlink:href="classBlockMatrixBase.html" target="_top" xlink:title="BlockMatrixBase\&lt; MatrixType \&gt;">
<polygon fill="#ffffff" stroke="#000000" points="95,-131.5 95,-149.5 251.6104,-149.5 251.6104,-131.5 95,-131.5"/>
<text text-anchor="middle" x="173.3052" y="-137.5" font-family="Helvetica,sans-Serif" font-size="10.00" fill="#000000">BlockMatrixBase&lt; MatrixType &gt;</text>
</a>
</g>
</g>
<!-- Node2&#45;&gt;Node3 -->
<g id="edge4" class="edge">
<title>Node2&#45;&gt;Node3</title>
<path fill="none" stroke="#191970" d="M103.7486,-181.938C120.9324,-171.7008 143.3896,-158.3221 158.0718,-149.5752"/>
<polygon fill="#191970" stroke="#191970" points="101.6271,-179.1278 94.8274,-187.2527 105.2097,-185.1415 101.6271,-179.1278"/>
</g>
<!-- Node3&#45;&gt;Node1 -->
<g id="edge3" class="edge">
<title>Node3&#45;&gt;Node1</title>
<path fill="none" stroke="#ffa500" stroke-dasharray="5,2" d="M152.3787,-125.3865C134.9325,-112.7864 110.6446,-95.2451 96.0031,-84.6708"/>
<polygon fill="#ffa500" stroke="#ffa500" points="150.635,-128.4445 160.7911,-131.462 154.7335,-122.7697 150.635,-128.4445"/>
<text text-anchor="middle" x="172.7656" y="-105" font-family="Helvetica,sans-Serif" font-size="10.00" fill="#000000"> &lt; SparseMatrix &gt;</text>
</g>
</g>
</svg>
