<?xml version="1.0" encoding="UTF-8" standalone="no"?>
<!DOCTYPE svg PUBLIC "-//W3C//DTD SVG 1.1//EN"
 "http://www.w3.org/Graphics/SVG/1.1/DTD/svg11.dtd">
<!-- Generated by graphviz version 2.40.1 (20161225.0304)
 -->
<!-- Title: PETScWrappers::BlockSparseMatrix Pages: 1 -->
<svg width="306pt" height="224pt"
 viewBox="0.00 0.00 306.45 224.00" xmlns="http://www.w3.org/2000/svg" xmlns:xlink="http://www.w3.org/1999/xlink">
<g id="graph0" class="graph" transform="scale(1 1) rotate(0) translate(4 220)">
<title>PETScWrappers::BlockSparseMatrix</title>
<polygon fill="#ffffff" stroke="transparent" points="-4,4 -4,-220 302.4512,-220 302.4512,4 -4,4"/>
<!-- Node0 -->
<g id="node1" class="node">
<title>Node0</title>
<polygon fill="#bfbfbf" stroke="#000000" points="10.6958,-.5 10.6958,-28.5 162.6772,-28.5 162.6772,-.5 10.6958,-.5"/>
<text text-anchor="start" x="18.6958" y="-16.5" font-family="Helvetica,sans-Serif" font-size="10.00" fill="#000000">PETScWrappers::BlockSparse</text>
<text text-anchor="middle" x="86.6865" y="-6.5" font-family="Helvetica,sans-Serif" font-size="10.00" fill="#000000">Matrix</text>
</g>
<!-- Node1 -->
<g id="node2" class="node">
<title>Node1</title>
<g id="a_node2"><a xlink:href="classBlockMatrixBase.html" target="_top" xlink:title="BlockMatrixBase\&lt; PETScWrappers\l::SparseMatrix \&gt;">
<polygon fill="#ffffff" stroke="#000000" points="0,-66.5 0,-94.5 173.373,-94.5 173.373,-66.5 0,-66.5"/>
<text text-anchor="start" x="8" y="-82.5" font-family="Helvetica,sans-Serif" font-size="10.00" fill="#000000">BlockMatrixBase&lt; PETScWrappers</text>
<text text-anchor="middle" x="86.6865" y="-72.5" font-family="Helvetica,sans-Serif" font-size="10.00" fill="#000000">::SparseMatrix &gt;</text>
</a>
</g>
</g>
<!-- Node1&#45;&gt;Node0 -->
<g id="edge1" class="edge">
<title>Node1&#45;&gt;Node0</title>
<path fill="none" stroke="#191970" d="M86.6865,-56.0322C86.6865,-46.8606 86.6865,-36.7449 86.6865,-28.7931"/>
<polygon fill="#191970" stroke="#191970" points="83.1866,-56.1789 86.6865,-66.179 90.1866,-56.179 83.1866,-56.1789"/>
</g>
<!-- Node2 -->
<g id="node3" class="node">
<title>Node2</title>
<g id="a_node3"><a xlink:href="classSubscriptor.html" target="_top" xlink:title="Subscriptor">
<polygon fill="#ffffff" stroke="#000000" points="49.3984,-197.5 49.3984,-215.5 115.9746,-215.5 115.9746,-197.5 49.3984,-197.5"/>
<text text-anchor="middle" x="82.6865" y="-203.5" font-family="Helvetica,sans-Serif" font-size="10.00" fill="#000000">Subscriptor</text>
</a>
</g>
</g>
<!-- Node2&#45;&gt;Node1 -->
<g id="edge2" class="edge">
<title>Node2&#45;&gt;Node1</title>
<path fill="none" stroke="#191970" d="M83.2996,-187.1897C84.1092,-161.6844 85.5164,-117.3578 86.2354,-94.7089"/>
<polygon fill="#191970" stroke="#191970" points="79.7934,-187.3323 82.9742,-197.4384 86.7898,-187.5545 79.7934,-187.3323"/>
</g>
<!-- Node3 -->
<g id="node4" class="node">
<title>Node3</title>
<g id="a_node4"><a xlink:href="classBlockMatrixBase.html" target="_top" xlink:title="BlockMatrixBase\&lt; MatrixType \&gt;">
<polygon fill="#ffffff" stroke="#000000" points="98.3813,-141.5 98.3813,-159.5 254.9917,-159.5 254.9917,-141.5 98.3813,-141.5"/>
<text text-anchor="middle" x="176.6865" y="-147.5" font-family="Helvetica,sans-Serif" font-size="10.00" fill="#000000">BlockMatrixBase&lt; MatrixType &gt;</text>
</a>
</g>
</g>
<!-- Node2&#45;&gt;Node3 -->
<g id="edge4" class="edge">
<title>Node2&#45;&gt;Node3</title>
<path fill="none" stroke="#191970" d="M107.1299,-191.938C124.3138,-181.7008 146.7709,-168.3221 161.4532,-159.5752"/>
<polygon fill="#191970" stroke="#191970" points="105.0084,-189.1278 98.2087,-197.2527 108.5911,-195.1415 105.0084,-189.1278"/>
</g>
<!-- Node3&#45;&gt;Node1 -->
<g id="edge3" class="edge">
<title>Node3&#45;&gt;Node1</title>
<path fill="none" stroke="#ffa500" stroke-dasharray="5,2" d="M157.0086,-135.195C141.5301,-123.1561 120.1254,-106.508 105.0078,-94.7499"/>
<polygon fill="#ffa500" stroke="#ffa500" points="154.8782,-137.972 164.9206,-141.3487 159.1759,-132.4465 154.8782,-137.972"/>
<text text-anchor="middle" x="219.0688" y="-115" font-family="Helvetica,sans-Serif" font-size="10.00" fill="#000000"> &lt; PETScWrappers::SparseMatrix &gt;</text>
</g>
</g>
</svg>
