<?xml version="1.0" encoding="UTF-8" standalone="no"?>
<!DOCTYPE svg PUBLIC "-//W3C//DTD SVG 1.1//EN"
 "http://www.w3.org/Graphics/SVG/1.1/DTD/svg11.dtd">
<!-- Generated by graphviz version 2.40.1 (20161225.0304)
 -->
<!-- Title: MappingQ1Eulerian&lt; dim, VectorType, spacedim &gt; Pages: 1 -->
<svg width="155pt" height="212pt"
 viewBox="0.00 0.00 155.46 212.00" xmlns="http://www.w3.org/2000/svg" xmlns:xlink="http://www.w3.org/1999/xlink">
<g id="graph0" class="graph" transform="scale(1 1) rotate(0) translate(4 208)">
<title>MappingQ1Eulerian&lt; dim, VectorType, spacedim &gt;</title>
<polygon fill="#ffffff" stroke="transparent" points="-4,4 -4,-208 151.46,-208 151.46,4 -4,4"/>
<!-- Node0 -->
<g id="node1" class="node">
<title>Node0</title>
<polygon fill="#bfbfbf" stroke="#000000" points="0,-.5 0,-28.5 147.46,-28.5 147.46,-.5 0,-.5"/>
<text text-anchor="start" x="8" y="-16.5" font-family="Helvetica,sans-Serif" font-size="10.00" fill="#000000">MappingQ1Eulerian&lt;</text>
<text text-anchor="middle" x="73.73" y="-6.5" font-family="Helvetica,sans-Serif" font-size="10.00" fill="#000000"> dim, VectorType, spacedim &gt;</text>
</g>
<!-- Node1 -->
<g id="node2" class="node">
<title>Node1</title>
<g id="a_node2"><a xlink:href="classMappingQGeneric.html" target="_top" xlink:title="MappingQGeneric\&lt; dim,\l spacedim \&gt;">
<polygon fill="#ffffff" stroke="#000000" points="11.3989,-65.5 11.3989,-93.5 136.061,-93.5 136.061,-65.5 11.3989,-65.5"/>
<text text-anchor="start" x="19.3989" y="-81.5" font-family="Helvetica,sans-Serif" font-size="10.00" fill="#000000">MappingQGeneric&lt; dim,</text>
<text text-anchor="middle" x="73.73" y="-71.5" font-family="Helvetica,sans-Serif" font-size="10.00" fill="#000000"> spacedim &gt;</text>
</a>
</g>
</g>
<!-- Node1&#45;&gt;Node0 -->
<g id="edge1" class="edge">
<title>Node1&#45;&gt;Node0</title>
<path fill="none" stroke="#191970" d="M73.73,-55.1081C73.73,-46.1539 73.73,-36.3227 73.73,-28.5765"/>
<polygon fill="#191970" stroke="#191970" points="70.2301,-55.3959 73.73,-65.396 77.2301,-55.396 70.2301,-55.3959"/>
</g>
<!-- Node2 -->
<g id="node3" class="node">
<title>Node2</title>
<g id="a_node3"><a xlink:href="classMapping.html" target="_top" xlink:title="Abstract base class for mapping classes. ">
<polygon fill="#ffffff" stroke="#000000" points="5.6982,-130.5 5.6982,-148.5 141.7617,-148.5 141.7617,-130.5 5.6982,-130.5"/>
<text text-anchor="middle" x="73.73" y="-136.5" font-family="Helvetica,sans-Serif" font-size="10.00" fill="#000000">Mapping&lt; dim, spacedim &gt;</text>
</a>
</g>
</g>
<!-- Node2&#45;&gt;Node1 -->
<g id="edge2" class="edge">
<title>Node2&#45;&gt;Node1</title>
<path fill="none" stroke="#191970" d="M73.73,-120.1865C73.73,-111.6283 73.73,-101.7354 73.73,-93.8477"/>
<polygon fill="#191970" stroke="#191970" points="70.2301,-120.3873 73.73,-130.3873 77.2301,-120.3873 70.2301,-120.3873"/>
</g>
<!-- Node3 -->
<g id="node4" class="node">
<title>Node3</title>
<g id="a_node4"><a xlink:href="classSubscriptor.html" target="_top" xlink:title="Subscriptor">
<polygon fill="#ffffff" stroke="#000000" points="40.4419,-185.5 40.4419,-203.5 107.0181,-203.5 107.0181,-185.5 40.4419,-185.5"/>
<text text-anchor="middle" x="73.73" y="-191.5" font-family="Helvetica,sans-Serif" font-size="10.00" fill="#000000">Subscriptor</text>
</a>
</g>
</g>
<!-- Node3&#45;&gt;Node2 -->
<g id="edge3" class="edge">
<title>Node3&#45;&gt;Node2</title>
<path fill="none" stroke="#191970" d="M73.73,-175.383C73.73,-166.3738 73.73,-156.0373 73.73,-148.7795"/>
<polygon fill="#191970" stroke="#191970" points="70.2301,-175.4178 73.73,-185.4179 77.2301,-175.4179 70.2301,-175.4178"/>
</g>
</g>
</svg>
