<?xml version="1.0" encoding="UTF-8" standalone="no"?>
<!DOCTYPE svg PUBLIC "-//W3C//DTD SVG 1.1//EN"
 "http://www.w3.org/Graphics/SVG/1.1/DTD/svg11.dtd">
<!-- Generated by graphviz version 2.40.1 (20161225.0304)
 -->
<!-- Title: FEValuesBase&lt; dim, spacedim &gt; Pages: 1 -->
<svg width="430pt" height="234pt"
 viewBox="0.00 0.00 430.16 234.00" xmlns="http://www.w3.org/2000/svg" xmlns:xlink="http://www.w3.org/1999/xlink">
<g id="graph0" class="graph" transform="scale(1 1) rotate(0) translate(4 230)">
<title>FEValuesBase&lt; dim, spacedim &gt;</title>
<polygon fill="#ffffff" stroke="transparent" points="-4,4 -4,-230 426.1626,-230 426.1626,4 -4,4"/>
<!-- Node0 -->
<g id="node1" class="node">
<title>Node0</title>
<polygon fill="#bfbfbf" stroke="#000000" points="255.7192,-141.5 255.7192,-169.5 364.6392,-169.5 364.6392,-141.5 255.7192,-141.5"/>
<text text-anchor="start" x="263.7192" y="-157.5" font-family="Helvetica,sans-Serif" font-size="10.00" fill="#000000">FEValuesBase&lt; dim,</text>
<text text-anchor="middle" x="310.1792" y="-147.5" font-family="Helvetica,sans-Serif" font-size="10.00" fill="#000000"> spacedim &gt;</text>
</g>
<!-- Node2 -->
<g id="node3" class="node">
<title>Node2</title>
<g id="a_node3"><a xlink:href="classFEFaceValuesBase.html" target="_top" xlink:title="FEFaceValuesBase\&lt; dim,\l spacedim \&gt;">
<polygon fill="#ffffff" stroke="#000000" points="90.6035,-75.5 90.6035,-103.5 221.7549,-103.5 221.7549,-75.5 90.6035,-75.5"/>
<text text-anchor="start" x="98.6035" y="-91.5" font-family="Helvetica,sans-Serif" font-size="10.00" fill="#000000">FEFaceValuesBase&lt; dim,</text>
<text text-anchor="middle" x="156.1792" y="-81.5" font-family="Helvetica,sans-Serif" font-size="10.00" fill="#000000"> spacedim &gt;</text>
</a>
</g>
</g>
<!-- Node0&#45;&gt;Node2 -->
<g id="edge2" class="edge">
<title>Node0&#45;&gt;Node2</title>
<path fill="none" stroke="#191970" d="M267.9222,-137.3898C243.0031,-126.7103 211.9416,-113.3982 188.8968,-103.5218"/>
<polygon fill="#191970" stroke="#191970" points="266.5721,-140.6191 277.1423,-141.3413 269.3296,-134.1851 266.5721,-140.6191"/>
</g>
<!-- Node5 -->
<g id="node6" class="node">
<title>Node5</title>
<g id="a_node6"><a xlink:href="classFEValues.html" target="_top" xlink:title="FEValues\&lt; dim, spacedim \&gt;">
<polygon fill="#ffffff" stroke="#000000" points="240.0186,-80.5 240.0186,-98.5 380.3398,-98.5 380.3398,-80.5 240.0186,-80.5"/>
<text text-anchor="middle" x="310.1792" y="-86.5" font-family="Helvetica,sans-Serif" font-size="10.00" fill="#000000">FEValues&lt; dim, spacedim &gt;</text>
</a>
</g>
</g>
<!-- Node0&#45;&gt;Node5 -->
<g id="edge5" class="edge">
<title>Node0&#45;&gt;Node5</title>
<path fill="none" stroke="#191970" d="M310.1792,-131.0035C310.1792,-119.7414 310.1792,-107.0613 310.1792,-98.7139"/>
<polygon fill="#191970" stroke="#191970" points="306.6793,-131.1789 310.1792,-141.179 313.6793,-131.179 306.6793,-131.1789"/>
</g>
<!-- Node6 -->
<g id="node7" class="node">
<title>Node6</title>
<g id="a_node7"><a xlink:href="classFEValues.html" target="_top" xlink:title="FEValues\&lt; dim \&gt;">
<polygon fill="#ffffff" stroke="#000000" points="330.1958,-5.5 330.1958,-23.5 422.1626,-23.5 422.1626,-5.5 330.1958,-5.5"/>
<text text-anchor="middle" x="376.1792" y="-11.5" font-family="Helvetica,sans-Serif" font-size="10.00" fill="#000000">FEValues&lt; dim &gt;</text>
</a>
</g>
</g>
<!-- Node0&#45;&gt;Node6 -->
<g id="edge7" class="edge">
<title>Node0&#45;&gt;Node6</title>
<path fill="none" stroke="#191970" d="M355.7982,-136.255C368.9634,-128.307 381.7647,-117.6843 389.1792,-104 403.5406,-77.4942 389.0474,-40.4034 380.9032,-23.5145"/>
<polygon fill="#191970" stroke="#191970" points="353.7171,-133.408 346.6875,-141.3348 357.1261,-139.5218 353.7171,-133.408"/>
</g>
<!-- Node1 -->
<g id="node2" class="node">
<title>Node1</title>
<g id="a_node2"><a xlink:href="classSubscriptor.html" target="_top" xlink:title="Subscriptor">
<polygon fill="#ffffff" stroke="#000000" points="276.8911,-207.5 276.8911,-225.5 343.4673,-225.5 343.4673,-207.5 276.8911,-207.5"/>
<text text-anchor="middle" x="310.1792" y="-213.5" font-family="Helvetica,sans-Serif" font-size="10.00" fill="#000000">Subscriptor</text>
</a>
</g>
</g>
<!-- Node1&#45;&gt;Node0 -->
<g id="edge1" class="edge">
<title>Node1&#45;&gt;Node0</title>
<path fill="none" stroke="#191970" d="M310.1792,-197.2842C310.1792,-188.3664 310.1792,-177.9504 310.1792,-169.7488"/>
<polygon fill="#191970" stroke="#191970" points="306.6793,-197.4992 310.1792,-207.4992 313.6793,-197.4993 306.6793,-197.4992"/>
</g>
<!-- Node3 -->
<g id="node4" class="node">
<title>Node3</title>
<g id="a_node4"><a xlink:href="classFEFaceValues.html" target="_top" xlink:title="FEFaceValues\&lt; dim,\l spacedim \&gt;">
<polygon fill="#ffffff" stroke="#000000" points="0,-.5 0,-28.5 108.3584,-28.5 108.3584,-.5 0,-.5"/>
<text text-anchor="start" x="8" y="-16.5" font-family="Helvetica,sans-Serif" font-size="10.00" fill="#000000">FEFaceValues&lt; dim,</text>
<text text-anchor="middle" x="54.1792" y="-6.5" font-family="Helvetica,sans-Serif" font-size="10.00" fill="#000000"> spacedim &gt;</text>
</a>
</g>
</g>
<!-- Node2&#45;&gt;Node3 -->
<g id="edge3" class="edge">
<title>Node2&#45;&gt;Node3</title>
<path fill="none" stroke="#191970" d="M128.8148,-69.3791C111.2669,-56.4762 88.9257,-40.0489 73.2786,-28.5437"/>
<polygon fill="#191970" stroke="#191970" points="126.8639,-72.2889 136.9938,-75.3931 131.0106,-66.6493 126.8639,-72.2889"/>
</g>
<!-- Node4 -->
<g id="node5" class="node">
<title>Node4</title>
<g id="a_node5"><a xlink:href="classFESubfaceValues.html" target="_top" xlink:title="FESubfaceValues\&lt; dim,\l spacedim \&gt;">
<polygon fill="#ffffff" stroke="#000000" points="126.7686,-.5 126.7686,-28.5 249.5898,-28.5 249.5898,-.5 126.7686,-.5"/>
<text text-anchor="start" x="134.7686" y="-16.5" font-family="Helvetica,sans-Serif" font-size="10.00" fill="#000000">FESubfaceValues&lt; dim,</text>
<text text-anchor="middle" x="188.1792" y="-6.5" font-family="Helvetica,sans-Serif" font-size="10.00" fill="#000000"> spacedim &gt;</text>
</a>
</g>
</g>
<!-- Node2&#45;&gt;Node4 -->
<g id="edge4" class="edge">
<title>Node2&#45;&gt;Node4</title>
<path fill="none" stroke="#191970" d="M166.1436,-66.1459C171.4022,-53.8211 177.68,-39.1075 182.1872,-28.5437"/>
<polygon fill="#191970" stroke="#191970" points="162.9034,-64.8217 162.1982,-75.3931 169.3418,-67.5688 162.9034,-64.8217"/>
</g>
<!-- Node5&#45;&gt;Node6 -->
<g id="edge6" class="edge">
<title>Node5&#45;&gt;Node6</title>
<path fill="none" stroke="#ffa500" stroke-dasharray="5,2" d="M324.978,-72.6831C338.271,-57.5774 357.2979,-35.956 368.0201,-23.7717"/>
<polygon fill="#ffa500" stroke="#ffa500" points="322.2509,-70.4842 318.2721,-80.3035 327.5059,-75.1086 322.2509,-70.4842"/>
<text text-anchor="middle" x="365.2432" y="-49" font-family="Helvetica,sans-Serif" font-size="10.00" fill="#000000"> &lt; dim &gt;</text>
</g>
</g>
</svg>
