<?xml version="1.0" encoding="UTF-8" standalone="no"?>
<!DOCTYPE svg PUBLIC "-//W3C//DTD SVG 1.1//EN"
 "http://www.w3.org/Graphics/SVG/1.1/DTD/svg11.dtd">
<!-- Generated by graphviz version 2.40.1 (20161225.0304)
 -->
<!-- Title: TimeStepBase_Tria&lt; dim &gt; Pages: 1 -->
<svg width="117pt" height="147pt"
 viewBox="0.00 0.00 117.48 147.00" xmlns="http://www.w3.org/2000/svg" xmlns:xlink="http://www.w3.org/1999/xlink">
<g id="graph0" class="graph" transform="scale(1 1) rotate(0) translate(4 143)">
<title>TimeStepBase_Tria&lt; dim &gt;</title>
<polygon fill="#ffffff" stroke="transparent" points="-4,4 -4,-143 113.4766,-143 113.4766,4 -4,4"/>
<!-- Node0 -->
<g id="node1" class="node">
<title>Node0</title>
<polygon fill="#bfbfbf" stroke="#000000" points="0,-.5 0,-28.5 109.4766,-28.5 109.4766,-.5 0,-.5"/>
<text text-anchor="start" x="8" y="-16.5" font-family="Helvetica,sans-Serif" font-size="10.00" fill="#000000">TimeStepBase_Tria&lt;</text>
<text text-anchor="middle" x="54.7383" y="-6.5" font-family="Helvetica,sans-Serif" font-size="10.00" fill="#000000"> dim &gt;</text>
</g>
<!-- Node1 -->
<g id="node2" class="node">
<title>Node1</title>
<g id="a_node2"><a xlink:href="classTimeStepBase.html" target="_top" xlink:title="TimeStepBase">
<polygon fill="#ffffff" stroke="#000000" points="14.1284,-65.5 14.1284,-83.5 95.3481,-83.5 95.3481,-65.5 14.1284,-65.5"/>
<text text-anchor="middle" x="54.7383" y="-71.5" font-family="Helvetica,sans-Serif" font-size="10.00" fill="#000000">TimeStepBase</text>
</a>
</g>
</g>
<!-- Node1&#45;&gt;Node0 -->
<g id="edge1" class="edge">
<title>Node1&#45;&gt;Node0</title>
<path fill="none" stroke="#191970" d="M54.7383,-55.1865C54.7383,-46.6283 54.7383,-36.7354 54.7383,-28.8477"/>
<polygon fill="#191970" stroke="#191970" points="51.2384,-55.3873 54.7383,-65.3873 58.2384,-55.3873 51.2384,-55.3873"/>
</g>
<!-- Node2 -->
<g id="node3" class="node">
<title>Node2</title>
<g id="a_node3"><a xlink:href="classSubscriptor.html" target="_top" xlink:title="Subscriptor">
<polygon fill="#ffffff" stroke="#000000" points="21.4502,-120.5 21.4502,-138.5 88.0264,-138.5 88.0264,-120.5 21.4502,-120.5"/>
<text text-anchor="middle" x="54.7383" y="-126.5" font-family="Helvetica,sans-Serif" font-size="10.00" fill="#000000">Subscriptor</text>
</a>
</g>
</g>
<!-- Node2&#45;&gt;Node1 -->
<g id="edge2" class="edge">
<title>Node2&#45;&gt;Node1</title>
<path fill="none" stroke="#191970" d="M54.7383,-110.383C54.7383,-101.3738 54.7383,-91.0373 54.7383,-83.7795"/>
<polygon fill="#191970" stroke="#191970" points="51.2384,-110.4178 54.7383,-120.4179 58.2384,-110.4179 51.2384,-110.4178"/>
</g>
</g>
</svg>
