<?xml version="1.0" encoding="UTF-8" standalone="no"?>
<!DOCTYPE svg PUBLIC "-//W3C//DTD SVG 1.1//EN"
 "http://www.w3.org/Graphics/SVG/1.1/DTD/svg11.dtd">
<!-- Generated by graphviz version 2.40.1 (20161225.0304)
 -->
<!-- Title: MatrixFreeOperators::MGInterfaceOperator&lt; OperatorType &gt; Pages: 1 -->
<svg width="124pt" height="102pt"
 viewBox="0.00 0.00 124.04 102.00" xmlns="http://www.w3.org/2000/svg" xmlns:xlink="http://www.w3.org/1999/xlink">
<g id="graph0" class="graph" transform="scale(1 1) rotate(0) translate(4 98)">
<title>MatrixFreeOperators::MGInterfaceOperator&lt; OperatorType &gt;</title>
<polygon fill="#ffffff" stroke="transparent" points="-4,4 -4,-98 120.0391,-98 120.0391,4 -4,4"/>
<!-- Node0 -->
<g id="node1" class="node">
<title>Node0</title>
<polygon fill="#bfbfbf" stroke="#000000" points="0,-.5 0,-38.5 116.0391,-38.5 116.0391,-.5 0,-.5"/>
<text text-anchor="start" x="8" y="-26.5" font-family="Helvetica,sans-Serif" font-size="10.00" fill="#000000">MatrixFreeOperators</text>
<text text-anchor="start" x="8" y="-16.5" font-family="Helvetica,sans-Serif" font-size="10.00" fill="#000000">::MGInterfaceOperator</text>
<text text-anchor="middle" x="58.0195" y="-6.5" font-family="Helvetica,sans-Serif" font-size="10.00" fill="#000000">&lt; OperatorType &gt;</text>
</g>
<!-- Node1 -->
<g id="node2" class="node">
<title>Node1</title>
<g id="a_node2"><a xlink:href="classSubscriptor.html" target="_top" xlink:title="Subscriptor">
<polygon fill="#ffffff" stroke="#000000" points="24.7314,-75.5 24.7314,-93.5 91.3076,-93.5 91.3076,-75.5 24.7314,-75.5"/>
<text text-anchor="middle" x="58.0195" y="-81.5" font-family="Helvetica,sans-Serif" font-size="10.00" fill="#000000">Subscriptor</text>
</a>
</g>
</g>
<!-- Node1&#45;&gt;Node0 -->
<g id="edge1" class="edge">
<title>Node1&#45;&gt;Node0</title>
<path fill="none" stroke="#191970" d="M58.0195,-65.4456C58.0195,-56.9924 58.0195,-47.066 58.0195,-38.6068"/>
<polygon fill="#191970" stroke="#191970" points="54.5196,-65.462 58.0195,-75.462 61.5196,-65.4621 54.5196,-65.462"/>
</g>
</g>
</svg>
