<?xml version="1.0" encoding="UTF-8" standalone="no"?>
<!DOCTYPE svg PUBLIC "-//W3C//DTD SVG 1.1//EN"
 "http://www.w3.org/Graphics/SVG/1.1/DTD/svg11.dtd">
<!-- Generated by graphviz version 2.40.1 (20161225.0304)
 -->
<!-- Title: TrilinosWrappers::PreconditionSSOR Pages: 1 -->
<svg width="189pt" height="137pt"
 viewBox="0.00 0.00 188.52 137.00" xmlns="http://www.w3.org/2000/svg" xmlns:xlink="http://www.w3.org/1999/xlink">
<g id="graph0" class="graph" transform="scale(1 1) rotate(0) translate(4 133)">
<title>TrilinosWrappers::PreconditionSSOR</title>
<polygon fill="#ffffff" stroke="transparent" points="-4,4 -4,-133 184.5166,-133 184.5166,4 -4,4"/>
<!-- Node0 -->
<g id="node1" class="node">
<title>Node0</title>
<polygon fill="#bfbfbf" stroke="#000000" points="0,-.5 0,-18.5 180.5166,-18.5 180.5166,-.5 0,-.5"/>
<text text-anchor="middle" x="90.2583" y="-6.5" font-family="Helvetica,sans-Serif" font-size="10.00" fill="#000000">TrilinosWrappers::PreconditionSSOR</text>
</g>
<!-- Node1 -->
<g id="node2" class="node">
<title>Node1</title>
<g id="a_node2"><a xlink:href="classTrilinosWrappers_1_1PreconditionBase.html" target="_top" xlink:title="TrilinosWrappers::PreconditionBase">
<polygon fill="#ffffff" stroke="#000000" points="2.7734,-55.5 2.7734,-73.5 177.7432,-73.5 177.7432,-55.5 2.7734,-55.5"/>
<text text-anchor="middle" x="90.2583" y="-61.5" font-family="Helvetica,sans-Serif" font-size="10.00" fill="#000000">TrilinosWrappers::PreconditionBase</text>
</a>
</g>
</g>
<!-- Node1&#45;&gt;Node0 -->
<g id="edge1" class="edge">
<title>Node1&#45;&gt;Node0</title>
<path fill="none" stroke="#191970" d="M90.2583,-45.383C90.2583,-36.3738 90.2583,-26.0373 90.2583,-18.7795"/>
<polygon fill="#191970" stroke="#191970" points="86.7584,-45.4178 90.2583,-55.4179 93.7584,-45.4179 86.7584,-45.4178"/>
</g>
<!-- Node2 -->
<g id="node3" class="node">
<title>Node2</title>
<g id="a_node3"><a xlink:href="classSubscriptor.html" target="_top" xlink:title="Subscriptor">
<polygon fill="#ffffff" stroke="#000000" points="56.9702,-110.5 56.9702,-128.5 123.5464,-128.5 123.5464,-110.5 56.9702,-110.5"/>
<text text-anchor="middle" x="90.2583" y="-116.5" font-family="Helvetica,sans-Serif" font-size="10.00" fill="#000000">Subscriptor</text>
</a>
</g>
</g>
<!-- Node2&#45;&gt;Node1 -->
<g id="edge2" class="edge">
<title>Node2&#45;&gt;Node1</title>
<path fill="none" stroke="#191970" d="M90.2583,-100.383C90.2583,-91.3738 90.2583,-81.0373 90.2583,-73.7795"/>
<polygon fill="#191970" stroke="#191970" points="86.7584,-100.4178 90.2583,-110.4179 93.7584,-100.4179 86.7584,-100.4178"/>
</g>
</g>
</svg>
