<?xml version="1.0" encoding="UTF-8" standalone="no"?>
<!DOCTYPE svg PUBLIC "-//W3C//DTD SVG 1.1//EN"
 "http://www.w3.org/Graphics/SVG/1.1/DTD/svg11.dtd">
<!-- Generated by graphviz version 2.40.1 (20161225.0304)
 -->
<!-- Title: MultipleParameterLoop Pages: 1 -->
<svg width="127pt" height="137pt"
 viewBox="0.00 0.00 127.39 137.00" xmlns="http://www.w3.org/2000/svg" xmlns:xlink="http://www.w3.org/1999/xlink">
<g id="graph0" class="graph" transform="scale(1 1) rotate(0) translate(4 133)">
<title>MultipleParameterLoop</title>
<polygon fill="#ffffff" stroke="transparent" points="-4,4 -4,-133 123.3887,-133 123.3887,4 -4,4"/>
<!-- Node0 -->
<g id="node1" class="node">
<title>Node0</title>
<polygon fill="#bfbfbf" stroke="#000000" points="0,-.5 0,-18.5 119.3887,-18.5 119.3887,-.5 0,-.5"/>
<text text-anchor="middle" x="59.6943" y="-6.5" font-family="Helvetica,sans-Serif" font-size="10.00" fill="#000000">MultipleParameterLoop</text>
</g>
<!-- Node1 -->
<g id="node2" class="node">
<title>Node1</title>
<g id="a_node2"><a xlink:href="classParameterHandler.html" target="_top" xlink:title="ParameterHandler">
<polygon fill="#ffffff" stroke="#000000" points="10.8423,-55.5 10.8423,-73.5 108.5464,-73.5 108.5464,-55.5 10.8423,-55.5"/>
<text text-anchor="middle" x="59.6943" y="-61.5" font-family="Helvetica,sans-Serif" font-size="10.00" fill="#000000">ParameterHandler</text>
</a>
</g>
</g>
<!-- Node1&#45;&gt;Node0 -->
<g id="edge1" class="edge">
<title>Node1&#45;&gt;Node0</title>
<path fill="none" stroke="#191970" d="M59.6943,-45.383C59.6943,-36.3738 59.6943,-26.0373 59.6943,-18.7795"/>
<polygon fill="#191970" stroke="#191970" points="56.1944,-45.4178 59.6943,-55.4179 63.1944,-45.4179 56.1944,-45.4178"/>
</g>
<!-- Node2 -->
<g id="node3" class="node">
<title>Node2</title>
<g id="a_node3"><a xlink:href="classSubscriptor.html" target="_top" xlink:title="Subscriptor">
<polygon fill="#ffffff" stroke="#000000" points="26.4063,-110.5 26.4063,-128.5 92.9824,-128.5 92.9824,-110.5 26.4063,-110.5"/>
<text text-anchor="middle" x="59.6943" y="-116.5" font-family="Helvetica,sans-Serif" font-size="10.00" fill="#000000">Subscriptor</text>
</a>
</g>
</g>
<!-- Node2&#45;&gt;Node1 -->
<g id="edge2" class="edge">
<title>Node2&#45;&gt;Node1</title>
<path fill="none" stroke="#191970" d="M59.6943,-100.383C59.6943,-91.3738 59.6943,-81.0373 59.6943,-73.7795"/>
<polygon fill="#191970" stroke="#191970" points="56.1944,-100.4178 59.6943,-110.4179 63.1944,-100.4179 56.1944,-100.4178"/>
</g>
</g>
</svg>
