<?xml version="1.0" encoding="UTF-8" standalone="no"?>
<!DOCTYPE svg PUBLIC "-//W3C//DTD SVG 1.1//EN"
 "http://www.w3.org/Graphics/SVG/1.1/DTD/svg11.dtd">
<!-- Generated by graphviz version 2.40.1 (20161225.0304)
 -->
<!-- Title: HyperShellBoundary&lt; dim &gt; Pages: 1 -->
<svg width="254pt" height="497pt"
 viewBox="0.00 0.00 254.39 497.00" xmlns="http://www.w3.org/2000/svg" xmlns:xlink="http://www.w3.org/1999/xlink">
<g id="graph0" class="graph" transform="scale(1 1) rotate(0) translate(4 493)">
<title>HyperShellBoundary&lt; dim &gt;</title>
<polygon fill="#ffffff" stroke="transparent" points="-4,4 -4,-493 250.3887,-493 250.3887,4 -4,4"/>
<!-- Node0 -->
<g id="node1" class="node">
<title>Node0</title>
<polygon fill="#bfbfbf" stroke="#000000" points="71.5308,-66.5 71.5308,-94.5 179.2495,-94.5 179.2495,-66.5 71.5308,-66.5"/>
<text text-anchor="start" x="79.5308" y="-82.5" font-family="Helvetica,sans-Serif" font-size="10.00" fill="#000000">HyperShellBoundary</text>
<text text-anchor="middle" x="125.3901" y="-72.5" font-family="Helvetica,sans-Serif" font-size="10.00" fill="#000000">&lt; dim &gt;</text>
</g>
<!-- Node9 -->
<g id="node9" class="node">
<title>Node9</title>
<g id="a_node9"><a xlink:href="classHalfHyperShellBoundary.html" target="_top" xlink:title="HalfHyperShellBoundary\l\&lt; dim \&gt;">
<polygon fill="#ffffff" stroke="#000000" points="62.6392,-.5 62.6392,-28.5 188.1411,-28.5 188.1411,-.5 62.6392,-.5"/>
<text text-anchor="start" x="70.6392" y="-16.5" font-family="Helvetica,sans-Serif" font-size="10.00" fill="#000000">HalfHyperShellBoundary</text>
<text text-anchor="middle" x="125.3901" y="-6.5" font-family="Helvetica,sans-Serif" font-size="10.00" fill="#000000">&lt; dim &gt;</text>
</a>
</g>
</g>
<!-- Node0&#45;&gt;Node9 -->
<g id="edge10" class="edge">
<title>Node0&#45;&gt;Node9</title>
<path fill="none" stroke="#191970" d="M125.3901,-56.0322C125.3901,-46.8606 125.3901,-36.7449 125.3901,-28.7931"/>
<polygon fill="#191970" stroke="#191970" points="121.8902,-56.1789 125.3901,-66.179 128.8902,-56.179 121.8902,-56.1789"/>
</g>
<!-- Node1 -->
<g id="node2" class="node">
<title>Node1</title>
<g id="a_node2"><a xlink:href="classHyperBallBoundary.html" target="_top" xlink:title="HyperBallBoundary\&lt;\l dim \&gt;">
<polygon fill="#ffffff" stroke="#000000" points="71.3916,-132.5 71.3916,-160.5 179.3887,-160.5 179.3887,-132.5 71.3916,-132.5"/>
<text text-anchor="start" x="79.3916" y="-148.5" font-family="Helvetica,sans-Serif" font-size="10.00" fill="#000000">HyperBallBoundary&lt;</text>
<text text-anchor="middle" x="125.3901" y="-138.5" font-family="Helvetica,sans-Serif" font-size="10.00" fill="#000000"> dim &gt;</text>
</a>
</g>
</g>
<!-- Node1&#45;&gt;Node0 -->
<g id="edge1" class="edge">
<title>Node1&#45;&gt;Node0</title>
<path fill="none" stroke="#191970" d="M125.3901,-122.0322C125.3901,-112.8606 125.3901,-102.7449 125.3901,-94.7931"/>
<polygon fill="#191970" stroke="#191970" points="121.8902,-122.1789 125.3901,-132.179 128.8902,-122.179 121.8902,-122.1789"/>
</g>
<!-- Node2 -->
<g id="node3" class="node">
<title>Node2</title>
<g id="a_node3"><a xlink:href="classStraightBoundary.html" target="_top" xlink:title="StraightBoundary\&lt; dim,\l dim \&gt;">
<polygon fill="#ffffff" stroke="#000000" points="0,-207.5 0,-235.5 120.7803,-235.5 120.7803,-207.5 0,-207.5"/>
<text text-anchor="start" x="8" y="-223.5" font-family="Helvetica,sans-Serif" font-size="10.00" fill="#000000">StraightBoundary&lt; dim,</text>
<text text-anchor="middle" x="60.3901" y="-213.5" font-family="Helvetica,sans-Serif" font-size="10.00" fill="#000000"> dim &gt;</text>
</a>
</g>
</g>
<!-- Node2&#45;&gt;Node1 -->
<g id="edge2" class="edge">
<title>Node2&#45;&gt;Node1</title>
<path fill="none" stroke="#191970" d="M79.3714,-199.5986C90.2962,-186.993 103.701,-171.5259 113.219,-160.5437"/>
<polygon fill="#191970" stroke="#191970" points="76.5206,-197.5439 72.6161,-207.3931 81.8104,-202.1284 76.5206,-197.5439"/>
</g>
<!-- Node3 -->
<g id="node4" class="node">
<title>Node3</title>
<g id="a_node4"><a xlink:href="classBoundary.html" target="_top" xlink:title="Boundary\&lt; dim, spacedim \&gt;">
<polygon fill="#ffffff" stroke="#000000" points="2.1343,-348.5 2.1343,-366.5 142.646,-366.5 142.646,-348.5 2.1343,-348.5"/>
<text text-anchor="middle" x="72.3901" y="-354.5" font-family="Helvetica,sans-Serif" font-size="10.00" fill="#000000">Boundary&lt; dim, spacedim &gt;</text>
</a>
</g>
</g>
<!-- Node3&#45;&gt;Node2 -->
<g id="edge3" class="edge">
<title>Node3&#45;&gt;Node2</title>
<path fill="none" stroke="#191970" d="M70.6794,-338.1119C68.2348,-310.4066 63.7995,-260.1399 61.6395,-235.6595"/>
<polygon fill="#191970" stroke="#191970" points="67.1998,-338.4985 71.5653,-348.1522 74.1728,-337.8832 67.1998,-338.4985"/>
</g>
<!-- Node7 -->
<g id="node7" class="node">
<title>Node7</title>
<g id="a_node7"><a xlink:href="classStraightBoundary.html" target="_top" xlink:title="StraightBoundary\&lt; dim,\l spacedim \&gt;">
<polygon fill="#ffffff" stroke="#000000" points="88,-282.5 88,-310.5 208.7803,-310.5 208.7803,-282.5 88,-282.5"/>
<text text-anchor="start" x="96" y="-298.5" font-family="Helvetica,sans-Serif" font-size="10.00" fill="#000000">StraightBoundary&lt; dim,</text>
<text text-anchor="middle" x="148.3901" y="-288.5" font-family="Helvetica,sans-Serif" font-size="10.00" fill="#000000"> spacedim &gt;</text>
</a>
</g>
</g>
<!-- Node3&#45;&gt;Node7 -->
<g id="edge7" class="edge">
<title>Node3&#45;&gt;Node7</title>
<path fill="none" stroke="#191970" d="M91.7056,-341.9968C103.7842,-332.3022 119.2159,-319.9162 130.9274,-310.5162"/>
<polygon fill="#191970" stroke="#191970" points="89.2121,-339.5102 83.6042,-348.4992 93.5937,-344.9693 89.2121,-339.5102"/>
</g>
<!-- Node4 -->
<g id="node5" class="node">
<title>Node4</title>
<g id="a_node5"><a xlink:href="classFlatManifold.html" target="_top" xlink:title="FlatManifold\&lt; dim,\l spacedim \&gt;">
<polygon fill="#ffffff" stroke="#000000" points="23.4014,-404.5 23.4014,-432.5 121.3789,-432.5 121.3789,-404.5 23.4014,-404.5"/>
<text text-anchor="start" x="31.4014" y="-420.5" font-family="Helvetica,sans-Serif" font-size="10.00" fill="#000000">FlatManifold&lt; dim,</text>
<text text-anchor="middle" x="72.3901" y="-410.5" font-family="Helvetica,sans-Serif" font-size="10.00" fill="#000000"> spacedim &gt;</text>
</a>
</g>
</g>
<!-- Node4&#45;&gt;Node3 -->
<g id="edge4" class="edge">
<title>Node4&#45;&gt;Node3</title>
<path fill="none" stroke="#191970" d="M72.3901,-394.1001C72.3901,-384.5157 72.3901,-374.0935 72.3901,-366.831"/>
<polygon fill="#191970" stroke="#191970" points="68.8902,-394.352 72.3901,-404.3521 75.8902,-394.3521 68.8902,-394.352"/>
</g>
<!-- Node5 -->
<g id="node6" class="node">
<title>Node5</title>
<g id="a_node6"><a xlink:href="classManifold.html" target="_top" xlink:title="Manifold\&lt; dim, spacedim \&gt;">
<polygon fill="#ffffff" stroke="#ff0000" points="4.6392,-470.5 4.6392,-488.5 140.1411,-488.5 140.1411,-470.5 4.6392,-470.5"/>
<text text-anchor="middle" x="72.3901" y="-476.5" font-family="Helvetica,sans-Serif" font-size="10.00" fill="#000000">Manifold&lt; dim, spacedim &gt;</text>
</a>
</g>
</g>
<!-- Node5&#45;&gt;Node4 -->
<g id="edge5" class="edge">
<title>Node5&#45;&gt;Node4</title>
<path fill="none" stroke="#191970" d="M72.3901,-460.2842C72.3901,-451.3664 72.3901,-440.9504 72.3901,-432.7488"/>
<polygon fill="#191970" stroke="#191970" points="68.8902,-460.4992 72.3901,-470.4992 75.8902,-460.4993 68.8902,-460.4992"/>
</g>
<!-- Node7&#45;&gt;Node2 -->
<g id="edge6" class="edge">
<title>Node7&#45;&gt;Node2</title>
<path fill="none" stroke="#ffa500" stroke-dasharray="5,2" d="M121.2867,-275.9526C116.34,-272.0543 111.2673,-267.9561 106.5923,-264 95.7767,-254.8477 84.0314,-244.0311 75.0897,-235.6006"/>
<polygon fill="#ffa500" stroke="#ffa500" points="119.3582,-278.8868 129.4003,-282.2644 123.6563,-273.3617 119.3582,-278.8868"/>
<text text-anchor="middle" x="135.2891" y="-256" font-family="Helvetica,sans-Serif" font-size="10.00" fill="#000000"> &lt; dim, dim &gt;</text>
</g>
<!-- Node8 -->
<g id="node8" class="node">
<title>Node8</title>
<g id="a_node8"><a xlink:href="classHyperBallBoundary.html" target="_top" xlink:title="HyperBallBoundary\&lt;\l dim, spacedim \&gt;">
<polygon fill="#ffffff" stroke="#000000" points="138.3916,-207.5 138.3916,-235.5 246.3887,-235.5 246.3887,-207.5 138.3916,-207.5"/>
<text text-anchor="start" x="146.3916" y="-223.5" font-family="Helvetica,sans-Serif" font-size="10.00" fill="#000000">HyperBallBoundary&lt;</text>
<text text-anchor="middle" x="192.3901" y="-213.5" font-family="Helvetica,sans-Serif" font-size="10.00" fill="#000000"> dim, spacedim &gt;</text>
</a>
</g>
</g>
<!-- Node7&#45;&gt;Node8 -->
<g id="edge9" class="edge">
<title>Node7&#45;&gt;Node8</title>
<path fill="none" stroke="#191970" d="M162.6308,-273.5998C164.585,-270.3877 166.5506,-267.119 168.3901,-264 173.9,-254.6575 179.9,-244.0325 184.5226,-235.7431"/>
<polygon fill="#191970" stroke="#191970" points="159.5189,-271.979 157.2685,-282.3321 165.484,-275.6421 159.5189,-271.979"/>
</g>
<!-- Node8&#45;&gt;Node1 -->
<g id="edge8" class="edge">
<title>Node8&#45;&gt;Node1</title>
<path fill="none" stroke="#ffa500" stroke-dasharray="5,2" d="M172.8248,-199.5986C161.5639,-186.993 147.7466,-171.5259 137.9358,-160.5437"/>
<polygon fill="#ffa500" stroke="#ffa500" points="170.5156,-202.2672 179.7879,-207.3931 175.736,-197.6037 170.5156,-202.2672"/>
<text text-anchor="middle" x="180.4541" y="-181" font-family="Helvetica,sans-Serif" font-size="10.00" fill="#000000"> &lt; dim &gt;</text>
</g>
</g>
</svg>
