<?xml version="1.0" encoding="UTF-8" standalone="no"?>
<!DOCTYPE svg PUBLIC "-//W3C//DTD SVG 1.1//EN"
 "http://www.w3.org/Graphics/SVG/1.1/DTD/svg11.dtd">
<!-- Generated by graphviz version 2.40.1 (20161225.0304)
 -->
<!-- Title: FE_PolyFace&lt; PolynomialType, dim, spacedim &gt; Pages: 1 -->
<svg width="962pt" height="113pt"
 viewBox="0.00 0.00 962.30 113.00" xmlns="http://www.w3.org/2000/svg" xmlns:xlink="http://www.w3.org/1999/xlink">
<g id="graph0" class="graph" transform="scale(1 1) rotate(0) translate(4 109)">
<title>FE_PolyFace&lt; PolynomialType, dim, spacedim &gt;</title>
<polygon fill="#ffffff" stroke="transparent" points="-4,4 -4,-109 958.2998,-109 958.2998,4 -4,4"/>
<!-- Node0 -->
<g id="node1" class="node">
<title>Node0</title>
<polygon fill="#bfbfbf" stroke="#000000" points="282.748,-49.5 282.748,-77.5 440.7646,-77.5 440.7646,-49.5 282.748,-49.5"/>
<text text-anchor="start" x="290.748" y="-65.5" font-family="Helvetica,sans-Serif" font-size="10.00" fill="#000000">FE_PolyFace&lt; PolynomialType,</text>
<text text-anchor="middle" x="361.7563" y="-55.5" font-family="Helvetica,sans-Serif" font-size="10.00" fill="#000000"> dim, spacedim &gt;</text>
</g>
<!-- Node4 -->
<g id="node5" class="node">
<title>Node4</title>
<g id="a_node5"><a xlink:href="classFE__PolyFace.html" target="_top" xlink:title="FE_PolyFace\&lt; PolynomialSpace\l\&lt; dim&#45;1 \&gt;, dim, spacedim \&gt;">
<polygon fill="#ffffff" stroke="#000000" points="606.374,-76.5 606.374,-104.5 768.2822,-104.5 768.2822,-76.5 606.374,-76.5"/>
<text text-anchor="start" x="614.374" y="-92.5" font-family="Helvetica,sans-Serif" font-size="10.00" fill="#000000">FE_PolyFace&lt; PolynomialSpace</text>
<text text-anchor="middle" x="687.3281" y="-82.5" font-family="Helvetica,sans-Serif" font-size="10.00" fill="#000000">&lt; dim&#45;1 &gt;, dim, spacedim &gt;</text>
</a>
</g>
</g>
<!-- Node0&#45;&gt;Node4 -->
<g id="edge4" class="edge">
<title>Node0&#45;&gt;Node4</title>
<path fill="none" stroke="#ffa500" stroke-dasharray="5,2" d="M451.1607,-70.9144C499.6736,-74.9376 559.1829,-79.8728 606.3279,-83.7826"/>
<polygon fill="#ffa500" stroke="#ffa500" points="451.2389,-67.409 440.9838,-70.0704 450.6603,-74.385 451.2389,-67.409"/>
<text text-anchor="start" x="466.0474" y="-93.5" font-family="Helvetica,sans-Serif" font-size="10.00" fill="#000000"> &lt; PolynomialSpace&lt;</text>
<text text-anchor="middle" x="523.5693" y="-83.5" font-family="Helvetica,sans-Serif" font-size="10.00" fill="#000000"> dim&#45;1 &gt;, dim, spacedim &gt;</text>
</g>
<!-- Node6 -->
<g id="node7" class="node">
<title>Node6</title>
<g id="a_node7"><a xlink:href="classFE__PolyFace.html" target="_top" xlink:title="FE_PolyFace\&lt; TensorProduct\lPolynomials\&lt; dim&#45;1 \&gt;, dim,\l spacedim \&gt;">
<polygon fill="#ffffff" stroke="#000000" points="612.856,-19.5 612.856,-57.5 761.8003,-57.5 761.8003,-19.5 612.856,-19.5"/>
<text text-anchor="start" x="620.856" y="-45.5" font-family="Helvetica,sans-Serif" font-size="10.00" fill="#000000">FE_PolyFace&lt; TensorProduct</text>
<text text-anchor="start" x="620.856" y="-35.5" font-family="Helvetica,sans-Serif" font-size="10.00" fill="#000000">Polynomials&lt; dim&#45;1 &gt;, dim,</text>
<text text-anchor="middle" x="687.3281" y="-25.5" font-family="Helvetica,sans-Serif" font-size="10.00" fill="#000000"> spacedim &gt;</text>
</a>
</g>
</g>
<!-- Node0&#45;&gt;Node6 -->
<g id="edge6" class="edge">
<title>Node0&#45;&gt;Node6</title>
<path fill="none" stroke="#ffa500" stroke-dasharray="5,2" d="M439.9153,-47.9347C446.2753,-46.9926 452.6175,-46.1605 458.7646,-45.5 509.9803,-39.9968 567.9941,-38.2739 612.7585,-37.9129"/>
<polygon fill="#ffa500" stroke="#ffa500" points="439.2705,-44.493 429.9319,-49.497 440.3528,-51.4088 439.2705,-44.493"/>
<text text-anchor="start" x="458.7646" y="-57.5" font-family="Helvetica,sans-Serif" font-size="10.00" fill="#000000"> &lt; TensorProductPolynomials</text>
<text text-anchor="middle" x="523.5693" y="-47.5" font-family="Helvetica,sans-Serif" font-size="10.00" fill="#000000">&lt; dim&#45;1 &gt;, dim, spacedim &gt;</text>
</g>
<!-- Node1 -->
<g id="node2" class="node">
<title>Node1</title>
<g id="a_node2"><a xlink:href="classFiniteElement.html" target="_top" xlink:title="FiniteElement\&lt; dim,\l spacedim \&gt;">
<polygon fill="#ffffff" stroke="#000000" points="141.1006,-49.5 141.1006,-77.5 245.748,-77.5 245.748,-49.5 141.1006,-49.5"/>
<text text-anchor="start" x="149.1006" y="-65.5" font-family="Helvetica,sans-Serif" font-size="10.00" fill="#000000">FiniteElement&lt; dim,</text>
<text text-anchor="middle" x="193.4243" y="-55.5" font-family="Helvetica,sans-Serif" font-size="10.00" fill="#000000"> spacedim &gt;</text>
</a>
</g>
</g>
<!-- Node1&#45;&gt;Node0 -->
<g id="edge1" class="edge">
<title>Node1&#45;&gt;Node0</title>
<path fill="none" stroke="#191970" d="M255.8191,-63.5C264.5374,-63.5 273.5903,-63.5 282.5675,-63.5"/>
<polygon fill="#191970" stroke="#191970" points="255.7629,-60.0001 245.7629,-63.5 255.7629,-67.0001 255.7629,-60.0001"/>
</g>
<!-- Node2 -->
<g id="node3" class="node">
<title>Node2</title>
<g id="a_node3"><a xlink:href="classSubscriptor.html" target="_top" xlink:title="Subscriptor">
<polygon fill="#ffffff" stroke="#000000" points="18.7622,-75.5 18.7622,-93.5 85.3384,-93.5 85.3384,-75.5 18.7622,-75.5"/>
<text text-anchor="middle" x="52.0503" y="-81.5" font-family="Helvetica,sans-Serif" font-size="10.00" fill="#000000">Subscriptor</text>
</a>
</g>
</g>
<!-- Node2&#45;&gt;Node1 -->
<g id="edge2" class="edge">
<title>Node2&#45;&gt;Node1</title>
<path fill="none" stroke="#191970" d="M95.6606,-78.022C110.0246,-75.8884 126.1458,-73.4937 141.091,-71.2737"/>
<polygon fill="#191970" stroke="#191970" points="94.9311,-74.5919 85.554,-79.5233 95.9597,-81.5159 94.9311,-74.5919"/>
</g>
<!-- Node3 -->
<g id="node4" class="node">
<title>Node3</title>
<g id="a_node4"><a xlink:href="classFiniteElementData.html" target="_top" xlink:title="FiniteElementData\&lt;\l dim \&gt;">
<polygon fill="#ffffff" stroke="#000000" points="0,-28.5 0,-56.5 104.1006,-56.5 104.1006,-28.5 0,-28.5"/>
<text text-anchor="start" x="8" y="-44.5" font-family="Helvetica,sans-Serif" font-size="10.00" fill="#000000">FiniteElementData&lt;</text>
<text text-anchor="middle" x="52.0503" y="-34.5" font-family="Helvetica,sans-Serif" font-size="10.00" fill="#000000"> dim &gt;</text>
</a>
</g>
</g>
<!-- Node3&#45;&gt;Node1 -->
<g id="edge3" class="edge">
<title>Node3&#45;&gt;Node1</title>
<path fill="none" stroke="#191970" d="M114.2377,-51.7374C123.1434,-53.0603 132.2318,-54.4103 140.9263,-55.7018"/>
<polygon fill="#191970" stroke="#191970" points="114.6968,-48.2673 104.2911,-50.26 113.6683,-55.1914 114.6968,-48.2673"/>
</g>
<!-- Node5 -->
<g id="node6" class="node">
<title>Node5</title>
<g id="a_node6"><a xlink:href="classFE__FaceP.html" target="_top" xlink:title="FE_FaceP\&lt; dim, spacedim \&gt;">
<polygon fill="#ffffff" stroke="#000000" points="807.3184,-81.5 807.3184,-99.5 952.2637,-99.5 952.2637,-81.5 807.3184,-81.5"/>
<text text-anchor="middle" x="879.791" y="-87.5" font-family="Helvetica,sans-Serif" font-size="10.00" fill="#000000">FE_FaceP&lt; dim, spacedim &gt;</text>
</a>
</g>
</g>
<!-- Node4&#45;&gt;Node5 -->
<g id="edge5" class="edge">
<title>Node4&#45;&gt;Node5</title>
<path fill="none" stroke="#191970" d="M778.6855,-90.5C788.2112,-90.5 797.8007,-90.5 807.0794,-90.5"/>
<polygon fill="#191970" stroke="#191970" points="778.3919,-87.0001 768.3919,-90.5 778.3919,-94.0001 778.3919,-87.0001"/>
</g>
<!-- Node7 -->
<g id="node8" class="node">
<title>Node7</title>
<g id="a_node8"><a xlink:href="classFE__FaceQ.html" target="_top" xlink:title="FE_FaceQ\&lt; dim, spacedim \&gt;">
<polygon fill="#ffffff" stroke="#000000" points="806.7642,-37.5 806.7642,-55.5 952.8179,-55.5 952.8179,-37.5 806.7642,-37.5"/>
<text text-anchor="middle" x="879.791" y="-43.5" font-family="Helvetica,sans-Serif" font-size="10.00" fill="#000000">FE_FaceQ&lt; dim, spacedim &gt;</text>
</a>
</g>
</g>
<!-- Node6&#45;&gt;Node7 -->
<g id="edge7" class="edge">
<title>Node6&#45;&gt;Node7</title>
<path fill="none" stroke="#191970" d="M772.0892,-42.0232C783.6381,-42.5033 795.4105,-42.9926 806.7283,-43.463"/>
<polygon fill="#191970" stroke="#191970" points="772.1515,-38.5229 762.0148,-41.6045 771.8608,-45.5168 772.1515,-38.5229"/>
</g>
<!-- Node8 -->
<g id="node9" class="node">
<title>Node8</title>
<g id="a_node9"><a xlink:href="classFE__TraceQ.html" target="_top" xlink:title="FE_TraceQ\&lt; dim, spacedim \&gt;">
<polygon fill="#ffffff" stroke="#000000" points="805.2822,-.5 805.2822,-18.5 954.2998,-18.5 954.2998,-.5 805.2822,-.5"/>
<text text-anchor="middle" x="879.791" y="-6.5" font-family="Helvetica,sans-Serif" font-size="10.00" fill="#000000">FE_TraceQ&lt; dim, spacedim &gt;</text>
</a>
</g>
</g>
<!-- Node6&#45;&gt;Node8 -->
<g id="edge8" class="edge">
<title>Node6&#45;&gt;Node8</title>
<path fill="none" stroke="#191970" d="M772.0212,-25.7386C788.2107,-23.2992 804.8423,-20.7932 820.0472,-18.5021"/>
<polygon fill="#191970" stroke="#191970" points="771.3816,-22.2954 762.0148,-27.2463 772.4247,-29.2172 771.3816,-22.2954"/>
</g>
</g>
</svg>
