<?xml version="1.0" encoding="UTF-8" standalone="no"?>
<!DOCTYPE svg PUBLIC "-//W3C//DTD SVG 1.1//EN"
 "http://www.w3.org/Graphics/SVG/1.1/DTD/svg11.dtd">
<!-- Generated by graphviz version 2.40.1 (20161225.0304)
 -->
<!-- Title: SparseILU&lt; number &gt; Pages: 1 -->
<svg width="180pt" height="202pt"
 viewBox="0.00 0.00 180.33 202.00" xmlns="http://www.w3.org/2000/svg" xmlns:xlink="http://www.w3.org/1999/xlink">
<g id="graph0" class="graph" transform="scale(1 1) rotate(0) translate(4 198)">
<title>SparseILU&lt; number &gt;</title>
<polygon fill="#ffffff" stroke="transparent" points="-4,4 -4,-198 176.3296,-198 176.3296,4 -4,4"/>
<!-- Node0 -->
<g id="node1" class="node">
<title>Node0</title>
<polygon fill="#bfbfbf" stroke="#000000" points="6.1108,-.5 6.1108,-18.5 120.4995,-18.5 120.4995,-.5 6.1108,-.5"/>
<text text-anchor="middle" x="63.3052" y="-6.5" font-family="Helvetica,sans-Serif" font-size="10.00" fill="#000000">SparseILU&lt; number &gt;</text>
</g>
<!-- Node1 -->
<g id="node2" class="node">
<title>Node1</title>
<g id="a_node2"><a xlink:href="classSparseLUDecomposition.html" target="_top" xlink:title="SparseLUDecomposition\l\&lt; number \&gt;">
<polygon fill="#ffffff" stroke="#000000" points="0,-55.5 0,-83.5 126.6104,-83.5 126.6104,-55.5 0,-55.5"/>
<text text-anchor="start" x="8" y="-71.5" font-family="Helvetica,sans-Serif" font-size="10.00" fill="#000000">SparseLUDecomposition</text>
<text text-anchor="middle" x="63.3052" y="-61.5" font-family="Helvetica,sans-Serif" font-size="10.00" fill="#000000">&lt; number &gt;</text>
</a>
</g>
</g>
<!-- Node1&#45;&gt;Node0 -->
<g id="edge1" class="edge">
<title>Node1&#45;&gt;Node0</title>
<path fill="none" stroke="#191970" d="M63.3052,-45.2151C63.3052,-35.8253 63.3052,-25.6598 63.3052,-18.5842"/>
<polygon fill="#191970" stroke="#191970" points="59.8053,-45.2808 63.3052,-55.2808 66.8053,-45.2809 59.8053,-45.2808"/>
</g>
<!-- Node2 -->
<g id="node3" class="node">
<title>Node2</title>
<g id="a_node3"><a xlink:href="classSparseMatrix.html" target="_top" xlink:title="SparseMatrix\&lt; number \&gt;">
<polygon fill="#ffffff" stroke="#000000" points="46.2808,-120.5 46.2808,-138.5 172.3296,-138.5 172.3296,-120.5 46.2808,-120.5"/>
<text text-anchor="middle" x="109.3052" y="-126.5" font-family="Helvetica,sans-Serif" font-size="10.00" fill="#000000">SparseMatrix&lt; number &gt;</text>
</a>
</g>
</g>
<!-- Node2&#45;&gt;Node1 -->
<g id="edge2" class="edge">
<title>Node2&#45;&gt;Node1</title>
<path fill="none" stroke="#006400" d="M96.0261,-112.1795C89.1395,-103.1969 80.8279,-92.3558 74.305,-83.8477"/>
<polygon fill="#006400" stroke="#006400" points="93.4568,-114.5807 102.3188,-120.3873 99.012,-110.3217 93.4568,-114.5807"/>
</g>
<!-- Node3 -->
<g id="node4" class="node">
<title>Node3</title>
<g id="a_node4"><a xlink:href="classSubscriptor.html" target="_top" xlink:title="Subscriptor">
<polygon fill="#ffffff" stroke="#000000" points="30.0171,-175.5 30.0171,-193.5 96.5933,-193.5 96.5933,-175.5 30.0171,-175.5"/>
<text text-anchor="middle" x="63.3052" y="-181.5" font-family="Helvetica,sans-Serif" font-size="10.00" fill="#000000">Subscriptor</text>
</a>
</g>
</g>
<!-- Node3&#45;&gt;Node1 -->
<g id="edge4" class="edge">
<title>Node3&#45;&gt;Node1</title>
<path fill="none" stroke="#191970" d="M50.3802,-166.8819C45.2359,-158.8107 39.9235,-148.8594 37.3052,-139 32.0808,-119.3273 43.2092,-97.4641 52.495,-83.6081"/>
<polygon fill="#191970" stroke="#191970" points="47.6455,-169.0841 56.1703,-175.3751 53.4293,-165.141 47.6455,-169.0841"/>
</g>
<!-- Node3&#45;&gt;Node2 -->
<g id="edge3" class="edge">
<title>Node3&#45;&gt;Node2</title>
<path fill="none" stroke="#191970" d="M77.3349,-167.7253C85.289,-158.215 94.9403,-146.6754 101.5442,-138.7795"/>
<polygon fill="#191970" stroke="#191970" points="74.632,-165.5016 70.9011,-175.4179 80.0015,-169.9925 74.632,-165.5016"/>
</g>
</g>
</svg>
