<?xml version="1.0" encoding="UTF-8" standalone="no"?>
<!DOCTYPE svg PUBLIC "-//W3C//DTD SVG 1.1//EN"
 "http://www.w3.org/Graphics/SVG/1.1/DTD/svg11.dtd">
<!-- Generated by graphviz version 2.40.1 (20161225.0304)
 -->
<!-- Title: PreconditionSOR&lt; MatrixType &gt; Pages: 1 -->
<svg width="167pt" height="147pt"
 viewBox="0.00 0.00 167.40 147.00" xmlns="http://www.w3.org/2000/svg" xmlns:xlink="http://www.w3.org/1999/xlink">
<g id="graph0" class="graph" transform="scale(1 1) rotate(0) translate(4 143)">
<title>PreconditionSOR&lt; MatrixType &gt;</title>
<polygon fill="#ffffff" stroke="transparent" points="-4,4 -4,-143 163.4033,-143 163.4033,4 -4,4"/>
<!-- Node0 -->
<g id="node1" class="node">
<title>Node0</title>
<polygon fill="#bfbfbf" stroke="#000000" points="0,-.5 0,-18.5 159.4033,-18.5 159.4033,-.5 0,-.5"/>
<text text-anchor="middle" x="79.7017" y="-6.5" font-family="Helvetica,sans-Serif" font-size="10.00" fill="#000000">PreconditionSOR&lt; MatrixType &gt;</text>
</g>
<!-- Node1 -->
<g id="node2" class="node">
<title>Node1</title>
<g id="a_node2"><a xlink:href="classPreconditionRelaxation.html" target="_top" xlink:title="PreconditionRelaxation\l\&lt; MatrixType \&gt;">
<polygon fill="#ffffff" stroke="#000000" points="20.2808,-55.5 20.2808,-83.5 139.1226,-83.5 139.1226,-55.5 20.2808,-55.5"/>
<text text-anchor="start" x="28.2808" y="-71.5" font-family="Helvetica,sans-Serif" font-size="10.00" fill="#000000">PreconditionRelaxation</text>
<text text-anchor="middle" x="79.7017" y="-61.5" font-family="Helvetica,sans-Serif" font-size="10.00" fill="#000000">&lt; MatrixType &gt;</text>
</a>
</g>
</g>
<!-- Node1&#45;&gt;Node0 -->
<g id="edge1" class="edge">
<title>Node1&#45;&gt;Node0</title>
<path fill="none" stroke="#191970" d="M79.7017,-45.2151C79.7017,-35.8253 79.7017,-25.6598 79.7017,-18.5842"/>
<polygon fill="#191970" stroke="#191970" points="76.2018,-45.2808 79.7017,-55.2808 83.2018,-45.2809 76.2018,-45.2808"/>
</g>
<!-- Node2 -->
<g id="node3" class="node">
<title>Node2</title>
<g id="a_node3"><a xlink:href="classSubscriptor.html" target="_top" xlink:title="Subscriptor">
<polygon fill="#ffffff" stroke="#000000" points="46.4136,-120.5 46.4136,-138.5 112.9897,-138.5 112.9897,-120.5 46.4136,-120.5"/>
<text text-anchor="middle" x="79.7017" y="-126.5" font-family="Helvetica,sans-Serif" font-size="10.00" fill="#000000">Subscriptor</text>
</a>
</g>
</g>
<!-- Node2&#45;&gt;Node1 -->
<g id="edge2" class="edge">
<title>Node2&#45;&gt;Node1</title>
<path fill="none" stroke="#191970" d="M79.7017,-110.1865C79.7017,-101.6283 79.7017,-91.7354 79.7017,-83.8477"/>
<polygon fill="#191970" stroke="#191970" points="76.2018,-110.3873 79.7017,-120.3873 83.2018,-110.3873 76.2018,-110.3873"/>
</g>
</g>
</svg>
