<?xml version="1.0" encoding="UTF-8" standalone="no"?>
<!DOCTYPE svg PUBLIC "-//W3C//DTD SVG 1.1//EN"
 "http://www.w3.org/Graphics/SVG/1.1/DTD/svg11.dtd">
<!-- Generated by graphviz version 2.40.1 (20161225.0304)
 -->
<!-- Title: PointerMatrixBase&lt; VectorType &gt; Pages: 1 -->
<svg width="666pt" height="178pt"
 viewBox="0.00 0.00 666.14 178.00" xmlns="http://www.w3.org/2000/svg" xmlns:xlink="http://www.w3.org/1999/xlink">
<g id="graph0" class="graph" transform="scale(1 1) rotate(0) translate(4 174)">
<title>PointerMatrixBase&lt; VectorType &gt;</title>
<polygon fill="#ffffff" stroke="transparent" points="-4,4 -4,-174 662.1406,-174 662.1406,4 -4,4"/>
<!-- Node0 -->
<g id="node1" class="node">
<title>Node0</title>
<polygon fill="#bfbfbf" stroke="#000000" points="103.5762,-78.5 103.5762,-106.5 207.1152,-106.5 207.1152,-78.5 103.5762,-78.5"/>
<text text-anchor="start" x="111.5762" y="-94.5" font-family="Helvetica,sans-Serif" font-size="10.00" fill="#000000">PointerMatrixBase&lt;</text>
<text text-anchor="middle" x="155.3457" y="-84.5" font-family="Helvetica,sans-Serif" font-size="10.00" fill="#000000"> VectorType &gt;</text>
</g>
<!-- Node2 -->
<g id="node3" class="node">
<title>Node2</title>
<g id="a_node3"><a xlink:href="classPointerMatrix.html" target="_top" xlink:title="PointerMatrix\&lt; VectorType \&gt;">
<polygon fill="#ffffff" stroke="#000000" points="375.6982,-151.5 375.6982,-169.5 517.8799,-169.5 517.8799,-151.5 375.6982,-151.5"/>
<text text-anchor="middle" x="446.7891" y="-157.5" font-family="Helvetica,sans-Serif" font-size="10.00" fill="#000000">PointerMatrix&lt; VectorType &gt;</text>
</a>
</g>
</g>
<!-- Node0&#45;&gt;Node2 -->
<g id="edge2" class="edge">
<title>Node0&#45;&gt;Node2</title>
<path fill="none" stroke="#191970" d="M200.8188,-109.9182C208.8469,-112.6699 217.176,-115.3212 225.1152,-117.5 279.1759,-132.3358 342.0089,-144.0144 386.9455,-151.4338"/>
<polygon fill="#191970" stroke="#191970" points="201.8169,-106.559 191.2221,-106.5371 199.4908,-113.1613 201.8169,-106.559"/>
</g>
<!-- Node3 -->
<g id="node4" class="node">
<title>Node3</title>
<g id="a_node4"><a xlink:href="classPointerMatrixAux.html" target="_top" xlink:title="PointerMatrixAux\&lt; Vector\lType \&gt;">
<polygon fill="#ffffff" stroke="#000000" points="382.2339,-104.5 382.2339,-132.5 511.3442,-132.5 511.3442,-104.5 382.2339,-104.5"/>
<text text-anchor="start" x="390.2339" y="-120.5" font-family="Helvetica,sans-Serif" font-size="10.00" fill="#000000">PointerMatrixAux&lt; Vector</text>
<text text-anchor="middle" x="446.7891" y="-110.5" font-family="Helvetica,sans-Serif" font-size="10.00" fill="#000000">Type &gt;</text>
</a>
</g>
</g>
<!-- Node0&#45;&gt;Node3 -->
<g id="edge3" class="edge">
<title>Node0&#45;&gt;Node3</title>
<path fill="none" stroke="#191970" d="M217.4955,-98.0445C265.9589,-102.3679 333.052,-108.3534 382.1408,-112.7327"/>
<polygon fill="#191970" stroke="#191970" points="217.7214,-94.5508 207.4499,-97.1483 217.0993,-101.5231 217.7214,-94.5508"/>
</g>
<!-- Node4 -->
<g id="node5" class="node">
<title>Node4</title>
<g id="a_node5"><a xlink:href="classPointerMatrixBase.html" target="_top" xlink:title="PointerMatrixBase\&lt;\l typename BlockVectorType\l::BlockType \&gt;">
<polygon fill="#ffffff" stroke="#000000" points="376.8066,-47.5 376.8066,-85.5 516.7715,-85.5 516.7715,-47.5 376.8066,-47.5"/>
<text text-anchor="start" x="384.8066" y="-73.5" font-family="Helvetica,sans-Serif" font-size="10.00" fill="#000000">PointerMatrixBase&lt;</text>
<text text-anchor="start" x="384.8066" y="-63.5" font-family="Helvetica,sans-Serif" font-size="10.00" fill="#000000"> typename BlockVectorType</text>
<text text-anchor="middle" x="446.7891" y="-53.5" font-family="Helvetica,sans-Serif" font-size="10.00" fill="#000000">::BlockType &gt;</text>
</a>
</g>
</g>
<!-- Node0&#45;&gt;Node4 -->
<g id="edge4" class="edge">
<title>Node0&#45;&gt;Node4</title>
<path fill="none" stroke="#ffa500" stroke-dasharray="5,2" d="M214.0804,-76.3872C217.7978,-75.6656 221.4981,-75.0255 225.1152,-74.5 275.4204,-67.1912 332.7846,-65.2926 376.5536,-65.1682"/>
<polygon fill="#ffa500" stroke="#ffa500" points="213.3062,-72.9734 204.2457,-78.465 214.7533,-79.8222 213.3062,-72.9734"/>
<text text-anchor="start" x="225.1152" y="-86.5" font-family="Helvetica,sans-Serif" font-size="10.00" fill="#000000"> &lt; typename BlockVectorType</text>
<text text-anchor="middle" x="291.4067" y="-76.5" font-family="Helvetica,sans-Serif" font-size="10.00" fill="#000000">::BlockType &gt;</text>
</g>
<!-- Node5 -->
<g id="node6" class="node">
<title>Node5</title>
<g id="a_node6"><a xlink:href="classPointerMatrixBase.html" target="_top" xlink:title="PointerMatrixBase\&lt;\l Vector\&lt; number \&gt; \&gt;">
<polygon fill="#ffffff" stroke="#000000" points="393.3423,-.5 393.3423,-28.5 500.2358,-28.5 500.2358,-.5 393.3423,-.5"/>
<text text-anchor="start" x="401.3423" y="-16.5" font-family="Helvetica,sans-Serif" font-size="10.00" fill="#000000">PointerMatrixBase&lt;</text>
<text text-anchor="middle" x="446.7891" y="-6.5" font-family="Helvetica,sans-Serif" font-size="10.00" fill="#000000"> Vector&lt; number &gt; &gt;</text>
</a>
</g>
</g>
<!-- Node0&#45;&gt;Node5 -->
<g id="edge5" class="edge">
<title>Node0&#45;&gt;Node5</title>
<path fill="none" stroke="#ffa500" stroke-dasharray="5,2" d="M183.2851,-72.9029C195.5989,-65.1234 210.5571,-56.7867 225.1152,-51.5 280.3098,-31.4563 347.2215,-22.1919 392.9975,-17.96"/>
<polygon fill="#ffa500" stroke="#ffa500" points="181.2936,-70.023 174.8295,-78.4174 185.1176,-75.8863 181.2936,-70.023"/>
<text text-anchor="middle" x="291.4067" y="-53.5" font-family="Helvetica,sans-Serif" font-size="10.00" fill="#000000"> &lt; Vector&lt; number &gt; &gt;</text>
</g>
<!-- Node1 -->
<g id="node2" class="node">
<title>Node1</title>
<g id="a_node2"><a xlink:href="classSubscriptor.html" target="_top" xlink:title="Subscriptor">
<polygon fill="#ffffff" stroke="#000000" points="0,-83.5 0,-101.5 66.5762,-101.5 66.5762,-83.5 0,-83.5"/>
<text text-anchor="middle" x="33.2881" y="-89.5" font-family="Helvetica,sans-Serif" font-size="10.00" fill="#000000">Subscriptor</text>
</a>
</g>
</g>
<!-- Node1&#45;&gt;Node0 -->
<g id="edge1" class="edge">
<title>Node1&#45;&gt;Node0</title>
<path fill="none" stroke="#191970" d="M76.7857,-92.5C85.3489,-92.5 94.4152,-92.5 103.2282,-92.5"/>
<polygon fill="#191970" stroke="#191970" points="76.6409,-89.0001 66.6409,-92.5 76.6408,-96.0001 76.6409,-89.0001"/>
</g>
<!-- Node6 -->
<g id="node7" class="node">
<title>Node6</title>
<g id="a_node7"><a xlink:href="classPointerMatrixVector.html" target="_top" xlink:title="PointerMatrixVector\l\&lt; number \&gt;">
<polygon fill="#ffffff" stroke="#000000" points="554.8799,-.5 554.8799,-28.5 658.1406,-28.5 658.1406,-.5 554.8799,-.5"/>
<text text-anchor="start" x="562.8799" y="-16.5" font-family="Helvetica,sans-Serif" font-size="10.00" fill="#000000">PointerMatrixVector</text>
<text text-anchor="middle" x="606.5103" y="-6.5" font-family="Helvetica,sans-Serif" font-size="10.00" fill="#000000">&lt; number &gt;</text>
</a>
</g>
</g>
<!-- Node5&#45;&gt;Node6 -->
<g id="edge6" class="edge">
<title>Node5&#45;&gt;Node6</title>
<path fill="none" stroke="#191970" d="M510.4303,-14.5C525.1054,-14.5 540.5433,-14.5 554.6473,-14.5"/>
<polygon fill="#191970" stroke="#191970" points="510.4183,-11.0001 500.4182,-14.5 510.4182,-18.0001 510.4183,-11.0001"/>
</g>
</g>
</svg>
