<?xml version="1.0" encoding="UTF-8" standalone="no"?>
<!DOCTYPE svg PUBLIC "-//W3C//DTD SVG 1.1//EN"
 "http://www.w3.org/Graphics/SVG/1.1/DTD/svg11.dtd">
<!-- Generated by graphviz version 2.40.1 (20161225.0304)
 -->
<!-- Title: MGSmoother&lt; VectorType &gt; Pages: 1 -->
<svg width="951pt" height="178pt"
 viewBox="0.00 0.00 950.92 178.00" xmlns="http://www.w3.org/2000/svg" xmlns:xlink="http://www.w3.org/1999/xlink">
<g id="graph0" class="graph" transform="scale(1 1) rotate(0) translate(4 174)">
<title>MGSmoother&lt; VectorType &gt;</title>
<polygon fill="#ffffff" stroke="transparent" points="-4,4 -4,-174 946.918,-174 946.918,4 -4,4"/>
<!-- Node0 -->
<g id="node1" class="node">
<title>Node0</title>
<polygon fill="#bfbfbf" stroke="#000000" points="306.1074,-75.5 306.1074,-93.5 448.8457,-93.5 448.8457,-75.5 306.1074,-75.5"/>
<text text-anchor="middle" x="377.4766" y="-81.5" font-family="Helvetica,sans-Serif" font-size="10.00" fill="#000000">MGSmoother&lt; VectorType &gt;</text>
</g>
<!-- Node3 -->
<g id="node4" class="node">
<title>Node3</title>
<g id="a_node4"><a xlink:href="classmg_1_1SmootherRelaxation.html" target="_top" xlink:title="mg::SmootherRelaxation\l\&lt; VectorType \&gt;">
<polygon fill="#ffffff" stroke="#000000" points="614.228,-141.5 614.228,-169.5 740.2817,-169.5 740.2817,-141.5 614.228,-141.5"/>
<text text-anchor="start" x="622.228" y="-157.5" font-family="Helvetica,sans-Serif" font-size="10.00" fill="#000000">mg::SmootherRelaxation</text>
<text text-anchor="middle" x="677.2549" y="-147.5" font-family="Helvetica,sans-Serif" font-size="10.00" fill="#000000">&lt; VectorType &gt;</text>
</a>
</g>
</g>
<!-- Node0&#45;&gt;Node3 -->
<g id="edge3" class="edge">
<title>Node0&#45;&gt;Node3</title>
<path fill="none" stroke="#191970" d="M416.5407,-96.5305C432.1217,-101.1542 450.265,-106.3209 466.8457,-110.5 515.9273,-122.8709 571.9987,-134.753 613.91,-143.198"/>
<polygon fill="#191970" stroke="#191970" points="417.2978,-93.1036 406.714,-93.5862 415.2887,-99.8091 417.2978,-93.1036"/>
</g>
<!-- Node4 -->
<g id="node5" class="node">
<title>Node4</title>
<g id="a_node5"><a xlink:href="classMGSmootherPrecondition.html" target="_top" xlink:title="MGSmootherPrecondition\l\&lt; VectorType \&gt;">
<polygon fill="#ffffff" stroke="#000000" points="611.728,-94.5 611.728,-122.5 742.7817,-122.5 742.7817,-94.5 611.728,-94.5"/>
<text text-anchor="start" x="619.728" y="-110.5" font-family="Helvetica,sans-Serif" font-size="10.00" fill="#000000">MGSmootherPrecondition</text>
<text text-anchor="middle" x="677.2549" y="-100.5" font-family="Helvetica,sans-Serif" font-size="10.00" fill="#000000">&lt; VectorType &gt;</text>
</a>
</g>
</g>
<!-- Node0&#45;&gt;Node4 -->
<g id="edge4" class="edge">
<title>Node0&#45;&gt;Node4</title>
<path fill="none" stroke="#191970" d="M458.9323,-91.0213C506.8357,-94.8564 566.6136,-99.6422 611.5013,-103.2358"/>
<polygon fill="#191970" stroke="#191970" points="459.1475,-87.5274 448.9001,-90.2181 458.5888,-94.5051 459.1475,-87.5274"/>
</g>
<!-- Node5 -->
<g id="node6" class="node">
<title>Node5</title>
<g id="a_node6"><a xlink:href="classMGSmootherRelaxation.html" target="_top" xlink:title="MGSmootherRelaxation\l\&lt; VectorType \&gt;">
<polygon fill="#ffffff" stroke="#000000" points="615.8979,-47.5 615.8979,-75.5 738.6118,-75.5 738.6118,-47.5 615.8979,-47.5"/>
<text text-anchor="start" x="623.8979" y="-63.5" font-family="Helvetica,sans-Serif" font-size="10.00" fill="#000000">MGSmootherRelaxation</text>
<text text-anchor="middle" x="677.2549" y="-53.5" font-family="Helvetica,sans-Serif" font-size="10.00" fill="#000000">&lt; VectorType &gt;</text>
</a>
</g>
</g>
<!-- Node0&#45;&gt;Node5 -->
<g id="edge5" class="edge">
<title>Node0&#45;&gt;Node5</title>
<path fill="none" stroke="#191970" d="M458.9101,-78.2521C508.2575,-74.466 570.2122,-69.7127 615.5091,-66.2373"/>
<polygon fill="#191970" stroke="#191970" points="458.603,-74.7653 448.9001,-79.0201 459.1386,-81.7448 458.603,-74.7653"/>
</g>
<!-- Node6 -->
<g id="node7" class="node">
<title>Node6</title>
<g id="a_node7"><a xlink:href="classMGSmoother.html" target="_top" xlink:title="MGSmoother\&lt; BlockVector\l\&lt; number \&gt; \&gt;">
<polygon fill="#ffffff" stroke="#000000" points="608.8105,-.5 608.8105,-28.5 745.6992,-28.5 745.6992,-.5 608.8105,-.5"/>
<text text-anchor="start" x="616.8105" y="-16.5" font-family="Helvetica,sans-Serif" font-size="10.00" fill="#000000">MGSmoother&lt; BlockVector</text>
<text text-anchor="middle" x="677.2549" y="-6.5" font-family="Helvetica,sans-Serif" font-size="10.00" fill="#000000">&lt; number &gt; &gt;</text>
</a>
</g>
</g>
<!-- Node0&#45;&gt;Node6 -->
<g id="edge6" class="edge">
<title>Node0&#45;&gt;Node6</title>
<path fill="none" stroke="#ffa500" stroke-dasharray="5,2" d="M411.271,-71.946C427.8556,-66.0969 448.2265,-59.3708 466.8457,-54.5 513.6107,-42.2663 567.139,-32.1425 608.5021,-25.1405"/>
<polygon fill="#ffa500" stroke="#ffa500" points="409.7186,-68.7842 401.4836,-75.4502 412.0782,-75.3745 409.7186,-68.7842"/>
<text text-anchor="middle" x="528.8281" y="-56.5" font-family="Helvetica,sans-Serif" font-size="10.00" fill="#000000"> &lt; BlockVector&lt; number &gt; &gt;</text>
</g>
<!-- Node1 -->
<g id="node2" class="node">
<title>Node1</title>
<g id="a_node2"><a xlink:href="classMGSmootherBase.html" target="_top" xlink:title="MGSmootherBase\&lt; VectorType \&gt;">
<polygon fill="#ffffff" stroke="#000000" points="103.5762,-75.5 103.5762,-93.5 269.1074,-93.5 269.1074,-75.5 103.5762,-75.5"/>
<text text-anchor="middle" x="186.3418" y="-81.5" font-family="Helvetica,sans-Serif" font-size="10.00" fill="#000000">MGSmootherBase&lt; VectorType &gt;</text>
</a>
</g>
</g>
<!-- Node1&#45;&gt;Node0 -->
<g id="edge1" class="edge">
<title>Node1&#45;&gt;Node0</title>
<path fill="none" stroke="#191970" d="M279.3879,-84.5C288.311,-84.5 297.2635,-84.5 305.9339,-84.5"/>
<polygon fill="#191970" stroke="#191970" points="279.3424,-81.0001 269.3424,-84.5 279.3424,-88.0001 279.3424,-81.0001"/>
</g>
<!-- Node2 -->
<g id="node3" class="node">
<title>Node2</title>
<g id="a_node3"><a xlink:href="classSubscriptor.html" target="_top" xlink:title="Subscriptor">
<polygon fill="#ffffff" stroke="#000000" points="0,-75.5 0,-93.5 66.5762,-93.5 66.5762,-75.5 0,-75.5"/>
<text text-anchor="middle" x="33.2881" y="-81.5" font-family="Helvetica,sans-Serif" font-size="10.00" fill="#000000">Subscriptor</text>
</a>
</g>
</g>
<!-- Node2&#45;&gt;Node1 -->
<g id="edge2" class="edge">
<title>Node2&#45;&gt;Node1</title>
<path fill="none" stroke="#191970" d="M77.0111,-84.5C85.3108,-84.5 94.2455,-84.5 103.3026,-84.5"/>
<polygon fill="#191970" stroke="#191970" points="76.8764,-81.0001 66.8764,-84.5 76.8763,-88.0001 76.8764,-81.0001"/>
</g>
<!-- Node7 -->
<g id="node8" class="node">
<title>Node7</title>
<g id="a_node8"><a xlink:href="classMGSmootherBlock.html" target="_top" xlink:title="MGSmootherBlock\&lt; MatrixType,\l RelaxationType, number \&gt;">
<polygon fill="#ffffff" stroke="#000000" points="782.6992,-.5 782.6992,-28.5 942.918,-28.5 942.918,-.5 782.6992,-.5"/>
<text text-anchor="start" x="790.6992" y="-16.5" font-family="Helvetica,sans-Serif" font-size="10.00" fill="#000000">MGSmootherBlock&lt; MatrixType,</text>
<text text-anchor="middle" x="862.8086" y="-6.5" font-family="Helvetica,sans-Serif" font-size="10.00" fill="#000000"> RelaxationType, number &gt;</text>
</a>
</g>
</g>
<!-- Node6&#45;&gt;Node7 -->
<g id="edge7" class="edge">
<title>Node6&#45;&gt;Node7</title>
<path fill="none" stroke="#191970" d="M756.0432,-14.5C764.8346,-14.5 773.7976,-14.5 782.6065,-14.5"/>
<polygon fill="#191970" stroke="#191970" points="755.8211,-11.0001 745.821,-14.5 755.821,-18.0001 755.8211,-11.0001"/>
</g>
</g>
</svg>
