<?xml version="1.0" encoding="UTF-8" standalone="no"?>
<!DOCTYPE svg PUBLIC "-//W3C//DTD SVG 1.1//EN"
 "http://www.w3.org/Graphics/SVG/1.1/DTD/svg11.dtd">
<!-- Generated by graphviz version 2.40.1 (20161225.0304)
 -->
<!-- Title: Polynomials::LagrangeEquidistant Pages: 1 -->
<svg width="228pt" height="224pt"
 viewBox="0.00 0.00 227.79 224.00" xmlns="http://www.w3.org/2000/svg" xmlns:xlink="http://www.w3.org/1999/xlink">
<g id="graph0" class="graph" transform="scale(1 1) rotate(0) translate(4 220)">
<title>Polynomials::LagrangeEquidistant</title>
<polygon fill="#ffffff" stroke="transparent" points="-4,4 -4,-220 223.7925,-220 223.7925,4 -4,4"/>
<!-- Node0 -->
<g id="node1" class="node">
<title>Node0</title>
<polygon fill="#bfbfbf" stroke="#000000" points="0,-.5 0,-18.5 167.2061,-18.5 167.2061,-.5 0,-.5"/>
<text text-anchor="middle" x="83.603" y="-6.5" font-family="Helvetica,sans-Serif" font-size="10.00" fill="#000000">Polynomials::LagrangeEquidistant</text>
</g>
<!-- Node1 -->
<g id="node2" class="node">
<title>Node1</title>
<g id="a_node2"><a xlink:href="classPolynomials_1_1Polynomial.html" target="_top" xlink:title="Polynomials::Polynomial\l\&lt; double \&gt;">
<polygon fill="#ffffff" stroke="#000000" points="21.4136,-56.5 21.4136,-84.5 145.7925,-84.5 145.7925,-56.5 21.4136,-56.5"/>
<text text-anchor="start" x="29.4136" y="-72.5" font-family="Helvetica,sans-Serif" font-size="10.00" fill="#000000">Polynomials::Polynomial</text>
<text text-anchor="middle" x="83.603" y="-62.5" font-family="Helvetica,sans-Serif" font-size="10.00" fill="#000000">&lt; double &gt;</text>
</a>
</g>
</g>
<!-- Node1&#45;&gt;Node0 -->
<g id="edge1" class="edge">
<title>Node1&#45;&gt;Node0</title>
<path fill="none" stroke="#191970" d="M83.603,-46.1001C83.603,-36.5157 83.603,-26.0935 83.603,-18.831"/>
<polygon fill="#191970" stroke="#191970" points="80.1031,-46.352 83.603,-56.3521 87.1031,-46.3521 80.1031,-46.352"/>
</g>
<!-- Node2 -->
<g id="node3" class="node">
<title>Node2</title>
<g id="a_node3"><a xlink:href="classSubscriptor.html" target="_top" xlink:title="Subscriptor">
<polygon fill="#ffffff" stroke="#000000" points="46.3149,-197.5 46.3149,-215.5 112.8911,-215.5 112.8911,-197.5 46.3149,-197.5"/>
<text text-anchor="middle" x="79.603" y="-203.5" font-family="Helvetica,sans-Serif" font-size="10.00" fill="#000000">Subscriptor</text>
</a>
</g>
</g>
<!-- Node2&#45;&gt;Node1 -->
<g id="edge2" class="edge">
<title>Node2&#45;&gt;Node1</title>
<path fill="none" stroke="#191970" d="M80.1733,-187.1119C80.9881,-159.4066 82.4666,-109.1399 83.1866,-84.6595"/>
<polygon fill="#191970" stroke="#191970" points="76.6736,-187.0536 79.878,-197.1522 83.6705,-187.2594 76.6736,-187.0536"/>
</g>
<!-- Node3 -->
<g id="node4" class="node">
<title>Node3</title>
<g id="a_node4"><a xlink:href="classPolynomials_1_1Polynomial.html" target="_top" xlink:title="Polynomials::Polynomial\l\&lt; number \&gt;">
<polygon fill="#ffffff" stroke="#000000" points="95.4136,-131.5 95.4136,-159.5 219.7925,-159.5 219.7925,-131.5 95.4136,-131.5"/>
<text text-anchor="start" x="103.4136" y="-147.5" font-family="Helvetica,sans-Serif" font-size="10.00" fill="#000000">Polynomials::Polynomial</text>
<text text-anchor="middle" x="157.603" y="-137.5" font-family="Helvetica,sans-Serif" font-size="10.00" fill="#000000">&lt; number &gt;</text>
</a>
</g>
</g>
<!-- Node2&#45;&gt;Node3 -->
<g id="edge4" class="edge">
<title>Node2&#45;&gt;Node3</title>
<path fill="none" stroke="#191970" d="M99.0667,-191.2784C111.5153,-181.5429 127.5443,-169.0074 139.6807,-159.5162"/>
<polygon fill="#191970" stroke="#191970" points="96.8333,-188.5818 91.1122,-197.4992 101.1455,-194.0959 96.8333,-188.5818"/>
</g>
<!-- Node3&#45;&gt;Node1 -->
<g id="edge3" class="edge">
<title>Node3&#45;&gt;Node1</title>
<path fill="none" stroke="#ffa500" stroke-dasharray="5,2" d="M136.3482,-123.9579C123.8472,-111.288 108.3985,-95.6305 97.4594,-84.5437"/>
<polygon fill="#ffa500" stroke="#ffa500" points="134.1693,-126.7329 143.6842,-131.3931 139.1521,-121.8165 134.1693,-126.7329"/>
<text text-anchor="middle" x="149.625" y="-105" font-family="Helvetica,sans-Serif" font-size="10.00" fill="#000000"> &lt; double &gt;</text>
</g>
</g>
</svg>
