<?xml version="1.0" encoding="UTF-8" standalone="no"?>
<!DOCTYPE svg PUBLIC "-//W3C//DTD SVG 1.1//EN"
 "http://www.w3.org/Graphics/SVG/1.1/DTD/svg11.dtd">
<!-- Generated by graphviz version 2.40.1 (20161225.0304)
 -->
<!-- Title: MappingC1&lt; dim, spacedim &gt; Pages: 1 -->
<svg width="157pt" height="192pt"
 viewBox="0.00 0.00 156.85 192.00" xmlns="http://www.w3.org/2000/svg" xmlns:xlink="http://www.w3.org/1999/xlink">
<g id="graph0" class="graph" transform="scale(1 1) rotate(0) translate(4 188)">
<title>MappingC1&lt; dim, spacedim &gt;</title>
<polygon fill="#ffffff" stroke="transparent" points="-4,4 -4,-188 152.8467,-188 152.8467,4 -4,4"/>
<!-- Node0 -->
<g id="node1" class="node">
<title>Node0</title>
<polygon fill="#bfbfbf" stroke="#000000" points="0,-.5 0,-18.5 148.8467,-18.5 148.8467,-.5 0,-.5"/>
<text text-anchor="middle" x="74.4233" y="-6.5" font-family="Helvetica,sans-Serif" font-size="10.00" fill="#000000">MappingC1&lt; dim, spacedim &gt;</text>
</g>
<!-- Node1 -->
<g id="node2" class="node">
<title>Node1</title>
<g id="a_node2"><a xlink:href="classMappingQ.html" target="_top" xlink:title="MappingQ\&lt; dim, spacedim \&gt;">
<polygon fill="#ffffff" stroke="#000000" points="2.5024,-55.5 2.5024,-73.5 146.3442,-73.5 146.3442,-55.5 2.5024,-55.5"/>
<text text-anchor="middle" x="74.4233" y="-61.5" font-family="Helvetica,sans-Serif" font-size="10.00" fill="#000000">MappingQ&lt; dim, spacedim &gt;</text>
</a>
</g>
</g>
<!-- Node1&#45;&gt;Node0 -->
<g id="edge1" class="edge">
<title>Node1&#45;&gt;Node0</title>
<path fill="none" stroke="#191970" d="M74.4233,-45.383C74.4233,-36.3738 74.4233,-26.0373 74.4233,-18.7795"/>
<polygon fill="#191970" stroke="#191970" points="70.9234,-45.4178 74.4233,-55.4179 77.9234,-45.4179 70.9234,-45.4178"/>
</g>
<!-- Node2 -->
<g id="node3" class="node">
<title>Node2</title>
<g id="a_node3"><a xlink:href="classMapping.html" target="_top" xlink:title="Abstract base class for mapping classes. ">
<polygon fill="#ffffff" stroke="#000000" points="6.3916,-110.5 6.3916,-128.5 142.4551,-128.5 142.4551,-110.5 6.3916,-110.5"/>
<text text-anchor="middle" x="74.4233" y="-116.5" font-family="Helvetica,sans-Serif" font-size="10.00" fill="#000000">Mapping&lt; dim, spacedim &gt;</text>
</a>
</g>
</g>
<!-- Node2&#45;&gt;Node1 -->
<g id="edge2" class="edge">
<title>Node2&#45;&gt;Node1</title>
<path fill="none" stroke="#191970" d="M74.4233,-100.383C74.4233,-91.3738 74.4233,-81.0373 74.4233,-73.7795"/>
<polygon fill="#191970" stroke="#191970" points="70.9234,-100.4178 74.4233,-110.4179 77.9234,-100.4179 70.9234,-100.4178"/>
</g>
<!-- Node3 -->
<g id="node4" class="node">
<title>Node3</title>
<g id="a_node4"><a xlink:href="classSubscriptor.html" target="_top" xlink:title="Subscriptor">
<polygon fill="#ffffff" stroke="#000000" points="41.1353,-165.5 41.1353,-183.5 107.7114,-183.5 107.7114,-165.5 41.1353,-165.5"/>
<text text-anchor="middle" x="74.4233" y="-171.5" font-family="Helvetica,sans-Serif" font-size="10.00" fill="#000000">Subscriptor</text>
</a>
</g>
</g>
<!-- Node3&#45;&gt;Node2 -->
<g id="edge3" class="edge">
<title>Node3&#45;&gt;Node2</title>
<path fill="none" stroke="#191970" d="M74.4233,-155.383C74.4233,-146.3738 74.4233,-136.0373 74.4233,-128.7795"/>
<polygon fill="#191970" stroke="#191970" points="70.9234,-155.4178 74.4233,-165.4179 77.9234,-155.4179 70.9234,-155.4178"/>
</g>
</g>
</svg>
