<?xml version="1.0" encoding="UTF-8" standalone="no"?>
<!DOCTYPE svg PUBLIC "-//W3C//DTD SVG 1.1//EN"
 "http://www.w3.org/Graphics/SVG/1.1/DTD/svg11.dtd">
<!-- Generated by graphviz version 2.40.1 (20161225.0304)
 -->
<!-- Title: DataOutInterface&lt; dim, spacedim &gt; Pages: 1 -->
<svg width="1453pt" height="451pt"
 viewBox="0.00 0.00 1453.31 451.00" xmlns="http://www.w3.org/2000/svg" xmlns:xlink="http://www.w3.org/1999/xlink">
<g id="graph0" class="graph" transform="scale(1 1) rotate(0) translate(4 447)">
<title>DataOutInterface&lt; dim, spacedim &gt;</title>
<polygon fill="#ffffff" stroke="transparent" points="-4,4 -4,-447 1449.3096,-447 1449.3096,4 -4,4"/>
<!-- Node0 -->
<g id="node1" class="node">
<title>Node0</title>
<polygon fill="#bfbfbf" stroke="#000000" points="0,-335.5 0,-363.5 119.6621,-363.5 119.6621,-335.5 0,-335.5"/>
<text text-anchor="start" x="8" y="-351.5" font-family="Helvetica,sans-Serif" font-size="10.00" fill="#000000">DataOutInterface&lt; dim,</text>
<text text-anchor="middle" x="59.8311" y="-341.5" font-family="Helvetica,sans-Serif" font-size="10.00" fill="#000000"> spacedim &gt;</text>
</g>
<!-- Node1 -->
<g id="node2" class="node">
<title>Node1</title>
<g id="a_node2"><a xlink:href="classDataOutReader.html" target="_top" xlink:title="DataOutReader\&lt; dim,\l spacedim \&gt;">
<polygon fill="#ffffff" stroke="#000000" points="254.8931,-414.5 254.8931,-442.5 368.4419,-442.5 368.4419,-414.5 254.8931,-414.5"/>
<text text-anchor="start" x="262.8931" y="-430.5" font-family="Helvetica,sans-Serif" font-size="10.00" fill="#000000">DataOutReader&lt; dim,</text>
<text text-anchor="middle" x="311.6675" y="-420.5" font-family="Helvetica,sans-Serif" font-size="10.00" fill="#000000"> spacedim &gt;</text>
</a>
</g>
</g>
<!-- Node0&#45;&gt;Node1 -->
<g id="edge1" class="edge">
<title>Node0&#45;&gt;Node1</title>
<path fill="none" stroke="#191970" d="M92.9865,-368.3062C106.5202,-375.3971 122.5245,-383.056 137.6621,-388.5 175.7266,-402.1894 220.2004,-412.3165 254.6575,-418.9558"/>
<polygon fill="#191970" stroke="#191970" points="94.5207,-365.1576 84.0529,-363.5221 91.2161,-371.3285 94.5207,-365.1576"/>
</g>
<!-- Node2 -->
<g id="node3" class="node">
<title>Node2</title>
<g id="a_node3"><a xlink:href="classDataOutInterface.html" target="_top" xlink:title="DataOutInterface\&lt; 2, 2 \&gt;">
<polygon fill="#ffffff" stroke="#000000" points="248.6333,-377.5 248.6333,-395.5 374.7017,-395.5 374.7017,-377.5 248.6333,-377.5"/>
<text text-anchor="middle" x="311.6675" y="-383.5" font-family="Helvetica,sans-Serif" font-size="10.00" fill="#000000">DataOutInterface&lt; 2, 2 &gt;</text>
</a>
</g>
</g>
<!-- Node0&#45;&gt;Node2 -->
<g id="edge2" class="edge">
<title>Node0&#45;&gt;Node2</title>
<path fill="none" stroke="#ffa500" stroke-dasharray="5,2" d="M129.621,-361.2554C132.3354,-361.6814 135.0233,-362.0977 137.6621,-362.5 174.2907,-368.0839 215.3461,-373.7735 248.3757,-378.2108"/>
<polygon fill="#ffa500" stroke="#ffa500" points="130.1436,-357.7946 119.7177,-359.6791 129.0432,-364.7076 130.1436,-357.7946"/>
<text text-anchor="middle" x="181.439" y="-376.5" font-family="Helvetica,sans-Serif" font-size="10.00" fill="#000000"> &lt; 2, 2 &gt;</text>
</g>
<!-- Node4 -->
<g id="node5" class="node">
<title>Node4</title>
<g id="a_node5"><a xlink:href="classDataOutInterface.html" target="_top" xlink:title="DataOutInterface\&lt; dim+1 \&gt;">
<polygon fill="#ffffff" stroke="#000000" points="243.2158,-340.5 243.2158,-358.5 380.1191,-358.5 380.1191,-340.5 243.2158,-340.5"/>
<text text-anchor="middle" x="311.6675" y="-346.5" font-family="Helvetica,sans-Serif" font-size="10.00" fill="#000000">DataOutInterface&lt; dim+1 &gt;</text>
</a>
</g>
</g>
<!-- Node0&#45;&gt;Node4 -->
<g id="edge4" class="edge">
<title>Node0&#45;&gt;Node4</title>
<path fill="none" stroke="#ffa500" stroke-dasharray="5,2" d="M130.0334,-349.5C165.2478,-349.5 207.7443,-349.5 242.7753,-349.5"/>
<polygon fill="#ffa500" stroke="#ffa500" points="129.8322,-346.0001 119.8322,-349.5 129.8322,-353.0001 129.8322,-346.0001"/>
<text text-anchor="middle" x="181.439" y="-351.5" font-family="Helvetica,sans-Serif" font-size="10.00" fill="#000000"> &lt; dim+1 &gt;</text>
</g>
<!-- Node6 -->
<g id="node7" class="node">
<title>Node6</title>
<g id="a_node7"><a xlink:href="classDataOutInterface.html" target="_top" xlink:title="DataOutInterface\&lt; patch\l_dim, patch_space_dim \&gt;">
<polygon fill="#ffffff" stroke="#000000" points="246.5508,-264.5 246.5508,-292.5 376.7842,-292.5 376.7842,-264.5 246.5508,-264.5"/>
<text text-anchor="start" x="254.5508" y="-280.5" font-family="Helvetica,sans-Serif" font-size="10.00" fill="#000000">DataOutInterface&lt; patch</text>
<text text-anchor="middle" x="311.6675" y="-270.5" font-family="Helvetica,sans-Serif" font-size="10.00" fill="#000000">_dim, patch_space_dim &gt;</text>
</a>
</g>
</g>
<!-- Node0&#45;&gt;Node6 -->
<g id="edge6" class="edge">
<title>Node0&#45;&gt;Node6</title>
<path fill="none" stroke="#ffa500" stroke-dasharray="5,2" d="M114.3807,-332.4122C122.1815,-330.0465 130.1168,-327.6816 137.6621,-325.5 177.793,-313.8967 223.3886,-301.6139 257.8361,-292.5156"/>
<polygon fill="#ffa500" stroke="#ffa500" points="113.1529,-329.1276 104.6112,-335.3957 115.1974,-335.8224 113.1529,-329.1276"/>
<text text-anchor="start" x="137.6621" y="-337.5" font-family="Helvetica,sans-Serif" font-size="10.00" fill="#000000"> &lt; patch_dim, patch</text>
<text text-anchor="middle" x="181.439" y="-327.5" font-family="Helvetica,sans-Serif" font-size="10.00" fill="#000000">_space_dim &gt;</text>
</g>
<!-- Node16 -->
<g id="node17" class="node">
<title>Node16</title>
<g id="a_node17"><a xlink:href="classDataOutInterface.html" target="_top" xlink:title="DataOutInterface\&lt; patch\l_dim, patch_dim \&gt;">
<polygon fill="#ffffff" stroke="#000000" points="398.1191,-.5 398.1191,-28.5 523.3525,-28.5 523.3525,-.5 398.1191,-.5"/>
<text text-anchor="start" x="406.1191" y="-16.5" font-family="Helvetica,sans-Serif" font-size="10.00" fill="#000000">DataOutInterface&lt; patch</text>
<text text-anchor="middle" x="460.7358" y="-6.5" font-family="Helvetica,sans-Serif" font-size="10.00" fill="#000000">_dim, patch_dim &gt;</text>
</a>
</g>
</g>
<!-- Node0&#45;&gt;Node16 -->
<g id="edge20" class="edge">
<title>Node0&#45;&gt;Node16</title>
<path fill="none" stroke="#ffa500" stroke-dasharray="5,2" d="M77.5453,-327.2473C124.0376,-270.2725 255.8188,-117.7737 398.1191,-34.5 401.8619,-32.3097 405.8733,-30.329 409.9909,-28.5439"/>
<polygon fill="#ffa500" stroke="#ffa500" points="74.6428,-325.2701 71.0697,-335.2442 80.0829,-329.6753 74.6428,-325.2701"/>
<text text-anchor="start" x="137.6621" y="-264.5" font-family="Helvetica,sans-Serif" font-size="10.00" fill="#000000"> &lt; patch_dim, patch</text>
<text text-anchor="middle" x="181.439" y="-254.5" font-family="Helvetica,sans-Serif" font-size="10.00" fill="#000000">_dim &gt;</text>
</g>
<!-- Node3 -->
<g id="node4" class="node">
<title>Node3</title>
<g id="a_node4"><a xlink:href="classMatrixOut.html" target="_top" xlink:title="MatrixOut">
<polygon fill="#ffffff" stroke="#000000" points="602.6514,-392.5 602.6514,-410.5 661.9912,-410.5 661.9912,-392.5 602.6514,-392.5"/>
<text text-anchor="middle" x="632.3213" y="-398.5" font-family="Helvetica,sans-Serif" font-size="10.00" fill="#000000">MatrixOut</text>
</a>
</g>
</g>
<!-- Node2&#45;&gt;Node3 -->
<g id="edge3" class="edge">
<title>Node2&#45;&gt;Node3</title>
<path fill="none" stroke="#191970" d="M385.3599,-389.9473C454.1424,-393.1649 553.3295,-397.8048 602.4407,-400.1022"/>
<polygon fill="#191970" stroke="#191970" points="385.171,-386.4347 375.0184,-389.4635 384.8438,-393.4271 385.171,-386.4347"/>
</g>
<!-- Node5 -->
<g id="node6" class="node">
<title>Node5</title>
<g id="a_node6"><a xlink:href="classDataOutStack.html" target="_top" xlink:title="DataOutStack\&lt; dim,\l spacedim, DoFHandlerType \&gt;">
<polygon fill="#ffffff" stroke="#000000" points="556.6479,-345.5 556.6479,-373.5 707.9946,-373.5 707.9946,-345.5 556.6479,-345.5"/>
<text text-anchor="start" x="564.6479" y="-361.5" font-family="Helvetica,sans-Serif" font-size="10.00" fill="#000000">DataOutStack&lt; dim,</text>
<text text-anchor="middle" x="632.3213" y="-351.5" font-family="Helvetica,sans-Serif" font-size="10.00" fill="#000000"> spacedim, DoFHandlerType &gt;</text>
</a>
</g>
</g>
<!-- Node4&#45;&gt;Node5 -->
<g id="edge5" class="edge">
<title>Node4&#45;&gt;Node5</title>
<path fill="none" stroke="#191970" d="M390.7013,-351.9648C441.3338,-353.5438 506.6751,-355.5816 556.6394,-357.1398"/>
<polygon fill="#191970" stroke="#191970" points="390.56,-348.4588 380.4558,-351.6453 390.3418,-355.4554 390.56,-348.4588"/>
</g>
<!-- Node7 -->
<g id="node8" class="node">
<title>Node7</title>
<g id="a_node8"><a xlink:href="classDataOut__DoFData.html" target="_top" xlink:title="DataOut_DoFData\&lt; DoFHandler\lType, patch_dim, patch_space_dim \&gt;">
<polygon fill="#ffffff" stroke="#000000" points="541.3525,-163.5 541.3525,-191.5 723.29,-191.5 723.29,-163.5 541.3525,-163.5"/>
<text text-anchor="start" x="549.3525" y="-179.5" font-family="Helvetica,sans-Serif" font-size="10.00" fill="#000000">DataOut_DoFData&lt; DoFHandler</text>
<text text-anchor="middle" x="632.3213" y="-169.5" font-family="Helvetica,sans-Serif" font-size="10.00" fill="#000000">Type, patch_dim, patch_space_dim &gt;</text>
</a>
</g>
</g>
<!-- Node6&#45;&gt;Node7 -->
<g id="edge7" class="edge">
<title>Node6&#45;&gt;Node7</title>
<path fill="none" stroke="#191970" d="M365.9326,-261.4075C428.4069,-241.7293 529.848,-209.7772 587.8568,-191.5055"/>
<polygon fill="#191970" stroke="#191970" points="364.7395,-258.1137 356.253,-264.4564 366.8426,-264.7903 364.7395,-258.1137"/>
</g>
<!-- Node8 -->
<g id="node9" class="node">
<title>Node8</title>
<g id="a_node9"><a xlink:href="classDataOut__DoFData.html" target="_top" xlink:title="DataOut_DoFData\&lt; DoFHandler\lType, DoFHandlerType::dimension\l&#45;1, DoFHandlerType::dimension \&gt;">
<polygon fill="#ffffff" stroke="#000000" points="932.166,-94.5 932.166,-132.5 1102.1406,-132.5 1102.1406,-94.5 932.166,-94.5"/>
<text text-anchor="start" x="940.166" y="-120.5" font-family="Helvetica,sans-Serif" font-size="10.00" fill="#000000">DataOut_DoFData&lt; DoFHandler</text>
<text text-anchor="start" x="940.166" y="-110.5" font-family="Helvetica,sans-Serif" font-size="10.00" fill="#000000">Type, DoFHandlerType::dimension</text>
<text text-anchor="middle" x="1017.1533" y="-100.5" font-family="Helvetica,sans-Serif" font-size="10.00" fill="#000000">&#45;1, DoFHandlerType::dimension &gt;</text>
</a>
</g>
</g>
<!-- Node6&#45;&gt;Node8 -->
<g id="edge19" class="edge">
<title>Node6&#45;&gt;Node8</title>
<path fill="none" stroke="#191970" d="M333.9208,-257.5628C350.6581,-242.5676 374.6519,-222.6129 398.1191,-208.5 540.1617,-123.0777 578.8812,-95.6119 741.29,-62.5 812.2159,-48.0396 833.3916,-47.2702 904.1563,-62.5 932.7725,-68.6587 962.8747,-82.6673 984.8078,-94.4472"/>
<polygon fill="#191970" stroke="#191970" points="331.3618,-255.1593 326.3214,-264.4783 336.0731,-260.3365 331.3618,-255.1593"/>
</g>
<!-- Node10 -->
<g id="node11" class="node">
<title>Node10</title>
<g id="a_node11"><a xlink:href="classDataOut__DoFData.html" target="_top" xlink:title="DataOut_DoFData\&lt; DoFHandler\l\&lt; dim \&gt;, DoFHandler\&lt; dim\l \&gt; ::dimension, DoFHandler\l\&lt; dim \&gt; ::space_dimension \&gt;">
<polygon fill="#ffffff" stroke="#000000" points="936.48,-164.5 936.48,-212.5 1097.8267,-212.5 1097.8267,-164.5 936.48,-164.5"/>
<text text-anchor="start" x="944.48" y="-200.5" font-family="Helvetica,sans-Serif" font-size="10.00" fill="#000000">DataOut_DoFData&lt; DoFHandler</text>
<text text-anchor="start" x="944.48" y="-190.5" font-family="Helvetica,sans-Serif" font-size="10.00" fill="#000000">&lt; dim &gt;, DoFHandler&lt; dim</text>
<text text-anchor="start" x="944.48" y="-180.5" font-family="Helvetica,sans-Serif" font-size="10.00" fill="#000000"> &gt; ::dimension, DoFHandler</text>
<text text-anchor="middle" x="1017.1533" y="-170.5" font-family="Helvetica,sans-Serif" font-size="10.00" fill="#000000">&lt; dim &gt; ::space_dimension &gt;</text>
</a>
</g>
</g>
<!-- Node6&#45;&gt;Node10 -->
<g id="edge17" class="edge">
<title>Node6&#45;&gt;Node10</title>
<path fill="none" stroke="#191970" d="M386.9942,-282.3086C537.1609,-289.2273 862.9691,-300.6116 904.1563,-271.5 923.1022,-258.1088 905.6826,-238.8368 922.1563,-222.5 926.3852,-218.3062 931.1664,-214.6267 936.2788,-211.3988"/>
<polygon fill="#191970" stroke="#191970" points="387.0789,-278.8089 376.9268,-281.8393 386.7529,-285.8013 387.0789,-278.8089"/>
</g>
<!-- Node12 -->
<g id="node13" class="node">
<title>Node12</title>
<g id="a_node13"><a xlink:href="classDataOut__DoFData.html" target="_top" xlink:title="DataOut_DoFData\&lt; DoFHandler\lType, DoFHandlerType::dimension,\l DoFHandlerType::space_dimension \&gt;">
<polygon fill="#ffffff" stroke="#000000" points="923.9653,-231.5 923.9653,-269.5 1110.3413,-269.5 1110.3413,-231.5 923.9653,-231.5"/>
<text text-anchor="start" x="931.9653" y="-257.5" font-family="Helvetica,sans-Serif" font-size="10.00" fill="#000000">DataOut_DoFData&lt; DoFHandler</text>
<text text-anchor="start" x="931.9653" y="-247.5" font-family="Helvetica,sans-Serif" font-size="10.00" fill="#000000">Type, DoFHandlerType::dimension,</text>
<text text-anchor="middle" x="1017.1533" y="-237.5" font-family="Helvetica,sans-Serif" font-size="10.00" fill="#000000"> DoFHandlerType::space_dimension &gt;</text>
</a>
</g>
</g>
<!-- Node6&#45;&gt;Node12 -->
<g id="edge18" class="edge">
<title>Node6&#45;&gt;Node12</title>
<path fill="none" stroke="#191970" d="M386.9372,-292.511C500.4126,-311.0981 721.4621,-337.4064 904.1563,-299.5 932.0021,-293.7224 961.4137,-280.7224 983.2482,-269.5639"/>
<polygon fill="#191970" stroke="#191970" points="387.3997,-289.0399 376.9608,-290.8511 386.2507,-295.945 387.3997,-289.0399"/>
</g>
<!-- Node7&#45;&gt;Node8 -->
<g id="edge8" class="edge">
<title>Node7&#45;&gt;Node8</title>
<path fill="none" stroke="#ffa500" stroke-dasharray="5,2" d="M679.2482,-160.0883C698.2693,-153.6487 720.5941,-146.8628 741.29,-142.5 804.4325,-129.1893 877.0556,-121.8676 931.9341,-117.9122"/>
<polygon fill="#ffa500" stroke="#ffa500" points="677.9389,-156.8375 669.6287,-163.4096 680.2235,-163.4542 677.9389,-156.8375"/>
<text text-anchor="start" x="741.29" y="-164.5" font-family="Helvetica,sans-Serif" font-size="10.00" fill="#000000"> &lt; DoFHandlerType, DoFHandler</text>
<text text-anchor="start" x="741.29" y="-154.5" font-family="Helvetica,sans-Serif" font-size="10.00" fill="#000000">Type::dimension&#45;1, DoFHandlerType</text>
<text text-anchor="middle" x="822.7231" y="-144.5" font-family="Helvetica,sans-Serif" font-size="10.00" fill="#000000">::dimension &gt;</text>
</g>
<!-- Node7&#45;&gt;Node10 -->
<g id="edge10" class="edge">
<title>Node7&#45;&gt;Node10</title>
<path fill="none" stroke="#ffa500" stroke-dasharray="5,2" d="M733.3658,-175.8413C784.5654,-175.5164 847.6939,-175.9024 904.1563,-178.5 914.5832,-178.9797 925.5359,-179.6894 936.35,-180.5133"/>
<polygon fill="#ffa500" stroke="#ffa500" points="733.2645,-172.3418 723.2905,-175.9153 733.3159,-179.3416 733.2645,-172.3418"/>
<text text-anchor="start" x="758.6582" y="-210.5" font-family="Helvetica,sans-Serif" font-size="10.00" fill="#000000"> &lt; DoFHandler&lt; dim &gt;</text>
<text text-anchor="start" x="758.6582" y="-200.5" font-family="Helvetica,sans-Serif" font-size="10.00" fill="#000000">, DoFHandler&lt; dim &gt;</text>
<text text-anchor="start" x="758.6582" y="-190.5" font-family="Helvetica,sans-Serif" font-size="10.00" fill="#000000"> ::dimension, DoFHandler</text>
<text text-anchor="middle" x="822.7231" y="-180.5" font-family="Helvetica,sans-Serif" font-size="10.00" fill="#000000">&lt; dim &gt; ::space_dimension &gt;</text>
</g>
<!-- Node7&#45;&gt;Node12 -->
<g id="edge12" class="edge">
<title>Node7&#45;&gt;Node12</title>
<path fill="none" stroke="#ffa500" stroke-dasharray="5,2" d="M673.1057,-195.5575C693.2588,-203.7758 718.1614,-212.897 741.29,-218.5 801.152,-233.0019 869.9656,-240.999 923.8896,-245.3721"/>
<polygon fill="#ffa500" stroke="#ffa500" points="674.1999,-192.2221 663.6225,-191.615 671.5127,-198.6857 674.1999,-192.2221"/>
<text text-anchor="start" x="745.7358" y="-264.5" font-family="Helvetica,sans-Serif" font-size="10.00" fill="#000000"> &lt; DoFHandlerType, DoFHandler</text>
<text text-anchor="start" x="745.7358" y="-254.5" font-family="Helvetica,sans-Serif" font-size="10.00" fill="#000000">Type::dimension, DoFHandlerType</text>
<text text-anchor="middle" x="822.7231" y="-244.5" font-family="Helvetica,sans-Serif" font-size="10.00" fill="#000000">::space_dimension &gt;</text>
</g>
<!-- Node14 -->
<g id="node15" class="node">
<title>Node14</title>
<g id="a_node15"><a xlink:href="classDataOut__DoFData.html" target="_top" xlink:title="DataOut_DoFData\&lt; DoFHandler\lType, DoFHandlerType::dimension+1 \&gt;">
<polygon fill="#ffffff" stroke="#000000" points="922.1563,-20.5 922.1563,-48.5 1112.1504,-48.5 1112.1504,-20.5 922.1563,-20.5"/>
<text text-anchor="start" x="930.1563" y="-36.5" font-family="Helvetica,sans-Serif" font-size="10.00" fill="#000000">DataOut_DoFData&lt; DoFHandler</text>
<text text-anchor="middle" x="1017.1533" y="-26.5" font-family="Helvetica,sans-Serif" font-size="10.00" fill="#000000">Type, DoFHandlerType::dimension+1 &gt;</text>
</a>
</g>
</g>
<!-- Node7&#45;&gt;Node14 -->
<g id="edge15" class="edge">
<title>Node7&#45;&gt;Node14</title>
<path fill="none" stroke="#ffa500" stroke-dasharray="5,2" d="M654.9385,-156.5393C675.8306,-138.2965 708.5047,-112.4926 741.29,-97.5 798.4757,-71.3493 867.4415,-55.5993 922.1109,-46.387"/>
<polygon fill="#ffa500" stroke="#ffa500" points="652.4144,-154.1002 647.2687,-163.3615 657.0667,-159.3305 652.4144,-154.1002"/>
<text text-anchor="start" x="749.4932" y="-109.5" font-family="Helvetica,sans-Serif" font-size="10.00" fill="#000000"> &lt; DoFHandlerType, DoFHandler</text>
<text text-anchor="middle" x="822.7231" y="-99.5" font-family="Helvetica,sans-Serif" font-size="10.00" fill="#000000">Type::dimension+1 &gt;</text>
</g>
<!-- Node9 -->
<g id="node10" class="node">
<title>Node9</title>
<g id="a_node10"><a xlink:href="classDataOutFaces.html" target="_top" xlink:title="DataOutFaces\&lt; dim,\l DoFHandlerType \&gt;">
<polygon fill="#ffffff" stroke="#000000" points="1163.8794,-99.5 1163.8794,-127.5 1271.8618,-127.5 1271.8618,-99.5 1163.8794,-99.5"/>
<text text-anchor="start" x="1171.8794" y="-115.5" font-family="Helvetica,sans-Serif" font-size="10.00" fill="#000000">DataOutFaces&lt; dim,</text>
<text text-anchor="middle" x="1217.8706" y="-105.5" font-family="Helvetica,sans-Serif" font-size="10.00" fill="#000000"> DoFHandlerType &gt;</text>
</a>
</g>
</g>
<!-- Node8&#45;&gt;Node9 -->
<g id="edge9" class="edge">
<title>Node8&#45;&gt;Node9</title>
<path fill="none" stroke="#191970" d="M1112.5864,-113.5C1130.1659,-113.5 1147.9474,-113.5 1163.7664,-113.5"/>
<polygon fill="#191970" stroke="#191970" points="1112.2756,-110.0001 1102.2755,-113.5 1112.2755,-117.0001 1112.2756,-110.0001"/>
</g>
<!-- Node11 -->
<g id="node12" class="node">
<title>Node11</title>
<g id="a_node12"><a xlink:href="classDataOut.html" target="_top" xlink:title="DataOut\&lt; dim \&gt;">
<polygon fill="#ffffff" stroke="#000000" points="1358.7188,-200.5 1358.7188,-218.5 1445.3096,-218.5 1445.3096,-200.5 1358.7188,-200.5"/>
<text text-anchor="middle" x="1402.0142" y="-206.5" font-family="Helvetica,sans-Serif" font-size="10.00" fill="#000000">DataOut&lt; dim &gt;</text>
</a>
</g>
</g>
<!-- Node10&#45;&gt;Node11 -->
<g id="edge11" class="edge">
<title>Node10&#45;&gt;Node11</title>
<path fill="none" stroke="#191970" d="M1108.2689,-193.4717C1187.2346,-197.7805 1298.0433,-203.8268 1358.4856,-207.1249"/>
<polygon fill="#191970" stroke="#191970" points="1108.0086,-189.9524 1097.8328,-192.9023 1107.6272,-196.942 1108.0086,-189.9524"/>
</g>
<!-- Node13 -->
<g id="node14" class="node">
<title>Node13</title>
<g id="a_node14"><a xlink:href="classDataOut.html" target="_top" xlink:title="DataOut\&lt; dim, DoFHandler\lType \&gt;">
<polygon fill="#ffffff" stroke="#000000" points="1149.1504,-231.5 1149.1504,-259.5 1286.5908,-259.5 1286.5908,-231.5 1149.1504,-231.5"/>
<text text-anchor="start" x="1157.1504" y="-247.5" font-family="Helvetica,sans-Serif" font-size="10.00" fill="#000000">DataOut&lt; dim, DoFHandler</text>
<text text-anchor="middle" x="1217.8706" y="-237.5" font-family="Helvetica,sans-Serif" font-size="10.00" fill="#000000">Type &gt;</text>
</a>
</g>
</g>
<!-- Node12&#45;&gt;Node13 -->
<g id="edge13" class="edge">
<title>Node12&#45;&gt;Node13</title>
<path fill="none" stroke="#191970" d="M1120.5332,-247.9247C1130.2002,-247.6839 1139.8298,-247.444 1149.0628,-247.214"/>
<polygon fill="#191970" stroke="#191970" points="1120.3704,-244.4276 1110.4607,-248.1757 1120.5448,-251.4254 1120.3704,-244.4276"/>
</g>
<!-- Node13&#45;&gt;Node11 -->
<g id="edge14" class="edge">
<title>Node13&#45;&gt;Node11</title>
<path fill="none" stroke="#ffa500" stroke-dasharray="5,2" d="M1296.6981,-230.0892C1317.9311,-225.9382 1340.1238,-221.5996 1358.6315,-217.9813"/>
<polygon fill="#ffa500" stroke="#ffa500" points="1295.8434,-226.69 1286.7007,-232.0437 1297.1865,-233.56 1295.8434,-226.69"/>
<text text-anchor="middle" x="1322.6548" y="-229.5" font-family="Helvetica,sans-Serif" font-size="10.00" fill="#000000"> &lt; dim &gt;</text>
</g>
<!-- Node15 -->
<g id="node16" class="node">
<title>Node15</title>
<g id="a_node16"><a xlink:href="classDataOutRotation.html" target="_top" xlink:title="DataOutRotation\&lt; dim,\l DoFHandlerType \&gt;">
<polygon fill="#ffffff" stroke="#000000" points="1158.8721,-20.5 1158.8721,-48.5 1276.8691,-48.5 1276.8691,-20.5 1158.8721,-20.5"/>
<text text-anchor="start" x="1166.8721" y="-36.5" font-family="Helvetica,sans-Serif" font-size="10.00" fill="#000000">DataOutRotation&lt; dim,</text>
<text text-anchor="middle" x="1217.8706" y="-26.5" font-family="Helvetica,sans-Serif" font-size="10.00" fill="#000000"> DoFHandlerType &gt;</text>
</a>
</g>
</g>
<!-- Node14&#45;&gt;Node15 -->
<g id="edge16" class="edge">
<title>Node14&#45;&gt;Node15</title>
<path fill="none" stroke="#191970" d="M1122.2333,-34.5C1134.7091,-34.5 1147.0874,-34.5 1158.5948,-34.5"/>
<polygon fill="#191970" stroke="#191970" points="1122.2218,-31.0001 1112.2218,-34.5 1122.2218,-38.0001 1122.2218,-31.0001"/>
</g>
<!-- Node16&#45;&gt;Node14 -->
<g id="edge21" class="edge">
<title>Node16&#45;&gt;Node14</title>
<path fill="none" stroke="#191970" d="M533.7519,-17.1245C633.3378,-20.704 811.9158,-27.1229 921.9187,-31.0769"/>
<polygon fill="#191970" stroke="#191970" points="533.6017,-13.6169 523.4824,-16.7554 533.3502,-20.6124 533.6017,-13.6169"/>
</g>
</g>
</svg>
