<?xml version="1.0" encoding="UTF-8" standalone="no"?>
<!DOCTYPE svg PUBLIC "-//W3C//DTD SVG 1.1//EN"
 "http://www.w3.org/Graphics/SVG/1.1/DTD/svg11.dtd">
<!-- Generated by graphviz version 2.40.1 (20161225.0304)
 -->
<!-- Title: hp::MappingCollection&lt; dim, spacedim &gt; Pages: 1 -->
<svg width="545pt" height="238pt"
 viewBox="0.00 0.00 545.44 238.00" xmlns="http://www.w3.org/2000/svg" xmlns:xlink="http://www.w3.org/1999/xlink">
<g id="graph0" class="graph" transform="scale(1 1) rotate(0) translate(4 234)">
<title>hp::MappingCollection&lt; dim, spacedim &gt;</title>
<polygon fill="#ffffff" stroke="transparent" points="-4,4 -4,-234 541.4355,-234 541.4355,4 -4,4"/>
<!-- Node0 -->
<g id="node1" class="node">
<title>Node0</title>
<polygon fill="#bfbfbf" stroke="#000000" points="103.5762,-108.5 103.5762,-136.5 218.5264,-136.5 218.5264,-108.5 103.5762,-108.5"/>
<text text-anchor="start" x="111.5762" y="-124.5" font-family="Helvetica,sans-Serif" font-size="10.00" fill="#000000">hp::MappingCollection</text>
<text text-anchor="middle" x="161.0513" y="-114.5" font-family="Helvetica,sans-Serif" font-size="10.00" fill="#000000">&lt; dim, spacedim &gt;</text>
</g>
<!-- Node2 -->
<g id="node3" class="node">
<title>Node2</title>
<g id="a_node3"><a xlink:href="classhp_1_1MappingCollection.html" target="_top" xlink:title="hp::MappingCollection\l\&lt; dim, ::FEValues\&lt; dim,\l spacedim \&gt; ::space_dimension \&gt;">
<polygon fill="#ffffff" stroke="#000000" points="372.4609,-191.5 372.4609,-229.5 537.4355,-229.5 537.4355,-191.5 372.4609,-191.5"/>
<text text-anchor="start" x="380.4609" y="-217.5" font-family="Helvetica,sans-Serif" font-size="10.00" fill="#000000">hp::MappingCollection</text>
<text text-anchor="start" x="380.4609" y="-207.5" font-family="Helvetica,sans-Serif" font-size="10.00" fill="#000000">&lt; dim, ::FEValues&lt; dim,</text>
<text text-anchor="middle" x="454.9482" y="-197.5" font-family="Helvetica,sans-Serif" font-size="10.00" fill="#000000"> spacedim &gt; ::space_dimension &gt;</text>
</a>
</g>
</g>
<!-- Node0&#45;&gt;Node2 -->
<g id="edge2" class="edge">
<title>Node0&#45;&gt;Node2</title>
<path fill="none" stroke="#ffa500" stroke-dasharray="5,2" d="M189.4439,-142.0503C203.1407,-150.6832 220.1282,-160.2659 236.5264,-166.5 279.9153,-182.9952 330.6202,-193.6941 372.2487,-200.4063"/>
<polygon fill="#ffa500" stroke="#ffa500" points="191.2547,-139.0532 180.9576,-136.5592 187.4519,-144.9302 191.2547,-139.0532"/>
<text text-anchor="start" x="240.0518" y="-218.5" font-family="Helvetica,sans-Serif" font-size="10.00" fill="#000000"> &lt; dim, ::FEValues&lt;</text>
<text text-anchor="start" x="240.0518" y="-208.5" font-family="Helvetica,sans-Serif" font-size="10.00" fill="#000000"> dim, spacedim &gt; ::space</text>
<text text-anchor="middle" x="295.4937" y="-198.5" font-family="Helvetica,sans-Serif" font-size="10.00" fill="#000000">_dimension &gt;</text>
</g>
<!-- Node3 -->
<g id="node4" class="node">
<title>Node3</title>
<g id="a_node4"><a xlink:href="classhp_1_1MappingCollection.html" target="_top" xlink:title="hp::MappingCollection\l\&lt; dim, FEValuesType::\lspace_dimension \&gt;">
<polygon fill="#ffffff" stroke="#000000" points="396.875,-134.5 396.875,-172.5 513.0215,-172.5 513.0215,-134.5 396.875,-134.5"/>
<text text-anchor="start" x="404.875" y="-160.5" font-family="Helvetica,sans-Serif" font-size="10.00" fill="#000000">hp::MappingCollection</text>
<text text-anchor="start" x="404.875" y="-150.5" font-family="Helvetica,sans-Serif" font-size="10.00" fill="#000000">&lt; dim, FEValuesType::</text>
<text text-anchor="middle" x="454.9482" y="-140.5" font-family="Helvetica,sans-Serif" font-size="10.00" fill="#000000">space_dimension &gt;</text>
</a>
</g>
</g>
<!-- Node0&#45;&gt;Node3 -->
<g id="edge3" class="edge">
<title>Node0&#45;&gt;Node3</title>
<path fill="none" stroke="#ffa500" stroke-dasharray="5,2" d="M229.0015,-129.6673C279.8254,-135.0282 348.5899,-142.2814 396.8645,-147.3734"/>
<polygon fill="#ffa500" stroke="#ffa500" points="229.0772,-126.156 218.7652,-128.5876 228.3428,-133.1174 229.0772,-126.156"/>
<text text-anchor="start" x="246.8096" y="-154.5" font-family="Helvetica,sans-Serif" font-size="10.00" fill="#000000"> &lt; dim, FEValuesType</text>
<text text-anchor="middle" x="295.4937" y="-144.5" font-family="Helvetica,sans-Serif" font-size="10.00" fill="#000000">::space_dimension &gt;</text>
</g>
<!-- Node4 -->
<g id="node5" class="node">
<title>Node4</title>
<g id="a_node5"><a xlink:href="classhp_1_1MappingCollection.html" target="_top" xlink:title="hp::MappingCollection\l\&lt; dim, ::FESubfaceValues\l\&lt; dim, spacedim \&gt; ::space\l_dimension \&gt;">
<polygon fill="#ffffff" stroke="#000000" points="388.5864,-67.5 388.5864,-115.5 521.3101,-115.5 521.3101,-67.5 388.5864,-67.5"/>
<text text-anchor="start" x="396.5864" y="-103.5" font-family="Helvetica,sans-Serif" font-size="10.00" fill="#000000">hp::MappingCollection</text>
<text text-anchor="start" x="396.5864" y="-93.5" font-family="Helvetica,sans-Serif" font-size="10.00" fill="#000000">&lt; dim, ::FESubfaceValues</text>
<text text-anchor="start" x="396.5864" y="-83.5" font-family="Helvetica,sans-Serif" font-size="10.00" fill="#000000">&lt; dim, spacedim &gt; ::space</text>
<text text-anchor="middle" x="454.9482" y="-73.5" font-family="Helvetica,sans-Serif" font-size="10.00" fill="#000000">_dimension &gt;</text>
</a>
</g>
</g>
<!-- Node0&#45;&gt;Node4 -->
<g id="edge4" class="edge">
<title>Node0&#45;&gt;Node4</title>
<path fill="none" stroke="#ffa500" stroke-dasharray="5,2" d="M204.3214,-105.0431C214.707,-101.5698 225.8784,-98.4081 236.5264,-96.5 286.9295,-87.4676 344.9143,-86.5711 388.4679,-87.7415"/>
<polygon fill="#ffa500" stroke="#ffa500" points="202.9243,-101.8241 194.6475,-108.438 205.2423,-108.4292 202.9243,-101.8241"/>
<text text-anchor="start" x="236.5264" y="-118.5" font-family="Helvetica,sans-Serif" font-size="10.00" fill="#000000"> &lt; dim, ::FESubfaceValues</text>
<text text-anchor="start" x="236.5264" y="-108.5" font-family="Helvetica,sans-Serif" font-size="10.00" fill="#000000">&lt; dim, spacedim &gt; ::space</text>
<text text-anchor="middle" x="295.4937" y="-98.5" font-family="Helvetica,sans-Serif" font-size="10.00" fill="#000000">_dimension &gt;</text>
</g>
<!-- Node5 -->
<g id="node6" class="node">
<title>Node5</title>
<g id="a_node6"><a xlink:href="classhp_1_1MappingCollection.html" target="_top" xlink:title="hp::MappingCollection\l\&lt; dim, ::FEFaceValues\l\&lt; dim, spacedim \&gt; ::space\l_dimension \&gt;">
<polygon fill="#ffffff" stroke="#000000" points="388.5864,-.5 388.5864,-48.5 521.3101,-48.5 521.3101,-.5 388.5864,-.5"/>
<text text-anchor="start" x="396.5864" y="-36.5" font-family="Helvetica,sans-Serif" font-size="10.00" fill="#000000">hp::MappingCollection</text>
<text text-anchor="start" x="396.5864" y="-26.5" font-family="Helvetica,sans-Serif" font-size="10.00" fill="#000000">&lt; dim, ::FEFaceValues</text>
<text text-anchor="start" x="396.5864" y="-16.5" font-family="Helvetica,sans-Serif" font-size="10.00" fill="#000000">&lt; dim, spacedim &gt; ::space</text>
<text text-anchor="middle" x="454.9482" y="-6.5" font-family="Helvetica,sans-Serif" font-size="10.00" fill="#000000">_dimension &gt;</text>
</a>
</g>
</g>
<!-- Node0&#45;&gt;Node5 -->
<g id="edge5" class="edge">
<title>Node0&#45;&gt;Node5</title>
<path fill="none" stroke="#ffa500" stroke-dasharray="5,2" d="M178.4699,-100.6104C192.3964,-84.7609 213.3697,-64.2973 236.5264,-53.5 284.1971,-31.2724 343.6708,-24.556 388.5162,-23.1007"/>
<polygon fill="#ffa500" stroke="#ffa500" points="175.6586,-98.5138 171.8553,-108.4025 180.9952,-103.0439 175.6586,-98.5138"/>
<text text-anchor="start" x="237.1318" y="-75.5" font-family="Helvetica,sans-Serif" font-size="10.00" fill="#000000"> &lt; dim, ::FEFaceValues</text>
<text text-anchor="start" x="237.1318" y="-65.5" font-family="Helvetica,sans-Serif" font-size="10.00" fill="#000000">&lt; dim, spacedim &gt; ::space</text>
<text text-anchor="middle" x="295.4937" y="-55.5" font-family="Helvetica,sans-Serif" font-size="10.00" fill="#000000">_dimension &gt;</text>
</g>
<!-- Node1 -->
<g id="node2" class="node">
<title>Node1</title>
<g id="a_node2"><a xlink:href="classSubscriptor.html" target="_top" xlink:title="Subscriptor">
<polygon fill="#ffffff" stroke="#000000" points="0,-113.5 0,-131.5 66.5762,-131.5 66.5762,-113.5 0,-113.5"/>
<text text-anchor="middle" x="33.2881" y="-119.5" font-family="Helvetica,sans-Serif" font-size="10.00" fill="#000000">Subscriptor</text>
</a>
</g>
</g>
<!-- Node1&#45;&gt;Node0 -->
<g id="edge1" class="edge">
<title>Node1&#45;&gt;Node0</title>
<path fill="none" stroke="#191970" d="M76.9629,-122.5C85.5057,-122.5 94.586,-122.5 103.5002,-122.5"/>
<polygon fill="#191970" stroke="#191970" points="76.8564,-119.0001 66.8564,-122.5 76.8563,-126.0001 76.8564,-119.0001"/>
</g>
</g>
</svg>
