<?xml version="1.0" encoding="UTF-8" standalone="no"?>
<!DOCTYPE svg PUBLIC "-//W3C//DTD SVG 1.1//EN"
 "http://www.w3.org/Graphics/SVG/1.1/DTD/svg11.dtd">
<!-- Generated by graphviz version 2.40.1 (20161225.0304)
 -->
<!-- Title: internal::DoFHandler::Policy::ParallelShared&lt; dim, spacedim &gt; Pages: 1 -->
<svg width="127pt" height="197pt"
 viewBox="0.00 0.00 127.38 197.00" xmlns="http://www.w3.org/2000/svg" xmlns:xlink="http://www.w3.org/1999/xlink">
<g id="graph0" class="graph" transform="scale(1 1) rotate(0) translate(4 193)">
<title>internal::DoFHandler::Policy::ParallelShared&lt; dim, spacedim &gt;</title>
<polygon fill="#ffffff" stroke="transparent" points="-4,4 -4,-193 123.3838,-193 123.3838,4 -4,4"/>
<!-- Node0 -->
<g id="node1" class="node">
<title>Node0</title>
<polygon fill="#bfbfbf" stroke="#000000" points="0,-.5 0,-38.5 119.3838,-38.5 119.3838,-.5 0,-.5"/>
<text text-anchor="start" x="8" y="-26.5" font-family="Helvetica,sans-Serif" font-size="10.00" fill="#000000">internal::DoFHandler</text>
<text text-anchor="start" x="8" y="-16.5" font-family="Helvetica,sans-Serif" font-size="10.00" fill="#000000">::Policy::ParallelShared</text>
<text text-anchor="middle" x="59.6919" y="-6.5" font-family="Helvetica,sans-Serif" font-size="10.00" fill="#000000">&lt; dim, spacedim &gt;</text>
</g>
<!-- Node1 -->
<g id="node2" class="node">
<title>Node1</title>
<g id="a_node2"><a xlink:href="classinternal_1_1DoFHandler_1_1Policy_1_1Sequential.html" target="_top" xlink:title="internal::DoFHandler\l::Policy::Sequential\l\&lt; dim, spacedim \&gt;">
<polygon fill="#ffffff" stroke="#000000" points="5.5591,-75.5 5.5591,-113.5 113.8247,-113.5 113.8247,-75.5 5.5591,-75.5"/>
<text text-anchor="start" x="13.5591" y="-101.5" font-family="Helvetica,sans-Serif" font-size="10.00" fill="#000000">internal::DoFHandler</text>
<text text-anchor="start" x="13.5591" y="-91.5" font-family="Helvetica,sans-Serif" font-size="10.00" fill="#000000">::Policy::Sequential</text>
<text text-anchor="middle" x="59.6919" y="-81.5" font-family="Helvetica,sans-Serif" font-size="10.00" fill="#000000">&lt; dim, spacedim &gt;</text>
</a>
</g>
</g>
<!-- Node1&#45;&gt;Node0 -->
<g id="edge1" class="edge">
<title>Node1&#45;&gt;Node0</title>
<path fill="none" stroke="#191970" d="M59.6919,-64.8977C59.6919,-56.1033 59.6919,-46.7019 59.6919,-38.7489"/>
<polygon fill="#191970" stroke="#191970" points="56.192,-65.1856 59.6919,-75.1856 63.192,-65.1857 56.192,-65.1856"/>
</g>
<!-- Node2 -->
<g id="node3" class="node">
<title>Node2</title>
<g id="a_node3"><a xlink:href="classinternal_1_1DoFHandler_1_1Policy_1_1PolicyBase.html" target="_top" xlink:title="internal::DoFHandler\l::Policy::PolicyBase\l\&lt; dim, spacedim \&gt;">
<polygon fill="#ffffff" stroke="#000000" points="5.5591,-150.5 5.5591,-188.5 113.8247,-188.5 113.8247,-150.5 5.5591,-150.5"/>
<text text-anchor="start" x="13.5591" y="-176.5" font-family="Helvetica,sans-Serif" font-size="10.00" fill="#000000">internal::DoFHandler</text>
<text text-anchor="start" x="13.5591" y="-166.5" font-family="Helvetica,sans-Serif" font-size="10.00" fill="#000000">::Policy::PolicyBase</text>
<text text-anchor="middle" x="59.6919" y="-156.5" font-family="Helvetica,sans-Serif" font-size="10.00" fill="#000000">&lt; dim, spacedim &gt;</text>
</a>
</g>
</g>
<!-- Node2&#45;&gt;Node1 -->
<g id="edge2" class="edge">
<title>Node2&#45;&gt;Node1</title>
<path fill="none" stroke="#191970" d="M59.6919,-139.8977C59.6919,-131.1033 59.6919,-121.7019 59.6919,-113.7489"/>
<polygon fill="#191970" stroke="#191970" points="56.192,-140.1856 59.6919,-150.1856 63.192,-140.1857 56.192,-140.1856"/>
</g>
</g>
</svg>
