<?xml version="1.0" encoding="UTF-8" standalone="no"?>
<!DOCTYPE svg PUBLIC "-//W3C//DTD SVG 1.1//EN"
 "http://www.w3.org/Graphics/SVG/1.1/DTD/svg11.dtd">
<!-- Generated by graphviz version 2.40.1 (20161225.0304)
 -->
<!-- Title: FE_RaviartThomasNodal&lt; dim &gt; Pages: 1 -->
<svg width="298pt" height="329pt"
 viewBox="0.00 0.00 297.96 329.00" xmlns="http://www.w3.org/2000/svg" xmlns:xlink="http://www.w3.org/1999/xlink">
<g id="graph0" class="graph" transform="scale(1 1) rotate(0) translate(4 325)">
<title>FE_RaviartThomasNodal&lt; dim &gt;</title>
<polygon fill="#ffffff" stroke="transparent" points="-4,4 -4,-325 293.9565,-325 293.9565,4 -4,4"/>
<!-- Node0 -->
<g id="node1" class="node">
<title>Node0</title>
<polygon fill="#bfbfbf" stroke="#000000" points="77.5356,-.5 77.5356,-28.5 205.8013,-28.5 205.8013,-.5 77.5356,-.5"/>
<text text-anchor="start" x="85.5356" y="-16.5" font-family="Helvetica,sans-Serif" font-size="10.00" fill="#000000">FE_RaviartThomasNodal</text>
<text text-anchor="middle" x="141.6685" y="-6.5" font-family="Helvetica,sans-Serif" font-size="10.00" fill="#000000">&lt; dim &gt;</text>
</g>
<!-- Node1 -->
<g id="node2" class="node">
<title>Node1</title>
<g id="a_node2"><a xlink:href="classFE__PolyTensor.html" target="_top" xlink:title="FE_PolyTensor\&lt; Polynomials\lRaviartThomas\&lt; dim \&gt;, dim \&gt;">
<polygon fill="#ffffff" stroke="#000000" points="67.9507,-66.5 67.9507,-94.5 215.3862,-94.5 215.3862,-66.5 67.9507,-66.5"/>
<text text-anchor="start" x="75.9507" y="-82.5" font-family="Helvetica,sans-Serif" font-size="10.00" fill="#000000">FE_PolyTensor&lt; Polynomials</text>
<text text-anchor="middle" x="141.6685" y="-72.5" font-family="Helvetica,sans-Serif" font-size="10.00" fill="#000000">RaviartThomas&lt; dim &gt;, dim &gt;</text>
</a>
</g>
</g>
<!-- Node1&#45;&gt;Node0 -->
<g id="edge1" class="edge">
<title>Node1&#45;&gt;Node0</title>
<path fill="none" stroke="#191970" d="M141.6685,-56.0322C141.6685,-46.8606 141.6685,-36.7449 141.6685,-28.7931"/>
<polygon fill="#191970" stroke="#191970" points="138.1686,-56.1789 141.6685,-66.179 145.1686,-56.179 138.1686,-56.1789"/>
</g>
<!-- Node2 -->
<g id="node3" class="node">
<title>Node2</title>
<g id="a_node3"><a xlink:href="classFiniteElement.html" target="_top" xlink:title="FiniteElement\&lt; dim,\l dim \&gt;">
<polygon fill="#ffffff" stroke="#000000" points="161.3447,-151.5 161.3447,-179.5 265.9922,-179.5 265.9922,-151.5 161.3447,-151.5"/>
<text text-anchor="start" x="169.3447" y="-167.5" font-family="Helvetica,sans-Serif" font-size="10.00" fill="#000000">FiniteElement&lt; dim,</text>
<text text-anchor="middle" x="213.6685" y="-157.5" font-family="Helvetica,sans-Serif" font-size="10.00" fill="#000000"> dim &gt;</text>
</a>
</g>
</g>
<!-- Node2&#45;&gt;Node1 -->
<g id="edge2" class="edge">
<title>Node2&#45;&gt;Node1</title>
<path fill="none" stroke="#191970" d="M212.3773,-141.086C210.8388,-131.5497 207.7492,-121.0064 201.6685,-113 195.8647,-105.3583 187.7269,-99.2987 179.313,-94.585"/>
<polygon fill="#191970" stroke="#191970" points="208.924,-141.6957 213.5319,-151.236 215.8791,-140.9045 208.924,-141.6957"/>
</g>
<!-- Node3 -->
<g id="node4" class="node">
<title>Node3</title>
<g id="a_node4"><a xlink:href="classSubscriptor.html" target="_top" xlink:title="Subscriptor">
<polygon fill="#ffffff" stroke="#000000" points="223.3804,-297.5 223.3804,-315.5 289.9565,-315.5 289.9565,-297.5 223.3804,-297.5"/>
<text text-anchor="middle" x="256.6685" y="-303.5" font-family="Helvetica,sans-Serif" font-size="10.00" fill="#000000">Subscriptor</text>
</a>
</g>
</g>
<!-- Node3&#45;&gt;Node2 -->
<g id="edge3" class="edge">
<title>Node3&#45;&gt;Node2</title>
<path fill="none" stroke="#191970" d="M250.9527,-287.6409C244.3872,-265.9933 233.2817,-229.4243 223.6685,-198 221.8379,-192.0161 219.8088,-185.4156 218.0594,-179.735"/>
<polygon fill="#191970" stroke="#191970" points="247.6894,-288.9405 253.9403,-297.4948 254.3882,-286.9094 247.6894,-288.9405"/>
</g>
<!-- Node5 -->
<g id="node6" class="node">
<title>Node5</title>
<g id="a_node6"><a xlink:href="classFiniteElement.html" target="_top" xlink:title="FiniteElement\&lt; dim,\l spacedim \&gt;">
<polygon fill="#ffffff" stroke="#000000" points="77.3447,-226.5 77.3447,-254.5 181.9922,-254.5 181.9922,-226.5 77.3447,-226.5"/>
<text text-anchor="start" x="85.3447" y="-242.5" font-family="Helvetica,sans-Serif" font-size="10.00" fill="#000000">FiniteElement&lt; dim,</text>
<text text-anchor="middle" x="129.6685" y="-232.5" font-family="Helvetica,sans-Serif" font-size="10.00" fill="#000000"> spacedim &gt;</text>
</a>
</g>
</g>
<!-- Node3&#45;&gt;Node5 -->
<g id="edge6" class="edge">
<title>Node3&#45;&gt;Node5</title>
<path fill="none" stroke="#191970" d="M230.3937,-292.8454C208.9674,-281.7105 178.8005,-266.0332 157.0741,-254.7423"/>
<polygon fill="#191970" stroke="#191970" points="228.7886,-295.9557 239.2759,-297.4614 232.0166,-289.7443 228.7886,-295.9557"/>
</g>
<!-- Node4 -->
<g id="node5" class="node">
<title>Node4</title>
<g id="a_node5"><a xlink:href="classFiniteElementData.html" target="_top" xlink:title="FiniteElementData\&lt;\l dim \&gt;">
<polygon fill="#ffffff" stroke="#000000" points="88.6182,-292.5 88.6182,-320.5 192.7188,-320.5 192.7188,-292.5 88.6182,-292.5"/>
<text text-anchor="start" x="96.6182" y="-308.5" font-family="Helvetica,sans-Serif" font-size="10.00" fill="#000000">FiniteElementData&lt;</text>
<text text-anchor="middle" x="140.6685" y="-298.5" font-family="Helvetica,sans-Serif" font-size="10.00" fill="#000000"> dim &gt;</text>
</a>
</g>
</g>
<!-- Node4&#45;&gt;Node2 -->
<g id="edge4" class="edge">
<title>Node4&#45;&gt;Node2</title>
<path fill="none" stroke="#191970" d="M165.7351,-285.7188C174.7639,-277.0634 184.2875,-266.3788 190.6685,-255 204.3222,-230.6521 210.0408,-198.0554 212.3034,-179.6712"/>
<polygon fill="#191970" stroke="#191970" points="163.3593,-283.1485 158.347,-292.4827 168.0862,-288.3116 163.3593,-283.1485"/>
</g>
<!-- Node4&#45;&gt;Node5 -->
<g id="edge7" class="edge">
<title>Node4&#45;&gt;Node5</title>
<path fill="none" stroke="#191970" d="M136.5905,-282.0322C135.0619,-272.8606 133.3759,-262.7449 132.0506,-254.7931"/>
<polygon fill="#191970" stroke="#191970" points="133.1852,-282.8905 138.2816,-292.179 140.0899,-281.7396 133.1852,-282.8905"/>
</g>
<!-- Node5&#45;&gt;Node2 -->
<g id="edge5" class="edge">
<title>Node5&#45;&gt;Node2</title>
<path fill="none" stroke="#ffa500" stroke-dasharray="5,2" d="M130.3048,-216.0729C131.5013,-209.649 133.763,-203.0983 137.8706,-198 144.1586,-190.1953 152.6752,-184.2289 161.7313,-179.6789"/>
<polygon fill="#ffa500" stroke="#ffa500" points="126.7739,-216.1627 129.159,-226.4856 133.7319,-216.9284 126.7739,-216.1627"/>
<text text-anchor="middle" x="167.5674" y="-200" font-family="Helvetica,sans-Serif" font-size="10.00" fill="#000000"> &lt; dim, dim &gt;</text>
</g>
<!-- Node6 -->
<g id="node7" class="node">
<title>Node6</title>
<g id="a_node7"><a xlink:href="classFE__PolyTensor.html" target="_top" xlink:title="FE_PolyTensor\&lt; Polynomial\lType, dim, spacedim \&gt;">
<polygon fill="#ffffff" stroke="#000000" points="0,-151.5 0,-179.5 141.3369,-179.5 141.3369,-151.5 0,-151.5"/>
<text text-anchor="start" x="8" y="-167.5" font-family="Helvetica,sans-Serif" font-size="10.00" fill="#000000">FE_PolyTensor&lt; Polynomial</text>
<text text-anchor="middle" x="70.6685" y="-157.5" font-family="Helvetica,sans-Serif" font-size="10.00" fill="#000000">Type, dim, spacedim &gt;</text>
</a>
</g>
</g>
<!-- Node5&#45;&gt;Node6 -->
<g id="edge9" class="edge">
<title>Node5&#45;&gt;Node6</title>
<path fill="none" stroke="#191970" d="M112.1554,-218.2376C102.2915,-205.6988 90.2732,-190.4213 81.7161,-179.5437"/>
<polygon fill="#191970" stroke="#191970" points="109.6373,-220.6975 118.571,-226.3931 115.139,-216.3695 109.6373,-220.6975"/>
</g>
<!-- Node6&#45;&gt;Node1 -->
<g id="edge8" class="edge">
<title>Node6&#45;&gt;Node1</title>
<path fill="none" stroke="#ffa500" stroke-dasharray="5,2" d="M63.9724,-141.3065C62.7352,-131.8032 63.2184,-121.225 68.563,-113 73.7093,-105.0802 81.2797,-99.0748 89.6233,-94.5254"/>
<polygon fill="#ffa500" stroke="#ffa500" points="60.5897,-142.2477 65.9328,-151.3966 67.4613,-140.9126 60.5897,-142.2477"/>
<text text-anchor="start" x="68.6685" y="-125" font-family="Helvetica,sans-Serif" font-size="10.00" fill="#000000"> &lt; PolynomialsRaviartThomas</text>
<text text-anchor="middle" x="135.2212" y="-115" font-family="Helvetica,sans-Serif" font-size="10.00" fill="#000000">&lt; dim &gt;, dim &gt;</text>
</g>
</g>
</svg>
