<?xml version="1.0" encoding="UTF-8" standalone="no"?>
<!DOCTYPE svg PUBLIC "-//W3C//DTD SVG 1.1//EN"
 "http://www.w3.org/Graphics/SVG/1.1/DTD/svg11.dtd">
<!-- Generated by graphviz version 2.40.1 (20161225.0304)
 -->
<!-- Title: PointerMatrixVector&lt; number &gt; Pages: 1 -->
<svg width="196pt" height="234pt"
 viewBox="0.00 0.00 195.96 234.00" xmlns="http://www.w3.org/2000/svg" xmlns:xlink="http://www.w3.org/1999/xlink">
<g id="graph0" class="graph" transform="scale(1 1) rotate(0) translate(4 230)">
<title>PointerMatrixVector&lt; number &gt;</title>
<polygon fill="#ffffff" stroke="transparent" points="-4,4 -4,-230 191.9585,-230 191.9585,4 -4,4"/>
<!-- Node0 -->
<g id="node1" class="node">
<title>Node0</title>
<polygon fill="#bfbfbf" stroke="#000000" points="1.8164,-.5 1.8164,-28.5 105.0771,-28.5 105.0771,-.5 1.8164,-.5"/>
<text text-anchor="start" x="9.8164" y="-16.5" font-family="Helvetica,sans-Serif" font-size="10.00" fill="#000000">PointerMatrixVector</text>
<text text-anchor="middle" x="53.4468" y="-6.5" font-family="Helvetica,sans-Serif" font-size="10.00" fill="#000000">&lt; number &gt;</text>
</g>
<!-- Node1 -->
<g id="node2" class="node">
<title>Node1</title>
<g id="a_node2"><a xlink:href="classPointerMatrixBase.html" target="_top" xlink:title="PointerMatrixBase\&lt;\l Vector\&lt; number \&gt; \&gt;">
<polygon fill="#ffffff" stroke="#000000" points="0,-66.5 0,-94.5 106.8936,-94.5 106.8936,-66.5 0,-66.5"/>
<text text-anchor="start" x="8" y="-82.5" font-family="Helvetica,sans-Serif" font-size="10.00" fill="#000000">PointerMatrixBase&lt;</text>
<text text-anchor="middle" x="53.4468" y="-72.5" font-family="Helvetica,sans-Serif" font-size="10.00" fill="#000000"> Vector&lt; number &gt; &gt;</text>
</a>
</g>
</g>
<!-- Node1&#45;&gt;Node0 -->
<g id="edge1" class="edge">
<title>Node1&#45;&gt;Node0</title>
<path fill="none" stroke="#191970" d="M53.4468,-56.0322C53.4468,-46.8606 53.4468,-36.7449 53.4468,-28.7931"/>
<polygon fill="#191970" stroke="#191970" points="49.9469,-56.1789 53.4468,-66.179 56.9469,-56.179 49.9469,-56.1789"/>
</g>
<!-- Node2 -->
<g id="node3" class="node">
<title>Node2</title>
<g id="a_node3"><a xlink:href="classSubscriptor.html" target="_top" xlink:title="Subscriptor">
<polygon fill="#ffffff" stroke="#000000" points="16.1587,-207.5 16.1587,-225.5 82.7349,-225.5 82.7349,-207.5 16.1587,-207.5"/>
<text text-anchor="middle" x="49.4468" y="-213.5" font-family="Helvetica,sans-Serif" font-size="10.00" fill="#000000">Subscriptor</text>
</a>
</g>
</g>
<!-- Node2&#45;&gt;Node1 -->
<g id="edge2" class="edge">
<title>Node2&#45;&gt;Node1</title>
<path fill="none" stroke="#191970" d="M50.017,-197.1119C50.8319,-169.4066 52.3103,-119.1399 53.0303,-94.6595"/>
<polygon fill="#191970" stroke="#191970" points="46.5173,-197.0536 49.7217,-207.1522 53.5143,-197.2594 46.5173,-197.0536"/>
</g>
<!-- Node3 -->
<g id="node4" class="node">
<title>Node3</title>
<g id="a_node4"><a xlink:href="classPointerMatrixBase.html" target="_top" xlink:title="PointerMatrixBase\&lt;\l VectorType \&gt;">
<polygon fill="#ffffff" stroke="#000000" points="65.6772,-141.5 65.6772,-169.5 169.2163,-169.5 169.2163,-141.5 65.6772,-141.5"/>
<text text-anchor="start" x="73.6772" y="-157.5" font-family="Helvetica,sans-Serif" font-size="10.00" fill="#000000">PointerMatrixBase&lt;</text>
<text text-anchor="middle" x="117.4468" y="-147.5" font-family="Helvetica,sans-Serif" font-size="10.00" fill="#000000"> VectorType &gt;</text>
</a>
</g>
</g>
<!-- Node2&#45;&gt;Node3 -->
<g id="edge4" class="edge">
<title>Node2&#45;&gt;Node3</title>
<path fill="none" stroke="#191970" d="M67.0446,-200.7137C77.804,-191.0619 91.4452,-178.8249 101.8222,-169.5162"/>
<polygon fill="#191970" stroke="#191970" points="64.5871,-198.2163 59.4804,-207.4992 69.2614,-203.427 64.5871,-198.2163"/>
</g>
<!-- Node3&#45;&gt;Node1 -->
<g id="edge3" class="edge">
<title>Node3&#45;&gt;Node1</title>
<path fill="none" stroke="#ffa500" stroke-dasharray="5,2" d="M98.7575,-133.5986C88.0008,-120.993 74.8022,-105.5259 65.4307,-94.5437"/>
<polygon fill="#ffa500" stroke="#ffa500" points="96.2552,-136.0581 105.4089,-141.3931 101.5801,-131.5143 96.2552,-136.0581"/>
<text text-anchor="middle" x="138.2026" y="-115" font-family="Helvetica,sans-Serif" font-size="10.00" fill="#000000"> &lt; Vector&lt; number &gt; &gt;</text>
</g>
</g>
</svg>
