<?xml version="1.0" encoding="UTF-8" standalone="no"?>
<!DOCTYPE svg PUBLIC "-//W3C//DTD SVG 1.1//EN"
 "http://www.w3.org/Graphics/SVG/1.1/DTD/svg11.dtd">
<!-- Generated by graphviz version 2.40.1 (20161225.0304)
 -->
<!-- Title: BlockSparsityPattern Pages: 1 -->
<svg width="218pt" height="224pt"
 viewBox="0.00 0.00 217.61 224.00" xmlns="http://www.w3.org/2000/svg" xmlns:xlink="http://www.w3.org/1999/xlink">
<g id="graph0" class="graph" transform="scale(1 1) rotate(0) translate(4 220)">
<title>BlockSparsityPattern</title>
<polygon fill="#ffffff" stroke="transparent" points="-4,4 -4,-220 213.6104,-220 213.6104,4 -4,4"/>
<!-- Node0 -->
<g id="node1" class="node">
<title>Node0</title>
<polygon fill="#bfbfbf" stroke="#000000" points="11.3965,-.5 11.3965,-18.5 120.2139,-18.5 120.2139,-.5 11.3965,-.5"/>
<text text-anchor="middle" x="65.8052" y="-6.5" font-family="Helvetica,sans-Serif" font-size="10.00" fill="#000000">BlockSparsityPattern</text>
</g>
<!-- Node1 -->
<g id="node2" class="node">
<title>Node1</title>
<g id="a_node2"><a xlink:href="classBlockSparsityPatternBase.html" target="_top" xlink:title="BlockSparsityPatternBase\l\&lt; SparsityPattern \&gt;">
<polygon fill="#ffffff" stroke="#000000" points="0,-56.5 0,-84.5 131.6104,-84.5 131.6104,-56.5 0,-56.5"/>
<text text-anchor="start" x="8" y="-72.5" font-family="Helvetica,sans-Serif" font-size="10.00" fill="#000000">BlockSparsityPatternBase</text>
<text text-anchor="middle" x="65.8052" y="-62.5" font-family="Helvetica,sans-Serif" font-size="10.00" fill="#000000">&lt; SparsityPattern &gt;</text>
</a>
</g>
</g>
<!-- Node1&#45;&gt;Node0 -->
<g id="edge1" class="edge">
<title>Node1&#45;&gt;Node0</title>
<path fill="none" stroke="#191970" d="M65.8052,-46.1001C65.8052,-36.5157 65.8052,-26.0935 65.8052,-18.831"/>
<polygon fill="#191970" stroke="#191970" points="62.3053,-46.352 65.8052,-56.3521 69.3053,-46.3521 62.3053,-46.352"/>
</g>
<!-- Node2 -->
<g id="node3" class="node">
<title>Node2</title>
<g id="a_node3"><a xlink:href="classSubscriptor.html" target="_top" xlink:title="Subscriptor">
<polygon fill="#ffffff" stroke="#000000" points="28.5171,-197.5 28.5171,-215.5 95.0933,-215.5 95.0933,-197.5 28.5171,-197.5"/>
<text text-anchor="middle" x="61.8052" y="-203.5" font-family="Helvetica,sans-Serif" font-size="10.00" fill="#000000">Subscriptor</text>
</a>
</g>
</g>
<!-- Node2&#45;&gt;Node1 -->
<g id="edge2" class="edge">
<title>Node2&#45;&gt;Node1</title>
<path fill="none" stroke="#191970" d="M62.3754,-187.1119C63.1903,-159.4066 64.6687,-109.1399 65.3887,-84.6595"/>
<polygon fill="#191970" stroke="#191970" points="58.8757,-187.0536 62.0801,-197.1522 65.8727,-187.2594 58.8757,-187.0536"/>
</g>
<!-- Node3 -->
<g id="node4" class="node">
<title>Node3</title>
<g id="a_node4"><a xlink:href="classBlockSparsityPatternBase.html" target="_top" xlink:title="BlockSparsityPatternBase\l\&lt; SparsityPatternType \&gt;">
<polygon fill="#ffffff" stroke="#000000" points="78,-131.5 78,-159.5 209.6104,-159.5 209.6104,-131.5 78,-131.5"/>
<text text-anchor="start" x="86" y="-147.5" font-family="Helvetica,sans-Serif" font-size="10.00" fill="#000000">BlockSparsityPatternBase</text>
<text text-anchor="middle" x="143.8052" y="-137.5" font-family="Helvetica,sans-Serif" font-size="10.00" fill="#000000">&lt; SparsityPatternType &gt;</text>
</a>
</g>
</g>
<!-- Node2&#45;&gt;Node3 -->
<g id="edge4" class="edge">
<title>Node2&#45;&gt;Node3</title>
<path fill="none" stroke="#191970" d="M82.2669,-191.2784C95.354,-181.5429 112.205,-169.0074 124.9638,-159.5162"/>
<polygon fill="#191970" stroke="#191970" points="79.839,-188.7224 73.9046,-197.4992 84.017,-194.3388 79.839,-188.7224"/>
</g>
<!-- Node3&#45;&gt;Node1 -->
<g id="edge3" class="edge">
<title>Node3&#45;&gt;Node1</title>
<path fill="none" stroke="#ffa500" stroke-dasharray="5,2" d="M121.7735,-124.3157C108.5324,-111.5839 92.0497,-95.7351 80.4106,-84.5437"/>
<polygon fill="#ffa500" stroke="#ffa500" points="119.4997,-126.9849 129.134,-131.3931 124.3515,-121.939 119.4997,-126.9849"/>
<text text-anchor="middle" x="152.9946" y="-105" font-family="Helvetica,sans-Serif" font-size="10.00" fill="#000000"> &lt; SparsityPattern &gt;</text>
</g>
</g>
</svg>
