<?xml version="1.0" encoding="UTF-8" standalone="no"?>
<!DOCTYPE svg PUBLIC "-//W3C//DTD SVG 1.1//EN"
 "http://www.w3.org/Graphics/SVG/1.1/DTD/svg11.dtd">
<!-- Generated by graphviz version 2.40.1 (20161225.0304)
 -->
<!-- Title: FETools::FEFactoryBase&lt; dim, spacedim &gt; Pages: 1 -->
<svg width="171pt" height="254pt"
 viewBox="0.00 0.00 171.20 254.00" xmlns="http://www.w3.org/2000/svg" xmlns:xlink="http://www.w3.org/1999/xlink">
<g id="graph0" class="graph" transform="scale(1 1) rotate(0) translate(4 250)">
<title>FETools::FEFactoryBase&lt; dim, spacedim &gt;</title>
<polygon fill="#ffffff" stroke="transparent" points="-4,4 -4,-250 167.2026,-250 167.2026,4 -4,4"/>
<!-- Node0 -->
<g id="node1" class="node">
<title>Node0</title>
<polygon fill="#bfbfbf" stroke="#000000" points="6.2598,-161.5 6.2598,-189.5 132.8506,-189.5 132.8506,-161.5 6.2598,-161.5"/>
<text text-anchor="start" x="14.2598" y="-177.5" font-family="Helvetica,sans-Serif" font-size="10.00" fill="#000000">FETools::FEFactoryBase</text>
<text text-anchor="middle" x="69.5552" y="-167.5" font-family="Helvetica,sans-Serif" font-size="10.00" fill="#000000">&lt; dim, spacedim &gt;</text>
</g>
<!-- Node2 -->
<g id="node3" class="node">
<title>Node2</title>
<g id="a_node3"><a xlink:href="classFETools_1_1FEFactoryBase.html" target="_top" xlink:title="FETools::FEFactoryBase\l\&lt; FE::dimension, FE::space\l_dimension \&gt;">
<polygon fill="#ffffff" stroke="#000000" points="0,-66.5 0,-104.5 139.1104,-104.5 139.1104,-66.5 0,-66.5"/>
<text text-anchor="start" x="8" y="-92.5" font-family="Helvetica,sans-Serif" font-size="10.00" fill="#000000">FETools::FEFactoryBase</text>
<text text-anchor="start" x="8" y="-82.5" font-family="Helvetica,sans-Serif" font-size="10.00" fill="#000000">&lt; FE::dimension, FE::space</text>
<text text-anchor="middle" x="69.5552" y="-72.5" font-family="Helvetica,sans-Serif" font-size="10.00" fill="#000000">_dimension &gt;</text>
</a>
</g>
</g>
<!-- Node0&#45;&gt;Node2 -->
<g id="edge2" class="edge">
<title>Node0&#45;&gt;Node2</title>
<path fill="none" stroke="#ffa500" stroke-dasharray="5,2" d="M69.5552,-151.1632C69.5552,-136.6073 69.5552,-118.367 69.5552,-104.8073"/>
<polygon fill="#ffa500" stroke="#ffa500" points="66.0553,-151.4375 69.5552,-161.4375 73.0553,-151.4375 66.0553,-151.4375"/>
<text text-anchor="start" x="69.5552" y="-135" font-family="Helvetica,sans-Serif" font-size="10.00" fill="#000000"> &lt; FE::dimension, FE</text>
<text text-anchor="middle" x="116.3789" y="-125" font-family="Helvetica,sans-Serif" font-size="10.00" fill="#000000">::space_dimension &gt;</text>
</g>
<!-- Node1 -->
<g id="node2" class="node">
<title>Node1</title>
<g id="a_node2"><a xlink:href="classSubscriptor.html" target="_top" xlink:title="Subscriptor">
<polygon fill="#ffffff" stroke="#000000" points="36.2671,-227.5 36.2671,-245.5 102.8433,-245.5 102.8433,-227.5 36.2671,-227.5"/>
<text text-anchor="middle" x="69.5552" y="-233.5" font-family="Helvetica,sans-Serif" font-size="10.00" fill="#000000">Subscriptor</text>
</a>
</g>
</g>
<!-- Node1&#45;&gt;Node0 -->
<g id="edge1" class="edge">
<title>Node1&#45;&gt;Node0</title>
<path fill="none" stroke="#191970" d="M69.5552,-217.2842C69.5552,-208.3664 69.5552,-197.9504 69.5552,-189.7488"/>
<polygon fill="#191970" stroke="#191970" points="66.0553,-217.4992 69.5552,-227.4992 73.0553,-217.4993 66.0553,-217.4992"/>
</g>
<!-- Node3 -->
<g id="node4" class="node">
<title>Node3</title>
<g id="a_node4"><a xlink:href="classFETools_1_1FEFactory.html" target="_top" xlink:title="FETools::FEFactory\l\&lt; FE \&gt;">
<polygon fill="#ffffff" stroke="#000000" points="17.6563,-.5 17.6563,-28.5 121.4541,-28.5 121.4541,-.5 17.6563,-.5"/>
<text text-anchor="start" x="25.6563" y="-16.5" font-family="Helvetica,sans-Serif" font-size="10.00" fill="#000000">FETools::FEFactory</text>
<text text-anchor="middle" x="69.5552" y="-6.5" font-family="Helvetica,sans-Serif" font-size="10.00" fill="#000000">&lt; FE &gt;</text>
</a>
</g>
</g>
<!-- Node2&#45;&gt;Node3 -->
<g id="edge3" class="edge">
<title>Node2&#45;&gt;Node3</title>
<path fill="none" stroke="#191970" d="M69.5552,-56.2143C69.5552,-46.768 69.5552,-36.7158 69.5552,-28.8465"/>
<polygon fill="#191970" stroke="#191970" points="66.0553,-56.4733 69.5552,-66.4733 73.0553,-56.4733 66.0553,-56.4733"/>
</g>
</g>
</svg>
