<?xml version="1.0" encoding="UTF-8" standalone="no"?>
<!DOCTYPE svg PUBLIC "-//W3C//DTD SVG 1.1//EN"
 "http://www.w3.org/Graphics/SVG/1.1/DTD/svg11.dtd">
<!-- Generated by graphviz version 2.40.1 (20161225.0304)
 -->
<!-- Title: Polynomials::Legendre Pages: 1 -->
<svg width="206pt" height="224pt"
 viewBox="0.00 0.00 206.38 224.00" xmlns="http://www.w3.org/2000/svg" xmlns:xlink="http://www.w3.org/1999/xlink">
<g id="graph0" class="graph" transform="scale(1 1) rotate(0) translate(4 220)">
<title>Polynomials::Legendre</title>
<polygon fill="#ffffff" stroke="transparent" points="-4,4 -4,-220 202.3789,-220 202.3789,4 -4,4"/>
<!-- Node0 -->
<g id="node1" class="node">
<title>Node0</title>
<polygon fill="#bfbfbf" stroke="#000000" points="3.3252,-.5 3.3252,-18.5 121.0537,-18.5 121.0537,-.5 3.3252,-.5"/>
<text text-anchor="middle" x="62.1895" y="-6.5" font-family="Helvetica,sans-Serif" font-size="10.00" fill="#000000">Polynomials::Legendre</text>
</g>
<!-- Node1 -->
<g id="node2" class="node">
<title>Node1</title>
<g id="a_node2"><a xlink:href="classPolynomials_1_1Polynomial.html" target="_top" xlink:title="Polynomials::Polynomial\l\&lt; double \&gt;">
<polygon fill="#ffffff" stroke="#000000" points="0,-56.5 0,-84.5 124.3789,-84.5 124.3789,-56.5 0,-56.5"/>
<text text-anchor="start" x="8" y="-72.5" font-family="Helvetica,sans-Serif" font-size="10.00" fill="#000000">Polynomials::Polynomial</text>
<text text-anchor="middle" x="62.1895" y="-62.5" font-family="Helvetica,sans-Serif" font-size="10.00" fill="#000000">&lt; double &gt;</text>
</a>
</g>
</g>
<!-- Node1&#45;&gt;Node0 -->
<g id="edge1" class="edge">
<title>Node1&#45;&gt;Node0</title>
<path fill="none" stroke="#191970" d="M62.1895,-46.1001C62.1895,-36.5157 62.1895,-26.0935 62.1895,-18.831"/>
<polygon fill="#191970" stroke="#191970" points="58.6896,-46.352 62.1895,-56.3521 65.6896,-46.3521 58.6896,-46.352"/>
</g>
<!-- Node2 -->
<g id="node3" class="node">
<title>Node2</title>
<g id="a_node3"><a xlink:href="classSubscriptor.html" target="_top" xlink:title="Subscriptor">
<polygon fill="#ffffff" stroke="#000000" points="24.9014,-197.5 24.9014,-215.5 91.4775,-215.5 91.4775,-197.5 24.9014,-197.5"/>
<text text-anchor="middle" x="58.1895" y="-203.5" font-family="Helvetica,sans-Serif" font-size="10.00" fill="#000000">Subscriptor</text>
</a>
</g>
</g>
<!-- Node2&#45;&gt;Node1 -->
<g id="edge2" class="edge">
<title>Node2&#45;&gt;Node1</title>
<path fill="none" stroke="#191970" d="M58.7597,-187.1119C59.5746,-159.4066 61.053,-109.1399 61.773,-84.6595"/>
<polygon fill="#191970" stroke="#191970" points="55.26,-187.0536 58.4644,-197.1522 62.257,-187.2594 55.26,-187.0536"/>
</g>
<!-- Node3 -->
<g id="node4" class="node">
<title>Node3</title>
<g id="a_node4"><a xlink:href="classPolynomials_1_1Polynomial.html" target="_top" xlink:title="Polynomials::Polynomial\l\&lt; number \&gt;">
<polygon fill="#ffffff" stroke="#000000" points="74,-131.5 74,-159.5 198.3789,-159.5 198.3789,-131.5 74,-131.5"/>
<text text-anchor="start" x="82" y="-147.5" font-family="Helvetica,sans-Serif" font-size="10.00" fill="#000000">Polynomials::Polynomial</text>
<text text-anchor="middle" x="136.1895" y="-137.5" font-family="Helvetica,sans-Serif" font-size="10.00" fill="#000000">&lt; number &gt;</text>
</a>
</g>
</g>
<!-- Node2&#45;&gt;Node3 -->
<g id="edge4" class="edge">
<title>Node2&#45;&gt;Node3</title>
<path fill="none" stroke="#191970" d="M77.6531,-191.2784C90.1018,-181.5429 106.1308,-169.0074 118.2671,-159.5162"/>
<polygon fill="#191970" stroke="#191970" points="75.4197,-188.5818 69.6986,-197.4992 79.732,-194.0959 75.4197,-188.5818"/>
</g>
<!-- Node3&#45;&gt;Node1 -->
<g id="edge3" class="edge">
<title>Node3&#45;&gt;Node1</title>
<path fill="none" stroke="#ffa500" stroke-dasharray="5,2" d="M114.9346,-123.9579C102.4336,-111.288 86.9849,-95.6305 76.0459,-84.5437"/>
<polygon fill="#ffa500" stroke="#ffa500" points="112.7557,-126.7329 122.2706,-131.3931 117.7386,-121.8165 112.7557,-126.7329"/>
<text text-anchor="middle" x="128.2114" y="-105" font-family="Helvetica,sans-Serif" font-size="10.00" fill="#000000"> &lt; double &gt;</text>
</g>
</g>
</svg>
