<?xml version="1.0" encoding="UTF-8" standalone="no"?>
<!DOCTYPE svg PUBLIC "-//W3C//DTD SVG 1.1//EN"
 "http://www.w3.org/Graphics/SVG/1.1/DTD/svg11.dtd">
<!-- Generated by graphviz version 2.40.1 (20161225.0304)
 -->
<!-- Title: FE_DGVector&lt; PolynomialType, dim, spacedim &gt; Pages: 1 -->
<svg width="1153pt" height="141pt"
 viewBox="0.00 0.00 1152.82 141.00" xmlns="http://www.w3.org/2000/svg" xmlns:xlink="http://www.w3.org/1999/xlink">
<g id="graph0" class="graph" transform="scale(1 1) rotate(0) translate(4 137)">
<title>FE_DGVector&lt; PolynomialType, dim, spacedim &gt;</title>
<polygon fill="#ffffff" stroke="transparent" points="-4,4 -4,-137 1148.8242,-137 1148.8242,4 -4,4"/>
<!-- Node0 -->
<g id="node1" class="node">
<title>Node0</title>
<polygon fill="#bfbfbf" stroke="#000000" points="461.085,-47.5 461.085,-75.5 620.7715,-75.5 620.7715,-47.5 461.085,-47.5"/>
<text text-anchor="start" x="469.085" y="-63.5" font-family="Helvetica,sans-Serif" font-size="10.00" fill="#000000">FE_DGVector&lt; PolynomialType,</text>
<text text-anchor="middle" x="540.9282" y="-53.5" font-family="Helvetica,sans-Serif" font-size="10.00" fill="#000000"> dim, spacedim &gt;</text>
</g>
<!-- Node5 -->
<g id="node6" class="node">
<title>Node5</title>
<g id="a_node6"><a xlink:href="classFE__DGVector.html" target="_top" xlink:title="FE_DGVector\&lt; Polynomials\lRaviartThomas\&lt; dim \&gt;,\l dim, spacedim \&gt;">
<polygon fill="#ffffff" stroke="#000000" points="802.106,-94.5 802.106,-132.5 942.3296,-132.5 942.3296,-94.5 802.106,-94.5"/>
<text text-anchor="start" x="810.106" y="-120.5" font-family="Helvetica,sans-Serif" font-size="10.00" fill="#000000">FE_DGVector&lt; Polynomials</text>
<text text-anchor="start" x="810.106" y="-110.5" font-family="Helvetica,sans-Serif" font-size="10.00" fill="#000000">RaviartThomas&lt; dim &gt;,</text>
<text text-anchor="middle" x="872.2178" y="-100.5" font-family="Helvetica,sans-Serif" font-size="10.00" fill="#000000"> dim, spacedim &gt;</text>
</a>
</g>
</g>
<!-- Node0&#45;&gt;Node5 -->
<g id="edge5" class="edge">
<title>Node0&#45;&gt;Node5</title>
<path fill="none" stroke="#ffa500" stroke-dasharray="5,2" d="M602.8131,-77.8792C614.6931,-80.6825 627.0756,-83.3722 638.7715,-85.5 693.1885,-95.3998 755.4012,-102.6641 801.9119,-107.3093"/>
<polygon fill="#ffa500" stroke="#ffa500" points="603.5201,-74.4495 592.9782,-75.5076 601.879,-81.2544 603.5201,-74.4495"/>
<text text-anchor="start" x="638.7715" y="-115.5" font-family="Helvetica,sans-Serif" font-size="10.00" fill="#000000"> &lt; PolynomialsRaviartThomas</text>
<text text-anchor="middle" x="705.3242" y="-105.5" font-family="Helvetica,sans-Serif" font-size="10.00" fill="#000000">&lt; dim &gt;, dim, spacedim &gt;</text>
</g>
<!-- Node7 -->
<g id="node8" class="node">
<title>Node7</title>
<g id="a_node8"><a xlink:href="classFE__DGVector.html" target="_top" xlink:title="FE_DGVector\&lt; Polynomials\lBDM\&lt; dim \&gt;, dim, spacedim \&gt;">
<polygon fill="#ffffff" stroke="#000000" points="797.1108,-47.5 797.1108,-75.5 947.3247,-75.5 947.3247,-47.5 797.1108,-47.5"/>
<text text-anchor="start" x="805.1108" y="-63.5" font-family="Helvetica,sans-Serif" font-size="10.00" fill="#000000">FE_DGVector&lt; Polynomials</text>
<text text-anchor="middle" x="872.2178" y="-53.5" font-family="Helvetica,sans-Serif" font-size="10.00" fill="#000000">BDM&lt; dim &gt;, dim, spacedim &gt;</text>
</a>
</g>
</g>
<!-- Node0&#45;&gt;Node7 -->
<g id="edge7" class="edge">
<title>Node0&#45;&gt;Node7</title>
<path fill="none" stroke="#ffa500" stroke-dasharray="5,2" d="M631.3436,-61.5C683.3184,-61.5 747.84,-61.5 797.0204,-61.5"/>
<polygon fill="#ffa500" stroke="#ffa500" points="631.1242,-58.0001 621.1242,-61.5 631.1241,-65.0001 631.1242,-58.0001"/>
<text text-anchor="start" x="649.1938" y="-73.5" font-family="Helvetica,sans-Serif" font-size="10.00" fill="#000000"> &lt; PolynomialsBDM&lt; dim</text>
<text text-anchor="middle" x="705.3242" y="-63.5" font-family="Helvetica,sans-Serif" font-size="10.00" fill="#000000"> &gt;, dim, spacedim &gt;</text>
</g>
<!-- Node9 -->
<g id="node10" class="node">
<title>Node9</title>
<g id="a_node10"><a xlink:href="classFE__DGVector.html" target="_top" xlink:title="FE_DGVector\&lt; Polynomials\lNedelec\&lt; dim \&gt;, dim, spacedim \&gt;">
<polygon fill="#ffffff" stroke="#000000" points="789.877,-.5 789.877,-28.5 954.5586,-28.5 954.5586,-.5 789.877,-.5"/>
<text text-anchor="start" x="797.877" y="-16.5" font-family="Helvetica,sans-Serif" font-size="10.00" fill="#000000">FE_DGVector&lt; Polynomials</text>
<text text-anchor="middle" x="872.2178" y="-6.5" font-family="Helvetica,sans-Serif" font-size="10.00" fill="#000000">Nedelec&lt; dim &gt;, dim, spacedim &gt;</text>
</a>
</g>
</g>
<!-- Node0&#45;&gt;Node9 -->
<g id="edge9" class="edge">
<title>Node0&#45;&gt;Node9</title>
<path fill="none" stroke="#ffa500" stroke-dasharray="5,2" d="M602.1635,-45.0644C614.2334,-42.2264 626.8517,-39.5384 638.7715,-37.5 688.548,-28.9876 744.8745,-23.3253 789.7271,-19.7493"/>
<polygon fill="#ffa500" stroke="#ffa500" points="601.0814,-41.725 592.1811,-47.4727 602.7231,-48.5298 601.0814,-41.725"/>
<text text-anchor="start" x="649.3281" y="-49.5" font-family="Helvetica,sans-Serif" font-size="10.00" fill="#000000"> &lt; PolynomialsNedelec</text>
<text text-anchor="middle" x="705.3242" y="-39.5" font-family="Helvetica,sans-Serif" font-size="10.00" fill="#000000">&lt; dim &gt;, dim, spacedim &gt;</text>
</g>
<!-- Node1 -->
<g id="node2" class="node">
<title>Node1</title>
<g id="a_node2"><a xlink:href="classFE__PolyTensor.html" target="_top" xlink:title="FE_PolyTensor\&lt; Polynomial\lType, dim, spacedim \&gt;">
<polygon fill="#ffffff" stroke="#000000" points="282.748,-47.5 282.748,-75.5 424.085,-75.5 424.085,-47.5 282.748,-47.5"/>
<text text-anchor="start" x="290.748" y="-63.5" font-family="Helvetica,sans-Serif" font-size="10.00" fill="#000000">FE_PolyTensor&lt; Polynomial</text>
<text text-anchor="middle" x="353.4165" y="-53.5" font-family="Helvetica,sans-Serif" font-size="10.00" fill="#000000">Type, dim, spacedim &gt;</text>
</a>
</g>
</g>
<!-- Node1&#45;&gt;Node0 -->
<g id="edge1" class="edge">
<title>Node1&#45;&gt;Node0</title>
<path fill="none" stroke="#191970" d="M434.476,-61.5C443.2133,-61.5 452.1004,-61.5 460.8263,-61.5"/>
<polygon fill="#191970" stroke="#191970" points="434.3067,-58.0001 424.3066,-61.5 434.3066,-65.0001 434.3067,-58.0001"/>
</g>
<!-- Node2 -->
<g id="node3" class="node">
<title>Node2</title>
<g id="a_node3"><a xlink:href="classFiniteElement.html" target="_top" xlink:title="FiniteElement\&lt; dim,\l spacedim \&gt;">
<polygon fill="#ffffff" stroke="#000000" points="141.1006,-47.5 141.1006,-75.5 245.748,-75.5 245.748,-47.5 141.1006,-47.5"/>
<text text-anchor="start" x="149.1006" y="-63.5" font-family="Helvetica,sans-Serif" font-size="10.00" fill="#000000">FiniteElement&lt; dim,</text>
<text text-anchor="middle" x="193.4243" y="-53.5" font-family="Helvetica,sans-Serif" font-size="10.00" fill="#000000"> spacedim &gt;</text>
</a>
</g>
</g>
<!-- Node2&#45;&gt;Node1 -->
<g id="edge2" class="edge">
<title>Node2&#45;&gt;Node1</title>
<path fill="none" stroke="#191970" d="M255.9195,-61.5C264.6675,-61.5 273.7091,-61.5 282.5975,-61.5"/>
<polygon fill="#191970" stroke="#191970" points="255.8118,-58.0001 245.8117,-61.5 255.8117,-65.0001 255.8118,-58.0001"/>
</g>
<!-- Node3 -->
<g id="node4" class="node">
<title>Node3</title>
<g id="a_node4"><a xlink:href="classSubscriptor.html" target="_top" xlink:title="Subscriptor">
<polygon fill="#ffffff" stroke="#000000" points="18.7622,-73.5 18.7622,-91.5 85.3384,-91.5 85.3384,-73.5 18.7622,-73.5"/>
<text text-anchor="middle" x="52.0503" y="-79.5" font-family="Helvetica,sans-Serif" font-size="10.00" fill="#000000">Subscriptor</text>
</a>
</g>
</g>
<!-- Node3&#45;&gt;Node2 -->
<g id="edge3" class="edge">
<title>Node3&#45;&gt;Node2</title>
<path fill="none" stroke="#191970" d="M95.6606,-76.022C110.0246,-73.8884 126.1458,-71.4937 141.091,-69.2737"/>
<polygon fill="#191970" stroke="#191970" points="94.9311,-72.5919 85.554,-77.5233 95.9597,-79.5159 94.9311,-72.5919"/>
</g>
<!-- Node4 -->
<g id="node5" class="node">
<title>Node4</title>
<g id="a_node5"><a xlink:href="classFiniteElementData.html" target="_top" xlink:title="FiniteElementData\&lt;\l dim \&gt;">
<polygon fill="#ffffff" stroke="#000000" points="0,-26.5 0,-54.5 104.1006,-54.5 104.1006,-26.5 0,-26.5"/>
<text text-anchor="start" x="8" y="-42.5" font-family="Helvetica,sans-Serif" font-size="10.00" fill="#000000">FiniteElementData&lt;</text>
<text text-anchor="middle" x="52.0503" y="-32.5" font-family="Helvetica,sans-Serif" font-size="10.00" fill="#000000"> dim &gt;</text>
</a>
</g>
</g>
<!-- Node4&#45;&gt;Node2 -->
<g id="edge4" class="edge">
<title>Node4&#45;&gt;Node2</title>
<path fill="none" stroke="#191970" d="M114.2377,-49.7374C123.1434,-51.0603 132.2318,-52.4103 140.9263,-53.7018"/>
<polygon fill="#191970" stroke="#191970" points="114.6968,-46.2673 104.2911,-48.26 113.6683,-53.1914 114.6968,-46.2673"/>
</g>
<!-- Node6 -->
<g id="node7" class="node">
<title>Node6</title>
<g id="a_node7"><a xlink:href="classFE__DGRaviartThomas.html" target="_top" xlink:title="FE_DGRaviartThomas\l\&lt; dim, spacedim \&gt;">
<polygon fill="#ffffff" stroke="#000000" points="1009.6226,-99.5 1009.6226,-127.5 1126.7603,-127.5 1126.7603,-99.5 1009.6226,-99.5"/>
<text text-anchor="start" x="1017.6226" y="-115.5" font-family="Helvetica,sans-Serif" font-size="10.00" fill="#000000">FE_DGRaviartThomas</text>
<text text-anchor="middle" x="1068.1914" y="-105.5" font-family="Helvetica,sans-Serif" font-size="10.00" fill="#000000">&lt; dim, spacedim &gt;</text>
</a>
</g>
</g>
<!-- Node5&#45;&gt;Node6 -->
<g id="edge6" class="edge">
<title>Node5&#45;&gt;Node6</title>
<path fill="none" stroke="#191970" d="M952.5783,-113.5C971.6252,-113.5 991.5909,-113.5 1009.4675,-113.5"/>
<polygon fill="#191970" stroke="#191970" points="952.4153,-110.0001 942.4152,-113.5 952.4152,-117.0001 952.4153,-110.0001"/>
</g>
<!-- Node8 -->
<g id="node9" class="node">
<title>Node8</title>
<g id="a_node9"><a xlink:href="classFE__DGBDM.html" target="_top" xlink:title="FE_DGBDM\&lt; dim, spacedim \&gt;">
<polygon fill="#ffffff" stroke="#000000" points="991.5586,-52.5 991.5586,-70.5 1144.8242,-70.5 1144.8242,-52.5 991.5586,-52.5"/>
<text text-anchor="middle" x="1068.1914" y="-58.5" font-family="Helvetica,sans-Serif" font-size="10.00" fill="#000000">FE_DGBDM&lt; dim, spacedim &gt;</text>
</a>
</g>
</g>
<!-- Node7&#45;&gt;Node8 -->
<g id="edge8" class="edge">
<title>Node7&#45;&gt;Node8</title>
<path fill="none" stroke="#191970" d="M957.6167,-61.5C968.8001,-61.5 980.2059,-61.5 991.2384,-61.5"/>
<polygon fill="#191970" stroke="#191970" points="957.4259,-58.0001 947.4258,-61.5 957.4258,-65.0001 957.4259,-58.0001"/>
</g>
<!-- Node10 -->
<g id="node11" class="node">
<title>Node10</title>
<g id="a_node11"><a xlink:href="classFE__DGNedelec.html" target="_top" xlink:title="FE_DGNedelec\&lt; dim,\l spacedim \&gt;">
<polygon fill="#ffffff" stroke="#000000" points="1011.4219,-.5 1011.4219,-28.5 1124.9609,-28.5 1124.9609,-.5 1011.4219,-.5"/>
<text text-anchor="start" x="1019.4219" y="-16.5" font-family="Helvetica,sans-Serif" font-size="10.00" fill="#000000">FE_DGNedelec&lt; dim,</text>
<text text-anchor="middle" x="1068.1914" y="-6.5" font-family="Helvetica,sans-Serif" font-size="10.00" fill="#000000"> spacedim &gt;</text>
</a>
</g>
</g>
<!-- Node9&#45;&gt;Node10 -->
<g id="edge10" class="edge">
<title>Node9&#45;&gt;Node10</title>
<path fill="none" stroke="#191970" d="M965.0831,-14.5C980.8569,-14.5 996.8082,-14.5 1011.2959,-14.5"/>
<polygon fill="#191970" stroke="#191970" points="964.7603,-11.0001 954.7602,-14.5 964.7602,-18.0001 964.7603,-11.0001"/>
</g>
</g>
</svg>
