<?xml version="1.0" encoding="UTF-8" standalone="no"?>
<!DOCTYPE svg PUBLIC "-//W3C//DTD SVG 1.1//EN"
 "http://www.w3.org/Graphics/SVG/1.1/DTD/svg11.dtd">
<!-- Generated by graphviz version 2.40.1 (20161225.0304)
 -->
<!-- Title: Polynomials::Hierarchical Pages: 1 -->
<svg width="208pt" height="224pt"
 viewBox="0.00 0.00 208.32 224.00" xmlns="http://www.w3.org/2000/svg" xmlns:xlink="http://www.w3.org/1999/xlink">
<g id="graph0" class="graph" transform="scale(1 1) rotate(0) translate(4 220)">
<title>Polynomials::Hierarchical</title>
<polygon fill="#ffffff" stroke="transparent" points="-4,4 -4,-220 204.3198,-220 204.3198,4 -4,4"/>
<!-- Node0 -->
<g id="node1" class="node">
<title>Node0</title>
<polygon fill="#bfbfbf" stroke="#000000" points="0,-.5 0,-18.5 128.2607,-18.5 128.2607,-.5 0,-.5"/>
<text text-anchor="middle" x="64.1304" y="-6.5" font-family="Helvetica,sans-Serif" font-size="10.00" fill="#000000">Polynomials::Hierarchical</text>
</g>
<!-- Node1 -->
<g id="node2" class="node">
<title>Node1</title>
<g id="a_node2"><a xlink:href="classPolynomials_1_1Polynomial.html" target="_top" xlink:title="Polynomials::Polynomial\l\&lt; double \&gt;">
<polygon fill="#ffffff" stroke="#000000" points="1.9409,-56.5 1.9409,-84.5 126.3198,-84.5 126.3198,-56.5 1.9409,-56.5"/>
<text text-anchor="start" x="9.9409" y="-72.5" font-family="Helvetica,sans-Serif" font-size="10.00" fill="#000000">Polynomials::Polynomial</text>
<text text-anchor="middle" x="64.1304" y="-62.5" font-family="Helvetica,sans-Serif" font-size="10.00" fill="#000000">&lt; double &gt;</text>
</a>
</g>
</g>
<!-- Node1&#45;&gt;Node0 -->
<g id="edge1" class="edge">
<title>Node1&#45;&gt;Node0</title>
<path fill="none" stroke="#191970" d="M64.1304,-46.1001C64.1304,-36.5157 64.1304,-26.0935 64.1304,-18.831"/>
<polygon fill="#191970" stroke="#191970" points="60.6305,-46.352 64.1304,-56.3521 67.6305,-46.3521 60.6305,-46.352"/>
</g>
<!-- Node2 -->
<g id="node3" class="node">
<title>Node2</title>
<g id="a_node3"><a xlink:href="classSubscriptor.html" target="_top" xlink:title="Subscriptor">
<polygon fill="#ffffff" stroke="#000000" points="26.8423,-197.5 26.8423,-215.5 93.4185,-215.5 93.4185,-197.5 26.8423,-197.5"/>
<text text-anchor="middle" x="60.1304" y="-203.5" font-family="Helvetica,sans-Serif" font-size="10.00" fill="#000000">Subscriptor</text>
</a>
</g>
</g>
<!-- Node2&#45;&gt;Node1 -->
<g id="edge2" class="edge">
<title>Node2&#45;&gt;Node1</title>
<path fill="none" stroke="#191970" d="M60.7006,-187.1119C61.5155,-159.4066 62.9939,-109.1399 63.7139,-84.6595"/>
<polygon fill="#191970" stroke="#191970" points="57.2009,-187.0536 60.4053,-197.1522 64.1979,-187.2594 57.2009,-187.0536"/>
</g>
<!-- Node3 -->
<g id="node4" class="node">
<title>Node3</title>
<g id="a_node4"><a xlink:href="classPolynomials_1_1Polynomial.html" target="_top" xlink:title="Polynomials::Polynomial\l\&lt; number \&gt;">
<polygon fill="#ffffff" stroke="#000000" points="75.9409,-131.5 75.9409,-159.5 200.3198,-159.5 200.3198,-131.5 75.9409,-131.5"/>
<text text-anchor="start" x="83.9409" y="-147.5" font-family="Helvetica,sans-Serif" font-size="10.00" fill="#000000">Polynomials::Polynomial</text>
<text text-anchor="middle" x="138.1304" y="-137.5" font-family="Helvetica,sans-Serif" font-size="10.00" fill="#000000">&lt; number &gt;</text>
</a>
</g>
</g>
<!-- Node2&#45;&gt;Node3 -->
<g id="edge4" class="edge">
<title>Node2&#45;&gt;Node3</title>
<path fill="none" stroke="#191970" d="M79.594,-191.2784C92.0427,-181.5429 108.0717,-169.0074 120.2081,-159.5162"/>
<polygon fill="#191970" stroke="#191970" points="77.3606,-188.5818 71.6395,-197.4992 81.6729,-194.0959 77.3606,-188.5818"/>
</g>
<!-- Node3&#45;&gt;Node1 -->
<g id="edge3" class="edge">
<title>Node3&#45;&gt;Node1</title>
<path fill="none" stroke="#ffa500" stroke-dasharray="5,2" d="M116.8755,-123.9579C104.3746,-111.288 88.9258,-95.6305 77.9868,-84.5437"/>
<polygon fill="#ffa500" stroke="#ffa500" points="114.6966,-126.7329 124.2115,-131.3931 119.6795,-121.8165 114.6966,-126.7329"/>
<text text-anchor="middle" x="130.1523" y="-105" font-family="Helvetica,sans-Serif" font-size="10.00" fill="#000000"> &lt; double &gt;</text>
</g>
</g>
</svg>
