<?xml version="1.0" encoding="UTF-8" standalone="no"?>
<!DOCTYPE svg PUBLIC "-//W3C//DTD SVG 1.1//EN"
 "http://www.w3.org/Graphics/SVG/1.1/DTD/svg11.dtd">
<!-- Generated by graphviz version 2.40.1 (20161225.0304)
 -->
<!-- Title: Polynomials::HermiteInterpolation Pages: 1 -->
<svg width="227pt" height="224pt"
 viewBox="0.00 0.00 226.95 224.00" xmlns="http://www.w3.org/2000/svg" xmlns:xlink="http://www.w3.org/1999/xlink">
<g id="graph0" class="graph" transform="scale(1 1) rotate(0) translate(4 220)">
<title>Polynomials::HermiteInterpolation</title>
<polygon fill="#ffffff" stroke="transparent" points="-4,4 -4,-220 222.9453,-220 222.9453,4 -4,4"/>
<!-- Node0 -->
<g id="node1" class="node">
<title>Node0</title>
<polygon fill="#bfbfbf" stroke="#000000" points="0,-.5 0,-18.5 165.5117,-18.5 165.5117,-.5 0,-.5"/>
<text text-anchor="middle" x="82.7559" y="-6.5" font-family="Helvetica,sans-Serif" font-size="10.00" fill="#000000">Polynomials::HermiteInterpolation</text>
</g>
<!-- Node1 -->
<g id="node2" class="node">
<title>Node1</title>
<g id="a_node2"><a xlink:href="classPolynomials_1_1Polynomial.html" target="_top" xlink:title="Polynomials::Polynomial\l\&lt; double \&gt;">
<polygon fill="#ffffff" stroke="#000000" points="20.5664,-56.5 20.5664,-84.5 144.9453,-84.5 144.9453,-56.5 20.5664,-56.5"/>
<text text-anchor="start" x="28.5664" y="-72.5" font-family="Helvetica,sans-Serif" font-size="10.00" fill="#000000">Polynomials::Polynomial</text>
<text text-anchor="middle" x="82.7559" y="-62.5" font-family="Helvetica,sans-Serif" font-size="10.00" fill="#000000">&lt; double &gt;</text>
</a>
</g>
</g>
<!-- Node1&#45;&gt;Node0 -->
<g id="edge1" class="edge">
<title>Node1&#45;&gt;Node0</title>
<path fill="none" stroke="#191970" d="M82.7559,-46.1001C82.7559,-36.5157 82.7559,-26.0935 82.7559,-18.831"/>
<polygon fill="#191970" stroke="#191970" points="79.256,-46.352 82.7559,-56.3521 86.256,-46.3521 79.256,-46.352"/>
</g>
<!-- Node2 -->
<g id="node3" class="node">
<title>Node2</title>
<g id="a_node3"><a xlink:href="classSubscriptor.html" target="_top" xlink:title="Subscriptor">
<polygon fill="#ffffff" stroke="#000000" points="45.4678,-197.5 45.4678,-215.5 112.0439,-215.5 112.0439,-197.5 45.4678,-197.5"/>
<text text-anchor="middle" x="78.7559" y="-203.5" font-family="Helvetica,sans-Serif" font-size="10.00" fill="#000000">Subscriptor</text>
</a>
</g>
</g>
<!-- Node2&#45;&gt;Node1 -->
<g id="edge2" class="edge">
<title>Node2&#45;&gt;Node1</title>
<path fill="none" stroke="#191970" d="M79.3261,-187.1119C80.141,-159.4066 81.6194,-109.1399 82.3394,-84.6595"/>
<polygon fill="#191970" stroke="#191970" points="75.8264,-187.0536 79.0308,-197.1522 82.8234,-187.2594 75.8264,-187.0536"/>
</g>
<!-- Node3 -->
<g id="node4" class="node">
<title>Node3</title>
<g id="a_node4"><a xlink:href="classPolynomials_1_1Polynomial.html" target="_top" xlink:title="Polynomials::Polynomial\l\&lt; number \&gt;">
<polygon fill="#ffffff" stroke="#000000" points="94.5664,-131.5 94.5664,-159.5 218.9453,-159.5 218.9453,-131.5 94.5664,-131.5"/>
<text text-anchor="start" x="102.5664" y="-147.5" font-family="Helvetica,sans-Serif" font-size="10.00" fill="#000000">Polynomials::Polynomial</text>
<text text-anchor="middle" x="156.7559" y="-137.5" font-family="Helvetica,sans-Serif" font-size="10.00" fill="#000000">&lt; number &gt;</text>
</a>
</g>
</g>
<!-- Node2&#45;&gt;Node3 -->
<g id="edge4" class="edge">
<title>Node2&#45;&gt;Node3</title>
<path fill="none" stroke="#191970" d="M98.2195,-191.2784C110.6682,-181.5429 126.6972,-169.0074 138.8336,-159.5162"/>
<polygon fill="#191970" stroke="#191970" points="95.9861,-188.5818 90.265,-197.4992 100.2984,-194.0959 95.9861,-188.5818"/>
</g>
<!-- Node3&#45;&gt;Node1 -->
<g id="edge3" class="edge">
<title>Node3&#45;&gt;Node1</title>
<path fill="none" stroke="#ffa500" stroke-dasharray="5,2" d="M135.501,-123.9579C123,-111.288 107.5513,-95.6305 96.6123,-84.5437"/>
<polygon fill="#ffa500" stroke="#ffa500" points="133.3221,-126.7329 142.837,-131.3931 138.305,-121.8165 133.3221,-126.7329"/>
<text text-anchor="middle" x="148.7778" y="-105" font-family="Helvetica,sans-Serif" font-size="10.00" fill="#000000"> &lt; double &gt;</text>
</g>
</g>
</svg>
