<?xml version="1.0" encoding="UTF-8" standalone="no"?>
<!DOCTYPE svg PUBLIC "-//W3C//DTD SVG 1.1//EN"
 "http://www.w3.org/Graphics/SVG/1.1/DTD/svg11.dtd">
<!-- Generated by graphviz version 2.40.1 (20161225.0304)
 -->
<!-- Title: HalfHyperBallBoundary&lt; dim &gt; Pages: 1 -->
<svg width="254pt" height="431pt"
 viewBox="0.00 0.00 254.39 431.00" xmlns="http://www.w3.org/2000/svg" xmlns:xlink="http://www.w3.org/1999/xlink">
<g id="graph0" class="graph" transform="scale(1 1) rotate(0) translate(4 427)">
<title>HalfHyperBallBoundary&lt; dim &gt;</title>
<polygon fill="#ffffff" stroke="transparent" points="-4,4 -4,-427 250.3887,-427 250.3887,4 -4,4"/>
<!-- Node0 -->
<g id="node1" class="node">
<title>Node0</title>
<polygon fill="#bfbfbf" stroke="#000000" points="65.4199,-.5 65.4199,-28.5 185.3604,-28.5 185.3604,-.5 65.4199,-.5"/>
<text text-anchor="start" x="73.4199" y="-16.5" font-family="Helvetica,sans-Serif" font-size="10.00" fill="#000000">HalfHyperBallBoundary</text>
<text text-anchor="middle" x="125.3901" y="-6.5" font-family="Helvetica,sans-Serif" font-size="10.00" fill="#000000">&lt; dim &gt;</text>
</g>
<!-- Node1 -->
<g id="node2" class="node">
<title>Node1</title>
<g id="a_node2"><a xlink:href="classHyperBallBoundary.html" target="_top" xlink:title="HyperBallBoundary\&lt;\l dim \&gt;">
<polygon fill="#ffffff" stroke="#000000" points="71.3916,-66.5 71.3916,-94.5 179.3887,-94.5 179.3887,-66.5 71.3916,-66.5"/>
<text text-anchor="start" x="79.3916" y="-82.5" font-family="Helvetica,sans-Serif" font-size="10.00" fill="#000000">HyperBallBoundary&lt;</text>
<text text-anchor="middle" x="125.3901" y="-72.5" font-family="Helvetica,sans-Serif" font-size="10.00" fill="#000000"> dim &gt;</text>
</a>
</g>
</g>
<!-- Node1&#45;&gt;Node0 -->
<g id="edge1" class="edge">
<title>Node1&#45;&gt;Node0</title>
<path fill="none" stroke="#191970" d="M125.3901,-56.0322C125.3901,-46.8606 125.3901,-36.7449 125.3901,-28.7931"/>
<polygon fill="#191970" stroke="#191970" points="121.8902,-56.1789 125.3901,-66.179 128.8902,-56.179 121.8902,-56.1789"/>
</g>
<!-- Node2 -->
<g id="node3" class="node">
<title>Node2</title>
<g id="a_node3"><a xlink:href="classStraightBoundary.html" target="_top" xlink:title="StraightBoundary\&lt; dim,\l dim \&gt;">
<polygon fill="#ffffff" stroke="#000000" points="0,-141.5 0,-169.5 120.7803,-169.5 120.7803,-141.5 0,-141.5"/>
<text text-anchor="start" x="8" y="-157.5" font-family="Helvetica,sans-Serif" font-size="10.00" fill="#000000">StraightBoundary&lt; dim,</text>
<text text-anchor="middle" x="60.3901" y="-147.5" font-family="Helvetica,sans-Serif" font-size="10.00" fill="#000000"> dim &gt;</text>
</a>
</g>
</g>
<!-- Node2&#45;&gt;Node1 -->
<g id="edge2" class="edge">
<title>Node2&#45;&gt;Node1</title>
<path fill="none" stroke="#191970" d="M79.3714,-133.5986C90.2962,-120.993 103.701,-105.5259 113.219,-94.5437"/>
<polygon fill="#191970" stroke="#191970" points="76.5206,-131.5439 72.6161,-141.3931 81.8104,-136.1284 76.5206,-131.5439"/>
</g>
<!-- Node3 -->
<g id="node4" class="node">
<title>Node3</title>
<g id="a_node4"><a xlink:href="classBoundary.html" target="_top" xlink:title="Boundary\&lt; dim, spacedim \&gt;">
<polygon fill="#ffffff" stroke="#000000" points="2.1343,-282.5 2.1343,-300.5 142.646,-300.5 142.646,-282.5 2.1343,-282.5"/>
<text text-anchor="middle" x="72.3901" y="-288.5" font-family="Helvetica,sans-Serif" font-size="10.00" fill="#000000">Boundary&lt; dim, spacedim &gt;</text>
</a>
</g>
</g>
<!-- Node3&#45;&gt;Node2 -->
<g id="edge3" class="edge">
<title>Node3&#45;&gt;Node2</title>
<path fill="none" stroke="#191970" d="M70.6794,-272.1119C68.2348,-244.4066 63.7995,-194.1399 61.6395,-169.6595"/>
<polygon fill="#191970" stroke="#191970" points="67.1998,-272.4985 71.5653,-282.1522 74.1728,-271.8832 67.1998,-272.4985"/>
</g>
<!-- Node7 -->
<g id="node7" class="node">
<title>Node7</title>
<g id="a_node7"><a xlink:href="classStraightBoundary.html" target="_top" xlink:title="StraightBoundary\&lt; dim,\l spacedim \&gt;">
<polygon fill="#ffffff" stroke="#000000" points="88,-216.5 88,-244.5 208.7803,-244.5 208.7803,-216.5 88,-216.5"/>
<text text-anchor="start" x="96" y="-232.5" font-family="Helvetica,sans-Serif" font-size="10.00" fill="#000000">StraightBoundary&lt; dim,</text>
<text text-anchor="middle" x="148.3901" y="-222.5" font-family="Helvetica,sans-Serif" font-size="10.00" fill="#000000"> spacedim &gt;</text>
</a>
</g>
</g>
<!-- Node3&#45;&gt;Node7 -->
<g id="edge7" class="edge">
<title>Node3&#45;&gt;Node7</title>
<path fill="none" stroke="#191970" d="M91.7056,-275.9968C103.7842,-266.3022 119.2159,-253.9162 130.9274,-244.5162"/>
<polygon fill="#191970" stroke="#191970" points="89.2121,-273.5102 83.6042,-282.4992 93.5937,-278.9693 89.2121,-273.5102"/>
</g>
<!-- Node4 -->
<g id="node5" class="node">
<title>Node4</title>
<g id="a_node5"><a xlink:href="classFlatManifold.html" target="_top" xlink:title="FlatManifold\&lt; dim,\l spacedim \&gt;">
<polygon fill="#ffffff" stroke="#000000" points="23.4014,-338.5 23.4014,-366.5 121.3789,-366.5 121.3789,-338.5 23.4014,-338.5"/>
<text text-anchor="start" x="31.4014" y="-354.5" font-family="Helvetica,sans-Serif" font-size="10.00" fill="#000000">FlatManifold&lt; dim,</text>
<text text-anchor="middle" x="72.3901" y="-344.5" font-family="Helvetica,sans-Serif" font-size="10.00" fill="#000000"> spacedim &gt;</text>
</a>
</g>
</g>
<!-- Node4&#45;&gt;Node3 -->
<g id="edge4" class="edge">
<title>Node4&#45;&gt;Node3</title>
<path fill="none" stroke="#191970" d="M72.3901,-328.1001C72.3901,-318.5157 72.3901,-308.0935 72.3901,-300.831"/>
<polygon fill="#191970" stroke="#191970" points="68.8902,-328.352 72.3901,-338.3521 75.8902,-328.3521 68.8902,-328.352"/>
</g>
<!-- Node5 -->
<g id="node6" class="node">
<title>Node5</title>
<g id="a_node6"><a xlink:href="classManifold.html" target="_top" xlink:title="Manifold\&lt; dim, spacedim \&gt;">
<polygon fill="#ffffff" stroke="#ff0000" points="4.6392,-404.5 4.6392,-422.5 140.1411,-422.5 140.1411,-404.5 4.6392,-404.5"/>
<text text-anchor="middle" x="72.3901" y="-410.5" font-family="Helvetica,sans-Serif" font-size="10.00" fill="#000000">Manifold&lt; dim, spacedim &gt;</text>
</a>
</g>
</g>
<!-- Node5&#45;&gt;Node4 -->
<g id="edge5" class="edge">
<title>Node5&#45;&gt;Node4</title>
<path fill="none" stroke="#191970" d="M72.3901,-394.2842C72.3901,-385.3664 72.3901,-374.9504 72.3901,-366.7488"/>
<polygon fill="#191970" stroke="#191970" points="68.8902,-394.4992 72.3901,-404.4992 75.8902,-394.4993 68.8902,-394.4992"/>
</g>
<!-- Node7&#45;&gt;Node2 -->
<g id="edge6" class="edge">
<title>Node7&#45;&gt;Node2</title>
<path fill="none" stroke="#ffa500" stroke-dasharray="5,2" d="M121.2867,-209.9526C116.34,-206.0543 111.2673,-201.9561 106.5923,-198 95.7767,-188.8477 84.0314,-178.0311 75.0897,-169.6006"/>
<polygon fill="#ffa500" stroke="#ffa500" points="119.3582,-212.8868 129.4003,-216.2644 123.6563,-207.3617 119.3582,-212.8868"/>
<text text-anchor="middle" x="135.2891" y="-190" font-family="Helvetica,sans-Serif" font-size="10.00" fill="#000000"> &lt; dim, dim &gt;</text>
</g>
<!-- Node8 -->
<g id="node8" class="node">
<title>Node8</title>
<g id="a_node8"><a xlink:href="classHyperBallBoundary.html" target="_top" xlink:title="HyperBallBoundary\&lt;\l dim, spacedim \&gt;">
<polygon fill="#ffffff" stroke="#000000" points="138.3916,-141.5 138.3916,-169.5 246.3887,-169.5 246.3887,-141.5 138.3916,-141.5"/>
<text text-anchor="start" x="146.3916" y="-157.5" font-family="Helvetica,sans-Serif" font-size="10.00" fill="#000000">HyperBallBoundary&lt;</text>
<text text-anchor="middle" x="192.3901" y="-147.5" font-family="Helvetica,sans-Serif" font-size="10.00" fill="#000000"> dim, spacedim &gt;</text>
</a>
</g>
</g>
<!-- Node7&#45;&gt;Node8 -->
<g id="edge9" class="edge">
<title>Node7&#45;&gt;Node8</title>
<path fill="none" stroke="#191970" d="M162.6308,-207.5998C164.585,-204.3877 166.5506,-201.119 168.3901,-198 173.9,-188.6575 179.9,-178.0325 184.5226,-169.7431"/>
<polygon fill="#191970" stroke="#191970" points="159.5189,-205.979 157.2685,-216.3321 165.484,-209.6421 159.5189,-205.979"/>
</g>
<!-- Node8&#45;&gt;Node1 -->
<g id="edge8" class="edge">
<title>Node8&#45;&gt;Node1</title>
<path fill="none" stroke="#ffa500" stroke-dasharray="5,2" d="M172.8248,-133.5986C161.5639,-120.993 147.7466,-105.5259 137.9358,-94.5437"/>
<polygon fill="#ffa500" stroke="#ffa500" points="170.5156,-136.2672 179.7879,-141.3931 175.736,-131.6037 170.5156,-136.2672"/>
<text text-anchor="middle" x="180.4541" y="-115" font-family="Helvetica,sans-Serif" font-size="10.00" fill="#000000"> &lt; dim &gt;</text>
</g>
</g>
</svg>
