<?xml version="1.0" encoding="UTF-8" standalone="no"?>
<!DOCTYPE svg PUBLIC "-//W3C//DTD SVG 1.1//EN"
 "http://www.w3.org/Graphics/SVG/1.1/DTD/svg11.dtd">
<!-- Generated by graphviz version 2.40.1 (20161225.0304)
 -->
<!-- Title: PreconditionRelaxation&lt; MatrixType &gt; Pages: 1 -->
<svg width="425pt" height="168pt"
 viewBox="0.00 0.00 424.82 168.00" xmlns="http://www.w3.org/2000/svg" xmlns:xlink="http://www.w3.org/1999/xlink">
<g id="graph0" class="graph" transform="scale(1 1) rotate(0) translate(4 164)">
<title>PreconditionRelaxation&lt; MatrixType &gt;</title>
<polygon fill="#ffffff" stroke="transparent" points="-4,4 -4,-164 420.8213,-164 420.8213,4 -4,4"/>
<!-- Node0 -->
<g id="node1" class="node">
<title>Node0</title>
<polygon fill="#bfbfbf" stroke="#000000" points="102.5762,-63.5 102.5762,-91.5 221.418,-91.5 221.418,-63.5 102.5762,-63.5"/>
<text text-anchor="start" x="110.5762" y="-79.5" font-family="Helvetica,sans-Serif" font-size="10.00" fill="#000000">PreconditionRelaxation</text>
<text text-anchor="middle" x="161.9971" y="-69.5" font-family="Helvetica,sans-Serif" font-size="10.00" fill="#000000">&lt; MatrixType &gt;</text>
</g>
<!-- Node2 -->
<g id="node3" class="node">
<title>Node2</title>
<g id="a_node3"><a xlink:href="classPreconditionJacobi.html" target="_top" xlink:title="PreconditionJacobi\l\&lt; MatrixType \&gt;">
<polygon fill="#ffffff" stroke="#000000" points="286.8711,-131.5 286.8711,-159.5 387.3682,-159.5 387.3682,-131.5 286.8711,-131.5"/>
<text text-anchor="start" x="294.8711" y="-147.5" font-family="Helvetica,sans-Serif" font-size="10.00" fill="#000000">PreconditionJacobi</text>
<text text-anchor="middle" x="337.1196" y="-137.5" font-family="Helvetica,sans-Serif" font-size="10.00" fill="#000000">&lt; MatrixType &gt;</text>
</a>
</g>
</g>
<!-- Node0&#45;&gt;Node2 -->
<g id="edge2" class="edge">
<title>Node0&#45;&gt;Node2</title>
<path fill="none" stroke="#191970" d="M198.3638,-96.3275C215.922,-104.9817 237.4646,-114.9711 257.418,-122.5 266.7153,-126.0081 276.7909,-129.296 286.5498,-132.2275"/>
<polygon fill="#191970" stroke="#191970" points="199.565,-93.0154 189.0545,-91.6812 196.4389,-99.2786 199.565,-93.0154"/>
</g>
<!-- Node3 -->
<g id="node4" class="node">
<title>Node3</title>
<g id="a_node4"><a xlink:href="classPreconditionPSOR.html" target="_top" xlink:title="PreconditionPSOR\&lt; Matrix\lType \&gt;">
<polygon fill="#ffffff" stroke="#000000" points="269.2344,-84.5 269.2344,-112.5 405.0049,-112.5 405.0049,-84.5 269.2344,-84.5"/>
<text text-anchor="start" x="277.2344" y="-100.5" font-family="Helvetica,sans-Serif" font-size="10.00" fill="#000000">PreconditionPSOR&lt; Matrix</text>
<text text-anchor="middle" x="337.1196" y="-90.5" font-family="Helvetica,sans-Serif" font-size="10.00" fill="#000000">Type &gt;</text>
</a>
</g>
</g>
<!-- Node0&#45;&gt;Node3 -->
<g id="edge3" class="edge">
<title>Node0&#45;&gt;Node3</title>
<path fill="none" stroke="#191970" d="M231.9463,-85.888C244.2169,-87.3595 256.9688,-88.8886 269.1836,-90.3534"/>
<polygon fill="#191970" stroke="#191970" points="232.1201,-82.3839 221.7745,-84.6683 231.2866,-89.3341 232.1201,-82.3839"/>
</g>
<!-- Node4 -->
<g id="node5" class="node">
<title>Node4</title>
<g id="a_node5"><a xlink:href="classPreconditionSOR.html" target="_top" xlink:title="PreconditionSOR\&lt; MatrixType \&gt;">
<polygon fill="#ffffff" stroke="#000000" points="257.418,-47.5 257.418,-65.5 416.8213,-65.5 416.8213,-47.5 257.418,-47.5"/>
<text text-anchor="middle" x="337.1196" y="-53.5" font-family="Helvetica,sans-Serif" font-size="10.00" fill="#000000">PreconditionSOR&lt; MatrixType &gt;</text>
</a>
</g>
</g>
<!-- Node0&#45;&gt;Node4 -->
<g id="edge4" class="edge">
<title>Node0&#45;&gt;Node4</title>
<path fill="none" stroke="#191970" d="M231.8937,-69.1183C241.7329,-67.9384 251.8827,-66.7213 261.8177,-65.5299"/>
<polygon fill="#191970" stroke="#191970" points="231.2866,-65.6659 221.7745,-70.3317 232.1201,-72.6161 231.2866,-65.6659"/>
</g>
<!-- Node5 -->
<g id="node6" class="node">
<title>Node5</title>
<g id="a_node6"><a xlink:href="classPreconditionSSOR.html" target="_top" xlink:title="PreconditionSSOR\&lt; Matrix\lType \&gt;">
<polygon fill="#ffffff" stroke="#000000" points="269.2344,-.5 269.2344,-28.5 405.0049,-28.5 405.0049,-.5 269.2344,-.5"/>
<text text-anchor="start" x="277.2344" y="-16.5" font-family="Helvetica,sans-Serif" font-size="10.00" fill="#000000">PreconditionSSOR&lt; Matrix</text>
<text text-anchor="middle" x="337.1196" y="-6.5" font-family="Helvetica,sans-Serif" font-size="10.00" fill="#000000">Type &gt;</text>
</a>
</g>
</g>
<!-- Node0&#45;&gt;Node5 -->
<g id="edge5" class="edge">
<title>Node0&#45;&gt;Node5</title>
<path fill="none" stroke="#191970" d="M202.5301,-59.2852C219.3405,-52.0526 239.1497,-43.9405 257.418,-37.5 266.2465,-34.3875 275.73,-31.3728 284.9668,-28.6069"/>
<polygon fill="#191970" stroke="#191970" points="200.7885,-56.2259 193.0133,-63.4228 203.5796,-62.6454 200.7885,-56.2259"/>
</g>
<!-- Node1 -->
<g id="node2" class="node">
<title>Node1</title>
<g id="a_node2"><a xlink:href="classSubscriptor.html" target="_top" xlink:title="Subscriptor">
<polygon fill="#ffffff" stroke="#000000" points="0,-68.5 0,-86.5 66.5762,-86.5 66.5762,-68.5 0,-68.5"/>
<text text-anchor="middle" x="33.2881" y="-74.5" font-family="Helvetica,sans-Serif" font-size="10.00" fill="#000000">Subscriptor</text>
</a>
</g>
</g>
<!-- Node1&#45;&gt;Node0 -->
<g id="edge1" class="edge">
<title>Node1&#45;&gt;Node0</title>
<path fill="none" stroke="#191970" d="M76.8865,-77.5C85.126,-77.5 93.8738,-77.5 102.5044,-77.5"/>
<polygon fill="#191970" stroke="#191970" points="76.7689,-74.0001 66.7689,-77.5 76.7688,-81.0001 76.7689,-74.0001"/>
</g>
</g>
</svg>
