<?xml version="1.0" encoding="UTF-8" standalone="no"?>
<!DOCTYPE svg PUBLIC "-//W3C//DTD SVG 1.1//EN"
 "http://www.w3.org/Graphics/SVG/1.1/DTD/svg11.dtd">
<!-- Generated by graphviz version 2.40.1 (20161225.0304)
 -->
<!-- Title: PolynomialSpace&lt; dim &gt; Pages: 1 -->
<svg width="272pt" height="92pt"
 viewBox="0.00 0.00 271.72 92.00" xmlns="http://www.w3.org/2000/svg" xmlns:xlink="http://www.w3.org/1999/xlink">
<g id="graph0" class="graph" transform="scale(1 1) rotate(0) translate(4 88)">
<title>PolynomialSpace&lt; dim &gt;</title>
<polygon fill="#ffffff" stroke="transparent" points="-4,4 -4,-88 267.7188,-88 267.7188,4 -4,4"/>
<!-- Node0 -->
<g id="node1" class="node">
<title>Node0</title>
<polygon fill="#bfbfbf" stroke="#000000" points="61.6577,-65.5 61.6577,-83.5 188.2729,-83.5 188.2729,-65.5 61.6577,-65.5"/>
<text text-anchor="middle" x="124.9653" y="-71.5" font-family="Helvetica,sans-Serif" font-size="10.00" fill="#000000">PolynomialSpace&lt; dim &gt;</text>
</g>
<!-- Node1 -->
<g id="node2" class="node">
<title>Node1</title>
<g id="a_node2"><a xlink:href="classPolynomialsP.html" target="_top" xlink:title="PolynomialsP\&lt; dim \&gt;">
<polygon fill="#ffffff" stroke="#000000" points="0,-.5 0,-18.5 109.9307,-18.5 109.9307,-.5 0,-.5"/>
<text text-anchor="middle" x="54.9653" y="-6.5" font-family="Helvetica,sans-Serif" font-size="10.00" fill="#000000">PolynomialsP&lt; dim &gt;</text>
</a>
</g>
</g>
<!-- Node0&#45;&gt;Node1 -->
<g id="edge1" class="edge">
<title>Node0&#45;&gt;Node1</title>
<path fill="none" stroke="#191970" d="M107.6044,-58.3791C94.2202,-45.9509 76.1767,-29.1962 65.0692,-18.8821"/>
<polygon fill="#191970" stroke="#191970" points="105.5226,-61.2223 115.2321,-65.462 110.2858,-56.0927 105.5226,-61.2223"/>
</g>
<!-- Node2 -->
<g id="node3" class="node">
<title>Node2</title>
<g id="a_node3"><a xlink:href="classPolynomialSpace.html" target="_top" xlink:title="PolynomialSpace\&lt; dim&#45;1 \&gt;">
<polygon fill="#ffffff" stroke="#000000" points="128.2119,-.5 128.2119,-18.5 263.7188,-18.5 263.7188,-.5 128.2119,-.5"/>
<text text-anchor="middle" x="195.9653" y="-6.5" font-family="Helvetica,sans-Serif" font-size="10.00" fill="#000000">PolynomialSpace&lt; dim&#45;1 &gt;</text>
</a>
</g>
</g>
<!-- Node0&#45;&gt;Node2 -->
<g id="edge2" class="edge">
<title>Node0&#45;&gt;Node2</title>
<path fill="none" stroke="#ffa500" stroke-dasharray="5,2" d="M142.5743,-58.3791C156.1497,-45.9509 174.451,-29.1962 185.7171,-18.8821"/>
<polygon fill="#ffa500" stroke="#ffa500" points="139.8501,-56.1279 134.8376,-65.462 144.5769,-61.291 139.8501,-56.1279"/>
<text text-anchor="middle" x="186.4751" y="-39" font-family="Helvetica,sans-Serif" font-size="10.00" fill="#000000"> &lt; dim&#45;1 &gt;</text>
</g>
</g>
</svg>
