<?xml version="1.0" encoding="UTF-8" standalone="no"?>
<!DOCTYPE svg PUBLIC "-//W3C//DTD SVG 1.1//EN"
 "http://www.w3.org/Graphics/SVG/1.1/DTD/svg11.dtd">
<!-- Generated by graphviz version 2.40.1 (20161225.0304)
 -->
<!-- Title: Threads::ThreadLocalStorage&lt; T &gt; Pages: 1 -->
<svg width="523pt" height="468pt"
 viewBox="0.00 0.00 522.56 467.50" xmlns="http://www.w3.org/2000/svg" xmlns:xlink="http://www.w3.org/1999/xlink">
<g id="graph0" class="graph" transform="scale(1 1) rotate(0) translate(4 463.5)">
<title>Threads::ThreadLocalStorage&lt; T &gt;</title>
<polygon fill="#ffffff" stroke="transparent" points="-4,4 -4,-463.5 518.5625,-463.5 518.5625,4 -4,4"/>
<!-- Node0 -->
<g id="node1" class="node">
<title>Node0</title>
<polygon fill="#bfbfbf" stroke="#000000" points="0,-233.5 0,-251.5 171.8496,-251.5 171.8496,-233.5 0,-233.5"/>
<text text-anchor="middle" x="85.9248" y="-239.5" font-family="Helvetica,sans-Serif" font-size="10.00" fill="#000000">Threads::ThreadLocalStorage&lt; T &gt;</text>
</g>
<!-- Node1 -->
<g id="node2" class="node">
<title>Node1</title>
<g id="a_node2"><a xlink:href="classThreads_1_1ThreadLocalStorage.html" target="_top" xlink:title="Threads::ThreadLocalStorage\l\&lt; ScratchDataList \&gt;">
<polygon fill="#ffffff" stroke="#000000" points="353.6211,-426.5 353.6211,-454.5 502.4775,-454.5 502.4775,-426.5 353.6211,-426.5"/>
<text text-anchor="start" x="361.6211" y="-442.5" font-family="Helvetica,sans-Serif" font-size="10.00" fill="#000000">Threads::ThreadLocalStorage</text>
<text text-anchor="middle" x="428.0493" y="-432.5" font-family="Helvetica,sans-Serif" font-size="10.00" fill="#000000">&lt; ScratchDataList &gt;</text>
</a>
</g>
</g>
<!-- Node0&#45;&gt;Node1 -->
<g id="edge1" class="edge">
<title>Node0&#45;&gt;Node1</title>
<path fill="none" stroke="#ffa500" stroke-dasharray="5,2" d="M91.1342,-261.7648C102.2863,-298.8853 132.2667,-379.8828 189.8496,-416.5 238.1624,-447.2223 303.4498,-451.831 353.456,-449.5336"/>
<polygon fill="#ffa500" stroke="#ffa500" points="94.3847,-260.4017 88.268,-251.7509 87.655,-262.328 94.3847,-260.4017"/>
<text text-anchor="middle" x="256.6929" y="-451.5" font-family="Helvetica,sans-Serif" font-size="10.00" fill="#000000"> &lt; ScratchDataList &gt;</text>
</g>
<!-- Node2 -->
<g id="node3" class="node">
<title>Node2</title>
<g id="a_node3"><a xlink:href="classThreads_1_1ThreadLocalStorage.html" target="_top" xlink:title="Threads::ThreadLocalStorage\l\&lt; std::stack\&lt; std::string \&gt; \&gt;">
<polygon fill="#ffffff" stroke="#000000" points="353.6211,-379.5 353.6211,-407.5 502.4775,-407.5 502.4775,-379.5 353.6211,-379.5"/>
<text text-anchor="start" x="361.6211" y="-395.5" font-family="Helvetica,sans-Serif" font-size="10.00" fill="#000000">Threads::ThreadLocalStorage</text>
<text text-anchor="middle" x="428.0493" y="-385.5" font-family="Helvetica,sans-Serif" font-size="10.00" fill="#000000">&lt; std::stack&lt; std::string &gt; &gt;</text>
</a>
</g>
</g>
<!-- Node0&#45;&gt;Node2 -->
<g id="edge2" class="edge">
<title>Node0&#45;&gt;Node2</title>
<path fill="none" stroke="#ffa500" stroke-dasharray="5,2" d="M96.4394,-260.4402C112.7985,-286.5642 146.9681,-334.4636 189.8496,-357.5 240.0493,-384.4678 304.2874,-392.9272 353.4009,-394.9405"/>
<polygon fill="#ffa500" stroke="#ffa500" points="99.2457,-258.3185 91.0606,-251.5913 93.2641,-261.9545 99.2457,-258.3185"/>
<text text-anchor="start" x="216.1191" y="-404.5" font-family="Helvetica,sans-Serif" font-size="10.00" fill="#000000"> &lt; std::stack&lt; std::</text>
<text text-anchor="middle" x="256.6929" y="-394.5" font-family="Helvetica,sans-Serif" font-size="10.00" fill="#000000">string &gt; &gt;</text>
</g>
<!-- Node3 -->
<g id="node4" class="node">
<title>Node3</title>
<g id="a_node4"><a xlink:href="classThreads_1_1ThreadLocalStorage.html" target="_top" xlink:title="Threads::ThreadLocalStorage\l\&lt; std::vector\&lt; mu::Parser \&gt; \&gt;">
<polygon fill="#ffffff" stroke="#000000" points="353.6211,-332.5 353.6211,-360.5 502.4775,-360.5 502.4775,-332.5 353.6211,-332.5"/>
<text text-anchor="start" x="361.6211" y="-348.5" font-family="Helvetica,sans-Serif" font-size="10.00" fill="#000000">Threads::ThreadLocalStorage</text>
<text text-anchor="middle" x="428.0493" y="-338.5" font-family="Helvetica,sans-Serif" font-size="10.00" fill="#000000">&lt; std::vector&lt; mu::Parser &gt; &gt;</text>
</a>
</g>
</g>
<!-- Node0&#45;&gt;Node3 -->
<g id="edge3" class="edge">
<title>Node0&#45;&gt;Node3</title>
<path fill="none" stroke="#ffa500" stroke-dasharray="5,2" d="M107.1625,-257.3487C127.4805,-270.8609 159.4448,-290.3486 189.8496,-301.5 242.7956,-320.9187 305.5773,-332.3378 353.3915,-338.8115"/>
<polygon fill="#ffa500" stroke="#ffa500" points="108.9364,-254.323 98.6942,-251.6123 105.0106,-260.1185 108.9364,-254.323"/>
<text text-anchor="start" x="213.8975" y="-345.5" font-family="Helvetica,sans-Serif" font-size="10.00" fill="#000000"> &lt; std::vector&lt; mu::</text>
<text text-anchor="middle" x="256.6929" y="-335.5" font-family="Helvetica,sans-Serif" font-size="10.00" fill="#000000">Parser &gt; &gt;</text>
</g>
<!-- Node4 -->
<g id="node5" class="node">
<title>Node4</title>
<g id="a_node5"><a xlink:href="classThreads_1_1ThreadLocalStorage.html" target="_top" xlink:title="Threads::ThreadLocalStorage\l\&lt; typename DoFHandlerType\l::active_cell_iterator \&gt;">
<polygon fill="#ffffff" stroke="#000000" points="353.6211,-275.5 353.6211,-313.5 502.4775,-313.5 502.4775,-275.5 353.6211,-275.5"/>
<text text-anchor="start" x="361.6211" y="-301.5" font-family="Helvetica,sans-Serif" font-size="10.00" fill="#000000">Threads::ThreadLocalStorage</text>
<text text-anchor="start" x="361.6211" y="-291.5" font-family="Helvetica,sans-Serif" font-size="10.00" fill="#000000">&lt; typename DoFHandlerType</text>
<text text-anchor="middle" x="428.0493" y="-281.5" font-family="Helvetica,sans-Serif" font-size="10.00" fill="#000000">::active_cell_iterator &gt;</text>
</a>
</g>
</g>
<!-- Node0&#45;&gt;Node4 -->
<g id="edge4" class="edge">
<title>Node0&#45;&gt;Node4</title>
<path fill="none" stroke="#ffa500" stroke-dasharray="5,2" d="M155.6051,-253.0908C213.0946,-261.8287 294.4848,-274.1993 353.3188,-283.1416"/>
<polygon fill="#ffa500" stroke="#ffa500" points="155.9308,-249.6002 145.5183,-251.5577 154.8788,-256.5207 155.9308,-249.6002"/>
<text text-anchor="start" x="189.8496" y="-289.5" font-family="Helvetica,sans-Serif" font-size="10.00" fill="#000000"> &lt; typename DoFHandlerType</text>
<text text-anchor="middle" x="256.6929" y="-279.5" font-family="Helvetica,sans-Serif" font-size="10.00" fill="#000000">::active_cell_iterator &gt;</text>
</g>
<!-- Node5 -->
<g id="node6" class="node">
<title>Node5</title>
<g id="a_node6"><a xlink:href="classThreads_1_1ThreadLocalStorage.html" target="_top" xlink:title="Threads::ThreadLocalStorage\l\&lt; std::vector\&lt; double \&gt; \&gt;">
<polygon fill="#ffffff" stroke="#000000" points="353.6211,-228.5 353.6211,-256.5 502.4775,-256.5 502.4775,-228.5 353.6211,-228.5"/>
<text text-anchor="start" x="361.6211" y="-244.5" font-family="Helvetica,sans-Serif" font-size="10.00" fill="#000000">Threads::ThreadLocalStorage</text>
<text text-anchor="middle" x="428.0493" y="-234.5" font-family="Helvetica,sans-Serif" font-size="10.00" fill="#000000">&lt; std::vector&lt; double &gt; &gt;</text>
</a>
</g>
</g>
<!-- Node0&#45;&gt;Node5 -->
<g id="edge5" class="edge">
<title>Node0&#45;&gt;Node5</title>
<path fill="none" stroke="#ffa500" stroke-dasharray="5,2" d="M182.5663,-242.5C236.7217,-242.5 303.238,-242.5 353.365,-242.5"/>
<polygon fill="#ffa500" stroke="#ffa500" points="182.2573,-239.0001 172.2573,-242.5 182.2572,-246.0001 182.2573,-239.0001"/>
<text text-anchor="middle" x="256.6929" y="-244.5" font-family="Helvetica,sans-Serif" font-size="10.00" fill="#000000"> &lt; std::vector&lt; double &gt; &gt;</text>
</g>
<!-- Node6 -->
<g id="node7" class="node">
<title>Node6</title>
<g id="a_node7"><a xlink:href="classThreads_1_1ThreadLocalStorage.html" target="_top" xlink:title="Threads::ThreadLocalStorage\l\&lt; std::shared_ptr\&lt; std::\lostringstream \&gt; \&gt;">
<polygon fill="#ffffff" stroke="#000000" points="353.6211,-171.5 353.6211,-209.5 502.4775,-209.5 502.4775,-171.5 353.6211,-171.5"/>
<text text-anchor="start" x="361.6211" y="-197.5" font-family="Helvetica,sans-Serif" font-size="10.00" fill="#000000">Threads::ThreadLocalStorage</text>
<text text-anchor="start" x="361.6211" y="-187.5" font-family="Helvetica,sans-Serif" font-size="10.00" fill="#000000">&lt; std::shared_ptr&lt; std::</text>
<text text-anchor="middle" x="428.0493" y="-177.5" font-family="Helvetica,sans-Serif" font-size="10.00" fill="#000000">ostringstream &gt; &gt;</text>
</a>
</g>
</g>
<!-- Node0&#45;&gt;Node6 -->
<g id="edge6" class="edge">
<title>Node0&#45;&gt;Node6</title>
<path fill="none" stroke="#ffa500" stroke-dasharray="5,2" d="M130.6411,-231.0386C148.9078,-226.6538 170.2998,-221.8958 189.8496,-218.5 244.3097,-209.0403 306.3404,-201.8621 353.4458,-197.1431"/>
<polygon fill="#ffa500" stroke="#ffa500" points="129.7332,-227.6574 120.846,-233.4252 131.3903,-234.4584 129.7332,-227.6574"/>
<text text-anchor="start" x="206.9492" y="-230.5" font-family="Helvetica,sans-Serif" font-size="10.00" fill="#000000"> &lt; std::shared_ptr&lt;</text>
<text text-anchor="middle" x="256.6929" y="-220.5" font-family="Helvetica,sans-Serif" font-size="10.00" fill="#000000"> std::ostringstream &gt; &gt;</text>
</g>
<!-- Node7 -->
<g id="node8" class="node">
<title>Node7</title>
<g id="a_node8"><a xlink:href="classThreads_1_1ThreadLocalStorage.html" target="_top" xlink:title="Threads::ThreadLocalStorage\l\&lt; ScratchAndCopyDataList \&gt;">
<polygon fill="#ffffff" stroke="#000000" points="353.6211,-124.5 353.6211,-152.5 502.4775,-152.5 502.4775,-124.5 353.6211,-124.5"/>
<text text-anchor="start" x="361.6211" y="-140.5" font-family="Helvetica,sans-Serif" font-size="10.00" fill="#000000">Threads::ThreadLocalStorage</text>
<text text-anchor="middle" x="428.0493" y="-130.5" font-family="Helvetica,sans-Serif" font-size="10.00" fill="#000000">&lt; ScratchAndCopyDataList &gt;</text>
</a>
</g>
</g>
<!-- Node0&#45;&gt;Node7 -->
<g id="edge7" class="edge">
<title>Node0&#45;&gt;Node7</title>
<path fill="none" stroke="#ffa500" stroke-dasharray="5,2" d="M108.337,-227.8936C128.7936,-215.1887 160.2612,-197.1849 189.8496,-186.5 243.0175,-167.3001 305.7888,-155.0487 353.5427,-147.7321"/>
<polygon fill="#ffa500" stroke="#ffa500" points="106.344,-225.0127 99.7592,-233.3128 110.0828,-230.9306 106.344,-225.0127"/>
<text text-anchor="middle" x="256.6929" y="-188.5" font-family="Helvetica,sans-Serif" font-size="10.00" fill="#000000"> &lt; ScratchAndCopyDataList &gt;</text>
</g>
<!-- Node8 -->
<g id="node9" class="node">
<title>Node8</title>
<g id="a_node9"><a xlink:href="classThreads_1_1ThreadLocalStorage.html" target="_top" xlink:title="Threads::ThreadLocalStorage\l\&lt; typename ItemType::ScratchData\lList \&gt;">
<polygon fill="#ffffff" stroke="#000000" points="341.5361,-67.5 341.5361,-105.5 514.5625,-105.5 514.5625,-67.5 341.5361,-67.5"/>
<text text-anchor="start" x="349.5361" y="-93.5" font-family="Helvetica,sans-Serif" font-size="10.00" fill="#000000">Threads::ThreadLocalStorage</text>
<text text-anchor="start" x="349.5361" y="-83.5" font-family="Helvetica,sans-Serif" font-size="10.00" fill="#000000">&lt; typename ItemType::ScratchData</text>
<text text-anchor="middle" x="428.0493" y="-73.5" font-family="Helvetica,sans-Serif" font-size="10.00" fill="#000000">List &gt;</text>
</a>
</g>
</g>
<!-- Node0&#45;&gt;Node8 -->
<g id="edge8" class="edge">
<title>Node0&#45;&gt;Node8</title>
<path fill="none" stroke="#ffa500" stroke-dasharray="5,2" d="M96.849,-224.6511C113.5104,-199.0968 147.8128,-152.6236 189.8496,-129.5 236.0582,-104.0817 294.2072,-93.251 341.4841,-88.8141"/>
<polygon fill="#ffa500" stroke="#ffa500" points="93.7462,-223.0087 91.3478,-233.3285 99.6582,-226.7568 93.7462,-223.0087"/>
<text text-anchor="start" x="207.0811" y="-141.5" font-family="Helvetica,sans-Serif" font-size="10.00" fill="#000000"> &lt; typename ItemType</text>
<text text-anchor="middle" x="256.6929" y="-131.5" font-family="Helvetica,sans-Serif" font-size="10.00" fill="#000000">::ScratchDataList &gt;</text>
</g>
<!-- Node9 -->
<g id="node10" class="node">
<title>Node9</title>
<g id="a_node10"><a xlink:href="classThreads_1_1ThreadLocalStorage.html" target="_top" xlink:title="Threads::ThreadLocalStorage\l\&lt; std::list\&lt; std::pair\&lt;\l bool, AlignedVector\&lt; Vectorized\lArray\&lt; Number \&gt; \&gt; \&gt; \&gt; \&gt;">
<polygon fill="#ffffff" stroke="#000000" points="348.1865,-.5 348.1865,-48.5 507.9121,-48.5 507.9121,-.5 348.1865,-.5"/>
<text text-anchor="start" x="356.1865" y="-36.5" font-family="Helvetica,sans-Serif" font-size="10.00" fill="#000000">Threads::ThreadLocalStorage</text>
<text text-anchor="start" x="356.1865" y="-26.5" font-family="Helvetica,sans-Serif" font-size="10.00" fill="#000000">&lt; std::list&lt; std::pair&lt;</text>
<text text-anchor="start" x="356.1865" y="-16.5" font-family="Helvetica,sans-Serif" font-size="10.00" fill="#000000"> bool, AlignedVector&lt; Vectorized</text>
<text text-anchor="middle" x="428.0493" y="-6.5" font-family="Helvetica,sans-Serif" font-size="10.00" fill="#000000">Array&lt; Number &gt; &gt; &gt; &gt; &gt;</text>
</a>
</g>
</g>
<!-- Node0&#45;&gt;Node9 -->
<g id="edge9" class="edge">
<title>Node0&#45;&gt;Node9</title>
<path fill="none" stroke="#ffa500" stroke-dasharray="5,2" d="M89.6892,-223.6025C98.8258,-183.2413 126.271,-88.856 189.8496,-46.5 235.9043,-15.8184 298.5504,-11.1164 348.0385,-13.6614"/>
<polygon fill="#ffa500" stroke="#ffa500" points="86.2486,-222.9552 87.5829,-233.4657 93.0942,-224.4171 86.2486,-222.9552"/>
<text text-anchor="start" x="194.9961" y="-78.5" font-family="Helvetica,sans-Serif" font-size="10.00" fill="#000000"> &lt; std::list&lt; std::pair</text>
<text text-anchor="start" x="194.9961" y="-68.5" font-family="Helvetica,sans-Serif" font-size="10.00" fill="#000000">&lt; bool, AlignedVector</text>
<text text-anchor="start" x="194.9961" y="-58.5" font-family="Helvetica,sans-Serif" font-size="10.00" fill="#000000">&lt; VectorizedArray&lt; Number</text>
<text text-anchor="middle" x="256.6929" y="-48.5" font-family="Helvetica,sans-Serif" font-size="10.00" fill="#000000"> &gt; &gt; &gt; &gt; &gt;</text>
</g>
</g>
</svg>
