<?xml version="1.0" encoding="UTF-8" standalone="no"?>
<!DOCTYPE svg PUBLIC "-//W3C//DTD SVG 1.1//EN"
 "http://www.w3.org/Graphics/SVG/1.1/DTD/svg11.dtd">
<!-- Generated by graphviz version 2.40.1 (20161225.0304)
 -->
<!-- Title: PointerMatrix&lt; MatrixType, VectorType &gt; Pages: 1 -->
<svg width="143pt" height="157pt"
 viewBox="0.00 0.00 143.21 157.00" xmlns="http://www.w3.org/2000/svg" xmlns:xlink="http://www.w3.org/1999/xlink">
<g id="graph0" class="graph" transform="scale(1 1) rotate(0) translate(4 153)">
<title>PointerMatrix&lt; MatrixType, VectorType &gt;</title>
<polygon fill="#ffffff" stroke="transparent" points="-4,4 -4,-153 139.209,-153 139.209,4 -4,4"/>
<!-- Node0 -->
<g id="node1" class="node">
<title>Node0</title>
<polygon fill="#bfbfbf" stroke="#000000" points="0,-.5 0,-28.5 135.209,-28.5 135.209,-.5 0,-.5"/>
<text text-anchor="start" x="8" y="-16.5" font-family="Helvetica,sans-Serif" font-size="10.00" fill="#000000">PointerMatrix&lt; MatrixType,</text>
<text text-anchor="middle" x="67.6045" y="-6.5" font-family="Helvetica,sans-Serif" font-size="10.00" fill="#000000"> VectorType &gt;</text>
</g>
<!-- Node1 -->
<g id="node2" class="node">
<title>Node1</title>
<g id="a_node2"><a xlink:href="classPointerMatrixBase.html" target="_top" xlink:title="PointerMatrixBase\&lt;\l VectorType \&gt;">
<polygon fill="#ffffff" stroke="#000000" points="15.835,-65.5 15.835,-93.5 119.374,-93.5 119.374,-65.5 15.835,-65.5"/>
<text text-anchor="start" x="23.835" y="-81.5" font-family="Helvetica,sans-Serif" font-size="10.00" fill="#000000">PointerMatrixBase&lt;</text>
<text text-anchor="middle" x="67.6045" y="-71.5" font-family="Helvetica,sans-Serif" font-size="10.00" fill="#000000"> VectorType &gt;</text>
</a>
</g>
</g>
<!-- Node1&#45;&gt;Node0 -->
<g id="edge1" class="edge">
<title>Node1&#45;&gt;Node0</title>
<path fill="none" stroke="#191970" d="M67.6045,-55.1081C67.6045,-46.1539 67.6045,-36.3227 67.6045,-28.5765"/>
<polygon fill="#191970" stroke="#191970" points="64.1046,-55.3959 67.6045,-65.396 71.1046,-55.396 64.1046,-55.3959"/>
</g>
<!-- Node2 -->
<g id="node3" class="node">
<title>Node2</title>
<g id="a_node3"><a xlink:href="classSubscriptor.html" target="_top" xlink:title="Subscriptor">
<polygon fill="#ffffff" stroke="#000000" points="34.3164,-130.5 34.3164,-148.5 100.8926,-148.5 100.8926,-130.5 34.3164,-130.5"/>
<text text-anchor="middle" x="67.6045" y="-136.5" font-family="Helvetica,sans-Serif" font-size="10.00" fill="#000000">Subscriptor</text>
</a>
</g>
</g>
<!-- Node2&#45;&gt;Node1 -->
<g id="edge2" class="edge">
<title>Node2&#45;&gt;Node1</title>
<path fill="none" stroke="#191970" d="M67.6045,-120.1865C67.6045,-111.6283 67.6045,-101.7354 67.6045,-93.8477"/>
<polygon fill="#191970" stroke="#191970" points="64.1046,-120.3873 67.6045,-130.3873 71.1046,-120.3873 64.1046,-120.3873"/>
</g>
</g>
</svg>
