<?xml version="1.0" encoding="UTF-8" standalone="no"?>
<!DOCTYPE svg PUBLIC "-//W3C//DTD SVG 1.1//EN"
 "http://www.w3.org/Graphics/SVG/1.1/DTD/svg11.dtd">
<!-- Generated by graphviz version 2.40.1 (20161225.0304)
 -->
<!-- Title: SparseLUDecomposition&lt; number &gt; Pages: 1 -->
<svg width="258pt" height="202pt"
 viewBox="0.00 0.00 257.77 202.00" xmlns="http://www.w3.org/2000/svg" xmlns:xlink="http://www.w3.org/1999/xlink">
<g id="graph0" class="graph" transform="scale(1 1) rotate(0) translate(4 198)">
<title>SparseLUDecomposition&lt; number &gt;</title>
<polygon fill="#ffffff" stroke="transparent" points="-4,4 -4,-198 253.7729,-198 253.7729,4 -4,4"/>
<!-- Node0 -->
<g id="node1" class="node">
<title>Node0</title>
<polygon fill="#bfbfbf" stroke="#000000" points="60.8892,-55.5 60.8892,-83.5 187.4995,-83.5 187.4995,-55.5 60.8892,-55.5"/>
<text text-anchor="start" x="68.8892" y="-71.5" font-family="Helvetica,sans-Serif" font-size="10.00" fill="#000000">SparseLUDecomposition</text>
<text text-anchor="middle" x="124.1943" y="-61.5" font-family="Helvetica,sans-Serif" font-size="10.00" fill="#000000">&lt; number &gt;</text>
</g>
<!-- Node3 -->
<g id="node4" class="node">
<title>Node3</title>
<g id="a_node4"><a xlink:href="classSparseILU.html" target="_top" xlink:title="SparseILU\&lt; number \&gt;">
<polygon fill="#ffffff" stroke="#000000" points="0,-.5 0,-18.5 114.3887,-18.5 114.3887,-.5 0,-.5"/>
<text text-anchor="middle" x="57.1943" y="-6.5" font-family="Helvetica,sans-Serif" font-size="10.00" fill="#000000">SparseILU&lt; number &gt;</text>
</a>
</g>
</g>
<!-- Node0&#45;&gt;Node3 -->
<g id="edge4" class="edge">
<title>Node0&#45;&gt;Node3</title>
<path fill="none" stroke="#191970" d="M100.7533,-48.508C89.3245,-38.2733 76.174,-26.4967 67.3383,-18.5842"/>
<polygon fill="#191970" stroke="#191970" points="98.5318,-51.2169 108.3163,-55.2808 103.2017,-46.0023 98.5318,-51.2169"/>
</g>
<!-- Node4 -->
<g id="node5" class="node">
<title>Node4</title>
<g id="a_node5"><a xlink:href="classSparseMIC.html" target="_top" xlink:title="SparseMIC\&lt; number \&gt;">
<polygon fill="#ffffff" stroke="#000000" points="132.6157,-.5 132.6157,-18.5 249.7729,-18.5 249.7729,-.5 132.6157,-.5"/>
<text text-anchor="middle" x="191.1943" y="-6.5" font-family="Helvetica,sans-Serif" font-size="10.00" fill="#000000">SparseMIC&lt; number &gt;</text>
</a>
</g>
</g>
<!-- Node0&#45;&gt;Node4 -->
<g id="edge5" class="edge">
<title>Node0&#45;&gt;Node4</title>
<path fill="none" stroke="#191970" d="M147.6354,-48.508C159.0642,-38.2733 172.2147,-26.4967 181.0503,-18.5842"/>
<polygon fill="#191970" stroke="#191970" points="145.187,-46.0023 140.0724,-55.2808 149.8569,-51.2169 145.187,-46.0023"/>
</g>
<!-- Node1 -->
<g id="node2" class="node">
<title>Node1</title>
<g id="a_node2"><a xlink:href="classSparseMatrix.html" target="_top" xlink:title="SparseMatrix\&lt; number \&gt;">
<polygon fill="#ffffff" stroke="#000000" points="107.1699,-120.5 107.1699,-138.5 233.2188,-138.5 233.2188,-120.5 107.1699,-120.5"/>
<text text-anchor="middle" x="170.1943" y="-126.5" font-family="Helvetica,sans-Serif" font-size="10.00" fill="#000000">SparseMatrix&lt; number &gt;</text>
</a>
</g>
</g>
<!-- Node1&#45;&gt;Node0 -->
<g id="edge1" class="edge">
<title>Node1&#45;&gt;Node0</title>
<path fill="none" stroke="#006400" d="M156.9153,-112.1795C150.0286,-103.1969 141.7171,-92.3558 135.1942,-83.8477"/>
<polygon fill="#006400" stroke="#006400" points="154.3459,-114.5807 163.2079,-120.3873 159.9012,-110.3217 154.3459,-114.5807"/>
</g>
<!-- Node2 -->
<g id="node3" class="node">
<title>Node2</title>
<g id="a_node3"><a xlink:href="classSubscriptor.html" target="_top" xlink:title="Subscriptor">
<polygon fill="#ffffff" stroke="#000000" points="90.9063,-175.5 90.9063,-193.5 157.4824,-193.5 157.4824,-175.5 90.9063,-175.5"/>
<text text-anchor="middle" x="124.1943" y="-181.5" font-family="Helvetica,sans-Serif" font-size="10.00" fill="#000000">Subscriptor</text>
</a>
</g>
</g>
<!-- Node2&#45;&gt;Node0 -->
<g id="edge3" class="edge">
<title>Node2&#45;&gt;Node0</title>
<path fill="none" stroke="#191970" d="M111.2693,-166.8819C106.1251,-158.8107 100.8126,-148.8594 98.1943,-139 92.97,-119.3273 104.0984,-97.4641 113.3841,-83.6081"/>
<polygon fill="#191970" stroke="#191970" points="108.5346,-169.0841 117.0595,-175.3751 114.3184,-165.141 108.5346,-169.0841"/>
</g>
<!-- Node2&#45;&gt;Node1 -->
<g id="edge2" class="edge">
<title>Node2&#45;&gt;Node1</title>
<path fill="none" stroke="#191970" d="M138.2241,-167.7253C146.1781,-158.215 155.8295,-146.6754 162.4333,-138.7795"/>
<polygon fill="#191970" stroke="#191970" points="135.5211,-165.5016 131.7903,-175.4179 140.8907,-169.9925 135.5211,-165.5016"/>
</g>
</g>
</svg>
