<?xml version="1.0" encoding="UTF-8" standalone="no"?>
<!DOCTYPE svg PUBLIC "-//W3C//DTD SVG 1.1//EN"
 "http://www.w3.org/Graphics/SVG/1.1/DTD/svg11.dtd">
<!-- Generated by graphviz version 2.40.1 (20161225.0304)
 -->
<!-- Title: internal::DoFHandler::Policy::ParallelDistributed&lt; dim, spacedim &gt; Pages: 1 -->
<svg width="143pt" height="122pt"
 viewBox="0.00 0.00 142.94 122.00" xmlns="http://www.w3.org/2000/svg" xmlns:xlink="http://www.w3.org/1999/xlink">
<g id="graph0" class="graph" transform="scale(1 1) rotate(0) translate(4 118)">
<title>internal::DoFHandler::Policy::ParallelDistributed&lt; dim, spacedim &gt;</title>
<polygon fill="#ffffff" stroke="transparent" points="-4,4 -4,-118 138.9355,-118 138.9355,4 -4,4"/>
<!-- Node0 -->
<g id="node1" class="node">
<title>Node0</title>
<polygon fill="#bfbfbf" stroke="#000000" points="0,-.5 0,-38.5 134.9355,-38.5 134.9355,-.5 0,-.5"/>
<text text-anchor="start" x="8" y="-26.5" font-family="Helvetica,sans-Serif" font-size="10.00" fill="#000000">internal::DoFHandler</text>
<text text-anchor="start" x="8" y="-16.5" font-family="Helvetica,sans-Serif" font-size="10.00" fill="#000000">::Policy::ParallelDistributed</text>
<text text-anchor="middle" x="67.4678" y="-6.5" font-family="Helvetica,sans-Serif" font-size="10.00" fill="#000000">&lt; dim, spacedim &gt;</text>
</g>
<!-- Node1 -->
<g id="node2" class="node">
<title>Node1</title>
<g id="a_node2"><a xlink:href="classinternal_1_1DoFHandler_1_1Policy_1_1PolicyBase.html" target="_top" xlink:title="internal::DoFHandler\l::Policy::PolicyBase\l\&lt; dim, spacedim \&gt;">
<polygon fill="#ffffff" stroke="#000000" points="13.335,-75.5 13.335,-113.5 121.6006,-113.5 121.6006,-75.5 13.335,-75.5"/>
<text text-anchor="start" x="21.335" y="-101.5" font-family="Helvetica,sans-Serif" font-size="10.00" fill="#000000">internal::DoFHandler</text>
<text text-anchor="start" x="21.335" y="-91.5" font-family="Helvetica,sans-Serif" font-size="10.00" fill="#000000">::Policy::PolicyBase</text>
<text text-anchor="middle" x="67.4678" y="-81.5" font-family="Helvetica,sans-Serif" font-size="10.00" fill="#000000">&lt; dim, spacedim &gt;</text>
</a>
</g>
</g>
<!-- Node1&#45;&gt;Node0 -->
<g id="edge1" class="edge">
<title>Node1&#45;&gt;Node0</title>
<path fill="none" stroke="#191970" d="M67.4678,-64.8977C67.4678,-56.1033 67.4678,-46.7019 67.4678,-38.7489"/>
<polygon fill="#191970" stroke="#191970" points="63.9679,-65.1856 67.4678,-75.1856 70.9679,-65.1857 63.9679,-65.1856"/>
</g>
</g>
</svg>
