<?xml version="1.0" encoding="UTF-8" standalone="no"?>
<!DOCTYPE svg PUBLIC "-//W3C//DTD SVG 1.1//EN"
 "http://www.w3.org/Graphics/SVG/1.1/DTD/svg11.dtd">
<!-- Generated by graphviz version 2.40.1 (20161225.0304)
 -->
<!-- Title: QGaussChebyshev&lt; dim &gt; Pages: 1 -->
<svg width="144pt" height="137pt"
 viewBox="0.00 0.00 144.06 137.00" xmlns="http://www.w3.org/2000/svg" xmlns:xlink="http://www.w3.org/1999/xlink">
<g id="graph0" class="graph" transform="scale(1 1) rotate(0) translate(4 133)">
<title>QGaussChebyshev&lt; dim &gt;</title>
<polygon fill="#ffffff" stroke="transparent" points="-4,4 -4,-133 140.0586,-133 140.0586,4 -4,4"/>
<!-- Node0 -->
<g id="node1" class="node">
<title>Node0</title>
<polygon fill="#bfbfbf" stroke="#000000" points="0,-.5 0,-18.5 136.0586,-18.5 136.0586,-.5 0,-.5"/>
<text text-anchor="middle" x="68.0293" y="-6.5" font-family="Helvetica,sans-Serif" font-size="10.00" fill="#000000">QGaussChebyshev&lt; dim &gt;</text>
</g>
<!-- Node1 -->
<g id="node2" class="node">
<title>Node1</title>
<g id="a_node2"><a xlink:href="classQuadrature.html" target="_top" xlink:title="Quadrature\&lt; dim \&gt;">
<polygon fill="#ffffff" stroke="#000000" points="18.0615,-55.5 18.0615,-73.5 117.9971,-73.5 117.9971,-55.5 18.0615,-55.5"/>
<text text-anchor="middle" x="68.0293" y="-61.5" font-family="Helvetica,sans-Serif" font-size="10.00" fill="#000000">Quadrature&lt; dim &gt;</text>
</a>
</g>
</g>
<!-- Node1&#45;&gt;Node0 -->
<g id="edge1" class="edge">
<title>Node1&#45;&gt;Node0</title>
<path fill="none" stroke="#191970" d="M68.0293,-45.383C68.0293,-36.3738 68.0293,-26.0373 68.0293,-18.7795"/>
<polygon fill="#191970" stroke="#191970" points="64.5294,-45.4178 68.0293,-55.4179 71.5294,-45.4179 64.5294,-45.4178"/>
</g>
<!-- Node2 -->
<g id="node3" class="node">
<title>Node2</title>
<g id="a_node3"><a xlink:href="classSubscriptor.html" target="_top" xlink:title="Subscriptor">
<polygon fill="#ffffff" stroke="#000000" points="34.7412,-110.5 34.7412,-128.5 101.3174,-128.5 101.3174,-110.5 34.7412,-110.5"/>
<text text-anchor="middle" x="68.0293" y="-116.5" font-family="Helvetica,sans-Serif" font-size="10.00" fill="#000000">Subscriptor</text>
</a>
</g>
</g>
<!-- Node2&#45;&gt;Node1 -->
<g id="edge2" class="edge">
<title>Node2&#45;&gt;Node1</title>
<path fill="none" stroke="#191970" d="M68.0293,-100.383C68.0293,-91.3738 68.0293,-81.0373 68.0293,-73.7795"/>
<polygon fill="#191970" stroke="#191970" points="64.5294,-100.4178 68.0293,-110.4179 71.5294,-100.4179 64.5294,-100.4178"/>
</g>
</g>
</svg>
