<?xml version="1.0" encoding="UTF-8" standalone="no"?>
<!DOCTYPE svg PUBLIC "-//W3C//DTD SVG 1.1//EN"
 "http://www.w3.org/Graphics/SVG/1.1/DTD/svg11.dtd">
<!-- Generated by graphviz version 2.40.1 (20161225.0304)
 -->
<!-- Title: FE_Poly&lt; PolynomialType, dim, spacedim &gt; Pages: 1 -->
<svg width="1565pt" height="636pt"
 viewBox="0.00 0.00 1565.39 636.22" xmlns="http://www.w3.org/2000/svg" xmlns:xlink="http://www.w3.org/1999/xlink">
<g id="graph0" class="graph" transform="scale(1 1) rotate(0) translate(4 632.2154)">
<title>FE_Poly&lt; PolynomialType, dim, spacedim &gt;</title>
<polygon fill="#ffffff" stroke="transparent" points="-4,4 -4,-632.2154 1561.3916,-632.2154 1561.3916,4 -4,4"/>
<!-- Node0 -->
<g id="node1" class="node">
<title>Node0</title>
<polygon fill="#bfbfbf" stroke="#000000" points="282.748,-201.7154 282.748,-229.7154 418.5332,-229.7154 418.5332,-201.7154 282.748,-201.7154"/>
<text text-anchor="start" x="290.748" y="-217.7154" font-family="Helvetica,sans-Serif" font-size="10.00" fill="#000000">FE_Poly&lt; PolynomialType,</text>
<text text-anchor="middle" x="350.6406" y="-207.7154" font-family="Helvetica,sans-Serif" font-size="10.00" fill="#000000"> dim, spacedim &gt;</text>
</g>
<!-- Node4 -->
<g id="node5" class="node">
<title>Node4</title>
<g id="a_node5"><a xlink:href="classFE__Q__Base.html" target="_top" xlink:title="FE_Q_Base\&lt; PolynomialType,\l dim, spacedim \&gt;">
<polygon fill="#ffffff" stroke="#000000" points="661.8306,-319.7154 661.8306,-347.7154 814.2954,-347.7154 814.2954,-319.7154 661.8306,-319.7154"/>
<text text-anchor="start" x="669.8306" y="-335.7154" font-family="Helvetica,sans-Serif" font-size="10.00" fill="#000000">FE_Q_Base&lt; PolynomialType,</text>
<text text-anchor="middle" x="738.063" y="-325.7154" font-family="Helvetica,sans-Serif" font-size="10.00" fill="#000000"> dim, spacedim &gt;</text>
</a>
</g>
</g>
<!-- Node0&#45;&gt;Node4 -->
<g id="edge4" class="edge">
<title>Node0&#45;&gt;Node4</title>
<path fill="none" stroke="#191970" d="M367.905,-237.8838C383.6533,-256.376 408.6648,-281.7272 436.5332,-294.7154 507.9405,-327.9951 598.5752,-335.7262 661.7466,-336.387"/>
<polygon fill="#191970" stroke="#191970" points="370.4105,-235.421 361.3441,-229.939 365.013,-239.8784 370.4105,-235.421"/>
</g>
<!-- Node16 -->
<g id="node17" class="node">
<title>Node16</title>
<g id="a_node17"><a xlink:href="classFE__Poly.html" target="_top" xlink:title="FE_Poly\&lt; PolynomialSpace\l\&lt; dim \&gt;, dim, spacedim \&gt;">
<polygon fill="#ffffff" stroke="#000000" points="668.2246,-154.7154 668.2246,-182.7154 807.9014,-182.7154 807.9014,-154.7154 668.2246,-154.7154"/>
<text text-anchor="start" x="676.2246" y="-170.7154" font-family="Helvetica,sans-Serif" font-size="10.00" fill="#000000">FE_Poly&lt; PolynomialSpace</text>
<text text-anchor="middle" x="738.063" y="-160.7154" font-family="Helvetica,sans-Serif" font-size="10.00" fill="#000000">&lt; dim &gt;, dim, spacedim &gt;</text>
</a>
</g>
</g>
<!-- Node0&#45;&gt;Node16 -->
<g id="edge17" class="edge">
<title>Node0&#45;&gt;Node16</title>
<path fill="none" stroke="#ffa500" stroke-dasharray="5,2" d="M404.353,-198.9671C414.9347,-196.1627 426.0177,-193.5671 436.5332,-191.7154 515.1256,-177.8763 606.6905,-172.3628 668.1162,-170.167"/>
<polygon fill="#ffa500" stroke="#ffa500" points="403.1118,-195.6783 394.3962,-201.7023 404.9662,-202.4282 403.1118,-195.6783"/>
<text text-anchor="start" x="475.3003" y="-203.7154" font-family="Helvetica,sans-Serif" font-size="10.00" fill="#000000"> &lt; PolynomialSpace&lt;</text>
<text text-anchor="middle" x="528.3765" y="-193.7154" font-family="Helvetica,sans-Serif" font-size="10.00" fill="#000000"> dim &gt;, dim, spacedim &gt;</text>
</g>
<!-- Node18 -->
<g id="node19" class="node">
<title>Node18</title>
<g id="a_node19"><a xlink:href="classFE__Poly.html" target="_top" xlink:title="FE_Poly\&lt; PolynomialsP\l\&lt; dim \&gt;, dim \&gt;">
<polygon fill="#ffffff" stroke="#000000" points="676.5669,-107.7154 676.5669,-135.7154 799.5591,-135.7154 799.5591,-107.7154 676.5669,-107.7154"/>
<text text-anchor="start" x="684.5669" y="-123.7154" font-family="Helvetica,sans-Serif" font-size="10.00" fill="#000000">FE_Poly&lt; PolynomialsP</text>
<text text-anchor="middle" x="738.063" y="-113.7154" font-family="Helvetica,sans-Serif" font-size="10.00" fill="#000000">&lt; dim &gt;, dim &gt;</text>
</a>
</g>
</g>
<!-- Node0&#45;&gt;Node18 -->
<g id="edge19" class="edge">
<title>Node0&#45;&gt;Node18</title>
<path fill="none" stroke="#ffa500" stroke-dasharray="5,2" d="M370.9042,-194.3258C387.0656,-178.7661 411.1351,-158.7386 436.5332,-148.7154 515.1223,-117.7008 613.9064,-114.9902 676.5361,-117.2667"/>
<polygon fill="#ffa500" stroke="#ffa500" points="368.266,-192.013 363.6344,-201.5419 373.1974,-196.9811 368.266,-192.013"/>
<text text-anchor="start" x="480.022" y="-160.7154" font-family="Helvetica,sans-Serif" font-size="10.00" fill="#000000"> &lt; PolynomialsP&lt; dim</text>
<text text-anchor="middle" x="528.3765" y="-150.7154" font-family="Helvetica,sans-Serif" font-size="10.00" fill="#000000"> &gt;, dim &gt;</text>
</g>
<!-- Node20 -->
<g id="node21" class="node">
<title>Node20</title>
<g id="a_node21"><a xlink:href="classFE__Poly.html" target="_top" xlink:title="FE_Poly\&lt; TensorProductPolynomials\l\&lt; dim \&gt;, dim \&gt;">
<polygon fill="#ffffff" stroke="#000000" points="647.751,-60.7154 647.751,-88.7154 828.375,-88.7154 828.375,-60.7154 647.751,-60.7154"/>
<text text-anchor="start" x="655.751" y="-76.7154" font-family="Helvetica,sans-Serif" font-size="10.00" fill="#000000">FE_Poly&lt; TensorProductPolynomials</text>
<text text-anchor="middle" x="738.063" y="-66.7154" font-family="Helvetica,sans-Serif" font-size="10.00" fill="#000000">&lt; dim &gt;, dim &gt;</text>
</a>
</g>
</g>
<!-- Node0&#45;&gt;Node20 -->
<g id="edge21" class="edge">
<title>Node0&#45;&gt;Node20</title>
<path fill="none" stroke="#ffa500" stroke-dasharray="5,2" d="M359.6167,-192.2807C372.0542,-163.4225 397.5067,-115.5528 436.5332,-93.7154 500.5025,-57.9213 584.4877,-55.545 647.5724,-60.7678"/>
<polygon fill="#ffa500" stroke="#ffa500" points="356.3413,-191.0427 355.7593,-201.6216 362.8113,-193.7147 356.3413,-191.0427"/>
<text text-anchor="start" x="463.5718" y="-105.7154" font-family="Helvetica,sans-Serif" font-size="10.00" fill="#000000"> &lt; TensorProductPolynomials</text>
<text text-anchor="middle" x="528.3765" y="-95.7154" font-family="Helvetica,sans-Serif" font-size="10.00" fill="#000000">&lt; dim &gt;, dim &gt;</text>
</g>
<!-- Node22 -->
<g id="node23" class="node">
<title>Node22</title>
<g id="a_node23"><a xlink:href="classFE__Poly.html" target="_top" xlink:title="FE_Poly\&lt; TensorProductPolynomials\l\&lt; dim \&gt;, dim, spacedim \&gt;">
<polygon fill="#ffffff" stroke="#000000" points="647.751,-486.7154 647.751,-514.7154 828.375,-514.7154 828.375,-486.7154 647.751,-486.7154"/>
<text text-anchor="start" x="655.751" y="-502.7154" font-family="Helvetica,sans-Serif" font-size="10.00" fill="#000000">FE_Poly&lt; TensorProductPolynomials</text>
<text text-anchor="middle" x="738.063" y="-492.7154" font-family="Helvetica,sans-Serif" font-size="10.00" fill="#000000">&lt; dim &gt;, dim, spacedim &gt;</text>
</a>
</g>
</g>
<!-- Node0&#45;&gt;Node22 -->
<g id="edge23" class="edge">
<title>Node0&#45;&gt;Node22</title>
<path fill="none" stroke="#ffa500" stroke-dasharray="5,2" d="M354.0657,-239.7641C361.3631,-281.9584 382.436,-369.3331 436.5332,-416.7154 494.888,-467.8268 581.9203,-488.0557 647.5033,-495.9509"/>
<polygon fill="#ffa500" stroke="#ffa500" points="357.5107,-239.1421 352.4605,-229.8284 350.6003,-240.2587 357.5107,-239.1421"/>
<text text-anchor="start" x="463.5718" y="-503.7154" font-family="Helvetica,sans-Serif" font-size="10.00" fill="#000000"> &lt; TensorProductPolynomials</text>
<text text-anchor="middle" x="528.3765" y="-493.7154" font-family="Helvetica,sans-Serif" font-size="10.00" fill="#000000">&lt; dim &gt;, dim, spacedim &gt;</text>
</g>
<!-- Node27 -->
<g id="node28" class="node">
<title>Node27</title>
<g id="a_node28"><a xlink:href="classFE__Poly.html" target="_top" xlink:title="FE_Poly\&lt; PolynomialsRannacher\lTurek\&lt; dim \&gt;, dim \&gt;">
<polygon fill="#ffffff" stroke="#000000" points="655.4414,-13.7154 655.4414,-41.7154 820.6846,-41.7154 820.6846,-13.7154 655.4414,-13.7154"/>
<text text-anchor="start" x="663.4414" y="-29.7154" font-family="Helvetica,sans-Serif" font-size="10.00" fill="#000000">FE_Poly&lt; PolynomialsRannacher</text>
<text text-anchor="middle" x="738.063" y="-19.7154" font-family="Helvetica,sans-Serif" font-size="10.00" fill="#000000">Turek&lt; dim &gt;, dim &gt;</text>
</a>
</g>
</g>
<!-- Node0&#45;&gt;Node27 -->
<g id="edge30" class="edge">
<title>Node0&#45;&gt;Node27</title>
<path fill="none" stroke="#ffa500" stroke-dasharray="5,2" d="M354.0145,-191.5802C361.1146,-151.0491 381.7376,-70.2616 436.5332,-34.7154 512.2016,14.3711 622.5541,.5709 686.659,-13.7121"/>
<polygon fill="#ffa500" stroke="#ffa500" points="350.5279,-191.2168 352.3868,-201.6473 357.4382,-192.3342 350.5279,-191.2168"/>
<text text-anchor="start" x="458.6646" y="-46.7154" font-family="Helvetica,sans-Serif" font-size="10.00" fill="#000000"> &lt; PolynomialsRannacherTurek</text>
<text text-anchor="middle" x="528.3765" y="-36.7154" font-family="Helvetica,sans-Serif" font-size="10.00" fill="#000000">&lt; dim &gt;, dim &gt;</text>
</g>
<!-- Node29 -->
<g id="node30" class="node">
<title>Node29</title>
<g id="a_node30"><a xlink:href="classFE__Poly.html" target="_top" xlink:title="FE_Poly\&lt; TensorProductPolynomials\lBubbles\&lt; dim \&gt;, dim, spacedim \&gt;">
<polygon fill="#ffffff" stroke="#000000" points="647.751,-390.7154 647.751,-418.7154 828.375,-418.7154 828.375,-390.7154 647.751,-390.7154"/>
<text text-anchor="start" x="655.751" y="-406.7154" font-family="Helvetica,sans-Serif" font-size="10.00" fill="#000000">FE_Poly&lt; TensorProductPolynomials</text>
<text text-anchor="middle" x="738.063" y="-396.7154" font-family="Helvetica,sans-Serif" font-size="10.00" fill="#000000">Bubbles&lt; dim &gt;, dim, spacedim &gt;</text>
</a>
</g>
</g>
<!-- Node0&#45;&gt;Node29 -->
<g id="edge32" class="edge">
<title>Node0&#45;&gt;Node29</title>
<path fill="none" stroke="#ffa500" stroke-dasharray="5,2" d="M362.1917,-239.1046C376.2009,-265.0006 402.2596,-306.0699 436.5332,-328.7154 499.705,-370.4548 584.1608,-389.2709 647.6192,-397.7532"/>
<polygon fill="#ffa500" stroke="#ffa500" points="365.16,-237.2282 357.4205,-229.9928 358.9587,-240.4754 365.16,-237.2282"/>
<text text-anchor="start" x="454.3115" y="-404.7154" font-family="Helvetica,sans-Serif" font-size="10.00" fill="#000000"> &lt; TensorProductPolynomials</text>
<text text-anchor="middle" x="528.3765" y="-394.7154" font-family="Helvetica,sans-Serif" font-size="10.00" fill="#000000">Bubbles&lt; dim &gt;, dim, spacedim &gt;</text>
</g>
<!-- Node30 -->
<g id="node31" class="node">
<title>Node30</title>
<g id="a_node31"><a xlink:href="classFE__Poly.html" target="_top" xlink:title="FE_Poly\&lt; TensorProductPolynomials\lConst\&lt; dim \&gt;, dim, spacedim \&gt;">
<polygon fill="#ffffff" stroke="#000000" points="647.751,-201.7154 647.751,-229.7154 828.375,-229.7154 828.375,-201.7154 647.751,-201.7154"/>
<text text-anchor="start" x="655.751" y="-217.7154" font-family="Helvetica,sans-Serif" font-size="10.00" fill="#000000">FE_Poly&lt; TensorProductPolynomials</text>
<text text-anchor="middle" x="738.063" y="-207.7154" font-family="Helvetica,sans-Serif" font-size="10.00" fill="#000000">Const&lt; dim &gt;, dim, spacedim &gt;</text>
</a>
</g>
</g>
<!-- Node0&#45;&gt;Node30 -->
<g id="edge34" class="edge">
<title>Node0&#45;&gt;Node30</title>
<path fill="none" stroke="#ffa500" stroke-dasharray="5,2" d="M428.8845,-215.7154C492.1481,-215.7154 581.2857,-215.7154 647.6069,-215.7154"/>
<polygon fill="#ffa500" stroke="#ffa500" points="428.5678,-212.2155 418.5678,-215.7154 428.5678,-219.2155 428.5678,-212.2155"/>
<text text-anchor="start" x="459.3188" y="-227.7154" font-family="Helvetica,sans-Serif" font-size="10.00" fill="#000000"> &lt; TensorProductPolynomials</text>
<text text-anchor="middle" x="528.3765" y="-217.7154" font-family="Helvetica,sans-Serif" font-size="10.00" fill="#000000">Const&lt; dim &gt;, dim, spacedim &gt;</text>
</g>
<!-- Node31 -->
<g id="node32" class="node">
<title>Node31</title>
<g id="a_node32"><a xlink:href="classFE__Poly.html" target="_top" xlink:title="FE_Poly\&lt; TensorProductPolynomials\l\&lt; dim, Polynomials::PiecewisePolynomial\l\&lt; double \&gt; \&gt;, dim, spacedim \&gt;">
<polygon fill="#ffffff" stroke="#000000" points="638.2197,-248.7154 638.2197,-286.7154 837.9063,-286.7154 837.9063,-248.7154 638.2197,-248.7154"/>
<text text-anchor="start" x="646.2197" y="-274.7154" font-family="Helvetica,sans-Serif" font-size="10.00" fill="#000000">FE_Poly&lt; TensorProductPolynomials</text>
<text text-anchor="start" x="646.2197" y="-264.7154" font-family="Helvetica,sans-Serif" font-size="10.00" fill="#000000">&lt; dim, Polynomials::PiecewisePolynomial</text>
<text text-anchor="middle" x="738.063" y="-254.7154" font-family="Helvetica,sans-Serif" font-size="10.00" fill="#000000">&lt; double &gt; &gt;, dim, spacedim &gt;</text>
</a>
</g>
</g>
<!-- Node0&#45;&gt;Node31 -->
<g id="edge36" class="edge">
<title>Node0&#45;&gt;Node31</title>
<path fill="none" stroke="#ffa500" stroke-dasharray="5,2" d="M405.0763,-232.5107C415.4441,-235.2573 426.2641,-237.8199 436.5332,-239.7154 503.0979,-252.0024 578.9763,-259.0126 637.9634,-262.946"/>
<polygon fill="#ffa500" stroke="#ffa500" points="405.8766,-229.101 395.3073,-229.8367 404.0285,-235.8527 405.8766,-229.101"/>
<text text-anchor="start" x="436.5332" y="-282.7154" font-family="Helvetica,sans-Serif" font-size="10.00" fill="#000000"> &lt; TensorProductPolynomials</text>
<text text-anchor="start" x="436.5332" y="-272.7154" font-family="Helvetica,sans-Serif" font-size="10.00" fill="#000000">&lt; dim, Polynomials::PiecewisePolynomial</text>
<text text-anchor="middle" x="528.3765" y="-262.7154" font-family="Helvetica,sans-Serif" font-size="10.00" fill="#000000">&lt; double &gt; &gt;, dim, spacedim &gt;</text>
</g>
<!-- Node1 -->
<g id="node2" class="node">
<title>Node1</title>
<g id="a_node2"><a xlink:href="classFiniteElement.html" target="_top" xlink:title="FiniteElement\&lt; dim,\l spacedim \&gt;">
<polygon fill="#ffffff" stroke="#000000" points="141.1006,-201.7154 141.1006,-229.7154 245.748,-229.7154 245.748,-201.7154 141.1006,-201.7154"/>
<text text-anchor="start" x="149.1006" y="-217.7154" font-family="Helvetica,sans-Serif" font-size="10.00" fill="#000000">FiniteElement&lt; dim,</text>
<text text-anchor="middle" x="193.4243" y="-207.7154" font-family="Helvetica,sans-Serif" font-size="10.00" fill="#000000"> spacedim &gt;</text>
</a>
</g>
</g>
<!-- Node1&#45;&gt;Node0 -->
<g id="edge1" class="edge">
<title>Node1&#45;&gt;Node0</title>
<path fill="none" stroke="#191970" d="M255.9073,-215.7154C264.6713,-215.7154 273.7148,-215.7154 282.5762,-215.7154"/>
<polygon fill="#191970" stroke="#191970" points="255.7751,-212.2155 245.7751,-215.7154 255.775,-219.2155 255.7751,-212.2155"/>
</g>
<!-- Node2 -->
<g id="node3" class="node">
<title>Node2</title>
<g id="a_node3"><a xlink:href="classSubscriptor.html" target="_top" xlink:title="Subscriptor">
<polygon fill="#ffffff" stroke="#000000" points="18.7622,-227.7154 18.7622,-245.7154 85.3384,-245.7154 85.3384,-227.7154 18.7622,-227.7154"/>
<text text-anchor="middle" x="52.0503" y="-233.7154" font-family="Helvetica,sans-Serif" font-size="10.00" fill="#000000">Subscriptor</text>
</a>
</g>
</g>
<!-- Node2&#45;&gt;Node1 -->
<g id="edge2" class="edge">
<title>Node2&#45;&gt;Node1</title>
<path fill="none" stroke="#191970" d="M95.6606,-230.2374C110.0246,-228.1038 126.1458,-225.7091 141.091,-223.4891"/>
<polygon fill="#191970" stroke="#191970" points="94.9311,-226.8073 85.554,-231.7387 95.9597,-233.7313 94.9311,-226.8073"/>
</g>
<!-- Node3 -->
<g id="node4" class="node">
<title>Node3</title>
<g id="a_node4"><a xlink:href="classFiniteElementData.html" target="_top" xlink:title="FiniteElementData\&lt;\l dim \&gt;">
<polygon fill="#ffffff" stroke="#000000" points="0,-180.7154 0,-208.7154 104.1006,-208.7154 104.1006,-180.7154 0,-180.7154"/>
<text text-anchor="start" x="8" y="-196.7154" font-family="Helvetica,sans-Serif" font-size="10.00" fill="#000000">FiniteElementData&lt;</text>
<text text-anchor="middle" x="52.0503" y="-186.7154" font-family="Helvetica,sans-Serif" font-size="10.00" fill="#000000"> dim &gt;</text>
</a>
</g>
</g>
<!-- Node3&#45;&gt;Node1 -->
<g id="edge3" class="edge">
<title>Node3&#45;&gt;Node1</title>
<path fill="none" stroke="#191970" d="M114.2377,-203.9529C123.1434,-205.2757 132.2318,-206.6257 140.9263,-207.9172"/>
<polygon fill="#191970" stroke="#191970" points="114.6968,-200.4827 104.2911,-202.4754 113.6683,-207.4068 114.6968,-200.4827"/>
</g>
<!-- Node5 -->
<g id="node6" class="node">
<title>Node5</title>
<g id="a_node6"><a xlink:href="classFE__Q__Base.html" target="_top" xlink:title="FE_Q_Base\&lt; TensorProduct\lPolynomials\&lt; dim \&gt;, dim,\l dim \&gt;">
<polygon fill="#ffffff" stroke="#000000" points="1062.9639,-380.7154 1062.9639,-418.7154 1206.3564,-418.7154 1206.3564,-380.7154 1062.9639,-380.7154"/>
<text text-anchor="start" x="1070.9639" y="-406.7154" font-family="Helvetica,sans-Serif" font-size="10.00" fill="#000000">FE_Q_Base&lt; TensorProduct</text>
<text text-anchor="start" x="1070.9639" y="-396.7154" font-family="Helvetica,sans-Serif" font-size="10.00" fill="#000000">Polynomials&lt; dim &gt;, dim,</text>
<text text-anchor="middle" x="1134.6602" y="-386.7154" font-family="Helvetica,sans-Serif" font-size="10.00" fill="#000000"> dim &gt;</text>
</a>
</g>
</g>
<!-- Node4&#45;&gt;Node5 -->
<g id="edge5" class="edge">
<title>Node4&#45;&gt;Node5</title>
<path fill="none" stroke="#ffa500" stroke-dasharray="5,2" d="M797.4604,-350.3258C816.0675,-355.127 836.7473,-360.0534 855.9063,-363.7154 925.7628,-377.0675 1006.4319,-386.8851 1062.9581,-392.8648"/>
<polygon fill="#ffa500" stroke="#ffa500" points="798.2102,-346.9042 787.6497,-347.7574 796.4373,-353.676 798.2102,-346.9042"/>
<text text-anchor="start" x="882.9448" y="-401.7154" font-family="Helvetica,sans-Serif" font-size="10.00" fill="#000000"> &lt; TensorProductPolynomials</text>
<text text-anchor="middle" x="947.7495" y="-391.7154" font-family="Helvetica,sans-Serif" font-size="10.00" fill="#000000">&lt; dim &gt;, dim, dim &gt;</text>
</g>
<!-- Node7 -->
<g id="node8" class="node">
<title>Node7</title>
<g id="a_node8"><a xlink:href="classFE__Q__Base.html" target="_top" xlink:title="FE_Q_Base\&lt; TensorProduct\lPolynomials\&lt; dim \&gt;, dim,\l spacedim \&gt;">
<polygon fill="#ffffff" stroke="#000000" points="1062.9639,-441.7154 1062.9639,-479.7154 1206.3564,-479.7154 1206.3564,-441.7154 1062.9639,-441.7154"/>
<text text-anchor="start" x="1070.9639" y="-467.7154" font-family="Helvetica,sans-Serif" font-size="10.00" fill="#000000">FE_Q_Base&lt; TensorProduct</text>
<text text-anchor="start" x="1070.9639" y="-457.7154" font-family="Helvetica,sans-Serif" font-size="10.00" fill="#000000">Polynomials&lt; dim &gt;, dim,</text>
<text text-anchor="middle" x="1134.6602" y="-447.7154" font-family="Helvetica,sans-Serif" font-size="10.00" fill="#000000"> spacedim &gt;</text>
</a>
</g>
</g>
<!-- Node4&#45;&gt;Node7 -->
<g id="edge7" class="edge">
<title>Node4&#45;&gt;Node7</title>
<path fill="none" stroke="#ffa500" stroke-dasharray="5,2" d="M790.8945,-351.8916C807.285,-359.3236 824.5364,-369.1782 837.9063,-381.7154 849.8094,-392.8773 842.5569,-404.3311 855.9063,-413.7154 916.4322,-456.2638 1002.3366,-464.9994 1062.7422,-464.9905"/>
<polygon fill="#ffa500" stroke="#ffa500" points="791.9483,-348.5347 781.3794,-347.7938 789.1795,-354.9639 791.9483,-348.5347"/>
<text text-anchor="start" x="882.9448" y="-475.7154" font-family="Helvetica,sans-Serif" font-size="10.00" fill="#000000"> &lt; TensorProductPolynomials</text>
<text text-anchor="middle" x="947.7495" y="-465.7154" font-family="Helvetica,sans-Serif" font-size="10.00" fill="#000000">&lt; dim &gt;, dim, spacedim &gt;</text>
</g>
<!-- Node10 -->
<g id="node11" class="node">
<title>Node10</title>
<g id="a_node11"><a xlink:href="classFE__Q__Base.html" target="_top" xlink:title="FE_Q_Base\&lt; TensorProduct\lPolynomialsBubbles\&lt; dim\l \&gt;, dim, spacedim \&gt;">
<polygon fill="#ffffff" stroke="#000000" points="1062.9639,-323.7154 1062.9639,-361.7154 1206.3564,-361.7154 1206.3564,-323.7154 1062.9639,-323.7154"/>
<text text-anchor="start" x="1070.9639" y="-349.7154" font-family="Helvetica,sans-Serif" font-size="10.00" fill="#000000">FE_Q_Base&lt; TensorProduct</text>
<text text-anchor="start" x="1070.9639" y="-339.7154" font-family="Helvetica,sans-Serif" font-size="10.00" fill="#000000">PolynomialsBubbles&lt; dim</text>
<text text-anchor="middle" x="1134.6602" y="-329.7154" font-family="Helvetica,sans-Serif" font-size="10.00" fill="#000000"> &gt;, dim, spacedim &gt;</text>
</a>
</g>
</g>
<!-- Node4&#45;&gt;Node10 -->
<g id="edge11" class="edge">
<title>Node4&#45;&gt;Node10</title>
<path fill="none" stroke="#ffa500" stroke-dasharray="5,2" d="M824.8339,-335.6845C896.1157,-337.3021 995.8895,-339.5663 1062.7676,-341.0839"/>
<polygon fill="#ffa500" stroke="#ffa500" points="824.6078,-332.1786 814.5309,-335.4507 824.4489,-339.1768 824.6078,-332.1786"/>
<text text-anchor="start" x="873.6846" y="-351.7154" font-family="Helvetica,sans-Serif" font-size="10.00" fill="#000000"> &lt; TensorProductPolynomials</text>
<text text-anchor="middle" x="947.7495" y="-341.7154" font-family="Helvetica,sans-Serif" font-size="10.00" fill="#000000">Bubbles&lt; dim &gt;, dim, spacedim &gt;</text>
</g>
<!-- Node12 -->
<g id="node13" class="node">
<title>Node12</title>
<g id="a_node13"><a xlink:href="classFE__Q__Base.html" target="_top" xlink:title="FE_Q_Base\&lt; TensorProduct\lPolynomialsConst\&lt; dim\l \&gt;, dim, spacedim \&gt;">
<polygon fill="#ffffff" stroke="#000000" points="1062.9639,-193.7154 1062.9639,-231.7154 1206.3564,-231.7154 1206.3564,-193.7154 1062.9639,-193.7154"/>
<text text-anchor="start" x="1070.9639" y="-219.7154" font-family="Helvetica,sans-Serif" font-size="10.00" fill="#000000">FE_Q_Base&lt; TensorProduct</text>
<text text-anchor="start" x="1070.9639" y="-209.7154" font-family="Helvetica,sans-Serif" font-size="10.00" fill="#000000">PolynomialsConst&lt; dim</text>
<text text-anchor="middle" x="1134.6602" y="-199.7154" font-family="Helvetica,sans-Serif" font-size="10.00" fill="#000000"> &gt;, dim, spacedim &gt;</text>
</a>
</g>
</g>
<!-- Node4&#45;&gt;Node12 -->
<g id="edge13" class="edge">
<title>Node4&#45;&gt;Node12</title>
<path fill="none" stroke="#ffa500" stroke-dasharray="5,2" d="M808.6109,-315.717C819.2707,-310.7967 829.4959,-304.5727 837.9063,-296.7154 852.1516,-283.4068 840.4133,-268.5483 855.9063,-256.7154 887.5422,-232.5532 991.3329,-221.3369 1062.9287,-216.3668"/>
<polygon fill="#ffa500" stroke="#ffa500" points="807.0115,-312.5933 799.166,-319.7136 809.7394,-319.0399 807.0115,-312.5933"/>
<text text-anchor="start" x="878.6919" y="-268.7154" font-family="Helvetica,sans-Serif" font-size="10.00" fill="#000000"> &lt; TensorProductPolynomials</text>
<text text-anchor="middle" x="947.7495" y="-258.7154" font-family="Helvetica,sans-Serif" font-size="10.00" fill="#000000">Const&lt; dim &gt;, dim, spacedim &gt;</text>
</g>
<!-- Node14 -->
<g id="node15" class="node">
<title>Node14</title>
<g id="a_node15"><a xlink:href="classFE__Q__Base.html" target="_top" xlink:title="FE_Q_Base\&lt; TensorProduct\lPolynomials\&lt; dim, Polynomials\l::PiecewisePolynomial\&lt; double\l \&gt; \&gt;, dim, spacedim \&gt;">
<polygon fill="#ffffff" stroke="#000000" points="1057.5928,-252.7154 1057.5928,-300.7154 1211.7275,-300.7154 1211.7275,-252.7154 1057.5928,-252.7154"/>
<text text-anchor="start" x="1065.5928" y="-288.7154" font-family="Helvetica,sans-Serif" font-size="10.00" fill="#000000">FE_Q_Base&lt; TensorProduct</text>
<text text-anchor="start" x="1065.5928" y="-278.7154" font-family="Helvetica,sans-Serif" font-size="10.00" fill="#000000">Polynomials&lt; dim, Polynomials</text>
<text text-anchor="start" x="1065.5928" y="-268.7154" font-family="Helvetica,sans-Serif" font-size="10.00" fill="#000000">::PiecewisePolynomial&lt; double</text>
<text text-anchor="middle" x="1134.6602" y="-258.7154" font-family="Helvetica,sans-Serif" font-size="10.00" fill="#000000"> &gt; &gt;, dim, spacedim &gt;</text>
</a>
</g>
</g>
<!-- Node4&#45;&gt;Node14 -->
<g id="edge15" class="edge">
<title>Node4&#45;&gt;Node14</title>
<path fill="none" stroke="#ffa500" stroke-dasharray="5,2" d="M792.2045,-316.8721C812.0662,-311.2631 834.8415,-305.4898 855.9063,-301.7154 923.4623,-289.6107 1001.3321,-283.2528 1057.5678,-279.9851"/>
<polygon fill="#ffa500" stroke="#ffa500" points="791.0517,-313.5617 782.4095,-319.6905 792.9874,-320.2888 791.0517,-313.5617"/>
<text text-anchor="start" x="855.9063" y="-323.7154" font-family="Helvetica,sans-Serif" font-size="10.00" fill="#000000"> &lt; TensorProductPolynomials</text>
<text text-anchor="start" x="855.9063" y="-313.7154" font-family="Helvetica,sans-Serif" font-size="10.00" fill="#000000">&lt; dim, Polynomials::PiecewisePolynomial</text>
<text text-anchor="middle" x="947.7495" y="-303.7154" font-family="Helvetica,sans-Serif" font-size="10.00" fill="#000000">&lt; double &gt; &gt;, dim, spacedim &gt;</text>
</g>
<!-- Node6 -->
<g id="node7" class="node">
<title>Node6</title>
<g id="a_node7"><a xlink:href="classFE__Q.html" target="_top" xlink:title="FE_Q\&lt; dim \&gt;">
<polygon fill="#ffffff" stroke="#000000" points="1481.9238,-399.7154 1481.9238,-417.7154 1557.3916,-417.7154 1557.3916,-399.7154 1481.9238,-399.7154"/>
<text text-anchor="middle" x="1519.6577" y="-405.7154" font-family="Helvetica,sans-Serif" font-size="10.00" fill="#000000">FE_Q&lt; dim &gt;</text>
</a>
</g>
</g>
<!-- Node5&#45;&gt;Node6 -->
<g id="edge6" class="edge">
<title>Node5&#45;&gt;Node6</title>
<path fill="none" stroke="#191970" d="M1216.6386,-401.6318C1298.4145,-403.5435 1420.4336,-406.3959 1481.6894,-407.8278"/>
<polygon fill="#191970" stroke="#191970" points="1216.7027,-398.1324 1206.6236,-401.3977 1216.5391,-405.1305 1216.7027,-398.1324"/>
</g>
<!-- Node8 -->
<g id="node9" class="node">
<title>Node8</title>
<g id="a_node9"><a xlink:href="classFE__Bernstein.html" target="_top" xlink:title="FE_Bernstein\&lt; dim,\l spacedim \&gt;">
<polygon fill="#ffffff" stroke="#000000" points="1277.2139,-458.7154 1277.2139,-486.7154 1381.3096,-486.7154 1381.3096,-458.7154 1277.2139,-458.7154"/>
<text text-anchor="start" x="1285.2139" y="-474.7154" font-family="Helvetica,sans-Serif" font-size="10.00" fill="#000000">FE_Bernstein&lt; dim,</text>
<text text-anchor="middle" x="1329.2617" y="-464.7154" font-family="Helvetica,sans-Serif" font-size="10.00" fill="#000000"> spacedim &gt;</text>
</a>
</g>
</g>
<!-- Node7&#45;&gt;Node8 -->
<g id="edge8" class="edge">
<title>Node7&#45;&gt;Node8</title>
<path fill="none" stroke="#191970" d="M1216.8239,-465.782C1237.2445,-467.0412 1258.577,-468.3567 1277.1041,-469.4991"/>
<polygon fill="#191970" stroke="#191970" points="1216.7662,-462.2719 1206.5697,-465.1497 1216.3353,-469.2586 1216.7662,-462.2719"/>
</g>
<!-- Node9 -->
<g id="node10" class="node">
<title>Node9</title>
<g id="a_node10"><a xlink:href="classFE__Q.html" target="_top" xlink:title="FE_Q\&lt; dim, spacedim \&gt;">
<polygon fill="#ffffff" stroke="#000000" points="1267.3506,-421.7154 1267.3506,-439.7154 1391.1729,-439.7154 1391.1729,-421.7154 1267.3506,-421.7154"/>
<text text-anchor="middle" x="1329.2617" y="-427.7154" font-family="Helvetica,sans-Serif" font-size="10.00" fill="#000000">FE_Q&lt; dim, spacedim &gt;</text>
</a>
</g>
</g>
<!-- Node7&#45;&gt;Node9 -->
<g id="edge9" class="edge">
<title>Node7&#45;&gt;Node9</title>
<path fill="none" stroke="#191970" d="M1216.5753,-448.0873C1234.7514,-445.2852 1253.6624,-442.3699 1270.6842,-439.7458"/>
<polygon fill="#191970" stroke="#191970" points="1215.9197,-444.6469 1206.5697,-449.6298 1216.9862,-451.5652 1215.9197,-444.6469"/>
</g>
<!-- Node9&#45;&gt;Node6 -->
<g id="edge10" class="edge">
<title>Node9&#45;&gt;Node6</title>
<path fill="none" stroke="#ffa500" stroke-dasharray="5,2" d="M1401.2929,-422.3923C1428.6892,-419.2267 1458.8109,-415.7462 1481.8117,-413.0885"/>
<polygon fill="#ffa500" stroke="#ffa500" points="1400.8732,-418.9174 1391.341,-423.5422 1401.6767,-425.8712 1400.8732,-418.9174"/>
<text text-anchor="middle" x="1445.8599" y="-420.7154" font-family="Helvetica,sans-Serif" font-size="10.00" fill="#000000"> &lt; dim &gt;</text>
</g>
<!-- Node11 -->
<g id="node12" class="node">
<title>Node11</title>
<g id="a_node12"><a xlink:href="classFE__Q__Bubbles.html" target="_top" xlink:title="FE_Q_Bubbles\&lt; dim,\l spacedim \&gt;">
<polygon fill="#ffffff" stroke="#000000" points="1273.5981,-328.7154 1273.5981,-356.7154 1384.9253,-356.7154 1384.9253,-328.7154 1273.5981,-328.7154"/>
<text text-anchor="start" x="1281.5981" y="-344.7154" font-family="Helvetica,sans-Serif" font-size="10.00" fill="#000000">FE_Q_Bubbles&lt; dim,</text>
<text text-anchor="middle" x="1329.2617" y="-334.7154" font-family="Helvetica,sans-Serif" font-size="10.00" fill="#000000"> spacedim &gt;</text>
</a>
</g>
</g>
<!-- Node10&#45;&gt;Node11 -->
<g id="edge12" class="edge">
<title>Node10&#45;&gt;Node11</title>
<path fill="none" stroke="#191970" d="M1216.7773,-342.7154C1235.886,-342.7154 1255.7958,-342.7154 1273.4601,-342.7154"/>
<polygon fill="#191970" stroke="#191970" points="1216.5697,-339.2155 1206.5697,-342.7154 1216.5697,-346.2155 1216.5697,-339.2155"/>
</g>
<!-- Node13 -->
<g id="node14" class="node">
<title>Node13</title>
<g id="a_node14"><a xlink:href="classFE__Q__DG0.html" target="_top" xlink:title="FE_Q_DG0\&lt; dim, spacedim \&gt;">
<polygon fill="#ffffff" stroke="#000000" points="1254.2891,-203.7154 1254.2891,-221.7154 1404.2344,-221.7154 1404.2344,-203.7154 1254.2891,-203.7154"/>
<text text-anchor="middle" x="1329.2617" y="-209.7154" font-family="Helvetica,sans-Serif" font-size="10.00" fill="#000000">FE_Q_DG0&lt; dim, spacedim &gt;</text>
</a>
</g>
</g>
<!-- Node12&#45;&gt;Node13 -->
<g id="edge14" class="edge">
<title>Node12&#45;&gt;Node13</title>
<path fill="none" stroke="#191970" d="M1216.8446,-212.7154C1229.1913,-212.7154 1241.8709,-212.7154 1254.0617,-212.7154"/>
<polygon fill="#191970" stroke="#191970" points="1216.5697,-209.2155 1206.5697,-212.7154 1216.5697,-216.2155 1216.5697,-209.2155"/>
</g>
<!-- Node15 -->
<g id="node16" class="node">
<title>Node15</title>
<g id="a_node16"><a xlink:href="classFE__Q__iso__Q1.html" target="_top" xlink:title="FE_Q_iso_Q1\&lt; dim, spacedim \&gt;">
<polygon fill="#ffffff" stroke="#000000" points="1248.7275,-267.7154 1248.7275,-285.7154 1409.7959,-285.7154 1409.7959,-267.7154 1248.7275,-267.7154"/>
<text text-anchor="middle" x="1329.2617" y="-273.7154" font-family="Helvetica,sans-Serif" font-size="10.00" fill="#000000">FE_Q_iso_Q1&lt; dim, spacedim &gt;</text>
</a>
</g>
</g>
<!-- Node14&#45;&gt;Node15 -->
<g id="edge16" class="edge">
<title>Node14&#45;&gt;Node15</title>
<path fill="none" stroke="#191970" d="M1221.8559,-276.7154C1230.7746,-276.7154 1239.8077,-276.7154 1248.6512,-276.7154"/>
<polygon fill="#191970" stroke="#191970" points="1221.8514,-273.2155 1211.8513,-276.7154 1221.8513,-280.2155 1221.8514,-273.2155"/>
</g>
<!-- Node17 -->
<g id="node18" class="node">
<title>Node17</title>
<g id="a_node18"><a xlink:href="classFE__DGP.html" target="_top" xlink:title="FE_DGP\&lt; dim, spacedim \&gt;">
<polygon fill="#ffffff" stroke="#000000" points="1065.8032,-154.7154 1065.8032,-172.7154 1203.5171,-172.7154 1203.5171,-154.7154 1065.8032,-154.7154"/>
<text text-anchor="middle" x="1134.6602" y="-160.7154" font-family="Helvetica,sans-Serif" font-size="10.00" fill="#000000">FE_DGP&lt; dim, spacedim &gt;</text>
</a>
</g>
</g>
<!-- Node16&#45;&gt;Node17 -->
<g id="edge18" class="edge">
<title>Node16&#45;&gt;Node17</title>
<path fill="none" stroke="#191970" d="M818.0745,-167.7067C890.713,-166.7909 996.7244,-165.4544 1065.7012,-164.5848"/>
<polygon fill="#191970" stroke="#191970" points="818.0087,-164.2071 808.0537,-167.833 818.097,-171.2066 818.0087,-164.2071"/>
</g>
<!-- Node19 -->
<g id="node20" class="node">
<title>Node19</title>
<g id="a_node20"><a xlink:href="classFE__DGPMonomial.html" target="_top" xlink:title="FE_DGPMonomial\&lt; dim \&gt;">
<polygon fill="#ffffff" stroke="#000000" points="1068.3057,-112.7154 1068.3057,-130.7154 1201.0146,-130.7154 1201.0146,-112.7154 1068.3057,-112.7154"/>
<text text-anchor="middle" x="1134.6602" y="-118.7154" font-family="Helvetica,sans-Serif" font-size="10.00" fill="#000000">FE_DGPMonomial&lt; dim &gt;</text>
</a>
</g>
</g>
<!-- Node18&#45;&gt;Node19 -->
<g id="edge20" class="edge">
<title>Node18&#45;&gt;Node19</title>
<path fill="none" stroke="#191970" d="M809.6857,-121.7154C883.1255,-121.7154 996.4383,-121.7154 1068.0119,-121.7154"/>
<polygon fill="#191970" stroke="#191970" points="809.5962,-118.2155 799.5961,-121.7154 809.5961,-125.2155 809.5962,-118.2155"/>
</g>
<!-- Node21 -->
<g id="node22" class="node">
<title>Node21</title>
<g id="a_node22"><a xlink:href="classFE__Q__Hierarchical.html" target="_top" xlink:title="FE_Q_Hierarchical\&lt;\l dim \&gt;">
<polygon fill="#ffffff" stroke="#000000" points="1081.5039,-60.7154 1081.5039,-88.7154 1187.8164,-88.7154 1187.8164,-60.7154 1081.5039,-60.7154"/>
<text text-anchor="start" x="1089.5039" y="-76.7154" font-family="Helvetica,sans-Serif" font-size="10.00" fill="#000000">FE_Q_Hierarchical&lt;</text>
<text text-anchor="middle" x="1134.6602" y="-66.7154" font-family="Helvetica,sans-Serif" font-size="10.00" fill="#000000"> dim &gt;</text>
</a>
</g>
</g>
<!-- Node20&#45;&gt;Node21 -->
<g id="edge22" class="edge">
<title>Node20&#45;&gt;Node21</title>
<path fill="none" stroke="#191970" d="M838.7886,-74.7154C916.0042,-74.7154 1019.5102,-74.7154 1081.4053,-74.7154"/>
<polygon fill="#191970" stroke="#191970" points="838.5533,-71.2155 828.5533,-74.7154 838.5532,-78.2155 838.5533,-71.2155"/>
</g>
<!-- Node22&#45;&gt;Node5 -->
<g id="edge28" class="edge">
<title>Node22&#45;&gt;Node5</title>
<path fill="none" stroke="#191970" d="M838.9123,-497.1205C920.1462,-493.3858 1023.4121,-486.4132 1039.5928,-474.7154 1056.051,-462.817 1043.2301,-447.0736 1057.5928,-432.7154 1063.0483,-427.2616 1069.5481,-422.6516 1076.426,-418.7698"/>
<polygon fill="#191970" stroke="#191970" points="838.4519,-493.6376 828.6187,-497.5821 838.7655,-500.6305 838.4519,-493.6376"/>
</g>
<!-- Node22&#45;&gt;Node7 -->
<g id="edge29" class="edge">
<title>Node22&#45;&gt;Node7</title>
<path fill="none" stroke="#191970" d="M838.7616,-509.9777C897.8276,-513.037 973.5839,-512.8425 1039.5928,-499.7154 1059.5393,-495.7487 1080.5731,-487.581 1097.7704,-479.7404"/>
<polygon fill="#191970" stroke="#191970" points="838.8625,-506.478 828.6832,-509.4159 838.4729,-513.4671 838.8625,-506.478"/>
</g>
<!-- Node23 -->
<g id="node24" class="node">
<title>Node23</title>
<g id="a_node24"><a xlink:href="classFE__DGQ.html" target="_top" xlink:title="FE_DGQ\&lt; dim, spacedim \&gt;">
<polygon fill="#ffffff" stroke="#000000" points="1065.249,-548.7154 1065.249,-566.7154 1204.0713,-566.7154 1204.0713,-548.7154 1065.249,-548.7154"/>
<text text-anchor="middle" x="1134.6602" y="-554.7154" font-family="Helvetica,sans-Serif" font-size="10.00" fill="#000000">FE_DGQ&lt; dim, spacedim &gt;</text>
</a>
</g>
</g>
<!-- Node22&#45;&gt;Node23 -->
<g id="edge24" class="edge">
<title>Node22&#45;&gt;Node23</title>
<path fill="none" stroke="#191970" d="M838.4254,-516.1326C844.3389,-517.0139 850.1996,-517.8804 855.9063,-518.7154 928.554,-529.3453 1011.9476,-540.9318 1068.4485,-548.6903"/>
<polygon fill="#191970" stroke="#191970" points="838.8493,-512.6572 828.4414,-514.6386 837.8132,-519.5801 838.8493,-512.6572"/>
</g>
<!-- Node24 -->
<g id="node25" class="node">
<title>Node24</title>
<g id="a_node25"><a xlink:href="classFE__DGQArbitraryNodes.html" target="_top" xlink:title="FE_DGQArbitraryNodes\l\&lt; dim, spacedim \&gt;">
<polygon fill="#ffffff" stroke="#000000" points="1267.3579,-599.7154 1267.3579,-627.7154 1391.1655,-627.7154 1391.1655,-599.7154 1267.3579,-599.7154"/>
<text text-anchor="start" x="1275.3579" y="-615.7154" font-family="Helvetica,sans-Serif" font-size="10.00" fill="#000000">FE_DGQArbitraryNodes</text>
<text text-anchor="middle" x="1329.2617" y="-605.7154" font-family="Helvetica,sans-Serif" font-size="10.00" fill="#000000">&lt; dim, spacedim &gt;</text>
</a>
</g>
</g>
<!-- Node23&#45;&gt;Node24 -->
<g id="edge25" class="edge">
<title>Node23&#45;&gt;Node24</title>
<path fill="none" stroke="#191970" d="M1175.9806,-569.7065C1197.6393,-575.9824 1224.6104,-583.783 1248.7275,-590.7154 1258.7894,-593.6077 1269.5618,-596.6923 1279.8492,-599.6325"/>
<polygon fill="#191970" stroke="#191970" points="1176.7015,-566.2714 1166.1224,-566.8489 1174.7526,-572.9947 1176.7015,-566.2714"/>
</g>
<!-- Node25 -->
<g id="node26" class="node">
<title>Node25</title>
<g id="a_node26"><a xlink:href="classFE__DGQHermite.html" target="_top" xlink:title="FE_DGQHermite\&lt; dim,\l spacedim \&gt;">
<polygon fill="#ffffff" stroke="#000000" points="1269.4453,-552.7154 1269.4453,-580.7154 1389.0781,-580.7154 1389.0781,-552.7154 1269.4453,-552.7154"/>
<text text-anchor="start" x="1277.4453" y="-568.7154" font-family="Helvetica,sans-Serif" font-size="10.00" fill="#000000">FE_DGQHermite&lt; dim,</text>
<text text-anchor="middle" x="1329.2617" y="-558.7154" font-family="Helvetica,sans-Serif" font-size="10.00" fill="#000000"> spacedim &gt;</text>
</a>
</g>
</g>
<!-- Node23&#45;&gt;Node25 -->
<g id="edge26" class="edge">
<title>Node23&#45;&gt;Node25</title>
<path fill="none" stroke="#191970" d="M1214.1939,-561.3937C1232.5714,-562.2436 1251.8242,-563.1341 1269.2086,-563.9381"/>
<polygon fill="#191970" stroke="#191970" points="1214.2427,-557.8923 1204.0916,-560.9265 1213.9192,-564.8848 1214.2427,-557.8923"/>
</g>
<!-- Node26 -->
<g id="node27" class="node">
<title>Node26</title>
<g id="a_node27"><a xlink:href="classFE__DGQLegendre.html" target="_top" xlink:title="FE_DGQLegendre\&lt; dim,\l spacedim \&gt;">
<polygon fill="#ffffff" stroke="#000000" points="1265.8174,-505.7154 1265.8174,-533.7154 1392.7061,-533.7154 1392.7061,-505.7154 1265.8174,-505.7154"/>
<text text-anchor="start" x="1273.8174" y="-521.7154" font-family="Helvetica,sans-Serif" font-size="10.00" fill="#000000">FE_DGQLegendre&lt; dim,</text>
<text text-anchor="middle" x="1329.2617" y="-511.7154" font-family="Helvetica,sans-Serif" font-size="10.00" fill="#000000"> spacedim &gt;</text>
</a>
</g>
</g>
<!-- Node23&#45;&gt;Node26 -->
<g id="edge27" class="edge">
<title>Node23&#45;&gt;Node26</title>
<path fill="none" stroke="#191970" d="M1190.9026,-546.7329C1214.3358,-542.1571 1241.6599,-536.8215 1265.807,-532.1063"/>
<polygon fill="#191970" stroke="#191970" points="1189.9218,-543.3582 1180.778,-548.7099 1191.2634,-550.2285 1189.9218,-543.3582"/>
</g>
<!-- Node28 -->
<g id="node29" class="node">
<title>Node28</title>
<g id="a_node29"><a xlink:href="classFE__RannacherTurek.html" target="_top" xlink:title="FE_RannacherTurek\&lt;\l dim \&gt;">
<polygon fill="#ffffff" stroke="#000000" points="1077.5122,-13.7154 1077.5122,-41.7154 1191.8081,-41.7154 1191.8081,-13.7154 1077.5122,-13.7154"/>
<text text-anchor="start" x="1085.5122" y="-29.7154" font-family="Helvetica,sans-Serif" font-size="10.00" fill="#000000">FE_RannacherTurek&lt;</text>
<text text-anchor="middle" x="1134.6602" y="-19.7154" font-family="Helvetica,sans-Serif" font-size="10.00" fill="#000000"> dim &gt;</text>
</a>
</g>
</g>
<!-- Node27&#45;&gt;Node28 -->
<g id="edge31" class="edge">
<title>Node27&#45;&gt;Node28</title>
<path fill="none" stroke="#191970" d="M830.8166,-27.7154C907.1454,-27.7154 1012.918,-27.7154 1077.4147,-27.7154"/>
<polygon fill="#191970" stroke="#191970" points="830.72,-24.2155 820.72,-27.7154 830.72,-31.2155 830.72,-24.2155"/>
</g>
<!-- Node29&#45;&gt;Node10 -->
<g id="edge33" class="edge">
<title>Node29&#45;&gt;Node10</title>
<path fill="none" stroke="#191970" d="M838.9727,-416.5144C913.3214,-423.1657 1006.9427,-426.6388 1039.5928,-406.7154 1054.5245,-397.6039 1044.533,-383.3523 1057.5928,-371.7154 1061.7554,-368.0064 1066.4383,-364.7544 1071.3864,-361.9062"/>
<polygon fill="#191970" stroke="#191970" points="838.8979,-412.9926 828.6181,-415.5569 838.2533,-419.9629 838.8979,-412.9926"/>
</g>
<!-- Node30&#45;&gt;Node12 -->
<g id="edge35" class="edge">
<title>Node30&#45;&gt;Node12</title>
<path fill="none" stroke="#191970" d="M839.0091,-203.8451C844.7205,-203.4024 850.3829,-203.0191 855.9063,-202.7154 937.4215,-198.2328 958.0664,-198.4394 1039.5928,-202.7154 1047.1335,-203.1109 1054.9969,-203.6817 1062.83,-204.353"/>
<polygon fill="#191970" stroke="#191970" points="838.3711,-200.3859 828.6952,-204.7018 838.9507,-207.3619 838.3711,-200.3859"/>
</g>
<!-- Node31&#45;&gt;Node14 -->
<g id="edge37" class="edge">
<title>Node31&#45;&gt;Node14</title>
<path fill="none" stroke="#191970" d="M825.169,-245.0843C829.5232,-243.3947 833.7924,-241.6057 837.9063,-239.7154 846.6429,-235.7011 846.704,-230.5016 855.9063,-227.7154 934.0418,-204.0579 962.3731,-201.2208 1039.5928,-227.7154 1049.1791,-231.0046 1048.9192,-236.4728 1057.5928,-241.7154 1063.8808,-245.5161 1070.6525,-249.1673 1077.479,-252.5824"/>
<polygon fill="#191970" stroke="#191970" points="823.7088,-241.8919 815.5283,-248.6246 826.1219,-248.4629 823.7088,-241.8919"/>
</g>
</g>
</svg>
