<?xml version="1.0" encoding="UTF-8" standalone="no"?>
<!DOCTYPE svg PUBLIC "-//W3C//DTD SVG 1.1//EN"
 "http://www.w3.org/Graphics/SVG/1.1/DTD/svg11.dtd">
<!-- Generated by graphviz version 2.40.1 (20161225.0304)
 -->
<!-- Title: PreconditionBlock&lt; MatrixType, inverse_type &gt; Pages: 1 -->
<svg width="824pt" height="104pt"
 viewBox="0.00 0.00 824.20 104.00" xmlns="http://www.w3.org/2000/svg" xmlns:xlink="http://www.w3.org/1999/xlink">
<g id="graph0" class="graph" transform="scale(1 1) rotate(0) translate(4 100)">
<title>PreconditionBlock&lt; MatrixType, inverse_type &gt;</title>
<polygon fill="#ffffff" stroke="transparent" points="-4,4 -4,-100 820.1992,-100 820.1992,4 -4,4"/>
<!-- Node0 -->
<g id="node1" class="node">
<title>Node0</title>
<polygon fill="#bfbfbf" stroke="#000000" points="387.3877,-28.5 387.3877,-66.5 492.8652,-66.5 492.8652,-28.5 387.3877,-28.5"/>
<text text-anchor="start" x="395.3877" y="-54.5" font-family="Helvetica,sans-Serif" font-size="10.00" fill="#000000">PreconditionBlock&lt;</text>
<text text-anchor="start" x="395.3877" y="-44.5" font-family="Helvetica,sans-Serif" font-size="10.00" fill="#000000"> MatrixType, inverse</text>
<text text-anchor="middle" x="440.1265" y="-34.5" font-family="Helvetica,sans-Serif" font-size="10.00" fill="#000000">_type &gt;</text>
</g>
<!-- Node4 -->
<g id="node5" class="node">
<title>Node4</title>
<g id="a_node5"><a xlink:href="classPreconditionBlockJacobi.html" target="_top" xlink:title="PreconditionBlockJacobi\l\&lt; MatrixType, inverse\l_type \&gt;">
<polygon fill="#ffffff" stroke="#000000" points="529.8652,-57.5 529.8652,-95.5 654.8154,-95.5 654.8154,-57.5 529.8652,-57.5"/>
<text text-anchor="start" x="537.8652" y="-83.5" font-family="Helvetica,sans-Serif" font-size="10.00" fill="#000000">PreconditionBlockJacobi</text>
<text text-anchor="start" x="537.8652" y="-73.5" font-family="Helvetica,sans-Serif" font-size="10.00" fill="#000000">&lt; MatrixType, inverse</text>
<text text-anchor="middle" x="592.3403" y="-63.5" font-family="Helvetica,sans-Serif" font-size="10.00" fill="#000000">_type &gt;</text>
</a>
</g>
</g>
<!-- Node0&#45;&gt;Node4 -->
<g id="edge4" class="edge">
<title>Node0&#45;&gt;Node4</title>
<path fill="none" stroke="#8b1a1a" d="M502.8168,-59.4438C511.6862,-61.1337 520.8067,-62.8713 529.6757,-64.5611"/>
<polygon fill="#8b1a1a" stroke="#8b1a1a" points="503.4147,-55.9949 492.9363,-57.5614 502.1045,-62.8712 503.4147,-55.9949"/>
</g>
<!-- Node5 -->
<g id="node6" class="node">
<title>Node5</title>
<g id="a_node6"><a xlink:href="classPreconditionBlockSOR.html" target="_top" xlink:title="PreconditionBlockSOR\l\&lt; MatrixType, inverse\l_type \&gt;">
<polygon fill="#ffffff" stroke="#000000" points="533.4834,-.5 533.4834,-38.5 651.1973,-38.5 651.1973,-.5 533.4834,-.5"/>
<text text-anchor="start" x="541.4834" y="-26.5" font-family="Helvetica,sans-Serif" font-size="10.00" fill="#000000">PreconditionBlockSOR</text>
<text text-anchor="start" x="541.4834" y="-16.5" font-family="Helvetica,sans-Serif" font-size="10.00" fill="#000000">&lt; MatrixType, inverse</text>
<text text-anchor="middle" x="592.3403" y="-6.5" font-family="Helvetica,sans-Serif" font-size="10.00" fill="#000000">_type &gt;</text>
</a>
</g>
</g>
<!-- Node0&#45;&gt;Node5 -->
<g id="edge5" class="edge">
<title>Node0&#45;&gt;Node5</title>
<path fill="none" stroke="#006400" d="M502.8873,-35.955C512.9732,-34.0997 523.3819,-32.185 533.3748,-30.3468"/>
<polygon fill="#006400" stroke="#006400" points="502.1381,-32.5341 492.9363,-37.7855 503.4045,-39.4185 502.1381,-32.5341"/>
</g>
<!-- Node1 -->
<g id="node2" class="node">
<title>Node1</title>
<g id="a_node2"><a xlink:href="classSubscriptor.html" target="_top" xlink:title="Subscriptor">
<polygon fill="#ffffff" stroke="#000000" points="257.6812,-59.5 257.6812,-77.5 324.2573,-77.5 324.2573,-59.5 257.6812,-59.5"/>
<text text-anchor="middle" x="290.9692" y="-65.5" font-family="Helvetica,sans-Serif" font-size="10.00" fill="#000000">Subscriptor</text>
</a>
</g>
</g>
<!-- Node1&#45;&gt;Node0 -->
<g id="edge1" class="edge">
<title>Node1&#45;&gt;Node0</title>
<path fill="none" stroke="#191970" d="M334.3609,-62.3908C350.8655,-60.0671 369.8556,-57.3935 387.1496,-54.9587"/>
<polygon fill="#191970" stroke="#191970" points="333.8574,-58.9271 324.443,-63.7872 334.8334,-65.8588 333.8574,-58.9271"/>
</g>
<!-- Node2 -->
<g id="node3" class="node">
<title>Node2</title>
<g id="a_node3"><a xlink:href="classPreconditionBlockBase.html" target="_top" xlink:title="PreconditionBlockBase\l\&lt; inverse_type \&gt;">
<polygon fill="#ffffff" stroke="#000000" points="231.5508,-12.5 231.5508,-40.5 350.3877,-40.5 350.3877,-12.5 231.5508,-12.5"/>
<text text-anchor="start" x="239.5508" y="-28.5" font-family="Helvetica,sans-Serif" font-size="10.00" fill="#000000">PreconditionBlockBase</text>
<text text-anchor="middle" x="290.9692" y="-18.5" font-family="Helvetica,sans-Serif" font-size="10.00" fill="#000000">&lt; inverse_type &gt;</text>
</a>
</g>
</g>
<!-- Node2&#45;&gt;Node0 -->
<g id="edge2" class="edge">
<title>Node2&#45;&gt;Node0</title>
<path fill="none" stroke="#006400" d="M360.7099,-36.3189C369.5649,-37.5656 378.5114,-38.8251 387.047,-40.0269"/>
<polygon fill="#006400" stroke="#006400" points="361.1681,-32.8489 350.7778,-34.9205 360.1921,-39.7806 361.1681,-32.8489"/>
</g>
<!-- Node3 -->
<g id="node4" class="node">
<title>Node3</title>
<g id="a_node4"><a xlink:href="classPreconditionBlockBase.html" target="_top" xlink:title="PreconditionBlockBase\l\&lt; number \&gt;">
<polygon fill="#ffffff" stroke="#000000" points="0,-12.5 0,-40.5 118.8369,-40.5 118.8369,-12.5 0,-12.5"/>
<text text-anchor="start" x="8" y="-28.5" font-family="Helvetica,sans-Serif" font-size="10.00" fill="#000000">PreconditionBlockBase</text>
<text text-anchor="middle" x="59.4185" y="-18.5" font-family="Helvetica,sans-Serif" font-size="10.00" fill="#000000">&lt; number &gt;</text>
</a>
</g>
</g>
<!-- Node3&#45;&gt;Node2 -->
<g id="edge3" class="edge">
<title>Node3&#45;&gt;Node2</title>
<path fill="none" stroke="#ffa500" stroke-dasharray="5,2" d="M129.4126,-26.5C162.0091,-26.5 200.377,-26.5 231.5412,-26.5"/>
<polygon fill="#ffa500" stroke="#ffa500" points="129.0486,-23.0001 119.0485,-26.5 129.0485,-30.0001 129.0486,-23.0001"/>
<text text-anchor="middle" x="175.1938" y="-28.5" font-family="Helvetica,sans-Serif" font-size="10.00" fill="#000000"> &lt; inverse_type &gt;</text>
</g>
<!-- Node6 -->
<g id="node7" class="node">
<title>Node6</title>
<g id="a_node7"><a xlink:href="classPreconditionBlockSSOR.html" target="_top" xlink:title="PreconditionBlockSSOR\l\&lt; MatrixType, inverse\l_type \&gt;">
<polygon fill="#ffffff" stroke="#000000" points="691.8154,-.5 691.8154,-38.5 816.1992,-38.5 816.1992,-.5 691.8154,-.5"/>
<text text-anchor="start" x="699.8154" y="-26.5" font-family="Helvetica,sans-Serif" font-size="10.00" fill="#000000">PreconditionBlockSSOR</text>
<text text-anchor="start" x="699.8154" y="-16.5" font-family="Helvetica,sans-Serif" font-size="10.00" fill="#000000">&lt; MatrixType, inverse</text>
<text text-anchor="middle" x="754.0073" y="-6.5" font-family="Helvetica,sans-Serif" font-size="10.00" fill="#000000">_type &gt;</text>
</a>
</g>
</g>
<!-- Node5&#45;&gt;Node6 -->
<g id="edge6" class="edge">
<title>Node5&#45;&gt;Node6</title>
<path fill="none" stroke="#8b1a1a" d="M661.8634,-19.5C671.7974,-19.5 681.9638,-19.5 691.7465,-19.5"/>
<polygon fill="#8b1a1a" stroke="#8b1a1a" points="661.6212,-16.0001 651.6212,-19.5 661.6211,-23.0001 661.6212,-16.0001"/>
</g>
</g>
</svg>
