<?xml version="1.0" encoding="UTF-8" standalone="no"?>
<!DOCTYPE svg PUBLIC "-//W3C//DTD SVG 1.1//EN"
 "http://www.w3.org/Graphics/SVG/1.1/DTD/svg11.dtd">
<!-- Generated by graphviz version 2.40.1 (20161225.0304)
 -->
<!-- Title: FE_DGBDM&lt; dim, spacedim &gt; Pages: 1 -->
<svg width="1229pt" height="99pt"
 viewBox="0.00 0.00 1228.77 99.00" xmlns="http://www.w3.org/2000/svg" xmlns:xlink="http://www.w3.org/1999/xlink">
<g id="graph0" class="graph" transform="scale(1 1) rotate(0) translate(4 95)">
<title>FE_DGBDM&lt; dim, spacedim &gt;</title>
<polygon fill="#ffffff" stroke="transparent" points="-4,4 -4,-95 1224.7725,-95 1224.7725,4 -4,4"/>
<!-- Node0 -->
<g id="node1" class="node">
<title>Node0</title>
<polygon fill="#bfbfbf" stroke="#000000" points="1067.5068,-28.5 1067.5068,-46.5 1220.7725,-46.5 1220.7725,-28.5 1067.5068,-28.5"/>
<text text-anchor="middle" x="1144.1396" y="-34.5" font-family="Helvetica,sans-Serif" font-size="10.00" fill="#000000">FE_DGBDM&lt; dim, spacedim &gt;</text>
</g>
<!-- Node1 -->
<g id="node2" class="node">
<title>Node1</title>
<g id="a_node2"><a xlink:href="classFE__DGVector.html" target="_top" xlink:title="FE_DGVector\&lt; Polynomials\lBDM\&lt; dim \&gt;, dim, spacedim \&gt;">
<polygon fill="#ffffff" stroke="#000000" points="880.293,-23.5 880.293,-51.5 1030.5068,-51.5 1030.5068,-23.5 880.293,-23.5"/>
<text text-anchor="start" x="888.293" y="-39.5" font-family="Helvetica,sans-Serif" font-size="10.00" fill="#000000">FE_DGVector&lt; Polynomials</text>
<text text-anchor="middle" x="955.3999" y="-29.5" font-family="Helvetica,sans-Serif" font-size="10.00" fill="#000000">BDM&lt; dim &gt;, dim, spacedim &gt;</text>
</a>
</g>
</g>
<!-- Node1&#45;&gt;Node0 -->
<g id="edge1" class="edge">
<title>Node1&#45;&gt;Node0</title>
<path fill="none" stroke="#191970" d="M1040.5698,-37.5C1049.5131,-37.5 1058.5677,-37.5 1067.4081,-37.5"/>
<polygon fill="#191970" stroke="#191970" points="1040.5372,-34.0001 1030.5372,-37.5 1040.5371,-41.0001 1040.5372,-34.0001"/>
</g>
<!-- Node2 -->
<g id="node3" class="node">
<title>Node2</title>
<g id="a_node3"><a xlink:href="classFE__PolyTensor.html" target="_top" xlink:title="FE_PolyTensor\&lt; Polynomials\lBDM\&lt; dim \&gt;, dim, spacedim \&gt;">
<polygon fill="#ffffff" stroke="#000000" points="577.082,-47.5 577.082,-75.5 727.2959,-75.5 727.2959,-47.5 577.082,-47.5"/>
<text text-anchor="start" x="585.082" y="-63.5" font-family="Helvetica,sans-Serif" font-size="10.00" fill="#000000">FE_PolyTensor&lt; Polynomials</text>
<text text-anchor="middle" x="652.189" y="-53.5" font-family="Helvetica,sans-Serif" font-size="10.00" fill="#000000">BDM&lt; dim &gt;, dim, spacedim &gt;</text>
</a>
</g>
</g>
<!-- Node2&#45;&gt;Node1 -->
<g id="edge2" class="edge">
<title>Node2&#45;&gt;Node1</title>
<path fill="none" stroke="#191970" d="M737.5356,-54.7446C782.405,-51.193 836.9143,-46.8785 880.1845,-43.4535"/>
<polygon fill="#191970" stroke="#191970" points="737.2222,-51.2583 727.5296,-55.5366 737.7746,-58.2365 737.2222,-51.2583"/>
</g>
<!-- Node3 -->
<g id="node4" class="node">
<title>Node3</title>
<g id="a_node4"><a xlink:href="classFiniteElement.html" target="_top" xlink:title="FiniteElement\&lt; dim,\l spacedim \&gt;">
<polygon fill="#ffffff" stroke="#000000" points="141.1006,-46.5 141.1006,-74.5 245.748,-74.5 245.748,-46.5 141.1006,-46.5"/>
<text text-anchor="start" x="149.1006" y="-62.5" font-family="Helvetica,sans-Serif" font-size="10.00" fill="#000000">FiniteElement&lt; dim,</text>
<text text-anchor="middle" x="193.4243" y="-52.5" font-family="Helvetica,sans-Serif" font-size="10.00" fill="#000000"> spacedim &gt;</text>
</a>
</g>
</g>
<!-- Node3&#45;&gt;Node2 -->
<g id="edge3" class="edge">
<title>Node3&#45;&gt;Node2</title>
<path fill="none" stroke="#191970" d="M256.0798,-65.1281C258.6695,-65.2646 261.2337,-65.3895 263.748,-65.5 392.785,-71.1684 425.2667,-73.1115 554.3457,-68.5 561.664,-68.2385 569.2843,-67.8674 576.8986,-67.4309"/>
<polygon fill="#191970" stroke="#191970" points="256.1994,-61.6293 246.0155,-64.5515 255.7989,-68.6179 256.1994,-61.6293"/>
</g>
<!-- Node6 -->
<g id="node7" class="node">
<title>Node6</title>
<g id="a_node7"><a xlink:href="classFE__PolyTensor.html" target="_top" xlink:title="FE_PolyTensor\&lt; Polynomial\lType, dim, spacedim \&gt;">
<polygon fill="#ffffff" stroke="#000000" points="282.748,-25.5 282.748,-53.5 424.085,-53.5 424.085,-25.5 282.748,-25.5"/>
<text text-anchor="start" x="290.748" y="-41.5" font-family="Helvetica,sans-Serif" font-size="10.00" fill="#000000">FE_PolyTensor&lt; Polynomial</text>
<text text-anchor="middle" x="353.4165" y="-31.5" font-family="Helvetica,sans-Serif" font-size="10.00" fill="#000000">Type, dim, spacedim &gt;</text>
</a>
</g>
</g>
<!-- Node3&#45;&gt;Node6 -->
<g id="edge7" class="edge">
<title>Node3&#45;&gt;Node6</title>
<path fill="none" stroke="#191970" d="M255.9195,-52.2971C264.6675,-51.1489 273.7091,-49.9621 282.5975,-48.7954"/>
<polygon fill="#191970" stroke="#191970" points="255.2712,-48.8521 245.8117,-53.6238 256.1822,-55.7926 255.2712,-48.8521"/>
</g>
<!-- Node4 -->
<g id="node5" class="node">
<title>Node4</title>
<g id="a_node5"><a xlink:href="classSubscriptor.html" target="_top" xlink:title="Subscriptor">
<polygon fill="#ffffff" stroke="#000000" points="18.7622,-72.5 18.7622,-90.5 85.3384,-90.5 85.3384,-72.5 18.7622,-72.5"/>
<text text-anchor="middle" x="52.0503" y="-78.5" font-family="Helvetica,sans-Serif" font-size="10.00" fill="#000000">Subscriptor</text>
</a>
</g>
</g>
<!-- Node4&#45;&gt;Node3 -->
<g id="edge4" class="edge">
<title>Node4&#45;&gt;Node3</title>
<path fill="none" stroke="#191970" d="M95.6606,-75.022C110.0246,-72.8884 126.1458,-70.4937 141.091,-68.2737"/>
<polygon fill="#191970" stroke="#191970" points="94.9311,-71.5919 85.554,-76.5233 95.9597,-78.5159 94.9311,-71.5919"/>
</g>
<!-- Node5 -->
<g id="node6" class="node">
<title>Node5</title>
<g id="a_node6"><a xlink:href="classFiniteElementData.html" target="_top" xlink:title="FiniteElementData\&lt;\l dim \&gt;">
<polygon fill="#ffffff" stroke="#000000" points="0,-25.5 0,-53.5 104.1006,-53.5 104.1006,-25.5 0,-25.5"/>
<text text-anchor="start" x="8" y="-41.5" font-family="Helvetica,sans-Serif" font-size="10.00" fill="#000000">FiniteElementData&lt;</text>
<text text-anchor="middle" x="52.0503" y="-31.5" font-family="Helvetica,sans-Serif" font-size="10.00" fill="#000000"> dim &gt;</text>
</a>
</g>
</g>
<!-- Node5&#45;&gt;Node3 -->
<g id="edge5" class="edge">
<title>Node5&#45;&gt;Node3</title>
<path fill="none" stroke="#191970" d="M114.2377,-48.7374C123.1434,-50.0603 132.2318,-51.4103 140.9263,-52.7018"/>
<polygon fill="#191970" stroke="#191970" points="114.6968,-45.2673 104.2911,-47.26 113.6683,-52.1914 114.6968,-45.2673"/>
</g>
<!-- Node6&#45;&gt;Node2 -->
<g id="edge6" class="edge">
<title>Node6&#45;&gt;Node2</title>
<path fill="none" stroke="#ffa500" stroke-dasharray="5,2" d="M434.3346,-41.5134C471.0208,-42.8404 514.9224,-45.0048 554.3457,-48.5 561.6854,-49.1507 569.3199,-49.9496 576.9431,-50.8285"/>
<polygon fill="#ffa500" stroke="#ffa500" points="434.3037,-38.0103 424.1882,-41.161 434.0606,-45.0061 434.3037,-38.0103"/>
<text text-anchor="start" x="442.085" y="-60.5" font-family="Helvetica,sans-Serif" font-size="10.00" fill="#000000"> &lt; PolynomialsBDM&lt; dim</text>
<text text-anchor="middle" x="498.2153" y="-50.5" font-family="Helvetica,sans-Serif" font-size="10.00" fill="#000000"> &gt;, dim, spacedim &gt;</text>
</g>
<!-- Node7 -->
<g id="node8" class="node">
<title>Node7</title>
<g id="a_node8"><a xlink:href="classFE__DGVector.html" target="_top" xlink:title="FE_DGVector\&lt; PolynomialType,\l dim, spacedim \&gt;">
<polygon fill="#ffffff" stroke="#000000" points="572.3457,-.5 572.3457,-28.5 732.0322,-28.5 732.0322,-.5 572.3457,-.5"/>
<text text-anchor="start" x="580.3457" y="-16.5" font-family="Helvetica,sans-Serif" font-size="10.00" fill="#000000">FE_DGVector&lt; PolynomialType,</text>
<text text-anchor="middle" x="652.189" y="-6.5" font-family="Helvetica,sans-Serif" font-size="10.00" fill="#000000"> dim, spacedim &gt;</text>
</a>
</g>
</g>
<!-- Node6&#45;&gt;Node7 -->
<g id="edge9" class="edge">
<title>Node6&#45;&gt;Node7</title>
<path fill="none" stroke="#191970" d="M434.3194,-32.7304C477.114,-29.1495 529.4776,-24.768 572.1434,-21.1979"/>
<polygon fill="#191970" stroke="#191970" points="433.8947,-29.2536 424.2214,-33.5753 434.4785,-36.2292 433.8947,-29.2536"/>
</g>
<!-- Node7&#45;&gt;Node1 -->
<g id="edge8" class="edge">
<title>Node7&#45;&gt;Node1</title>
<path fill="none" stroke="#ffa500" stroke-dasharray="5,2" d="M742.4339,-16.9901C779.6085,-18.485 823.076,-20.8366 862.293,-24.5 868.1431,-25.0465 874.1892,-25.6964 880.2603,-26.4097"/>
<polygon fill="#ffa500" stroke="#ffa500" points="742.2524,-13.4806 732.1244,-16.5909 741.9814,-20.4753 742.2524,-13.4806"/>
<text text-anchor="start" x="750.0322" y="-36.5" font-family="Helvetica,sans-Serif" font-size="10.00" fill="#000000"> &lt; PolynomialsBDM&lt; dim</text>
<text text-anchor="middle" x="806.1626" y="-26.5" font-family="Helvetica,sans-Serif" font-size="10.00" fill="#000000"> &gt;, dim, spacedim &gt;</text>
</g>
</g>
</svg>
