<?xml version="1.0" encoding="UTF-8" standalone="no"?>
<!DOCTYPE svg PUBLIC "-//W3C//DTD SVG 1.1//EN"
 "http://www.w3.org/Graphics/SVG/1.1/DTD/svg11.dtd">
<!-- Generated by graphviz version 2.40.1 (20161225.0304)
 -->
<!-- Title: FE_TraceQ&lt; 1, spacedim &gt; Pages: 1 -->
<svg width="214pt" height="280pt"
 viewBox="0.00 0.00 214.20 280.00" xmlns="http://www.w3.org/2000/svg" xmlns:xlink="http://www.w3.org/1999/xlink">
<g id="graph0" class="graph" transform="scale(1 1) rotate(0) translate(4 276)">
<title>FE_TraceQ&lt; 1, spacedim &gt;</title>
<polygon fill="#ffffff" stroke="transparent" points="-4,4 -4,-276 210.1953,-276 210.1953,4 -4,4"/>
<!-- Node0 -->
<g id="node1" class="node">
<title>Node0</title>
<polygon fill="#bfbfbf" stroke="#000000" points="4.9121,-.5 4.9121,-18.5 143.3779,-18.5 143.3779,-.5 4.9121,-.5"/>
<text text-anchor="middle" x="74.145" y="-6.5" font-family="Helvetica,sans-Serif" font-size="10.00" fill="#000000">FE_TraceQ&lt; 1, spacedim &gt;</text>
</g>
<!-- Node1 -->
<g id="node2" class="node">
<title>Node1</title>
<g id="a_node2"><a xlink:href="classFE__FaceQ_3_011_00_01spacedim_01_4.html" target="_top" xlink:title="FE_FaceQ\&lt; 1, spacedim \&gt;">
<polygon fill="#ffffff" stroke="#000000" points="6.394,-56.5 6.394,-74.5 141.896,-74.5 141.896,-56.5 6.394,-56.5"/>
<text text-anchor="middle" x="74.145" y="-62.5" font-family="Helvetica,sans-Serif" font-size="10.00" fill="#000000">FE_FaceQ&lt; 1, spacedim &gt;</text>
</a>
</g>
</g>
<!-- Node1&#45;&gt;Node0 -->
<g id="edge1" class="edge">
<title>Node1&#45;&gt;Node0</title>
<path fill="none" stroke="#191970" d="M74.145,-46.2065C74.145,-36.8384 74.145,-26.0262 74.145,-18.5752"/>
<polygon fill="#191970" stroke="#191970" points="70.6451,-46.2527 74.145,-56.2527 77.6451,-46.2528 70.6451,-46.2527"/>
</g>
<!-- Node2 -->
<g id="node3" class="node">
<title>Node2</title>
<g id="a_node3"><a xlink:href="classFiniteElement.html" target="_top" xlink:title="FiniteElement\&lt; 1, spacedim \&gt;">
<polygon fill="#ffffff" stroke="#000000" points="0,-112.5 0,-130.5 148.29,-130.5 148.29,-112.5 0,-112.5"/>
<text text-anchor="middle" x="74.145" y="-118.5" font-family="Helvetica,sans-Serif" font-size="10.00" fill="#000000">FiniteElement&lt; 1, spacedim &gt;</text>
</a>
</g>
</g>
<!-- Node2&#45;&gt;Node1 -->
<g id="edge2" class="edge">
<title>Node2&#45;&gt;Node1</title>
<path fill="none" stroke="#191970" d="M74.145,-102.2065C74.145,-92.8384 74.145,-82.0262 74.145,-74.5752"/>
<polygon fill="#191970" stroke="#191970" points="70.6451,-102.2527 74.145,-112.2527 77.6451,-102.2528 70.6451,-102.2527"/>
</g>
<!-- Node3 -->
<g id="node4" class="node">
<title>Node3</title>
<g id="a_node4"><a xlink:href="classSubscriptor.html" target="_top" xlink:title="Subscriptor">
<polygon fill="#ffffff" stroke="#000000" points="7.8569,-248.5 7.8569,-266.5 74.4331,-266.5 74.4331,-248.5 7.8569,-248.5"/>
<text text-anchor="middle" x="41.145" y="-254.5" font-family="Helvetica,sans-Serif" font-size="10.00" fill="#000000">Subscriptor</text>
</a>
</g>
</g>
<!-- Node3&#45;&gt;Node2 -->
<g id="edge3" class="edge">
<title>Node3&#45;&gt;Node2</title>
<path fill="none" stroke="#191970" d="M30.6331,-239.1496C22.5463,-222.5295 14.0143,-197.5698 22.145,-177 29.911,-157.353 48.282,-140.585 60.9682,-130.772"/>
<polygon fill="#191970" stroke="#191970" points="27.6999,-241.091 35.4579,-248.3065 33.8928,-237.8279 27.6999,-241.091"/>
</g>
<!-- Node5 -->
<g id="node6" class="node">
<title>Node5</title>
<g id="a_node6"><a xlink:href="classFiniteElement.html" target="_top" xlink:title="FiniteElement\&lt; dim,\l spacedim \&gt;">
<polygon fill="#ffffff" stroke="#000000" points="30.8213,-177.5 30.8213,-205.5 135.4688,-205.5 135.4688,-177.5 30.8213,-177.5"/>
<text text-anchor="start" x="38.8213" y="-193.5" font-family="Helvetica,sans-Serif" font-size="10.00" fill="#000000">FiniteElement&lt; dim,</text>
<text text-anchor="middle" x="83.145" y="-183.5" font-family="Helvetica,sans-Serif" font-size="10.00" fill="#000000"> spacedim &gt;</text>
</a>
</g>
</g>
<!-- Node3&#45;&gt;Node5 -->
<g id="edge6" class="edge">
<title>Node3&#45;&gt;Node5</title>
<path fill="none" stroke="#191970" d="M52.4135,-239.7924C59.2161,-229.1025 67.768,-215.6639 74.1221,-205.6789"/>
<polygon fill="#191970" stroke="#191970" points="49.4009,-238.0073 46.9849,-248.323 55.3066,-241.7654 49.4009,-238.0073"/>
</g>
<!-- Node4 -->
<g id="node5" class="node">
<title>Node4</title>
<g id="a_node5"><a xlink:href="classFiniteElementData.html" target="_top" xlink:title="FiniteElementData\&lt;\l dim \&gt;">
<polygon fill="#ffffff" stroke="#000000" points="102.0947,-243.5 102.0947,-271.5 206.1953,-271.5 206.1953,-243.5 102.0947,-243.5"/>
<text text-anchor="start" x="110.0947" y="-259.5" font-family="Helvetica,sans-Serif" font-size="10.00" fill="#000000">FiniteElementData&lt;</text>
<text text-anchor="middle" x="154.145" y="-249.5" font-family="Helvetica,sans-Serif" font-size="10.00" fill="#000000"> dim &gt;</text>
</a>
</g>
</g>
<!-- Node4&#45;&gt;Node2 -->
<g id="edge4" class="edge">
<title>Node4&#45;&gt;Node2</title>
<path fill="none" stroke="#191970" d="M160.1255,-233.2389C164.4923,-209.4325 166.937,-173.2643 149.145,-149 144.1425,-142.1777 126.8746,-135.6124 110.168,-130.6085"/>
<polygon fill="#191970" stroke="#191970" points="156.6593,-232.7168 158.0497,-243.22 163.5127,-234.1422 156.6593,-232.7168"/>
</g>
<!-- Node4&#45;&gt;Node5 -->
<g id="edge7" class="edge">
<title>Node4&#45;&gt;Node5</title>
<path fill="none" stroke="#191970" d="M131.3134,-236.2762C120.5927,-226.3105 108.0979,-214.6956 98.5209,-205.7931"/>
<polygon fill="#191970" stroke="#191970" points="129.0318,-238.934 138.7391,-243.179 133.7978,-233.807 129.0318,-238.934"/>
</g>
<!-- Node5&#45;&gt;Node2 -->
<g id="edge5" class="edge">
<title>Node5&#45;&gt;Node2</title>
<path fill="none" stroke="#ffa500" stroke-dasharray="5,2" d="M76.6846,-167.4765C76.0987,-164.6359 75.5868,-161.7646 75.2144,-159 73.9273,-149.447 73.771,-138.4061 73.8682,-130.7905"/>
<polygon fill="#ffa500" stroke="#ffa500" points="73.3185,-168.4523 79.0141,-177.3859 80.1327,-166.8503 73.3185,-168.4523"/>
<text text-anchor="middle" x="113.1104" y="-151" font-family="Helvetica,sans-Serif" font-size="10.00" fill="#000000"> &lt; 1, spacedim &gt;</text>
</g>
</g>
</svg>
