<?xml version="1.0" encoding="UTF-8" standalone="no"?>
<!DOCTYPE svg PUBLIC "-//W3C//DTD SVG 1.1//EN"
 "http://www.w3.org/Graphics/SVG/1.1/DTD/svg11.dtd">
<!-- Generated by graphviz version 2.40.1 (20161225.0304)
 -->
<!-- Title: ReductionControl Pages: 1 -->
<svg width="101pt" height="137pt"
 viewBox="0.00 0.00 101.27 137.00" xmlns="http://www.w3.org/2000/svg" xmlns:xlink="http://www.w3.org/1999/xlink">
<g id="graph0" class="graph" transform="scale(1 1) rotate(0) translate(4 133)">
<title>ReductionControl</title>
<polygon fill="#ffffff" stroke="transparent" points="-4,4 -4,-133 97.2656,-133 97.2656,4 -4,4"/>
<!-- Node0 -->
<g id="node1" class="node">
<title>Node0</title>
<polygon fill="#bfbfbf" stroke="#000000" points="0,-.5 0,-18.5 93.2656,-18.5 93.2656,-.5 0,-.5"/>
<text text-anchor="middle" x="46.6328" y="-6.5" font-family="Helvetica,sans-Serif" font-size="10.00" fill="#000000">ReductionControl</text>
</g>
<!-- Node1 -->
<g id="node2" class="node">
<title>Node1</title>
<g id="a_node2"><a xlink:href="classSolverControl.html" target="_top" xlink:title="SolverControl">
<polygon fill="#ffffff" stroke="#000000" points="8.3423,-55.5 8.3423,-73.5 84.9233,-73.5 84.9233,-55.5 8.3423,-55.5"/>
<text text-anchor="middle" x="46.6328" y="-61.5" font-family="Helvetica,sans-Serif" font-size="10.00" fill="#000000">SolverControl</text>
</a>
</g>
</g>
<!-- Node1&#45;&gt;Node0 -->
<g id="edge1" class="edge">
<title>Node1&#45;&gt;Node0</title>
<path fill="none" stroke="#191970" d="M46.6328,-45.383C46.6328,-36.3738 46.6328,-26.0373 46.6328,-18.7795"/>
<polygon fill="#191970" stroke="#191970" points="43.1329,-45.4178 46.6328,-55.4179 50.1329,-45.4179 43.1329,-45.4178"/>
</g>
<!-- Node2 -->
<g id="node3" class="node">
<title>Node2</title>
<g id="a_node3"><a xlink:href="classSubscriptor.html" target="_top" xlink:title="Subscriptor">
<polygon fill="#ffffff" stroke="#000000" points="13.3447,-110.5 13.3447,-128.5 79.9209,-128.5 79.9209,-110.5 13.3447,-110.5"/>
<text text-anchor="middle" x="46.6328" y="-116.5" font-family="Helvetica,sans-Serif" font-size="10.00" fill="#000000">Subscriptor</text>
</a>
</g>
</g>
<!-- Node2&#45;&gt;Node1 -->
<g id="edge2" class="edge">
<title>Node2&#45;&gt;Node1</title>
<path fill="none" stroke="#191970" d="M46.6328,-100.383C46.6328,-91.3738 46.6328,-81.0373 46.6328,-73.7795"/>
<polygon fill="#191970" stroke="#191970" points="43.1329,-100.4178 46.6328,-110.4179 50.1329,-100.4179 43.1329,-100.4178"/>
</g>
</g>
</svg>
