<?xml version="1.0" encoding="UTF-8" standalone="no"?>
<!DOCTYPE svg PUBLIC "-//W3C//DTD SVG 1.1//EN"
 "http://www.w3.org/Graphics/SVG/1.1/DTD/svg11.dtd">
<!-- Generated by graphviz version 2.40.1 (20161225.0304)
 -->
<!-- Title: IterationNumberControl Pages: 1 -->
<svg width="128pt" height="137pt"
 viewBox="0.00 0.00 127.94 137.00" xmlns="http://www.w3.org/2000/svg" xmlns:xlink="http://www.w3.org/1999/xlink">
<g id="graph0" class="graph" transform="scale(1 1) rotate(0) translate(4 133)">
<title>IterationNumberControl</title>
<polygon fill="#ffffff" stroke="transparent" points="-4,4 -4,-133 123.9355,-133 123.9355,4 -4,4"/>
<!-- Node0 -->
<g id="node1" class="node">
<title>Node0</title>
<polygon fill="#bfbfbf" stroke="#000000" points="0,-.5 0,-18.5 119.9355,-18.5 119.9355,-.5 0,-.5"/>
<text text-anchor="middle" x="59.9678" y="-6.5" font-family="Helvetica,sans-Serif" font-size="10.00" fill="#000000">IterationNumberControl</text>
</g>
<!-- Node1 -->
<g id="node2" class="node">
<title>Node1</title>
<g id="a_node2"><a xlink:href="classSolverControl.html" target="_top" xlink:title="SolverControl">
<polygon fill="#ffffff" stroke="#000000" points="21.6772,-55.5 21.6772,-73.5 98.2583,-73.5 98.2583,-55.5 21.6772,-55.5"/>
<text text-anchor="middle" x="59.9678" y="-61.5" font-family="Helvetica,sans-Serif" font-size="10.00" fill="#000000">SolverControl</text>
</a>
</g>
</g>
<!-- Node1&#45;&gt;Node0 -->
<g id="edge1" class="edge">
<title>Node1&#45;&gt;Node0</title>
<path fill="none" stroke="#191970" d="M59.9678,-45.383C59.9678,-36.3738 59.9678,-26.0373 59.9678,-18.7795"/>
<polygon fill="#191970" stroke="#191970" points="56.4679,-45.4178 59.9678,-55.4179 63.4679,-45.4179 56.4679,-45.4178"/>
</g>
<!-- Node2 -->
<g id="node3" class="node">
<title>Node2</title>
<g id="a_node3"><a xlink:href="classSubscriptor.html" target="_top" xlink:title="Subscriptor">
<polygon fill="#ffffff" stroke="#000000" points="26.6797,-110.5 26.6797,-128.5 93.2559,-128.5 93.2559,-110.5 26.6797,-110.5"/>
<text text-anchor="middle" x="59.9678" y="-116.5" font-family="Helvetica,sans-Serif" font-size="10.00" fill="#000000">Subscriptor</text>
</a>
</g>
</g>
<!-- Node2&#45;&gt;Node1 -->
<g id="edge2" class="edge">
<title>Node2&#45;&gt;Node1</title>
<path fill="none" stroke="#191970" d="M59.9678,-100.383C59.9678,-91.3738 59.9678,-81.0373 59.9678,-73.7795"/>
<polygon fill="#191970" stroke="#191970" points="56.4679,-100.4178 59.9678,-110.4179 63.4679,-100.4179 56.4679,-100.4178"/>
</g>
</g>
</svg>
