<?xml version="1.0" encoding="UTF-8" standalone="no"?>
<!DOCTYPE svg PUBLIC "-//W3C//DTD SVG 1.1//EN"
 "http://www.w3.org/Graphics/SVG/1.1/DTD/svg11.dtd">
<!-- Generated by graphviz version 2.40.1 (20161225.0304)
 -->
<!-- Title: FE_DGPMonomial&lt; dim &gt; Pages: 1 -->
<svg width="289pt" height="319pt"
 viewBox="0.00 0.00 289.18 319.00" xmlns="http://www.w3.org/2000/svg" xmlns:xlink="http://www.w3.org/1999/xlink">
<g id="graph0" class="graph" transform="scale(1 1) rotate(0) translate(4 315)">
<title>FE_DGPMonomial&lt; dim &gt;</title>
<polygon fill="#ffffff" stroke="transparent" points="-4,4 -4,-315 285.1807,-315 285.1807,4 -4,4"/>
<!-- Node0 -->
<g id="node1" class="node">
<title>Node0</title>
<polygon fill="#bfbfbf" stroke="#000000" points="70.5381,-.5 70.5381,-18.5 203.2471,-18.5 203.2471,-.5 70.5381,-.5"/>
<text text-anchor="middle" x="136.8926" y="-6.5" font-family="Helvetica,sans-Serif" font-size="10.00" fill="#000000">FE_DGPMonomial&lt; dim &gt;</text>
</g>
<!-- Node1 -->
<g id="node2" class="node">
<title>Node1</title>
<g id="a_node2"><a xlink:href="classFE__Poly.html" target="_top" xlink:title="FE_Poly\&lt; PolynomialsP\l\&lt; dim \&gt;, dim \&gt;">
<polygon fill="#ffffff" stroke="#000000" points="75.3965,-56.5 75.3965,-84.5 198.3887,-84.5 198.3887,-56.5 75.3965,-56.5"/>
<text text-anchor="start" x="83.3965" y="-72.5" font-family="Helvetica,sans-Serif" font-size="10.00" fill="#000000">FE_Poly&lt; PolynomialsP</text>
<text text-anchor="middle" x="136.8926" y="-62.5" font-family="Helvetica,sans-Serif" font-size="10.00" fill="#000000">&lt; dim &gt;, dim &gt;</text>
</a>
</g>
</g>
<!-- Node1&#45;&gt;Node0 -->
<g id="edge1" class="edge">
<title>Node1&#45;&gt;Node0</title>
<path fill="none" stroke="#191970" d="M136.8926,-46.1001C136.8926,-36.5157 136.8926,-26.0935 136.8926,-18.831"/>
<polygon fill="#191970" stroke="#191970" points="133.3927,-46.352 136.8926,-56.3521 140.3927,-46.3521 133.3927,-46.352"/>
</g>
<!-- Node2 -->
<g id="node3" class="node">
<title>Node2</title>
<g id="a_node3"><a xlink:href="classFiniteElement.html" target="_top" xlink:title="FiniteElement\&lt; dim,\l dim \&gt;">
<polygon fill="#ffffff" stroke="#000000" points="153.5688,-141.5 153.5688,-169.5 258.2163,-169.5 258.2163,-141.5 153.5688,-141.5"/>
<text text-anchor="start" x="161.5688" y="-157.5" font-family="Helvetica,sans-Serif" font-size="10.00" fill="#000000">FiniteElement&lt; dim,</text>
<text text-anchor="middle" x="205.8926" y="-147.5" font-family="Helvetica,sans-Serif" font-size="10.00" fill="#000000"> dim &gt;</text>
</a>
</g>
</g>
<!-- Node2&#45;&gt;Node1 -->
<g id="edge2" class="edge">
<title>Node2&#45;&gt;Node1</title>
<path fill="none" stroke="#191970" d="M198.184,-132.0246C194.2836,-122.3837 188.8747,-111.5108 181.8926,-103 176.147,-95.9965 168.5536,-89.7543 161.2441,-84.6586"/>
<polygon fill="#191970" stroke="#191970" points="194.9339,-133.3264 201.7052,-141.475 201.4933,-130.8823 194.9339,-133.3264"/>
</g>
<!-- Node3 -->
<g id="node4" class="node">
<title>Node3</title>
<g id="a_node4"><a xlink:href="classSubscriptor.html" target="_top" xlink:title="Subscriptor">
<polygon fill="#ffffff" stroke="#000000" points="214.6045,-287.5 214.6045,-305.5 281.1807,-305.5 281.1807,-287.5 214.6045,-287.5"/>
<text text-anchor="middle" x="247.8926" y="-293.5" font-family="Helvetica,sans-Serif" font-size="10.00" fill="#000000">Subscriptor</text>
</a>
</g>
</g>
<!-- Node3&#45;&gt;Node2 -->
<g id="edge3" class="edge">
<title>Node3&#45;&gt;Node2</title>
<path fill="none" stroke="#191970" d="M242.2747,-277.6398C233.768,-249.0819 217.804,-195.4882 210.1704,-169.8613"/>
<polygon fill="#191970" stroke="#191970" points="238.9277,-278.6639 245.1368,-287.2486 245.6364,-276.6655 238.9277,-278.6639"/>
</g>
<!-- Node5 -->
<g id="node6" class="node">
<title>Node5</title>
<g id="a_node6"><a xlink:href="classFiniteElement.html" target="_top" xlink:title="FiniteElement\&lt; dim,\l spacedim \&gt;">
<polygon fill="#ffffff" stroke="#000000" points="68.5688,-216.5 68.5688,-244.5 173.2163,-244.5 173.2163,-216.5 68.5688,-216.5"/>
<text text-anchor="start" x="76.5688" y="-232.5" font-family="Helvetica,sans-Serif" font-size="10.00" fill="#000000">FiniteElement&lt; dim,</text>
<text text-anchor="middle" x="120.8926" y="-222.5" font-family="Helvetica,sans-Serif" font-size="10.00" fill="#000000"> spacedim &gt;</text>
</a>
</g>
</g>
<!-- Node3&#45;&gt;Node5 -->
<g id="edge6" class="edge">
<title>Node3&#45;&gt;Node5</title>
<path fill="none" stroke="#191970" d="M221.6178,-282.8454C200.1916,-271.7105 170.0247,-256.0332 148.2982,-244.7423"/>
<polygon fill="#191970" stroke="#191970" points="220.0128,-285.9557 230.5001,-287.4614 223.2407,-279.7443 220.0128,-285.9557"/>
</g>
<!-- Node4 -->
<g id="node5" class="node">
<title>Node4</title>
<g id="a_node5"><a xlink:href="classFiniteElementData.html" target="_top" xlink:title="FiniteElementData\&lt;\l dim \&gt;">
<polygon fill="#ffffff" stroke="#000000" points="79.8423,-282.5 79.8423,-310.5 183.9429,-310.5 183.9429,-282.5 79.8423,-282.5"/>
<text text-anchor="start" x="87.8423" y="-298.5" font-family="Helvetica,sans-Serif" font-size="10.00" fill="#000000">FiniteElementData&lt;</text>
<text text-anchor="middle" x="131.8926" y="-288.5" font-family="Helvetica,sans-Serif" font-size="10.00" fill="#000000"> dim &gt;</text>
</a>
</g>
</g>
<!-- Node4&#45;&gt;Node2 -->
<g id="edge4" class="edge">
<title>Node4&#45;&gt;Node2</title>
<path fill="none" stroke="#191970" d="M156.897,-275.6837C165.9178,-267.0238 175.4522,-256.3453 181.8926,-245 195.7113,-220.6571 201.8326,-188.0586 204.3362,-169.6727"/>
<polygon fill="#191970" stroke="#191970" points="154.521,-273.1136 149.5194,-282.4535 159.2538,-278.2713 154.521,-273.1136"/>
</g>
<!-- Node4&#45;&gt;Node5 -->
<g id="edge7" class="edge">
<title>Node4&#45;&gt;Node5</title>
<path fill="none" stroke="#191970" d="M127.8146,-272.0322C126.286,-262.8606 124.6001,-252.7449 123.2748,-244.7931"/>
<polygon fill="#191970" stroke="#191970" points="124.4093,-272.8905 129.5057,-282.179 131.3141,-271.7396 124.4093,-272.8905"/>
</g>
<!-- Node5&#45;&gt;Node2 -->
<g id="edge5" class="edge">
<title>Node5&#45;&gt;Node2</title>
<path fill="none" stroke="#ffa500" stroke-dasharray="5,2" d="M121.4276,-206.53C122.6002,-199.9564 124.8746,-193.2127 129.0947,-188 135.4715,-180.1233 144.103,-174.1242 153.2794,-169.5648"/>
<polygon fill="#ffa500" stroke="#ffa500" points="117.9471,-206.1617 120.3708,-216.4756 124.9079,-206.9014 117.9471,-206.1617"/>
<text text-anchor="middle" x="158.7915" y="-190" font-family="Helvetica,sans-Serif" font-size="10.00" fill="#000000"> &lt; dim, dim &gt;</text>
</g>
<!-- Node6 -->
<g id="node7" class="node">
<title>Node6</title>
<g id="a_node7"><a xlink:href="classFE__Poly.html" target="_top" xlink:title="FE_Poly\&lt; PolynomialType,\l dim, spacedim \&gt;">
<polygon fill="#ffffff" stroke="#000000" points="0,-141.5 0,-169.5 135.7852,-169.5 135.7852,-141.5 0,-141.5"/>
<text text-anchor="start" x="8" y="-157.5" font-family="Helvetica,sans-Serif" font-size="10.00" fill="#000000">FE_Poly&lt; PolynomialType,</text>
<text text-anchor="middle" x="67.8926" y="-147.5" font-family="Helvetica,sans-Serif" font-size="10.00" fill="#000000"> dim, spacedim &gt;</text>
</a>
</g>
</g>
<!-- Node5&#45;&gt;Node6 -->
<g id="edge9" class="edge">
<title>Node5&#45;&gt;Node6</title>
<path fill="none" stroke="#191970" d="M104.9044,-207.8752C96.0924,-195.4054 85.4297,-180.3167 77.8168,-169.5437"/>
<polygon fill="#191970" stroke="#191970" points="102.2942,-210.2463 110.9237,-216.3931 108.0109,-206.2065 102.2942,-210.2463"/>
</g>
<!-- Node6&#45;&gt;Node1 -->
<g id="edge8" class="edge">
<title>Node6&#45;&gt;Node1</title>
<path fill="none" stroke="#ffa500" stroke-dasharray="5,2" d="M69.9827,-131.1574C71.7854,-121.6317 75.1028,-111.0772 81.1836,-103 86.8406,-95.4857 94.7832,-89.4035 102.9024,-84.6227"/>
<polygon fill="#ffa500" stroke="#ffa500" points="66.485,-130.8913 68.5246,-141.288 73.4136,-131.8887 66.485,-130.8913"/>
<text text-anchor="start" x="81.8926" y="-115" font-family="Helvetica,sans-Serif" font-size="10.00" fill="#000000"> &lt; PolynomialsP&lt; dim</text>
<text text-anchor="middle" x="130.2471" y="-105" font-family="Helvetica,sans-Serif" font-size="10.00" fill="#000000"> &gt;, dim &gt;</text>
</g>
</g>
</svg>
