<?xml version="1.0" encoding="UTF-8" standalone="no"?>
<!DOCTYPE svg PUBLIC "-//W3C//DTD SVG 1.1//EN"
 "http://www.w3.org/Graphics/SVG/1.1/DTD/svg11.dtd">
<!-- Generated by graphviz version 2.40.1 (20161225.0304)
 -->
<!-- Title: PreconditionJacobi&lt; MatrixType &gt; Pages: 1 -->
<svg width="127pt" height="157pt"
 viewBox="0.00 0.00 126.84 157.00" xmlns="http://www.w3.org/2000/svg" xmlns:xlink="http://www.w3.org/1999/xlink">
<g id="graph0" class="graph" transform="scale(1 1) rotate(0) translate(4 153)">
<title>PreconditionJacobi&lt; MatrixType &gt;</title>
<polygon fill="#ffffff" stroke="transparent" points="-4,4 -4,-153 122.8418,-153 122.8418,4 -4,4"/>
<!-- Node0 -->
<g id="node1" class="node">
<title>Node0</title>
<polygon fill="#bfbfbf" stroke="#000000" points="9.1724,-.5 9.1724,-28.5 109.6694,-28.5 109.6694,-.5 9.1724,-.5"/>
<text text-anchor="start" x="17.1724" y="-16.5" font-family="Helvetica,sans-Serif" font-size="10.00" fill="#000000">PreconditionJacobi</text>
<text text-anchor="middle" x="59.4209" y="-6.5" font-family="Helvetica,sans-Serif" font-size="10.00" fill="#000000">&lt; MatrixType &gt;</text>
</g>
<!-- Node1 -->
<g id="node2" class="node">
<title>Node1</title>
<g id="a_node2"><a xlink:href="classPreconditionRelaxation.html" target="_top" xlink:title="PreconditionRelaxation\l\&lt; MatrixType \&gt;">
<polygon fill="#ffffff" stroke="#000000" points="0,-65.5 0,-93.5 118.8418,-93.5 118.8418,-65.5 0,-65.5"/>
<text text-anchor="start" x="8" y="-81.5" font-family="Helvetica,sans-Serif" font-size="10.00" fill="#000000">PreconditionRelaxation</text>
<text text-anchor="middle" x="59.4209" y="-71.5" font-family="Helvetica,sans-Serif" font-size="10.00" fill="#000000">&lt; MatrixType &gt;</text>
</a>
</g>
</g>
<!-- Node1&#45;&gt;Node0 -->
<g id="edge1" class="edge">
<title>Node1&#45;&gt;Node0</title>
<path fill="none" stroke="#191970" d="M59.4209,-55.1081C59.4209,-46.1539 59.4209,-36.3227 59.4209,-28.5765"/>
<polygon fill="#191970" stroke="#191970" points="55.921,-55.3959 59.4209,-65.396 62.921,-55.396 55.921,-55.3959"/>
</g>
<!-- Node2 -->
<g id="node3" class="node">
<title>Node2</title>
<g id="a_node3"><a xlink:href="classSubscriptor.html" target="_top" xlink:title="Subscriptor">
<polygon fill="#ffffff" stroke="#000000" points="26.1328,-130.5 26.1328,-148.5 92.709,-148.5 92.709,-130.5 26.1328,-130.5"/>
<text text-anchor="middle" x="59.4209" y="-136.5" font-family="Helvetica,sans-Serif" font-size="10.00" fill="#000000">Subscriptor</text>
</a>
</g>
</g>
<!-- Node2&#45;&gt;Node1 -->
<g id="edge2" class="edge">
<title>Node2&#45;&gt;Node1</title>
<path fill="none" stroke="#191970" d="M59.4209,-120.1865C59.4209,-111.6283 59.4209,-101.7354 59.4209,-93.8477"/>
<polygon fill="#191970" stroke="#191970" points="55.921,-120.3873 59.4209,-130.3873 62.921,-120.3873 55.921,-120.3873"/>
</g>
</g>
</svg>
