<?xml version="1.0" encoding="UTF-8" standalone="no"?>
<!DOCTYPE svg PUBLIC "-//W3C//DTD SVG 1.1//EN"
 "http://www.w3.org/Graphics/SVG/1.1/DTD/svg11.dtd">
<!-- Generated by graphviz version 2.40.1 (20161225.0304)
 -->
<!-- Title: TensorProductManifold&lt; dim, dim_A, spacedim_A, chartdim_A, dim_B, spacedim_B, chartdim_B &gt; Pages: 1 -->
<svg width="261pt" height="330pt"
 viewBox="0.00 0.00 261.43 330.00" xmlns="http://www.w3.org/2000/svg" xmlns:xlink="http://www.w3.org/1999/xlink">
<g id="graph0" class="graph" transform="scale(1 1) rotate(0) translate(4 326)">
<title>TensorProductManifold&lt; dim, dim_A, spacedim_A, chartdim_A, dim_B, spacedim_B, chartdim_B &gt;</title>
<polygon fill="#ffffff" stroke="transparent" points="-4,4 -4,-326 257.4326,-326 257.4326,4 -4,4"/>
<!-- Node0 -->
<g id="node1" class="node">
<title>Node0</title>
<polygon fill="#bfbfbf" stroke="#000000" points="5.4199,-.5 5.4199,-48.5 143.9785,-48.5 143.9785,-.5 5.4199,-.5"/>
<text text-anchor="start" x="13.4199" y="-36.5" font-family="Helvetica,sans-Serif" font-size="10.00" fill="#000000">TensorProductManifold</text>
<text text-anchor="start" x="13.4199" y="-26.5" font-family="Helvetica,sans-Serif" font-size="10.00" fill="#000000">&lt; dim, dim_A, spacedim</text>
<text text-anchor="start" x="13.4199" y="-16.5" font-family="Helvetica,sans-Serif" font-size="10.00" fill="#000000">_A, chartdim_A, dim_B,</text>
<text text-anchor="middle" x="74.6992" y="-6.5" font-family="Helvetica,sans-Serif" font-size="10.00" fill="#000000"> spacedim_B, chartdim_B &gt;</text>
</g>
<!-- Node1 -->
<g id="node2" class="node">
<title>Node1</title>
<g id="a_node2"><a xlink:href="classChartManifold.html" target="_top" xlink:title="ChartManifold\&lt; dim,\l spacedim_A+spacedim\l_B, chartdim_A+chartdim_B \&gt;">
<polygon fill="#ffffff" stroke="#000000" points="0,-86.5 0,-124.5 149.3984,-124.5 149.3984,-86.5 0,-86.5"/>
<text text-anchor="start" x="8" y="-112.5" font-family="Helvetica,sans-Serif" font-size="10.00" fill="#000000">ChartManifold&lt; dim,</text>
<text text-anchor="start" x="8" y="-102.5" font-family="Helvetica,sans-Serif" font-size="10.00" fill="#000000"> spacedim_A+spacedim</text>
<text text-anchor="middle" x="74.6992" y="-92.5" font-family="Helvetica,sans-Serif" font-size="10.00" fill="#000000">_B, chartdim_A+chartdim_B &gt;</text>
</a>
</g>
</g>
<!-- Node1&#45;&gt;Node0 -->
<g id="edge1" class="edge">
<title>Node1&#45;&gt;Node0</title>
<path fill="none" stroke="#191970" d="M74.6992,-76.2245C74.6992,-67.2228 74.6992,-57.4179 74.6992,-48.7889"/>
<polygon fill="#191970" stroke="#191970" points="71.1993,-76.3041 74.6992,-86.3041 78.1993,-76.3042 71.1993,-76.3041"/>
</g>
<!-- Node2 -->
<g id="node3" class="node">
<title>Node2</title>
<g id="a_node3"><a xlink:href="classManifold.html" target="_top" xlink:title="Manifold\&lt; dim, spacedim \&gt;">
<polygon fill="#ffffff" stroke="#000000" points="2.9482,-247.5 2.9482,-265.5 138.4502,-265.5 138.4502,-247.5 2.9482,-247.5"/>
<text text-anchor="middle" x="70.6992" y="-253.5" font-family="Helvetica,sans-Serif" font-size="10.00" fill="#000000">Manifold&lt; dim, spacedim &gt;</text>
</a>
</g>
</g>
<!-- Node2&#45;&gt;Node1 -->
<g id="edge2" class="edge">
<title>Node2&#45;&gt;Node1</title>
<path fill="none" stroke="#191970" d="M71.2176,-236.9299C71.9875,-207.8685 73.4241,-153.6367 74.1891,-124.7572"/>
<polygon fill="#191970" stroke="#191970" points="67.7156,-236.9651 70.9494,-247.0543 74.7131,-237.1505 67.7156,-236.9651"/>
</g>
<!-- Node4 -->
<g id="node5" class="node">
<title>Node4</title>
<g id="a_node5"><a xlink:href="classChartManifold.html" target="_top" xlink:title="ChartManifold\&lt; dim,\l spacedim, chartdim \&gt;">
<polygon fill="#ffffff" stroke="#000000" points="86.6514,-181.5 86.6514,-209.5 200.7471,-209.5 200.7471,-181.5 86.6514,-181.5"/>
<text text-anchor="start" x="94.6514" y="-197.5" font-family="Helvetica,sans-Serif" font-size="10.00" fill="#000000">ChartManifold&lt; dim,</text>
<text text-anchor="middle" x="143.6992" y="-187.5" font-family="Helvetica,sans-Serif" font-size="10.00" fill="#000000"> spacedim, chartdim &gt;</text>
</a>
</g>
</g>
<!-- Node2&#45;&gt;Node4 -->
<g id="edge5" class="edge">
<title>Node2&#45;&gt;Node4</title>
<path fill="none" stroke="#191970" d="M89.2522,-240.9968C100.854,-231.3022 115.6766,-218.9162 126.9258,-209.5162"/>
<polygon fill="#191970" stroke="#191970" points="86.9,-238.4013 81.4706,-247.4992 91.3885,-243.7728 86.9,-238.4013"/>
</g>
<!-- Node3 -->
<g id="node4" class="node">
<title>Node3</title>
<g id="a_node4"><a xlink:href="classSubscriptor.html" target="_top" xlink:title="Subscriptor">
<polygon fill="#ffffff" stroke="#000000" points="37.4111,-303.5 37.4111,-321.5 103.9873,-321.5 103.9873,-303.5 37.4111,-303.5"/>
<text text-anchor="middle" x="70.6992" y="-309.5" font-family="Helvetica,sans-Serif" font-size="10.00" fill="#000000">Subscriptor</text>
</a>
</g>
</g>
<!-- Node3&#45;&gt;Node2 -->
<g id="edge3" class="edge">
<title>Node3&#45;&gt;Node2</title>
<path fill="none" stroke="#191970" d="M70.6992,-293.2065C70.6992,-283.8384 70.6992,-273.0262 70.6992,-265.5752"/>
<polygon fill="#191970" stroke="#191970" points="67.1993,-293.2527 70.6992,-303.2527 74.1993,-293.2528 67.1993,-293.2527"/>
</g>
<!-- Node4&#45;&gt;Node1 -->
<g id="edge4" class="edge">
<title>Node4&#45;&gt;Node1</title>
<path fill="none" stroke="#ffa500" stroke-dasharray="5,2" d="M126.661,-173.2763C115.2611,-158.4068 100.4068,-139.0317 89.5014,-124.8073"/>
<polygon fill="#ffa500" stroke="#ffa500" points="124.056,-175.6309 132.918,-181.4375 129.6112,-171.3719 124.056,-175.6309"/>
<text text-anchor="start" x="116.6992" y="-155" font-family="Helvetica,sans-Serif" font-size="10.00" fill="#000000"> &lt; dim, spacedim_A+spacedim</text>
<text text-anchor="middle" x="185.0659" y="-145" font-family="Helvetica,sans-Serif" font-size="10.00" fill="#000000">_B, chartdim_A+chartdim_B &gt;</text>
</g>
</g>
</svg>
