<?xml version="1.0" encoding="UTF-8" standalone="no"?>
<!DOCTYPE svg PUBLIC "-//W3C//DTD SVG 1.1//EN"
 "http://www.w3.org/Graphics/SVG/1.1/DTD/svg11.dtd">
<!-- Generated by graphviz version 2.40.1 (20161225.0304)
 -->
<!-- Title: InvalidAccessor&lt; structdim, dim, spacedim &gt; Pages: 1 -->
<svg width="157pt" height="102pt"
 viewBox="0.00 0.00 156.73 102.00" xmlns="http://www.w3.org/2000/svg" xmlns:xlink="http://www.w3.org/1999/xlink">
<g id="graph0" class="graph" transform="scale(1 1) rotate(0) translate(4 98)">
<title>InvalidAccessor&lt; structdim, dim, spacedim &gt;</title>
<polygon fill="#ffffff" stroke="transparent" points="-4,4 -4,-98 152.7295,-98 152.7295,4 -4,4"/>
<!-- Node0 -->
<g id="node1" class="node">
<title>Node0</title>
<polygon fill="#bfbfbf" stroke="#000000" points="5.3711,-.5 5.3711,-28.5 143.3584,-28.5 143.3584,-.5 5.3711,-.5"/>
<text text-anchor="start" x="13.3711" y="-16.5" font-family="Helvetica,sans-Serif" font-size="10.00" fill="#000000">InvalidAccessor&lt; structdim,</text>
<text text-anchor="middle" x="74.3647" y="-6.5" font-family="Helvetica,sans-Serif" font-size="10.00" fill="#000000"> dim, spacedim &gt;</text>
</g>
<!-- Node1 -->
<g id="node2" class="node">
<title>Node1</title>
<g id="a_node2"><a xlink:href="classTriaAccessorBase.html" target="_top" xlink:title="TriaAccessorBase\&lt; structdim,\l dim, spacedim \&gt;">
<polygon fill="#ffffff" stroke="#000000" points="0,-65.5 0,-93.5 148.7295,-93.5 148.7295,-65.5 0,-65.5"/>
<text text-anchor="start" x="8" y="-81.5" font-family="Helvetica,sans-Serif" font-size="10.00" fill="#000000">TriaAccessorBase&lt; structdim,</text>
<text text-anchor="middle" x="74.3647" y="-71.5" font-family="Helvetica,sans-Serif" font-size="10.00" fill="#000000"> dim, spacedim &gt;</text>
</a>
</g>
</g>
<!-- Node1&#45;&gt;Node0 -->
<g id="edge1" class="edge">
<title>Node1&#45;&gt;Node0</title>
<path fill="none" stroke="#191970" d="M74.3647,-55.1081C74.3647,-46.1539 74.3647,-36.3227 74.3647,-28.5765"/>
<polygon fill="#191970" stroke="#191970" points="70.8648,-55.3959 74.3647,-65.396 77.8648,-55.396 70.8648,-55.3959"/>
</g>
</g>
</svg>
