<?xml version="1.0" encoding="UTF-8" standalone="no"?>
<!DOCTYPE svg PUBLIC "-//W3C//DTD SVG 1.1//EN"
 "http://www.w3.org/Graphics/SVG/1.1/DTD/svg11.dtd">
<!-- Generated by graphviz version 2.40.1 (20161225.0304)
 -->
<!-- Title: TensorFunction&lt; rank, dim, Number &gt; Pages: 1 -->
<svg width="260pt" height="234pt"
 viewBox="0.00 0.00 259.57 234.00" xmlns="http://www.w3.org/2000/svg" xmlns:xlink="http://www.w3.org/1999/xlink">
<g id="graph0" class="graph" transform="scale(1 1) rotate(0) translate(4 230)">
<title>TensorFunction&lt; rank, dim, Number &gt;</title>
<polygon fill="#ffffff" stroke="transparent" points="-4,4 -4,-230 255.5659,-230 255.5659,4 -4,4"/>
<!-- Node0 -->
<g id="node1" class="node">
<title>Node0</title>
<polygon fill="#bfbfbf" stroke="#000000" points="69.5874,-141.5 69.5874,-169.5 184.8062,-169.5 184.8062,-141.5 69.5874,-141.5"/>
<text text-anchor="start" x="77.5874" y="-157.5" font-family="Helvetica,sans-Serif" font-size="10.00" fill="#000000">TensorFunction&lt; rank,</text>
<text text-anchor="middle" x="127.1968" y="-147.5" font-family="Helvetica,sans-Serif" font-size="10.00" fill="#000000"> dim, Number &gt;</text>
</g>
<!-- Node3 -->
<g id="node4" class="node">
<title>Node3</title>
<g id="a_node4"><a xlink:href="classConstantTensorFunction.html" target="_top" xlink:title="ConstantTensorFunction\l\&lt; rank, dim, Number \&gt;">
<polygon fill="#ffffff" stroke="#000000" points="0,-66.5 0,-94.5 124.3936,-94.5 124.3936,-66.5 0,-66.5"/>
<text text-anchor="start" x="8" y="-82.5" font-family="Helvetica,sans-Serif" font-size="10.00" fill="#000000">ConstantTensorFunction</text>
<text text-anchor="middle" x="62.1968" y="-72.5" font-family="Helvetica,sans-Serif" font-size="10.00" fill="#000000">&lt; rank, dim, Number &gt;</text>
</a>
</g>
</g>
<!-- Node0&#45;&gt;Node3 -->
<g id="edge3" class="edge">
<title>Node0&#45;&gt;Node3</title>
<path fill="none" stroke="#191970" d="M108.2155,-133.5986C97.2907,-120.993 83.8859,-105.5259 74.368,-94.5437"/>
<polygon fill="#191970" stroke="#191970" points="105.7765,-136.1284 114.9708,-141.3931 111.0664,-131.5439 105.7765,-136.1284"/>
</g>
<!-- Node5 -->
<g id="node6" class="node">
<title>Node5</title>
<g id="a_node6"><a xlink:href="classTensorFunction.html" target="_top" xlink:title="TensorFunction\&lt; 1,\l dim, Number \&gt;">
<polygon fill="#ffffff" stroke="#000000" points="142.5332,-66.5 142.5332,-94.5 243.8604,-94.5 243.8604,-66.5 142.5332,-66.5"/>
<text text-anchor="start" x="150.5332" y="-82.5" font-family="Helvetica,sans-Serif" font-size="10.00" fill="#000000">TensorFunction&lt; 1,</text>
<text text-anchor="middle" x="193.1968" y="-72.5" font-family="Helvetica,sans-Serif" font-size="10.00" fill="#000000"> dim, Number &gt;</text>
</a>
</g>
</g>
<!-- Node0&#45;&gt;Node5 -->
<g id="edge5" class="edge">
<title>Node0&#45;&gt;Node5</title>
<path fill="none" stroke="#ffa500" stroke-dasharray="5,2" d="M146.4701,-133.5986C157.5629,-120.993 171.174,-105.5259 180.8383,-94.5437"/>
<polygon fill="#ffa500" stroke="#ffa500" points="143.5897,-131.5737 139.6109,-141.3931 148.8447,-136.1981 143.5897,-131.5737"/>
<text text-anchor="middle" x="207.3813" y="-115" font-family="Helvetica,sans-Serif" font-size="10.00" fill="#000000"> &lt; 1, dim, Number &gt;</text>
</g>
<!-- Node1 -->
<g id="node2" class="node">
<title>Node1</title>
<g id="a_node2"><a xlink:href="classFunctionTime.html" target="_top" xlink:title="FunctionTime\&lt; Number \&gt;">
<polygon fill="#ffffff" stroke="#000000" points="4.6904,-207.5 4.6904,-225.5 133.7031,-225.5 133.7031,-207.5 4.6904,-207.5"/>
<text text-anchor="middle" x="69.1968" y="-213.5" font-family="Helvetica,sans-Serif" font-size="10.00" fill="#000000">FunctionTime&lt; Number &gt;</text>
</a>
</g>
</g>
<!-- Node1&#45;&gt;Node0 -->
<g id="edge1" class="edge">
<title>Node1&#45;&gt;Node0</title>
<path fill="none" stroke="#191970" d="M84.6988,-200.1962C93.7199,-190.7084 104.984,-178.8617 113.6487,-169.7488"/>
<polygon fill="#191970" stroke="#191970" points="82.1091,-197.8405 77.7549,-207.4992 87.182,-202.6639 82.1091,-197.8405"/>
</g>
<!-- Node2 -->
<g id="node3" class="node">
<title>Node2</title>
<g id="a_node3"><a xlink:href="classSubscriptor.html" target="_top" xlink:title="Subscriptor">
<polygon fill="#ffffff" stroke="#000000" points="151.9087,-207.5 151.9087,-225.5 218.4849,-225.5 218.4849,-207.5 151.9087,-207.5"/>
<text text-anchor="middle" x="185.1968" y="-213.5" font-family="Helvetica,sans-Serif" font-size="10.00" fill="#000000">Subscriptor</text>
</a>
</g>
</g>
<!-- Node2&#45;&gt;Node0 -->
<g id="edge2" class="edge">
<title>Node2&#45;&gt;Node0</title>
<path fill="none" stroke="#191970" d="M169.6948,-200.1962C160.6736,-190.7084 149.4095,-178.8617 140.7449,-169.7488"/>
<polygon fill="#191970" stroke="#191970" points="167.2116,-202.6639 176.6387,-207.4992 172.2845,-197.8405 167.2116,-202.6639"/>
</g>
<!-- Node4 -->
<g id="node5" class="node">
<title>Node4</title>
<g id="a_node5"><a xlink:href="classZeroTensorFunction.html" target="_top" xlink:title="ZeroTensorFunction\l\&lt; rank, dim, Number \&gt;">
<polygon fill="#ffffff" stroke="#000000" points="4.4556,-.5 4.4556,-28.5 119.938,-28.5 119.938,-.5 4.4556,-.5"/>
<text text-anchor="start" x="12.4556" y="-16.5" font-family="Helvetica,sans-Serif" font-size="10.00" fill="#000000">ZeroTensorFunction</text>
<text text-anchor="middle" x="62.1968" y="-6.5" font-family="Helvetica,sans-Serif" font-size="10.00" fill="#000000">&lt; rank, dim, Number &gt;</text>
</a>
</g>
</g>
<!-- Node3&#45;&gt;Node4 -->
<g id="edge4" class="edge">
<title>Node3&#45;&gt;Node4</title>
<path fill="none" stroke="#191970" d="M62.1968,-56.0322C62.1968,-46.8606 62.1968,-36.7449 62.1968,-28.7931"/>
<polygon fill="#191970" stroke="#191970" points="58.6969,-56.1789 62.1968,-66.179 65.6969,-56.179 58.6969,-56.1789"/>
</g>
</g>
</svg>
