<?xml version="1.0" encoding="UTF-8" standalone="no"?>
<!DOCTYPE svg PUBLIC "-//W3C//DTD SVG 1.1//EN"
 "http://www.w3.org/Graphics/SVG/1.1/DTD/svg11.dtd">
<!-- Generated by graphviz version 2.40.1 (20161225.0304)
 -->
<!-- Title: QGaussLog&lt; dim &gt; Pages: 1 -->
<svg width="111pt" height="137pt"
 viewBox="0.00 0.00 110.71 137.00" xmlns="http://www.w3.org/2000/svg" xmlns:xlink="http://www.w3.org/1999/xlink">
<g id="graph0" class="graph" transform="scale(1 1) rotate(0) translate(4 133)">
<title>QGaussLog&lt; dim &gt;</title>
<polygon fill="#ffffff" stroke="transparent" points="-4,4 -4,-133 106.7139,-133 106.7139,4 -4,4"/>
<!-- Node0 -->
<g id="node1" class="node">
<title>Node0</title>
<polygon fill="#bfbfbf" stroke="#000000" points="0,-.5 0,-18.5 102.7139,-18.5 102.7139,-.5 0,-.5"/>
<text text-anchor="middle" x="51.3569" y="-6.5" font-family="Helvetica,sans-Serif" font-size="10.00" fill="#000000">QGaussLog&lt; dim &gt;</text>
</g>
<!-- Node1 -->
<g id="node2" class="node">
<title>Node1</title>
<g id="a_node2"><a xlink:href="classQuadrature.html" target="_top" xlink:title="Quadrature\&lt; dim \&gt;">
<polygon fill="#ffffff" stroke="#000000" points="1.3892,-55.5 1.3892,-73.5 101.3247,-73.5 101.3247,-55.5 1.3892,-55.5"/>
<text text-anchor="middle" x="51.3569" y="-61.5" font-family="Helvetica,sans-Serif" font-size="10.00" fill="#000000">Quadrature&lt; dim &gt;</text>
</a>
</g>
</g>
<!-- Node1&#45;&gt;Node0 -->
<g id="edge1" class="edge">
<title>Node1&#45;&gt;Node0</title>
<path fill="none" stroke="#191970" d="M51.3569,-45.383C51.3569,-36.3738 51.3569,-26.0373 51.3569,-18.7795"/>
<polygon fill="#191970" stroke="#191970" points="47.857,-45.4178 51.3569,-55.4179 54.857,-45.4179 47.857,-45.4178"/>
</g>
<!-- Node2 -->
<g id="node3" class="node">
<title>Node2</title>
<g id="a_node3"><a xlink:href="classSubscriptor.html" target="_top" xlink:title="Subscriptor">
<polygon fill="#ffffff" stroke="#000000" points="18.0688,-110.5 18.0688,-128.5 84.645,-128.5 84.645,-110.5 18.0688,-110.5"/>
<text text-anchor="middle" x="51.3569" y="-116.5" font-family="Helvetica,sans-Serif" font-size="10.00" fill="#000000">Subscriptor</text>
</a>
</g>
</g>
<!-- Node2&#45;&gt;Node1 -->
<g id="edge2" class="edge">
<title>Node2&#45;&gt;Node1</title>
<path fill="none" stroke="#191970" d="M51.3569,-100.383C51.3569,-91.3738 51.3569,-81.0373 51.3569,-73.7795"/>
<polygon fill="#191970" stroke="#191970" points="47.857,-100.4178 51.3569,-110.4179 54.857,-100.4179 47.857,-100.4178"/>
</g>
</g>
</svg>
