<?xml version="1.0" encoding="UTF-8" standalone="no"?>
<!DOCTYPE svg PUBLIC "-//W3C//DTD SVG 1.1//EN"
 "http://www.w3.org/Graphics/SVG/1.1/DTD/svg11.dtd">
<!-- Generated by graphviz version 2.40.1 (20161225.0304)
 -->
<!-- Title: TrilinosWrappers::PreconditionIdentity Pages: 1 -->
<svg width="183pt" height="147pt"
 viewBox="0.00 0.00 182.97 147.00" xmlns="http://www.w3.org/2000/svg" xmlns:xlink="http://www.w3.org/1999/xlink">
<g id="graph0" class="graph" transform="scale(1 1) rotate(0) translate(4 143)">
<title>TrilinosWrappers::PreconditionIdentity</title>
<polygon fill="#ffffff" stroke="transparent" points="-4,4 -4,-143 178.9697,-143 178.9697,4 -4,4"/>
<!-- Node0 -->
<g id="node1" class="node">
<title>Node0</title>
<polygon fill="#bfbfbf" stroke="#000000" points="11.3965,-.5 11.3965,-28.5 163.5732,-28.5 163.5732,-.5 11.3965,-.5"/>
<text text-anchor="start" x="19.3965" y="-16.5" font-family="Helvetica,sans-Serif" font-size="10.00" fill="#000000">TrilinosWrappers::Precondition</text>
<text text-anchor="middle" x="87.4849" y="-6.5" font-family="Helvetica,sans-Serif" font-size="10.00" fill="#000000">Identity</text>
</g>
<!-- Node1 -->
<g id="node2" class="node">
<title>Node1</title>
<g id="a_node2"><a xlink:href="classTrilinosWrappers_1_1PreconditionBase.html" target="_top" xlink:title="TrilinosWrappers::PreconditionBase">
<polygon fill="#ffffff" stroke="#000000" points="0,-65.5 0,-83.5 174.9697,-83.5 174.9697,-65.5 0,-65.5"/>
<text text-anchor="middle" x="87.4849" y="-71.5" font-family="Helvetica,sans-Serif" font-size="10.00" fill="#000000">TrilinosWrappers::PreconditionBase</text>
</a>
</g>
</g>
<!-- Node1&#45;&gt;Node0 -->
<g id="edge1" class="edge">
<title>Node1&#45;&gt;Node0</title>
<path fill="none" stroke="#191970" d="M87.4849,-55.1865C87.4849,-46.6283 87.4849,-36.7354 87.4849,-28.8477"/>
<polygon fill="#191970" stroke="#191970" points="83.985,-55.3873 87.4849,-65.3873 90.985,-55.3873 83.985,-55.3873"/>
</g>
<!-- Node2 -->
<g id="node3" class="node">
<title>Node2</title>
<g id="a_node3"><a xlink:href="classSubscriptor.html" target="_top" xlink:title="Subscriptor">
<polygon fill="#ffffff" stroke="#000000" points="54.1968,-120.5 54.1968,-138.5 120.7729,-138.5 120.7729,-120.5 54.1968,-120.5"/>
<text text-anchor="middle" x="87.4849" y="-126.5" font-family="Helvetica,sans-Serif" font-size="10.00" fill="#000000">Subscriptor</text>
</a>
</g>
</g>
<!-- Node2&#45;&gt;Node1 -->
<g id="edge2" class="edge">
<title>Node2&#45;&gt;Node1</title>
<path fill="none" stroke="#191970" d="M87.4849,-110.383C87.4849,-101.3738 87.4849,-91.0373 87.4849,-83.7795"/>
<polygon fill="#191970" stroke="#191970" points="83.985,-110.4178 87.4849,-120.4179 90.985,-110.4179 83.985,-110.4178"/>
</g>
</g>
</svg>
