<?xml version="1.0" encoding="UTF-8" standalone="no"?>
<!DOCTYPE svg PUBLIC "-//W3C//DTD SVG 1.1//EN"
 "http://www.w3.org/Graphics/SVG/1.1/DTD/svg11.dtd">
<!-- Generated by graphviz version 2.40.1 (20161225.0304)
 -->
<!-- Title: parallel::distributed::Triangulation&lt; dim, spacedim &gt; Pages: 1 -->
<svg width="120pt" height="310pt"
 viewBox="0.00 0.00 120.35 310.00" xmlns="http://www.w3.org/2000/svg" xmlns:xlink="http://www.w3.org/1999/xlink">
<g id="graph0" class="graph" transform="scale(1 1) rotate(0) translate(4 306)">
<title>parallel::distributed::Triangulation&lt; dim, spacedim &gt;</title>
<polygon fill="#ffffff" stroke="transparent" points="-4,4 -4,-306 116.3525,-306 116.3525,4 -4,4"/>
<!-- Node0 -->
<g id="node1" class="node">
<title>Node0</title>
<polygon fill="#bfbfbf" stroke="#000000" points="2.9199,-75.5 2.9199,-113.5 109.4326,-113.5 109.4326,-75.5 2.9199,-75.5"/>
<text text-anchor="start" x="10.9199" y="-101.5" font-family="Helvetica,sans-Serif" font-size="10.00" fill="#000000">parallel::distributed</text>
<text text-anchor="start" x="10.9199" y="-91.5" font-family="Helvetica,sans-Serif" font-size="10.00" fill="#000000">::Triangulation&lt; dim,</text>
<text text-anchor="middle" x="56.1763" y="-81.5" font-family="Helvetica,sans-Serif" font-size="10.00" fill="#000000"> spacedim &gt;</text>
</g>
<!-- Node4 -->
<g id="node5" class="node">
<title>Node4</title>
<g id="a_node5"><a xlink:href="classparallel_1_1distributed_1_1Triangulation.html" target="_top" xlink:title="parallel::distributed\l::Triangulation\&lt; dim \&gt;">
<polygon fill="#ffffff" stroke="#000000" points="0,-.5 0,-28.5 112.3525,-28.5 112.3525,-.5 0,-.5"/>
<text text-anchor="start" x="8" y="-16.5" font-family="Helvetica,sans-Serif" font-size="10.00" fill="#000000">parallel::distributed</text>
<text text-anchor="middle" x="56.1763" y="-6.5" font-family="Helvetica,sans-Serif" font-size="10.00" fill="#000000">::Triangulation&lt; dim &gt;</text>
</a>
</g>
</g>
<!-- Node0&#45;&gt;Node4 -->
<g id="edge4" class="edge">
<title>Node0&#45;&gt;Node4</title>
<path fill="none" stroke="#ffa500" stroke-dasharray="5,2" d="M56.1763,-64.7707C56.1763,-52.4196 56.1763,-38.6672 56.1763,-28.6728"/>
<polygon fill="#ffa500" stroke="#ffa500" points="52.6764,-65.1342 56.1763,-75.1342 59.6764,-65.1343 52.6764,-65.1342"/>
<text text-anchor="middle" x="74.2402" y="-49" font-family="Helvetica,sans-Serif" font-size="10.00" fill="#000000"> &lt; dim &gt;</text>
</g>
<!-- Node1 -->
<g id="node2" class="node">
<title>Node1</title>
<g id="a_node2"><a xlink:href="classparallel_1_1Triangulation.html" target="_top" xlink:title="parallel::Triangulation\l\&lt; dim, spacedim \&gt;">
<polygon fill="#ffffff" stroke="#000000" points=".5542,-151.5 .5542,-179.5 111.7983,-179.5 111.7983,-151.5 .5542,-151.5"/>
<text text-anchor="start" x="8.5542" y="-167.5" font-family="Helvetica,sans-Serif" font-size="10.00" fill="#000000">parallel::Triangulation</text>
<text text-anchor="middle" x="56.1763" y="-157.5" font-family="Helvetica,sans-Serif" font-size="10.00" fill="#000000">&lt; dim, spacedim &gt;</text>
</a>
</g>
</g>
<!-- Node1&#45;&gt;Node0 -->
<g id="edge1" class="edge">
<title>Node1&#45;&gt;Node0</title>
<path fill="none" stroke="#191970" d="M56.1763,-141.1894C56.1763,-132.1757 56.1763,-122.0901 56.1763,-113.6055"/>
<polygon fill="#191970" stroke="#191970" points="52.6764,-141.4727 56.1763,-151.4727 59.6764,-141.4727 52.6764,-141.4727"/>
</g>
<!-- Node2 -->
<g id="node3" class="node">
<title>Node2</title>
<g id="a_node3"><a xlink:href="classTriangulation.html" target="_top" xlink:title="Triangulation\&lt; dim,\l spacedim \&gt;">
<polygon fill="#ffffff" stroke="#000000" points="5.6982,-217.5 5.6982,-245.5 106.6543,-245.5 106.6543,-217.5 5.6982,-217.5"/>
<text text-anchor="start" x="13.6982" y="-233.5" font-family="Helvetica,sans-Serif" font-size="10.00" fill="#000000">Triangulation&lt; dim,</text>
<text text-anchor="middle" x="56.1763" y="-223.5" font-family="Helvetica,sans-Serif" font-size="10.00" fill="#000000"> spacedim &gt;</text>
</a>
</g>
</g>
<!-- Node2&#45;&gt;Node1 -->
<g id="edge2" class="edge">
<title>Node2&#45;&gt;Node1</title>
<path fill="none" stroke="#191970" d="M56.1763,-207.0322C56.1763,-197.8606 56.1763,-187.7449 56.1763,-179.7931"/>
<polygon fill="#191970" stroke="#191970" points="52.6764,-207.1789 56.1763,-217.179 59.6764,-207.179 52.6764,-207.1789"/>
</g>
<!-- Node3 -->
<g id="node4" class="node">
<title>Node3</title>
<g id="a_node4"><a xlink:href="classSubscriptor.html" target="_top" xlink:title="Subscriptor">
<polygon fill="#ffffff" stroke="#000000" points="22.8882,-283.5 22.8882,-301.5 89.4644,-301.5 89.4644,-283.5 22.8882,-283.5"/>
<text text-anchor="middle" x="56.1763" y="-289.5" font-family="Helvetica,sans-Serif" font-size="10.00" fill="#000000">Subscriptor</text>
</a>
</g>
</g>
<!-- Node3&#45;&gt;Node2 -->
<g id="edge3" class="edge">
<title>Node3&#45;&gt;Node2</title>
<path fill="none" stroke="#191970" d="M56.1763,-273.2842C56.1763,-264.3664 56.1763,-253.9504 56.1763,-245.7488"/>
<polygon fill="#191970" stroke="#191970" points="52.6764,-273.4992 56.1763,-283.4992 59.6764,-273.4993 52.6764,-273.4992"/>
</g>
</g>
</svg>
