<?xml version="1.0" encoding="UTF-8" standalone="no"?>
<!DOCTYPE svg PUBLIC "-//W3C//DTD SVG 1.1//EN"
 "http://www.w3.org/Graphics/SVG/1.1/DTD/svg11.dtd">
<!-- Generated by graphviz version 2.40.1 (20161225.0304)
 -->
<!-- Title: MGTransferBlock&lt; number &gt; Pages: 1 -->
<svg width="296pt" height="214pt"
 viewBox="0.00 0.00 295.71 214.00" xmlns="http://www.w3.org/2000/svg" xmlns:xlink="http://www.w3.org/1999/xlink">
<g id="graph0" class="graph" transform="scale(1 1) rotate(0) translate(4 210)">
<title>MGTransferBlock&lt; number &gt;</title>
<polygon fill="#ffffff" stroke="transparent" points="-4,4 -4,-210 291.7061,-210 291.7061,4 -4,4"/>
<!-- Node0 -->
<g id="node1" class="node">
<title>Node0</title>
<polygon fill="#bfbfbf" stroke="#000000" points="80.3115,-.5 80.3115,-18.5 224.8809,-18.5 224.8809,-.5 80.3115,-.5"/>
<text text-anchor="middle" x="152.5962" y="-6.5" font-family="Helvetica,sans-Serif" font-size="10.00" fill="#000000">MGTransferBlock&lt; number &gt;</text>
</g>
<!-- Node1 -->
<g id="node2" class="node">
<title>Node1</title>
<g id="a_node2"><a xlink:href="classMGTransferBase.html" target="_top" xlink:title="MGTransferBase\&lt; BlockVector\l\&lt; number \&gt; \&gt;">
<polygon fill="#ffffff" stroke="#000000" points="0,-56.5 0,-84.5 153.1924,-84.5 153.1924,-56.5 0,-56.5"/>
<text text-anchor="start" x="8" y="-72.5" font-family="Helvetica,sans-Serif" font-size="10.00" fill="#000000">MGTransferBase&lt; BlockVector</text>
<text text-anchor="middle" x="76.5962" y="-62.5" font-family="Helvetica,sans-Serif" font-size="10.00" fill="#000000">&lt; number &gt; &gt;</text>
</a>
</g>
</g>
<!-- Node1&#45;&gt;Node0 -->
<g id="edge1" class="edge">
<title>Node1&#45;&gt;Node0</title>
<path fill="none" stroke="#191970" d="M102.0633,-50.0593C115.2301,-39.4912 130.6576,-27.1086 140.9707,-18.831"/>
<polygon fill="#191970" stroke="#191970" points="99.831,-47.363 94.2231,-56.3521 104.2127,-52.8221 99.831,-47.363"/>
</g>
<!-- Node2 -->
<g id="node3" class="node">
<title>Node2</title>
<g id="a_node3"><a xlink:href="classSubscriptor.html" target="_top" xlink:title="Subscriptor">
<polygon fill="#ffffff" stroke="#000000" points="39.3081,-187.5 39.3081,-205.5 105.8843,-205.5 105.8843,-187.5 39.3081,-187.5"/>
<text text-anchor="middle" x="72.5962" y="-193.5" font-family="Helvetica,sans-Serif" font-size="10.00" fill="#000000">Subscriptor</text>
</a>
</g>
</g>
<!-- Node2&#45;&gt;Node1 -->
<g id="edge2" class="edge">
<title>Node2&#45;&gt;Node1</title>
<path fill="none" stroke="#191970" d="M73.2092,-177.1897C74.0189,-151.6844 75.4261,-107.3578 76.1451,-84.7089"/>
<polygon fill="#191970" stroke="#191970" points="69.703,-177.3323 72.8839,-187.4384 76.6995,-177.5545 69.703,-177.3323"/>
</g>
<!-- Node3 -->
<g id="node4" class="node">
<title>Node3</title>
<g id="a_node4"><a xlink:href="classMGTransferBase.html" target="_top" xlink:title="MGTransferBase\&lt; VectorType \&gt;">
<polygon fill="#ffffff" stroke="#000000" points="89.0752,-131.5 89.0752,-149.5 248.1172,-149.5 248.1172,-131.5 89.0752,-131.5"/>
<text text-anchor="middle" x="168.5962" y="-137.5" font-family="Helvetica,sans-Serif" font-size="10.00" fill="#000000">MGTransferBase&lt; VectorType &gt;</text>
</a>
</g>
</g>
<!-- Node2&#45;&gt;Node3 -->
<g id="edge4" class="edge">
<title>Node2&#45;&gt;Node3</title>
<path fill="none" stroke="#191970" d="M97.5597,-181.938C115.1091,-171.7008 138.0441,-158.3221 153.0387,-149.5752"/>
<polygon fill="#191970" stroke="#191970" points="95.3229,-179.1908 88.4486,-187.2527 98.85,-185.2372 95.3229,-179.1908"/>
</g>
<!-- Node3&#45;&gt;Node1 -->
<g id="edge3" class="edge">
<title>Node3&#45;&gt;Node1</title>
<path fill="none" stroke="#ffa500" stroke-dasharray="5,2" d="M148.481,-125.195C132.6585,-113.1561 110.7782,-96.508 95.3247,-84.7499"/>
<polygon fill="#ffa500" stroke="#ffa500" points="146.4912,-128.0789 156.5688,-131.3487 150.7298,-122.5081 146.4912,-128.0789"/>
<text text-anchor="middle" x="193.5786" y="-105" font-family="Helvetica,sans-Serif" font-size="10.00" fill="#000000"> &lt; BlockVector&lt; number &gt; &gt;</text>
</g>
<!-- Node4 -->
<g id="node5" class="node">
<title>Node4</title>
<g id="a_node5"><a xlink:href="classMGTransferBlockBase.html" target="_top" xlink:title="MGTransferBlockBase">
<polygon fill="#ffffff" stroke="#000000" points="171.4863,-61.5 171.4863,-79.5 287.7061,-79.5 287.7061,-61.5 171.4863,-61.5"/>
<text text-anchor="middle" x="229.5962" y="-67.5" font-family="Helvetica,sans-Serif" font-size="10.00" fill="#000000">MGTransferBlockBase</text>
</a>
</g>
</g>
<!-- Node4&#45;&gt;Node0 -->
<g id="edge5" class="edge">
<title>Node4&#45;&gt;Node0</title>
<path fill="none" stroke="#8b1a1a" d="M210.3116,-55.2226C195.7262,-43.668 176.1929,-28.1935 164.0044,-18.5377"/>
<polygon fill="#8b1a1a" stroke="#8b1a1a" points="208.2228,-58.033 218.2346,-61.4992 212.5695,-52.5461 208.2228,-58.033"/>
</g>
</g>
</svg>
