<?xml version="1.0" encoding="UTF-8" standalone="no"?>
<!DOCTYPE svg PUBLIC "-//W3C//DTD SVG 1.1//EN"
 "http://www.w3.org/Graphics/SVG/1.1/DTD/svg11.dtd">
<!-- Generated by graphviz version 2.40.1 (20161225.0304)
 -->
<!-- Title: Vector&lt; Number &gt; Pages: 1 -->
<svg width="685pt" height="148pt"
 viewBox="0.00 0.00 684.55 148.00" xmlns="http://www.w3.org/2000/svg" xmlns:xlink="http://www.w3.org/1999/xlink">
<g id="graph0" class="graph" transform="scale(1 1) rotate(0) translate(4 144)">
<title>Vector&lt; Number &gt;</title>
<polygon fill="#ffffff" stroke="transparent" points="-4,4 -4,-144 680.5488,-144 680.5488,4 -4,4"/>
<!-- Node0 -->
<g id="node1" class="node">
<title>Node0</title>
<polygon fill="#bfbfbf" stroke="#000000" points="103.5762,-66.5 103.5762,-84.5 200.7334,-84.5 200.7334,-66.5 103.5762,-66.5"/>
<text text-anchor="middle" x="152.1548" y="-72.5" font-family="Helvetica,sans-Serif" font-size="10.00" fill="#000000">Vector&lt; Number &gt;</text>
</g>
<!-- Node2 -->
<g id="node3" class="node">
<title>Node2</title>
<g id="a_node3"><a xlink:href="classVectorView.html" target="_top" xlink:title="VectorView\&lt; Number \&gt;">
<polygon fill="#ffffff" stroke="#000000" points="360.3882,-121.5 360.3882,-139.5 479.0444,-139.5 479.0444,-121.5 360.3882,-121.5"/>
<text text-anchor="middle" x="419.7163" y="-127.5" font-family="Helvetica,sans-Serif" font-size="10.00" fill="#000000">VectorView&lt; Number &gt;</text>
</a>
</g>
</g>
<!-- Node0&#45;&gt;Node2 -->
<g id="edge2" class="edge">
<title>Node0&#45;&gt;Node2</title>
<path fill="none" stroke="#191970" d="M181.3628,-88.5778C192.8207,-93.2627 206.2049,-98.1966 218.7334,-101.5 265.4356,-113.814 319.7117,-121.2535 360.0803,-125.5092"/>
<polygon fill="#191970" stroke="#191970" points="182.434,-85.2311 171.8597,-84.5722 179.7151,-91.6815 182.434,-85.2311"/>
</g>
<!-- Node3 -->
<g id="node4" class="node">
<title>Node3</title>
<g id="a_node4"><a xlink:href="classVector.html" target="_top" xlink:title="Vector\&lt; double \&gt;">
<polygon fill="#ffffff" stroke="#000000" points="373.9063,-84.5 373.9063,-102.5 465.5264,-102.5 465.5264,-84.5 373.9063,-84.5"/>
<text text-anchor="middle" x="419.7163" y="-90.5" font-family="Helvetica,sans-Serif" font-size="10.00" fill="#000000">Vector&lt; double &gt;</text>
</a>
</g>
</g>
<!-- Node0&#45;&gt;Node3 -->
<g id="edge3" class="edge">
<title>Node0&#45;&gt;Node3</title>
<path fill="none" stroke="#ffa500" stroke-dasharray="5,2" d="M211.0379,-79.4613C259.9337,-82.7507 328.5243,-87.3651 373.5245,-90.3925"/>
<polygon fill="#ffa500" stroke="#ffa500" points="211.131,-75.9598 200.9186,-78.7805 210.6611,-82.944 211.131,-75.9598"/>
<text text-anchor="middle" x="272.7983" y="-89.5" font-family="Helvetica,sans-Serif" font-size="10.00" fill="#000000"> &lt; double &gt;</text>
</g>
<!-- Node4 -->
<g id="node5" class="node">
<title>Node4</title>
<g id="a_node5"><a xlink:href="classVector.html" target="_top" xlink:title="Vector\&lt; number \&gt;">
<polygon fill="#ffffff" stroke="#000000" points="371.9678,-47.5 371.9678,-65.5 467.4648,-65.5 467.4648,-47.5 371.9678,-47.5"/>
<text text-anchor="middle" x="419.7163" y="-53.5" font-family="Helvetica,sans-Serif" font-size="10.00" fill="#000000">Vector&lt; number &gt;</text>
</a>
</g>
</g>
<!-- Node0&#45;&gt;Node4 -->
<g id="edge4" class="edge">
<title>Node0&#45;&gt;Node4</title>
<path fill="none" stroke="#ffa500" stroke-dasharray="5,2" d="M210.983,-67.2743C213.6001,-66.9946 216.1927,-66.7345 218.7334,-66.5 270.9156,-61.6836 330.9488,-59.0782 371.7173,-57.7463"/>
<polygon fill="#ffa500" stroke="#ffa500" points="210.3622,-63.8224 200.8252,-68.4371 211.1584,-70.777 210.3622,-63.8224"/>
<text text-anchor="middle" x="272.7983" y="-68.5" font-family="Helvetica,sans-Serif" font-size="10.00" fill="#000000"> &lt; number &gt;</text>
</g>
<!-- Node6 -->
<g id="node7" class="node">
<title>Node6</title>
<g id="a_node7"><a xlink:href="classVector.html" target="_top" xlink:title="Vector\&lt; typename VectorType\l::value_type \&gt;">
<polygon fill="#ffffff" stroke="#000000" points="344.8633,-.5 344.8633,-28.5 494.5693,-28.5 494.5693,-.5 344.8633,-.5"/>
<text text-anchor="start" x="352.8633" y="-16.5" font-family="Helvetica,sans-Serif" font-size="10.00" fill="#000000">Vector&lt; typename VectorType</text>
<text text-anchor="middle" x="419.7163" y="-6.5" font-family="Helvetica,sans-Serif" font-size="10.00" fill="#000000">::value_type &gt;</text>
</a>
</g>
</g>
<!-- Node0&#45;&gt;Node6 -->
<g id="edge6" class="edge">
<title>Node0&#45;&gt;Node6</title>
<path fill="none" stroke="#ffa500" stroke-dasharray="5,2" d="M172.5435,-60.5021C185.1958,-51.9959 202.1541,-41.9843 218.7334,-36.5 259.0571,-23.1613 306.1626,-17.517 344.6306,-15.2733"/>
<polygon fill="#ffa500" stroke="#ffa500" points="170.3631,-57.7554 164.1587,-66.3435 174.3646,-63.499 170.3631,-57.7554"/>
<text text-anchor="start" x="218.7334" y="-48.5" font-family="Helvetica,sans-Serif" font-size="10.00" fill="#000000"> &lt; typename VectorType</text>
<text text-anchor="middle" x="272.7983" y="-38.5" font-family="Helvetica,sans-Serif" font-size="10.00" fill="#000000">::value_type &gt;</text>
</g>
<!-- Node1 -->
<g id="node2" class="node">
<title>Node1</title>
<g id="a_node2"><a xlink:href="classSubscriptor.html" target="_top" xlink:title="Subscriptor">
<polygon fill="#ffffff" stroke="#000000" points="0,-66.5 0,-84.5 66.5762,-84.5 66.5762,-66.5 0,-66.5"/>
<text text-anchor="middle" x="33.2881" y="-72.5" font-family="Helvetica,sans-Serif" font-size="10.00" fill="#000000">Subscriptor</text>
</a>
</g>
</g>
<!-- Node1&#45;&gt;Node0 -->
<g id="edge1" class="edge">
<title>Node1&#45;&gt;Node0</title>
<path fill="none" stroke="#191970" d="M76.945,-75.5C85.5698,-75.5 94.6725,-75.5 103.4521,-75.5"/>
<polygon fill="#191970" stroke="#191970" points="76.7154,-72.0001 66.7154,-75.5 76.7154,-79.0001 76.7154,-72.0001"/>
</g>
<!-- Node5 -->
<g id="node6" class="node">
<title>Node5</title>
<g id="a_node6"><a xlink:href="classSwappableVector.html" target="_top" xlink:title="SwappableVector\&lt; number \&gt;">
<polygon fill="#ffffff" stroke="#000000" points="531.5693,-47.5 531.5693,-65.5 676.5488,-65.5 676.5488,-47.5 531.5693,-47.5"/>
<text text-anchor="middle" x="604.0591" y="-53.5" font-family="Helvetica,sans-Serif" font-size="10.00" fill="#000000">SwappableVector&lt; number &gt;</text>
</a>
</g>
</g>
<!-- Node4&#45;&gt;Node5 -->
<g id="edge5" class="edge">
<title>Node4&#45;&gt;Node5</title>
<path fill="none" stroke="#191970" d="M477.9594,-56.5C494.8949,-56.5 513.6065,-56.5 531.3157,-56.5"/>
<polygon fill="#191970" stroke="#191970" points="477.669,-53.0001 467.669,-56.5 477.6689,-60.0001 477.669,-53.0001"/>
</g>
</g>
</svg>
