<?xml version="1.0" encoding="UTF-8" standalone="no"?>
<!DOCTYPE svg PUBLIC "-//W3C//DTD SVG 1.1//EN"
 "http://www.w3.org/Graphics/SVG/1.1/DTD/svg11.dtd">
<!-- Generated by graphviz version 2.40.1 (20161225.0304)
 -->
<!-- Title: FE_Q_Bubbles&lt; dim, spacedim &gt; Pages: 1 -->
<svg width="1267pt" height="99pt"
 viewBox="0.00 0.00 1267.14 99.00" xmlns="http://www.w3.org/2000/svg" xmlns:xlink="http://www.w3.org/1999/xlink">
<g id="graph0" class="graph" transform="scale(1 1) rotate(0) translate(4 95)">
<title>FE_Q_Bubbles&lt; dim, spacedim &gt;</title>
<polygon fill="#ffffff" stroke="transparent" points="-4,4 -4,-95 1263.1367,-95 1263.1367,4 -4,4"/>
<!-- Node0 -->
<g id="node1" class="node">
<title>Node0</title>
<polygon fill="#bfbfbf" stroke="#000000" points="1147.8096,-23.5 1147.8096,-51.5 1259.1367,-51.5 1259.1367,-23.5 1147.8096,-23.5"/>
<text text-anchor="start" x="1155.8096" y="-39.5" font-family="Helvetica,sans-Serif" font-size="10.00" fill="#000000">FE_Q_Bubbles&lt; dim,</text>
<text text-anchor="middle" x="1203.4731" y="-29.5" font-family="Helvetica,sans-Serif" font-size="10.00" fill="#000000"> spacedim &gt;</text>
</g>
<!-- Node1 -->
<g id="node2" class="node">
<title>Node1</title>
<g id="a_node2"><a xlink:href="classFE__Q__Base.html" target="_top" xlink:title="FE_Q_Base\&lt; TensorProduct\lPolynomialsBubbles\&lt; dim\l \&gt;, dim, spacedim \&gt;">
<polygon fill="#ffffff" stroke="#000000" points="967.417,-18.5 967.417,-56.5 1110.8096,-56.5 1110.8096,-18.5 967.417,-18.5"/>
<text text-anchor="start" x="975.417" y="-44.5" font-family="Helvetica,sans-Serif" font-size="10.00" fill="#000000">FE_Q_Base&lt; TensorProduct</text>
<text text-anchor="start" x="975.417" y="-34.5" font-family="Helvetica,sans-Serif" font-size="10.00" fill="#000000">PolynomialsBubbles&lt; dim</text>
<text text-anchor="middle" x="1039.1133" y="-24.5" font-family="Helvetica,sans-Serif" font-size="10.00" fill="#000000"> &gt;, dim, spacedim &gt;</text>
</a>
</g>
</g>
<!-- Node1&#45;&gt;Node0 -->
<g id="edge1" class="edge">
<title>Node1&#45;&gt;Node0</title>
<path fill="none" stroke="#191970" d="M1121.2964,-37.5C1130.2556,-37.5 1139.2147,-37.5 1147.7478,-37.5"/>
<polygon fill="#191970" stroke="#191970" points="1121.2039,-34.0001 1111.2039,-37.5 1121.2039,-41.0001 1121.2039,-34.0001"/>
</g>
<!-- Node2 -->
<g id="node3" class="node">
<title>Node2</title>
<g id="a_node3"><a xlink:href="classFE__Poly.html" target="_top" xlink:title="FE_Poly\&lt; TensorProductPolynomials\lBubbles\&lt; dim \&gt;, dim, spacedim \&gt;">
<polygon fill="#ffffff" stroke="#000000" points="602.6631,-47.5 602.6631,-75.5 783.2871,-75.5 783.2871,-47.5 602.6631,-47.5"/>
<text text-anchor="start" x="610.6631" y="-63.5" font-family="Helvetica,sans-Serif" font-size="10.00" fill="#000000">FE_Poly&lt; TensorProductPolynomials</text>
<text text-anchor="middle" x="692.9751" y="-53.5" font-family="Helvetica,sans-Serif" font-size="10.00" fill="#000000">Bubbles&lt; dim &gt;, dim, spacedim &gt;</text>
</a>
</g>
</g>
<!-- Node2&#45;&gt;Node1 -->
<g id="edge2" class="edge">
<title>Node2&#45;&gt;Node1</title>
<path fill="none" stroke="#191970" d="M793.7283,-55.094C841.0034,-52.0181 898.1091,-48.2026 949.417,-44.5 955.1813,-44.084 961.153,-43.6421 967.1518,-43.1903"/>
<polygon fill="#191970" stroke="#191970" points="793.2391,-51.6183 783.4868,-55.7587 793.6925,-58.6036 793.2391,-51.6183"/>
</g>
<!-- Node3 -->
<g id="node4" class="node">
<title>Node3</title>
<g id="a_node4"><a xlink:href="classFiniteElement.html" target="_top" xlink:title="FiniteElement\&lt; dim,\l spacedim \&gt;">
<polygon fill="#ffffff" stroke="#000000" points="141.1006,-46.5 141.1006,-74.5 245.748,-74.5 245.748,-46.5 141.1006,-46.5"/>
<text text-anchor="start" x="149.1006" y="-62.5" font-family="Helvetica,sans-Serif" font-size="10.00" fill="#000000">FiniteElement&lt; dim,</text>
<text text-anchor="middle" x="193.4243" y="-52.5" font-family="Helvetica,sans-Serif" font-size="10.00" fill="#000000"> spacedim &gt;</text>
</a>
</g>
</g>
<!-- Node3&#45;&gt;Node2 -->
<g id="edge3" class="edge">
<title>Node3&#45;&gt;Node2</title>
<path fill="none" stroke="#191970" d="M256.0798,-65.1264C258.6696,-65.2633 261.2337,-65.3889 263.748,-65.5 406.2441,-71.7982 442.1022,-73.1019 584.6631,-68.5 590.5015,-68.3115 596.5142,-68.0661 602.5733,-67.7802"/>
<polygon fill="#191970" stroke="#191970" points="256.1999,-61.6276 246.0156,-64.5484 255.7985,-68.6161 256.1999,-61.6276"/>
</g>
<!-- Node6 -->
<g id="node7" class="node">
<title>Node6</title>
<g id="a_node7"><a xlink:href="classFE__Poly.html" target="_top" xlink:title="FE_Poly\&lt; PolynomialType,\l dim, spacedim \&gt;">
<polygon fill="#ffffff" stroke="#000000" points="282.748,-25.5 282.748,-53.5 418.5332,-53.5 418.5332,-25.5 282.748,-25.5"/>
<text text-anchor="start" x="290.748" y="-41.5" font-family="Helvetica,sans-Serif" font-size="10.00" fill="#000000">FE_Poly&lt; PolynomialType,</text>
<text text-anchor="middle" x="350.6406" y="-31.5" font-family="Helvetica,sans-Serif" font-size="10.00" fill="#000000"> dim, spacedim &gt;</text>
</a>
</g>
</g>
<!-- Node3&#45;&gt;Node6 -->
<g id="edge7" class="edge">
<title>Node3&#45;&gt;Node6</title>
<path fill="none" stroke="#191970" d="M255.9073,-52.1539C264.6713,-50.9833 273.7148,-49.7753 282.5762,-48.5916"/>
<polygon fill="#191970" stroke="#191970" points="255.2236,-48.7141 245.7751,-53.5073 256.1505,-55.6524 255.2236,-48.7141"/>
</g>
<!-- Node4 -->
<g id="node5" class="node">
<title>Node4</title>
<g id="a_node5"><a xlink:href="classSubscriptor.html" target="_top" xlink:title="Subscriptor">
<polygon fill="#ffffff" stroke="#000000" points="18.7622,-72.5 18.7622,-90.5 85.3384,-90.5 85.3384,-72.5 18.7622,-72.5"/>
<text text-anchor="middle" x="52.0503" y="-78.5" font-family="Helvetica,sans-Serif" font-size="10.00" fill="#000000">Subscriptor</text>
</a>
</g>
</g>
<!-- Node4&#45;&gt;Node3 -->
<g id="edge4" class="edge">
<title>Node4&#45;&gt;Node3</title>
<path fill="none" stroke="#191970" d="M95.6606,-75.022C110.0246,-72.8884 126.1458,-70.4937 141.091,-68.2737"/>
<polygon fill="#191970" stroke="#191970" points="94.9311,-71.5919 85.554,-76.5233 95.9597,-78.5159 94.9311,-71.5919"/>
</g>
<!-- Node5 -->
<g id="node6" class="node">
<title>Node5</title>
<g id="a_node6"><a xlink:href="classFiniteElementData.html" target="_top" xlink:title="FiniteElementData\&lt;\l dim \&gt;">
<polygon fill="#ffffff" stroke="#000000" points="0,-25.5 0,-53.5 104.1006,-53.5 104.1006,-25.5 0,-25.5"/>
<text text-anchor="start" x="8" y="-41.5" font-family="Helvetica,sans-Serif" font-size="10.00" fill="#000000">FiniteElementData&lt;</text>
<text text-anchor="middle" x="52.0503" y="-31.5" font-family="Helvetica,sans-Serif" font-size="10.00" fill="#000000"> dim &gt;</text>
</a>
</g>
</g>
<!-- Node5&#45;&gt;Node3 -->
<g id="edge5" class="edge">
<title>Node5&#45;&gt;Node3</title>
<path fill="none" stroke="#191970" d="M114.2377,-48.7374C123.1434,-50.0603 132.2318,-51.4103 140.9263,-52.7018"/>
<polygon fill="#191970" stroke="#191970" points="114.6968,-45.2673 104.2911,-47.26 113.6683,-52.1914 114.6968,-45.2673"/>
</g>
<!-- Node6&#45;&gt;Node2 -->
<g id="edge6" class="edge">
<title>Node6&#45;&gt;Node2</title>
<path fill="none" stroke="#ffa500" stroke-dasharray="5,2" d="M428.6721,-40.9199C474.2172,-42.1434 532.7556,-44.3936 584.6631,-48.5 590.5159,-48.963 596.5395,-49.5045 602.6067,-50.0987"/>
<polygon fill="#ffa500" stroke="#ffa500" points="428.6566,-37.4184 418.5698,-40.6596 428.4762,-44.4161 428.6566,-37.4184"/>
<text text-anchor="start" x="436.5332" y="-60.5" font-family="Helvetica,sans-Serif" font-size="10.00" fill="#000000"> &lt; TensorProductPolynomials</text>
<text text-anchor="middle" x="510.5981" y="-50.5" font-family="Helvetica,sans-Serif" font-size="10.00" fill="#000000">Bubbles&lt; dim &gt;, dim, spacedim &gt;</text>
</g>
<!-- Node7 -->
<g id="node8" class="node">
<title>Node7</title>
<g id="a_node8"><a xlink:href="classFE__Q__Base.html" target="_top" xlink:title="FE_Q_Base\&lt; PolynomialType,\l dim, spacedim \&gt;">
<polygon fill="#ffffff" stroke="#000000" points="616.7427,-.5 616.7427,-28.5 769.2075,-28.5 769.2075,-.5 616.7427,-.5"/>
<text text-anchor="start" x="624.7427" y="-16.5" font-family="Helvetica,sans-Serif" font-size="10.00" fill="#000000">FE_Q_Base&lt; PolynomialType,</text>
<text text-anchor="middle" x="692.9751" y="-6.5" font-family="Helvetica,sans-Serif" font-size="10.00" fill="#000000"> dim, spacedim &gt;</text>
</a>
</g>
</g>
<!-- Node6&#45;&gt;Node7 -->
<g id="edge9" class="edge">
<title>Node6&#45;&gt;Node7</title>
<path fill="none" stroke="#191970" d="M428.9693,-33.7798C485.299,-29.6662 560.8622,-24.1479 616.7135,-20.0692"/>
<polygon fill="#191970" stroke="#191970" points="428.4027,-30.3118 418.6842,-34.5309 428.9126,-37.2932 428.4027,-30.3118"/>
</g>
<!-- Node7&#45;&gt;Node1 -->
<g id="edge8" class="edge">
<title>Node7&#45;&gt;Node1</title>
<path fill="none" stroke="#ffa500" stroke-dasharray="5,2" d="M779.4992,-15.6154C829.2811,-16.8216 892.9646,-19.3228 949.417,-24.5 955.2146,-25.0317 961.21,-25.6813 967.225,-26.4035"/>
<polygon fill="#ffa500" stroke="#ffa500" points="779.4927,-12.1144 769.415,-15.384 779.3321,-19.1126 779.4927,-12.1144"/>
<text text-anchor="start" x="801.2871" y="-36.5" font-family="Helvetica,sans-Serif" font-size="10.00" fill="#000000"> &lt; TensorProductPolynomials</text>
<text text-anchor="middle" x="875.3521" y="-26.5" font-family="Helvetica,sans-Serif" font-size="10.00" fill="#000000">Bubbles&lt; dim &gt;, dim, spacedim &gt;</text>
</g>
</g>
</svg>
