<?xml version="1.0" encoding="UTF-8" standalone="no"?>
<!DOCTYPE svg PUBLIC "-//W3C//DTD SVG 1.1//EN"
 "http://www.w3.org/Graphics/SVG/1.1/DTD/svg11.dtd">
<!-- Generated by graphviz version 2.40.1 (20161225.0304)
 -->
<!-- Title: TransposeTable&lt; T &gt; Pages: 1 -->
<svg width="1226pt" height="93pt"
 viewBox="0.00 0.00 1226.11 93.00" xmlns="http://www.w3.org/2000/svg" xmlns:xlink="http://www.w3.org/1999/xlink">
<g id="graph0" class="graph" transform="scale(1 1) rotate(0) translate(4 89)">
<title>TransposeTable&lt; T &gt;</title>
<polygon fill="#ffffff" stroke="transparent" points="-4,4 -4,-89 1222.1094,-89 1222.1094,4 -4,4"/>
<!-- Node0 -->
<g id="node1" class="node">
<title>Node0</title>
<polygon fill="#bfbfbf" stroke="#000000" points="408.7471,-29.5 408.7471,-47.5 518.5264,-47.5 518.5264,-29.5 408.7471,-29.5"/>
<text text-anchor="middle" x="463.6367" y="-35.5" font-family="Helvetica,sans-Serif" font-size="10.00" fill="#000000">TransposeTable&lt; T &gt;</text>
</g>
<!-- Node4 -->
<g id="node5" class="node">
<title>Node4</title>
<g id="a_node5"><a xlink:href="classLAPACKFullMatrix.html" target="_top" xlink:title="LAPACKFullMatrix\&lt; inverse\l_type \&gt;">
<polygon fill="#ffffff" stroke="#000000" points="1078.916,-56.5 1078.916,-84.5 1217.8311,-84.5 1217.8311,-56.5 1078.916,-56.5"/>
<text text-anchor="start" x="1086.916" y="-72.5" font-family="Helvetica,sans-Serif" font-size="10.00" fill="#000000">LAPACKFullMatrix&lt; inverse</text>
<text text-anchor="middle" x="1148.3735" y="-62.5" font-family="Helvetica,sans-Serif" font-size="10.00" fill="#000000">_type &gt;</text>
</a>
</g>
</g>
<!-- Node0&#45;&gt;Node4 -->
<g id="edge5" class="edge">
<title>Node0&#45;&gt;Node4</title>
<path fill="none" stroke="#191970" d="M515.9073,-49.3243C522.8208,-50.5253 529.83,-51.6274 536.5264,-52.5 568.2997,-56.6405 576.4514,-55.7804 608.4473,-57.5 760.3963,-65.6666 798.4382,-67.6106 950.5791,-70.5 993.1522,-71.3085 1040.8889,-71.3338 1078.7986,-71.1449"/>
<polygon fill="#191970" stroke="#191970" points="516.3584,-45.8491 505.8944,-47.5092 515.1097,-52.7369 516.3584,-45.8491"/>
</g>
<!-- Node5 -->
<g id="node6" class="node">
<title>Node5</title>
<g id="a_node6"><a xlink:href="classLAPACKFullMatrix.html" target="_top" xlink:title="LAPACKFullMatrix\&lt; Inverse\lNumberType \&gt;">
<polygon fill="#ffffff" stroke="#000000" points="1078.6377,-.5 1078.6377,-28.5 1218.1094,-28.5 1218.1094,-.5 1078.6377,-.5"/>
<text text-anchor="start" x="1086.6377" y="-16.5" font-family="Helvetica,sans-Serif" font-size="10.00" fill="#000000">LAPACKFullMatrix&lt; Inverse</text>
<text text-anchor="middle" x="1148.3735" y="-6.5" font-family="Helvetica,sans-Serif" font-size="10.00" fill="#000000">NumberType &gt;</text>
</a>
</g>
</g>
<!-- Node0&#45;&gt;Node5 -->
<g id="edge6" class="edge">
<title>Node0&#45;&gt;Node5</title>
<path fill="none" stroke="#191970" d="M528.8731,-28.2669C553.7158,-24.8108 582.3277,-21.3596 608.4473,-19.5 776.7554,-7.5172 975.3116,-9.9133 1078.3705,-12.3921"/>
<polygon fill="#191970" stroke="#191970" points="528.2447,-24.8209 518.8358,-29.6916 529.2284,-31.7515 528.2447,-24.8209"/>
</g>
<!-- Node6 -->
<g id="node7" class="node">
<title>Node6</title>
<g id="a_node7"><a xlink:href="classTransposeTable.html" target="_top" xlink:title="TransposeTable\&lt; number \&gt;">
<polygon fill="#ffffff" stroke="#000000" points="608.4473,-29.5 608.4473,-47.5 746.376,-47.5 746.376,-29.5 608.4473,-29.5"/>
<text text-anchor="middle" x="677.4116" y="-35.5" font-family="Helvetica,sans-Serif" font-size="10.00" fill="#000000">TransposeTable&lt; number &gt;</text>
</a>
</g>
</g>
<!-- Node0&#45;&gt;Node6 -->
<g id="edge7" class="edge">
<title>Node0&#45;&gt;Node6</title>
<path fill="none" stroke="#ffa500" stroke-dasharray="5,2" d="M528.8656,-38.5C554.0337,-38.5 582.8549,-38.5 608.3717,-38.5"/>
<polygon fill="#ffa500" stroke="#ffa500" points="528.6891,-35.0001 518.6891,-38.5 528.689,-42.0001 528.6891,-35.0001"/>
<text text-anchor="middle" x="563.4868" y="-40.5" font-family="Helvetica,sans-Serif" font-size="10.00" fill="#000000"> &lt; number &gt;</text>
</g>
<!-- Node1 -->
<g id="node2" class="node">
<title>Node1</title>
<g id="a_node2"><a xlink:href="classTableBase.html" target="_top" xlink:title="TableBase\&lt; 2, T \&gt;">
<polygon fill="#ffffff" stroke="#000000" points="274.9365,-29.5 274.9365,-47.5 371.7471,-47.5 371.7471,-29.5 274.9365,-29.5"/>
<text text-anchor="middle" x="323.3418" y="-35.5" font-family="Helvetica,sans-Serif" font-size="10.00" fill="#000000">TableBase&lt; 2, T &gt;</text>
</a>
</g>
</g>
<!-- Node1&#45;&gt;Node0 -->
<g id="edge1" class="edge">
<title>Node1&#45;&gt;Node0</title>
<path fill="none" stroke="#191970" d="M382.0759,-38.5C390.7672,-38.5 399.6988,-38.5 408.3175,-38.5"/>
<polygon fill="#191970" stroke="#191970" points="382.0165,-35.0001 372.0164,-38.5 382.0164,-42.0001 382.0165,-35.0001"/>
</g>
<!-- Node2 -->
<g id="node3" class="node">
<title>Node2</title>
<g id="a_node3"><a xlink:href="classSubscriptor.html" target="_top" xlink:title="Subscriptor">
<polygon fill="#ffffff" stroke="#000000" points="0,-26.5 0,-44.5 66.5762,-44.5 66.5762,-26.5 0,-26.5"/>
<text text-anchor="middle" x="33.2881" y="-32.5" font-family="Helvetica,sans-Serif" font-size="10.00" fill="#000000">Subscriptor</text>
</a>
</g>
</g>
<!-- Node2&#45;&gt;Node1 -->
<g id="edge2" class="edge">
<title>Node2&#45;&gt;Node1</title>
<path fill="none" stroke="#191970" d="M76.7944,-40.0357C79.4256,-40.2186 82.035,-40.3764 84.5762,-40.5 161.0904,-44.2208 180.3406,-41.6532 256.9365,-40.5 262.7028,-40.4132 268.7498,-40.284 274.7479,-40.1323"/>
<polygon fill="#191970" stroke="#191970" points="76.883,-36.5317 66.6362,-39.225 76.326,-43.5095 76.883,-36.5317"/>
</g>
<!-- Node3 -->
<g id="node4" class="node">
<title>Node3</title>
<g id="a_node4"><a xlink:href="classTableBase.html" target="_top" xlink:title="TableBase\&lt; N, T \&gt;">
<polygon fill="#ffffff" stroke="#000000" points="103.5762,-7.5 103.5762,-25.5 202.0469,-25.5 202.0469,-7.5 103.5762,-7.5"/>
<text text-anchor="middle" x="152.8115" y="-13.5" font-family="Helvetica,sans-Serif" font-size="10.00" fill="#000000">TableBase&lt; N, T &gt;</text>
</a>
</g>
</g>
<!-- Node2&#45;&gt;Node3 -->
<g id="edge4" class="edge">
<title>Node2&#45;&gt;Node3</title>
<path fill="none" stroke="#191970" d="M76.469,-28.6358C85.13,-27.259 94.2955,-25.802 103.1558,-24.3935"/>
<polygon fill="#191970" stroke="#191970" points="75.9085,-25.1808 66.582,-30.2074 77.0075,-32.094 75.9085,-25.1808"/>
</g>
<!-- Node3&#45;&gt;Node1 -->
<g id="edge3" class="edge">
<title>Node3&#45;&gt;Node1</title>
<path fill="none" stroke="#ffa500" stroke-dasharray="5,2" d="M212.2689,-24.1706C232.6796,-26.8037 255.2687,-29.7179 274.7171,-32.227"/>
<polygon fill="#ffa500" stroke="#ffa500" points="212.5016,-20.6717 202.1359,-22.8633 211.6059,-27.6141 212.5016,-20.6717"/>
<text text-anchor="middle" x="238.4917" y="-31.5" font-family="Helvetica,sans-Serif" font-size="10.00" fill="#000000"> &lt; 2, T &gt;</text>
</g>
<!-- Node7 -->
<g id="node8" class="node">
<title>Node7</title>
<g id="a_node8"><a xlink:href="classLAPACKFullMatrix.html" target="_top" xlink:title="LAPACKFullMatrix\&lt; number \&gt;">
<polygon fill="#ffffff" stroke="#000000" points="783.376,-29.5 783.376,-47.5 932.5791,-47.5 932.5791,-29.5 783.376,-29.5"/>
<text text-anchor="middle" x="857.9775" y="-35.5" font-family="Helvetica,sans-Serif" font-size="10.00" fill="#000000">LAPACKFullMatrix&lt; number &gt;</text>
</a>
</g>
</g>
<!-- Node6&#45;&gt;Node7 -->
<g id="edge8" class="edge">
<title>Node6&#45;&gt;Node7</title>
<path fill="none" stroke="#191970" d="M756.7195,-38.5C765.5418,-38.5 774.5059,-38.5 783.2683,-38.5"/>
<polygon fill="#191970" stroke="#191970" points="756.4488,-35.0001 746.4488,-38.5 756.4487,-42.0001 756.4488,-35.0001"/>
</g>
<!-- Node7&#45;&gt;Node4 -->
<g id="edge10" class="edge">
<title>Node7&#45;&gt;Node4</title>
<path fill="none" stroke="#ffa500" stroke-dasharray="5,2" d="M942.6444,-47.5889C978.9756,-51.5154 1021.8958,-56.1893 1060.6377,-60.5 1066.4276,-61.1442 1072.4317,-61.8175 1078.459,-62.4971"/>
<polygon fill="#ffa500" stroke="#ffa500" points="942.8988,-44.0961 932.5808,-46.5021 942.1472,-51.0556 942.8988,-44.0961"/>
<text text-anchor="middle" x="1005.6084" y="-62.5" font-family="Helvetica,sans-Serif" font-size="10.00" fill="#000000"> &lt; inverse_type &gt;</text>
</g>
<!-- Node7&#45;&gt;Node5 -->
<g id="edge9" class="edge">
<title>Node7&#45;&gt;Node5</title>
<path fill="none" stroke="#ffa500" stroke-dasharray="5,2" d="M940.7514,-28.4488C944.0692,-28.1152 947.3548,-27.7973 950.5791,-27.5 992.9002,-23.5983 1040.4209,-20.4357 1078.275,-18.207"/>
<polygon fill="#ffa500" stroke="#ffa500" points="940.3149,-24.9752 930.7309,-29.4914 941.0394,-31.9376 940.3149,-24.9752"/>
<text text-anchor="middle" x="1005.6084" y="-29.5" font-family="Helvetica,sans-Serif" font-size="10.00" fill="#000000"> &lt; InverseNumberType &gt;</text>
</g>
</g>
</svg>
