<?xml version="1.0" encoding="UTF-8" standalone="no"?>
<!DOCTYPE svg PUBLIC "-//W3C//DTD SVG 1.1//EN"
 "http://www.w3.org/Graphics/SVG/1.1/DTD/svg11.dtd">
<!-- Generated by graphviz version 2.40.1 (20161225.0304)
 -->
<!-- Title: FE_RaviartThomas&lt; dim &gt; Pages: 1 -->
<svg width="298pt" height="319pt"
 viewBox="0.00 0.00 297.96 319.00" xmlns="http://www.w3.org/2000/svg" xmlns:xlink="http://www.w3.org/1999/xlink">
<g id="graph0" class="graph" transform="scale(1 1) rotate(0) translate(4 315)">
<title>FE_RaviartThomas&lt; dim &gt;</title>
<polygon fill="#ffffff" stroke="transparent" points="-4,4 -4,-315 293.9565,-315 293.9565,4 -4,4"/>
<!-- Node0 -->
<g id="node1" class="node">
<title>Node0</title>
<polygon fill="#bfbfbf" stroke="#000000" points="73.9248,-.5 73.9248,-18.5 209.4121,-18.5 209.4121,-.5 73.9248,-.5"/>
<text text-anchor="middle" x="141.6685" y="-6.5" font-family="Helvetica,sans-Serif" font-size="10.00" fill="#000000">FE_RaviartThomas&lt; dim &gt;</text>
</g>
<!-- Node1 -->
<g id="node2" class="node">
<title>Node1</title>
<g id="a_node2"><a xlink:href="classFE__PolyTensor.html" target="_top" xlink:title="FE_PolyTensor\&lt; Polynomials\lRaviartThomas\&lt; dim \&gt;, dim \&gt;">
<polygon fill="#ffffff" stroke="#000000" points="67.9507,-56.5 67.9507,-84.5 215.3862,-84.5 215.3862,-56.5 67.9507,-56.5"/>
<text text-anchor="start" x="75.9507" y="-72.5" font-family="Helvetica,sans-Serif" font-size="10.00" fill="#000000">FE_PolyTensor&lt; Polynomials</text>
<text text-anchor="middle" x="141.6685" y="-62.5" font-family="Helvetica,sans-Serif" font-size="10.00" fill="#000000">RaviartThomas&lt; dim &gt;, dim &gt;</text>
</a>
</g>
</g>
<!-- Node1&#45;&gt;Node0 -->
<g id="edge1" class="edge">
<title>Node1&#45;&gt;Node0</title>
<path fill="none" stroke="#191970" d="M141.6685,-46.1001C141.6685,-36.5157 141.6685,-26.0935 141.6685,-18.831"/>
<polygon fill="#191970" stroke="#191970" points="138.1686,-46.352 141.6685,-56.3521 145.1686,-46.3521 138.1686,-46.352"/>
</g>
<!-- Node2 -->
<g id="node3" class="node">
<title>Node2</title>
<g id="a_node3"><a xlink:href="classFiniteElement.html" target="_top" xlink:title="FiniteElement\&lt; dim,\l dim \&gt;">
<polygon fill="#ffffff" stroke="#000000" points="161.3447,-141.5 161.3447,-169.5 265.9922,-169.5 265.9922,-141.5 161.3447,-141.5"/>
<text text-anchor="start" x="169.3447" y="-157.5" font-family="Helvetica,sans-Serif" font-size="10.00" fill="#000000">FiniteElement&lt; dim,</text>
<text text-anchor="middle" x="213.6685" y="-147.5" font-family="Helvetica,sans-Serif" font-size="10.00" fill="#000000"> dim &gt;</text>
</a>
</g>
</g>
<!-- Node2&#45;&gt;Node1 -->
<g id="edge2" class="edge">
<title>Node2&#45;&gt;Node1</title>
<path fill="none" stroke="#191970" d="M212.3773,-131.086C210.8388,-121.5497 207.7492,-111.0064 201.6685,-103 195.8647,-95.3583 187.7269,-89.2987 179.313,-84.585"/>
<polygon fill="#191970" stroke="#191970" points="208.924,-131.6957 213.5319,-141.236 215.8791,-130.9045 208.924,-131.6957"/>
</g>
<!-- Node3 -->
<g id="node4" class="node">
<title>Node3</title>
<g id="a_node4"><a xlink:href="classSubscriptor.html" target="_top" xlink:title="Subscriptor">
<polygon fill="#ffffff" stroke="#000000" points="223.3804,-287.5 223.3804,-305.5 289.9565,-305.5 289.9565,-287.5 223.3804,-287.5"/>
<text text-anchor="middle" x="256.6685" y="-293.5" font-family="Helvetica,sans-Serif" font-size="10.00" fill="#000000">Subscriptor</text>
</a>
</g>
</g>
<!-- Node3&#45;&gt;Node2 -->
<g id="edge3" class="edge">
<title>Node3&#45;&gt;Node2</title>
<path fill="none" stroke="#191970" d="M250.9527,-277.6409C244.3872,-255.9933 233.2817,-219.4243 223.6685,-188 221.8379,-182.0161 219.8088,-175.4156 218.0594,-169.735"/>
<polygon fill="#191970" stroke="#191970" points="247.6894,-278.9405 253.9403,-287.4948 254.3882,-276.9094 247.6894,-278.9405"/>
</g>
<!-- Node5 -->
<g id="node6" class="node">
<title>Node5</title>
<g id="a_node6"><a xlink:href="classFiniteElement.html" target="_top" xlink:title="FiniteElement\&lt; dim,\l spacedim \&gt;">
<polygon fill="#ffffff" stroke="#000000" points="77.3447,-216.5 77.3447,-244.5 181.9922,-244.5 181.9922,-216.5 77.3447,-216.5"/>
<text text-anchor="start" x="85.3447" y="-232.5" font-family="Helvetica,sans-Serif" font-size="10.00" fill="#000000">FiniteElement&lt; dim,</text>
<text text-anchor="middle" x="129.6685" y="-222.5" font-family="Helvetica,sans-Serif" font-size="10.00" fill="#000000"> spacedim &gt;</text>
</a>
</g>
</g>
<!-- Node3&#45;&gt;Node5 -->
<g id="edge6" class="edge">
<title>Node3&#45;&gt;Node5</title>
<path fill="none" stroke="#191970" d="M230.3937,-282.8454C208.9674,-271.7105 178.8005,-256.0332 157.0741,-244.7423"/>
<polygon fill="#191970" stroke="#191970" points="228.7886,-285.9557 239.2759,-287.4614 232.0166,-279.7443 228.7886,-285.9557"/>
</g>
<!-- Node4 -->
<g id="node5" class="node">
<title>Node4</title>
<g id="a_node5"><a xlink:href="classFiniteElementData.html" target="_top" xlink:title="FiniteElementData\&lt;\l dim \&gt;">
<polygon fill="#ffffff" stroke="#000000" points="88.6182,-282.5 88.6182,-310.5 192.7188,-310.5 192.7188,-282.5 88.6182,-282.5"/>
<text text-anchor="start" x="96.6182" y="-298.5" font-family="Helvetica,sans-Serif" font-size="10.00" fill="#000000">FiniteElementData&lt;</text>
<text text-anchor="middle" x="140.6685" y="-288.5" font-family="Helvetica,sans-Serif" font-size="10.00" fill="#000000"> dim &gt;</text>
</a>
</g>
</g>
<!-- Node4&#45;&gt;Node2 -->
<g id="edge4" class="edge">
<title>Node4&#45;&gt;Node2</title>
<path fill="none" stroke="#191970" d="M165.7351,-275.7188C174.7639,-267.0634 184.2875,-256.3788 190.6685,-245 204.3222,-220.6521 210.0408,-188.0554 212.3034,-169.6712"/>
<polygon fill="#191970" stroke="#191970" points="163.3593,-273.1485 158.347,-282.4827 168.0862,-278.3116 163.3593,-273.1485"/>
</g>
<!-- Node4&#45;&gt;Node5 -->
<g id="edge7" class="edge">
<title>Node4&#45;&gt;Node5</title>
<path fill="none" stroke="#191970" d="M136.5905,-272.0322C135.0619,-262.8606 133.3759,-252.7449 132.0506,-244.7931"/>
<polygon fill="#191970" stroke="#191970" points="133.1852,-272.8905 138.2816,-282.179 140.0899,-271.7396 133.1852,-272.8905"/>
</g>
<!-- Node5&#45;&gt;Node2 -->
<g id="edge5" class="edge">
<title>Node5&#45;&gt;Node2</title>
<path fill="none" stroke="#ffa500" stroke-dasharray="5,2" d="M130.3048,-206.0729C131.5013,-199.649 133.763,-193.0983 137.8706,-188 144.1586,-180.1953 152.6752,-174.2289 161.7313,-169.6789"/>
<polygon fill="#ffa500" stroke="#ffa500" points="126.7739,-206.1627 129.159,-216.4856 133.7319,-206.9284 126.7739,-206.1627"/>
<text text-anchor="middle" x="167.5674" y="-190" font-family="Helvetica,sans-Serif" font-size="10.00" fill="#000000"> &lt; dim, dim &gt;</text>
</g>
<!-- Node6 -->
<g id="node7" class="node">
<title>Node6</title>
<g id="a_node7"><a xlink:href="classFE__PolyTensor.html" target="_top" xlink:title="FE_PolyTensor\&lt; Polynomial\lType, dim, spacedim \&gt;">
<polygon fill="#ffffff" stroke="#000000" points="0,-141.5 0,-169.5 141.3369,-169.5 141.3369,-141.5 0,-141.5"/>
<text text-anchor="start" x="8" y="-157.5" font-family="Helvetica,sans-Serif" font-size="10.00" fill="#000000">FE_PolyTensor&lt; Polynomial</text>
<text text-anchor="middle" x="70.6685" y="-147.5" font-family="Helvetica,sans-Serif" font-size="10.00" fill="#000000">Type, dim, spacedim &gt;</text>
</a>
</g>
</g>
<!-- Node5&#45;&gt;Node6 -->
<g id="edge9" class="edge">
<title>Node5&#45;&gt;Node6</title>
<path fill="none" stroke="#191970" d="M112.1554,-208.2376C102.2915,-195.6988 90.2732,-180.4213 81.7161,-169.5437"/>
<polygon fill="#191970" stroke="#191970" points="109.6373,-210.6975 118.571,-216.3931 115.139,-206.3695 109.6373,-210.6975"/>
</g>
<!-- Node6&#45;&gt;Node1 -->
<g id="edge8" class="edge">
<title>Node6&#45;&gt;Node1</title>
<path fill="none" stroke="#ffa500" stroke-dasharray="5,2" d="M63.9724,-131.3065C62.7352,-121.8032 63.2184,-111.225 68.563,-103 73.7093,-95.0802 81.2797,-89.0748 89.6233,-84.5254"/>
<polygon fill="#ffa500" stroke="#ffa500" points="60.5897,-132.2477 65.9328,-141.3966 67.4613,-130.9126 60.5897,-132.2477"/>
<text text-anchor="start" x="68.6685" y="-115" font-family="Helvetica,sans-Serif" font-size="10.00" fill="#000000"> &lt; PolynomialsRaviartThomas</text>
<text text-anchor="middle" x="135.2212" y="-105" font-family="Helvetica,sans-Serif" font-size="10.00" fill="#000000">&lt; dim &gt;, dim &gt;</text>
</g>
</g>
</svg>
