<?xml version="1.0" encoding="UTF-8" standalone="no"?>
<!DOCTYPE svg PUBLIC "-//W3C//DTD SVG 1.1//EN"
 "http://www.w3.org/Graphics/SVG/1.1/DTD/svg11.dtd">
<!-- Generated by graphviz version 2.40.1 (20161225.0304)
 -->
<!-- Title: Mapping&lt; dim, spacedim &gt;::InternalDataBase Pages: 1 -->
<svg width="334pt" height="235pt"
 viewBox="0.00 0.00 334.47 235.00" xmlns="http://www.w3.org/2000/svg" xmlns:xlink="http://www.w3.org/1999/xlink">
<g id="graph0" class="graph" transform="scale(1 1) rotate(0) translate(4 231)">
<title>Mapping&lt; dim, spacedim &gt;::InternalDataBase</title>
<polygon fill="#ffffff" stroke="transparent" points="-4,4 -4,-231 330.4717,-231 330.4717,4 -4,4"/>
<!-- Node0 -->
<g id="node1" class="node">
<title>Node0</title>
<polygon fill="#bfbfbf" stroke="#000000" points="0,-94.5 0,-122.5 127.4453,-122.5 127.4453,-94.5 0,-94.5"/>
<text text-anchor="start" x="8" y="-110.5" font-family="Helvetica,sans-Serif" font-size="10.00" fill="#000000">Mapping&lt; dim, spacedim</text>
<text text-anchor="middle" x="63.7227" y="-100.5" font-family="Helvetica,sans-Serif" font-size="10.00" fill="#000000"> &gt;::InternalDataBase</text>
</g>
<!-- Node1 -->
<g id="node2" class="node">
<title>Node1</title>
<g id="a_node2"><a xlink:href="classMappingCartesian_1_1InternalData.html" target="_top" xlink:title="MappingCartesian\&lt; dim,\l spacedim \&gt;::InternalData">
<polygon fill="#ffffff" stroke="#000000" points="179.8442,-198.5 179.8442,-226.5 310.0728,-226.5 310.0728,-198.5 179.8442,-198.5"/>
<text text-anchor="start" x="187.8442" y="-214.5" font-family="Helvetica,sans-Serif" font-size="10.00" fill="#000000">MappingCartesian&lt; dim,</text>
<text text-anchor="middle" x="244.9585" y="-204.5" font-family="Helvetica,sans-Serif" font-size="10.00" fill="#000000"> spacedim &gt;::InternalData</text>
</a>
</g>
</g>
<!-- Node0&#45;&gt;Node1 -->
<g id="edge1" class="edge">
<title>Node0&#45;&gt;Node1</title>
<path fill="none" stroke="#191970" d="M84.4772,-129.6785C103.477,-147.9447 133.1675,-173.7913 163.4453,-189.5 169.9713,-192.8858 177.0576,-195.8265 184.2364,-198.3666"/>
<polygon fill="#191970" stroke="#191970" points="86.8516,-127.1049 77.2592,-122.6065 81.9527,-132.105 86.8516,-127.1049"/>
</g>
<!-- Node2 -->
<g id="node3" class="node">
<title>Node2</title>
<g id="a_node3"><a xlink:href="classMappingFEField_1_1InternalData.html" target="_top" xlink:title="MappingFEField\&lt; dim,\l spacedim, VectorType,\l DoFHandlerType \&gt;::InternalData">
<polygon fill="#ffffff" stroke="#000000" points="163.4453,-141.5 163.4453,-179.5 326.4717,-179.5 326.4717,-141.5 163.4453,-141.5"/>
<text text-anchor="start" x="171.4453" y="-167.5" font-family="Helvetica,sans-Serif" font-size="10.00" fill="#000000">MappingFEField&lt; dim,</text>
<text text-anchor="start" x="171.4453" y="-157.5" font-family="Helvetica,sans-Serif" font-size="10.00" fill="#000000"> spacedim, VectorType,</text>
<text text-anchor="middle" x="244.9585" y="-147.5" font-family="Helvetica,sans-Serif" font-size="10.00" fill="#000000"> DoFHandlerType &gt;::InternalData</text>
</a>
</g>
</g>
<!-- Node0&#45;&gt;Node2 -->
<g id="edge2" class="edge">
<title>Node0&#45;&gt;Node2</title>
<path fill="none" stroke="#191970" d="M122.4891,-125.3612C140.377,-130.4936 160.1622,-136.1703 178.5191,-141.4373"/>
<polygon fill="#191970" stroke="#191970" points="123.3452,-121.9657 112.7677,-122.5719 121.4146,-128.6942 123.3452,-121.9657"/>
</g>
<!-- Node3 -->
<g id="node4" class="node">
<title>Node3</title>
<g id="a_node4"><a xlink:href="classMappingManifold_1_1InternalData.html" target="_top" xlink:title="MappingManifold\&lt; dim,\l spacedim \&gt;::InternalData">
<polygon fill="#ffffff" stroke="#000000" points="179.8442,-94.5 179.8442,-122.5 310.0728,-122.5 310.0728,-94.5 179.8442,-94.5"/>
<text text-anchor="start" x="187.8442" y="-110.5" font-family="Helvetica,sans-Serif" font-size="10.00" fill="#000000">MappingManifold&lt; dim,</text>
<text text-anchor="middle" x="244.9585" y="-100.5" font-family="Helvetica,sans-Serif" font-size="10.00" fill="#000000"> spacedim &gt;::InternalData</text>
</a>
</g>
</g>
<!-- Node0&#45;&gt;Node3 -->
<g id="edge3" class="edge">
<title>Node0&#45;&gt;Node3</title>
<path fill="none" stroke="#191970" d="M137.6685,-108.5C151.6288,-108.5 166.136,-108.5 179.8022,-108.5"/>
<polygon fill="#191970" stroke="#191970" points="137.6197,-105.0001 127.6196,-108.5 137.6196,-112.0001 137.6197,-105.0001"/>
</g>
<!-- Node4 -->
<g id="node5" class="node">
<title>Node4</title>
<g id="a_node5"><a xlink:href="classMappingQ_1_1InternalData.html" target="_top" xlink:title="MappingQ\&lt; dim, spacedim\l \&gt;::InternalData">
<polygon fill="#ffffff" stroke="#000000" points="177.3467,-47.5 177.3467,-75.5 312.5703,-75.5 312.5703,-47.5 177.3467,-47.5"/>
<text text-anchor="start" x="185.3467" y="-63.5" font-family="Helvetica,sans-Serif" font-size="10.00" fill="#000000">MappingQ&lt; dim, spacedim</text>
<text text-anchor="middle" x="244.9585" y="-53.5" font-family="Helvetica,sans-Serif" font-size="10.00" fill="#000000"> &gt;::InternalData</text>
</a>
</g>
</g>
<!-- Node0&#45;&gt;Node4 -->
<g id="edge4" class="edge">
<title>Node0&#45;&gt;Node4</title>
<path fill="none" stroke="#191970" d="M128.0217,-91.8253C148.6009,-86.4885 171.1631,-80.6374 190.9327,-75.5106"/>
<polygon fill="#191970" stroke="#191970" points="126.9006,-88.5002 118.0994,-94.3985 128.6578,-95.276 126.9006,-88.5002"/>
</g>
<!-- Node5 -->
<g id="node6" class="node">
<title>Node5</title>
<g id="a_node6"><a xlink:href="classMappingQGeneric_1_1InternalData.html" target="_top" xlink:title="MappingQGeneric\&lt; dim,\l spacedim \&gt;::InternalData">
<polygon fill="#ffffff" stroke="#000000" points="179.8442,-.5 179.8442,-28.5 310.0728,-28.5 310.0728,-.5 179.8442,-.5"/>
<text text-anchor="start" x="187.8442" y="-16.5" font-family="Helvetica,sans-Serif" font-size="10.00" fill="#000000">MappingQGeneric&lt; dim,</text>
<text text-anchor="middle" x="244.9585" y="-6.5" font-family="Helvetica,sans-Serif" font-size="10.00" fill="#000000"> spacedim &gt;::InternalData</text>
</a>
</g>
</g>
<!-- Node0&#45;&gt;Node5 -->
<g id="edge5" class="edge">
<title>Node0&#45;&gt;Node5</title>
<path fill="none" stroke="#191970" d="M88.2861,-87.816C107.6492,-72.393 135.8926,-51.7818 163.4453,-38.5 171.2857,-34.7205 179.8418,-31.4084 188.3673,-28.5489"/>
<polygon fill="#191970" stroke="#191970" points="85.8718,-85.2674 80.3044,-94.2816 90.2779,-90.7068 85.8718,-85.2674"/>
</g>
</g>
</svg>
