<?xml version="1.0" encoding="UTF-8" standalone="no"?>
<!DOCTYPE svg PUBLIC "-//W3C//DTD SVG 1.1//EN"
 "http://www.w3.org/Graphics/SVG/1.1/DTD/svg11.dtd">
<!-- Generated by graphviz version 2.40.1 (20161225.0304)
 -->
<!-- Title: MeshWorker::VectorSelector Pages: 1 -->
<svg width="1140pt" height="69pt"
 viewBox="0.00 0.00 1140.38 69.00" xmlns="http://www.w3.org/2000/svg" xmlns:xlink="http://www.w3.org/1999/xlink">
<g id="graph0" class="graph" transform="scale(1 1) rotate(0) translate(4 65)">
<title>MeshWorker::VectorSelector</title>
<polygon fill="#ffffff" stroke="transparent" points="-4,4 -4,-65 1136.3828,-65 1136.3828,4 -4,4"/>
<!-- Node0 -->
<g id="node1" class="node">
<title>Node0</title>
<polygon fill="#bfbfbf" stroke="#000000" points="103.5762,-6.5 103.5762,-24.5 246.6709,-24.5 246.6709,-6.5 103.5762,-6.5"/>
<text text-anchor="middle" x="175.1235" y="-12.5" font-family="Helvetica,sans-Serif" font-size="10.00" fill="#000000">MeshWorker::VectorSelector</text>
</g>
<!-- Node2 -->
<g id="node3" class="node">
<title>Node2</title>
<g id="a_node3"><a xlink:href="classMeshWorker_1_1VectorDataBase.html" target="_top" xlink:title="MeshWorker::VectorDataBase\l\&lt; dim, spacedim, Number \&gt;">
<polygon fill="#ffffff" stroke="#000000" points="283.6709,-32.5 283.6709,-60.5 433.9971,-60.5 433.9971,-32.5 283.6709,-32.5"/>
<text text-anchor="start" x="291.6709" y="-48.5" font-family="Helvetica,sans-Serif" font-size="10.00" fill="#000000">MeshWorker::VectorDataBase</text>
<text text-anchor="middle" x="358.834" y="-38.5" font-family="Helvetica,sans-Serif" font-size="10.00" fill="#000000">&lt; dim, spacedim, Number &gt;</text>
</a>
</g>
</g>
<!-- Node0&#45;&gt;Node2 -->
<g id="edge2" class="edge">
<title>Node0&#45;&gt;Node2</title>
<path fill="none" stroke="#191970" d="M239.0318,-26.2841C253.4237,-28.7127 268.8274,-31.3119 283.6336,-33.8104"/>
<polygon fill="#191970" stroke="#191970" points="239.1971,-22.7626 228.7541,-24.5498 238.0323,-29.665 239.1971,-22.7626"/>
</g>
<!-- Node3 -->
<g id="node4" class="node">
<title>Node3</title>
<g id="a_node4"><a xlink:href="classMeshWorker_1_1VectorDataBase.html" target="_top" xlink:title="MeshWorker::VectorDataBase\l\&lt; dim, spacedim, VectorType\l::value_type \&gt;">
<polygon fill="#ffffff" stroke="#000000" points="601.457,-.5 601.457,-38.5 751.7832,-38.5 751.7832,-.5 601.457,-.5"/>
<text text-anchor="start" x="609.457" y="-26.5" font-family="Helvetica,sans-Serif" font-size="10.00" fill="#000000">MeshWorker::VectorDataBase</text>
<text text-anchor="start" x="609.457" y="-16.5" font-family="Helvetica,sans-Serif" font-size="10.00" fill="#000000">&lt; dim, spacedim, VectorType</text>
<text text-anchor="middle" x="676.6201" y="-6.5" font-family="Helvetica,sans-Serif" font-size="10.00" fill="#000000">::value_type &gt;</text>
</a>
</g>
</g>
<!-- Node0&#45;&gt;Node3 -->
<g id="edge6" class="edge">
<title>Node0&#45;&gt;Node3</title>
<path fill="none" stroke="#191970" d="M256.8828,-16.1521C352.229,-16.9126 508.5504,-18.1595 601.1252,-18.8978"/>
<polygon fill="#191970" stroke="#191970" points="256.7369,-12.6509 246.7093,-16.071 256.681,-19.6507 256.7369,-12.6509"/>
</g>
<!-- Node1 -->
<g id="node2" class="node">
<title>Node1</title>
<g id="a_node2"><a xlink:href="classSubscriptor.html" target="_top" xlink:title="Subscriptor">
<polygon fill="#ffffff" stroke="#000000" points="0,-6.5 0,-24.5 66.5762,-24.5 66.5762,-6.5 0,-6.5"/>
<text text-anchor="middle" x="33.2881" y="-12.5" font-family="Helvetica,sans-Serif" font-size="10.00" fill="#000000">Subscriptor</text>
</a>
</g>
</g>
<!-- Node1&#45;&gt;Node0 -->
<g id="edge1" class="edge">
<title>Node1&#45;&gt;Node0</title>
<path fill="none" stroke="#191970" d="M77.1545,-15.5C85.5339,-15.5 94.5059,-15.5 103.4932,-15.5"/>
<polygon fill="#191970" stroke="#191970" points="76.9011,-12.0001 66.9011,-15.5 76.9011,-19.0001 76.9011,-12.0001"/>
</g>
<!-- Node2&#45;&gt;Node3 -->
<g id="edge3" class="edge">
<title>Node2&#45;&gt;Node3</title>
<path fill="none" stroke="#ffa500" stroke-dasharray="5,2" d="M444.3991,-39.2301C493.3425,-35.0718 554.1756,-29.9032 601.2998,-25.8994"/>
<polygon fill="#ffa500" stroke="#ffa500" points="443.8126,-35.7673 434.1449,-40.1014 444.4053,-42.7421 443.8126,-35.7673"/>
<text text-anchor="start" x="451.9971" y="-51.5" font-family="Helvetica,sans-Serif" font-size="10.00" fill="#000000"> &lt; dim, spacedim, VectorType</text>
<text text-anchor="middle" x="517.7271" y="-41.5" font-family="Helvetica,sans-Serif" font-size="10.00" fill="#000000">::value_type &gt;</text>
</g>
<!-- Node4 -->
<g id="node5" class="node">
<title>Node4</title>
<g id="a_node5"><a xlink:href="classMeshWorker_1_1VectorData.html" target="_top" xlink:title="MeshWorker::VectorData\l\&lt; VectorType, dim, spacedim \&gt;">
<polygon fill="#ffffff" stroke="#000000" points="788.7832,-5.5 788.7832,-33.5 942.083,-33.5 942.083,-5.5 788.7832,-5.5"/>
<text text-anchor="start" x="796.7832" y="-21.5" font-family="Helvetica,sans-Serif" font-size="10.00" fill="#000000">MeshWorker::VectorData</text>
<text text-anchor="middle" x="865.4331" y="-11.5" font-family="Helvetica,sans-Serif" font-size="10.00" fill="#000000">&lt; VectorType, dim, spacedim &gt;</text>
</a>
</g>
</g>
<!-- Node3&#45;&gt;Node4 -->
<g id="edge4" class="edge">
<title>Node3&#45;&gt;Node4</title>
<path fill="none" stroke="#191970" d="M761.8231,-19.5C770.7699,-19.5 779.8279,-19.5 788.6718,-19.5"/>
<polygon fill="#191970" stroke="#191970" points="761.7866,-16.0001 751.7865,-19.5 761.7865,-23.0001 761.7866,-16.0001"/>
</g>
<!-- Node5 -->
<g id="node6" class="node">
<title>Node5</title>
<g id="a_node6"><a xlink:href="classMeshWorker_1_1MGVectorData.html" target="_top" xlink:title="MeshWorker::MGVectorData\l\&lt; VectorType, dim, spacedim \&gt;">
<polygon fill="#ffffff" stroke="#000000" points="979.083,-5.5 979.083,-33.5 1132.3828,-33.5 1132.3828,-5.5 979.083,-5.5"/>
<text text-anchor="start" x="987.083" y="-21.5" font-family="Helvetica,sans-Serif" font-size="10.00" fill="#000000">MeshWorker::MGVectorData</text>
<text text-anchor="middle" x="1055.7329" y="-11.5" font-family="Helvetica,sans-Serif" font-size="10.00" fill="#000000">&lt; VectorType, dim, spacedim &gt;</text>
</a>
</g>
</g>
<!-- Node4&#45;&gt;Node5 -->
<g id="edge5" class="edge">
<title>Node4&#45;&gt;Node5</title>
<path fill="none" stroke="#191970" d="M952.5488,-19.5C961.342,-19.5 970.2274,-19.5 978.9017,-19.5"/>
<polygon fill="#191970" stroke="#191970" points="952.2868,-16.0001 942.2868,-19.5 952.2868,-23.0001 952.2868,-16.0001"/>
</g>
</g>
</svg>
