<?xml version="1.0" encoding="UTF-8" standalone="no"?>
<!DOCTYPE svg PUBLIC "-//W3C//DTD SVG 1.1//EN"
 "http://www.w3.org/Graphics/SVG/1.1/DTD/svg11.dtd">
<!-- Generated by graphviz version 2.40.1 (20161225.0304)
 -->
<!-- Title: ConeBoundary&lt; dim &gt; Pages: 1 -->
<svg width="260pt" height="401pt"
 viewBox="0.00 0.00 260.30 401.00" xmlns="http://www.w3.org/2000/svg" xmlns:xlink="http://www.w3.org/1999/xlink">
<g id="graph0" class="graph" transform="scale(1 1) rotate(0) translate(4 397)">
<title>ConeBoundary&lt; dim &gt;</title>
<polygon fill="#ffffff" stroke="transparent" points="-4,4 -4,-397 256.3037,-397 256.3037,4 -4,4"/>
<!-- Node0 -->
<g id="node1" class="node">
<title>Node0</title>
<polygon fill="#bfbfbf" stroke="#000000" points="65.8818,-.5 65.8818,-18.5 181.9453,-18.5 181.9453,-.5 65.8818,-.5"/>
<text text-anchor="middle" x="123.9136" y="-6.5" font-family="Helvetica,sans-Serif" font-size="10.00" fill="#000000">ConeBoundary&lt; dim &gt;</text>
</g>
<!-- Node1 -->
<g id="node2" class="node">
<title>Node1</title>
<g id="a_node2"><a xlink:href="classStraightBoundary.html" target="_top" xlink:title="StraightBoundary\&lt; dim \&gt;">
<polygon fill="#ffffff" stroke="#000000" points="60.6035,-56.5 60.6035,-74.5 187.2236,-74.5 187.2236,-56.5 60.6035,-56.5"/>
<text text-anchor="middle" x="123.9136" y="-62.5" font-family="Helvetica,sans-Serif" font-size="10.00" fill="#000000">StraightBoundary&lt; dim &gt;</text>
</a>
</g>
</g>
<!-- Node1&#45;&gt;Node0 -->
<g id="edge1" class="edge">
<title>Node1&#45;&gt;Node0</title>
<path fill="none" stroke="#191970" d="M123.9136,-46.2065C123.9136,-36.8384 123.9136,-26.0262 123.9136,-18.5752"/>
<polygon fill="#191970" stroke="#191970" points="120.4137,-46.2527 123.9136,-56.2527 127.4137,-46.2528 120.4137,-46.2527"/>
</g>
<!-- Node2 -->
<g id="node3" class="node">
<title>Node2</title>
<g id="a_node3"><a xlink:href="classBoundary.html" target="_top" xlink:title="Boundary\&lt; dim, dim \&gt;">
<polygon fill="#ffffff" stroke="#000000" points="0,-126.5 0,-144.5 113.8271,-144.5 113.8271,-126.5 0,-126.5"/>
<text text-anchor="middle" x="56.9136" y="-132.5" font-family="Helvetica,sans-Serif" font-size="10.00" fill="#000000">Boundary&lt; dim, dim &gt;</text>
</a>
</g>
</g>
<!-- Node2&#45;&gt;Node1 -->
<g id="edge2" class="edge">
<title>Node2&#45;&gt;Node1</title>
<path fill="none" stroke="#191970" d="M72.7375,-118.9675C85.8994,-105.2163 104.1628,-86.1351 114.9385,-74.8769"/>
<polygon fill="#191970" stroke="#191970" points="70.0588,-116.7044 65.6727,-126.3487 75.1157,-121.5446 70.0588,-116.7044"/>
</g>
<!-- Node3 -->
<g id="node4" class="node">
<title>Node3</title>
<g id="a_node4"><a xlink:href="classFlatManifold.html" target="_top" xlink:title="FlatManifold\&lt; dim,\l spacedim \&gt;">
<polygon fill="#ffffff" stroke="#000000" points="19.9248,-252.5 19.9248,-280.5 117.9023,-280.5 117.9023,-252.5 19.9248,-252.5"/>
<text text-anchor="start" x="27.9248" y="-268.5" font-family="Helvetica,sans-Serif" font-size="10.00" fill="#000000">FlatManifold&lt; dim,</text>
<text text-anchor="middle" x="68.9136" y="-258.5" font-family="Helvetica,sans-Serif" font-size="10.00" fill="#000000"> spacedim &gt;</text>
</a>
</g>
</g>
<!-- Node3&#45;&gt;Node2 -->
<g id="edge3" class="edge">
<title>Node3&#45;&gt;Node2</title>
<path fill="none" stroke="#191970" d="M66.6893,-242.2188C63.9947,-212.8019 59.5884,-164.6997 57.755,-144.6856"/>
<polygon fill="#191970" stroke="#191970" points="63.2317,-242.8417 67.6294,-252.4807 70.2025,-242.2031 63.2317,-242.8417"/>
</g>
<!-- Node6 -->
<g id="node7" class="node">
<title>Node6</title>
<g id="a_node7"><a xlink:href="classBoundary.html" target="_top" xlink:title="Boundary\&lt; dim, spacedim \&gt;">
<polygon fill="#ffffff" stroke="#000000" points="84.6577,-196.5 84.6577,-214.5 225.1694,-214.5 225.1694,-196.5 84.6577,-196.5"/>
<text text-anchor="middle" x="154.9136" y="-202.5" font-family="Helvetica,sans-Serif" font-size="10.00" fill="#000000">Boundary&lt; dim, spacedim &gt;</text>
</a>
</g>
</g>
<!-- Node3&#45;&gt;Node6 -->
<g id="edge7" class="edge">
<title>Node3&#45;&gt;Node6</title>
<path fill="none" stroke="#191970" d="M97.3644,-246.3197C112.4527,-235.6176 130.2502,-222.9938 142.0153,-214.6488"/>
<polygon fill="#191970" stroke="#191970" points="94.9915,-243.7118 88.8599,-252.3521 99.0413,-249.4214 94.9915,-243.7118"/>
</g>
<!-- Node4 -->
<g id="node5" class="node">
<title>Node4</title>
<g id="a_node5"><a xlink:href="classManifold.html" target="_top" xlink:title="Manifold\&lt; dim, spacedim \&gt;">
<polygon fill="#ffffff" stroke="#000000" points="1.1626,-318.5 1.1626,-336.5 136.6646,-336.5 136.6646,-318.5 1.1626,-318.5"/>
<text text-anchor="middle" x="68.9136" y="-324.5" font-family="Helvetica,sans-Serif" font-size="10.00" fill="#000000">Manifold&lt; dim, spacedim &gt;</text>
</a>
</g>
</g>
<!-- Node4&#45;&gt;Node3 -->
<g id="edge4" class="edge">
<title>Node4&#45;&gt;Node3</title>
<path fill="none" stroke="#191970" d="M68.9136,-308.2842C68.9136,-299.3664 68.9136,-288.9504 68.9136,-280.7488"/>
<polygon fill="#191970" stroke="#191970" points="65.4137,-308.4992 68.9136,-318.4992 72.4137,-308.4993 65.4137,-308.4992"/>
</g>
<!-- Node5 -->
<g id="node6" class="node">
<title>Node5</title>
<g id="a_node6"><a xlink:href="classSubscriptor.html" target="_top" xlink:title="Subscriptor">
<polygon fill="#ffffff" stroke="#000000" points="35.6255,-374.5 35.6255,-392.5 102.2017,-392.5 102.2017,-374.5 35.6255,-374.5"/>
<text text-anchor="middle" x="68.9136" y="-380.5" font-family="Helvetica,sans-Serif" font-size="10.00" fill="#000000">Subscriptor</text>
</a>
</g>
</g>
<!-- Node5&#45;&gt;Node4 -->
<g id="edge5" class="edge">
<title>Node5&#45;&gt;Node4</title>
<path fill="none" stroke="#191970" d="M68.9136,-364.2065C68.9136,-354.8384 68.9136,-344.0262 68.9136,-336.5752"/>
<polygon fill="#191970" stroke="#191970" points="65.4137,-364.2527 68.9136,-374.2527 72.4137,-364.2528 65.4137,-364.2527"/>
</g>
<!-- Node6&#45;&gt;Node2 -->
<g id="edge6" class="edge">
<title>Node6&#45;&gt;Node2</title>
<path fill="none" stroke="#ffa500" stroke-dasharray="5,2" d="M129.0039,-191.2778C122.0767,-187.2067 114.6911,-182.6156 108.1157,-178 93.176,-167.513 77.1736,-153.7818 67.111,-144.8056"/>
<polygon fill="#ffa500" stroke="#ffa500" points="127.6301,-194.5245 138.0466,-196.4605 131.1109,-188.4513 127.6301,-194.5245"/>
<text text-anchor="middle" x="136.8125" y="-170" font-family="Helvetica,sans-Serif" font-size="10.00" fill="#000000"> &lt; dim, dim &gt;</text>
</g>
<!-- Node7 -->
<g id="node8" class="node">
<title>Node7</title>
<g id="a_node8"><a xlink:href="classStraightBoundary.html" target="_top" xlink:title="StraightBoundary\&lt; dim,\l spacedim \&gt;">
<polygon fill="#ffffff" stroke="#000000" points="131.5234,-121.5 131.5234,-149.5 252.3037,-149.5 252.3037,-121.5 131.5234,-121.5"/>
<text text-anchor="start" x="139.5234" y="-137.5" font-family="Helvetica,sans-Serif" font-size="10.00" fill="#000000">StraightBoundary&lt; dim,</text>
<text text-anchor="middle" x="191.9136" y="-127.5" font-family="Helvetica,sans-Serif" font-size="10.00" fill="#000000"> spacedim &gt;</text>
</a>
</g>
</g>
<!-- Node6&#45;&gt;Node7 -->
<g id="edge9" class="edge">
<title>Node6&#45;&gt;Node7</title>
<path fill="none" stroke="#191970" d="M164.4555,-187.4477C170.6562,-175.7166 178.6268,-160.6371 184.3815,-149.7499"/>
<polygon fill="#191970" stroke="#191970" points="161.3295,-185.8722 159.7507,-196.3487 167.5181,-189.1434 161.3295,-185.8722"/>
</g>
<!-- Node7&#45;&gt;Node1 -->
<g id="edge8" class="edge">
<title>Node7&#45;&gt;Node1</title>
<path fill="none" stroke="#ffa500" stroke-dasharray="5,2" d="M171.0325,-114.0048C158.2509,-100.8472 142.5477,-84.6822 132.8864,-74.7368"/>
<polygon fill="#ffa500" stroke="#ffa500" points="168.6744,-116.6004 178.1528,-121.3345 173.6954,-111.7229 168.6744,-116.6004"/>
<text text-anchor="middle" x="177.9775" y="-95" font-family="Helvetica,sans-Serif" font-size="10.00" fill="#000000"> &lt; dim &gt;</text>
</g>
</g>
</svg>
