<?xml version="1.0" encoding="UTF-8" standalone="no"?>
<!DOCTYPE svg PUBLIC "-//W3C//DTD SVG 1.1//EN"
 "http://www.w3.org/Graphics/SVG/1.1/DTD/svg11.dtd">
<!-- Generated by graphviz version 2.40.1 (20161225.0304)
 -->
<!-- Title: TrilinosWrappers::BlockVector Pages: 1 -->
<svg width="253pt" height="204pt"
 viewBox="0.00 0.00 253.13 204.00" xmlns="http://www.w3.org/2000/svg" xmlns:xlink="http://www.w3.org/1999/xlink">
<g id="graph0" class="graph" transform="scale(1 1) rotate(0) translate(4 200)">
<title>TrilinosWrappers::BlockVector</title>
<polygon fill="#ffffff" stroke="transparent" points="-4,4 -4,-200 249.1348,-200 249.1348,4 -4,4"/>
<!-- Node0 -->
<g id="node1" class="node">
<title>Node0</title>
<polygon fill="#bfbfbf" stroke="#000000" points="0,-.5 0,-18.5 149.3936,-18.5 149.3936,-.5 0,-.5"/>
<text text-anchor="middle" x="74.6968" y="-6.5" font-family="Helvetica,sans-Serif" font-size="10.00" fill="#000000">TrilinosWrappers::BlockVector</text>
</g>
<!-- Node1 -->
<g id="node2" class="node">
<title>Node1</title>
<g id="a_node2"><a xlink:href="classBlockVectorBase.html" target="_top" xlink:title="BlockVectorBase\&lt; Vector \&gt;">
<polygon fill="#ffffff" stroke="#000000" points="6.1011,-56.5 6.1011,-74.5 143.2925,-74.5 143.2925,-56.5 6.1011,-56.5"/>
<text text-anchor="middle" x="74.6968" y="-62.5" font-family="Helvetica,sans-Serif" font-size="10.00" fill="#000000">BlockVectorBase&lt; Vector &gt;</text>
</a>
</g>
</g>
<!-- Node1&#45;&gt;Node0 -->
<g id="edge1" class="edge">
<title>Node1&#45;&gt;Node0</title>
<path fill="none" stroke="#191970" d="M74.6968,-46.2065C74.6968,-36.8384 74.6968,-26.0262 74.6968,-18.5752"/>
<polygon fill="#191970" stroke="#191970" points="71.1969,-46.2527 74.6968,-56.2527 78.1969,-46.2528 71.1969,-46.2527"/>
</g>
<!-- Node2 -->
<g id="node3" class="node">
<title>Node2</title>
<g id="a_node3"><a xlink:href="classSubscriptor.html" target="_top" xlink:title="Subscriptor">
<polygon fill="#ffffff" stroke="#000000" points="37.4087,-177.5 37.4087,-195.5 103.9849,-195.5 103.9849,-177.5 37.4087,-177.5"/>
<text text-anchor="middle" x="70.6968" y="-183.5" font-family="Helvetica,sans-Serif" font-size="10.00" fill="#000000">Subscriptor</text>
</a>
</g>
</g>
<!-- Node2&#45;&gt;Node1 -->
<g id="edge2" class="edge">
<title>Node2&#45;&gt;Node1</title>
<path fill="none" stroke="#191970" d="M71.3373,-167.1238C72.2115,-140.6786 73.7437,-94.3298 74.3926,-74.7002"/>
<polygon fill="#191970" stroke="#191970" points="67.8298,-167.2951 70.9974,-177.4053 74.826,-167.5265 67.8298,-167.2951"/>
</g>
<!-- Node3 -->
<g id="node4" class="node">
<title>Node3</title>
<g id="a_node4"><a xlink:href="classBlockVectorBase.html" target="_top" xlink:title="BlockVectorBase\&lt; VectorType \&gt;">
<polygon fill="#ffffff" stroke="#000000" points="86.2588,-121.5 86.2588,-139.5 245.1348,-139.5 245.1348,-121.5 86.2588,-121.5"/>
<text text-anchor="middle" x="165.6968" y="-127.5" font-family="Helvetica,sans-Serif" font-size="10.00" fill="#000000">BlockVectorBase&lt; VectorType &gt;</text>
</a>
</g>
</g>
<!-- Node2&#45;&gt;Node3 -->
<g id="edge4" class="edge">
<title>Node2&#45;&gt;Node3</title>
<path fill="none" stroke="#191970" d="M95.4002,-171.938C112.7669,-161.7008 135.4629,-148.3221 150.3014,-139.5752"/>
<polygon fill="#191970" stroke="#191970" points="93.2214,-169.1594 86.3841,-177.2527 96.7761,-175.1897 93.2214,-169.1594"/>
</g>
<!-- Node3&#45;&gt;Node1 -->
<g id="edge3" class="edge">
<title>Node3&#45;&gt;Node1</title>
<path fill="none" stroke="#ffa500" stroke-dasharray="5,2" d="M144.5378,-115.3865C126.8977,-102.7864 102.3399,-85.2451 87.5358,-74.6708"/>
<polygon fill="#ffa500" stroke="#ffa500" points="142.8719,-118.4977 153.0436,-121.462 146.9406,-112.8015 142.8719,-118.4977"/>
<text text-anchor="middle" x="148.8813" y="-95" font-family="Helvetica,sans-Serif" font-size="10.00" fill="#000000"> &lt; Vector &gt;</text>
</g>
</g>
</svg>
