<?xml version="1.0" encoding="UTF-8" standalone="no"?>
<!DOCTYPE svg PUBLIC "-//W3C//DTD SVG 1.1//EN"
 "http://www.w3.org/Graphics/SVG/1.1/DTD/svg11.dtd">
<!-- Generated by graphviz version 2.40.1 (20161225.0304)
 -->
<!-- Title: MeshWorker::MGVectorData&lt; VectorType, dim, spacedim &gt; Pages: 1 -->
<svg width="269pt" height="376pt"
 viewBox="0.00 0.00 269.11 376.00" xmlns="http://www.w3.org/2000/svg" xmlns:xlink="http://www.w3.org/1999/xlink">
<g id="graph0" class="graph" transform="scale(1 1) rotate(0) translate(4 372)">
<title>MeshWorker::MGVectorData&lt; VectorType, dim, spacedim &gt;</title>
<polygon fill="#ffffff" stroke="transparent" points="-4,4 -4,-372 265.1099,-372 265.1099,4 -4,4"/>
<!-- Node0 -->
<g id="node1" class="node">
<title>Node0</title>
<polygon fill="#bfbfbf" stroke="#000000" points="0,-.5 0,-28.5 153.2998,-28.5 153.2998,-.5 0,-.5"/>
<text text-anchor="start" x="8" y="-16.5" font-family="Helvetica,sans-Serif" font-size="10.00" fill="#000000">MeshWorker::MGVectorData</text>
<text text-anchor="middle" x="76.6499" y="-6.5" font-family="Helvetica,sans-Serif" font-size="10.00" fill="#000000">&lt; VectorType, dim, spacedim &gt;</text>
</g>
<!-- Node1 -->
<g id="node2" class="node">
<title>Node1</title>
<g id="a_node2"><a xlink:href="classMeshWorker_1_1VectorData.html" target="_top" xlink:title="MeshWorker::VectorData\l\&lt; VectorType, dim, spacedim \&gt;">
<polygon fill="#ffffff" stroke="#000000" points="0,-66.5 0,-94.5 153.2998,-94.5 153.2998,-66.5 0,-66.5"/>
<text text-anchor="start" x="8" y="-82.5" font-family="Helvetica,sans-Serif" font-size="10.00" fill="#000000">MeshWorker::VectorData</text>
<text text-anchor="middle" x="76.6499" y="-72.5" font-family="Helvetica,sans-Serif" font-size="10.00" fill="#000000">&lt; VectorType, dim, spacedim &gt;</text>
</a>
</g>
</g>
<!-- Node1&#45;&gt;Node0 -->
<g id="edge1" class="edge">
<title>Node1&#45;&gt;Node0</title>
<path fill="none" stroke="#191970" d="M76.6499,-56.0322C76.6499,-46.8606 76.6499,-36.7449 76.6499,-28.7931"/>
<polygon fill="#191970" stroke="#191970" points="73.15,-56.1789 76.6499,-66.179 80.15,-56.179 73.15,-56.1789"/>
</g>
<!-- Node2 -->
<g id="node3" class="node">
<title>Node2</title>
<g id="a_node3"><a xlink:href="classMeshWorker_1_1VectorDataBase.html" target="_top" xlink:title="MeshWorker::VectorDataBase\l\&lt; dim, spacedim, VectorType\l::value_type \&gt;">
<polygon fill="#ffffff" stroke="#000000" points="1.4868,-132.5 1.4868,-170.5 151.813,-170.5 151.813,-132.5 1.4868,-132.5"/>
<text text-anchor="start" x="9.4868" y="-158.5" font-family="Helvetica,sans-Serif" font-size="10.00" fill="#000000">MeshWorker::VectorDataBase</text>
<text text-anchor="start" x="9.4868" y="-148.5" font-family="Helvetica,sans-Serif" font-size="10.00" fill="#000000">&lt; dim, spacedim, VectorType</text>
<text text-anchor="middle" x="76.6499" y="-138.5" font-family="Helvetica,sans-Serif" font-size="10.00" fill="#000000">::value_type &gt;</text>
</a>
</g>
</g>
<!-- Node2&#45;&gt;Node1 -->
<g id="edge2" class="edge">
<title>Node2&#45;&gt;Node1</title>
<path fill="none" stroke="#191970" d="M76.6499,-122.2143C76.6499,-112.768 76.6499,-102.7158 76.6499,-94.8465"/>
<polygon fill="#191970" stroke="#191970" points="73.15,-122.4733 76.6499,-132.4733 80.15,-122.4733 73.15,-122.4733"/>
</g>
<!-- Node3 -->
<g id="node4" class="node">
<title>Node3</title>
<g id="a_node4"><a xlink:href="classMeshWorker_1_1VectorSelector.html" target="_top" xlink:title="MeshWorker::VectorSelector">
<polygon fill="#ffffff" stroke="#000000" points="1.1025,-293.5 1.1025,-311.5 144.1973,-311.5 144.1973,-293.5 1.1025,-293.5"/>
<text text-anchor="middle" x="72.6499" y="-299.5" font-family="Helvetica,sans-Serif" font-size="10.00" fill="#000000">MeshWorker::VectorSelector</text>
</a>
</g>
</g>
<!-- Node3&#45;&gt;Node2 -->
<g id="edge3" class="edge">
<title>Node3&#45;&gt;Node2</title>
<path fill="none" stroke="#191970" d="M73.1683,-282.9299C73.9382,-253.8685 75.3748,-199.6367 76.1398,-170.7572"/>
<polygon fill="#191970" stroke="#191970" points="69.6663,-282.9651 72.9001,-293.0543 76.6638,-283.1505 69.6663,-282.9651"/>
</g>
<!-- Node5 -->
<g id="node6" class="node">
<title>Node5</title>
<g id="a_node6"><a xlink:href="classMeshWorker_1_1VectorDataBase.html" target="_top" xlink:title="MeshWorker::VectorDataBase\l\&lt; dim, spacedim, Number \&gt;">
<polygon fill="#ffffff" stroke="#000000" points="88.4868,-227.5 88.4868,-255.5 238.813,-255.5 238.813,-227.5 88.4868,-227.5"/>
<text text-anchor="start" x="96.4868" y="-243.5" font-family="Helvetica,sans-Serif" font-size="10.00" fill="#000000">MeshWorker::VectorDataBase</text>
<text text-anchor="middle" x="163.6499" y="-233.5" font-family="Helvetica,sans-Serif" font-size="10.00" fill="#000000">&lt; dim, spacedim, Number &gt;</text>
</a>
</g>
</g>
<!-- Node3&#45;&gt;Node5 -->
<g id="edge6" class="edge">
<title>Node3&#45;&gt;Node5</title>
<path fill="none" stroke="#191970" d="M94.5243,-287.837C109.16,-278.0262 128.3091,-265.19 142.7405,-255.5162"/>
<polygon fill="#191970" stroke="#191970" points="92.4349,-285.0239 86.0773,-293.4992 96.3325,-290.8384 92.4349,-285.0239"/>
</g>
<!-- Node4 -->
<g id="node5" class="node">
<title>Node4</title>
<g id="a_node5"><a xlink:href="classSubscriptor.html" target="_top" xlink:title="Subscriptor">
<polygon fill="#ffffff" stroke="#000000" points="39.3618,-349.5 39.3618,-367.5 105.938,-367.5 105.938,-349.5 39.3618,-349.5"/>
<text text-anchor="middle" x="72.6499" y="-355.5" font-family="Helvetica,sans-Serif" font-size="10.00" fill="#000000">Subscriptor</text>
</a>
</g>
</g>
<!-- Node4&#45;&gt;Node3 -->
<g id="edge4" class="edge">
<title>Node4&#45;&gt;Node3</title>
<path fill="none" stroke="#191970" d="M72.6499,-339.2065C72.6499,-329.8384 72.6499,-319.0262 72.6499,-311.5752"/>
<polygon fill="#191970" stroke="#191970" points="69.15,-339.2527 72.6499,-349.2527 76.15,-339.2528 69.15,-339.2527"/>
</g>
<!-- Node5&#45;&gt;Node2 -->
<g id="edge5" class="edge">
<title>Node5&#45;&gt;Node2</title>
<path fill="none" stroke="#ffa500" stroke-dasharray="5,2" d="M142.9683,-220.1053C128.4951,-205.1329 109.3209,-185.2975 95.3136,-170.8073"/>
<polygon fill="#ffa500" stroke="#ffa500" points="140.5894,-222.6802 150.0562,-227.4375 145.6224,-217.815 140.5894,-222.6802"/>
<text text-anchor="start" x="129.6499" y="-201" font-family="Helvetica,sans-Serif" font-size="10.00" fill="#000000"> &lt; dim, spacedim, VectorType</text>
<text text-anchor="middle" x="195.3799" y="-191" font-family="Helvetica,sans-Serif" font-size="10.00" fill="#000000">::value_type &gt;</text>
</g>
</g>
</svg>
