<?xml version="1.0" encoding="UTF-8" standalone="no"?>
<!DOCTYPE svg PUBLIC "-//W3C//DTD SVG 1.1//EN"
 "http://www.w3.org/Graphics/SVG/1.1/DTD/svg11.dtd">
<!-- Generated by graphviz version 2.40.1 (20161225.0304)
 -->
<!-- Title: FEValues&lt; dim, spacedim &gt; Pages: 1 -->
<svg width="148pt" height="214pt"
 viewBox="0.00 0.00 148.32 214.00" xmlns="http://www.w3.org/2000/svg" xmlns:xlink="http://www.w3.org/1999/xlink">
<g id="graph0" class="graph" transform="scale(1 1) rotate(0) translate(4 210)">
<title>FEValues&lt; dim, spacedim &gt;</title>
<polygon fill="#ffffff" stroke="transparent" points="-4,4 -4,-210 144.3213,-210 144.3213,4 -4,4"/>
<!-- Node0 -->
<g id="node1" class="node">
<title>Node0</title>
<polygon fill="#bfbfbf" stroke="#000000" points="0,-65.5 0,-83.5 140.3213,-83.5 140.3213,-65.5 0,-65.5"/>
<text text-anchor="middle" x="70.1606" y="-71.5" font-family="Helvetica,sans-Serif" font-size="10.00" fill="#000000">FEValues&lt; dim, spacedim &gt;</text>
</g>
<!-- Node3 -->
<g id="node4" class="node">
<title>Node3</title>
<g id="a_node4"><a xlink:href="classFEValues.html" target="_top" xlink:title="FEValues\&lt; dim \&gt;">
<polygon fill="#ffffff" stroke="#000000" points="24.1772,-.5 24.1772,-18.5 116.144,-18.5 116.144,-.5 24.1772,-.5"/>
<text text-anchor="middle" x="70.1606" y="-6.5" font-family="Helvetica,sans-Serif" font-size="10.00" fill="#000000">FEValues&lt; dim &gt;</text>
</a>
</g>
</g>
<!-- Node0&#45;&gt;Node3 -->
<g id="edge3" class="edge">
<title>Node0&#45;&gt;Node3</title>
<path fill="none" stroke="#ffa500" stroke-dasharray="5,2" d="M70.1606,-55.1265C70.1606,-43.1522 70.1606,-28.3205 70.1606,-18.8821"/>
<polygon fill="#ffa500" stroke="#ffa500" points="66.6607,-55.462 70.1606,-65.462 73.6607,-55.4621 66.6607,-55.462"/>
<text text-anchor="middle" x="88.2246" y="-39" font-family="Helvetica,sans-Serif" font-size="10.00" fill="#000000"> &lt; dim &gt;</text>
</g>
<!-- Node1 -->
<g id="node2" class="node">
<title>Node1</title>
<g id="a_node2"><a xlink:href="classFEValuesBase.html" target="_top" xlink:title="FEValuesBase\&lt; dim,\l spacedim \&gt;">
<polygon fill="#ffffff" stroke="#000000" points="15.7007,-121.5 15.7007,-149.5 124.6206,-149.5 124.6206,-121.5 15.7007,-121.5"/>
<text text-anchor="start" x="23.7007" y="-137.5" font-family="Helvetica,sans-Serif" font-size="10.00" fill="#000000">FEValuesBase&lt; dim,</text>
<text text-anchor="middle" x="70.1606" y="-127.5" font-family="Helvetica,sans-Serif" font-size="10.00" fill="#000000"> spacedim &gt;</text>
</a>
</g>
</g>
<!-- Node1&#45;&gt;Node0 -->
<g id="edge1" class="edge">
<title>Node1&#45;&gt;Node0</title>
<path fill="none" stroke="#191970" d="M70.1606,-111.1001C70.1606,-101.5157 70.1606,-91.0935 70.1606,-83.831"/>
<polygon fill="#191970" stroke="#191970" points="66.6607,-111.352 70.1606,-121.3521 73.6607,-111.3521 66.6607,-111.352"/>
</g>
<!-- Node2 -->
<g id="node3" class="node">
<title>Node2</title>
<g id="a_node3"><a xlink:href="classSubscriptor.html" target="_top" xlink:title="Subscriptor">
<polygon fill="#ffffff" stroke="#000000" points="36.8726,-187.5 36.8726,-205.5 103.4487,-205.5 103.4487,-187.5 36.8726,-187.5"/>
<text text-anchor="middle" x="70.1606" y="-193.5" font-family="Helvetica,sans-Serif" font-size="10.00" fill="#000000">Subscriptor</text>
</a>
</g>
</g>
<!-- Node2&#45;&gt;Node1 -->
<g id="edge2" class="edge">
<title>Node2&#45;&gt;Node1</title>
<path fill="none" stroke="#191970" d="M70.1606,-177.2842C70.1606,-168.3664 70.1606,-157.9504 70.1606,-149.7488"/>
<polygon fill="#191970" stroke="#191970" points="66.6607,-177.4992 70.1606,-187.4992 73.6607,-177.4993 66.6607,-177.4992"/>
</g>
</g>
</svg>
