<?xml version="1.0" encoding="UTF-8" standalone="no"?>
<!DOCTYPE svg PUBLIC "-//W3C//DTD SVG 1.1//EN"
 "http://www.w3.org/Graphics/SVG/1.1/DTD/svg11.dtd">
<!-- Generated by graphviz version 2.40.1 (20161225.0304)
 -->
<!-- Title: LinearAlgebra::distributed::BlockVector&lt; Number &gt; Pages: 1 -->
<svg width="296pt" height="224pt"
 viewBox="0.00 0.00 295.55 224.00" xmlns="http://www.w3.org/2000/svg" xmlns:xlink="http://www.w3.org/1999/xlink">
<g id="graph0" class="graph" transform="scale(1 1) rotate(0) translate(4 220)">
<title>LinearAlgebra::distributed::BlockVector&lt; Number &gt;</title>
<polygon fill="#ffffff" stroke="transparent" points="-4,4 -4,-220 291.5522,-220 291.5522,4 -4,4"/>
<!-- Node0 -->
<g id="node1" class="node">
<title>Node0</title>
<polygon fill="#bfbfbf" stroke="#000000" points="75.3066,-.5 75.3066,-28.5 205.2666,-28.5 205.2666,-.5 75.3066,-.5"/>
<text text-anchor="start" x="83.3066" y="-16.5" font-family="Helvetica,sans-Serif" font-size="10.00" fill="#000000">LinearAlgebra::distributed</text>
<text text-anchor="middle" x="140.2866" y="-6.5" font-family="Helvetica,sans-Serif" font-size="10.00" fill="#000000">::BlockVector&lt; Number &gt;</text>
</g>
<!-- Node1 -->
<g id="node2" class="node">
<title>Node1</title>
<g id="a_node2"><a xlink:href="classBlockVectorBase.html" target="_top" xlink:title="BlockVectorBase\&lt; Vector\l\&lt; Number \&gt; \&gt;">
<polygon fill="#ffffff" stroke="#000000" points="0,-66.5 0,-94.5 128.5732,-94.5 128.5732,-66.5 0,-66.5"/>
<text text-anchor="start" x="8" y="-82.5" font-family="Helvetica,sans-Serif" font-size="10.00" fill="#000000">BlockVectorBase&lt; Vector</text>
<text text-anchor="middle" x="64.2866" y="-72.5" font-family="Helvetica,sans-Serif" font-size="10.00" fill="#000000">&lt; Number &gt; &gt;</text>
</a>
</g>
</g>
<!-- Node1&#45;&gt;Node0 -->
<g id="edge1" class="edge">
<title>Node1&#45;&gt;Node0</title>
<path fill="none" stroke="#191970" d="M88.4472,-59.5184C100.082,-49.4145 113.7216,-37.5696 124.089,-28.5663"/>
<polygon fill="#191970" stroke="#191970" points="86.0329,-56.9795 80.7775,-66.179 90.6228,-62.2647 86.0329,-56.9795"/>
</g>
<!-- Node2 -->
<g id="node3" class="node">
<title>Node2</title>
<g id="a_node3"><a xlink:href="classSubscriptor.html" target="_top" xlink:title="Subscriptor">
<polygon fill="#ffffff" stroke="#000000" points="26.9985,-197.5 26.9985,-215.5 93.5747,-215.5 93.5747,-197.5 26.9985,-197.5"/>
<text text-anchor="middle" x="60.2866" y="-203.5" font-family="Helvetica,sans-Serif" font-size="10.00" fill="#000000">Subscriptor</text>
</a>
</g>
</g>
<!-- Node2&#45;&gt;Node1 -->
<g id="edge2" class="edge">
<title>Node2&#45;&gt;Node1</title>
<path fill="none" stroke="#191970" d="M60.8996,-187.1897C61.7093,-161.6844 63.1165,-117.3578 63.8355,-94.7089"/>
<polygon fill="#191970" stroke="#191970" points="57.3934,-187.3323 60.5743,-197.4384 64.3899,-187.5545 57.3934,-187.3323"/>
</g>
<!-- Node3 -->
<g id="node4" class="node">
<title>Node3</title>
<g id="a_node4"><a xlink:href="classBlockVectorBase.html" target="_top" xlink:title="BlockVectorBase\&lt; VectorType \&gt;">
<polygon fill="#ffffff" stroke="#000000" points="75.8486,-141.5 75.8486,-159.5 234.7246,-159.5 234.7246,-141.5 75.8486,-141.5"/>
<text text-anchor="middle" x="155.2866" y="-147.5" font-family="Helvetica,sans-Serif" font-size="10.00" fill="#000000">BlockVectorBase&lt; VectorType &gt;</text>
</a>
</g>
</g>
<!-- Node2&#45;&gt;Node3 -->
<g id="edge4" class="edge">
<title>Node2&#45;&gt;Node3</title>
<path fill="none" stroke="#191970" d="M84.9901,-191.938C102.3567,-181.7008 125.0527,-168.3221 139.8912,-159.5752"/>
<polygon fill="#191970" stroke="#191970" points="82.8113,-189.1594 75.9739,-197.2527 86.366,-195.1897 82.8113,-189.1594"/>
</g>
<!-- Node3&#45;&gt;Node1 -->
<g id="edge3" class="edge">
<title>Node3&#45;&gt;Node1</title>
<path fill="none" stroke="#ffa500" stroke-dasharray="5,2" d="M135.3901,-135.195C119.7396,-123.1561 98.0971,-106.508 82.8115,-94.7499"/>
<polygon fill="#ffa500" stroke="#ffa500" points="133.3297,-138.0258 143.39,-141.3487 137.5977,-132.4774 133.3297,-138.0258"/>
<text text-anchor="middle" x="168.8726" y="-115" font-family="Helvetica,sans-Serif" font-size="10.00" fill="#000000"> &lt; Vector&lt; Number &gt; &gt;</text>
</g>
<!-- Node4 -->
<g id="node5" class="node">
<title>Node4</title>
<g id="a_node5"><a xlink:href="classLinearAlgebra_1_1VectorSpaceVector.html" target="_top" xlink:title="LinearAlgebra::VectorSpace\lVector\&lt; Number \&gt;">
<polygon fill="#ffffff" stroke="#000000" points="147.021,-66.5 147.021,-94.5 287.5522,-94.5 287.5522,-66.5 147.021,-66.5"/>
<text text-anchor="start" x="155.021" y="-82.5" font-family="Helvetica,sans-Serif" font-size="10.00" fill="#000000">LinearAlgebra::VectorSpace</text>
<text text-anchor="middle" x="217.2866" y="-72.5" font-family="Helvetica,sans-Serif" font-size="10.00" fill="#000000">Vector&lt; Number &gt;</text>
</a>
</g>
</g>
<!-- Node4&#45;&gt;Node0 -->
<g id="edge5" class="edge">
<title>Node4&#45;&gt;Node0</title>
<path fill="none" stroke="#191970" d="M192.8081,-59.5184C181.0202,-49.4145 167.2012,-37.5696 156.6973,-28.5663"/>
<polygon fill="#191970" stroke="#191970" points="190.7084,-62.3284 200.5788,-66.179 195.264,-57.0136 190.7084,-62.3284"/>
</g>
</g>
</svg>
