<?xml version="1.0" encoding="UTF-8" standalone="no"?>
<!DOCTYPE svg PUBLIC "-//W3C//DTD SVG 1.1//EN"
 "http://www.w3.org/Graphics/SVG/1.1/DTD/svg11.dtd">
<!-- Generated by graphviz version 2.40.1 (20161225.0304)
 -->
<!-- Title: Tensor&lt; rank_, dim, Number &gt; Pages: 1 -->
<svg width="960pt" height="979pt"
 viewBox="0.00 0.00 959.71 979.29" xmlns="http://www.w3.org/2000/svg" xmlns:xlink="http://www.w3.org/1999/xlink">
<g id="graph0" class="graph" transform="scale(1 1) rotate(0) translate(4 975.2912)">
<title>Tensor&lt; rank_, dim, Number &gt;</title>
<polygon fill="#ffffff" stroke="transparent" points="-4,4 -4,-975.2912 955.7061,-975.2912 955.7061,4 -4,4"/>
<!-- Node0 -->
<g id="node1" class="node">
<title>Node0</title>
<polygon fill="#bfbfbf" stroke="#000000" points="0,-420.4611 0,-448.4611 104.0957,-448.4611 104.0957,-420.4611 0,-420.4611"/>
<text text-anchor="start" x="8" y="-436.4611" font-family="Helvetica,sans-Serif" font-size="10.00" fill="#000000">Tensor&lt; rank_, dim,</text>
<text text-anchor="middle" x="52.0479" y="-426.4611" font-family="Helvetica,sans-Serif" font-size="10.00" fill="#000000"> Number &gt;</text>
</g>
<!-- Node1 -->
<g id="node2" class="node">
<title>Node1</title>
<g id="a_node2"><a xlink:href="classPoint.html" target="_top" xlink:title="Point\&lt; 2 \&gt;">
<polygon fill="#ffffff" stroke="#000000" points="851.0747,-844.4611 851.0747,-862.4611 912.6655,-862.4611 912.6655,-844.4611 851.0747,-844.4611"/>
<text text-anchor="middle" x="881.8701" y="-850.4611" font-family="Helvetica,sans-Serif" font-size="10.00" fill="#000000">Point&lt; 2 &gt;</text>
</a>
</g>
</g>
<!-- Node0&#45;&gt;Node1 -->
<g id="edge1" class="edge">
<title>Node0&#45;&gt;Node1</title>
<path fill="none" stroke="#191970" d="M53.796,-458.7961C59.4228,-530.8225 79.2488,-741.1109 122.0957,-792.4611 223.8396,-914.3969 549.787,-872.9815 690.377,-878.4611 736.4119,-880.2553 748.4064,-884.828 794.0342,-878.4611 815.704,-875.4373 839.5352,-868.4088 856.9005,-862.5719"/>
<polygon fill="#191970" stroke="#191970" points="57.2592,-458.1758 53.0135,-448.4689 50.2792,-458.7048 57.2592,-458.1758"/>
</g>
<!-- Node2 -->
<g id="node3" class="node">
<title>Node2</title>
<g id="a_node3"><a xlink:href="classPoint.html" target="_top" xlink:title="Point\&lt; 3 \&gt;">
<polygon fill="#ffffff" stroke="#000000" points="851.0747,-771.4611 851.0747,-789.4611 912.6655,-789.4611 912.6655,-771.4611 851.0747,-771.4611"/>
<text text-anchor="middle" x="881.8701" y="-777.4611" font-family="Helvetica,sans-Serif" font-size="10.00" fill="#000000">Point&lt; 3 &gt;</text>
</a>
</g>
</g>
<!-- Node0&#45;&gt;Node2 -->
<g id="edge2" class="edge">
<title>Node0&#45;&gt;Node2</title>
<path fill="none" stroke="#191970" d="M54.1118,-458.6867C60.2036,-524.131 80.3537,-702.1314 122.0957,-740.4611 309.9658,-912.973 435.9405,-802.6398 690.377,-820.4611 736.3342,-823.68 749.0119,-830.2299 794.0342,-820.4611 821.2168,-814.5631 850.0794,-799.4952 867.0138,-789.6296"/>
<polygon fill="#191970" stroke="#191970" points="57.578,-458.1528 53.1943,-448.5075 50.6063,-458.7813 57.578,-458.1528"/>
</g>
<!-- Node3 -->
<g id="node4" class="node">
<title>Node3</title>
<g id="a_node4"><a xlink:href="classPoint.html" target="_top" xlink:title="Point\&lt; dim \&gt;">
<polygon fill="#ffffff" stroke="#000000" points="845.7988,-889.4611 845.7988,-907.4611 917.9414,-907.4611 917.9414,-889.4611 845.7988,-889.4611"/>
<text text-anchor="middle" x="881.8701" y="-895.4611" font-family="Helvetica,sans-Serif" font-size="10.00" fill="#000000">Point&lt; dim &gt;</text>
</a>
</g>
</g>
<!-- Node0&#45;&gt;Node3 -->
<g id="edge3" class="edge">
<title>Node0&#45;&gt;Node3</title>
<path fill="none" stroke="#191970" d="M53.1034,-458.8551C56.964,-537.1595 72.7714,-780.4313 122.0957,-838.4611 312.1202,-1062.0242 743.0171,-943.301 854.9143,-907.5316"/>
<polygon fill="#191970" stroke="#191970" points="56.5843,-458.365 52.618,-448.5407 49.5921,-458.6942 56.5843,-458.365"/>
</g>
<!-- Node4 -->
<g id="node5" class="node">
<title>Node4</title>
<g id="a_node5"><a xlink:href="classPoint.html" target="_top" xlink:title="Point\&lt; dim&#45;1 \&gt;">
<polygon fill="#ffffff" stroke="#000000" points="841.353,-604.4611 841.353,-622.4611 922.3872,-622.4611 922.3872,-604.4611 841.353,-604.4611"/>
<text text-anchor="middle" x="881.8701" y="-610.4611" font-family="Helvetica,sans-Serif" font-size="10.00" fill="#000000">Point&lt; dim&#45;1 &gt;</text>
</a>
</g>
</g>
<!-- Node0&#45;&gt;Node4 -->
<g id="edge4" class="edge">
<title>Node0&#45;&gt;Node4</title>
<path fill="none" stroke="#191970" d="M57.3869,-458.2881C65.5894,-488.7149 84.4576,-540.3104 122.0957,-564.4611 137.3661,-574.2594 685.6367,-603.3101 841.1357,-611.3678"/>
<polygon fill="#191970" stroke="#191970" points="60.7549,-457.3296 54.9171,-448.4882 53.9671,-459.0404 60.7549,-457.3296"/>
</g>
<!-- Node5 -->
<g id="node6" class="node">
<title>Node5</title>
<g id="a_node6"><a xlink:href="classPoint.html" target="_top" xlink:title="Point\&lt; spacedim \&gt;">
<polygon fill="#ffffff" stroke="#000000" points="832.4565,-724.4611 832.4565,-742.4611 931.2837,-742.4611 931.2837,-724.4611 832.4565,-724.4611"/>
<text text-anchor="middle" x="881.8701" y="-730.4611" font-family="Helvetica,sans-Serif" font-size="10.00" fill="#000000">Point&lt; spacedim &gt;</text>
</a>
</g>
</g>
<!-- Node0&#45;&gt;Node5 -->
<g id="edge5" class="edge">
<title>Node0&#45;&gt;Node5</title>
<path fill="none" stroke="#191970" d="M56.2822,-458.5034C65.8575,-509.8695 90.7987,-627.5905 122.0957,-651.4611 181.5186,-696.7835 723.4557,-656.8872 794.0342,-681.4611 803.3537,-684.7059 803.7122,-689.1575 812.0342,-694.4611 829.3661,-705.5068 849.9992,-716.8158 864.3236,-724.3919"/>
<polygon fill="#191970" stroke="#191970" points="59.7146,-457.816 54.4754,-448.6072 52.8285,-459.0733 59.7146,-457.816"/>
</g>
<!-- Node6 -->
<g id="node7" class="node">
<title>Node6</title>
<g id="a_node7"><a xlink:href="classTensor.html" target="_top" xlink:title="Tensor\&lt; 2, dim \&gt;">
<polygon fill="#ffffff" stroke="#000000" points="276.6899,-541.4611 276.6899,-559.4611 367.1724,-559.4611 367.1724,-541.4611 276.6899,-541.4611"/>
<text text-anchor="middle" x="321.9312" y="-547.4611" font-family="Helvetica,sans-Serif" font-size="10.00" fill="#000000">Tensor&lt; 2, dim &gt;</text>
</a>
</g>
</g>
<!-- Node0&#45;&gt;Node6 -->
<g id="edge6" class="edge">
<title>Node0&#45;&gt;Node6</title>
<path fill="none" stroke="#ffa500" stroke-dasharray="5,2" d="M64.4388,-457.379C76.4436,-477.2091 96.5625,-504.919 122.0957,-519.4611 169.8402,-546.6533 233.8925,-552.1842 276.4706,-552.3757"/>
<polygon fill="#ffa500" stroke="#ffa500" points="67.4073,-455.5212 59.3565,-448.6339 61.3552,-459.0385 67.4073,-455.5212"/>
<text text-anchor="middle" x="179.4834" y="-552.4611" font-family="Helvetica,sans-Serif" font-size="10.00" fill="#000000"> &lt; 2, dim &gt;</text>
</g>
<!-- Node7 -->
<g id="node8" class="node">
<title>Node7</title>
<g id="a_node8"><a xlink:href="classTensor.html" target="_top" xlink:title="Tensor\&lt; 3, dim \&gt;">
<polygon fill="#ffffff" stroke="#000000" points="276.6899,-504.4611 276.6899,-522.4611 367.1724,-522.4611 367.1724,-504.4611 276.6899,-504.4611"/>
<text text-anchor="middle" x="321.9312" y="-510.4611" font-family="Helvetica,sans-Serif" font-size="10.00" fill="#000000">Tensor&lt; 3, dim &gt;</text>
</a>
</g>
</g>
<!-- Node0&#45;&gt;Node7 -->
<g id="edge7" class="edge">
<title>Node0&#45;&gt;Node7</title>
<path fill="none" stroke="#ffa500" stroke-dasharray="5,2" d="M77.8944,-454.6358C90.5627,-463.5621 106.4367,-473.3916 122.0957,-479.4611 172.7926,-499.1115 235.083,-507.4271 276.5079,-510.9321"/>
<polygon fill="#ffa500" stroke="#ffa500" points="79.8236,-451.711 69.6782,-448.6577 75.7051,-457.3713 79.8236,-451.711"/>
<text text-anchor="middle" x="179.4834" y="-507.4611" font-family="Helvetica,sans-Serif" font-size="10.00" fill="#000000"> &lt; 3, dim &gt;</text>
</g>
<!-- Node8 -->
<g id="node9" class="node">
<title>Node8</title>
<g id="a_node9"><a xlink:href="classTensor.html" target="_top" xlink:title="Tensor\&lt; 4, dim \&gt;">
<polygon fill="#ffffff" stroke="#000000" points="276.6899,-467.4611 276.6899,-485.4611 367.1724,-485.4611 367.1724,-467.4611 276.6899,-467.4611"/>
<text text-anchor="middle" x="321.9312" y="-473.4611" font-family="Helvetica,sans-Serif" font-size="10.00" fill="#000000">Tensor&lt; 4, dim &gt;</text>
</a>
</g>
</g>
<!-- Node0&#45;&gt;Node8 -->
<g id="edge8" class="edge">
<title>Node0&#45;&gt;Node8</title>
<path fill="none" stroke="#ffa500" stroke-dasharray="5,2" d="M114.4333,-447.1212C117.0195,-447.5854 119.5816,-448.0341 122.0957,-448.4611 174.9388,-457.4361 235.9977,-465.6845 276.5768,-470.8691"/>
<polygon fill="#ffa500" stroke="#ffa500" points="114.8583,-443.6406 104.3891,-445.2671 113.5876,-450.5243 114.8583,-443.6406"/>
<text text-anchor="middle" x="179.4834" y="-467.4611" font-family="Helvetica,sans-Serif" font-size="10.00" fill="#000000"> &lt; 4, dim &gt;</text>
</g>
<!-- Node9 -->
<g id="node10" class="node">
<title>Node9</title>
<g id="a_node10"><a xlink:href="classTensor.html" target="_top" xlink:title="Tensor\&lt; 1, dim, Vectorized\lArray\&lt; Number \&gt; \&gt;">
<polygon fill="#ffffff" stroke="#000000" points="406.9912,-610.4611 406.9912,-638.4611 541.1113,-638.4611 541.1113,-610.4611 406.9912,-610.4611"/>
<text text-anchor="start" x="414.9912" y="-626.4611" font-family="Helvetica,sans-Serif" font-size="10.00" fill="#000000">Tensor&lt; 1, dim, Vectorized</text>
<text text-anchor="middle" x="474.0513" y="-616.4611" font-family="Helvetica,sans-Serif" font-size="10.00" fill="#000000">Array&lt; Number &gt; &gt;</text>
</a>
</g>
</g>
<!-- Node0&#45;&gt;Node9 -->
<g id="edge9" class="edge">
<title>Node0&#45;&gt;Node9</title>
<path fill="none" stroke="#ffa500" stroke-dasharray="5,2" d="M54.3286,-458.9379C59.2976,-496.8087 74.7806,-568.747 122.0957,-602.4611 166.2218,-633.9028 317.5795,-632.3835 406.7935,-628.4515"/>
<polygon fill="#ffa500" stroke="#ffa500" points="57.7798,-458.3151 53.144,-448.7883 50.827,-459.1267 57.7798,-458.3151"/>
<text text-anchor="start" x="122.0957" y="-639.4611" font-family="Helvetica,sans-Serif" font-size="10.00" fill="#000000"> &lt; 1, dim, VectorizedArray</text>
<text text-anchor="middle" x="179.4834" y="-629.4611" font-family="Helvetica,sans-Serif" font-size="10.00" fill="#000000">&lt; Number &gt; &gt;</text>
</g>
<!-- Node11 -->
<g id="node12" class="node">
<title>Node11</title>
<g id="a_node12"><a xlink:href="classTensor.html" target="_top" xlink:title="Tensor\&lt; order, dim,\l Number \&gt;">
<polygon fill="#ffffff" stroke="#000000" points="270.9917,-420.4611 270.9917,-448.4611 372.8706,-448.4611 372.8706,-420.4611 270.9917,-420.4611"/>
<text text-anchor="start" x="278.9917" y="-436.4611" font-family="Helvetica,sans-Serif" font-size="10.00" fill="#000000">Tensor&lt; order, dim,</text>
<text text-anchor="middle" x="321.9312" y="-426.4611" font-family="Helvetica,sans-Serif" font-size="10.00" fill="#000000"> Number &gt;</text>
</a>
</g>
</g>
<!-- Node0&#45;&gt;Node11 -->
<g id="edge11" class="edge">
<title>Node0&#45;&gt;Node11</title>
<path fill="none" stroke="#ffa500" stroke-dasharray="5,2" d="M114.5463,-434.4611C161.9299,-434.4611 226.2518,-434.4611 270.6367,-434.4611"/>
<polygon fill="#ffa500" stroke="#ffa500" points="114.4041,-430.9612 104.4041,-434.4611 114.404,-437.9612 114.4041,-430.9612"/>
<text text-anchor="middle" x="179.4834" y="-436.4611" font-family="Helvetica,sans-Serif" font-size="10.00" fill="#000000"> &lt; order, dim, Number &gt;</text>
</g>
<!-- Node12 -->
<g id="node13" class="node">
<title>Node12</title>
<g id="a_node13"><a xlink:href="classTensor.html" target="_top" xlink:title="Tensor\&lt; rank, dim,\l Number \&gt;">
<polygon fill="#ffffff" stroke="#000000" points="272.6641,-373.4611 272.6641,-401.4611 371.1982,-401.4611 371.1982,-373.4611 272.6641,-373.4611"/>
<text text-anchor="start" x="280.6641" y="-389.4611" font-family="Helvetica,sans-Serif" font-size="10.00" fill="#000000">Tensor&lt; rank, dim,</text>
<text text-anchor="middle" x="321.9312" y="-379.4611" font-family="Helvetica,sans-Serif" font-size="10.00" fill="#000000"> Number &gt;</text>
</a>
</g>
</g>
<!-- Node0&#45;&gt;Node12 -->
<g id="edge12" class="edge">
<title>Node0&#45;&gt;Node12</title>
<path fill="none" stroke="#ffa500" stroke-dasharray="5,2" d="M114.447,-421.8789C117.0294,-421.3933 119.587,-420.9188 122.0957,-420.4611 173.2926,-411.1204 232.0838,-401.5503 272.5769,-395.138"/>
<polygon fill="#ffa500" stroke="#ffa500" points="113.5795,-418.4813 104.4138,-423.7954 114.8929,-425.357 113.5795,-418.4813"/>
<text text-anchor="middle" x="179.4834" y="-422.4611" font-family="Helvetica,sans-Serif" font-size="10.00" fill="#000000"> &lt; rank, dim, Number &gt;</text>
</g>
<!-- Node13 -->
<g id="node14" class="node">
<title>Node13</title>
<g id="a_node14"><a xlink:href="classTensor.html" target="_top" xlink:title="Tensor\&lt; order, dim,\l double \&gt;">
<polygon fill="#ffffff" stroke="#000000" points="270.9917,-326.4611 270.9917,-354.4611 372.8706,-354.4611 372.8706,-326.4611 270.9917,-326.4611"/>
<text text-anchor="start" x="278.9917" y="-342.4611" font-family="Helvetica,sans-Serif" font-size="10.00" fill="#000000">Tensor&lt; order, dim,</text>
<text text-anchor="middle" x="321.9312" y="-332.4611" font-family="Helvetica,sans-Serif" font-size="10.00" fill="#000000"> double &gt;</text>
</a>
</g>
</g>
<!-- Node0&#45;&gt;Node13 -->
<g id="edge13" class="edge">
<title>Node0&#45;&gt;Node13</title>
<path fill="none" stroke="#ffa500" stroke-dasharray="5,2" d="M77.0783,-413.8996C89.8679,-404.3094 106.0815,-393.4881 122.0957,-386.4611 170.1814,-365.361 229.196,-353.3047 270.5825,-346.8753"/>
<polygon fill="#ffa500" stroke="#ffa500" points="74.5909,-411.3983 68.8155,-420.2807 78.8694,-416.9386 74.5909,-411.3983"/>
<text text-anchor="middle" x="179.4834" y="-388.4611" font-family="Helvetica,sans-Serif" font-size="10.00" fill="#000000"> &lt; order, dim, double &gt;</text>
</g>
<!-- Node14 -->
<g id="node15" class="node">
<title>Node14</title>
<g id="a_node15"><a xlink:href="classTensor.html" target="_top" xlink:title="Tensor\&lt; 1, dim \&gt;">
<polygon fill="#ffffff" stroke="#000000" points="276.6899,-289.4611 276.6899,-307.4611 367.1724,-307.4611 367.1724,-289.4611 276.6899,-289.4611"/>
<text text-anchor="middle" x="321.9312" y="-295.4611" font-family="Helvetica,sans-Serif" font-size="10.00" fill="#000000">Tensor&lt; 1, dim &gt;</text>
</a>
</g>
</g>
<!-- Node0&#45;&gt;Node14 -->
<g id="edge14" class="edge">
<title>Node0&#45;&gt;Node14</title>
<path fill="none" stroke="#ffa500" stroke-dasharray="5,2" d="M62.6056,-411.3425C74.0266,-389.0569 94.3885,-356.1813 122.0957,-338.4611 168.893,-308.5318 233.4514,-300.2681 276.3846,-298.3526"/>
<polygon fill="#ffa500" stroke="#ffa500" points="59.396,-409.9383 58.1279,-420.457 65.6787,-413.0249 59.396,-409.9383"/>
<text text-anchor="middle" x="179.4834" y="-340.4611" font-family="Helvetica,sans-Serif" font-size="10.00" fill="#000000"> &lt; 1, dim &gt;</text>
</g>
<!-- Node15 -->
<g id="node16" class="node">
<title>Node15</title>
<g id="a_node16"><a xlink:href="classTensor.html" target="_top" xlink:title="Tensor\&lt; 1, spacedim \&gt;">
<polygon fill="#ffffff" stroke="#000000" points="263.3477,-252.4611 263.3477,-270.4611 380.5146,-270.4611 380.5146,-252.4611 263.3477,-252.4611"/>
<text text-anchor="middle" x="321.9312" y="-258.4611" font-family="Helvetica,sans-Serif" font-size="10.00" fill="#000000">Tensor&lt; 1, spacedim &gt;</text>
</a>
</g>
</g>
<!-- Node0&#45;&gt;Node15 -->
<g id="edge15" class="edge">
<title>Node0&#45;&gt;Node15</title>
<path fill="none" stroke="#ffa500" stroke-dasharray="5,2" d="M56.1713,-410.4423C63.2785,-376.984 81.2163,-317.126 122.0957,-287.4611 162.5877,-258.0773 220.1966,-253.408 263.165,-255.011"/>
<polygon fill="#ffa500" stroke="#ffa500" points="52.7271,-409.8181 54.229,-420.3059 59.5952,-411.1706 52.7271,-409.8181"/>
<text text-anchor="middle" x="179.4834" y="-289.4611" font-family="Helvetica,sans-Serif" font-size="10.00" fill="#000000"> &lt; 1, spacedim &gt;</text>
</g>
<!-- Node16 -->
<g id="node17" class="node">
<title>Node16</title>
<g id="a_node17"><a xlink:href="classTensor.html" target="_top" xlink:title="Tensor\&lt; 3, spacedim \&gt;">
<polygon fill="#ffffff" stroke="#000000" points="263.3477,-215.4611 263.3477,-233.4611 380.5146,-233.4611 380.5146,-215.4611 263.3477,-215.4611"/>
<text text-anchor="middle" x="321.9312" y="-221.4611" font-family="Helvetica,sans-Serif" font-size="10.00" fill="#000000">Tensor&lt; 3, spacedim &gt;</text>
</a>
</g>
</g>
<!-- Node0&#45;&gt;Node16 -->
<g id="edge16" class="edge">
<title>Node0&#45;&gt;Node16</title>
<path fill="none" stroke="#ffa500" stroke-dasharray="5,2" d="M57.3092,-410.4832C68.1512,-363.42 94.3049,-261.6798 122.0957,-240.4611 166.7719,-206.3502 234.6105,-208.9099 278.6067,-215.4478"/>
<polygon fill="#ffa500" stroke="#ffa500" points="53.8536,-409.8961 55.0608,-420.4219 60.6811,-411.4407 53.8536,-409.8961"/>
<text text-anchor="middle" x="179.4834" y="-242.4611" font-family="Helvetica,sans-Serif" font-size="10.00" fill="#000000"> &lt; 3, spacedim &gt;</text>
</g>
<!-- Node17 -->
<g id="node18" class="node">
<title>Node17</title>
<g id="a_node18"><a xlink:href="classTensor.html" target="_top" xlink:title="Tensor\&lt; 2, spacedim \&gt;">
<polygon fill="#ffffff" stroke="#000000" points="263.3477,-178.4611 263.3477,-196.4611 380.5146,-196.4611 380.5146,-178.4611 263.3477,-178.4611"/>
<text text-anchor="middle" x="321.9312" y="-184.4611" font-family="Helvetica,sans-Serif" font-size="10.00" fill="#000000">Tensor&lt; 2, spacedim &gt;</text>
</a>
</g>
</g>
<!-- Node0&#45;&gt;Node17 -->
<g id="edge17" class="edge">
<title>Node0&#45;&gt;Node17</title>
<path fill="none" stroke="#ffa500" stroke-dasharray="5,2" d="M55.5685,-410.3847C64.1413,-355.3919 87.9311,-223.2392 122.0957,-196.4611 170.0657,-158.8623 246.1819,-168.5852 289.3086,-178.4178"/>
<polygon fill="#ffa500" stroke="#ffa500" points="52.104,-409.8873 54.0583,-420.3003 59.0242,-410.9414 52.104,-409.8873"/>
<text text-anchor="middle" x="179.4834" y="-198.4611" font-family="Helvetica,sans-Serif" font-size="10.00" fill="#000000"> &lt; 2, spacedim &gt;</text>
</g>
<!-- Node18 -->
<g id="node19" class="node">
<title>Node18</title>
<g id="a_node19"><a xlink:href="classTensor.html" target="_top" xlink:title="Tensor\&lt; 5, spacedim \&gt;">
<polygon fill="#ffffff" stroke="#000000" points="263.3477,-141.4611 263.3477,-159.4611 380.5146,-159.4611 380.5146,-141.4611 263.3477,-141.4611"/>
<text text-anchor="middle" x="321.9312" y="-147.4611" font-family="Helvetica,sans-Serif" font-size="10.00" fill="#000000">Tensor&lt; 5, spacedim &gt;</text>
</a>
</g>
</g>
<!-- Node0&#45;&gt;Node18 -->
<g id="edge18" class="edge">
<title>Node0&#45;&gt;Node18</title>
<path fill="none" stroke="#ffa500" stroke-dasharray="5,2" d="M54.4123,-410.479C61.0249,-348.8687 81.91,-187.6211 122.0957,-155.4611 171.1393,-116.2123 250.7286,-129.9643 293.1535,-141.3908"/>
<polygon fill="#ffa500" stroke="#ffa500" points="50.9287,-410.1408 53.3745,-420.4495 57.8911,-410.8656 50.9287,-410.1408"/>
<text text-anchor="middle" x="179.4834" y="-157.4611" font-family="Helvetica,sans-Serif" font-size="10.00" fill="#000000"> &lt; 5, spacedim &gt;</text>
</g>
<!-- Node19 -->
<g id="node20" class="node">
<title>Node19</title>
<g id="a_node20"><a xlink:href="classTensor.html" target="_top" xlink:title="Tensor\&lt; 4, spacedim \&gt;">
<polygon fill="#ffffff" stroke="#000000" points="263.3477,-104.4611 263.3477,-122.4611 380.5146,-122.4611 380.5146,-104.4611 263.3477,-104.4611"/>
<text text-anchor="middle" x="321.9312" y="-110.4611" font-family="Helvetica,sans-Serif" font-size="10.00" fill="#000000">Tensor&lt; 4, spacedim &gt;</text>
</a>
</g>
</g>
<!-- Node0&#45;&gt;Node19 -->
<g id="edge19" class="edge">
<title>Node0&#45;&gt;Node19</title>
<path fill="none" stroke="#ffa500" stroke-dasharray="5,2" d="M53.5678,-410.181C58.3837,-342.0991 75.8136,-151.8991 122.0957,-114.4611 143.0005,-97.551 211.849,-100.7514 262.9209,-105.9088"/>
<polygon fill="#ffa500" stroke="#ffa500" points="50.0617,-410.1549 52.878,-420.3686 57.0457,-410.6279 50.0617,-410.1549"/>
<text text-anchor="middle" x="179.4834" y="-116.4611" font-family="Helvetica,sans-Serif" font-size="10.00" fill="#000000"> &lt; 4, spacedim &gt;</text>
</g>
<!-- Node20 -->
<g id="node21" class="node">
<title>Node20</title>
<g id="a_node21"><a xlink:href="classTensor.html" target="_top" xlink:title="Tensor\&lt; 2, dim, Vectorized\lArray\&lt; Number \&gt; \&gt;">
<polygon fill="#ffffff" stroke="#000000" points="254.8711,-57.4611 254.8711,-85.4611 388.9912,-85.4611 388.9912,-57.4611 254.8711,-57.4611"/>
<text text-anchor="start" x="262.8711" y="-73.4611" font-family="Helvetica,sans-Serif" font-size="10.00" fill="#000000">Tensor&lt; 2, dim, Vectorized</text>
<text text-anchor="middle" x="321.9312" y="-63.4611" font-family="Helvetica,sans-Serif" font-size="10.00" fill="#000000">Array&lt; Number &gt; &gt;</text>
</a>
</g>
</g>
<!-- Node0&#45;&gt;Node20 -->
<g id="edge20" class="edge">
<title>Node0&#45;&gt;Node20</title>
<path fill="none" stroke="#ffa500" stroke-dasharray="5,2" d="M53.0379,-409.9082C56.5577,-336.4336 71.1293,-120.698 122.0957,-77.4611 163.3858,-42.433 228.5601,-47.8673 273.1771,-57.4578"/>
<polygon fill="#ffa500" stroke="#ffa500" points="49.5344,-409.9086 52.5798,-420.0563 56.5273,-410.2243 49.5344,-409.9086"/>
<text text-anchor="start" x="122.0957" y="-89.4611" font-family="Helvetica,sans-Serif" font-size="10.00" fill="#000000"> &lt; 2, dim, VectorizedArray</text>
<text text-anchor="middle" x="179.4834" y="-79.4611" font-family="Helvetica,sans-Serif" font-size="10.00" fill="#000000">&lt; Number &gt; &gt;</text>
</g>
<!-- Node21 -->
<g id="node22" class="node">
<title>Node21</title>
<g id="a_node22"><a xlink:href="classTensor.html" target="_top" xlink:title="Tensor\&lt; 3, dim, Vectorized\lArray\&lt; Number \&gt; \&gt;">
<polygon fill="#ffffff" stroke="#000000" points="254.8711,-10.4611 254.8711,-38.4611 388.9912,-38.4611 388.9912,-10.4611 254.8711,-10.4611"/>
<text text-anchor="start" x="262.8711" y="-26.4611" font-family="Helvetica,sans-Serif" font-size="10.00" fill="#000000">Tensor&lt; 3, dim, Vectorized</text>
<text text-anchor="middle" x="321.9312" y="-16.4611" font-family="Helvetica,sans-Serif" font-size="10.00" fill="#000000">Array&lt; Number &gt; &gt;</text>
</a>
</g>
</g>
<!-- Node0&#45;&gt;Node21 -->
<g id="edge21" class="edge">
<title>Node0&#45;&gt;Node21</title>
<path fill="none" stroke="#ffa500" stroke-dasharray="5,2" d="M52.3384,-410.152C53.8561,-330.0297 63.3025,-76.5259 122.0957,-26.4611 165.0212,10.0917 233.9706,1.0455 278.6099,-10.4386"/>
<polygon fill="#ffa500" stroke="#ffa500" points="48.837,-410.2116 52.1725,-420.2677 55.8361,-410.3264 48.837,-410.2116"/>
<text text-anchor="start" x="122.0957" y="-38.4611" font-family="Helvetica,sans-Serif" font-size="10.00" fill="#000000"> &lt; 3, dim, VectorizedArray</text>
<text text-anchor="middle" x="179.4834" y="-28.4611" font-family="Helvetica,sans-Serif" font-size="10.00" fill="#000000">&lt; Number &gt; &gt;</text>
</g>
<!-- Node22 -->
<g id="node23" class="node">
<title>Node22</title>
<g id="a_node23"><a xlink:href="classTensor.html" target="_top" xlink:title="Tensor\&lt; 1, dim, Number \&gt;">
<polygon fill="#ffffff" stroke="#000000" points="256.1284,-718.4611 256.1284,-736.4611 387.7339,-736.4611 387.7339,-718.4611 256.1284,-718.4611"/>
<text text-anchor="middle" x="321.9312" y="-724.4611" font-family="Helvetica,sans-Serif" font-size="10.00" fill="#000000">Tensor&lt; 1, dim, Number &gt;</text>
</a>
</g>
</g>
<!-- Node0&#45;&gt;Node22 -->
<g id="edge22" class="edge">
<title>Node0&#45;&gt;Node22</title>
<path fill="none" stroke="#ffa500" stroke-dasharray="5,2" d="M55.7248,-458.6277C64.7132,-514.543 89.4704,-650.4304 122.0957,-681.4611 157.5655,-715.1972 212.5828,-725.9637 255.9167,-728.7026"/>
<polygon fill="#ffa500" stroke="#ffa500" points="59.1533,-457.8992 54.1397,-448.5657 52.2385,-458.9886 59.1533,-457.8992"/>
<text text-anchor="middle" x="179.4834" y="-728.4611" font-family="Helvetica,sans-Serif" font-size="10.00" fill="#000000"> &lt; 1, dim, Number &gt;</text>
</g>
<!-- Node10 -->
<g id="node11" class="node">
<title>Node10</title>
<g id="a_node11"><a xlink:href="classPoint.html" target="_top" xlink:title="Point\&lt; dim, VectorizedArray\l\&lt; Number \&gt; \&gt;">
<polygon fill="#ffffff" stroke="#000000" points="812.0342,-656.4611 812.0342,-684.4611 951.7061,-684.4611 951.7061,-656.4611 812.0342,-656.4611"/>
<text text-anchor="start" x="820.0342" y="-672.4611" font-family="Helvetica,sans-Serif" font-size="10.00" fill="#000000">Point&lt; dim, VectorizedArray</text>
<text text-anchor="middle" x="881.8701" y="-662.4611" font-family="Helvetica,sans-Serif" font-size="10.00" fill="#000000">&lt; Number &gt; &gt;</text>
</a>
</g>
</g>
<!-- Node9&#45;&gt;Node10 -->
<g id="edge10" class="edge">
<title>Node9&#45;&gt;Node10</title>
<path fill="none" stroke="#191970" d="M551.5217,-615.7078C617.0508,-610.5423 712.9529,-608.2785 794.0342,-627.4611 817.9917,-633.1291 842.989,-646.1714 860.1623,-656.4159"/>
<polygon fill="#191970" stroke="#191970" points="550.9484,-612.2432 541.2724,-616.5589 551.5278,-619.2192 550.9484,-612.2432"/>
</g>
<!-- Node23 -->
<g id="node24" class="node">
<title>Node23</title>
<g id="a_node24"><a xlink:href="classPoint.html" target="_top" xlink:title="Point\&lt; dim, Number \&gt;">
<polygon fill="#ffffff" stroke="#000000" points="559.1113,-734.4611 559.1113,-752.4611 672.377,-752.4611 672.377,-734.4611 559.1113,-734.4611"/>
<text text-anchor="middle" x="615.7441" y="-740.4611" font-family="Helvetica,sans-Serif" font-size="10.00" fill="#000000">Point&lt; dim, Number &gt;</text>
</a>
</g>
</g>
<!-- Node22&#45;&gt;Node23 -->
<g id="edge23" class="edge">
<title>Node22&#45;&gt;Node23</title>
<path fill="none" stroke="#191970" d="M398.0428,-731.6059C448.3248,-734.344 513.1486,-737.8741 558.9417,-740.3678"/>
<polygon fill="#191970" stroke="#191970" points="398.0441,-728.1008 387.8685,-731.0518 397.6634,-735.0905 398.0441,-728.1008"/>
</g>
<!-- Node23&#45;&gt;Node1 -->
<g id="edge24" class="edge">
<title>Node23&#45;&gt;Node1</title>
<path fill="none" stroke="#ffa500" stroke-dasharray="5,2" d="M641.5438,-757.4929C655.7633,-764.998 673.8384,-774.1686 690.377,-781.4611 747.8994,-806.8251 817.421,-831.5345 854.851,-844.3694"/>
<polygon fill="#ffa500" stroke="#ffa500" points="642.8524,-754.2241 632.3817,-752.6066 639.5583,-760.4007 642.8524,-754.2241"/>
<text text-anchor="middle" x="742.2056" y="-824.4611" font-family="Helvetica,sans-Serif" font-size="10.00" fill="#000000"> &lt; 2 &gt;</text>
</g>
<!-- Node23&#45;&gt;Node2 -->
<g id="edge25" class="edge">
<title>Node23&#45;&gt;Node2</title>
<path fill="none" stroke="#ffa500" stroke-dasharray="5,2" d="M682.7695,-753.3771C685.3378,-753.7452 687.8807,-754.1077 690.377,-754.4611 747.0155,-762.4798 813.1517,-771.3503 851.0108,-776.3811"/>
<polygon fill="#ffa500" stroke="#ffa500" points="683.179,-749.9 672.7817,-751.936 682.1793,-756.8282 683.179,-749.9"/>
<text text-anchor="middle" x="742.2056" y="-769.4611" font-family="Helvetica,sans-Serif" font-size="10.00" fill="#000000"> &lt; 3 &gt;</text>
</g>
<!-- Node23&#45;&gt;Node3 -->
<g id="edge29" class="edge">
<title>Node23&#45;&gt;Node3</title>
<path fill="none" stroke="#ffa500" stroke-dasharray="5,2" d="M625.7207,-761.4251C638.2207,-782.3469 661.5426,-816.5721 690.377,-836.4611 738.271,-869.4969 804.8685,-885.7868 845.5808,-893.1392"/>
<polygon fill="#ffa500" stroke="#ffa500" points="628.6518,-759.5019 620.6172,-752.5957 622.5913,-763.005 628.6518,-759.5019"/>
<text text-anchor="middle" x="742.2056" y="-881.4611" font-family="Helvetica,sans-Serif" font-size="10.00" fill="#000000"> &lt; dim &gt;</text>
</g>
<!-- Node23&#45;&gt;Node4 -->
<g id="edge27" class="edge">
<title>Node23&#45;&gt;Node4</title>
<path fill="none" stroke="#ffa500" stroke-dasharray="5,2" d="M629.6754,-725.8861C643.4704,-709.5888 666.0097,-685.7636 690.377,-671.4611 738.1593,-643.415 800.7356,-627.8021 841.1227,-620.0166"/>
<polygon fill="#ffa500" stroke="#ffa500" points="626.6039,-724.1107 622.9551,-734.0574 632.0104,-728.5571 626.6039,-724.1107"/>
<text text-anchor="middle" x="742.2056" y="-673.4611" font-family="Helvetica,sans-Serif" font-size="10.00" fill="#000000"> &lt; dim&#45;1 &gt;</text>
</g>
<!-- Node23&#45;&gt;Node5 -->
<g id="edge28" class="edge">
<title>Node23&#45;&gt;Node5</title>
<path fill="none" stroke="#ffa500" stroke-dasharray="5,2" d="M682.5057,-740.9524C729.0485,-739.2035 790.1285,-736.9084 832.3555,-735.3217"/>
<polygon fill="#ffa500" stroke="#ffa500" points="682.3699,-737.455 672.5084,-741.3281 682.6328,-744.45 682.3699,-737.455"/>
<text text-anchor="middle" x="742.2056" y="-742.4611" font-family="Helvetica,sans-Serif" font-size="10.00" fill="#000000"> &lt; spacedim &gt;</text>
</g>
<!-- Node23&#45;&gt;Node10 -->
<g id="edge26" class="edge">
<title>Node23&#45;&gt;Node10</title>
<path fill="none" stroke="#ffa500" stroke-dasharray="5,2" d="M644.4078,-730.1506C658.1088,-724.1535 674.8686,-717.34 690.377,-712.4611 729.9865,-699.9999 775.3335,-689.8771 811.9537,-682.694"/>
<polygon fill="#ffa500" stroke="#ffa500" points="642.7392,-727.0624 635.0335,-734.3338 645.5918,-733.4548 642.7392,-727.0624"/>
<text text-anchor="start" x="690.377" y="-724.4611" font-family="Helvetica,sans-Serif" font-size="10.00" fill="#000000"> &lt; dim, VectorizedArray</text>
<text text-anchor="middle" x="742.2056" y="-714.4611" font-family="Helvetica,sans-Serif" font-size="10.00" fill="#000000">&lt; Number &gt; &gt;</text>
</g>
</g>
</svg>
