<?xml version="1.0" encoding="UTF-8" standalone="no"?>
<!DOCTYPE svg PUBLIC "-//W3C//DTD SVG 1.1//EN"
 "http://www.w3.org/Graphics/SVG/1.1/DTD/svg11.dtd">
<!-- Generated by graphviz version 2.40.1 (20161225.0304)
 -->
<!-- Title: PointerMatrixAux&lt; MatrixType, VectorType &gt; Pages: 1 -->
<svg width="136pt" height="157pt"
 viewBox="0.00 0.00 135.98 157.00" xmlns="http://www.w3.org/2000/svg" xmlns:xlink="http://www.w3.org/1999/xlink">
<g id="graph0" class="graph" transform="scale(1 1) rotate(0) translate(4 153)">
<title>PointerMatrixAux&lt; MatrixType, VectorType &gt;</title>
<polygon fill="#ffffff" stroke="transparent" points="-4,4 -4,-153 131.9775,-153 131.9775,4 -4,4"/>
<!-- Node0 -->
<g id="node1" class="node">
<title>Node0</title>
<polygon fill="#bfbfbf" stroke="#000000" points="0,-.5 0,-28.5 127.9775,-28.5 127.9775,-.5 0,-.5"/>
<text text-anchor="start" x="8" y="-16.5" font-family="Helvetica,sans-Serif" font-size="10.00" fill="#000000">PointerMatrixAux&lt; Matrix</text>
<text text-anchor="middle" x="63.9888" y="-6.5" font-family="Helvetica,sans-Serif" font-size="10.00" fill="#000000">Type, VectorType &gt;</text>
</g>
<!-- Node1 -->
<g id="node2" class="node">
<title>Node1</title>
<g id="a_node2"><a xlink:href="classPointerMatrixBase.html" target="_top" xlink:title="PointerMatrixBase\&lt;\l VectorType \&gt;">
<polygon fill="#ffffff" stroke="#000000" points="12.2192,-65.5 12.2192,-93.5 115.7583,-93.5 115.7583,-65.5 12.2192,-65.5"/>
<text text-anchor="start" x="20.2192" y="-81.5" font-family="Helvetica,sans-Serif" font-size="10.00" fill="#000000">PointerMatrixBase&lt;</text>
<text text-anchor="middle" x="63.9888" y="-71.5" font-family="Helvetica,sans-Serif" font-size="10.00" fill="#000000"> VectorType &gt;</text>
</a>
</g>
</g>
<!-- Node1&#45;&gt;Node0 -->
<g id="edge1" class="edge">
<title>Node1&#45;&gt;Node0</title>
<path fill="none" stroke="#191970" d="M63.9888,-55.1081C63.9888,-46.1539 63.9888,-36.3227 63.9888,-28.5765"/>
<polygon fill="#191970" stroke="#191970" points="60.4889,-55.3959 63.9888,-65.396 67.4889,-55.396 60.4889,-55.3959"/>
</g>
<!-- Node2 -->
<g id="node3" class="node">
<title>Node2</title>
<g id="a_node3"><a xlink:href="classSubscriptor.html" target="_top" xlink:title="Subscriptor">
<polygon fill="#ffffff" stroke="#000000" points="30.7007,-130.5 30.7007,-148.5 97.2769,-148.5 97.2769,-130.5 30.7007,-130.5"/>
<text text-anchor="middle" x="63.9888" y="-136.5" font-family="Helvetica,sans-Serif" font-size="10.00" fill="#000000">Subscriptor</text>
</a>
</g>
</g>
<!-- Node2&#45;&gt;Node1 -->
<g id="edge2" class="edge">
<title>Node2&#45;&gt;Node1</title>
<path fill="none" stroke="#191970" d="M63.9888,-120.1865C63.9888,-111.6283 63.9888,-101.7354 63.9888,-93.8477"/>
<polygon fill="#191970" stroke="#191970" points="60.4889,-120.3873 63.9888,-130.3873 67.4889,-120.3873 60.4889,-120.3873"/>
</g>
</g>
</svg>
