<?xml version="1.0" encoding="UTF-8" standalone="no"?>
<!DOCTYPE svg PUBLIC "-//W3C//DTD SVG 1.1//EN"
 "http://www.w3.org/Graphics/SVG/1.1/DTD/svg11.dtd">
<!-- Generated by graphviz version 2.40.1 (20161225.0304)
 -->
<!-- Title: BlockMatrixBase&lt; MatrixType &gt; Pages: 1 -->
<svg width="826pt" height="178pt"
 viewBox="0.00 0.00 826.05 178.00" xmlns="http://www.w3.org/2000/svg" xmlns:xlink="http://www.w3.org/1999/xlink">
<g id="graph0" class="graph" transform="scale(1 1) rotate(0) translate(4 174)">
<title>BlockMatrixBase&lt; MatrixType &gt;</title>
<polygon fill="#ffffff" stroke="transparent" points="-4,4 -4,-174 822.0479,-174 822.0479,4 -4,4"/>
<!-- Node0 -->
<g id="node1" class="node">
<title>Node0</title>
<polygon fill="#bfbfbf" stroke="#000000" points="103.5762,-52.5 103.5762,-70.5 260.1865,-70.5 260.1865,-52.5 103.5762,-52.5"/>
<text text-anchor="middle" x="181.8813" y="-58.5" font-family="Helvetica,sans-Serif" font-size="10.00" fill="#000000">BlockMatrixBase&lt; MatrixType &gt;</text>
</g>
<!-- Node2 -->
<g id="node3" class="node">
<title>Node2</title>
<g id="a_node3"><a xlink:href="classBlockMatrixBase.html" target="_top" xlink:title="BlockMatrixBase\&lt; SparseMatrix \&gt;">
<polygon fill="#ffffff" stroke="#000000" points="458.3325,-99.5 458.3325,-117.5 624.9429,-117.5 624.9429,-99.5 458.3325,-99.5"/>
<text text-anchor="middle" x="541.6377" y="-105.5" font-family="Helvetica,sans-Serif" font-size="10.00" fill="#000000">BlockMatrixBase&lt; SparseMatrix &gt;</text>
</a>
</g>
</g>
<!-- Node0&#45;&gt;Node2 -->
<g id="edge2" class="edge">
<title>Node0&#45;&gt;Node2</title>
<path fill="none" stroke="#ffa500" stroke-dasharray="5,2" d="M252.7381,-71.963C261.3087,-73.1805 269.9433,-74.3847 278.1865,-75.5 341.5665,-84.0755 413.6338,-93.0492 466.3533,-99.4704"/>
<polygon fill="#ffa500" stroke="#ffa500" points="253.1285,-68.4833 242.7337,-70.532 252.1373,-75.4127 253.1285,-68.4833"/>
<text text-anchor="middle" x="357.5688" y="-97.5" font-family="Helvetica,sans-Serif" font-size="10.00" fill="#000000"> &lt; SparseMatrix &gt;</text>
</g>
<!-- Node5 -->
<g id="node6" class="node">
<title>Node5</title>
<g id="a_node6"><a xlink:href="classBlockMatrixBase.html" target="_top" xlink:title="BlockMatrixBase\&lt; PETScWrappers\l::SparseMatrix \&gt;">
<polygon fill="#ffffff" stroke="#000000" points="454.9512,-47.5 454.9512,-75.5 628.3242,-75.5 628.3242,-47.5 454.9512,-47.5"/>
<text text-anchor="start" x="462.9512" y="-63.5" font-family="Helvetica,sans-Serif" font-size="10.00" fill="#000000">BlockMatrixBase&lt; PETScWrappers</text>
<text text-anchor="middle" x="541.6377" y="-53.5" font-family="Helvetica,sans-Serif" font-size="10.00" fill="#000000">::SparseMatrix &gt;</text>
</a>
</g>
</g>
<!-- Node0&#45;&gt;Node5 -->
<g id="edge5" class="edge">
<title>Node0&#45;&gt;Node5</title>
<path fill="none" stroke="#ffa500" stroke-dasharray="5,2" d="M270.6744,-61.5C326.8126,-61.5 399.0304,-61.5 454.7913,-61.5"/>
<polygon fill="#ffa500" stroke="#ffa500" points="270.3869,-58.0001 260.3869,-61.5 270.3868,-65.0001 270.3869,-58.0001"/>
<text text-anchor="middle" x="357.5688" y="-63.5" font-family="Helvetica,sans-Serif" font-size="10.00" fill="#000000"> &lt; PETScWrappers::SparseMatrix &gt;</text>
</g>
<!-- Node7 -->
<g id="node8" class="node">
<title>Node7</title>
<g id="a_node8"><a xlink:href="classBlockMatrixBase.html" target="_top" xlink:title="BlockMatrixBase\&lt; SparseMatrix\l\&lt; number \&gt; \&gt;">
<polygon fill="#ffffff" stroke="#000000" points="462.6416,-.5 462.6416,-28.5 620.6338,-28.5 620.6338,-.5 462.6416,-.5"/>
<text text-anchor="start" x="470.6416" y="-16.5" font-family="Helvetica,sans-Serif" font-size="10.00" fill="#000000">BlockMatrixBase&lt; SparseMatrix</text>
<text text-anchor="middle" x="541.6377" y="-6.5" font-family="Helvetica,sans-Serif" font-size="10.00" fill="#000000">&lt; number &gt; &gt;</text>
</a>
</g>
</g>
<!-- Node0&#45;&gt;Node7 -->
<g id="edge7" class="edge">
<title>Node0&#45;&gt;Node7</title>
<path fill="none" stroke="#ffa500" stroke-dasharray="5,2" d="M252.7381,-51.037C261.3087,-49.8195 269.9433,-48.6153 278.1865,-47.5 340.0819,-39.1254 410.2624,-30.371 462.6172,-23.985"/>
<polygon fill="#ffa500" stroke="#ffa500" points="252.1373,-47.5873 242.7337,-52.468 253.1285,-54.5167 252.1373,-47.5873"/>
<text text-anchor="middle" x="357.5688" y="-49.5" font-family="Helvetica,sans-Serif" font-size="10.00" fill="#000000"> &lt; SparseMatrix&lt; number &gt; &gt;</text>
</g>
<!-- Node1 -->
<g id="node2" class="node">
<title>Node1</title>
<g id="a_node2"><a xlink:href="classSubscriptor.html" target="_top" xlink:title="Subscriptor">
<polygon fill="#ffffff" stroke="#000000" points="0,-52.5 0,-70.5 66.5762,-70.5 66.5762,-52.5 0,-52.5"/>
<text text-anchor="middle" x="33.2881" y="-58.5" font-family="Helvetica,sans-Serif" font-size="10.00" fill="#000000">Subscriptor</text>
</a>
</g>
</g>
<!-- Node1&#45;&gt;Node0 -->
<g id="edge1" class="edge">
<title>Node1&#45;&gt;Node0</title>
<path fill="none" stroke="#191970" d="M76.8884,-61.5C85.2835,-61.5 94.3131,-61.5 103.4263,-61.5"/>
<polygon fill="#191970" stroke="#191970" points="76.6353,-58.0001 66.6353,-61.5 76.6353,-65.0001 76.6353,-58.0001"/>
</g>
<!-- Node3 -->
<g id="node4" class="node">
<title>Node3</title>
<g id="a_node4"><a xlink:href="classPETScWrappers_1_1MPI_1_1BlockSparseMatrix.html" target="_top" xlink:title="PETScWrappers::MPI\l::BlockSparseMatrix">
<polygon fill="#ffffff" stroke="#000000" points="684.875,-141.5 684.875,-169.5 798.4971,-169.5 798.4971,-141.5 684.875,-141.5"/>
<text text-anchor="start" x="692.875" y="-157.5" font-family="Helvetica,sans-Serif" font-size="10.00" fill="#000000">PETScWrappers::MPI</text>
<text text-anchor="middle" x="741.686" y="-147.5" font-family="Helvetica,sans-Serif" font-size="10.00" fill="#000000">::BlockSparseMatrix</text>
</a>
</g>
</g>
<!-- Node2&#45;&gt;Node3 -->
<g id="edge3" class="edge">
<title>Node2&#45;&gt;Node3</title>
<path fill="none" stroke="#191970" d="M589.9543,-119.8517C618.4836,-126.5544 654.7536,-135.0758 684.6781,-142.1064"/>
<polygon fill="#191970" stroke="#191970" points="590.7445,-116.4421 580.209,-117.5621 589.1434,-123.2565 590.7445,-116.4421"/>
</g>
<!-- Node4 -->
<g id="node5" class="node">
<title>Node4</title>
<g id="a_node5"><a xlink:href="classTrilinosWrappers_1_1BlockSparseMatrix.html" target="_top" xlink:title="TrilinosWrappers::BlockSparse\lMatrix">
<polygon fill="#ffffff" stroke="#000000" points="665.3242,-94.5 665.3242,-122.5 818.0479,-122.5 818.0479,-94.5 665.3242,-94.5"/>
<text text-anchor="start" x="673.3242" y="-110.5" font-family="Helvetica,sans-Serif" font-size="10.00" fill="#000000">TrilinosWrappers::BlockSparse</text>
<text text-anchor="middle" x="741.686" y="-100.5" font-family="Helvetica,sans-Serif" font-size="10.00" fill="#000000">Matrix</text>
</a>
</g>
</g>
<!-- Node2&#45;&gt;Node4 -->
<g id="edge4" class="edge">
<title>Node2&#45;&gt;Node4</title>
<path fill="none" stroke="#191970" d="M635.0584,-108.5C645.1344,-108.5 655.3001,-108.5 665.1442,-108.5"/>
<polygon fill="#191970" stroke="#191970" points="635.0277,-105.0001 625.0276,-108.5 635.0276,-112.0001 635.0277,-105.0001"/>
</g>
<!-- Node6 -->
<g id="node7" class="node">
<title>Node6</title>
<g id="a_node7"><a xlink:href="classPETScWrappers_1_1BlockSparseMatrix.html" target="_top" xlink:title="PETScWrappers::BlockSparse\lMatrix">
<polygon fill="#ffffff" stroke="#000000" points="665.6953,-47.5 665.6953,-75.5 817.6768,-75.5 817.6768,-47.5 665.6953,-47.5"/>
<text text-anchor="start" x="673.6953" y="-63.5" font-family="Helvetica,sans-Serif" font-size="10.00" fill="#000000">PETScWrappers::BlockSparse</text>
<text text-anchor="middle" x="741.686" y="-53.5" font-family="Helvetica,sans-Serif" font-size="10.00" fill="#000000">Matrix</text>
</a>
</g>
</g>
<!-- Node5&#45;&gt;Node6 -->
<g id="edge6" class="edge">
<title>Node5&#45;&gt;Node6</title>
<path fill="none" stroke="#191970" d="M638.6744,-61.5C647.7042,-61.5 656.7665,-61.5 665.5665,-61.5"/>
<polygon fill="#191970" stroke="#191970" points="638.5091,-58.0001 628.509,-61.5 638.509,-65.0001 638.5091,-58.0001"/>
</g>
<!-- Node8 -->
<g id="node9" class="node">
<title>Node8</title>
<g id="a_node9"><a xlink:href="classBlockSparseMatrix.html" target="_top" xlink:title="BlockSparseMatrix\&lt;\l number \&gt;">
<polygon fill="#ffffff" stroke="#000000" points="689.0864,-.5 689.0864,-28.5 794.2856,-28.5 794.2856,-.5 689.0864,-.5"/>
<text text-anchor="start" x="697.0864" y="-16.5" font-family="Helvetica,sans-Serif" font-size="10.00" fill="#000000">BlockSparseMatrix&lt;</text>
<text text-anchor="middle" x="741.686" y="-6.5" font-family="Helvetica,sans-Serif" font-size="10.00" fill="#000000"> number &gt;</text>
</a>
</g>
</g>
<!-- Node7&#45;&gt;Node8 -->
<g id="edge8" class="edge">
<title>Node7&#45;&gt;Node8</title>
<path fill="none" stroke="#191970" d="M630.7274,-14.5C650.6365,-14.5 671.1304,-14.5 689.0031,-14.5"/>
<polygon fill="#191970" stroke="#191970" points="630.7021,-11.0001 620.7021,-14.5 630.7021,-18.0001 630.7021,-11.0001"/>
</g>
</g>
</svg>
