<?xml version="1.0" encoding="UTF-8" standalone="no"?>
<!DOCTYPE svg PUBLIC "-//W3C//DTD SVG 1.1//EN"
 "http://www.w3.org/Graphics/SVG/1.1/DTD/svg11.dtd">
<!-- Generated by graphviz version 2.40.1 (20161225.0304)
 -->
<!-- Title: TrilinosWrappers::PreconditionBase Pages: 1 -->
<svg width="502pt" height="588pt"
 viewBox="0.00 0.00 502.06 588.00" xmlns="http://www.w3.org/2000/svg" xmlns:xlink="http://www.w3.org/1999/xlink">
<g id="graph0" class="graph" transform="scale(1 1) rotate(0) translate(4 584)">
<title>TrilinosWrappers::PreconditionBase</title>
<polygon fill="#ffffff" stroke="transparent" points="-4,4 -4,-584 498.0625,-584 498.0625,4 -4,4"/>
<!-- Node0 -->
<g id="node1" class="node">
<title>Node0</title>
<polygon fill="#bfbfbf" stroke="#000000" points="102.5762,-263.5 102.5762,-281.5 277.5459,-281.5 277.5459,-263.5 102.5762,-263.5"/>
<text text-anchor="middle" x="190.061" y="-269.5" font-family="Helvetica,sans-Serif" font-size="10.00" fill="#000000">TrilinosWrappers::PreconditionBase</text>
</g>
<!-- Node2 -->
<g id="node3" class="node">
<title>Node2</title>
<g id="a_node3"><a xlink:href="classTrilinosWrappers_1_1PreconditionAMG.html" target="_top" xlink:title="TrilinosWrappers::PreconditionAMG">
<polygon fill="#ffffff" stroke="#000000" points="316.3267,-561.5 316.3267,-579.5 491.2817,-579.5 491.2817,-561.5 316.3267,-561.5"/>
<text text-anchor="middle" x="403.8042" y="-567.5" font-family="Helvetica,sans-Serif" font-size="10.00" fill="#000000">TrilinosWrappers::PreconditionAMG</text>
</a>
</g>
</g>
<!-- Node0&#45;&gt;Node2 -->
<g id="edge2" class="edge">
<title>Node0&#45;&gt;Node2</title>
<path fill="none" stroke="#191970" d="M192.4386,-291.5459C199.8848,-342.6482 227.6325,-483.5718 313.5459,-552.5 318.0326,-556.0997 323.0423,-559.0429 328.3392,-561.4431"/>
<polygon fill="#191970" stroke="#191970" points="195.8966,-290.9998 191.0811,-281.5626 188.9604,-291.943 195.8966,-290.9998"/>
</g>
<!-- Node3 -->
<g id="node4" class="node">
<title>Node3</title>
<g id="a_node4"><a xlink:href="classTrilinosWrappers_1_1PreconditionAMGMueLu.html" target="_top" xlink:title="TrilinosWrappers::Precondition\lAMGMueLu">
<polygon fill="#ffffff" stroke="#000000" points="327.7158,-514.5 327.7158,-542.5 479.8926,-542.5 479.8926,-514.5 327.7158,-514.5"/>
<text text-anchor="start" x="335.7158" y="-530.5" font-family="Helvetica,sans-Serif" font-size="10.00" fill="#000000">TrilinosWrappers::Precondition</text>
<text text-anchor="middle" x="403.8042" y="-520.5" font-family="Helvetica,sans-Serif" font-size="10.00" fill="#000000">AMGMueLu</text>
</a>
</g>
</g>
<!-- Node0&#45;&gt;Node3 -->
<g id="edge3" class="edge">
<title>Node0&#45;&gt;Node3</title>
<path fill="none" stroke="#191970" d="M194.5423,-291.6692C206.0344,-336.4313 240.8975,-448.3586 313.5459,-505.5 317.9944,-508.999 322.9137,-511.9711 328.0918,-514.4951"/>
<polygon fill="#191970" stroke="#191970" points="197.9043,-290.6838 192.1154,-281.8103 191.1073,-292.357 197.9043,-290.6838"/>
</g>
<!-- Node4 -->
<g id="node5" class="node">
<title>Node4</title>
<g id="a_node5"><a xlink:href="classTrilinosWrappers_1_1PreconditionBlockJacobi.html" target="_top" xlink:title="TrilinosWrappers::Precondition\lBlockJacobi">
<polygon fill="#ffffff" stroke="#000000" points="327.7158,-467.5 327.7158,-495.5 479.8926,-495.5 479.8926,-467.5 327.7158,-467.5"/>
<text text-anchor="start" x="335.7158" y="-483.5" font-family="Helvetica,sans-Serif" font-size="10.00" fill="#000000">TrilinosWrappers::Precondition</text>
<text text-anchor="middle" x="403.8042" y="-473.5" font-family="Helvetica,sans-Serif" font-size="10.00" fill="#000000">BlockJacobi</text>
</a>
</g>
</g>
<!-- Node0&#45;&gt;Node4 -->
<g id="edge4" class="edge">
<title>Node0&#45;&gt;Node4</title>
<path fill="none" stroke="#191970" d="M197.0941,-291.3009C212.2462,-329.1392 251.6884,-414.6084 313.5459,-458.5 318.4254,-461.9623 323.7799,-464.9043 329.3701,-467.404"/>
<polygon fill="#191970" stroke="#191970" points="200.2,-289.6298 193.3188,-281.5737 193.6742,-292.1625 200.2,-289.6298"/>
</g>
<!-- Node5 -->
<g id="node6" class="node">
<title>Node5</title>
<g id="a_node6"><a xlink:href="classTrilinosWrappers_1_1PreconditionBlockSOR.html" target="_top" xlink:title="TrilinosWrappers::Precondition\lBlockSOR">
<polygon fill="#ffffff" stroke="#000000" points="327.7158,-420.5 327.7158,-448.5 479.8926,-448.5 479.8926,-420.5 327.7158,-420.5"/>
<text text-anchor="start" x="335.7158" y="-436.5" font-family="Helvetica,sans-Serif" font-size="10.00" fill="#000000">TrilinosWrappers::Precondition</text>
<text text-anchor="middle" x="403.8042" y="-426.5" font-family="Helvetica,sans-Serif" font-size="10.00" fill="#000000">BlockSOR</text>
</a>
</g>
</g>
<!-- Node0&#45;&gt;Node5 -->
<g id="edge5" class="edge">
<title>Node0&#45;&gt;Node5</title>
<path fill="none" stroke="#191970" d="M200.6934,-290.1796C219.555,-319.9686 261.8008,-379.9897 313.5459,-411.5 319.2085,-414.9483 325.3725,-417.882 331.7319,-420.3775"/>
<polygon fill="#191970" stroke="#191970" points="203.6489,-288.3043 195.4087,-281.6446 197.6973,-291.9893 203.6489,-288.3043"/>
</g>
<!-- Node6 -->
<g id="node7" class="node">
<title>Node6</title>
<g id="a_node7"><a xlink:href="classTrilinosWrappers_1_1PreconditionBlockSSOR.html" target="_top" xlink:title="TrilinosWrappers::Precondition\lBlockSSOR">
<polygon fill="#ffffff" stroke="#000000" points="327.7158,-373.5 327.7158,-401.5 479.8926,-401.5 479.8926,-373.5 327.7158,-373.5"/>
<text text-anchor="start" x="335.7158" y="-389.5" font-family="Helvetica,sans-Serif" font-size="10.00" fill="#000000">TrilinosWrappers::Precondition</text>
<text text-anchor="middle" x="403.8042" y="-379.5" font-family="Helvetica,sans-Serif" font-size="10.00" fill="#000000">BlockSSOR</text>
</a>
</g>
</g>
<!-- Node0&#45;&gt;Node6 -->
<g id="edge6" class="edge">
<title>Node0&#45;&gt;Node6</title>
<path fill="none" stroke="#191970" d="M206.8108,-288.4094C229.3286,-308.9444 271.4213,-344.4151 313.5459,-364.5 320.6981,-367.9102 328.4191,-370.8575 336.2291,-373.3943"/>
<polygon fill="#191970" stroke="#191970" points="209.1505,-285.8058 199.4366,-281.5758 204.3925,-290.9402 209.1505,-285.8058"/>
</g>
<!-- Node7 -->
<g id="node8" class="node">
<title>Node7</title>
<g id="a_node8"><a xlink:href="classTrilinosWrappers_1_1PreconditionBlockwiseDirect.html" target="_top" xlink:title="TrilinosWrappers::Precondition\lBlockwiseDirect">
<polygon fill="#ffffff" stroke="#000000" points="327.7158,-326.5 327.7158,-354.5 479.8926,-354.5 479.8926,-326.5 327.7158,-326.5"/>
<text text-anchor="start" x="335.7158" y="-342.5" font-family="Helvetica,sans-Serif" font-size="10.00" fill="#000000">TrilinosWrappers::Precondition</text>
<text text-anchor="middle" x="403.8042" y="-332.5" font-family="Helvetica,sans-Serif" font-size="10.00" fill="#000000">BlockwiseDirect</text>
</a>
</g>
</g>
<!-- Node0&#45;&gt;Node7 -->
<g id="edge7" class="edge">
<title>Node0&#45;&gt;Node7</title>
<path fill="none" stroke="#191970" d="M222.6411,-285.3839C247.3645,-294.9131 282.3122,-307.8558 313.5459,-317.5 323.5889,-320.601 334.3508,-323.6101 344.819,-326.374"/>
<polygon fill="#191970" stroke="#191970" points="223.6296,-282.0132 213.0408,-281.6571 221.0964,-288.5388 223.6296,-282.0132"/>
</g>
<!-- Node8 -->
<g id="node9" class="node">
<title>Node8</title>
<g id="a_node9"><a xlink:href="classTrilinosWrappers_1_1PreconditionChebyshev.html" target="_top" xlink:title="TrilinosWrappers::Precondition\lChebyshev">
<polygon fill="#ffffff" stroke="#000000" points="327.7158,-279.5 327.7158,-307.5 479.8926,-307.5 479.8926,-279.5 327.7158,-279.5"/>
<text text-anchor="start" x="335.7158" y="-295.5" font-family="Helvetica,sans-Serif" font-size="10.00" fill="#000000">TrilinosWrappers::Precondition</text>
<text text-anchor="middle" x="403.8042" y="-285.5" font-family="Helvetica,sans-Serif" font-size="10.00" fill="#000000">Chebyshev</text>
</a>
</g>
</g>
<!-- Node0&#45;&gt;Node8 -->
<g id="edge8" class="edge">
<title>Node0&#45;&gt;Node8</title>
<path fill="none" stroke="#191970" d="M287.7975,-282.1025C301.1801,-283.4173 314.7552,-284.751 327.6751,-286.0204"/>
<polygon fill="#191970" stroke="#191970" points="287.9096,-278.5967 277.6153,-281.1021 287.2251,-285.5632 287.9096,-278.5967"/>
</g>
<!-- Node9 -->
<g id="node10" class="node">
<title>Node9</title>
<g id="a_node10"><a xlink:href="classTrilinosWrappers_1_1PreconditionIC.html" target="_top" xlink:title="TrilinosWrappers::PreconditionIC">
<polygon fill="#ffffff" stroke="#000000" points="322.7158,-242.5 322.7158,-260.5 484.8926,-260.5 484.8926,-242.5 322.7158,-242.5"/>
<text text-anchor="middle" x="403.8042" y="-248.5" font-family="Helvetica,sans-Serif" font-size="10.00" fill="#000000">TrilinosWrappers::PreconditionIC</text>
</a>
</g>
</g>
<!-- Node0&#45;&gt;Node9 -->
<g id="edge9" class="edge">
<title>Node0&#45;&gt;Node9</title>
<path fill="none" stroke="#191970" d="M287.7893,-262.8983C299.4252,-261.7551 311.2068,-260.5976 322.5768,-259.4805"/>
<polygon fill="#191970" stroke="#191970" points="287.2251,-259.4368 277.6153,-263.8979 287.9096,-266.4033 287.2251,-259.4368"/>
</g>
<!-- Node10 -->
<g id="node11" class="node">
<title>Node10</title>
<g id="a_node11"><a xlink:href="classTrilinosWrappers_1_1PreconditionIdentity.html" target="_top" xlink:title="TrilinosWrappers::Precondition\lIdentity">
<polygon fill="#ffffff" stroke="#000000" points="327.7158,-195.5 327.7158,-223.5 479.8926,-223.5 479.8926,-195.5 327.7158,-195.5"/>
<text text-anchor="start" x="335.7158" y="-211.5" font-family="Helvetica,sans-Serif" font-size="10.00" fill="#000000">TrilinosWrappers::Precondition</text>
<text text-anchor="middle" x="403.8042" y="-201.5" font-family="Helvetica,sans-Serif" font-size="10.00" fill="#000000">Identity</text>
</a>
</g>
</g>
<!-- Node0&#45;&gt;Node10 -->
<g id="edge10" class="edge">
<title>Node0&#45;&gt;Node10</title>
<path fill="none" stroke="#191970" d="M226.0176,-260.183C250.5542,-251.9433 283.8634,-241.0799 313.5459,-232.5 324.1095,-229.4465 335.4294,-226.3924 346.3587,-223.5534"/>
<polygon fill="#191970" stroke="#191970" points="224.7633,-256.9123 216.4078,-263.4265 227.0019,-263.5447 224.7633,-256.9123"/>
</g>
<!-- Node11 -->
<g id="node12" class="node">
<title>Node11</title>
<g id="a_node12"><a xlink:href="classTrilinosWrappers_1_1PreconditionILU.html" target="_top" xlink:title="TrilinosWrappers::PreconditionILU">
<polygon fill="#ffffff" stroke="#000000" points="319.9351,-158.5 319.9351,-176.5 487.6733,-176.5 487.6733,-158.5 319.9351,-158.5"/>
<text text-anchor="middle" x="403.8042" y="-164.5" font-family="Helvetica,sans-Serif" font-size="10.00" fill="#000000">TrilinosWrappers::PreconditionILU</text>
</a>
</g>
</g>
<!-- Node0&#45;&gt;Node11 -->
<g id="edge11" class="edge">
<title>Node0&#45;&gt;Node11</title>
<path fill="none" stroke="#191970" d="M207.4727,-256.6048C230.1607,-236.7963 271.8744,-203.3796 313.5459,-185.5 322.0625,-181.8458 331.3531,-178.9235 340.6297,-176.589"/>
<polygon fill="#191970" stroke="#191970" points="204.8981,-254.2104 199.7485,-263.4696 209.5483,-259.4427 204.8981,-254.2104"/>
</g>
<!-- Node12 -->
<g id="node13" class="node">
<title>Node12</title>
<g id="a_node13"><a xlink:href="classTrilinosWrappers_1_1PreconditionILUT.html" target="_top" xlink:title="TrilinosWrappers::PreconditionILUT">
<polygon fill="#ffffff" stroke="#000000" points="316.8809,-121.5 316.8809,-139.5 490.7275,-139.5 490.7275,-121.5 316.8809,-121.5"/>
<text text-anchor="middle" x="403.8042" y="-127.5" font-family="Helvetica,sans-Serif" font-size="10.00" fill="#000000">TrilinosWrappers::PreconditionILUT</text>
</a>
</g>
</g>
<!-- Node0&#45;&gt;Node12 -->
<g id="edge12" class="edge">
<title>Node0&#45;&gt;Node12</title>
<path fill="none" stroke="#191970" d="M202.1206,-254.9404C221.958,-227.52 264.2303,-174.9415 313.5459,-148.5 320.4461,-144.8003 328.0115,-141.8575 335.7347,-139.5173"/>
<polygon fill="#191970" stroke="#191970" points="199.1946,-253.0162 196.2755,-263.201 204.9088,-257.0596 199.1946,-253.0162"/>
</g>
<!-- Node13 -->
<g id="node14" class="node">
<title>Node13</title>
<g id="a_node14"><a xlink:href="classTrilinosWrappers_1_1PreconditionJacobi.html" target="_top" xlink:title="TrilinosWrappers::Precondition\lJacobi">
<polygon fill="#ffffff" stroke="#000000" points="327.7158,-74.5 327.7158,-102.5 479.8926,-102.5 479.8926,-74.5 327.7158,-74.5"/>
<text text-anchor="start" x="335.7158" y="-90.5" font-family="Helvetica,sans-Serif" font-size="10.00" fill="#000000">TrilinosWrappers::Precondition</text>
<text text-anchor="middle" x="403.8042" y="-80.5" font-family="Helvetica,sans-Serif" font-size="10.00" fill="#000000">Jacobi</text>
</a>
</g>
</g>
<!-- Node0&#45;&gt;Node13 -->
<g id="edge13" class="edge">
<title>Node0&#45;&gt;Node13</title>
<path fill="none" stroke="#191970" d="M198.9788,-253.9128C216.1907,-220.0953 257.3141,-148.584 313.5459,-111.5 318.8106,-108.028 324.5661,-105.0801 330.5405,-102.5771"/>
<polygon fill="#191970" stroke="#191970" points="195.7212,-252.6039 194.4146,-263.1179 201.9926,-255.7135 195.7212,-252.6039"/>
</g>
<!-- Node14 -->
<g id="node15" class="node">
<title>Node14</title>
<g id="a_node15"><a xlink:href="classTrilinosWrappers_1_1PreconditionSOR.html" target="_top" xlink:title="TrilinosWrappers::PreconditionSOR">
<polygon fill="#ffffff" stroke="#000000" points="316.8809,-37.5 316.8809,-55.5 490.7275,-55.5 490.7275,-37.5 316.8809,-37.5"/>
<text text-anchor="middle" x="403.8042" y="-43.5" font-family="Helvetica,sans-Serif" font-size="10.00" fill="#000000">TrilinosWrappers::PreconditionSOR</text>
</a>
</g>
</g>
<!-- Node0&#45;&gt;Node14 -->
<g id="edge14" class="edge">
<title>Node0&#45;&gt;Node14</title>
<path fill="none" stroke="#191970" d="M195.5164,-253.4623C208.4788,-211.8851 245.2646,-112.8295 313.5459,-64.5 318.6323,-60.8998 324.2637,-57.9789 330.156,-55.6137"/>
<polygon fill="#191970" stroke="#191970" points="192.1299,-252.5702 192.6066,-263.1544 198.8343,-254.5831 192.1299,-252.5702"/>
</g>
<!-- Node15 -->
<g id="node16" class="node">
<title>Node15</title>
<g id="a_node16"><a xlink:href="classTrilinosWrappers_1_1PreconditionSSOR.html" target="_top" xlink:title="TrilinosWrappers::PreconditionSSOR">
<polygon fill="#ffffff" stroke="#000000" points="313.5459,-.5 313.5459,-18.5 494.0625,-18.5 494.0625,-.5 313.5459,-.5"/>
<text text-anchor="middle" x="403.8042" y="-6.5" font-family="Helvetica,sans-Serif" font-size="10.00" fill="#000000">TrilinosWrappers::PreconditionSSOR</text>
</a>
</g>
</g>
<!-- Node0&#45;&gt;Node15 -->
<g id="edge15" class="edge">
<title>Node0&#45;&gt;Node15</title>
<path fill="none" stroke="#191970" d="M193.8165,-253.0412C203.9578,-206.084 236.5013,-86.1172 313.5459,-27.5 318.251,-23.9203 323.4814,-20.9993 328.987,-18.6215"/>
<polygon fill="#191970" stroke="#191970" points="190.3357,-252.5923 191.7525,-263.092 197.1926,-254.0005 190.3357,-252.5923"/>
</g>
<!-- Node1 -->
<g id="node2" class="node">
<title>Node1</title>
<g id="a_node2"><a xlink:href="classSubscriptor.html" target="_top" xlink:title="Subscriptor">
<polygon fill="#ffffff" stroke="#000000" points="0,-263.5 0,-281.5 66.5762,-281.5 66.5762,-263.5 0,-263.5"/>
<text text-anchor="middle" x="33.2881" y="-269.5" font-family="Helvetica,sans-Serif" font-size="10.00" fill="#000000">Subscriptor</text>
</a>
</g>
</g>
<!-- Node1&#45;&gt;Node0 -->
<g id="edge1" class="edge">
<title>Node1&#45;&gt;Node0</title>
<path fill="none" stroke="#191970" d="M77.0453,-272.5C85.0397,-272.5 93.6354,-272.5 102.3879,-272.5"/>
<polygon fill="#191970" stroke="#191970" points="76.9199,-269.0001 66.9198,-272.5 76.9198,-276.0001 76.9199,-269.0001"/>
</g>
</g>
</svg>
