<?xml version="1.0" encoding="UTF-8" standalone="no"?>
<!DOCTYPE svg PUBLIC "-//W3C//DTD SVG 1.1//EN"
 "http://www.w3.org/Graphics/SVG/1.1/DTD/svg11.dtd">
<!-- Generated by graphviz version 2.40.1 (20161225.0304)
 -->
<!-- Title: Algorithms::ThetaTimestepping&lt; VectorType &gt; Pages: 1 -->
<svg width="162pt" height="147pt"
 viewBox="0.00 0.00 162.03 147.00" xmlns="http://www.w3.org/2000/svg" xmlns:xlink="http://www.w3.org/1999/xlink">
<g id="graph0" class="graph" transform="scale(1 1) rotate(0) translate(4 143)">
<title>Algorithms::ThetaTimestepping&lt; VectorType &gt;</title>
<polygon fill="#ffffff" stroke="transparent" points="-4,4 -4,-143 158.0273,-143 158.0273,4 -4,4"/>
<!-- Node0 -->
<g id="node1" class="node">
<title>Node0</title>
<polygon fill="#bfbfbf" stroke="#000000" points="0,-.5 0,-28.5 154.0273,-28.5 154.0273,-.5 0,-.5"/>
<text text-anchor="start" x="8" y="-16.5" font-family="Helvetica,sans-Serif" font-size="10.00" fill="#000000">Algorithms::ThetaTimestepping</text>
<text text-anchor="middle" x="77.0137" y="-6.5" font-family="Helvetica,sans-Serif" font-size="10.00" fill="#000000">&lt; VectorType &gt;</text>
</g>
<!-- Node1 -->
<g id="node2" class="node">
<title>Node1</title>
<g id="a_node2"><a xlink:href="classAlgorithms_1_1OperatorBase.html" target="_top" xlink:title="Algorithms::OperatorBase">
<polygon fill="#ffffff" stroke="#000000" points="11.4893,-65.5 11.4893,-83.5 142.5381,-83.5 142.5381,-65.5 11.4893,-65.5"/>
<text text-anchor="middle" x="77.0137" y="-71.5" font-family="Helvetica,sans-Serif" font-size="10.00" fill="#000000">Algorithms::OperatorBase</text>
</a>
</g>
</g>
<!-- Node1&#45;&gt;Node0 -->
<g id="edge1" class="edge">
<title>Node1&#45;&gt;Node0</title>
<path fill="none" stroke="#191970" d="M77.0137,-55.1865C77.0137,-46.6283 77.0137,-36.7354 77.0137,-28.8477"/>
<polygon fill="#191970" stroke="#191970" points="73.5138,-55.3873 77.0137,-65.3873 80.5138,-55.3873 73.5138,-55.3873"/>
</g>
<!-- Node2 -->
<g id="node3" class="node">
<title>Node2</title>
<g id="a_node3"><a xlink:href="classSubscriptor.html" target="_top" xlink:title="Subscriptor">
<polygon fill="#ffffff" stroke="#000000" points="43.7256,-120.5 43.7256,-138.5 110.3018,-138.5 110.3018,-120.5 43.7256,-120.5"/>
<text text-anchor="middle" x="77.0137" y="-126.5" font-family="Helvetica,sans-Serif" font-size="10.00" fill="#000000">Subscriptor</text>
</a>
</g>
</g>
<!-- Node2&#45;&gt;Node1 -->
<g id="edge2" class="edge">
<title>Node2&#45;&gt;Node1</title>
<path fill="none" stroke="#191970" d="M77.0137,-110.383C77.0137,-101.3738 77.0137,-91.0373 77.0137,-83.7795"/>
<polygon fill="#191970" stroke="#191970" points="73.5138,-110.4178 77.0137,-120.4179 80.5138,-110.4179 73.5138,-110.4178"/>
</g>
</g>
</svg>
