<?xml version="1.0" encoding="UTF-8" standalone="no"?>
<!DOCTYPE svg PUBLIC "-//W3C//DTD SVG 1.1//EN"
 "http://www.w3.org/Graphics/SVG/1.1/DTD/svg11.dtd">
<!-- Generated by graphviz version 2.40.1 (20161225.0304)
 -->
<!-- Title: ChunkSparseMatrixIterators::Accessor&lt; number, Constness &gt; Pages: 1 -->
<svg width="174pt" height="102pt"
 viewBox="0.00 0.00 174.08 102.00" xmlns="http://www.w3.org/2000/svg" xmlns:xlink="http://www.w3.org/1999/xlink">
<g id="graph0" class="graph" transform="scale(1 1) rotate(0) translate(4 98)">
<title>ChunkSparseMatrixIterators::Accessor&lt; number, Constness &gt;</title>
<polygon fill="#ffffff" stroke="transparent" points="-4,4 -4,-98 170.0781,-98 170.0781,4 -4,4"/>
<!-- Node0 -->
<g id="node1" class="node">
<title>Node0</title>
<polygon fill="#bfbfbf" stroke="#000000" points="0,-.5 0,-28.5 166.0781,-28.5 166.0781,-.5 0,-.5"/>
<text text-anchor="start" x="8" y="-16.5" font-family="Helvetica,sans-Serif" font-size="10.00" fill="#000000">ChunkSparseMatrixIterators</text>
<text text-anchor="middle" x="83.0391" y="-6.5" font-family="Helvetica,sans-Serif" font-size="10.00" fill="#000000">::Accessor&lt; number, Constness &gt;</text>
</g>
<!-- Node1 -->
<g id="node2" class="node">
<title>Node1</title>
<g id="a_node2"><a xlink:href="classChunkSparsityPatternIterators_1_1Accessor.html" target="_top" xlink:title="ChunkSparsityPatternIterators\l::Accessor">
<polygon fill="#ffffff" stroke="#000000" points="8.064,-65.5 8.064,-93.5 158.0142,-93.5 158.0142,-65.5 8.064,-65.5"/>
<text text-anchor="start" x="16.064" y="-81.5" font-family="Helvetica,sans-Serif" font-size="10.00" fill="#000000">ChunkSparsityPatternIterators</text>
<text text-anchor="middle" x="83.0391" y="-71.5" font-family="Helvetica,sans-Serif" font-size="10.00" fill="#000000">::Accessor</text>
</a>
</g>
</g>
<!-- Node1&#45;&gt;Node0 -->
<g id="edge1" class="edge">
<title>Node1&#45;&gt;Node0</title>
<path fill="none" stroke="#191970" d="M83.0391,-55.1081C83.0391,-46.1539 83.0391,-36.3227 83.0391,-28.5765"/>
<polygon fill="#191970" stroke="#191970" points="79.5392,-55.3959 83.0391,-65.396 86.5392,-55.396 79.5392,-55.3959"/>
</g>
</g>
</svg>
