<?xml version="1.0" encoding="UTF-8" standalone="no"?>
<!DOCTYPE svg PUBLIC "-//W3C//DTD SVG 1.1//EN"
 "http://www.w3.org/Graphics/SVG/1.1/DTD/svg11.dtd">
<!-- Generated by graphviz version 2.40.1 (20161225.0304)
 -->
<!-- Title: SparseMatrixIterators::Accessor&lt; number, false &gt; Pages: 1 -->
<svg width="148pt" height="102pt"
 viewBox="0.00 0.00 147.96 102.00" xmlns="http://www.w3.org/2000/svg" xmlns:xlink="http://www.w3.org/1999/xlink">
<g id="graph0" class="graph" transform="scale(1 1) rotate(0) translate(4 98)">
<title>SparseMatrixIterators::Accessor&lt; number, false &gt;</title>
<polygon fill="#ffffff" stroke="transparent" points="-4,4 -4,-98 143.9551,-98 143.9551,4 -4,4"/>
<!-- Node0 -->
<g id="node1" class="node">
<title>Node0</title>
<polygon fill="#bfbfbf" stroke="#000000" points="0,-.5 0,-28.5 139.9551,-28.5 139.9551,-.5 0,-.5"/>
<text text-anchor="start" x="8" y="-16.5" font-family="Helvetica,sans-Serif" font-size="10.00" fill="#000000">SparseMatrixIterators</text>
<text text-anchor="middle" x="69.9775" y="-6.5" font-family="Helvetica,sans-Serif" font-size="10.00" fill="#000000">::Accessor&lt; number, false &gt;</text>
</g>
<!-- Node1 -->
<g id="node2" class="node">
<title>Node1</title>
<g id="a_node2"><a xlink:href="classSparsityPatternIterators_1_1Accessor.html" target="_top" xlink:title="SparsityPatternIterators\l::Accessor">
<polygon fill="#ffffff" stroke="#000000" points="9.4556,-65.5 9.4556,-93.5 130.4995,-93.5 130.4995,-65.5 9.4556,-65.5"/>
<text text-anchor="start" x="17.4556" y="-81.5" font-family="Helvetica,sans-Serif" font-size="10.00" fill="#000000">SparsityPatternIterators</text>
<text text-anchor="middle" x="69.9775" y="-71.5" font-family="Helvetica,sans-Serif" font-size="10.00" fill="#000000">::Accessor</text>
</a>
</g>
</g>
<!-- Node1&#45;&gt;Node0 -->
<g id="edge1" class="edge">
<title>Node1&#45;&gt;Node0</title>
<path fill="none" stroke="#191970" d="M69.9775,-55.1081C69.9775,-46.1539 69.9775,-36.3227 69.9775,-28.5765"/>
<polygon fill="#191970" stroke="#191970" points="66.4776,-55.3959 69.9775,-65.396 73.4776,-55.396 66.4776,-55.3959"/>
</g>
</g>
</svg>
