<?xml version="1.0" encoding="UTF-8" standalone="no"?>
<!DOCTYPE svg PUBLIC "-//W3C//DTD SVG 1.1//EN"
 "http://www.w3.org/Graphics/SVG/1.1/DTD/svg11.dtd">
<!-- Generated by graphviz version 2.40.1 (20161225.0304)
 -->
<!-- Title: MGMatrixBase&lt; VectorType &gt; Pages: 1 -->
<svg width="290pt" height="224pt"
 viewBox="0.00 0.00 289.69 224.00" xmlns="http://www.w3.org/2000/svg" xmlns:xlink="http://www.w3.org/1999/xlink">
<g id="graph0" class="graph" transform="scale(1 1) rotate(0) translate(4 220)">
<title>MGMatrixBase&lt; VectorType &gt;</title>
<polygon fill="#ffffff" stroke="transparent" points="-4,4 -4,-220 285.6855,-220 285.6855,4 -4,4"/>
<!-- Node0 -->
<g id="node1" class="node">
<title>Node0</title>
<polygon fill="#bfbfbf" stroke="#000000" points="6.2734,-141.5 6.2734,-159.5 155.6719,-159.5 155.6719,-141.5 6.2734,-141.5"/>
<text text-anchor="middle" x="80.9727" y="-147.5" font-family="Helvetica,sans-Serif" font-size="10.00" fill="#000000">MGMatrixBase&lt; VectorType &gt;</text>
</g>
<!-- Node2 -->
<g id="node3" class="node">
<title>Node2</title>
<g id="a_node3"><a xlink:href="classmg_1_1Matrix.html" target="_top" xlink:title="mg::Matrix\&lt; VectorType \&gt;">
<polygon fill="#ffffff" stroke="#000000" points="0,-71.5 0,-89.5 129.9453,-89.5 129.9453,-71.5 0,-71.5"/>
<text text-anchor="middle" x="64.9727" y="-77.5" font-family="Helvetica,sans-Serif" font-size="10.00" fill="#000000">mg::Matrix&lt; VectorType &gt;</text>
</a>
</g>
</g>
<!-- Node0&#45;&gt;Node2 -->
<g id="edge2" class="edge">
<title>Node0&#45;&gt;Node2</title>
<path fill="none" stroke="#191970" d="M76.5621,-131.2039C73.4877,-117.7531 69.5209,-100.3986 67.116,-89.8769"/>
<polygon fill="#191970" stroke="#191970" points="73.2406,-132.38 78.8809,-141.3487 80.0646,-130.8202 73.2406,-132.38"/>
</g>
<!-- Node3 -->
<g id="node4" class="node">
<title>Node3</title>
<g id="a_node4"><a xlink:href="classMGMatrixBase.html" target="_top" xlink:title="MGMatrixBase\&lt; Vector\l\&lt; number \&gt; \&gt;">
<polygon fill="#ffffff" stroke="#000000" points="148.4248,-66.5 148.4248,-94.5 267.5205,-94.5 267.5205,-66.5 148.4248,-66.5"/>
<text text-anchor="start" x="156.4248" y="-82.5" font-family="Helvetica,sans-Serif" font-size="10.00" fill="#000000">MGMatrixBase&lt; Vector</text>
<text text-anchor="middle" x="207.9727" y="-72.5" font-family="Helvetica,sans-Serif" font-size="10.00" fill="#000000">&lt; number &gt; &gt;</text>
</a>
</g>
</g>
<!-- Node0&#45;&gt;Node3 -->
<g id="edge3" class="edge">
<title>Node0&#45;&gt;Node3</title>
<path fill="none" stroke="#ffa500" stroke-dasharray="5,2" d="M106.1273,-136.6352C128.2387,-124.4478 160.2666,-106.7947 182.4787,-94.5518"/>
<polygon fill="#ffa500" stroke="#ffa500" points="104.384,-133.5996 97.3157,-141.492 107.763,-139.7301 104.384,-133.5996"/>
<text text-anchor="middle" x="198.7285" y="-115" font-family="Helvetica,sans-Serif" font-size="10.00" fill="#000000"> &lt; Vector&lt; number &gt; &gt;</text>
</g>
<!-- Node1 -->
<g id="node2" class="node">
<title>Node1</title>
<g id="a_node2"><a xlink:href="classSubscriptor.html" target="_top" xlink:title="Subscriptor">
<polygon fill="#ffffff" stroke="#000000" points="47.6846,-197.5 47.6846,-215.5 114.2607,-215.5 114.2607,-197.5 47.6846,-197.5"/>
<text text-anchor="middle" x="80.9727" y="-203.5" font-family="Helvetica,sans-Serif" font-size="10.00" fill="#000000">Subscriptor</text>
</a>
</g>
</g>
<!-- Node1&#45;&gt;Node0 -->
<g id="edge1" class="edge">
<title>Node1&#45;&gt;Node0</title>
<path fill="none" stroke="#191970" d="M80.9727,-187.2065C80.9727,-177.8384 80.9727,-167.0262 80.9727,-159.5752"/>
<polygon fill="#191970" stroke="#191970" points="77.4728,-187.2527 80.9727,-197.2527 84.4728,-187.2528 77.4728,-187.2527"/>
</g>
<!-- Node4 -->
<g id="node5" class="node">
<title>Node4</title>
<g id="a_node5"><a xlink:href="classMGMatrixSelect.html" target="_top" xlink:title="MGMatrixSelect\&lt; MatrixType,\l number \&gt;">
<polygon fill="#ffffff" stroke="#000000" points="134.2598,-.5 134.2598,-28.5 281.6855,-28.5 281.6855,-.5 134.2598,-.5"/>
<text text-anchor="start" x="142.2598" y="-16.5" font-family="Helvetica,sans-Serif" font-size="10.00" fill="#000000">MGMatrixSelect&lt; MatrixType,</text>
<text text-anchor="middle" x="207.9727" y="-6.5" font-family="Helvetica,sans-Serif" font-size="10.00" fill="#000000"> number &gt;</text>
</a>
</g>
</g>
<!-- Node3&#45;&gt;Node4 -->
<g id="edge4" class="edge">
<title>Node3&#45;&gt;Node4</title>
<path fill="none" stroke="#191970" d="M207.9727,-56.0322C207.9727,-46.8606 207.9727,-36.7449 207.9727,-28.7931"/>
<polygon fill="#191970" stroke="#191970" points="204.4728,-56.1789 207.9727,-66.179 211.4728,-56.179 204.4728,-56.1789"/>
</g>
</g>
</svg>
