<?xml version="1.0" encoding="UTF-8" standalone="no"?>
<!DOCTYPE svg PUBLIC "-//W3C//DTD SVG 1.1//EN"
 "http://www.w3.org/Graphics/SVG/1.1/DTD/svg11.dtd">
<!-- Generated by graphviz version 2.40.1 (20161225.0304)
 -->
<!-- Title: FilteredIterator&lt; BaseIterator &gt;::PredicateBase Pages: 1 -->
<svg width="180pt" height="102pt"
 viewBox="0.00 0.00 180.48 102.00" xmlns="http://www.w3.org/2000/svg" xmlns:xlink="http://www.w3.org/1999/xlink">
<g id="graph0" class="graph" transform="scale(1 1) rotate(0) translate(4 98)">
<title>FilteredIterator&lt; BaseIterator &gt;::PredicateBase</title>
<polygon fill="#ffffff" stroke="transparent" points="-4,4 -4,-98 176.4795,-98 176.4795,4 -4,4"/>
<!-- Node0 -->
<g id="node1" class="node">
<title>Node0</title>
<polygon fill="#bfbfbf" stroke="#000000" points="14.1821,-65.5 14.1821,-93.5 158.2974,-93.5 158.2974,-65.5 14.1821,-65.5"/>
<text text-anchor="start" x="22.1821" y="-81.5" font-family="Helvetica,sans-Serif" font-size="10.00" fill="#000000">FilteredIterator&lt; BaseIterator</text>
<text text-anchor="middle" x="86.2397" y="-71.5" font-family="Helvetica,sans-Serif" font-size="10.00" fill="#000000"> &gt;::PredicateBase</text>
</g>
<!-- Node1 -->
<g id="node2" class="node">
<title>Node1</title>
<g id="a_node2"><a xlink:href="classFilteredIterator_1_1PredicateTemplate.html" target="_top" xlink:title="FilteredIterator\&lt; BaseIterator\l \&gt;::PredicateTemplate\&lt; Predicate \&gt;">
<polygon fill="#ffffff" stroke="#000000" points="0,-.5 0,-28.5 172.4795,-28.5 172.4795,-.5 0,-.5"/>
<text text-anchor="start" x="8" y="-16.5" font-family="Helvetica,sans-Serif" font-size="10.00" fill="#000000">FilteredIterator&lt; BaseIterator</text>
<text text-anchor="middle" x="86.2397" y="-6.5" font-family="Helvetica,sans-Serif" font-size="10.00" fill="#000000"> &gt;::PredicateTemplate&lt; Predicate &gt;</text>
</a>
</g>
</g>
<!-- Node0&#45;&gt;Node1 -->
<g id="edge1" class="edge">
<title>Node0&#45;&gt;Node1</title>
<path fill="none" stroke="#191970" d="M86.2397,-55.1081C86.2397,-46.1539 86.2397,-36.3227 86.2397,-28.5765"/>
<polygon fill="#191970" stroke="#191970" points="82.7398,-55.3959 86.2397,-65.396 89.7398,-55.396 82.7398,-55.3959"/>
</g>
</g>
</svg>
