<?xml version="1.0" encoding="UTF-8" standalone="no"?>
<!DOCTYPE svg PUBLIC "-//W3C//DTD SVG 1.1//EN"
 "http://www.w3.org/Graphics/SVG/1.1/DTD/svg11.dtd">
<!-- Generated by graphviz version 2.40.1 (20161225.0304)
 -->
<!-- Title: TorusBoundary&lt; dim, spacedim &gt; Pages: 1 -->
<svg width="149pt" height="267pt"
 viewBox="0.00 0.00 148.51 267.00" xmlns="http://www.w3.org/2000/svg" xmlns:xlink="http://www.w3.org/1999/xlink">
<g id="graph0" class="graph" transform="scale(1 1) rotate(0) translate(4 263)">
<title>TorusBoundary&lt; dim, spacedim &gt;</title>
<polygon fill="#ffffff" stroke="transparent" points="-4,4 -4,-263 144.5117,-263 144.5117,4 -4,4"/>
<!-- Node0 -->
<g id="node1" class="node">
<title>Node0</title>
<polygon fill="#bfbfbf" stroke="#000000" points="14.8706,-.5 14.8706,-28.5 125.6411,-28.5 125.6411,-.5 14.8706,-.5"/>
<text text-anchor="start" x="22.8706" y="-16.5" font-family="Helvetica,sans-Serif" font-size="10.00" fill="#000000">TorusBoundary&lt; dim,</text>
<text text-anchor="middle" x="70.2559" y="-6.5" font-family="Helvetica,sans-Serif" font-size="10.00" fill="#000000"> spacedim &gt;</text>
</g>
<!-- Node1 -->
<g id="node2" class="node">
<title>Node1</title>
<g id="a_node2"><a xlink:href="classBoundary.html" target="_top" xlink:title="Boundary\&lt; dim, spacedim \&gt;">
<polygon fill="#ffffff" stroke="#000000" points="0,-65.5 0,-83.5 140.5117,-83.5 140.5117,-65.5 0,-65.5"/>
<text text-anchor="middle" x="70.2559" y="-71.5" font-family="Helvetica,sans-Serif" font-size="10.00" fill="#000000">Boundary&lt; dim, spacedim &gt;</text>
</a>
</g>
</g>
<!-- Node1&#45;&gt;Node0 -->
<g id="edge1" class="edge">
<title>Node1&#45;&gt;Node0</title>
<path fill="none" stroke="#191970" d="M70.2559,-55.1865C70.2559,-46.6283 70.2559,-36.7354 70.2559,-28.8477"/>
<polygon fill="#191970" stroke="#191970" points="66.756,-55.3873 70.2559,-65.3873 73.756,-55.3873 66.756,-55.3873"/>
</g>
<!-- Node2 -->
<g id="node3" class="node">
<title>Node2</title>
<g id="a_node3"><a xlink:href="classFlatManifold.html" target="_top" xlink:title="FlatManifold\&lt; dim,\l spacedim \&gt;">
<polygon fill="#ffffff" stroke="#000000" points="21.2671,-120.5 21.2671,-148.5 119.2446,-148.5 119.2446,-120.5 21.2671,-120.5"/>
<text text-anchor="start" x="29.2671" y="-136.5" font-family="Helvetica,sans-Serif" font-size="10.00" fill="#000000">FlatManifold&lt; dim,</text>
<text text-anchor="middle" x="70.2559" y="-126.5" font-family="Helvetica,sans-Serif" font-size="10.00" fill="#000000"> spacedim &gt;</text>
</a>
</g>
</g>
<!-- Node2&#45;&gt;Node1 -->
<g id="edge2" class="edge">
<title>Node2&#45;&gt;Node1</title>
<path fill="none" stroke="#191970" d="M70.2559,-110.2151C70.2559,-100.8253 70.2559,-90.6598 70.2559,-83.5842"/>
<polygon fill="#191970" stroke="#191970" points="66.756,-110.2808 70.2559,-120.2808 73.756,-110.2809 66.756,-110.2808"/>
</g>
<!-- Node3 -->
<g id="node4" class="node">
<title>Node3</title>
<g id="a_node4"><a xlink:href="classManifold.html" target="_top" xlink:title="Manifold\&lt; dim, spacedim \&gt;">
<polygon fill="#ffffff" stroke="#000000" points="2.5049,-185.5 2.5049,-203.5 138.0068,-203.5 138.0068,-185.5 2.5049,-185.5"/>
<text text-anchor="middle" x="70.2559" y="-191.5" font-family="Helvetica,sans-Serif" font-size="10.00" fill="#000000">Manifold&lt; dim, spacedim &gt;</text>
</a>
</g>
</g>
<!-- Node3&#45;&gt;Node2 -->
<g id="edge3" class="edge">
<title>Node3&#45;&gt;Node2</title>
<path fill="none" stroke="#191970" d="M70.2559,-175.1865C70.2559,-166.6283 70.2559,-156.7354 70.2559,-148.8477"/>
<polygon fill="#191970" stroke="#191970" points="66.756,-175.3873 70.2559,-185.3873 73.756,-175.3873 66.756,-175.3873"/>
</g>
<!-- Node4 -->
<g id="node5" class="node">
<title>Node4</title>
<g id="a_node5"><a xlink:href="classSubscriptor.html" target="_top" xlink:title="Subscriptor">
<polygon fill="#ffffff" stroke="#000000" points="36.9678,-240.5 36.9678,-258.5 103.5439,-258.5 103.5439,-240.5 36.9678,-240.5"/>
<text text-anchor="middle" x="70.2559" y="-246.5" font-family="Helvetica,sans-Serif" font-size="10.00" fill="#000000">Subscriptor</text>
</a>
</g>
</g>
<!-- Node4&#45;&gt;Node3 -->
<g id="edge4" class="edge">
<title>Node4&#45;&gt;Node3</title>
<path fill="none" stroke="#191970" d="M70.2559,-230.383C70.2559,-221.3738 70.2559,-211.0373 70.2559,-203.7795"/>
<polygon fill="#191970" stroke="#191970" points="66.756,-230.4178 70.2559,-240.4179 73.756,-230.4179 66.756,-230.4178"/>
</g>
</g>
</svg>
