<?xml version="1.0" encoding="UTF-8" standalone="no"?>
<!DOCTYPE svg PUBLIC "-//W3C//DTD SVG 1.1//EN"
 "http://www.w3.org/Graphics/SVG/1.1/DTD/svg11.dtd">
<!-- Generated by graphviz version 2.40.1 (20161225.0304)
 -->
<!-- Title: FEFaceValuesBase&lt; dim, spacedim &gt; Pages: 1 -->
<svg width="258pt" height="222pt"
 viewBox="0.00 0.00 257.59 222.00" xmlns="http://www.w3.org/2000/svg" xmlns:xlink="http://www.w3.org/1999/xlink">
<g id="graph0" class="graph" transform="scale(1 1) rotate(0) translate(4 218)">
<title>FEFaceValuesBase&lt; dim, spacedim &gt;</title>
<polygon fill="#ffffff" stroke="transparent" points="-4,4 -4,-218 253.5898,-218 253.5898,4 -4,4"/>
<!-- Node0 -->
<g id="node1" class="node">
<title>Node0</title>
<polygon fill="#bfbfbf" stroke="#000000" points="55.6035,-65.5 55.6035,-93.5 186.7549,-93.5 186.7549,-65.5 55.6035,-65.5"/>
<text text-anchor="start" x="63.6035" y="-81.5" font-family="Helvetica,sans-Serif" font-size="10.00" fill="#000000">FEFaceValuesBase&lt; dim,</text>
<text text-anchor="middle" x="121.1792" y="-71.5" font-family="Helvetica,sans-Serif" font-size="10.00" fill="#000000"> spacedim &gt;</text>
</g>
<!-- Node3 -->
<g id="node4" class="node">
<title>Node3</title>
<g id="a_node4"><a xlink:href="classFEFaceValues.html" target="_top" xlink:title="FEFaceValues\&lt; dim,\l spacedim \&gt;">
<polygon fill="#ffffff" stroke="#000000" points="0,-.5 0,-28.5 108.3584,-28.5 108.3584,-.5 0,-.5"/>
<text text-anchor="start" x="8" y="-16.5" font-family="Helvetica,sans-Serif" font-size="10.00" fill="#000000">FEFaceValues&lt; dim,</text>
<text text-anchor="middle" x="54.1792" y="-6.5" font-family="Helvetica,sans-Serif" font-size="10.00" fill="#000000"> spacedim &gt;</text>
</a>
</g>
</g>
<!-- Node0&#45;&gt;Node3 -->
<g id="edge3" class="edge">
<title>Node0&#45;&gt;Node3</title>
<path fill="none" stroke="#191970" d="M99.3387,-58.3115C89.2884,-48.5612 77.6385,-37.259 68.6888,-28.5765"/>
<polygon fill="#191970" stroke="#191970" points="97.0267,-60.9449 106.6412,-65.396 101.9009,-55.9207 97.0267,-60.9449"/>
</g>
<!-- Node4 -->
<g id="node5" class="node">
<title>Node4</title>
<g id="a_node5"><a xlink:href="classFESubfaceValues.html" target="_top" xlink:title="FESubfaceValues\&lt; dim,\l spacedim \&gt;">
<polygon fill="#ffffff" stroke="#000000" points="126.7686,-.5 126.7686,-28.5 249.5898,-28.5 249.5898,-.5 126.7686,-.5"/>
<text text-anchor="start" x="134.7686" y="-16.5" font-family="Helvetica,sans-Serif" font-size="10.00" fill="#000000">FESubfaceValues&lt; dim,</text>
<text text-anchor="middle" x="188.1792" y="-6.5" font-family="Helvetica,sans-Serif" font-size="10.00" fill="#000000"> spacedim &gt;</text>
</a>
</g>
</g>
<!-- Node0&#45;&gt;Node4 -->
<g id="edge4" class="edge">
<title>Node0&#45;&gt;Node4</title>
<path fill="none" stroke="#191970" d="M143.0197,-58.3115C153.07,-48.5612 164.7199,-37.259 173.6696,-28.5765"/>
<polygon fill="#191970" stroke="#191970" points="140.4575,-55.9207 135.7172,-65.396 145.3317,-60.9449 140.4575,-55.9207"/>
</g>
<!-- Node1 -->
<g id="node2" class="node">
<title>Node1</title>
<g id="a_node2"><a xlink:href="classFEValuesBase.html" target="_top" xlink:title="FEValuesBase\&lt; dim,\l spacedim \&gt;">
<polygon fill="#ffffff" stroke="#000000" points="66.7192,-130.5 66.7192,-158.5 175.6392,-158.5 175.6392,-130.5 66.7192,-130.5"/>
<text text-anchor="start" x="74.7192" y="-146.5" font-family="Helvetica,sans-Serif" font-size="10.00" fill="#000000">FEValuesBase&lt; dim,</text>
<text text-anchor="middle" x="121.1792" y="-136.5" font-family="Helvetica,sans-Serif" font-size="10.00" fill="#000000"> spacedim &gt;</text>
</a>
</g>
</g>
<!-- Node1&#45;&gt;Node0 -->
<g id="edge1" class="edge">
<title>Node1&#45;&gt;Node0</title>
<path fill="none" stroke="#191970" d="M121.1792,-120.1081C121.1792,-111.1539 121.1792,-101.3227 121.1792,-93.5765"/>
<polygon fill="#191970" stroke="#191970" points="117.6793,-120.3959 121.1792,-130.396 124.6793,-120.396 117.6793,-120.3959"/>
</g>
<!-- Node2 -->
<g id="node3" class="node">
<title>Node2</title>
<g id="a_node3"><a xlink:href="classSubscriptor.html" target="_top" xlink:title="Subscriptor">
<polygon fill="#ffffff" stroke="#000000" points="87.8911,-195.5 87.8911,-213.5 154.4673,-213.5 154.4673,-195.5 87.8911,-195.5"/>
<text text-anchor="middle" x="121.1792" y="-201.5" font-family="Helvetica,sans-Serif" font-size="10.00" fill="#000000">Subscriptor</text>
</a>
</g>
</g>
<!-- Node2&#45;&gt;Node1 -->
<g id="edge2" class="edge">
<title>Node2&#45;&gt;Node1</title>
<path fill="none" stroke="#191970" d="M121.1792,-185.1865C121.1792,-176.6283 121.1792,-166.7354 121.1792,-158.8477"/>
<polygon fill="#191970" stroke="#191970" points="117.6793,-185.3873 121.1792,-195.3873 124.6793,-185.3873 117.6793,-185.3873"/>
</g>
</g>
</svg>
