<?xml version="1.0" encoding="UTF-8" standalone="no"?>
<!DOCTYPE svg PUBLIC "-//W3C//DTD SVG 1.1//EN"
 "http://www.w3.org/Graphics/SVG/1.1/DTD/svg11.dtd">
<!-- Generated by graphviz version 2.40.1 (20161225.0304)
 -->
<!-- Title: FE_TraceQ&lt; dim, spacedim &gt; Pages: 1 -->
<svg width="282pt" height="320pt"
 viewBox="0.00 0.00 281.90 320.00" xmlns="http://www.w3.org/2000/svg" xmlns:xlink="http://www.w3.org/1999/xlink">
<g id="graph0" class="graph" transform="scale(1 1) rotate(0) translate(4 316)">
<title>FE_TraceQ&lt; dim, spacedim &gt;</title>
<polygon fill="#ffffff" stroke="transparent" points="-4,4 -4,-316 277.8975,-316 277.8975,4 -4,4"/>
<!-- Node0 -->
<g id="node1" class="node">
<title>Node0</title>
<polygon fill="#bfbfbf" stroke="#000000" points="13.7793,-.5 13.7793,-18.5 162.7969,-18.5 162.7969,-.5 13.7793,-.5"/>
<text text-anchor="middle" x="88.2881" y="-6.5" font-family="Helvetica,sans-Serif" font-size="10.00" fill="#000000">FE_TraceQ&lt; dim, spacedim &gt;</text>
</g>
<!-- Node1 -->
<g id="node2" class="node">
<title>Node1</title>
<g id="a_node2"><a xlink:href="classFE__PolyFace.html" target="_top" xlink:title="FE_PolyFace\&lt; TensorProduct\lPolynomials\&lt; dim&#45;1 \&gt;, dim,\l spacedim \&gt;">
<polygon fill="#ffffff" stroke="#000000" points="13.8159,-56.5 13.8159,-94.5 162.7603,-94.5 162.7603,-56.5 13.8159,-56.5"/>
<text text-anchor="start" x="21.8159" y="-82.5" font-family="Helvetica,sans-Serif" font-size="10.00" fill="#000000">FE_PolyFace&lt; TensorProduct</text>
<text text-anchor="start" x="21.8159" y="-72.5" font-family="Helvetica,sans-Serif" font-size="10.00" fill="#000000">Polynomials&lt; dim&#45;1 &gt;, dim,</text>
<text text-anchor="middle" x="88.2881" y="-62.5" font-family="Helvetica,sans-Serif" font-size="10.00" fill="#000000"> spacedim &gt;</text>
</a>
</g>
</g>
<!-- Node1&#45;&gt;Node0 -->
<g id="edge1" class="edge">
<title>Node1&#45;&gt;Node0</title>
<path fill="none" stroke="#191970" d="M88.2881,-46.3904C88.2881,-36.4627 88.2881,-26.0588 88.2881,-18.8402"/>
<polygon fill="#191970" stroke="#191970" points="84.7882,-46.41 88.2881,-56.4101 91.7882,-46.4101 84.7882,-46.41"/>
</g>
<!-- Node2 -->
<g id="node3" class="node">
<title>Node2</title>
<g id="a_node3"><a xlink:href="classFiniteElement.html" target="_top" xlink:title="FiniteElement\&lt; dim,\l spacedim \&gt;">
<polygon fill="#ffffff" stroke="#000000" points="31.9644,-217.5 31.9644,-245.5 136.6118,-245.5 136.6118,-217.5 31.9644,-217.5"/>
<text text-anchor="start" x="39.9644" y="-233.5" font-family="Helvetica,sans-Serif" font-size="10.00" fill="#000000">FiniteElement&lt; dim,</text>
<text text-anchor="middle" x="84.2881" y="-223.5" font-family="Helvetica,sans-Serif" font-size="10.00" fill="#000000"> spacedim &gt;</text>
</a>
</g>
</g>
<!-- Node2&#45;&gt;Node1 -->
<g id="edge2" class="edge">
<title>Node2&#45;&gt;Node1</title>
<path fill="none" stroke="#191970" d="M84.9159,-207.0165C85.712,-175.9686 87.0682,-123.076 87.7944,-94.7521"/>
<polygon fill="#191970" stroke="#191970" points="81.4077,-207.2944 84.6501,-217.3809 88.4054,-207.4739 81.4077,-207.2944"/>
</g>
<!-- Node5 -->
<g id="node6" class="node">
<title>Node5</title>
<g id="a_node6"><a xlink:href="classFE__PolyFace.html" target="_top" xlink:title="FE_PolyFace\&lt; PolynomialType,\l dim, spacedim \&gt;">
<polygon fill="#ffffff" stroke="#000000" points="100.2798,-151.5 100.2798,-179.5 258.2964,-179.5 258.2964,-151.5 100.2798,-151.5"/>
<text text-anchor="start" x="108.2798" y="-167.5" font-family="Helvetica,sans-Serif" font-size="10.00" fill="#000000">FE_PolyFace&lt; PolynomialType,</text>
<text text-anchor="middle" x="179.2881" y="-157.5" font-family="Helvetica,sans-Serif" font-size="10.00" fill="#000000"> dim, spacedim &gt;</text>
</a>
</g>
</g>
<!-- Node2&#45;&gt;Node5 -->
<g id="edge6" class="edge">
<title>Node2&#45;&gt;Node5</title>
<path fill="none" stroke="#191970" d="M113.2367,-211.3884C128.0453,-201.1003 145.708,-188.8293 159.0411,-179.5663"/>
<polygon fill="#191970" stroke="#191970" points="111.1173,-208.599 104.9017,-217.179 115.1112,-214.3478 111.1173,-208.599"/>
</g>
<!-- Node3 -->
<g id="node4" class="node">
<title>Node3</title>
<g id="a_node4"><a xlink:href="classSubscriptor.html" target="_top" xlink:title="Subscriptor">
<polygon fill="#ffffff" stroke="#000000" points="0,-288.5 0,-306.5 66.5762,-306.5 66.5762,-288.5 0,-288.5"/>
<text text-anchor="middle" x="33.2881" y="-294.5" font-family="Helvetica,sans-Serif" font-size="10.00" fill="#000000">Subscriptor</text>
</a>
</g>
</g>
<!-- Node3&#45;&gt;Node2 -->
<g id="edge3" class="edge">
<title>Node3&#45;&gt;Node2</title>
<path fill="none" stroke="#191970" d="M46.7216,-280.1155C55.0215,-269.3744 65.538,-255.7648 73.3316,-245.6789"/>
<polygon fill="#191970" stroke="#191970" points="43.7244,-278.27 40.3794,-288.323 49.2634,-282.5502 43.7244,-278.27"/>
</g>
<!-- Node4 -->
<g id="node5" class="node">
<title>Node4</title>
<g id="a_node5"><a xlink:href="classFiniteElementData.html" target="_top" xlink:title="FiniteElementData\&lt;\l dim \&gt;">
<polygon fill="#ffffff" stroke="#000000" points="84.2378,-283.5 84.2378,-311.5 188.3384,-311.5 188.3384,-283.5 84.2378,-283.5"/>
<text text-anchor="start" x="92.2378" y="-299.5" font-family="Helvetica,sans-Serif" font-size="10.00" fill="#000000">FiniteElementData&lt;</text>
<text text-anchor="middle" x="136.2881" y="-289.5" font-family="Helvetica,sans-Serif" font-size="10.00" fill="#000000"> dim &gt;</text>
</a>
</g>
</g>
<!-- Node4&#45;&gt;Node2 -->
<g id="edge4" class="edge">
<title>Node4&#45;&gt;Node2</title>
<path fill="none" stroke="#191970" d="M118.6459,-275.108C111.007,-265.4125 102.291,-254.3499 95.5493,-245.7931"/>
<polygon fill="#191970" stroke="#191970" points="116.0669,-277.4901 125.0049,-283.179 121.5653,-273.158 116.0669,-277.4901"/>
</g>
<!-- Node5&#45;&gt;Node1 -->
<g id="edge5" class="edge">
<title>Node5&#45;&gt;Node1</title>
<path fill="none" stroke="#ffa500" stroke-dasharray="5,2" d="M157.6557,-144.1053C142.517,-129.1329 122.4612,-109.2975 107.8099,-94.8073"/>
<polygon fill="#ffa500" stroke="#ffa500" points="155.4981,-146.8941 165.0693,-151.4375 160.4205,-141.9171 155.4981,-146.8941"/>
<text text-anchor="start" x="144.2881" y="-125" font-family="Helvetica,sans-Serif" font-size="10.00" fill="#000000"> &lt; TensorProductPolynomials</text>
<text text-anchor="middle" x="209.0928" y="-115" font-family="Helvetica,sans-Serif" font-size="10.00" fill="#000000">&lt; dim&#45;1 &gt;, dim, spacedim &gt;</text>
</g>
</g>
</svg>
