<?xml version="1.0" encoding="UTF-8" standalone="no"?>
<!DOCTYPE svg PUBLIC "-//W3C//DTD SVG 1.1//EN"
 "http://www.w3.org/Graphics/SVG/1.1/DTD/svg11.dtd">
<!-- Generated by graphviz version 2.40.1 (20161225.0304)
 -->
<!-- Title: BlockMatrixArray&lt; number, BlockVectorType &gt; Pages: 1 -->
<svg width="155pt" height="157pt"
 viewBox="0.00 0.00 154.64 157.00" xmlns="http://www.w3.org/2000/svg" xmlns:xlink="http://www.w3.org/1999/xlink">
<g id="graph0" class="graph" transform="scale(1 1) rotate(0) translate(4 153)">
<title>BlockMatrixArray&lt; number, BlockVectorType &gt;</title>
<polygon fill="#ffffff" stroke="transparent" points="-4,4 -4,-153 150.6445,-153 150.6445,4 -4,4"/>
<!-- Node0 -->
<g id="node1" class="node">
<title>Node0</title>
<polygon fill="#bfbfbf" stroke="#000000" points="5.1611,-65.5 5.1611,-93.5 141.4834,-93.5 141.4834,-65.5 5.1611,-65.5"/>
<text text-anchor="start" x="13.1611" y="-81.5" font-family="Helvetica,sans-Serif" font-size="10.00" fill="#000000">BlockMatrixArray&lt; number,</text>
<text text-anchor="middle" x="73.3223" y="-71.5" font-family="Helvetica,sans-Serif" font-size="10.00" fill="#000000"> BlockVectorType &gt;</text>
</g>
<!-- Node2 -->
<g id="node3" class="node">
<title>Node2</title>
<g id="a_node3"><a xlink:href="classBlockTrianglePrecondition.html" target="_top" xlink:title="BlockTrianglePrecondition\l\&lt; number, BlockVectorType \&gt;">
<polygon fill="#ffffff" stroke="#000000" points="0,-.5 0,-28.5 146.6445,-28.5 146.6445,-.5 0,-.5"/>
<text text-anchor="start" x="8" y="-16.5" font-family="Helvetica,sans-Serif" font-size="10.00" fill="#000000">BlockTrianglePrecondition</text>
<text text-anchor="middle" x="73.3223" y="-6.5" font-family="Helvetica,sans-Serif" font-size="10.00" fill="#000000">&lt; number, BlockVectorType &gt;</text>
</a>
</g>
</g>
<!-- Node0&#45;&gt;Node2 -->
<g id="edge2" class="edge">
<title>Node0&#45;&gt;Node2</title>
<path fill="none" stroke="#8b1a1a" d="M73.3223,-55.1081C73.3223,-46.1539 73.3223,-36.3227 73.3223,-28.5765"/>
<polygon fill="#8b1a1a" stroke="#8b1a1a" points="69.8224,-55.3959 73.3223,-65.396 76.8224,-55.396 69.8224,-55.3959"/>
</g>
<!-- Node1 -->
<g id="node2" class="node">
<title>Node1</title>
<g id="a_node2"><a xlink:href="classSubscriptor.html" target="_top" xlink:title="Subscriptor">
<polygon fill="#ffffff" stroke="#000000" points="40.0342,-130.5 40.0342,-148.5 106.6104,-148.5 106.6104,-130.5 40.0342,-130.5"/>
<text text-anchor="middle" x="73.3223" y="-136.5" font-family="Helvetica,sans-Serif" font-size="10.00" fill="#000000">Subscriptor</text>
</a>
</g>
</g>
<!-- Node1&#45;&gt;Node0 -->
<g id="edge1" class="edge">
<title>Node1&#45;&gt;Node0</title>
<path fill="none" stroke="#191970" d="M73.3223,-120.1865C73.3223,-111.6283 73.3223,-101.7354 73.3223,-93.8477"/>
<polygon fill="#191970" stroke="#191970" points="69.8224,-120.3873 73.3223,-130.3873 76.8224,-120.3873 69.8224,-120.3873"/>
</g>
</g>
</svg>
