<?xml version="1.0" encoding="UTF-8" standalone="no"?>
<!DOCTYPE svg PUBLIC "-//W3C//DTD SVG 1.1//EN"
 "http://www.w3.org/Graphics/SVG/1.1/DTD/svg11.dtd">
<!-- Generated by graphviz version 2.40.1 (20161225.0304)
 -->
<!-- Title: parallel::distributed::Triangulation&lt; 1, spacedim &gt; Pages: 1 -->
<svg width="207pt" height="300pt"
 viewBox="0.00 0.00 206.70 300.00" xmlns="http://www.w3.org/2000/svg" xmlns:xlink="http://www.w3.org/1999/xlink">
<g id="graph0" class="graph" transform="scale(1 1) rotate(0) translate(4 296)">
<title>parallel::distributed::Triangulation&lt; 1, spacedim &gt;</title>
<polygon fill="#ffffff" stroke="transparent" points="-4,4 -4,-296 202.6997,-296 202.6997,4 -4,4"/>
<!-- Node0 -->
<g id="node1" class="node">
<title>Node0</title>
<polygon fill="#bfbfbf" stroke="#000000" points="0,-.5 0,-28.5 150.1553,-28.5 150.1553,-.5 0,-.5"/>
<text text-anchor="start" x="8" y="-16.5" font-family="Helvetica,sans-Serif" font-size="10.00" fill="#000000">parallel::distributed</text>
<text text-anchor="middle" x="75.0776" y="-6.5" font-family="Helvetica,sans-Serif" font-size="10.00" fill="#000000">::Triangulation&lt; 1, spacedim &gt;</text>
</g>
<!-- Node1 -->
<g id="node2" class="node">
<title>Node1</title>
<g id="a_node2"><a xlink:href="classparallel_1_1Triangulation.html" target="_top" xlink:title="parallel::Triangulation\l\&lt; 1, spacedim \&gt;">
<polygon fill="#ffffff" stroke="#000000" points="19.4556,-66.5 19.4556,-94.5 130.6997,-94.5 130.6997,-66.5 19.4556,-66.5"/>
<text text-anchor="start" x="27.4556" y="-82.5" font-family="Helvetica,sans-Serif" font-size="10.00" fill="#000000">parallel::Triangulation</text>
<text text-anchor="middle" x="75.0776" y="-72.5" font-family="Helvetica,sans-Serif" font-size="10.00" fill="#000000">&lt; 1, spacedim &gt;</text>
</a>
</g>
</g>
<!-- Node1&#45;&gt;Node0 -->
<g id="edge1" class="edge">
<title>Node1&#45;&gt;Node0</title>
<path fill="none" stroke="#191970" d="M75.0776,-56.0322C75.0776,-46.8606 75.0776,-36.7449 75.0776,-28.7931"/>
<polygon fill="#191970" stroke="#191970" points="71.5777,-56.1789 75.0776,-66.179 78.5777,-56.179 71.5777,-56.1789"/>
</g>
<!-- Node2 -->
<g id="node3" class="node">
<title>Node2</title>
<g id="a_node3"><a xlink:href="classTriangulation.html" target="_top" xlink:title="Triangulation\&lt; dim,\l spacedim \&gt;">
<polygon fill="#ffffff" stroke="#000000" points="20.5996,-207.5 20.5996,-235.5 121.5557,-235.5 121.5557,-207.5 20.5996,-207.5"/>
<text text-anchor="start" x="28.5996" y="-223.5" font-family="Helvetica,sans-Serif" font-size="10.00" fill="#000000">Triangulation&lt; dim,</text>
<text text-anchor="middle" x="71.0776" y="-213.5" font-family="Helvetica,sans-Serif" font-size="10.00" fill="#000000"> spacedim &gt;</text>
</a>
</g>
</g>
<!-- Node2&#45;&gt;Node1 -->
<g id="edge2" class="edge">
<title>Node2&#45;&gt;Node1</title>
<path fill="none" stroke="#191970" d="M71.767,-197.2015C72.6032,-167.7234 73.9857,-118.9898 74.6692,-94.8981"/>
<polygon fill="#191970" stroke="#191970" points="68.2609,-197.3696 71.4758,-207.4649 75.2581,-197.5682 68.2609,-197.3696"/>
</g>
<!-- Node4 -->
<g id="node5" class="node">
<title>Node4</title>
<g id="a_node5"><a xlink:href="classparallel_1_1Triangulation.html" target="_top" xlink:title="parallel::Triangulation\l\&lt; dim, spacedim \&gt;">
<polygon fill="#ffffff" stroke="#000000" points="87.4556,-141.5 87.4556,-169.5 198.6997,-169.5 198.6997,-141.5 87.4556,-141.5"/>
<text text-anchor="start" x="95.4556" y="-157.5" font-family="Helvetica,sans-Serif" font-size="10.00" fill="#000000">parallel::Triangulation</text>
<text text-anchor="middle" x="143.0776" y="-147.5" font-family="Helvetica,sans-Serif" font-size="10.00" fill="#000000">&lt; dim, spacedim &gt;</text>
</a>
</g>
</g>
<!-- Node2&#45;&gt;Node4 -->
<g id="edge5" class="edge">
<title>Node2&#45;&gt;Node4</title>
<path fill="none" stroke="#191970" d="M94.2309,-200.2762C105.1026,-190.3105 117.7733,-178.6956 127.4852,-169.7931"/>
<polygon fill="#191970" stroke="#191970" points="91.7071,-197.8417 86.7006,-207.179 96.4372,-203.0018 91.7071,-197.8417"/>
</g>
<!-- Node3 -->
<g id="node4" class="node">
<title>Node3</title>
<g id="a_node4"><a xlink:href="classSubscriptor.html" target="_top" xlink:title="Subscriptor">
<polygon fill="#ffffff" stroke="#000000" points="37.7896,-273.5 37.7896,-291.5 104.3657,-291.5 104.3657,-273.5 37.7896,-273.5"/>
<text text-anchor="middle" x="71.0776" y="-279.5" font-family="Helvetica,sans-Serif" font-size="10.00" fill="#000000">Subscriptor</text>
</a>
</g>
</g>
<!-- Node3&#45;&gt;Node2 -->
<g id="edge3" class="edge">
<title>Node3&#45;&gt;Node2</title>
<path fill="none" stroke="#191970" d="M71.0776,-263.2842C71.0776,-254.3664 71.0776,-243.9504 71.0776,-235.7488"/>
<polygon fill="#191970" stroke="#191970" points="67.5777,-263.4992 71.0776,-273.4992 74.5777,-263.4993 67.5777,-263.4992"/>
</g>
<!-- Node4&#45;&gt;Node1 -->
<g id="edge4" class="edge">
<title>Node4&#45;&gt;Node1</title>
<path fill="none" stroke="#ffa500" stroke-dasharray="5,2" d="M123.5462,-133.9579C112.0588,-121.288 97.8626,-105.6305 87.8106,-94.5437"/>
<polygon fill="#ffa500" stroke="#ffa500" points="120.9775,-136.3356 130.2874,-141.3931 126.1634,-131.6338 120.9775,-136.3356"/>
<text text-anchor="middle" x="150.043" y="-115" font-family="Helvetica,sans-Serif" font-size="10.00" fill="#000000"> &lt; 1, spacedim &gt;</text>
</g>
</g>
</svg>
