<?xml version="1.0" encoding="UTF-8" standalone="no"?>
<!DOCTYPE svg PUBLIC "-//W3C//DTD SVG 1.1//EN"
 "http://www.w3.org/Graphics/SVG/1.1/DTD/svg11.dtd">
<!-- Generated by graphviz version 2.40.1 (20161225.0304)
 -->
<!-- Title: TriaIterator&lt; Accessor &gt; Pages: 1 -->
<svg width="150pt" height="147pt"
 viewBox="0.00 0.00 150.35 147.00" xmlns="http://www.w3.org/2000/svg" xmlns:xlink="http://www.w3.org/1999/xlink">
<g id="graph0" class="graph" transform="scale(1 1) rotate(0) translate(4 143)">
<title>TriaIterator&lt; Accessor &gt;</title>
<polygon fill="#ffffff" stroke="transparent" points="-4,4 -4,-143 146.3525,-143 146.3525,4 -4,4"/>
<!-- Node0 -->
<g id="node1" class="node">
<title>Node0</title>
<polygon fill="#bfbfbf" stroke="#000000" points="10.0024,-65.5 10.0024,-83.5 132.3501,-83.5 132.3501,-65.5 10.0024,-65.5"/>
<text text-anchor="middle" x="71.1763" y="-71.5" font-family="Helvetica,sans-Serif" font-size="10.00" fill="#000000">TriaIterator&lt; Accessor &gt;</text>
</g>
<!-- Node2 -->
<g id="node3" class="node">
<title>Node2</title>
<g id="a_node3"><a xlink:href="classTriaActiveIterator.html" target="_top" xlink:title="TriaActiveIterator\l\&lt; Accessor \&gt;">
<polygon fill="#ffffff" stroke="#000000" points="25.293,-.5 25.293,-28.5 117.0596,-28.5 117.0596,-.5 25.293,-.5"/>
<text text-anchor="start" x="33.293" y="-16.5" font-family="Helvetica,sans-Serif" font-size="10.00" fill="#000000">TriaActiveIterator</text>
<text text-anchor="middle" x="71.1763" y="-6.5" font-family="Helvetica,sans-Serif" font-size="10.00" fill="#000000">&lt; Accessor &gt;</text>
</a>
</g>
</g>
<!-- Node0&#45;&gt;Node2 -->
<g id="edge2" class="edge">
<title>Node0&#45;&gt;Node2</title>
<path fill="none" stroke="#191970" d="M71.1763,-55.1865C71.1763,-46.6283 71.1763,-36.7354 71.1763,-28.8477"/>
<polygon fill="#191970" stroke="#191970" points="67.6764,-55.3873 71.1763,-65.3873 74.6764,-55.3873 67.6764,-55.3873"/>
</g>
<!-- Node1 -->
<g id="node2" class="node">
<title>Node1</title>
<g id="a_node2"><a xlink:href="classTriaRawIterator.html" target="_top" xlink:title="TriaRawIterator\&lt; Accessor \&gt;">
<polygon fill="#ffffff" stroke="#000000" points="0,-120.5 0,-138.5 142.3525,-138.5 142.3525,-120.5 0,-120.5"/>
<text text-anchor="middle" x="71.1763" y="-126.5" font-family="Helvetica,sans-Serif" font-size="10.00" fill="#000000">TriaRawIterator&lt; Accessor &gt;</text>
</a>
</g>
</g>
<!-- Node1&#45;&gt;Node0 -->
<g id="edge1" class="edge">
<title>Node1&#45;&gt;Node0</title>
<path fill="none" stroke="#191970" d="M71.1763,-110.383C71.1763,-101.3738 71.1763,-91.0373 71.1763,-83.7795"/>
<polygon fill="#191970" stroke="#191970" points="67.6764,-110.4178 71.1763,-120.4179 74.6764,-110.4179 67.6764,-110.4178"/>
</g>
</g>
</svg>
