<?xml version="1.0" encoding="UTF-8" standalone="no"?>
<!DOCTYPE svg PUBLIC "-//W3C//DTD SVG 1.1//EN"
 "http://www.w3.org/Graphics/SVG/1.1/DTD/svg11.dtd">
<!-- Generated by graphviz version 2.40.1 (20161225.0304)
 -->
<!-- Title: FE_Q_iso_Q1&lt; dim, spacedim &gt; Pages: 1 -->
<svg width="1418pt" height="108pt"
 viewBox="0.00 0.00 1417.80 108.00" xmlns="http://www.w3.org/2000/svg" xmlns:xlink="http://www.w3.org/1999/xlink">
<g id="graph0" class="graph" transform="scale(1 1) rotate(0) translate(4 104)">
<title>FE_Q_iso_Q1&lt; dim, spacedim &gt;</title>
<polygon fill="#ffffff" stroke="transparent" points="-4,4 -4,-104 1413.7959,-104 1413.7959,4 -4,4"/>
<!-- Node0 -->
<g id="node1" class="node">
<title>Node0</title>
<polygon fill="#bfbfbf" stroke="#000000" points="1248.7275,-30.5 1248.7275,-48.5 1409.7959,-48.5 1409.7959,-30.5 1248.7275,-30.5"/>
<text text-anchor="middle" x="1329.2617" y="-36.5" font-family="Helvetica,sans-Serif" font-size="10.00" fill="#000000">FE_Q_iso_Q1&lt; dim, spacedim &gt;</text>
</g>
<!-- Node1 -->
<g id="node2" class="node">
<title>Node1</title>
<g id="a_node2"><a xlink:href="classFE__Q__Base.html" target="_top" xlink:title="FE_Q_Base\&lt; TensorProduct\lPolynomials\&lt; dim, Polynomials\l::PiecewisePolynomial\&lt; double\l \&gt; \&gt;, dim, spacedim \&gt;">
<polygon fill="#ffffff" stroke="#000000" points="1057.5928,-15.5 1057.5928,-63.5 1211.7275,-63.5 1211.7275,-15.5 1057.5928,-15.5"/>
<text text-anchor="start" x="1065.5928" y="-51.5" font-family="Helvetica,sans-Serif" font-size="10.00" fill="#000000">FE_Q_Base&lt; TensorProduct</text>
<text text-anchor="start" x="1065.5928" y="-41.5" font-family="Helvetica,sans-Serif" font-size="10.00" fill="#000000">Polynomials&lt; dim, Polynomials</text>
<text text-anchor="start" x="1065.5928" y="-31.5" font-family="Helvetica,sans-Serif" font-size="10.00" fill="#000000">::PiecewisePolynomial&lt; double</text>
<text text-anchor="middle" x="1134.6602" y="-21.5" font-family="Helvetica,sans-Serif" font-size="10.00" fill="#000000"> &gt; &gt;, dim, spacedim &gt;</text>
</a>
</g>
</g>
<!-- Node1&#45;&gt;Node0 -->
<g id="edge1" class="edge">
<title>Node1&#45;&gt;Node0</title>
<path fill="none" stroke="#191970" d="M1221.8559,-39.5C1230.7746,-39.5 1239.8077,-39.5 1248.6512,-39.5"/>
<polygon fill="#191970" stroke="#191970" points="1221.8514,-36.0001 1211.8513,-39.5 1221.8513,-43.0001 1221.8514,-36.0001"/>
</g>
<!-- Node2 -->
<g id="node3" class="node">
<title>Node2</title>
<g id="a_node3"><a xlink:href="classFE__Poly.html" target="_top" xlink:title="FE_Poly\&lt; TensorProductPolynomials\l\&lt; dim, Polynomials::PiecewisePolynomial\l\&lt; double \&gt; \&gt;, dim, spacedim \&gt;">
<polygon fill="#ffffff" stroke="#000000" points="638.2197,-47.5 638.2197,-85.5 837.9063,-85.5 837.9063,-47.5 638.2197,-47.5"/>
<text text-anchor="start" x="646.2197" y="-73.5" font-family="Helvetica,sans-Serif" font-size="10.00" fill="#000000">FE_Poly&lt; TensorProductPolynomials</text>
<text text-anchor="start" x="646.2197" y="-63.5" font-family="Helvetica,sans-Serif" font-size="10.00" fill="#000000">&lt; dim, Polynomials::PiecewisePolynomial</text>
<text text-anchor="middle" x="738.063" y="-53.5" font-family="Helvetica,sans-Serif" font-size="10.00" fill="#000000">&lt; double &gt; &gt;, dim, spacedim &gt;</text>
</a>
</g>
</g>
<!-- Node2&#45;&gt;Node1 -->
<g id="edge2" class="edge">
<title>Node2&#45;&gt;Node1</title>
<path fill="none" stroke="#191970" d="M848.1371,-62.3041C905.3066,-59.7086 976.2699,-55.8383 1039.5928,-50.5 1045.3874,-50.0115 1051.3746,-49.451 1057.3933,-48.8472"/>
<polygon fill="#191970" stroke="#191970" points="847.8269,-58.8144 837.9934,-62.7579 848.1398,-65.8074 847.8269,-58.8144"/>
</g>
<!-- Node3 -->
<g id="node4" class="node">
<title>Node3</title>
<g id="a_node4"><a xlink:href="classFiniteElement.html" target="_top" xlink:title="FiniteElement\&lt; dim,\l spacedim \&gt;">
<polygon fill="#ffffff" stroke="#000000" points="141.1006,-55.5 141.1006,-83.5 245.748,-83.5 245.748,-55.5 141.1006,-55.5"/>
<text text-anchor="start" x="149.1006" y="-71.5" font-family="Helvetica,sans-Serif" font-size="10.00" fill="#000000">FiniteElement&lt; dim,</text>
<text text-anchor="middle" x="193.4243" y="-61.5" font-family="Helvetica,sans-Serif" font-size="10.00" fill="#000000"> spacedim &gt;</text>
</a>
</g>
</g>
<!-- Node3&#45;&gt;Node2 -->
<g id="edge3" class="edge">
<title>Node3&#45;&gt;Node2</title>
<path fill="none" stroke="#191970" d="M256.0807,-74.108C258.6702,-74.25 261.234,-74.3816 263.748,-74.5 422.0144,-81.954 461.9818,-86.5359 620.2197,-78.5 626.0731,-78.2027 632.0838,-77.8229 638.1441,-77.3827"/>
<polygon fill="#191970" stroke="#191970" points="256.2057,-70.6094 246.0172,-73.5151 255.794,-77.5972 256.2057,-70.6094"/>
</g>
<!-- Node6 -->
<g id="node7" class="node">
<title>Node6</title>
<g id="a_node7"><a xlink:href="classFE__Poly.html" target="_top" xlink:title="FE_Poly\&lt; PolynomialType,\l dim, spacedim \&gt;">
<polygon fill="#ffffff" stroke="#000000" points="282.748,-33.5 282.748,-61.5 418.5332,-61.5 418.5332,-33.5 282.748,-33.5"/>
<text text-anchor="start" x="290.748" y="-49.5" font-family="Helvetica,sans-Serif" font-size="10.00" fill="#000000">FE_Poly&lt; PolynomialType,</text>
<text text-anchor="middle" x="350.6406" y="-39.5" font-family="Helvetica,sans-Serif" font-size="10.00" fill="#000000"> dim, spacedim &gt;</text>
</a>
</g>
</g>
<!-- Node3&#45;&gt;Node6 -->
<g id="edge7" class="edge">
<title>Node3&#45;&gt;Node6</title>
<path fill="none" stroke="#191970" d="M255.9073,-60.7565C264.6713,-59.5301 273.7148,-58.2646 282.5762,-57.0246"/>
<polygon fill="#191970" stroke="#191970" points="255.1935,-57.3222 245.7751,-62.1743 256.1637,-64.2546 255.1935,-57.3222"/>
</g>
<!-- Node4 -->
<g id="node5" class="node">
<title>Node4</title>
<g id="a_node5"><a xlink:href="classSubscriptor.html" target="_top" xlink:title="Subscriptor">
<polygon fill="#ffffff" stroke="#000000" points="18.7622,-81.5 18.7622,-99.5 85.3384,-99.5 85.3384,-81.5 18.7622,-81.5"/>
<text text-anchor="middle" x="52.0503" y="-87.5" font-family="Helvetica,sans-Serif" font-size="10.00" fill="#000000">Subscriptor</text>
</a>
</g>
</g>
<!-- Node4&#45;&gt;Node3 -->
<g id="edge4" class="edge">
<title>Node4&#45;&gt;Node3</title>
<path fill="none" stroke="#191970" d="M95.6606,-84.022C110.0246,-81.8884 126.1458,-79.4937 141.091,-77.2737"/>
<polygon fill="#191970" stroke="#191970" points="94.9311,-80.5919 85.554,-85.5233 95.9597,-87.5159 94.9311,-80.5919"/>
</g>
<!-- Node5 -->
<g id="node6" class="node">
<title>Node5</title>
<g id="a_node6"><a xlink:href="classFiniteElementData.html" target="_top" xlink:title="FiniteElementData\&lt;\l dim \&gt;">
<polygon fill="#ffffff" stroke="#000000" points="0,-34.5 0,-62.5 104.1006,-62.5 104.1006,-34.5 0,-34.5"/>
<text text-anchor="start" x="8" y="-50.5" font-family="Helvetica,sans-Serif" font-size="10.00" fill="#000000">FiniteElementData&lt;</text>
<text text-anchor="middle" x="52.0503" y="-40.5" font-family="Helvetica,sans-Serif" font-size="10.00" fill="#000000"> dim &gt;</text>
</a>
</g>
</g>
<!-- Node5&#45;&gt;Node3 -->
<g id="edge5" class="edge">
<title>Node5&#45;&gt;Node3</title>
<path fill="none" stroke="#191970" d="M114.2377,-57.7374C123.1434,-59.0603 132.2318,-60.4103 140.9263,-61.7018"/>
<polygon fill="#191970" stroke="#191970" points="114.6968,-54.2673 104.2911,-56.26 113.6683,-61.1914 114.6968,-54.2673"/>
</g>
<!-- Node6&#45;&gt;Node2 -->
<g id="edge6" class="edge">
<title>Node6&#45;&gt;Node2</title>
<path fill="none" stroke="#ffa500" stroke-dasharray="5,2" d="M428.782,-44.7451C482.665,-43.591 555.8903,-43.4953 620.2197,-48.5 626.1004,-48.9575 632.1322,-49.5362 638.2087,-50.2035"/>
<polygon fill="#ffa500" stroke="#ffa500" points="428.5288,-41.2499 418.6125,-44.9803 428.6908,-48.248 428.5288,-41.2499"/>
<text text-anchor="start" x="436.5332" y="-70.5" font-family="Helvetica,sans-Serif" font-size="10.00" fill="#000000"> &lt; TensorProductPolynomials</text>
<text text-anchor="start" x="436.5332" y="-60.5" font-family="Helvetica,sans-Serif" font-size="10.00" fill="#000000">&lt; dim, Polynomials::PiecewisePolynomial</text>
<text text-anchor="middle" x="528.3765" y="-50.5" font-family="Helvetica,sans-Serif" font-size="10.00" fill="#000000">&lt; double &gt; &gt;, dim, spacedim &gt;</text>
</g>
<!-- Node7 -->
<g id="node8" class="node">
<title>Node7</title>
<g id="a_node8"><a xlink:href="classFE__Q__Base.html" target="_top" xlink:title="FE_Q_Base\&lt; PolynomialType,\l dim, spacedim \&gt;">
<polygon fill="#ffffff" stroke="#000000" points="661.8306,-.5 661.8306,-28.5 814.2954,-28.5 814.2954,-.5 661.8306,-.5"/>
<text text-anchor="start" x="669.8306" y="-16.5" font-family="Helvetica,sans-Serif" font-size="10.00" fill="#000000">FE_Q_Base&lt; PolynomialType,</text>
<text text-anchor="middle" x="738.063" y="-6.5" font-family="Helvetica,sans-Serif" font-size="10.00" fill="#000000"> dim, spacedim &gt;</text>
</a>
</g>
</g>
<!-- Node6&#45;&gt;Node7 -->
<g id="edge9" class="edge">
<title>Node6&#45;&gt;Node7</title>
<path fill="none" stroke="#191970" d="M428.7697,-40.8451C496.5967,-35.0677 594.2285,-26.7516 661.5705,-21.0155"/>
<polygon fill="#191970" stroke="#191970" points="428.2346,-37.3779 418.5678,-41.7141 428.8288,-44.3526 428.2346,-37.3779"/>
</g>
<!-- Node7&#45;&gt;Node1 -->
<g id="edge8" class="edge">
<title>Node7&#45;&gt;Node1</title>
<path fill="none" stroke="#ffa500" stroke-dasharray="5,2" d="M824.7724,-12.1651C885.1727,-11.5303 967.5083,-12.6423 1039.5928,-20.5 1045.449,-21.1384 1051.4809,-21.9573 1057.531,-22.8956"/>
<polygon fill="#ffa500" stroke="#ffa500" points="824.4722,-8.6684 814.5162,-12.2918 824.5587,-15.6679 824.4722,-8.6684"/>
<text text-anchor="start" x="855.9063" y="-42.5" font-family="Helvetica,sans-Serif" font-size="10.00" fill="#000000"> &lt; TensorProductPolynomials</text>
<text text-anchor="start" x="855.9063" y="-32.5" font-family="Helvetica,sans-Serif" font-size="10.00" fill="#000000">&lt; dim, Polynomials::PiecewisePolynomial</text>
<text text-anchor="middle" x="947.7495" y="-22.5" font-family="Helvetica,sans-Serif" font-size="10.00" fill="#000000">&lt; double &gt; &gt;, dim, spacedim &gt;</text>
</g>
</g>
</svg>
