<?xml version="1.0" encoding="UTF-8" standalone="no"?>
<!DOCTYPE svg PUBLIC "-//W3C//DTD SVG 1.1//EN"
 "http://www.w3.org/Graphics/SVG/1.1/DTD/svg11.dtd">
<!-- Generated by graphviz version 2.40.1 (20161225.0304)
 -->
<!-- Title: MappingQ1&lt; dim, spacedim &gt; Pages: 1 -->
<svg width="157pt" height="202pt"
 viewBox="0.00 0.00 157.40 202.00" xmlns="http://www.w3.org/2000/svg" xmlns:xlink="http://www.w3.org/1999/xlink">
<g id="graph0" class="graph" transform="scale(1 1) rotate(0) translate(4 198)">
<title>MappingQ1&lt; dim, spacedim &gt;</title>
<polygon fill="#ffffff" stroke="transparent" points="-4,4 -4,-198 153.4033,-198 153.4033,4 -4,4"/>
<!-- Node0 -->
<g id="node1" class="node">
<title>Node0</title>
<polygon fill="#bfbfbf" stroke="#000000" points="0,-.5 0,-18.5 149.4033,-18.5 149.4033,-.5 0,-.5"/>
<text text-anchor="middle" x="74.7017" y="-6.5" font-family="Helvetica,sans-Serif" font-size="10.00" fill="#000000">MappingQ1&lt; dim, spacedim &gt;</text>
</g>
<!-- Node1 -->
<g id="node2" class="node">
<title>Node1</title>
<g id="a_node2"><a xlink:href="classMappingQGeneric.html" target="_top" xlink:title="MappingQGeneric\&lt; dim,\l spacedim \&gt;">
<polygon fill="#ffffff" stroke="#000000" points="12.3706,-55.5 12.3706,-83.5 137.0327,-83.5 137.0327,-55.5 12.3706,-55.5"/>
<text text-anchor="start" x="20.3706" y="-71.5" font-family="Helvetica,sans-Serif" font-size="10.00" fill="#000000">MappingQGeneric&lt; dim,</text>
<text text-anchor="middle" x="74.7017" y="-61.5" font-family="Helvetica,sans-Serif" font-size="10.00" fill="#000000"> spacedim &gt;</text>
</a>
</g>
</g>
<!-- Node1&#45;&gt;Node0 -->
<g id="edge1" class="edge">
<title>Node1&#45;&gt;Node0</title>
<path fill="none" stroke="#191970" d="M74.7017,-45.2151C74.7017,-35.8253 74.7017,-25.6598 74.7017,-18.5842"/>
<polygon fill="#191970" stroke="#191970" points="71.2018,-45.2808 74.7017,-55.2808 78.2018,-45.2809 71.2018,-45.2808"/>
</g>
<!-- Node2 -->
<g id="node3" class="node">
<title>Node2</title>
<g id="a_node3"><a xlink:href="classMapping.html" target="_top" xlink:title="Abstract base class for mapping classes. ">
<polygon fill="#ffffff" stroke="#000000" points="6.6699,-120.5 6.6699,-138.5 142.7334,-138.5 142.7334,-120.5 6.6699,-120.5"/>
<text text-anchor="middle" x="74.7017" y="-126.5" font-family="Helvetica,sans-Serif" font-size="10.00" fill="#000000">Mapping&lt; dim, spacedim &gt;</text>
</a>
</g>
</g>
<!-- Node2&#45;&gt;Node1 -->
<g id="edge2" class="edge">
<title>Node2&#45;&gt;Node1</title>
<path fill="none" stroke="#191970" d="M74.7017,-110.1865C74.7017,-101.6283 74.7017,-91.7354 74.7017,-83.8477"/>
<polygon fill="#191970" stroke="#191970" points="71.2018,-110.3873 74.7017,-120.3873 78.2018,-110.3873 71.2018,-110.3873"/>
</g>
<!-- Node3 -->
<g id="node4" class="node">
<title>Node3</title>
<g id="a_node4"><a xlink:href="classSubscriptor.html" target="_top" xlink:title="Subscriptor">
<polygon fill="#ffffff" stroke="#000000" points="41.4136,-175.5 41.4136,-193.5 107.9897,-193.5 107.9897,-175.5 41.4136,-175.5"/>
<text text-anchor="middle" x="74.7017" y="-181.5" font-family="Helvetica,sans-Serif" font-size="10.00" fill="#000000">Subscriptor</text>
</a>
</g>
</g>
<!-- Node3&#45;&gt;Node2 -->
<g id="edge3" class="edge">
<title>Node3&#45;&gt;Node2</title>
<path fill="none" stroke="#191970" d="M74.7017,-165.383C74.7017,-156.3738 74.7017,-146.0373 74.7017,-138.7795"/>
<polygon fill="#191970" stroke="#191970" points="71.2018,-165.4178 74.7017,-175.4179 78.2018,-165.4179 71.2018,-165.4178"/>
</g>
</g>
</svg>
