<?xml version="1.0" encoding="UTF-8" standalone="no"?>
<!DOCTYPE svg PUBLIC "-//W3C//DTD SVG 1.1//EN"
 "http://www.w3.org/Graphics/SVG/1.1/DTD/svg11.dtd">
<!-- Generated by graphviz version 2.40.1 (20161225.0304)
 -->
<!-- Title: internal::DoFHandler::DoFObjects&lt; dim &gt; Pages: 1 -->
<svg width="242pt" height="112pt"
 viewBox="0.00 0.00 242.27 112.00" xmlns="http://www.w3.org/2000/svg" xmlns:xlink="http://www.w3.org/1999/xlink">
<g id="graph0" class="graph" transform="scale(1 1) rotate(0) translate(4 108)">
<title>internal::DoFHandler::DoFObjects&lt; dim &gt;</title>
<polygon fill="#ffffff" stroke="transparent" points="-4,4 -4,-108 238.2656,-108 238.2656,4 -4,4"/>
<!-- Node0 -->
<g id="node1" class="node">
<title>Node0</title>
<polygon fill="#bfbfbf" stroke="#000000" points="63,-75.5 63,-103.5 171.2656,-103.5 171.2656,-75.5 63,-75.5"/>
<text text-anchor="start" x="71" y="-91.5" font-family="Helvetica,sans-Serif" font-size="10.00" fill="#000000">internal::DoFHandler</text>
<text text-anchor="middle" x="117.1328" y="-81.5" font-family="Helvetica,sans-Serif" font-size="10.00" fill="#000000">::DoFObjects&lt; dim &gt;</text>
</g>
<!-- Node1 -->
<g id="node2" class="node">
<title>Node1</title>
<g id="a_node2"><a xlink:href="classinternal_1_1DoFHandler_1_1DoFObjects.html" target="_top" xlink:title="internal::DoFHandler\l::DoFObjects\&lt; 1 \&gt;">
<polygon fill="#ffffff" stroke="#000000" points="0,-.5 0,-28.5 108.2656,-28.5 108.2656,-.5 0,-.5"/>
<text text-anchor="start" x="8" y="-16.5" font-family="Helvetica,sans-Serif" font-size="10.00" fill="#000000">internal::DoFHandler</text>
<text text-anchor="middle" x="54.1328" y="-6.5" font-family="Helvetica,sans-Serif" font-size="10.00" fill="#000000">::DoFObjects&lt; 1 &gt;</text>
</a>
</g>
</g>
<!-- Node0&#45;&gt;Node1 -->
<g id="edge1" class="edge">
<title>Node0&#45;&gt;Node1</title>
<path fill="none" stroke="#ffa500" stroke-dasharray="5,2" d="M98.7356,-67.5986C88.1469,-54.993 75.1546,-39.5259 65.9295,-28.5437"/>
<polygon fill="#ffa500" stroke="#ffa500" points="96.1711,-69.9872 105.283,-75.3931 101.531,-65.4848 96.1711,-69.9872"/>
<text text-anchor="middle" x="102.9209" y="-49" font-family="Helvetica,sans-Serif" font-size="10.00" fill="#000000"> &lt; 1 &gt;</text>
</g>
<!-- Node2 -->
<g id="node3" class="node">
<title>Node2</title>
<g id="a_node3"><a xlink:href="classinternal_1_1DoFHandler_1_1DoFObjects.html" target="_top" xlink:title="internal::DoFHandler\l::DoFObjects\&lt; 2 \&gt;">
<polygon fill="#ffffff" stroke="#000000" points="126,-.5 126,-28.5 234.2656,-28.5 234.2656,-.5 126,-.5"/>
<text text-anchor="start" x="134" y="-16.5" font-family="Helvetica,sans-Serif" font-size="10.00" fill="#000000">internal::DoFHandler</text>
<text text-anchor="middle" x="180.1328" y="-6.5" font-family="Helvetica,sans-Serif" font-size="10.00" fill="#000000">::DoFObjects&lt; 2 &gt;</text>
</a>
</g>
</g>
<!-- Node0&#45;&gt;Node2 -->
<g id="edge2" class="edge">
<title>Node0&#45;&gt;Node2</title>
<path fill="none" stroke="#ffa500" stroke-dasharray="5,2" d="M135.53,-67.5986C146.1187,-54.993 159.1111,-39.5259 168.3361,-28.5437"/>
<polygon fill="#ffa500" stroke="#ffa500" points="132.7346,-65.4848 128.9826,-75.3931 138.0946,-69.9872 132.7346,-65.4848"/>
<text text-anchor="middle" x="164.9209" y="-49" font-family="Helvetica,sans-Serif" font-size="10.00" fill="#000000"> &lt; 2 &gt;</text>
</g>
</g>
</svg>
