<?xml version="1.0" encoding="UTF-8" standalone="no"?>
<!DOCTYPE svg PUBLIC "-//W3C//DTD SVG 1.1//EN"
 "http://www.w3.org/Graphics/SVG/1.1/DTD/svg11.dtd">
<!-- Generated by graphviz version 2.40.1 (20161225.0304)
 -->
<!-- Title: internal::SubfaceCase&lt; dim &gt; Pages: 1 -->
<svg width="151pt" height="102pt"
 viewBox="0.00 0.00 151.29 102.00" xmlns="http://www.w3.org/2000/svg" xmlns:xlink="http://www.w3.org/1999/xlink">
<g id="graph0" class="graph" transform="scale(1 1) rotate(0) translate(4 98)">
<title>internal::SubfaceCase&lt; dim &gt;</title>
<polygon fill="#ffffff" stroke="transparent" points="-4,4 -4,-98 147.29,-98 147.29,4 -4,4"/>
<!-- Node0 -->
<g id="node1" class="node">
<title>Node0</title>
<polygon fill="#bfbfbf" stroke="#000000" points="14.4482,-.5 14.4482,-28.5 128.8418,-28.5 128.8418,-.5 14.4482,-.5"/>
<text text-anchor="start" x="22.4482" y="-16.5" font-family="Helvetica,sans-Serif" font-size="10.00" fill="#000000">internal::SubfaceCase</text>
<text text-anchor="middle" x="71.645" y="-6.5" font-family="Helvetica,sans-Serif" font-size="10.00" fill="#000000">&lt; dim &gt;</text>
</g>
<!-- Node1 -->
<g id="node2" class="node">
<title>Node1</title>
<g id="a_node2"><a xlink:href="structinternal_1_1SubfacePossibilities.html" target="_top" xlink:title="internal::SubfacePossibilities\l\&lt; dim \&gt;">
<polygon fill="#ffffff" stroke="#000000" points="0,-65.5 0,-93.5 143.29,-93.5 143.29,-65.5 0,-65.5"/>
<text text-anchor="start" x="8" y="-81.5" font-family="Helvetica,sans-Serif" font-size="10.00" fill="#000000">internal::SubfacePossibilities</text>
<text text-anchor="middle" x="71.645" y="-71.5" font-family="Helvetica,sans-Serif" font-size="10.00" fill="#000000">&lt; dim &gt;</text>
</a>
</g>
</g>
<!-- Node1&#45;&gt;Node0 -->
<g id="edge1" class="edge">
<title>Node1&#45;&gt;Node0</title>
<path fill="none" stroke="#191970" d="M71.645,-55.1081C71.645,-46.1539 71.645,-36.3227 71.645,-28.5765"/>
<polygon fill="#191970" stroke="#191970" points="68.1451,-55.3959 71.645,-65.396 75.1451,-55.396 68.1451,-55.3959"/>
</g>
</g>
</svg>
