<?xml version="1.0" encoding="UTF-8" standalone="no"?>
<!DOCTYPE svg PUBLIC "-//W3C//DTD SVG 1.1//EN"
 "http://www.w3.org/Graphics/SVG/1.1/DTD/svg11.dtd">
<!-- Generated by graphviz version 2.40.1 (20161225.0304)
 -->
<!-- Title: BlockVectorBase&lt; VectorType &gt; Pages: 1 -->
<svg width="941pt" height="267pt"
 viewBox="0.00 0.00 941.08 267.22" xmlns="http://www.w3.org/2000/svg" xmlns:xlink="http://www.w3.org/1999/xlink">
<g id="graph0" class="graph" transform="scale(1 1) rotate(0) translate(4 263.2161)">
<title>BlockVectorBase&lt; VectorType &gt;</title>
<polygon fill="#ffffff" stroke="transparent" points="-4,4 -4,-263.2161 937.0801,-263.2161 937.0801,4 -4,4"/>
<!-- Node0 -->
<g id="node1" class="node">
<title>Node0</title>
<polygon fill="#bfbfbf" stroke="#000000" points="103.5762,-152.5 103.5762,-170.5 262.4521,-170.5 262.4521,-152.5 103.5762,-152.5"/>
<text text-anchor="middle" x="183.0142" y="-158.5" font-family="Helvetica,sans-Serif" font-size="10.00" fill="#000000">BlockVectorBase&lt; VectorType &gt;</text>
</g>
<!-- Node2 -->
<g id="node3" class="node">
<title>Node2</title>
<g id="a_node3"><a xlink:href="classBlockVector.html" target="_top" xlink:title="BlockVector\&lt; number \&gt;">
<polygon fill="#ffffff" stroke="#000000" points="813.1299,-150.5 813.1299,-168.5 933.0801,-168.5 933.0801,-150.5 813.1299,-150.5"/>
<text text-anchor="middle" x="873.105" y="-156.5" font-family="Helvetica,sans-Serif" font-size="10.00" fill="#000000">BlockVector&lt; number &gt;</text>
</a>
</g>
</g>
<!-- Node0&#45;&gt;Node2 -->
<g id="edge2" class="edge">
<title>Node0&#45;&gt;Node2</title>
<path fill="none" stroke="#191970" d="M213.2528,-174.5379C296.0046,-208.4169 532.7053,-293.2393 723.209,-243.5 779.7817,-228.7292 837.5937,-187.3369 861.5855,-168.7457"/>
<polygon fill="#191970" stroke="#191970" points="214.5155,-171.2726 203.9377,-170.6714 211.8319,-177.7377 214.5155,-171.2726"/>
</g>
<!-- Node3 -->
<g id="node4" class="node">
<title>Node3</title>
<g id="a_node4"><a xlink:href="classBlockVectorBase.html" target="_top" xlink:title="BlockVectorBase\&lt; Vector \&gt;">
<polygon fill="#ffffff" stroke="#000000" points="399.624,-152.5 399.624,-170.5 536.8154,-170.5 536.8154,-152.5 399.624,-152.5"/>
<text text-anchor="middle" x="468.2197" y="-158.5" font-family="Helvetica,sans-Serif" font-size="10.00" fill="#000000">BlockVectorBase&lt; Vector &gt;</text>
</a>
</g>
</g>
<!-- Node0&#45;&gt;Node3 -->
<g id="edge3" class="edge">
<title>Node0&#45;&gt;Node3</title>
<path fill="none" stroke="#ffa500" stroke-dasharray="5,2" d="M272.7084,-161.5C313.6328,-161.5 361.3313,-161.5 399.3698,-161.5"/>
<polygon fill="#ffa500" stroke="#ffa500" points="272.4598,-158.0001 262.4598,-161.5 272.4598,-165.0001 272.4598,-158.0001"/>
<text text-anchor="middle" x="331.0381" y="-163.5" font-family="Helvetica,sans-Serif" font-size="10.00" fill="#000000"> &lt; Vector &gt;</text>
</g>
<!-- Node8 -->
<g id="node9" class="node">
<title>Node8</title>
<g id="a_node9"><a xlink:href="classBlockVectorBase.html" target="_top" xlink:title="BlockVectorBase\&lt; Vector\l\&lt; Number \&gt; \&gt;">
<polygon fill="#ffffff" stroke="#000000" points="403.9331,-42.5 403.9331,-70.5 532.5063,-70.5 532.5063,-42.5 403.9331,-42.5"/>
<text text-anchor="start" x="411.9331" y="-58.5" font-family="Helvetica,sans-Serif" font-size="10.00" fill="#000000">BlockVectorBase&lt; Vector</text>
<text text-anchor="middle" x="468.2197" y="-48.5" font-family="Helvetica,sans-Serif" font-size="10.00" fill="#000000">&lt; Number &gt; &gt;</text>
</a>
</g>
</g>
<!-- Node0&#45;&gt;Node8 -->
<g id="edge8" class="edge">
<title>Node0&#45;&gt;Node8</title>
<path fill="none" stroke="#ffa500" stroke-dasharray="5,2" d="M217.2159,-148.9084C270.7228,-129.2096 373.8825,-91.2308 429.8482,-70.6267"/>
<polygon fill="#ffa500" stroke="#ffa500" points="216.0004,-145.6262 207.8254,-152.3656 218.4188,-152.1952 216.0004,-145.6262"/>
<text text-anchor="middle" x="331.0381" y="-127.5" font-family="Helvetica,sans-Serif" font-size="10.00" fill="#000000"> &lt; Vector&lt; Number &gt; &gt;</text>
</g>
<!-- Node1 -->
<g id="node2" class="node">
<title>Node1</title>
<g id="a_node2"><a xlink:href="classSubscriptor.html" target="_top" xlink:title="Subscriptor">
<polygon fill="#ffffff" stroke="#000000" points="0,-152.5 0,-170.5 66.5762,-170.5 66.5762,-152.5 0,-152.5"/>
<text text-anchor="middle" x="33.2881" y="-158.5" font-family="Helvetica,sans-Serif" font-size="10.00" fill="#000000">Subscriptor</text>
</a>
</g>
</g>
<!-- Node1&#45;&gt;Node0 -->
<g id="edge1" class="edge">
<title>Node1&#45;&gt;Node0</title>
<path fill="none" stroke="#191970" d="M77.0547,-161.5C85.3744,-161.5 94.3173,-161.5 103.3537,-161.5"/>
<polygon fill="#191970" stroke="#191970" points="76.8896,-158.0001 66.8895,-161.5 76.8895,-165.0001 76.8896,-158.0001"/>
</g>
<!-- Node4 -->
<g id="node5" class="node">
<title>Node4</title>
<g id="a_node5"><a xlink:href="classPETScWrappers_1_1BlockVector.html" target="_top" xlink:title="PETScWrappers::BlockVector">
<polygon fill="#ffffff" stroke="#000000" points="574.1865,-215.5 574.1865,-233.5 722.8379,-233.5 722.8379,-215.5 574.1865,-215.5"/>
<text text-anchor="middle" x="648.5122" y="-221.5" font-family="Helvetica,sans-Serif" font-size="10.00" fill="#000000">PETScWrappers::BlockVector</text>
</a>
</g>
</g>
<!-- Node3&#45;&gt;Node4 -->
<g id="edge4" class="edge">
<title>Node3&#45;&gt;Node4</title>
<path fill="none" stroke="#191970" d="M497.0474,-174.8529C518.0341,-184.2419 547.3047,-196.6574 573.8154,-205.5 584.8589,-209.1835 597.0233,-212.5578 608.2712,-215.4075"/>
<polygon fill="#191970" stroke="#191970" points="498.2974,-171.577 487.7435,-170.6461 495.4133,-177.9553 498.2974,-171.577"/>
</g>
<!-- Node5 -->
<g id="node6" class="node">
<title>Node5</title>
<g id="a_node6"><a xlink:href="classPETScWrappers_1_1MPI_1_1BlockVector.html" target="_top" xlink:title="PETScWrappers::MPI\l::BlockVector">
<polygon fill="#ffffff" stroke="#000000" points="591.7012,-168.5 591.7012,-196.5 705.3232,-196.5 705.3232,-168.5 591.7012,-168.5"/>
<text text-anchor="start" x="599.7012" y="-184.5" font-family="Helvetica,sans-Serif" font-size="10.00" fill="#000000">PETScWrappers::MPI</text>
<text text-anchor="middle" x="648.5122" y="-174.5" font-family="Helvetica,sans-Serif" font-size="10.00" fill="#000000">::BlockVector</text>
</a>
</g>
</g>
<!-- Node3&#45;&gt;Node5 -->
<g id="edge5" class="edge">
<title>Node3&#45;&gt;Node5</title>
<path fill="none" stroke="#191970" d="M547.1341,-170.6917C562.0499,-172.4291 577.3823,-174.215 591.4636,-175.8551"/>
<polygon fill="#191970" stroke="#191970" points="547.2327,-167.1796 536.8949,-169.4991 546.4228,-174.1326 547.2327,-167.1796"/>
</g>
<!-- Node6 -->
<g id="node7" class="node">
<title>Node6</title>
<g id="a_node7"><a xlink:href="classTrilinosWrappers_1_1BlockVector.html" target="_top" xlink:title="TrilinosWrappers::BlockVector">
<polygon fill="#ffffff" stroke="#000000" points="573.8154,-131.5 573.8154,-149.5 723.209,-149.5 723.209,-131.5 573.8154,-131.5"/>
<text text-anchor="middle" x="648.5122" y="-137.5" font-family="Helvetica,sans-Serif" font-size="10.00" fill="#000000">TrilinosWrappers::BlockVector</text>
</a>
</g>
</g>
<!-- Node3&#45;&gt;Node6 -->
<g id="edge6" class="edge">
<title>Node3&#45;&gt;Node6</title>
<path fill="none" stroke="#191970" d="M546.8751,-152.3384C555.7888,-151.3002 564.8549,-150.2442 573.717,-149.2119"/>
<polygon fill="#191970" stroke="#191970" points="546.4228,-148.8674 536.8949,-153.5009 547.2327,-155.8204 546.4228,-148.8674"/>
</g>
<!-- Node7 -->
<g id="node8" class="node">
<title>Node7</title>
<g id="a_node8"><a xlink:href="classTrilinosWrappers_1_1MPI_1_1BlockVector.html" target="_top" xlink:title="TrilinosWrappers::MPI\l::BlockVector">
<polygon fill="#ffffff" stroke="#000000" points="591.3301,-84.5 591.3301,-112.5 705.6943,-112.5 705.6943,-84.5 591.3301,-84.5"/>
<text text-anchor="start" x="599.3301" y="-100.5" font-family="Helvetica,sans-Serif" font-size="10.00" fill="#000000">TrilinosWrappers::MPI</text>
<text text-anchor="middle" x="648.5122" y="-90.5" font-family="Helvetica,sans-Serif" font-size="10.00" fill="#000000">::BlockVector</text>
</a>
</g>
</g>
<!-- Node3&#45;&gt;Node7 -->
<g id="edge7" class="edge">
<title>Node3&#45;&gt;Node7</title>
<path fill="none" stroke="#191970" d="M500.0653,-148.8338C520.9216,-140.6882 548.8426,-130.065 573.8154,-121.5 582.6717,-118.4626 592.1803,-115.3916 601.3464,-112.5259"/>
<polygon fill="#191970" stroke="#191970" points="498.757,-145.5873 490.7275,-152.4995 501.3149,-152.1032 498.757,-145.5873"/>
</g>
<!-- Node9 -->
<g id="node10" class="node">
<title>Node9</title>
<g id="a_node10"><a xlink:href="classBlockVector.html" target="_top" xlink:title="BlockVector\&lt; Number \&gt;">
<polygon fill="#ffffff" stroke="#000000" points="587.707,-47.5 587.707,-65.5 709.3174,-65.5 709.3174,-47.5 587.707,-47.5"/>
<text text-anchor="middle" x="648.5122" y="-53.5" font-family="Helvetica,sans-Serif" font-size="10.00" fill="#000000">BlockVector&lt; Number &gt;</text>
</a>
</g>
</g>
<!-- Node8&#45;&gt;Node9 -->
<g id="edge9" class="edge">
<title>Node8&#45;&gt;Node9</title>
<path fill="none" stroke="#191970" d="M542.75,-56.5C557.655,-56.5 573.1474,-56.5 587.5299,-56.5"/>
<polygon fill="#191970" stroke="#191970" points="542.5459,-53.0001 532.5459,-56.5 542.5458,-60.0001 542.5459,-53.0001"/>
</g>
<!-- Node10 -->
<g id="node11" class="node">
<title>Node10</title>
<g id="a_node11"><a xlink:href="classLinearAlgebra_1_1distributed_1_1BlockVector.html" target="_top" xlink:title="LinearAlgebra::distributed\l::BlockVector\&lt; Number \&gt;">
<polygon fill="#ffffff" stroke="#000000" points="583.5322,-.5 583.5322,-28.5 713.4922,-28.5 713.4922,-.5 583.5322,-.5"/>
<text text-anchor="start" x="591.5322" y="-16.5" font-family="Helvetica,sans-Serif" font-size="10.00" fill="#000000">LinearAlgebra::distributed</text>
<text text-anchor="middle" x="648.5122" y="-6.5" font-family="Helvetica,sans-Serif" font-size="10.00" fill="#000000">::BlockVector&lt; Number &gt;</text>
</a>
</g>
</g>
<!-- Node8&#45;&gt;Node10 -->
<g id="edge11" class="edge">
<title>Node8&#45;&gt;Node10</title>
<path fill="none" stroke="#191970" d="M538.5891,-40.1071C555.0089,-36.282 572.3495,-32.2425 588.2836,-28.5306"/>
<polygon fill="#191970" stroke="#191970" points="537.4503,-36.7786 528.5052,-42.4562 539.0385,-43.5961 537.4503,-36.7786"/>
</g>
<!-- Node9&#45;&gt;Node2 -->
<g id="edge10" class="edge">
<title>Node9&#45;&gt;Node2</title>
<path fill="none" stroke="#ffa500" stroke-dasharray="5,2" d="M704.8206,-68.2682C711.1039,-70.1108 717.3468,-72.1847 723.209,-74.5 776.9109,-95.7102 834.8375,-133.2513 860.0959,-150.4439"/>
<polygon fill="#ffa500" stroke="#ffa500" points="705.5323,-64.8341 694.9625,-65.5615 703.6789,-71.5843 705.5323,-64.8341"/>
<text text-anchor="middle" x="768.1694" y="-112.5" font-family="Helvetica,sans-Serif" font-size="10.00" fill="#000000"> &lt; number &gt;</text>
</g>
</g>
</svg>
