<?xml version="1.0" encoding="UTF-8" standalone="no"?>
<!DOCTYPE svg PUBLIC "-//W3C//DTD SVG 1.1//EN"
 "http://www.w3.org/Graphics/SVG/1.1/DTD/svg11.dtd">
<!-- Generated by graphviz version 2.40.1 (20161225.0304)
 -->
<!-- Title: FE_Q_DG0&lt; dim, spacedim &gt; Pages: 1 -->
<svg width="1286pt" height="99pt"
 viewBox="0.00 0.00 1285.73 99.00" xmlns="http://www.w3.org/2000/svg" xmlns:xlink="http://www.w3.org/1999/xlink">
<g id="graph0" class="graph" transform="scale(1 1) rotate(0) translate(4 95)">
<title>FE_Q_DG0&lt; dim, spacedim &gt;</title>
<polygon fill="#ffffff" stroke="transparent" points="-4,4 -4,-95 1281.7256,-95 1281.7256,4 -4,4"/>
<!-- Node0 -->
<g id="node1" class="node">
<title>Node0</title>
<polygon fill="#bfbfbf" stroke="#000000" points="1127.7803,-28.5 1127.7803,-46.5 1277.7256,-46.5 1277.7256,-28.5 1127.7803,-28.5"/>
<text text-anchor="middle" x="1202.7529" y="-34.5" font-family="Helvetica,sans-Serif" font-size="10.00" fill="#000000">FE_Q_DG0&lt; dim, spacedim &gt;</text>
</g>
<!-- Node1 -->
<g id="node2" class="node">
<title>Node1</title>
<g id="a_node2"><a xlink:href="classFE__Q__Base.html" target="_top" xlink:title="FE_Q_Base\&lt; TensorProduct\lPolynomialsConst\&lt; dim\l \&gt;, dim, spacedim \&gt;">
<polygon fill="#ffffff" stroke="#000000" points="947.3877,-18.5 947.3877,-56.5 1090.7803,-56.5 1090.7803,-18.5 947.3877,-18.5"/>
<text text-anchor="start" x="955.3877" y="-44.5" font-family="Helvetica,sans-Serif" font-size="10.00" fill="#000000">FE_Q_Base&lt; TensorProduct</text>
<text text-anchor="start" x="955.3877" y="-34.5" font-family="Helvetica,sans-Serif" font-size="10.00" fill="#000000">PolynomialsConst&lt; dim</text>
<text text-anchor="middle" x="1019.084" y="-24.5" font-family="Helvetica,sans-Serif" font-size="10.00" fill="#000000"> &gt;, dim, spacedim &gt;</text>
</a>
</g>
</g>
<!-- Node1&#45;&gt;Node0 -->
<g id="edge1" class="edge">
<title>Node1&#45;&gt;Node0</title>
<path fill="none" stroke="#191970" d="M1101.1668,-37.5C1109.9904,-37.5 1118.9354,-37.5 1127.671,-37.5"/>
<polygon fill="#191970" stroke="#191970" points="1100.8843,-34.0001 1090.8843,-37.5 1100.8843,-41.0001 1100.8843,-34.0001"/>
</g>
<!-- Node2 -->
<g id="node3" class="node">
<title>Node2</title>
<g id="a_node3"><a xlink:href="classFE__Poly.html" target="_top" xlink:title="FE_Poly\&lt; TensorProductPolynomials\lConst\&lt; dim \&gt;, dim, spacedim \&gt;">
<polygon fill="#ffffff" stroke="#000000" points="592.6484,-47.5 592.6484,-75.5 773.2725,-75.5 773.2725,-47.5 592.6484,-47.5"/>
<text text-anchor="start" x="600.6484" y="-63.5" font-family="Helvetica,sans-Serif" font-size="10.00" fill="#000000">FE_Poly&lt; TensorProductPolynomials</text>
<text text-anchor="middle" x="682.9604" y="-53.5" font-family="Helvetica,sans-Serif" font-size="10.00" fill="#000000">Const&lt; dim &gt;, dim, spacedim &gt;</text>
</a>
</g>
</g>
<!-- Node2&#45;&gt;Node1 -->
<g id="edge2" class="edge">
<title>Node2&#45;&gt;Node1</title>
<path fill="none" stroke="#191970" d="M783.3772,-54.7782C828.0847,-51.7325 881.3756,-48.0295 929.3877,-44.5 935.1514,-44.0763 941.1227,-43.6288 947.1213,-43.1734"/>
<polygon fill="#191970" stroke="#191970" points="783.1263,-51.2871 773.3868,-55.4576 783.6013,-58.2709 783.1263,-51.2871"/>
</g>
<!-- Node3 -->
<g id="node4" class="node">
<title>Node3</title>
<g id="a_node4"><a xlink:href="classFiniteElement.html" target="_top" xlink:title="FiniteElement\&lt; dim,\l spacedim \&gt;">
<polygon fill="#ffffff" stroke="#000000" points="141.1006,-46.5 141.1006,-74.5 245.748,-74.5 245.748,-46.5 141.1006,-46.5"/>
<text text-anchor="start" x="149.1006" y="-62.5" font-family="Helvetica,sans-Serif" font-size="10.00" fill="#000000">FiniteElement&lt; dim,</text>
<text text-anchor="middle" x="193.4243" y="-52.5" font-family="Helvetica,sans-Serif" font-size="10.00" fill="#000000"> spacedim &gt;</text>
</a>
</g>
</g>
<!-- Node3&#45;&gt;Node2 -->
<g id="edge3" class="edge">
<title>Node3&#45;&gt;Node2</title>
<path fill="none" stroke="#191970" d="M256.0798,-65.1264C258.6696,-65.2633 261.2337,-65.3889 263.748,-65.5 401.7977,-71.6017 436.536,-72.9583 574.6484,-68.5 580.4868,-68.3115 586.4995,-68.0661 592.5586,-67.7802"/>
<polygon fill="#191970" stroke="#191970" points="256.1999,-61.6276 246.0156,-64.5484 255.7985,-68.6161 256.1999,-61.6276"/>
</g>
<!-- Node6 -->
<g id="node7" class="node">
<title>Node6</title>
<g id="a_node7"><a xlink:href="classFE__Poly.html" target="_top" xlink:title="FE_Poly\&lt; PolynomialType,\l dim, spacedim \&gt;">
<polygon fill="#ffffff" stroke="#000000" points="282.748,-25.5 282.748,-53.5 418.5332,-53.5 418.5332,-25.5 282.748,-25.5"/>
<text text-anchor="start" x="290.748" y="-41.5" font-family="Helvetica,sans-Serif" font-size="10.00" fill="#000000">FE_Poly&lt; PolynomialType,</text>
<text text-anchor="middle" x="350.6406" y="-31.5" font-family="Helvetica,sans-Serif" font-size="10.00" fill="#000000"> dim, spacedim &gt;</text>
</a>
</g>
</g>
<!-- Node3&#45;&gt;Node6 -->
<g id="edge7" class="edge">
<title>Node3&#45;&gt;Node6</title>
<path fill="none" stroke="#191970" d="M255.9073,-52.1539C264.6713,-50.9833 273.7148,-49.7753 282.5762,-48.5916"/>
<polygon fill="#191970" stroke="#191970" points="255.2236,-48.7141 245.7751,-53.5073 256.1505,-55.6524 255.2236,-48.7141"/>
</g>
<!-- Node4 -->
<g id="node5" class="node">
<title>Node4</title>
<g id="a_node5"><a xlink:href="classSubscriptor.html" target="_top" xlink:title="Subscriptor">
<polygon fill="#ffffff" stroke="#000000" points="18.7622,-72.5 18.7622,-90.5 85.3384,-90.5 85.3384,-72.5 18.7622,-72.5"/>
<text text-anchor="middle" x="52.0503" y="-78.5" font-family="Helvetica,sans-Serif" font-size="10.00" fill="#000000">Subscriptor</text>
</a>
</g>
</g>
<!-- Node4&#45;&gt;Node3 -->
<g id="edge4" class="edge">
<title>Node4&#45;&gt;Node3</title>
<path fill="none" stroke="#191970" d="M95.6606,-75.022C110.0246,-72.8884 126.1458,-70.4937 141.091,-68.2737"/>
<polygon fill="#191970" stroke="#191970" points="94.9311,-71.5919 85.554,-76.5233 95.9597,-78.5159 94.9311,-71.5919"/>
</g>
<!-- Node5 -->
<g id="node6" class="node">
<title>Node5</title>
<g id="a_node6"><a xlink:href="classFiniteElementData.html" target="_top" xlink:title="FiniteElementData\&lt;\l dim \&gt;">
<polygon fill="#ffffff" stroke="#000000" points="0,-25.5 0,-53.5 104.1006,-53.5 104.1006,-25.5 0,-25.5"/>
<text text-anchor="start" x="8" y="-41.5" font-family="Helvetica,sans-Serif" font-size="10.00" fill="#000000">FiniteElementData&lt;</text>
<text text-anchor="middle" x="52.0503" y="-31.5" font-family="Helvetica,sans-Serif" font-size="10.00" fill="#000000"> dim &gt;</text>
</a>
</g>
</g>
<!-- Node5&#45;&gt;Node3 -->
<g id="edge5" class="edge">
<title>Node5&#45;&gt;Node3</title>
<path fill="none" stroke="#191970" d="M114.2377,-48.7374C123.1434,-50.0603 132.2318,-51.4103 140.9263,-52.7018"/>
<polygon fill="#191970" stroke="#191970" points="114.6968,-45.2673 104.2911,-47.26 113.6683,-52.1914 114.6968,-45.2673"/>
</g>
<!-- Node6&#45;&gt;Node2 -->
<g id="edge6" class="edge">
<title>Node6&#45;&gt;Node2</title>
<path fill="none" stroke="#ffa500" stroke-dasharray="5,2" d="M428.9834,-41.1261C472.0279,-42.4021 526.3384,-44.6365 574.6484,-48.5 580.5009,-48.968 586.5242,-49.5134 592.5912,-50.1104"/>
<polygon fill="#ffa500" stroke="#ffa500" points="428.9528,-37.6239 418.857,-40.8374 428.7532,-44.6211 428.9528,-37.6239"/>
<text text-anchor="start" x="436.5332" y="-60.5" font-family="Helvetica,sans-Serif" font-size="10.00" fill="#000000"> &lt; TensorProductPolynomials</text>
<text text-anchor="middle" x="505.5908" y="-50.5" font-family="Helvetica,sans-Serif" font-size="10.00" fill="#000000">Const&lt; dim &gt;, dim, spacedim &gt;</text>
</g>
<!-- Node7 -->
<g id="node8" class="node">
<title>Node7</title>
<g id="a_node8"><a xlink:href="classFE__Q__Base.html" target="_top" xlink:title="FE_Q_Base\&lt; PolynomialType,\l dim, spacedim \&gt;">
<polygon fill="#ffffff" stroke="#000000" points="606.728,-.5 606.728,-28.5 759.1929,-28.5 759.1929,-.5 606.728,-.5"/>
<text text-anchor="start" x="614.728" y="-16.5" font-family="Helvetica,sans-Serif" font-size="10.00" fill="#000000">FE_Q_Base&lt; PolynomialType,</text>
<text text-anchor="middle" x="682.9604" y="-6.5" font-family="Helvetica,sans-Serif" font-size="10.00" fill="#000000"> dim, spacedim &gt;</text>
</a>
</g>
</g>
<!-- Node6&#45;&gt;Node7 -->
<g id="edge9" class="edge">
<title>Node6&#45;&gt;Node7</title>
<path fill="none" stroke="#191970" d="M428.8417,-33.617C482.49,-29.5811 553.3268,-24.2522 606.5803,-20.246"/>
<polygon fill="#191970" stroke="#191970" points="428.4016,-30.1402 418.6924,-34.3805 428.9268,-37.1204 428.4016,-30.1402"/>
</g>
<!-- Node7&#45;&gt;Node1 -->
<g id="edge8" class="edge">
<title>Node7&#45;&gt;Node1</title>
<path fill="none" stroke="#ffa500" stroke-dasharray="5,2" d="M769.6184,-15.8291C816.9154,-17.1046 876.4593,-19.6038 929.3877,-24.5 935.1849,-25.0363 941.18,-25.6891 947.1948,-26.4136"/>
<polygon fill="#ffa500" stroke="#ffa500" points="769.4987,-12.325 759.4124,-15.5676 769.3194,-19.3227 769.4987,-12.325"/>
<text text-anchor="start" x="791.2725" y="-36.5" font-family="Helvetica,sans-Serif" font-size="10.00" fill="#000000"> &lt; TensorProductPolynomials</text>
<text text-anchor="middle" x="860.3301" y="-26.5" font-family="Helvetica,sans-Serif" font-size="10.00" fill="#000000">Const&lt; dim &gt;, dim, spacedim &gt;</text>
</g>
</g>
</svg>
