<?xml version="1.0" encoding="UTF-8" standalone="no"?>
<!DOCTYPE svg PUBLIC "-//W3C//DTD SVG 1.1//EN"
 "http://www.w3.org/Graphics/SVG/1.1/DTD/svg11.dtd">
<!-- Generated by graphviz version 2.40.1 (20161225.0304)
 -->
<!-- Title: FE_PolyTensor&lt; PolynomialType, dim, spacedim &gt; Pages: 1 -->
<svg width="1290pt" height="392pt"
 viewBox="0.00 0.00 1289.92 392.00" xmlns="http://www.w3.org/2000/svg" xmlns:xlink="http://www.w3.org/1999/xlink">
<g id="graph0" class="graph" transform="scale(1 1) rotate(0) translate(4 388)">
<title>FE_PolyTensor&lt; PolynomialType, dim, spacedim &gt;</title>
<polygon fill="#ffffff" stroke="transparent" points="-4,4 -4,-388 1285.9248,-388 1285.9248,4 -4,4"/>
<!-- Node0 -->
<g id="node1" class="node">
<title>Node0</title>
<polygon fill="#bfbfbf" stroke="#000000" points="282.748,-164.5 282.748,-192.5 424.085,-192.5 424.085,-164.5 282.748,-164.5"/>
<text text-anchor="start" x="290.748" y="-180.5" font-family="Helvetica,sans-Serif" font-size="10.00" fill="#000000">FE_PolyTensor&lt; Polynomial</text>
<text text-anchor="middle" x="353.4165" y="-170.5" font-family="Helvetica,sans-Serif" font-size="10.00" fill="#000000">Type, dim, spacedim &gt;</text>
</g>
<!-- Node4 -->
<g id="node5" class="node">
<title>Node4</title>
<g id="a_node5"><a xlink:href="classFE__DGVector.html" target="_top" xlink:title="FE_DGVector\&lt; PolynomialType,\l dim, spacedim \&gt;">
<polygon fill="#ffffff" stroke="#000000" points="595.688,-284.5 595.688,-312.5 755.3745,-312.5 755.3745,-284.5 595.688,-284.5"/>
<text text-anchor="start" x="603.688" y="-300.5" font-family="Helvetica,sans-Serif" font-size="10.00" fill="#000000">FE_DGVector&lt; PolynomialType,</text>
<text text-anchor="middle" x="675.5313" y="-290.5" font-family="Helvetica,sans-Serif" font-size="10.00" fill="#000000"> dim, spacedim &gt;</text>
</a>
</g>
</g>
<!-- Node0&#45;&gt;Node4 -->
<g id="edge4" class="edge">
<title>Node0&#45;&gt;Node4</title>
<path fill="none" stroke="#191970" d="M369.0222,-201.1202C384.8314,-222.085 411.2982,-252.2604 442.085,-267.5 489.5354,-290.9881 548.7168,-298.6456 595.6184,-300.4781"/>
<polygon fill="#191970" stroke="#191970" points="371.6448,-198.777 362.9178,-192.7696 365.9937,-202.9081 371.6448,-198.777"/>
</g>
<!-- Node11 -->
<g id="node12" class="node">
<title>Node11</title>
<g id="a_node12"><a xlink:href="classFE__PolyTensor.html" target="_top" xlink:title="FE_PolyTensor\&lt; Polynomials\lRaviartThomas\&lt; dim \&gt;, dim,\l spacedim \&gt;">
<polygon fill="#ffffff" stroke="#000000" points="602.3628,-345.5 602.3628,-383.5 748.6997,-383.5 748.6997,-345.5 602.3628,-345.5"/>
<text text-anchor="start" x="610.3628" y="-371.5" font-family="Helvetica,sans-Serif" font-size="10.00" fill="#000000">FE_PolyTensor&lt; Polynomials</text>
<text text-anchor="start" x="610.3628" y="-361.5" font-family="Helvetica,sans-Serif" font-size="10.00" fill="#000000">RaviartThomas&lt; dim &gt;, dim,</text>
<text text-anchor="middle" x="675.5313" y="-351.5" font-family="Helvetica,sans-Serif" font-size="10.00" fill="#000000"> spacedim &gt;</text>
</a>
</g>
</g>
<!-- Node0&#45;&gt;Node11 -->
<g id="edge11" class="edge">
<title>Node0&#45;&gt;Node11</title>
<path fill="none" stroke="#ffa500" stroke-dasharray="5,2" d="M364.7136,-201.705C379.0301,-228.694 406.2247,-272.7046 442.085,-297.5 489.6857,-330.4133 553.3472,-347.2931 602.1658,-355.8711"/>
<polygon fill="#ffa500" stroke="#ffa500" points="367.7162,-199.8905 360.0295,-192.599 361.4914,-203.0925 367.7162,-199.8905"/>
<text text-anchor="start" x="442.085" y="-362.5" font-family="Helvetica,sans-Serif" font-size="10.00" fill="#000000"> &lt; PolynomialsRaviartThomas</text>
<text text-anchor="middle" x="508.6377" y="-352.5" font-family="Helvetica,sans-Serif" font-size="10.00" fill="#000000">&lt; dim &gt;, dim, spacedim &gt;</text>
</g>
<!-- Node12 -->
<g id="node13" class="node">
<title>Node12</title>
<g id="a_node13"><a xlink:href="classFE__PolyTensor.html" target="_top" xlink:title="FE_PolyTensor\&lt; Polynomials\lNedelec\&lt; dim \&gt;, dim \&gt;">
<polygon fill="#ffffff" stroke="#000000" points="602.3628,-141.5 602.3628,-169.5 748.6997,-169.5 748.6997,-141.5 602.3628,-141.5"/>
<text text-anchor="start" x="610.3628" y="-157.5" font-family="Helvetica,sans-Serif" font-size="10.00" fill="#000000">FE_PolyTensor&lt; Polynomials</text>
<text text-anchor="middle" x="675.5313" y="-147.5" font-family="Helvetica,sans-Serif" font-size="10.00" fill="#000000">Nedelec&lt; dim &gt;, dim &gt;</text>
</a>
</g>
</g>
<!-- Node0&#45;&gt;Node12 -->
<g id="edge13" class="edge">
<title>Node0&#45;&gt;Node12</title>
<path fill="none" stroke="#ffa500" stroke-dasharray="5,2" d="M421.1273,-162.5858C428.1737,-161.3516 435.2543,-160.2829 442.085,-159.5 495.4443,-153.3845 556.1056,-152.528 602.216,-153.1248"/>
<polygon fill="#ffa500" stroke="#ffa500" points="420.0507,-159.226 410.861,-164.4985 421.3329,-166.1076 420.0507,-159.226"/>
<text text-anchor="start" x="457.6392" y="-171.5" font-family="Helvetica,sans-Serif" font-size="10.00" fill="#000000"> &lt; PolynomialsNedelec</text>
<text text-anchor="middle" x="508.6377" y="-161.5" font-family="Helvetica,sans-Serif" font-size="10.00" fill="#000000">&lt; dim &gt;, dim &gt;</text>
</g>
<!-- Node14 -->
<g id="node15" class="node">
<title>Node14</title>
<g id="a_node15"><a xlink:href="classFE__PolyTensor.html" target="_top" xlink:title="FE_PolyTensor\&lt; Polynomials\lRaviartThomas\&lt; dim \&gt;, dim \&gt;">
<polygon fill="#ffffff" stroke="#000000" points="601.8135,-94.5 601.8135,-122.5 749.249,-122.5 749.249,-94.5 601.8135,-94.5"/>
<text text-anchor="start" x="609.8135" y="-110.5" font-family="Helvetica,sans-Serif" font-size="10.00" fill="#000000">FE_PolyTensor&lt; Polynomials</text>
<text text-anchor="middle" x="675.5313" y="-100.5" font-family="Helvetica,sans-Serif" font-size="10.00" fill="#000000">RaviartThomas&lt; dim &gt;, dim &gt;</text>
</a>
</g>
</g>
<!-- Node0&#45;&gt;Node14 -->
<g id="edge15" class="edge">
<title>Node0&#45;&gt;Node14</title>
<path fill="none" stroke="#ffa500" stroke-dasharray="5,2" d="M381.8408,-158.7982C398.5983,-148.231 420.6597,-136.0639 442.085,-129.5 493.9293,-113.6168 555.0501,-108.5788 601.7443,-107.3991"/>
<polygon fill="#ffa500" stroke="#ffa500" points="379.5994,-156.0803 373.1145,-164.4586 383.4088,-161.953 379.5994,-156.0803"/>
<text text-anchor="start" x="442.085" y="-141.5" font-family="Helvetica,sans-Serif" font-size="10.00" fill="#000000"> &lt; PolynomialsRaviartThomas</text>
<text text-anchor="middle" x="508.6377" y="-131.5" font-family="Helvetica,sans-Serif" font-size="10.00" fill="#000000">&lt; dim &gt;, dim &gt;</text>
</g>
<!-- Node17 -->
<g id="node18" class="node">
<title>Node17</title>
<g id="a_node18"><a xlink:href="classFE__PolyTensor.html" target="_top" xlink:title="FE_PolyTensor\&lt; Polynomials\lBDM\&lt; dim \&gt;, dim, spacedim \&gt;">
<polygon fill="#ffffff" stroke="#000000" points="600.4243,-235.5 600.4243,-263.5 750.6382,-263.5 750.6382,-235.5 600.4243,-235.5"/>
<text text-anchor="start" x="608.4243" y="-251.5" font-family="Helvetica,sans-Serif" font-size="10.00" fill="#000000">FE_PolyTensor&lt; Polynomials</text>
<text text-anchor="middle" x="675.5313" y="-241.5" font-family="Helvetica,sans-Serif" font-size="10.00" fill="#000000">BDM&lt; dim &gt;, dim, spacedim &gt;</text>
</a>
</g>
</g>
<!-- Node0&#45;&gt;Node17 -->
<g id="edge18" class="edge">
<title>Node0&#45;&gt;Node17</title>
<path fill="none" stroke="#ffa500" stroke-dasharray="5,2" d="M387.6257,-197.2996C403.7107,-205.3524 423.4209,-214.1237 442.085,-219.5 493.7192,-234.3735 553.9042,-241.8825 600.2312,-245.6685"/>
<polygon fill="#ffa500" stroke="#ffa500" points="389.1041,-194.1244 378.6092,-192.6723 385.908,-200.3521 389.1041,-194.1244"/>
<text text-anchor="start" x="452.5073" y="-255.5" font-family="Helvetica,sans-Serif" font-size="10.00" fill="#000000"> &lt; PolynomialsBDM&lt; dim</text>
<text text-anchor="middle" x="508.6377" y="-245.5" font-family="Helvetica,sans-Serif" font-size="10.00" fill="#000000"> &gt;, dim, spacedim &gt;</text>
</g>
<!-- Node18 -->
<g id="node19" class="node">
<title>Node18</title>
<g id="a_node19"><a xlink:href="classFE__PolyTensor.html" target="_top" xlink:title="FE_PolyTensor\&lt; Polynomials\lBDM\&lt; dim \&gt;, dim \&gt;">
<polygon fill="#ffffff" stroke="#000000" points="602.3628,-47.5 602.3628,-75.5 748.6997,-75.5 748.6997,-47.5 602.3628,-47.5"/>
<text text-anchor="start" x="610.3628" y="-63.5" font-family="Helvetica,sans-Serif" font-size="10.00" fill="#000000">FE_PolyTensor&lt; Polynomials</text>
<text text-anchor="middle" x="675.5313" y="-53.5" font-family="Helvetica,sans-Serif" font-size="10.00" fill="#000000">BDM&lt; dim &gt;, dim &gt;</text>
</a>
</g>
</g>
<!-- Node0&#45;&gt;Node18 -->
<g id="edge20" class="edge">
<title>Node0&#45;&gt;Node18</title>
<path fill="none" stroke="#ffa500" stroke-dasharray="5,2" d="M367.9626,-155.6869C383.4254,-133.5969 410.0442,-101.209 442.085,-85.5 491.7454,-61.1524 554.3814,-55.878 602.2677,-56.2951"/>
<polygon fill="#ffa500" stroke="#ffa500" points="364.9331,-153.9184 362.2216,-164.1604 370.7283,-157.8448 364.9331,-153.9184"/>
<text text-anchor="start" x="452.5073" y="-97.5" font-family="Helvetica,sans-Serif" font-size="10.00" fill="#000000"> &lt; PolynomialsBDM&lt; dim</text>
<text text-anchor="middle" x="508.6377" y="-87.5" font-family="Helvetica,sans-Serif" font-size="10.00" fill="#000000"> &gt;, dim &gt;</text>
</g>
<!-- Node20 -->
<g id="node21" class="node">
<title>Node20</title>
<g id="a_node21"><a xlink:href="classFE__PolyTensor.html" target="_top" xlink:title="FE_PolyTensor\&lt; Polynomials\lABF\&lt; dim \&gt;, dim \&gt;">
<polygon fill="#ffffff" stroke="#000000" points="602.3628,-.5 602.3628,-28.5 748.6997,-28.5 748.6997,-.5 602.3628,-.5"/>
<text text-anchor="start" x="610.3628" y="-16.5" font-family="Helvetica,sans-Serif" font-size="10.00" fill="#000000">FE_PolyTensor&lt; Polynomials</text>
<text text-anchor="middle" x="675.5313" y="-6.5" font-family="Helvetica,sans-Serif" font-size="10.00" fill="#000000">ABF&lt; dim &gt;, dim &gt;</text>
</a>
</g>
</g>
<!-- Node0&#45;&gt;Node20 -->
<g id="edge22" class="edge">
<title>Node0&#45;&gt;Node20</title>
<path fill="none" stroke="#ffa500" stroke-dasharray="5,2" d="M360.5103,-154.3604C371.7686,-120.8173 397.1845,-61.1267 442.085,-33.5 489.6179,-4.2536 553.2843,-.9058 602.1221,-4.0929"/>
<polygon fill="#ffa500" stroke="#ffa500" points="357.0574,-153.6676 357.3458,-164.2585 363.7249,-155.7993 357.0574,-153.6676"/>
<text text-anchor="start" x="453.894" y="-45.5" font-family="Helvetica,sans-Serif" font-size="10.00" fill="#000000"> &lt; PolynomialsABF&lt; dim</text>
<text text-anchor="middle" x="508.6377" y="-35.5" font-family="Helvetica,sans-Serif" font-size="10.00" fill="#000000"> &gt;, dim &gt;</text>
</g>
<!-- Node22 -->
<g id="node23" class="node">
<title>Node22</title>
<g id="a_node23"><a xlink:href="classFE__PolyTensor.html" target="_top" xlink:title="FE_PolyTensor\&lt; Polynomials\lNedelec\&lt; dim \&gt;, dim, spacedim \&gt;">
<polygon fill="#ffffff" stroke="#000000" points="593.1904,-188.5 593.1904,-216.5 757.8721,-216.5 757.8721,-188.5 593.1904,-188.5"/>
<text text-anchor="start" x="601.1904" y="-204.5" font-family="Helvetica,sans-Serif" font-size="10.00" fill="#000000">FE_PolyTensor&lt; Polynomials</text>
<text text-anchor="middle" x="675.5313" y="-194.5" font-family="Helvetica,sans-Serif" font-size="10.00" fill="#000000">Nedelec&lt; dim &gt;, dim, spacedim &gt;</text>
</a>
</g>
</g>
<!-- Node0&#45;&gt;Node22 -->
<g id="edge24" class="edge">
<title>Node0&#45;&gt;Node22</title>
<path fill="none" stroke="#ffa500" stroke-dasharray="5,2" d="M434.2469,-184.5225C482.7404,-188.1356 544.2659,-192.7197 593.0509,-196.3546"/>
<polygon fill="#ffa500" stroke="#ffa500" points="434.3384,-181.0197 424.106,-183.7669 433.8182,-188.0003 434.3384,-181.0197"/>
<text text-anchor="start" x="452.6416" y="-207.5" font-family="Helvetica,sans-Serif" font-size="10.00" fill="#000000"> &lt; PolynomialsNedelec</text>
<text text-anchor="middle" x="508.6377" y="-197.5" font-family="Helvetica,sans-Serif" font-size="10.00" fill="#000000">&lt; dim &gt;, dim, spacedim &gt;</text>
</g>
<!-- Node1 -->
<g id="node2" class="node">
<title>Node1</title>
<g id="a_node2"><a xlink:href="classFiniteElement.html" target="_top" xlink:title="FiniteElement\&lt; dim,\l spacedim \&gt;">
<polygon fill="#ffffff" stroke="#000000" points="141.1006,-164.5 141.1006,-192.5 245.748,-192.5 245.748,-164.5 141.1006,-164.5"/>
<text text-anchor="start" x="149.1006" y="-180.5" font-family="Helvetica,sans-Serif" font-size="10.00" fill="#000000">FiniteElement&lt; dim,</text>
<text text-anchor="middle" x="193.4243" y="-170.5" font-family="Helvetica,sans-Serif" font-size="10.00" fill="#000000"> spacedim &gt;</text>
</a>
</g>
</g>
<!-- Node1&#45;&gt;Node0 -->
<g id="edge1" class="edge">
<title>Node1&#45;&gt;Node0</title>
<path fill="none" stroke="#191970" d="M255.9195,-178.5C264.6675,-178.5 273.7091,-178.5 282.5975,-178.5"/>
<polygon fill="#191970" stroke="#191970" points="255.8118,-175.0001 245.8117,-178.5 255.8117,-182.0001 255.8118,-175.0001"/>
</g>
<!-- Node2 -->
<g id="node3" class="node">
<title>Node2</title>
<g id="a_node3"><a xlink:href="classSubscriptor.html" target="_top" xlink:title="Subscriptor">
<polygon fill="#ffffff" stroke="#000000" points="18.7622,-190.5 18.7622,-208.5 85.3384,-208.5 85.3384,-190.5 18.7622,-190.5"/>
<text text-anchor="middle" x="52.0503" y="-196.5" font-family="Helvetica,sans-Serif" font-size="10.00" fill="#000000">Subscriptor</text>
</a>
</g>
</g>
<!-- Node2&#45;&gt;Node1 -->
<g id="edge2" class="edge">
<title>Node2&#45;&gt;Node1</title>
<path fill="none" stroke="#191970" d="M95.6606,-193.022C110.0246,-190.8884 126.1458,-188.4937 141.091,-186.2737"/>
<polygon fill="#191970" stroke="#191970" points="94.9311,-189.5919 85.554,-194.5233 95.9597,-196.5159 94.9311,-189.5919"/>
</g>
<!-- Node3 -->
<g id="node4" class="node">
<title>Node3</title>
<g id="a_node4"><a xlink:href="classFiniteElementData.html" target="_top" xlink:title="FiniteElementData\&lt;\l dim \&gt;">
<polygon fill="#ffffff" stroke="#000000" points="0,-143.5 0,-171.5 104.1006,-171.5 104.1006,-143.5 0,-143.5"/>
<text text-anchor="start" x="8" y="-159.5" font-family="Helvetica,sans-Serif" font-size="10.00" fill="#000000">FiniteElementData&lt;</text>
<text text-anchor="middle" x="52.0503" y="-149.5" font-family="Helvetica,sans-Serif" font-size="10.00" fill="#000000"> dim &gt;</text>
</a>
</g>
</g>
<!-- Node3&#45;&gt;Node1 -->
<g id="edge3" class="edge">
<title>Node3&#45;&gt;Node1</title>
<path fill="none" stroke="#191970" d="M114.2377,-166.7374C123.1434,-168.0603 132.2318,-169.4103 140.9263,-170.7018"/>
<polygon fill="#191970" stroke="#191970" points="114.6968,-163.2673 104.2911,-165.26 113.6683,-170.1914 114.6968,-163.2673"/>
</g>
<!-- Node5 -->
<g id="node6" class="node">
<title>Node5</title>
<g id="a_node6"><a xlink:href="classFE__DGVector.html" target="_top" xlink:title="FE_DGVector\&lt; Polynomials\lRaviartThomas\&lt; dim \&gt;,\l dim, spacedim \&gt;">
<polygon fill="#ffffff" stroke="#000000" points="939.2065,-337.5 939.2065,-375.5 1079.4302,-375.5 1079.4302,-337.5 939.2065,-337.5"/>
<text text-anchor="start" x="947.2065" y="-363.5" font-family="Helvetica,sans-Serif" font-size="10.00" fill="#000000">FE_DGVector&lt; Polynomials</text>
<text text-anchor="start" x="947.2065" y="-353.5" font-family="Helvetica,sans-Serif" font-size="10.00" fill="#000000">RaviartThomas&lt; dim &gt;,</text>
<text text-anchor="middle" x="1009.3184" y="-343.5" font-family="Helvetica,sans-Serif" font-size="10.00" fill="#000000"> dim, spacedim &gt;</text>
</a>
</g>
</g>
<!-- Node4&#45;&gt;Node5 -->
<g id="edge5" class="edge">
<title>Node4&#45;&gt;Node5</title>
<path fill="none" stroke="#ffa500" stroke-dasharray="5,2" d="M746.7826,-314.6995C756.5376,-316.7483 766.4385,-318.7403 775.8721,-320.5 791.7199,-323.4563 876.1807,-336.364 938.9827,-345.8822"/>
<polygon fill="#ffa500" stroke="#ffa500" points="747.2051,-311.2111 736.6953,-312.5513 745.7469,-318.0576 747.2051,-311.2111"/>
<text text-anchor="start" x="775.8721" y="-353.5" font-family="Helvetica,sans-Serif" font-size="10.00" fill="#000000"> &lt; PolynomialsRaviartThomas</text>
<text text-anchor="middle" x="842.4248" y="-343.5" font-family="Helvetica,sans-Serif" font-size="10.00" fill="#000000">&lt; dim &gt;, dim, spacedim &gt;</text>
</g>
<!-- Node7 -->
<g id="node8" class="node">
<title>Node7</title>
<g id="a_node8"><a xlink:href="classFE__DGVector.html" target="_top" xlink:title="FE_DGVector\&lt; Polynomials\lBDM\&lt; dim \&gt;, dim, spacedim \&gt;">
<polygon fill="#ffffff" stroke="#000000" points="934.2114,-277.5 934.2114,-305.5 1084.4253,-305.5 1084.4253,-277.5 934.2114,-277.5"/>
<text text-anchor="start" x="942.2114" y="-293.5" font-family="Helvetica,sans-Serif" font-size="10.00" fill="#000000">FE_DGVector&lt; Polynomials</text>
<text text-anchor="middle" x="1009.3184" y="-283.5" font-family="Helvetica,sans-Serif" font-size="10.00" fill="#000000">BDM&lt; dim &gt;, dim, spacedim &gt;</text>
</a>
</g>
</g>
<!-- Node4&#45;&gt;Node7 -->
<g id="edge7" class="edge">
<title>Node4&#45;&gt;Node7</title>
<path fill="none" stroke="#ffa500" stroke-dasharray="5,2" d="M765.5046,-296.6131C818.2291,-295.5074 884.0636,-294.1268 934.028,-293.0789"/>
<polygon fill="#ffa500" stroke="#ffa500" points="765.406,-293.1143 755.4816,-296.8233 765.5528,-300.1128 765.406,-293.1143"/>
<text text-anchor="start" x="786.2944" y="-308.5" font-family="Helvetica,sans-Serif" font-size="10.00" fill="#000000"> &lt; PolynomialsBDM&lt; dim</text>
<text text-anchor="middle" x="842.4248" y="-298.5" font-family="Helvetica,sans-Serif" font-size="10.00" fill="#000000"> &gt;, dim, spacedim &gt;</text>
</g>
<!-- Node9 -->
<g id="node10" class="node">
<title>Node9</title>
<g id="a_node10"><a xlink:href="classFE__DGVector.html" target="_top" xlink:title="FE_DGVector\&lt; Polynomials\lNedelec\&lt; dim \&gt;, dim, spacedim \&gt;">
<polygon fill="#ffffff" stroke="#000000" points="926.9775,-212.5 926.9775,-240.5 1091.6592,-240.5 1091.6592,-212.5 926.9775,-212.5"/>
<text text-anchor="start" x="934.9775" y="-228.5" font-family="Helvetica,sans-Serif" font-size="10.00" fill="#000000">FE_DGVector&lt; Polynomials</text>
<text text-anchor="middle" x="1009.3184" y="-218.5" font-family="Helvetica,sans-Serif" font-size="10.00" fill="#000000">Nedelec&lt; dim &gt;, dim, spacedim &gt;</text>
</a>
</g>
</g>
<!-- Node4&#45;&gt;Node9 -->
<g id="edge9" class="edge">
<title>Node4&#45;&gt;Node9</title>
<path fill="none" stroke="#ffa500" stroke-dasharray="5,2" d="M732.175,-281.779C746.3808,-277.8383 761.6332,-273.8221 775.8721,-270.5 825.6752,-258.8804 882.0025,-248.194 926.849,-240.263"/>
<polygon fill="#ffa500" stroke="#ffa500" points="731.2147,-278.4132 722.5328,-284.4856 733.1066,-285.1527 731.2147,-278.4132"/>
<text text-anchor="start" x="786.4287" y="-282.5" font-family="Helvetica,sans-Serif" font-size="10.00" fill="#000000"> &lt; PolynomialsNedelec</text>
<text text-anchor="middle" x="842.4248" y="-272.5" font-family="Helvetica,sans-Serif" font-size="10.00" fill="#000000">&lt; dim &gt;, dim, spacedim &gt;</text>
</g>
<!-- Node6 -->
<g id="node7" class="node">
<title>Node6</title>
<g id="a_node7"><a xlink:href="classFE__DGRaviartThomas.html" target="_top" xlink:title="FE_DGRaviartThomas\l\&lt; dim, spacedim \&gt;">
<polygon fill="#ffffff" stroke="#000000" points="1146.7231,-342.5 1146.7231,-370.5 1263.8608,-370.5 1263.8608,-342.5 1146.7231,-342.5"/>
<text text-anchor="start" x="1154.7231" y="-358.5" font-family="Helvetica,sans-Serif" font-size="10.00" fill="#000000">FE_DGRaviartThomas</text>
<text text-anchor="middle" x="1205.292" y="-348.5" font-family="Helvetica,sans-Serif" font-size="10.00" fill="#000000">&lt; dim, spacedim &gt;</text>
</a>
</g>
</g>
<!-- Node5&#45;&gt;Node6 -->
<g id="edge6" class="edge">
<title>Node5&#45;&gt;Node6</title>
<path fill="none" stroke="#191970" d="M1089.6788,-356.5C1108.7257,-356.5 1128.6915,-356.5 1146.5681,-356.5"/>
<polygon fill="#191970" stroke="#191970" points="1089.5158,-353.0001 1079.5158,-356.5 1089.5158,-360.0001 1089.5158,-353.0001"/>
</g>
<!-- Node8 -->
<g id="node9" class="node">
<title>Node8</title>
<g id="a_node9"><a xlink:href="classFE__DGBDM.html" target="_top" xlink:title="FE_DGBDM\&lt; dim, spacedim \&gt;">
<polygon fill="#ffffff" stroke="#000000" points="1128.6592,-282.5 1128.6592,-300.5 1281.9248,-300.5 1281.9248,-282.5 1128.6592,-282.5"/>
<text text-anchor="middle" x="1205.292" y="-288.5" font-family="Helvetica,sans-Serif" font-size="10.00" fill="#000000">FE_DGBDM&lt; dim, spacedim &gt;</text>
</a>
</g>
</g>
<!-- Node7&#45;&gt;Node8 -->
<g id="edge8" class="edge">
<title>Node7&#45;&gt;Node8</title>
<path fill="none" stroke="#191970" d="M1094.7173,-291.5C1105.9007,-291.5 1117.3065,-291.5 1128.339,-291.5"/>
<polygon fill="#191970" stroke="#191970" points="1094.5264,-288.0001 1084.5264,-291.5 1094.5264,-295.0001 1094.5264,-288.0001"/>
</g>
<!-- Node10 -->
<g id="node11" class="node">
<title>Node10</title>
<g id="a_node11"><a xlink:href="classFE__DGNedelec.html" target="_top" xlink:title="FE_DGNedelec\&lt; dim,\l spacedim \&gt;">
<polygon fill="#ffffff" stroke="#000000" points="1148.5225,-212.5 1148.5225,-240.5 1262.0615,-240.5 1262.0615,-212.5 1148.5225,-212.5"/>
<text text-anchor="start" x="1156.5225" y="-228.5" font-family="Helvetica,sans-Serif" font-size="10.00" fill="#000000">FE_DGNedelec&lt; dim,</text>
<text text-anchor="middle" x="1205.292" y="-218.5" font-family="Helvetica,sans-Serif" font-size="10.00" fill="#000000"> spacedim &gt;</text>
</a>
</g>
</g>
<!-- Node9&#45;&gt;Node10 -->
<g id="edge10" class="edge">
<title>Node9&#45;&gt;Node10</title>
<path fill="none" stroke="#191970" d="M1102.1837,-226.5C1117.9575,-226.5 1133.9088,-226.5 1148.3965,-226.5"/>
<polygon fill="#191970" stroke="#191970" points="1101.8609,-223.0001 1091.8608,-226.5 1101.8608,-230.0001 1101.8609,-223.0001"/>
</g>
<!-- Node11&#45;&gt;Node5 -->
<g id="edge12" class="edge">
<title>Node11&#45;&gt;Node5</title>
<path fill="none" stroke="#191970" d="M759.0984,-366.8398C803.6188,-367.5859 859.3008,-367.7234 908.9775,-365.5 918.7623,-365.0621 929.0676,-364.3851 939.1977,-363.5945"/>
<polygon fill="#191970" stroke="#191970" points="758.9678,-363.3369 748.906,-366.6552 758.841,-370.3358 758.9678,-363.3369"/>
</g>
<!-- Node13 -->
<g id="node14" class="node">
<title>Node13</title>
<g id="a_node14"><a xlink:href="classFE__Nedelec.html" target="_top" xlink:title="FE_Nedelec\&lt; dim \&gt;">
<polygon fill="#ffffff" stroke="#000000" points="957.1289,-165.5 957.1289,-183.5 1061.5078,-183.5 1061.5078,-165.5 957.1289,-165.5"/>
<text text-anchor="middle" x="1009.3184" y="-171.5" font-family="Helvetica,sans-Serif" font-size="10.00" fill="#000000">FE_Nedelec&lt; dim &gt;</text>
</a>
</g>
</g>
<!-- Node12&#45;&gt;Node13 -->
<g id="edge14" class="edge">
<title>Node12&#45;&gt;Node13</title>
<path fill="none" stroke="#191970" d="M758.9508,-160.2485C821.0449,-163.783 903.9012,-168.4994 956.9462,-171.5188"/>
<polygon fill="#191970" stroke="#191970" points="758.965,-156.7437 748.7822,-159.6696 758.5671,-163.7324 758.965,-156.7437"/>
</g>
<!-- Node15 -->
<g id="node16" class="node">
<title>Node15</title>
<g id="a_node16"><a xlink:href="classFE__RaviartThomas.html" target="_top" xlink:title="FE_RaviartThomas\&lt; dim \&gt;">
<polygon fill="#ffffff" stroke="#000000" points="941.5747,-81.5 941.5747,-99.5 1077.062,-99.5 1077.062,-81.5 941.5747,-81.5"/>
<text text-anchor="middle" x="1009.3184" y="-87.5" font-family="Helvetica,sans-Serif" font-size="10.00" fill="#000000">FE_RaviartThomas&lt; dim &gt;</text>
</a>
</g>
</g>
<!-- Node14&#45;&gt;Node15 -->
<g id="edge16" class="edge">
<title>Node14&#45;&gt;Node15</title>
<path fill="none" stroke="#191970" d="M759.8989,-103.9503C816.0905,-100.9201 888.9615,-96.9904 941.4101,-94.1621"/>
<polygon fill="#191970" stroke="#191970" points="759.4064,-100.4717 749.6094,-104.5052 759.7834,-107.4616 759.4064,-100.4717"/>
</g>
<!-- Node16 -->
<g id="node17" class="node">
<title>Node16</title>
<g id="a_node17"><a xlink:href="classFE__RaviartThomasNodal.html" target="_top" xlink:title="FE_RaviartThomasNodal\l\&lt; dim \&gt;">
<polygon fill="#ffffff" stroke="#000000" points="945.1855,-118.5 945.1855,-146.5 1073.4512,-146.5 1073.4512,-118.5 945.1855,-118.5"/>
<text text-anchor="start" x="953.1855" y="-134.5" font-family="Helvetica,sans-Serif" font-size="10.00" fill="#000000">FE_RaviartThomasNodal</text>
<text text-anchor="middle" x="1009.3184" y="-124.5" font-family="Helvetica,sans-Serif" font-size="10.00" fill="#000000">&lt; dim &gt;</text>
</a>
</g>
</g>
<!-- Node14&#45;&gt;Node16 -->
<g id="edge17" class="edge">
<title>Node14&#45;&gt;Node16</title>
<path fill="none" stroke="#191970" d="M759.77,-114.5569C817.2782,-118.6919 892.3022,-124.0863 945.0164,-127.8766"/>
<polygon fill="#191970" stroke="#191970" points="759.8347,-111.0527 749.6094,-113.8264 759.3326,-118.0346 759.8347,-111.0527"/>
</g>
<!-- Node17&#45;&gt;Node7 -->
<g id="edge19" class="edge">
<title>Node17&#45;&gt;Node7</title>
<path fill="none" stroke="#191970" d="M758.762,-234.2164C803.8884,-228.8377 860.2394,-226.8707 908.9775,-239.5 917.8366,-241.7956 918.9001,-245.1979 926.9775,-249.5 944.8241,-259.0051 965.0498,-269.328 980.9895,-277.3612"/>
<polygon fill="#191970" stroke="#191970" points="758.2037,-230.7591 748.724,-235.4905 759.0852,-237.7034 758.2037,-230.7591"/>
</g>
<!-- Node19 -->
<g id="node20" class="node">
<title>Node19</title>
<g id="a_node20"><a xlink:href="classFE__BDM.html" target="_top" xlink:title="FE_BDM\&lt; dim \&gt;">
<polygon fill="#ffffff" stroke="#000000" points="964.3628,-44.5 964.3628,-62.5 1054.2739,-62.5 1054.2739,-44.5 964.3628,-44.5"/>
<text text-anchor="middle" x="1009.3184" y="-50.5" font-family="Helvetica,sans-Serif" font-size="10.00" fill="#000000">FE_BDM&lt; dim &gt;</text>
</a>
</g>
</g>
<!-- Node18&#45;&gt;Node19 -->
<g id="edge21" class="edge">
<title>Node18&#45;&gt;Node19</title>
<path fill="none" stroke="#191970" d="M758.993,-59.4996C823.8808,-57.9445 911.4215,-55.8463 963.9305,-54.5878"/>
<polygon fill="#191970" stroke="#191970" points="758.6955,-56.0057 748.7822,-59.7444 758.8633,-63.0037 758.6955,-56.0057"/>
</g>
<!-- Node21 -->
<g id="node22" class="node">
<title>Node21</title>
<g id="a_node22"><a xlink:href="classFE__ABF.html" target="_top" xlink:title="FE_ABF\&lt; dim \&gt;">
<polygon fill="#ffffff" stroke="#000000" points="965.7495,-5.5 965.7495,-23.5 1052.8872,-23.5 1052.8872,-5.5 965.7495,-5.5"/>
<text text-anchor="middle" x="1009.3184" y="-11.5" font-family="Helvetica,sans-Serif" font-size="10.00" fill="#000000">FE_ABF&lt; dim &gt;</text>
</a>
</g>
</g>
<!-- Node20&#45;&gt;Node21 -->
<g id="edge23" class="edge">
<title>Node20&#45;&gt;Node21</title>
<path fill="none" stroke="#191970" d="M759.0844,-14.5C824.5628,-14.5 913.0658,-14.5 965.3772,-14.5"/>
<polygon fill="#191970" stroke="#191970" points="758.7823,-11.0001 748.7822,-14.5 758.7822,-18.0001 758.7823,-11.0001"/>
</g>
<!-- Node22&#45;&gt;Node9 -->
<g id="edge25" class="edge">
<title>Node22&#45;&gt;Node9</title>
<path fill="none" stroke="#191970" d="M768.1439,-205.8185C811.0371,-207.7254 862.6528,-210.5439 908.9775,-214.5 914.8336,-215.0001 920.8753,-215.5748 926.9537,-216.196"/>
<polygon fill="#191970" stroke="#191970" points="768.1459,-202.3154 758.0032,-205.3774 767.8416,-209.3088 768.1459,-202.3154"/>
</g>
</g>
</svg>
