<?xml version="1.0" encoding="UTF-8" standalone="no"?>
<!DOCTYPE svg PUBLIC "-//W3C//DTD SVG 1.1//EN"
 "http://www.w3.org/Graphics/SVG/1.1/DTD/svg11.dtd">
<!-- Generated by graphviz version 2.40.1 (20161225.0304)
 -->
<!-- Title: MappingFEField&lt; dim, spacedim, VectorType, DoFHandlerType &gt;::InternalData Pages: 1 -->
<svg width="171pt" height="112pt"
 viewBox="0.00 0.00 171.03 112.00" xmlns="http://www.w3.org/2000/svg" xmlns:xlink="http://www.w3.org/1999/xlink">
<g id="graph0" class="graph" transform="scale(1 1) rotate(0) translate(4 108)">
<title>MappingFEField&lt; dim, spacedim, VectorType, DoFHandlerType &gt;::InternalData</title>
<polygon fill="#ffffff" stroke="transparent" points="-4,4 -4,-108 167.0264,-108 167.0264,4 -4,4"/>
<!-- Node0 -->
<g id="node1" class="node">
<title>Node0</title>
<polygon fill="#bfbfbf" stroke="#000000" points="0,-.5 0,-38.5 163.0264,-38.5 163.0264,-.5 0,-.5"/>
<text text-anchor="start" x="8" y="-26.5" font-family="Helvetica,sans-Serif" font-size="10.00" fill="#000000">MappingFEField&lt; dim,</text>
<text text-anchor="start" x="8" y="-16.5" font-family="Helvetica,sans-Serif" font-size="10.00" fill="#000000"> spacedim, VectorType,</text>
<text text-anchor="middle" x="81.5132" y="-6.5" font-family="Helvetica,sans-Serif" font-size="10.00" fill="#000000"> DoFHandlerType &gt;::InternalData</text>
</g>
<!-- Node1 -->
<g id="node2" class="node">
<title>Node1</title>
<g id="a_node2"><a xlink:href="classMapping_1_1InternalDataBase.html" target="_top" xlink:title="Mapping\&lt; dim, spacedim\l \&gt;::InternalDataBase">
<polygon fill="#ffffff" stroke="#000000" points="17.7905,-75.5 17.7905,-103.5 145.2358,-103.5 145.2358,-75.5 17.7905,-75.5"/>
<text text-anchor="start" x="25.7905" y="-91.5" font-family="Helvetica,sans-Serif" font-size="10.00" fill="#000000">Mapping&lt; dim, spacedim</text>
<text text-anchor="middle" x="81.5132" y="-81.5" font-family="Helvetica,sans-Serif" font-size="10.00" fill="#000000"> &gt;::InternalDataBase</text>
</a>
</g>
</g>
<!-- Node1&#45;&gt;Node0 -->
<g id="edge1" class="edge">
<title>Node1&#45;&gt;Node0</title>
<path fill="none" stroke="#191970" d="M81.5132,-65.0725C81.5132,-56.4275 81.5132,-46.8328 81.5132,-38.6857"/>
<polygon fill="#191970" stroke="#191970" points="78.0133,-65.3344 81.5132,-75.3345 85.0133,-65.3345 78.0133,-65.3344"/>
</g>
</g>
</svg>
