<?xml version="1.0" encoding="UTF-8" standalone="no"?>
<!DOCTYPE svg PUBLIC "-//W3C//DTD SVG 1.1//EN"
 "http://www.w3.org/Graphics/SVG/1.1/DTD/svg11.dtd">
<!-- Generated by graphviz version 2.40.1 (20161225.0304)
 -->
<!-- Title: MatrixBlock&lt; MatrixType &gt; Pages: 1 -->
<svg width="189pt" height="158pt"
 viewBox="0.00 0.00 189.40 158.00" xmlns="http://www.w3.org/2000/svg" xmlns:xlink="http://www.w3.org/1999/xlink">
<g id="graph0" class="graph" transform="scale(1 1) rotate(0) translate(4 154)">
<title>MatrixBlock&lt; MatrixType &gt;</title>
<polygon fill="#ffffff" stroke="transparent" points="-4,4 -4,-154 185.4009,-154 185.4009,4 -4,4"/>
<!-- Node0 -->
<g id="node1" class="node">
<title>Node0</title>
<polygon fill="#bfbfbf" stroke="#000000" points="0,-75.5 0,-93.5 133.8174,-93.5 133.8174,-75.5 0,-75.5"/>
<text text-anchor="middle" x="66.9087" y="-81.5" font-family="Helvetica,sans-Serif" font-size="10.00" fill="#000000">MatrixBlock&lt; MatrixType &gt;</text>
</g>
<!-- Node2 -->
<g id="node3" class="node">
<title>Node2</title>
<g id="a_node3"><a xlink:href="classMatrixBlock.html" target="_top" xlink:title="MatrixBlock\&lt; FullMatrix\l\&lt; number \&gt; \&gt;">
<polygon fill="#ffffff" stroke="#000000" points="7.0947,-.5 7.0947,-28.5 126.7227,-28.5 126.7227,-.5 7.0947,-.5"/>
<text text-anchor="start" x="15.0947" y="-16.5" font-family="Helvetica,sans-Serif" font-size="10.00" fill="#000000">MatrixBlock&lt; FullMatrix</text>
<text text-anchor="middle" x="66.9087" y="-6.5" font-family="Helvetica,sans-Serif" font-size="10.00" fill="#000000">&lt; number &gt; &gt;</text>
</a>
</g>
</g>
<!-- Node0&#45;&gt;Node2 -->
<g id="edge2" class="edge">
<title>Node0&#45;&gt;Node2</title>
<path fill="none" stroke="#ffa500" stroke-dasharray="5,2" d="M66.9087,-65.0243C66.9087,-53.5169 66.9087,-39.2016 66.9087,-28.7499"/>
<polygon fill="#ffa500" stroke="#ffa500" points="63.4088,-65.3487 66.9087,-75.3487 70.4088,-65.3488 63.4088,-65.3487"/>
<text text-anchor="middle" x="124.1548" y="-49" font-family="Helvetica,sans-Serif" font-size="10.00" fill="#000000"> &lt; FullMatrix&lt; number &gt; &gt;</text>
</g>
<!-- Node1 -->
<g id="node2" class="node">
<title>Node1</title>
<g id="a_node2"><a xlink:href="classSubscriptor.html" target="_top" xlink:title="Subscriptor">
<polygon fill="#ffffff" stroke="#000000" points="33.6206,-131.5 33.6206,-149.5 100.1968,-149.5 100.1968,-131.5 33.6206,-131.5"/>
<text text-anchor="middle" x="66.9087" y="-137.5" font-family="Helvetica,sans-Serif" font-size="10.00" fill="#000000">Subscriptor</text>
</a>
</g>
</g>
<!-- Node1&#45;&gt;Node0 -->
<g id="edge1" class="edge">
<title>Node1&#45;&gt;Node0</title>
<path fill="none" stroke="#191970" d="M66.9087,-121.2065C66.9087,-111.8384 66.9087,-101.0262 66.9087,-93.5752"/>
<polygon fill="#191970" stroke="#191970" points="63.4088,-121.2527 66.9087,-131.2527 70.4088,-121.2528 63.4088,-121.2527"/>
</g>
</g>
</svg>
