<?xml version="1.0" encoding="UTF-8" standalone="no"?>
<!DOCTYPE svg PUBLIC "-//W3C//DTD SVG 1.1//EN"
 "http://www.w3.org/Graphics/SVG/1.1/DTD/svg11.dtd">
<!-- Generated by graphviz version 2.40.1 (20161225.0304)
 -->
<!-- Title: SolverRelaxation&lt; VectorType &gt; Pages: 1 -->
<svg width="137pt" height="147pt"
 viewBox="0.00 0.00 136.57 147.00" xmlns="http://www.w3.org/2000/svg" xmlns:xlink="http://www.w3.org/1999/xlink">
<g id="graph0" class="graph" transform="scale(1 1) rotate(0) translate(4 143)">
<title>SolverRelaxation&lt; VectorType &gt;</title>
<polygon fill="#ffffff" stroke="transparent" points="-4,4 -4,-143 132.5684,-143 132.5684,4 -4,4"/>
<!-- Node0 -->
<g id="node1" class="node">
<title>Node0</title>
<polygon fill="#bfbfbf" stroke="#000000" points="0,-.5 0,-28.5 128.5684,-28.5 128.5684,-.5 0,-.5"/>
<text text-anchor="start" x="8" y="-16.5" font-family="Helvetica,sans-Serif" font-size="10.00" fill="#000000">SolverRelaxation&lt; Vector</text>
<text text-anchor="middle" x="64.2842" y="-6.5" font-family="Helvetica,sans-Serif" font-size="10.00" fill="#000000">Type &gt;</text>
</g>
<!-- Node1 -->
<g id="node2" class="node">
<title>Node1</title>
<g id="a_node2"><a xlink:href="classSolver.html" target="_top" xlink:title="Solver\&lt; VectorType \&gt;">
<polygon fill="#ffffff" stroke="#000000" points="8.4741,-65.5 8.4741,-83.5 120.0942,-83.5 120.0942,-65.5 8.4741,-65.5"/>
<text text-anchor="middle" x="64.2842" y="-71.5" font-family="Helvetica,sans-Serif" font-size="10.00" fill="#000000">Solver&lt; VectorType &gt;</text>
</a>
</g>
</g>
<!-- Node1&#45;&gt;Node0 -->
<g id="edge1" class="edge">
<title>Node1&#45;&gt;Node0</title>
<path fill="none" stroke="#191970" d="M64.2842,-55.1865C64.2842,-46.6283 64.2842,-36.7354 64.2842,-28.8477"/>
<polygon fill="#191970" stroke="#191970" points="60.7843,-55.3873 64.2842,-65.3873 67.7843,-55.3873 60.7843,-55.3873"/>
</g>
<!-- Node2 -->
<g id="node3" class="node">
<title>Node2</title>
<g id="a_node3"><a xlink:href="classSubscriptor.html" target="_top" xlink:title="Subscriptor">
<polygon fill="#ffffff" stroke="#000000" points="30.9961,-120.5 30.9961,-138.5 97.5723,-138.5 97.5723,-120.5 30.9961,-120.5"/>
<text text-anchor="middle" x="64.2842" y="-126.5" font-family="Helvetica,sans-Serif" font-size="10.00" fill="#000000">Subscriptor</text>
</a>
</g>
</g>
<!-- Node2&#45;&gt;Node1 -->
<g id="edge2" class="edge">
<title>Node2&#45;&gt;Node1</title>
<path fill="none" stroke="#191970" d="M64.2842,-110.383C64.2842,-101.3738 64.2842,-91.0373 64.2842,-83.7795"/>
<polygon fill="#191970" stroke="#191970" points="60.7843,-110.4178 64.2842,-120.4179 67.7843,-110.4179 60.7843,-110.4178"/>
</g>
</g>
</svg>
