<?xml version="1.0" encoding="UTF-8" standalone="no"?>
<!DOCTYPE svg PUBLIC "-//W3C//DTD SVG 1.1//EN"
 "http://www.w3.org/Graphics/SVG/1.1/DTD/svg11.dtd">
<!-- Generated by graphviz version 2.40.1 (20161225.0304)
 -->
<!-- Title: PETScWrappers::MatrixBase Pages: 1 -->
<svg width="447pt" height="148pt"
 viewBox="0.00 0.00 447.18 148.00" xmlns="http://www.w3.org/2000/svg" xmlns:xlink="http://www.w3.org/1999/xlink">
<g id="graph0" class="graph" transform="scale(1 1) rotate(0) translate(4 144)">
<title>PETScWrappers::MatrixBase</title>
<polygon fill="#ffffff" stroke="transparent" points="-4,4 -4,-144 443.1846,-144 443.1846,4 -4,4"/>
<!-- Node0 -->
<g id="node1" class="node">
<title>Node0</title>
<polygon fill="#bfbfbf" stroke="#000000" points="102.5762,-63.5 102.5762,-81.5 248.4346,-81.5 248.4346,-63.5 102.5762,-63.5"/>
<text text-anchor="middle" x="175.5054" y="-69.5" font-family="Helvetica,sans-Serif" font-size="10.00" fill="#000000">PETScWrappers::MatrixBase</text>
</g>
<!-- Node2 -->
<g id="node3" class="node">
<title>Node2</title>
<g id="a_node3"><a xlink:href="classPETScWrappers_1_1FullMatrix.html" target="_top" xlink:title="PETScWrappers::FullMatrix">
<polygon fill="#ffffff" stroke="#000000" points="292.2202,-121.5 292.2202,-139.5 431.3989,-139.5 431.3989,-121.5 292.2202,-121.5"/>
<text text-anchor="middle" x="361.8096" y="-127.5" font-family="Helvetica,sans-Serif" font-size="10.00" fill="#000000">PETScWrappers::FullMatrix</text>
</a>
</g>
</g>
<!-- Node0&#45;&gt;Node2 -->
<g id="edge2" class="edge">
<title>Node0&#45;&gt;Node2</title>
<path fill="none" stroke="#191970" d="M207.0846,-85.2709C228.6452,-93.6984 257.9859,-104.6003 284.4346,-112.5 295.403,-115.7761 307.3926,-118.8199 318.5882,-121.4378"/>
<polygon fill="#191970" stroke="#191970" points="208.3509,-82.008 197.7642,-81.5926 205.7812,-88.5193 208.3509,-82.008"/>
</g>
<!-- Node3 -->
<g id="node4" class="node">
<title>Node3</title>
<g id="a_node4"><a xlink:href="classPETScWrappers_1_1MatrixFree.html" target="_top" xlink:title="PETScWrappers::MatrixFree">
<polygon fill="#ffffff" stroke="#000000" points="289.9961,-84.5 289.9961,-102.5 433.623,-102.5 433.623,-84.5 289.9961,-84.5"/>
<text text-anchor="middle" x="361.8096" y="-90.5" font-family="Helvetica,sans-Serif" font-size="10.00" fill="#000000">PETScWrappers::MatrixFree</text>
</a>
</g>
</g>
<!-- Node0&#45;&gt;Node3 -->
<g id="edge3" class="edge">
<title>Node0&#45;&gt;Node3</title>
<path fill="none" stroke="#191970" d="M258.5412,-81.8597C268.9799,-83.0363 279.59,-84.2323 289.8389,-85.3875"/>
<polygon fill="#191970" stroke="#191970" points="258.9321,-78.3817 248.603,-80.7395 258.148,-85.3376 258.9321,-78.3817"/>
</g>
<!-- Node4 -->
<g id="node5" class="node">
<title>Node4</title>
<g id="a_node5"><a xlink:href="classPETScWrappers_1_1MPI_1_1SparseMatrix.html" target="_top" xlink:title="PETScWrappers::MPI\l::SparseMatrix">
<polygon fill="#ffffff" stroke="#000000" points="304.9985,-37.5 304.9985,-65.5 418.6206,-65.5 418.6206,-37.5 304.9985,-37.5"/>
<text text-anchor="start" x="312.9985" y="-53.5" font-family="Helvetica,sans-Serif" font-size="10.00" fill="#000000">PETScWrappers::MPI</text>
<text text-anchor="middle" x="361.8096" y="-43.5" font-family="Helvetica,sans-Serif" font-size="10.00" fill="#000000">::SparseMatrix</text>
</a>
</g>
</g>
<!-- Node0&#45;&gt;Node4 -->
<g id="edge4" class="edge">
<title>Node0&#45;&gt;Node4</title>
<path fill="none" stroke="#191970" d="M258.75,-63.1168C274.3009,-61.3639 290.2243,-59.569 304.7601,-57.9306"/>
<polygon fill="#191970" stroke="#191970" points="258.148,-59.6624 248.603,-64.2605 258.9321,-66.6183 258.148,-59.6624"/>
</g>
<!-- Node5 -->
<g id="node6" class="node">
<title>Node5</title>
<g id="a_node6"><a xlink:href="classPETScWrappers_1_1SparseMatrix.html" target="_top" xlink:title="PETScWrappers::SparseMatrix">
<polygon fill="#ffffff" stroke="#000000" points="284.4346,-.5 284.4346,-18.5 439.1846,-18.5 439.1846,-.5 284.4346,-.5"/>
<text text-anchor="middle" x="361.8096" y="-6.5" font-family="Helvetica,sans-Serif" font-size="10.00" fill="#000000">PETScWrappers::SparseMatrix</text>
</a>
</g>
</g>
<!-- Node0&#45;&gt;Node5 -->
<g id="edge5" class="edge">
<title>Node0&#45;&gt;Node5</title>
<path fill="none" stroke="#191970" d="M204.1139,-59.1746C225.8103,-49.4408 256.5541,-36.4359 284.4346,-27.5 294.9416,-24.1324 306.4379,-21.1118 317.279,-18.5501"/>
<polygon fill="#191970" stroke="#191970" points="202.4845,-56.0705 194.8248,-63.3903 205.3773,-62.4447 202.4845,-56.0705"/>
</g>
<!-- Node1 -->
<g id="node2" class="node">
<title>Node1</title>
<g id="a_node2"><a xlink:href="classSubscriptor.html" target="_top" xlink:title="Subscriptor">
<polygon fill="#ffffff" stroke="#000000" points="0,-63.5 0,-81.5 66.5762,-81.5 66.5762,-63.5 0,-63.5"/>
<text text-anchor="middle" x="33.2881" y="-69.5" font-family="Helvetica,sans-Serif" font-size="10.00" fill="#000000">Subscriptor</text>
</a>
</g>
</g>
<!-- Node1&#45;&gt;Node0 -->
<g id="edge1" class="edge">
<title>Node1&#45;&gt;Node0</title>
<path fill="none" stroke="#191970" d="M76.6784,-72.5C84.8892,-72.5 93.6847,-72.5 102.5187,-72.5"/>
<polygon fill="#191970" stroke="#191970" points="76.6318,-69.0001 66.6317,-72.5 76.6317,-76.0001 76.6318,-69.0001"/>
</g>
</g>
</svg>
