<?xml version="1.0" encoding="UTF-8" standalone="no"?>
<!DOCTYPE svg PUBLIC "-//W3C//DTD SVG 1.1//EN"
 "http://www.w3.org/Graphics/SVG/1.1/DTD/svg11.dtd">
<!-- Generated by graphviz version 2.40.1 (20161225.0304)
 -->
<!-- Title: TrilinosWrappers::SparseMatrixIterators::Accessor&lt; false &gt; Pages: 1 -->
<svg width="157pt" height="112pt"
 viewBox="0.00 0.00 157.37 112.00" xmlns="http://www.w3.org/2000/svg" xmlns:xlink="http://www.w3.org/1999/xlink">
<g id="graph0" class="graph" transform="scale(1 1) rotate(0) translate(4 108)">
<title>TrilinosWrappers::SparseMatrixIterators::Accessor&lt; false &gt;</title>
<polygon fill="#ffffff" stroke="transparent" points="-4,4 -4,-108 153.374,-108 153.374,4 -4,4"/>
<!-- Node0 -->
<g id="node1" class="node">
<title>Node0</title>
<polygon fill="#bfbfbf" stroke="#000000" points="10.5518,-.5 10.5518,-38.5 138.8223,-38.5 138.8223,-.5 10.5518,-.5"/>
<text text-anchor="start" x="18.5518" y="-26.5" font-family="Helvetica,sans-Serif" font-size="10.00" fill="#000000">TrilinosWrappers::Sparse</text>
<text text-anchor="start" x="18.5518" y="-16.5" font-family="Helvetica,sans-Serif" font-size="10.00" fill="#000000">MatrixIterators::Accessor</text>
<text text-anchor="middle" x="74.687" y="-6.5" font-family="Helvetica,sans-Serif" font-size="10.00" fill="#000000">&lt; false &gt;</text>
</g>
<!-- Node1 -->
<g id="node2" class="node">
<title>Node1</title>
<g id="a_node2"><a xlink:href="classTrilinosWrappers_1_1SparseMatrixIterators_1_1AccessorBase.html" target="_top" xlink:title="TrilinosWrappers::Sparse\lMatrixIterators::AccessorBase">
<polygon fill="#ffffff" stroke="#000000" points="0,-75.5 0,-103.5 149.374,-103.5 149.374,-75.5 0,-75.5"/>
<text text-anchor="start" x="8" y="-91.5" font-family="Helvetica,sans-Serif" font-size="10.00" fill="#000000">TrilinosWrappers::Sparse</text>
<text text-anchor="middle" x="74.687" y="-81.5" font-family="Helvetica,sans-Serif" font-size="10.00" fill="#000000">MatrixIterators::AccessorBase</text>
</a>
</g>
</g>
<!-- Node1&#45;&gt;Node0 -->
<g id="edge1" class="edge">
<title>Node1&#45;&gt;Node0</title>
<path fill="none" stroke="#191970" d="M74.687,-65.0725C74.687,-56.4275 74.687,-46.8328 74.687,-38.6857"/>
<polygon fill="#191970" stroke="#191970" points="71.1871,-65.3344 74.687,-75.3345 78.1871,-65.3345 71.1871,-65.3344"/>
</g>
</g>
</svg>
