<?xml version="1.0" encoding="UTF-8" standalone="no"?>
<!DOCTYPE svg PUBLIC "-//W3C//DTD SVG 1.1//EN"
 "http://www.w3.org/Graphics/SVG/1.1/DTD/svg11.dtd">
<!-- Generated by graphviz version 2.40.1 (20161225.0304)
 -->
<!-- Title: MatrixBlockVector&lt; MatrixType &gt; Pages: 1 -->
<svg width="110pt" height="147pt"
 viewBox="0.00 0.00 109.87 147.00" xmlns="http://www.w3.org/2000/svg" xmlns:xlink="http://www.w3.org/1999/xlink">
<g id="graph0" class="graph" transform="scale(1 1) rotate(0) translate(4 143)">
<title>MatrixBlockVector&lt; MatrixType &gt;</title>
<polygon fill="#ffffff" stroke="transparent" points="-4,4 -4,-143 105.8691,-143 105.8691,4 -4,4"/>
<!-- Node0 -->
<g id="node1" class="node">
<title>Node0</title>
<polygon fill="#bfbfbf" stroke="#000000" points="0,-.5 0,-28.5 101.8691,-28.5 101.8691,-.5 0,-.5"/>
<text text-anchor="start" x="8" y="-16.5" font-family="Helvetica,sans-Serif" font-size="10.00" fill="#000000">MatrixBlockVector&lt;</text>
<text text-anchor="middle" x="50.9346" y="-6.5" font-family="Helvetica,sans-Serif" font-size="10.00" fill="#000000"> MatrixType &gt;</text>
</g>
<!-- Node1 -->
<g id="node2" class="node">
<title>Node1</title>
<g id="a_node2"><a xlink:href="classAnyData.html" target="_top" xlink:title="AnyData">
<polygon fill="#ffffff" stroke="#000000" points="23.7573,-65.5 23.7573,-83.5 78.1118,-83.5 78.1118,-65.5 23.7573,-65.5"/>
<text text-anchor="middle" x="50.9346" y="-71.5" font-family="Helvetica,sans-Serif" font-size="10.00" fill="#000000">AnyData</text>
</a>
</g>
</g>
<!-- Node1&#45;&gt;Node0 -->
<g id="edge1" class="edge">
<title>Node1&#45;&gt;Node0</title>
<path fill="none" stroke="#8b1a1a" d="M50.9346,-55.1865C50.9346,-46.6283 50.9346,-36.7354 50.9346,-28.8477"/>
<polygon fill="#8b1a1a" stroke="#8b1a1a" points="47.4347,-55.3873 50.9346,-65.3873 54.4347,-55.3873 47.4347,-55.3873"/>
</g>
<!-- Node2 -->
<g id="node3" class="node">
<title>Node2</title>
<g id="a_node3"><a xlink:href="classSubscriptor.html" target="_top" xlink:title="Subscriptor">
<polygon fill="#ffffff" stroke="#000000" points="17.6465,-120.5 17.6465,-138.5 84.2227,-138.5 84.2227,-120.5 17.6465,-120.5"/>
<text text-anchor="middle" x="50.9346" y="-126.5" font-family="Helvetica,sans-Serif" font-size="10.00" fill="#000000">Subscriptor</text>
</a>
</g>
</g>
<!-- Node2&#45;&gt;Node1 -->
<g id="edge2" class="edge">
<title>Node2&#45;&gt;Node1</title>
<path fill="none" stroke="#191970" d="M50.9346,-110.383C50.9346,-101.3738 50.9346,-91.0373 50.9346,-83.7795"/>
<polygon fill="#191970" stroke="#191970" points="47.4347,-110.4178 50.9346,-120.4179 54.4347,-110.4179 47.4347,-110.4178"/>
</g>
</g>
</svg>
