<?xml version="1.0" encoding="UTF-8" standalone="no"?>
<!DOCTYPE svg PUBLIC "-//W3C//DTD SVG 1.1//EN"
 "http://www.w3.org/Graphics/SVG/1.1/DTD/svg11.dtd">
<!-- Generated by graphviz version 2.40.1 (20161225.0304)
 -->
<!-- Title: ConstantTensorFunction&lt; rank, dim, Number &gt; Pages: 1 -->
<svg width="222pt" height="222pt"
 viewBox="0.00 0.00 221.79 222.00" xmlns="http://www.w3.org/2000/svg" xmlns:xlink="http://www.w3.org/1999/xlink">
<g id="graph0" class="graph" transform="scale(1 1) rotate(0) translate(4 218)">
<title>ConstantTensorFunction&lt; rank, dim, Number &gt;</title>
<polygon fill="#ffffff" stroke="transparent" points="-4,4 -4,-218 217.7944,-218 217.7944,4 -4,4"/>
<!-- Node0 -->
<g id="node1" class="node">
<title>Node0</title>
<polygon fill="#bfbfbf" stroke="#000000" points="60.3096,-65.5 60.3096,-93.5 184.7031,-93.5 184.7031,-65.5 60.3096,-65.5"/>
<text text-anchor="start" x="68.3096" y="-81.5" font-family="Helvetica,sans-Serif" font-size="10.00" fill="#000000">ConstantTensorFunction</text>
<text text-anchor="middle" x="122.5063" y="-71.5" font-family="Helvetica,sans-Serif" font-size="10.00" fill="#000000">&lt; rank, dim, Number &gt;</text>
</g>
<!-- Node4 -->
<g id="node5" class="node">
<title>Node4</title>
<g id="a_node5"><a xlink:href="classZeroTensorFunction.html" target="_top" xlink:title="ZeroTensorFunction\l\&lt; rank, dim, Number \&gt;">
<polygon fill="#ffffff" stroke="#000000" points="64.7651,-.5 64.7651,-28.5 180.2476,-28.5 180.2476,-.5 64.7651,-.5"/>
<text text-anchor="start" x="72.7651" y="-16.5" font-family="Helvetica,sans-Serif" font-size="10.00" fill="#000000">ZeroTensorFunction</text>
<text text-anchor="middle" x="122.5063" y="-6.5" font-family="Helvetica,sans-Serif" font-size="10.00" fill="#000000">&lt; rank, dim, Number &gt;</text>
</a>
</g>
</g>
<!-- Node0&#45;&gt;Node4 -->
<g id="edge4" class="edge">
<title>Node0&#45;&gt;Node4</title>
<path fill="none" stroke="#191970" d="M122.5063,-55.1081C122.5063,-46.1539 122.5063,-36.3227 122.5063,-28.5765"/>
<polygon fill="#191970" stroke="#191970" points="119.0064,-55.3959 122.5063,-65.396 126.0064,-55.396 119.0064,-55.3959"/>
</g>
<!-- Node1 -->
<g id="node2" class="node">
<title>Node1</title>
<g id="a_node2"><a xlink:href="classTensorFunction.html" target="_top" xlink:title="TensorFunction\&lt; rank,\l dim, Number \&gt;">
<polygon fill="#ffffff" stroke="#000000" points="64.897,-130.5 64.897,-158.5 180.1157,-158.5 180.1157,-130.5 64.897,-130.5"/>
<text text-anchor="start" x="72.897" y="-146.5" font-family="Helvetica,sans-Serif" font-size="10.00" fill="#000000">TensorFunction&lt; rank,</text>
<text text-anchor="middle" x="122.5063" y="-136.5" font-family="Helvetica,sans-Serif" font-size="10.00" fill="#000000"> dim, Number &gt;</text>
</a>
</g>
</g>
<!-- Node1&#45;&gt;Node0 -->
<g id="edge1" class="edge">
<title>Node1&#45;&gt;Node0</title>
<path fill="none" stroke="#191970" d="M122.5063,-120.1081C122.5063,-111.1539 122.5063,-101.3227 122.5063,-93.5765"/>
<polygon fill="#191970" stroke="#191970" points="119.0064,-120.3959 122.5063,-130.396 126.0064,-120.396 119.0064,-120.3959"/>
</g>
<!-- Node2 -->
<g id="node3" class="node">
<title>Node2</title>
<g id="a_node3"><a xlink:href="classFunctionTime.html" target="_top" xlink:title="FunctionTime\&lt; Number \&gt;">
<polygon fill="#ffffff" stroke="#000000" points="0,-195.5 0,-213.5 129.0127,-213.5 129.0127,-195.5 0,-195.5"/>
<text text-anchor="middle" x="64.5063" y="-201.5" font-family="Helvetica,sans-Serif" font-size="10.00" fill="#000000">FunctionTime&lt; Number &gt;</text>
</a>
</g>
</g>
<!-- Node2&#45;&gt;Node1 -->
<g id="edge2" class="edge">
<title>Node2&#45;&gt;Node1</title>
<path fill="none" stroke="#191970" d="M80.4409,-188.016C89.2755,-178.8768 100.1554,-167.6216 108.6369,-158.8477"/>
<polygon fill="#191970" stroke="#191970" points="77.7491,-185.7648 73.3153,-195.3873 82.782,-190.63 77.7491,-185.7648"/>
</g>
<!-- Node3 -->
<g id="node4" class="node">
<title>Node3</title>
<g id="a_node4"><a xlink:href="classSubscriptor.html" target="_top" xlink:title="Subscriptor">
<polygon fill="#ffffff" stroke="#000000" points="147.2183,-195.5 147.2183,-213.5 213.7944,-213.5 213.7944,-195.5 147.2183,-195.5"/>
<text text-anchor="middle" x="180.5063" y="-201.5" font-family="Helvetica,sans-Serif" font-size="10.00" fill="#000000">Subscriptor</text>
</a>
</g>
</g>
<!-- Node3&#45;&gt;Node1 -->
<g id="edge3" class="edge">
<title>Node3&#45;&gt;Node1</title>
<path fill="none" stroke="#191970" d="M164.5718,-188.016C155.7372,-178.8768 144.8573,-167.6216 136.3758,-158.8477"/>
<polygon fill="#191970" stroke="#191970" points="162.2307,-190.63 171.6974,-195.3873 167.2636,-185.7648 162.2307,-190.63"/>
</g>
</g>
</svg>
