<?xml version="1.0" encoding="UTF-8" standalone="no"?>
<!DOCTYPE svg PUBLIC "-//W3C//DTD SVG 1.1//EN"
 "http://www.w3.org/Graphics/SVG/1.1/DTD/svg11.dtd">
<!-- Generated by graphviz version 2.40.1 (20161225.0304)
 -->
<!-- Title: FE_PolyTensor&lt; PolynomialType, dim, spacedim &gt;::InternalData Pages: 1 -->
<svg width="161pt" height="112pt"
 viewBox="0.00 0.00 161.02 112.00" xmlns="http://www.w3.org/2000/svg" xmlns:xlink="http://www.w3.org/1999/xlink">
<g id="graph0" class="graph" transform="scale(1 1) rotate(0) translate(4 108)">
<title>FE_PolyTensor&lt; PolynomialType, dim, spacedim &gt;::InternalData</title>
<polygon fill="#ffffff" stroke="transparent" points="-4,4 -4,-108 157.0215,-108 157.0215,4 -4,4"/>
<!-- Node0 -->
<g id="node1" class="node">
<title>Node0</title>
<polygon fill="#bfbfbf" stroke="#000000" points="5.8423,-.5 5.8423,-38.5 147.1792,-38.5 147.1792,-.5 5.8423,-.5"/>
<text text-anchor="start" x="13.8423" y="-26.5" font-family="Helvetica,sans-Serif" font-size="10.00" fill="#000000">FE_PolyTensor&lt; Polynomial</text>
<text text-anchor="start" x="13.8423" y="-16.5" font-family="Helvetica,sans-Serif" font-size="10.00" fill="#000000">Type, dim, spacedim &gt;::</text>
<text text-anchor="middle" x="76.5107" y="-6.5" font-family="Helvetica,sans-Serif" font-size="10.00" fill="#000000">InternalData</text>
</g>
<!-- Node1 -->
<g id="node2" class="node">
<title>Node1</title>
<g id="a_node2"><a xlink:href="classFiniteElement_1_1InternalDataBase.html" target="_top" xlink:title="FiniteElement\&lt; dim,\l spacedim \&gt;::InternalDataBase">
<polygon fill="#ffffff" stroke="#000000" points="0,-75.5 0,-103.5 153.0215,-103.5 153.0215,-75.5 0,-75.5"/>
<text text-anchor="start" x="8" y="-91.5" font-family="Helvetica,sans-Serif" font-size="10.00" fill="#000000">FiniteElement&lt; dim,</text>
<text text-anchor="middle" x="76.5107" y="-81.5" font-family="Helvetica,sans-Serif" font-size="10.00" fill="#000000"> spacedim &gt;::InternalDataBase</text>
</a>
</g>
</g>
<!-- Node1&#45;&gt;Node0 -->
<g id="edge1" class="edge">
<title>Node1&#45;&gt;Node0</title>
<path fill="none" stroke="#191970" d="M76.5107,-65.0725C76.5107,-56.4275 76.5107,-46.8328 76.5107,-38.6857"/>
<polygon fill="#191970" stroke="#191970" points="73.0108,-65.3344 76.5107,-75.3345 80.0108,-65.3345 73.0108,-65.3344"/>
</g>
</g>
</svg>
