<?xml version="1.0" encoding="UTF-8" standalone="no"?>
<!DOCTYPE svg PUBLIC "-//W3C//DTD SVG 1.1//EN"
 "http://www.w3.org/Graphics/SVG/1.1/DTD/svg11.dtd">
<!-- Generated by graphviz version 2.40.1 (20161225.0304)
 -->
<!-- Title: LinearAlgebra::VectorSpaceVector&lt; Number &gt; Pages: 1 -->
<svg width="618pt" height="178pt"
 viewBox="0.00 0.00 617.60 178.00" xmlns="http://www.w3.org/2000/svg" xmlns:xlink="http://www.w3.org/1999/xlink">
<g id="graph0" class="graph" transform="scale(1 1) rotate(0) translate(4 174)">
<title>LinearAlgebra::VectorSpaceVector&lt; Number &gt;</title>
<polygon fill="#ffffff" stroke="transparent" points="-4,4 -4,-174 613.6045,-174 613.6045,4 -4,4"/>
<!-- Node0 -->
<g id="node1" class="node">
<title>Node0</title>
<polygon fill="#bfbfbf" stroke="#000000" points="0,-70.5 0,-98.5 140.5313,-98.5 140.5313,-70.5 0,-70.5"/>
<text text-anchor="start" x="8" y="-86.5" font-family="Helvetica,sans-Serif" font-size="10.00" fill="#000000">LinearAlgebra::VectorSpace</text>
<text text-anchor="middle" x="70.2656" y="-76.5" font-family="Helvetica,sans-Serif" font-size="10.00" fill="#000000">Vector&lt; Number &gt;</text>
</g>
<!-- Node1 -->
<g id="node2" class="node">
<title>Node1</title>
<g id="a_node2"><a xlink:href="classLinearAlgebra_1_1distributed_1_1BlockVector.html" target="_top" xlink:title="LinearAlgebra::distributed\l::BlockVector\&lt; Number \&gt;">
<polygon fill="#ffffff" stroke="#000000" points="231.8608,-141.5 231.8608,-169.5 361.8208,-169.5 361.8208,-141.5 231.8608,-141.5"/>
<text text-anchor="start" x="239.8608" y="-157.5" font-family="Helvetica,sans-Serif" font-size="10.00" fill="#000000">LinearAlgebra::distributed</text>
<text text-anchor="middle" x="296.8408" y="-147.5" font-family="Helvetica,sans-Serif" font-size="10.00" fill="#000000">::BlockVector&lt; Number &gt;</text>
</a>
</g>
</g>
<!-- Node0&#45;&gt;Node1 -->
<g id="edge1" class="edge">
<title>Node0&#45;&gt;Node1</title>
<path fill="none" stroke="#191970" d="M124.6196,-101.5325C163.4949,-113.7145 215.2017,-129.9174 251.7826,-141.3805"/>
<polygon fill="#191970" stroke="#191970" points="125.6187,-98.1778 115.0296,-98.5273 123.5254,-104.8575 125.6187,-98.1778"/>
</g>
<!-- Node2 -->
<g id="node3" class="node">
<title>Node2</title>
<g id="a_node3"><a xlink:href="classLinearAlgebra_1_1distributed_1_1Vector.html" target="_top" xlink:title="LinearAlgebra::distributed\l::Vector\&lt; Number \&gt;">
<polygon fill="#ffffff" stroke="#000000" points="231.8608,-94.5 231.8608,-122.5 361.8208,-122.5 361.8208,-94.5 231.8608,-94.5"/>
<text text-anchor="start" x="239.8608" y="-110.5" font-family="Helvetica,sans-Serif" font-size="10.00" fill="#000000">LinearAlgebra::distributed</text>
<text text-anchor="middle" x="296.8408" y="-100.5" font-family="Helvetica,sans-Serif" font-size="10.00" fill="#000000">::Vector&lt; Number &gt;</text>
</a>
</g>
</g>
<!-- Node0&#45;&gt;Node2 -->
<g id="edge2" class="edge">
<title>Node0&#45;&gt;Node2</title>
<path fill="none" stroke="#191970" d="M150.759,-93.0263C177.3425,-95.8421 206.5624,-98.9372 231.8376,-101.6145"/>
<polygon fill="#191970" stroke="#191970" points="151.0265,-89.5351 140.7134,-91.9622 150.2891,-96.4962 151.0265,-89.5351"/>
</g>
<!-- Node4 -->
<g id="node5" class="node">
<title>Node4</title>
<g id="a_node5"><a xlink:href="classLinearAlgebra_1_1Vector.html" target="_top" xlink:title="LinearAlgebra::Vector\l\&lt; Number \&gt;">
<polygon fill="#ffffff" stroke="#000000" points="240.7524,-47.5 240.7524,-75.5 352.9292,-75.5 352.9292,-47.5 240.7524,-47.5"/>
<text text-anchor="start" x="248.7524" y="-63.5" font-family="Helvetica,sans-Serif" font-size="10.00" fill="#000000">LinearAlgebra::Vector</text>
<text text-anchor="middle" x="296.8408" y="-53.5" font-family="Helvetica,sans-Serif" font-size="10.00" fill="#000000">&lt; Number &gt;</text>
</a>
</g>
</g>
<!-- Node0&#45;&gt;Node4 -->
<g id="edge4" class="edge">
<title>Node0&#45;&gt;Node4</title>
<path fill="none" stroke="#191970" d="M151.0305,-76.3014C180.6217,-73.2976 213.4474,-69.9654 240.449,-67.2244"/>
<polygon fill="#191970" stroke="#191970" points="150.3088,-72.8566 140.7134,-77.3487 151.0158,-79.8208 150.3088,-72.8566"/>
</g>
<!-- Node5 -->
<g id="node6" class="node">
<title>Node5</title>
<g id="a_node6"><a xlink:href="classLinearAlgebra_1_1VectorSpaceVector.html" target="_top" xlink:title="LinearAlgebra::VectorSpace\lVector\&lt; double \&gt;">
<polygon fill="#ffffff" stroke="#000000" points="226.5752,-.5 226.5752,-28.5 367.1064,-28.5 367.1064,-.5 226.5752,-.5"/>
<text text-anchor="start" x="234.5752" y="-16.5" font-family="Helvetica,sans-Serif" font-size="10.00" fill="#000000">LinearAlgebra::VectorSpace</text>
<text text-anchor="middle" x="296.8408" y="-6.5" font-family="Helvetica,sans-Serif" font-size="10.00" fill="#000000">Vector&lt; double &gt;</text>
</a>
</g>
</g>
<!-- Node0&#45;&gt;Node5 -->
<g id="edge5" class="edge">
<title>Node0&#45;&gt;Node5</title>
<path fill="none" stroke="#ffa500" stroke-dasharray="5,2" d="M124.05,-67.3217C135.4274,-63.7205 147.3687,-59.9652 158.5313,-56.5 188.9688,-47.0512 223.2458,-36.6408 250.0619,-28.5483"/>
<polygon fill="#ffa500" stroke="#ffa500" points="122.7048,-64.0764 114.2306,-70.4355 124.8208,-70.749 122.7048,-64.0764"/>
<text text-anchor="middle" x="183.5532" y="-58.5" font-family="Helvetica,sans-Serif" font-size="10.00" fill="#000000"> &lt; double &gt;</text>
</g>
<!-- Node3 -->
<g id="node4" class="node">
<title>Node3</title>
<g id="a_node4"><a xlink:href="classLinearAlgebra_1_1distributed_1_1Vector.html" target="_top" xlink:title="LinearAlgebra::distributed\l::Vector\&lt; double \&gt;">
<polygon fill="#ffffff" stroke="#000000" points="466.3975,-52.5 466.3975,-80.5 596.3574,-80.5 596.3574,-52.5 466.3975,-52.5"/>
<text text-anchor="start" x="474.3975" y="-68.5" font-family="Helvetica,sans-Serif" font-size="10.00" fill="#000000">LinearAlgebra::distributed</text>
<text text-anchor="middle" x="531.3774" y="-58.5" font-family="Helvetica,sans-Serif" font-size="10.00" fill="#000000">::Vector&lt; double &gt;</text>
</a>
</g>
</g>
<!-- Node2&#45;&gt;Node3 -->
<g id="edge3" class="edge">
<title>Node2&#45;&gt;Node3</title>
<path fill="none" stroke="#ffa500" stroke-dasharray="5,2" d="M371.9688,-95.0463C402.3063,-89.6136 436.9838,-83.4037 466.2309,-78.1662"/>
<polygon fill="#ffa500" stroke="#ffa500" points="371.0873,-91.6484 361.8609,-96.8564 372.3213,-98.5388 371.0873,-91.6484"/>
<text text-anchor="middle" x="410.1284" y="-93.5" font-family="Helvetica,sans-Serif" font-size="10.00" fill="#000000"> &lt; double &gt;</text>
</g>
<!-- Node5&#45;&gt;Node3 -->
<g id="edge7" class="edge">
<title>Node5&#45;&gt;Node3</title>
<path fill="none" stroke="#191970" d="M370.0208,-30.725C401.4611,-37.6958 437.85,-45.7637 468.1046,-52.4715"/>
<polygon fill="#191970" stroke="#191970" points="370.5214,-27.2511 360.0009,-28.5034 369.0062,-34.0851 370.5214,-27.2511"/>
</g>
<!-- Node6 -->
<g id="node7" class="node">
<title>Node6</title>
<g id="a_node7"><a xlink:href="classLinearAlgebra_1_1EpetraWrappers_1_1Vector.html" target="_top" xlink:title="LinearAlgebra::EpetraWrappers\l::Vector">
<polygon fill="#ffffff" stroke="#000000" points="453.1504,-.5 453.1504,-28.5 609.6045,-28.5 609.6045,-.5 453.1504,-.5"/>
<text text-anchor="start" x="461.1504" y="-16.5" font-family="Helvetica,sans-Serif" font-size="10.00" fill="#000000">LinearAlgebra::EpetraWrappers</text>
<text text-anchor="middle" x="531.3774" y="-6.5" font-family="Helvetica,sans-Serif" font-size="10.00" fill="#000000">::Vector</text>
</a>
</g>
</g>
<!-- Node5&#45;&gt;Node6 -->
<g id="edge6" class="edge">
<title>Node5&#45;&gt;Node6</title>
<path fill="none" stroke="#191970" d="M377.5012,-14.5C401.8831,-14.5 428.6117,-14.5 452.8521,-14.5"/>
<polygon fill="#191970" stroke="#191970" points="377.2096,-11.0001 367.2095,-14.5 377.2095,-18.0001 377.2096,-11.0001"/>
</g>
</g>
</svg>
