<?xml version="1.0" encoding="UTF-8" standalone="no"?>
<!DOCTYPE svg PUBLIC "-//W3C//DTD SVG 1.1//EN"
 "http://www.w3.org/Graphics/SVG/1.1/DTD/svg11.dtd">
<!-- Generated by graphviz version 2.40.1 (20161225.0304)
 -->
<!-- Title: BlockSparsityPatternBase&lt; SparsityPatternType &gt; Pages: 1 -->
<svg width="741pt" height="118pt"
 viewBox="0.00 0.00 741.12 118.00" xmlns="http://www.w3.org/2000/svg" xmlns:xlink="http://www.w3.org/1999/xlink">
<g id="graph0" class="graph" transform="scale(1 1) rotate(0) translate(4 114)">
<title>BlockSparsityPatternBase&lt; SparsityPatternType &gt;</title>
<polygon fill="#ffffff" stroke="transparent" points="-4,4 -4,-114 737.1211,-114 737.1211,4 -4,4"/>
<!-- Node0 -->
<g id="node1" class="node">
<title>Node0</title>
<polygon fill="#bfbfbf" stroke="#000000" points="103.5762,-23.5 103.5762,-51.5 235.1865,-51.5 235.1865,-23.5 103.5762,-23.5"/>
<text text-anchor="start" x="111.5762" y="-39.5" font-family="Helvetica,sans-Serif" font-size="10.00" fill="#000000">BlockSparsityPatternBase</text>
<text text-anchor="middle" x="169.3813" y="-29.5" font-family="Helvetica,sans-Serif" font-size="10.00" fill="#000000">&lt; SparsityPatternType &gt;</text>
</g>
<!-- Node2 -->
<g id="node3" class="node">
<title>Node2</title>
<g id="a_node3"><a xlink:href="classBlockSparsityPatternBase.html" target="_top" xlink:title="BlockSparsityPatternBase\l\&lt; SparsityPattern \&gt;">
<polygon fill="#ffffff" stroke="#000000" points="402.9053,-47.5 402.9053,-75.5 534.5156,-75.5 534.5156,-47.5 402.9053,-47.5"/>
<text text-anchor="start" x="410.9053" y="-63.5" font-family="Helvetica,sans-Serif" font-size="10.00" fill="#000000">BlockSparsityPatternBase</text>
<text text-anchor="middle" x="468.7104" y="-53.5" font-family="Helvetica,sans-Serif" font-size="10.00" fill="#000000">&lt; SparsityPattern &gt;</text>
</a>
</g>
</g>
<!-- Node0&#45;&gt;Node2 -->
<g id="edge2" class="edge">
<title>Node0&#45;&gt;Node2</title>
<path fill="none" stroke="#ffa500" stroke-dasharray="5,2" d="M245.5828,-43.6098C294.1358,-47.5027 356.4059,-52.4955 402.8196,-56.2169"/>
<polygon fill="#ffa500" stroke="#ffa500" points="245.6887,-40.1071 235.4409,-42.7966 245.1292,-47.0847 245.6887,-40.1071"/>
<text text-anchor="middle" x="316.8242" y="-55.5" font-family="Helvetica,sans-Serif" font-size="10.00" fill="#000000"> &lt; SparsityPattern &gt;</text>
</g>
<!-- Node5 -->
<g id="node6" class="node">
<title>Node5</title>
<g id="a_node6"><a xlink:href="classBlockSparsityPatternBase.html" target="_top" xlink:title="BlockSparsityPatternBase\l\&lt; DynamicSparsityPattern \&gt;">
<polygon fill="#ffffff" stroke="#000000" points="398.4619,-.5 398.4619,-28.5 538.959,-28.5 538.959,-.5 398.4619,-.5"/>
<text text-anchor="start" x="406.4619" y="-16.5" font-family="Helvetica,sans-Serif" font-size="10.00" fill="#000000">BlockSparsityPatternBase</text>
<text text-anchor="middle" x="468.7104" y="-6.5" font-family="Helvetica,sans-Serif" font-size="10.00" fill="#000000">&lt; DynamicSparsityPattern &gt;</text>
</a>
</g>
</g>
<!-- Node0&#45;&gt;Node5 -->
<g id="edge5" class="edge">
<title>Node0&#45;&gt;Node5</title>
<path fill="none" stroke="#ffa500" stroke-dasharray="5,2" d="M245.3989,-26.3066C248.0246,-26.0184 250.6264,-25.7481 253.1865,-25.5 301.4788,-20.82 356.0641,-18.06 398.218,-16.4751"/>
<polygon fill="#ffa500" stroke="#ffa500" points="244.7166,-22.8624 235.19,-27.4985 245.5284,-29.8152 244.7166,-22.8624"/>
<text text-anchor="middle" x="316.8242" y="-27.5" font-family="Helvetica,sans-Serif" font-size="10.00" fill="#000000"> &lt; DynamicSparsityPattern &gt;</text>
</g>
<!-- Node1 -->
<g id="node2" class="node">
<title>Node1</title>
<g id="a_node2"><a xlink:href="classSubscriptor.html" target="_top" xlink:title="Subscriptor">
<polygon fill="#ffffff" stroke="#000000" points="0,-28.5 0,-46.5 66.5762,-46.5 66.5762,-28.5 0,-28.5"/>
<text text-anchor="middle" x="33.2881" y="-34.5" font-family="Helvetica,sans-Serif" font-size="10.00" fill="#000000">Subscriptor</text>
</a>
</g>
</g>
<!-- Node1&#45;&gt;Node0 -->
<g id="edge1" class="edge">
<title>Node1&#45;&gt;Node0</title>
<path fill="none" stroke="#191970" d="M76.6552,-37.5C85.1945,-37.5 94.3336,-37.5 103.423,-37.5"/>
<polygon fill="#191970" stroke="#191970" points="76.5803,-34.0001 66.5802,-37.5 76.5802,-41.0001 76.5803,-34.0001"/>
</g>
<!-- Node3 -->
<g id="node4" class="node">
<title>Node3</title>
<g id="a_node4"><a xlink:href="classBlockSparsityPattern.html" target="_top" xlink:title="BlockSparsityPattern">
<polygon fill="#ffffff" stroke="#000000" points="600.1313,-91.5 600.1313,-109.5 708.9487,-109.5 708.9487,-91.5 600.1313,-91.5"/>
<text text-anchor="middle" x="654.54" y="-97.5" font-family="Helvetica,sans-Serif" font-size="10.00" fill="#000000">BlockSparsityPattern</text>
</a>
</g>
</g>
<!-- Node2&#45;&gt;Node3 -->
<g id="edge3" class="edge">
<title>Node2&#45;&gt;Node3</title>
<path fill="none" stroke="#191970" d="M544.7637,-77.4613C567.5687,-82.2473 591.7758,-87.3277 611.639,-91.4964"/>
<polygon fill="#191970" stroke="#191970" points="545.256,-73.9884 534.7502,-75.3598 543.8181,-80.8392 545.256,-73.9884"/>
</g>
<!-- Node4 -->
<g id="node5" class="node">
<title>Node4</title>
<g id="a_node5"><a xlink:href="classTrilinosWrappers_1_1BlockSparsityPattern.html" target="_top" xlink:title="TrilinosWrappers::BlockSparsity\lPattern">
<polygon fill="#ffffff" stroke="#000000" points="575.959,-44.5 575.959,-72.5 733.1211,-72.5 733.1211,-44.5 575.959,-44.5"/>
<text text-anchor="start" x="583.959" y="-60.5" font-family="Helvetica,sans-Serif" font-size="10.00" fill="#000000">TrilinosWrappers::BlockSparsity</text>
<text text-anchor="middle" x="654.54" y="-50.5" font-family="Helvetica,sans-Serif" font-size="10.00" fill="#000000">Pattern</text>
</a>
</g>
</g>
<!-- Node2&#45;&gt;Node4 -->
<g id="edge4" class="edge">
<title>Node2&#45;&gt;Node4</title>
<path fill="none" stroke="#191970" d="M544.8175,-60.2713C554.9966,-60.107 565.454,-59.9382 575.6789,-59.7731"/>
<polygon fill="#191970" stroke="#191970" points="544.6924,-56.7728 534.7502,-60.4339 544.8055,-63.7719 544.6924,-56.7728"/>
</g>
<!-- Node6 -->
<g id="node7" class="node">
<title>Node6</title>
<g id="a_node7"><a xlink:href="classBlockDynamicSparsityPattern.html" target="_top" xlink:title="BlockDynamicSparsityPattern">
<polygon fill="#ffffff" stroke="#000000" points="580.6831,-5.5 580.6831,-23.5 728.397,-23.5 728.397,-5.5 580.6831,-5.5"/>
<text text-anchor="middle" x="654.54" y="-11.5" font-family="Helvetica,sans-Serif" font-size="10.00" fill="#000000">BlockDynamicSparsityPattern</text>
</a>
</g>
</g>
<!-- Node5&#45;&gt;Node6 -->
<g id="edge6" class="edge">
<title>Node5&#45;&gt;Node6</title>
<path fill="none" stroke="#191970" d="M549.249,-14.5C559.6229,-14.5 570.2063,-14.5 580.4695,-14.5"/>
<polygon fill="#191970" stroke="#191970" points="548.9647,-11.0001 538.9646,-14.5 548.9646,-18.0001 548.9647,-11.0001"/>
</g>
</g>
</svg>
