<?xml version="1.0" encoding="UTF-8" standalone="no"?>
<!DOCTYPE svg PUBLIC "-//W3C//DTD SVG 1.1//EN"
 "http://www.w3.org/Graphics/SVG/1.1/DTD/svg11.dtd">
<!-- Generated by graphviz version 2.40.1 (20161225.0304)
 -->
<!-- Title: Householder&lt; number &gt; Pages: 1 -->
<svg width="295pt" height="409pt"
 viewBox="0.00 0.00 294.55 409.00" xmlns="http://www.w3.org/2000/svg" xmlns:xlink="http://www.w3.org/1999/xlink">
<g id="graph0" class="graph" transform="scale(1 1) rotate(0) translate(4 405)">
<title>Householder&lt; number &gt;</title>
<polygon fill="#ffffff" stroke="transparent" points="-4,4 -4,-405 290.5547,-405 290.5547,4 -4,4"/>
<!-- Node0 -->
<g id="node1" class="node">
<title>Node0</title>
<polygon fill="#bfbfbf" stroke="#000000" points="87.9175,-75.5 87.9175,-93.5 211.7642,-93.5 211.7642,-75.5 87.9175,-75.5"/>
<text text-anchor="middle" x="149.8408" y="-81.5" font-family="Helvetica,sans-Serif" font-size="10.00" fill="#000000">Householder&lt; number &gt;</text>
</g>
<!-- Node7 -->
<g id="node8" class="node">
<title>Node7</title>
<g id="a_node8"><a xlink:href="classHouseholder.html" target="_top" xlink:title="Householder\&lt; InverseNumber\lType \&gt;">
<polygon fill="#ffffff" stroke="#000000" points="0,-.5 0,-28.5 149.6816,-28.5 149.6816,-.5 0,-.5"/>
<text text-anchor="start" x="8" y="-16.5" font-family="Helvetica,sans-Serif" font-size="10.00" fill="#000000">Householder&lt; InverseNumber</text>
<text text-anchor="middle" x="74.8408" y="-6.5" font-family="Helvetica,sans-Serif" font-size="10.00" fill="#000000">Type &gt;</text>
</a>
</g>
</g>
<!-- Node0&#45;&gt;Node7 -->
<g id="edge8" class="edge">
<title>Node0&#45;&gt;Node7</title>
<path fill="none" stroke="#ffa500" stroke-dasharray="5,2" d="M111.6879,-70.8951C104.7828,-67.1757 98.0979,-62.5864 92.7822,-57 85.2738,-49.1092 80.6796,-37.6077 78.0222,-28.5589"/>
<polygon fill="#ffa500" stroke="#ffa500" points="110.6038,-74.2576 121.1325,-75.4397 113.639,-67.9498 110.6038,-74.2576"/>
<text text-anchor="middle" x="147.8701" y="-49" font-family="Helvetica,sans-Serif" font-size="10.00" fill="#000000"> &lt; InverseNumberType &gt;</text>
</g>
<!-- Node8 -->
<g id="node9" class="node">
<title>Node8</title>
<g id="a_node9"><a xlink:href="classHouseholder.html" target="_top" xlink:title="Householder\&lt; inverse\l_type \&gt;">
<polygon fill="#ffffff" stroke="#000000" points="168.0615,-.5 168.0615,-28.5 281.6201,-28.5 281.6201,-.5 168.0615,-.5"/>
<text text-anchor="start" x="176.0615" y="-16.5" font-family="Helvetica,sans-Serif" font-size="10.00" fill="#000000">Householder&lt; inverse</text>
<text text-anchor="middle" x="224.8408" y="-6.5" font-family="Helvetica,sans-Serif" font-size="10.00" fill="#000000">_type &gt;</text>
</a>
</g>
</g>
<!-- Node0&#45;&gt;Node8 -->
<g id="edge9" class="edge">
<title>Node0&#45;&gt;Node8</title>
<path fill="none" stroke="#ffa500" stroke-dasharray="5,2" d="M183.8257,-70.832C190.658,-67.0451 197.4009,-62.4452 202.8408,-57 210.7095,-49.1238 216.3683,-37.8485 219.9749,-28.8906"/>
<polygon fill="#ffa500" stroke="#ffa500" points="181.9241,-67.8709 174.5673,-75.4951 185.0729,-74.1227 181.9241,-67.8709"/>
<text text-anchor="middle" x="248.1978" y="-49" font-family="Helvetica,sans-Serif" font-size="10.00" fill="#000000"> &lt; inverse_type &gt;</text>
</g>
<!-- Node1 -->
<g id="node2" class="node">
<title>Node1</title>
<g id="a_node2"><a xlink:href="classFullMatrix.html" target="_top" xlink:title="FullMatrix\&lt; number \&gt;">
<polygon fill="#ffffff" stroke="#000000" points="94.6021,-131.5 94.6021,-149.5 205.0796,-149.5 205.0796,-131.5 94.6021,-131.5"/>
<text text-anchor="middle" x="149.8408" y="-137.5" font-family="Helvetica,sans-Serif" font-size="10.00" fill="#000000">FullMatrix&lt; number &gt;</text>
</a>
</g>
</g>
<!-- Node1&#45;&gt;Node0 -->
<g id="edge1" class="edge">
<title>Node1&#45;&gt;Node0</title>
<path fill="none" stroke="#8b1a1a" d="M149.8408,-121.2065C149.8408,-111.8384 149.8408,-101.0262 149.8408,-93.5752"/>
<polygon fill="#8b1a1a" stroke="#8b1a1a" points="146.3409,-121.2527 149.8408,-131.2527 153.3409,-121.2528 146.3409,-121.2527"/>
</g>
<!-- Node2 -->
<g id="node3" class="node">
<title>Node2</title>
<g id="a_node3"><a xlink:href="classTable.html" target="_top" xlink:title="Table\&lt; 2, number \&gt;">
<polygon fill="#ffffff" stroke="#000000" points="98.7573,-187.5 98.7573,-205.5 200.9243,-205.5 200.9243,-187.5 98.7573,-187.5"/>
<text text-anchor="middle" x="149.8408" y="-193.5" font-family="Helvetica,sans-Serif" font-size="10.00" fill="#000000">Table&lt; 2, number &gt;</text>
</a>
</g>
</g>
<!-- Node2&#45;&gt;Node1 -->
<g id="edge2" class="edge">
<title>Node2&#45;&gt;Node1</title>
<path fill="none" stroke="#191970" d="M149.8408,-177.2065C149.8408,-167.8384 149.8408,-157.0262 149.8408,-149.5752"/>
<polygon fill="#191970" stroke="#191970" points="146.3409,-177.2527 149.8408,-187.2527 153.3409,-177.2528 146.3409,-177.2527"/>
</g>
<!-- Node3 -->
<g id="node4" class="node">
<title>Node3</title>
<g id="a_node4"><a xlink:href="classTableBase.html" target="_top" xlink:title="TableBase\&lt; N, number \&gt;">
<polygon fill="#ffffff" stroke="#000000" points="64.5308,-289.5 64.5308,-307.5 191.1509,-307.5 191.1509,-289.5 64.5308,-289.5"/>
<text text-anchor="middle" x="127.8408" y="-295.5" font-family="Helvetica,sans-Serif" font-size="10.00" fill="#000000">TableBase&lt; N, number &gt;</text>
</a>
</g>
</g>
<!-- Node3&#45;&gt;Node2 -->
<g id="edge3" class="edge">
<title>Node3&#45;&gt;Node2</title>
<path fill="none" stroke="#191970" d="M131.9132,-279.6188C136.6504,-257.6556 144.2781,-222.2907 147.8612,-205.6782"/>
<polygon fill="#191970" stroke="#191970" points="128.4803,-278.935 129.7932,-289.4482 135.323,-280.4109 128.4803,-278.935"/>
</g>
<!-- Node4 -->
<g id="node5" class="node">
<title>Node4</title>
<g id="a_node5"><a xlink:href="classSubscriptor.html" target="_top" xlink:title="Subscriptor">
<polygon fill="#ffffff" stroke="#000000" points="106.5527,-382.5 106.5527,-400.5 173.1289,-400.5 173.1289,-382.5 106.5527,-382.5"/>
<text text-anchor="middle" x="139.8408" y="-388.5" font-family="Helvetica,sans-Serif" font-size="10.00" fill="#000000">Subscriptor</text>
</a>
</g>
</g>
<!-- Node4&#45;&gt;Node3 -->
<g id="edge4" class="edge">
<title>Node4&#45;&gt;Node3</title>
<path fill="none" stroke="#191970" d="M137.3543,-372.2295C134.8083,-352.4977 130.959,-322.6662 129.0305,-307.7198"/>
<polygon fill="#191970" stroke="#191970" points="133.8953,-372.773 138.6463,-382.2428 140.8378,-371.8771 133.8953,-372.773"/>
</g>
<!-- Node6 -->
<g id="node7" class="node">
<title>Node6</title>
<g id="a_node7"><a xlink:href="classTableBase.html" target="_top" xlink:title="TableBase\&lt; N, T \&gt;">
<polygon fill="#ffffff" stroke="#000000" points="155.6055,-326.5 155.6055,-344.5 254.0762,-344.5 254.0762,-326.5 155.6055,-326.5"/>
<text text-anchor="middle" x="204.8408" y="-332.5" font-family="Helvetica,sans-Serif" font-size="10.00" fill="#000000">TableBase&lt; N, T &gt;</text>
</a>
</g>
</g>
<!-- Node4&#45;&gt;Node6 -->
<g id="edge7" class="edge">
<title>Node4&#45;&gt;Node6</title>
<path fill="none" stroke="#191970" d="M158.4161,-375.4967C170.052,-365.4719 184.6245,-352.9171 194.3071,-344.5752"/>
<polygon fill="#191970" stroke="#191970" points="155.8659,-373.074 150.5742,-382.2527 160.4349,-378.3773 155.8659,-373.074"/>
</g>
<!-- Node5 -->
<g id="node6" class="node">
<title>Node5</title>
<g id="a_node6"><a xlink:href="classTable.html" target="_top" xlink:title="Table\&lt; N, T \&gt;">
<polygon fill="#ffffff" stroke="#000000" points="165.002,-252.5 165.002,-270.5 240.6797,-270.5 240.6797,-252.5 165.002,-252.5"/>
<text text-anchor="middle" x="202.8408" y="-258.5" font-family="Helvetica,sans-Serif" font-size="10.00" fill="#000000">Table&lt; N, T &gt;</text>
</a>
</g>
</g>
<!-- Node5&#45;&gt;Node2 -->
<g id="edge5" class="edge">
<title>Node5&#45;&gt;Node2</title>
<path fill="none" stroke="#ffa500" stroke-dasharray="5,2" d="M189.1188,-244.6711C179.0487,-232.321 165.7422,-216.0016 157.4909,-205.8821"/>
<polygon fill="#ffa500" stroke="#ffa500" points="186.4394,-246.9236 195.4714,-252.462 191.8646,-242.5 186.4394,-246.9236"/>
<text text-anchor="middle" x="212.3604" y="-226" font-family="Helvetica,sans-Serif" font-size="10.00" fill="#000000"> &lt; 2, number &gt;</text>
</g>
<!-- Node6&#45;&gt;Node5 -->
<g id="edge6" class="edge">
<title>Node6&#45;&gt;Node5</title>
<path fill="none" stroke="#191970" d="M204.3237,-316.3665C203.9263,-301.6615 203.3949,-282.0021 203.0881,-270.6481"/>
<polygon fill="#191970" stroke="#191970" points="200.8266,-316.5244 204.5956,-326.4261 207.824,-316.3352 200.8266,-316.5244"/>
</g>
</g>
</svg>
