<?xml version="1.0" encoding="UTF-8" standalone="no"?>
<!DOCTYPE svg PUBLIC "-//W3C//DTD SVG 1.1//EN"
 "http://www.w3.org/Graphics/SVG/1.1/DTD/svg11.dtd">
<!-- Generated by graphviz version 2.40.1 (20161225.0304)
 -->
<!-- Title: MatrixFreeOperators::Base&lt; dim, VectorType &gt; Pages: 1 -->
<svg width="403pt" height="104pt"
 viewBox="0.00 0.00 403.43 104.00" xmlns="http://www.w3.org/2000/svg" xmlns:xlink="http://www.w3.org/1999/xlink">
<g id="graph0" class="graph" transform="scale(1 1) rotate(0) translate(4 100)">
<title>MatrixFreeOperators::Base&lt; dim, VectorType &gt;</title>
<polygon fill="#ffffff" stroke="transparent" points="-4,4 -4,-100 399.4297,-100 399.4297,4 -4,4"/>
<!-- Node0 -->
<g id="node1" class="node">
<title>Node0</title>
<polygon fill="#bfbfbf" stroke="#000000" points="102.5762,-33.5 102.5762,-61.5 235.8711,-61.5 235.8711,-33.5 102.5762,-33.5"/>
<text text-anchor="start" x="110.5762" y="-49.5" font-family="Helvetica,sans-Serif" font-size="10.00" fill="#000000">MatrixFreeOperators</text>
<text text-anchor="middle" x="169.2236" y="-39.5" font-family="Helvetica,sans-Serif" font-size="10.00" fill="#000000">::Base&lt; dim, VectorType &gt;</text>
</g>
<!-- Node2 -->
<g id="node3" class="node">
<title>Node2</title>
<g id="a_node3"><a xlink:href="classMatrixFreeOperators_1_1LaplaceOperator.html" target="_top" xlink:title="MatrixFreeOperators\l::LaplaceOperator\&lt; dim,\l VectorType \&gt;">
<polygon fill="#ffffff" stroke="#000000" points="271.8711,-57.5 271.8711,-95.5 395.4297,-95.5 395.4297,-57.5 271.8711,-57.5"/>
<text text-anchor="start" x="279.8711" y="-83.5" font-family="Helvetica,sans-Serif" font-size="10.00" fill="#000000">MatrixFreeOperators</text>
<text text-anchor="start" x="279.8711" y="-73.5" font-family="Helvetica,sans-Serif" font-size="10.00" fill="#000000">::LaplaceOperator&lt; dim,</text>
<text text-anchor="middle" x="333.6504" y="-63.5" font-family="Helvetica,sans-Serif" font-size="10.00" fill="#000000"> VectorType &gt;</text>
</a>
</g>
</g>
<!-- Node0&#45;&gt;Node2 -->
<g id="edge2" class="edge">
<title>Node0&#45;&gt;Node2</title>
<path fill="none" stroke="#191970" d="M246.1611,-61.0695C254.7795,-62.5895 263.4756,-64.1232 271.8683,-65.6035"/>
<polygon fill="#191970" stroke="#191970" points="246.5582,-57.5856 236.1023,-59.2954 245.3424,-64.4792 246.5582,-57.5856"/>
</g>
<!-- Node3 -->
<g id="node4" class="node">
<title>Node3</title>
<g id="a_node4"><a xlink:href="classMatrixFreeOperators_1_1MassOperator.html" target="_top" xlink:title="MatrixFreeOperators\l::MassOperator\&lt; dim,\l VectorType \&gt;">
<polygon fill="#ffffff" stroke="#000000" points="277.4399,-.5 277.4399,-38.5 389.8608,-38.5 389.8608,-.5 277.4399,-.5"/>
<text text-anchor="start" x="285.4399" y="-26.5" font-family="Helvetica,sans-Serif" font-size="10.00" fill="#000000">MatrixFreeOperators</text>
<text text-anchor="start" x="285.4399" y="-16.5" font-family="Helvetica,sans-Serif" font-size="10.00" fill="#000000">::MassOperator&lt; dim,</text>
<text text-anchor="middle" x="333.6504" y="-6.5" font-family="Helvetica,sans-Serif" font-size="10.00" fill="#000000"> VectorType &gt;</text>
</a>
</g>
</g>
<!-- Node0&#45;&gt;Node3 -->
<g id="edge3" class="edge">
<title>Node0&#45;&gt;Node3</title>
<path fill="none" stroke="#191970" d="M246.1315,-34.4035C256.6529,-32.6118 267.2906,-30.8003 277.3516,-29.087"/>
<polygon fill="#191970" stroke="#191970" points="245.3728,-30.9822 236.1023,-36.1113 246.548,-37.8829 245.3728,-30.9822"/>
</g>
<!-- Node1 -->
<g id="node2" class="node">
<title>Node1</title>
<g id="a_node2"><a xlink:href="classSubscriptor.html" target="_top" xlink:title="Subscriptor">
<polygon fill="#ffffff" stroke="#000000" points="0,-38.5 0,-56.5 66.5762,-56.5 66.5762,-38.5 0,-38.5"/>
<text text-anchor="middle" x="33.2881" y="-44.5" font-family="Helvetica,sans-Serif" font-size="10.00" fill="#000000">Subscriptor</text>
</a>
</g>
</g>
<!-- Node1&#45;&gt;Node0 -->
<g id="edge1" class="edge">
<title>Node1&#45;&gt;Node0</title>
<path fill="none" stroke="#191970" d="M76.9295,-47.5C85.1184,-47.5 93.85,-47.5 102.5532,-47.5"/>
<polygon fill="#191970" stroke="#191970" points="76.8902,-44.0001 66.8901,-47.5 76.8901,-51.0001 76.8902,-44.0001"/>
</g>
</g>
</svg>
