<?xml version="1.0" encoding="UTF-8" standalone="no"?>
<!DOCTYPE svg PUBLIC "-//W3C//DTD SVG 1.1//EN"
 "http://www.w3.org/Graphics/SVG/1.1/DTD/svg11.dtd">
<!-- Generated by graphviz version 2.40.1 (20161225.0304)
 -->
<!-- Title: FiniteElement&lt; dim, spacedim &gt;::InternalDataBase Pages: 1 -->
<svg width="355pt" height="319pt"
 viewBox="0.00 0.00 355.04 319.00" xmlns="http://www.w3.org/2000/svg" xmlns:xlink="http://www.w3.org/1999/xlink">
<g id="graph0" class="graph" transform="scale(1 1) rotate(0) translate(4 315)">
<title>FiniteElement&lt; dim, spacedim &gt;::InternalDataBase</title>
<polygon fill="#ffffff" stroke="transparent" points="-4,4 -4,-315 351.0381,-315 351.0381,4 -4,4"/>
<!-- Node0 -->
<g id="node1" class="node">
<title>Node0</title>
<polygon fill="#bfbfbf" stroke="#000000" points="0,-151.5 0,-179.5 153.0215,-179.5 153.0215,-151.5 0,-151.5"/>
<text text-anchor="start" x="8" y="-167.5" font-family="Helvetica,sans-Serif" font-size="10.00" fill="#000000">FiniteElement&lt; dim,</text>
<text text-anchor="middle" x="76.5107" y="-157.5" font-family="Helvetica,sans-Serif" font-size="10.00" fill="#000000"> spacedim &gt;::InternalDataBase</text>
</g>
<!-- Node1 -->
<g id="node2" class="node">
<title>Node1</title>
<g id="a_node2"><a xlink:href="classFE__ABF_1_1InternalData.html" target="_top" xlink:title="FE_ABF\&lt; dim \&gt;::InternalData">
<polygon fill="#ffffff" stroke="#000000" points="194.4438,-292.5 194.4438,-310.5 341.6157,-310.5 341.6157,-292.5 194.4438,-292.5"/>
<text text-anchor="middle" x="268.0298" y="-298.5" font-family="Helvetica,sans-Serif" font-size="10.00" fill="#000000">FE_ABF&lt; dim &gt;::InternalData</text>
</a>
</g>
</g>
<!-- Node0&#45;&gt;Node1 -->
<g id="edge1" class="edge">
<title>Node0&#45;&gt;Node1</title>
<path fill="none" stroke="#191970" d="M91.6663,-188.1216C110.9983,-215.1291 147.008,-259.6338 189.0215,-283.5 195.5046,-287.1828 202.6898,-290.1122 210.0084,-292.4423"/>
<polygon fill="#191970" stroke="#191970" points="94.366,-185.8749 85.765,-179.6884 88.6308,-189.8883 94.366,-185.8749"/>
</g>
<!-- Node2 -->
<g id="node3" class="node">
<title>Node2</title>
<g id="a_node3"><a xlink:href="classFE__DGVector_1_1InternalData.html" target="_top" xlink:title="FE_DGVector\&lt; dim \&gt;\l::InternalData">
<polygon fill="#ffffff" stroke="#000000" points="212.5078,-245.5 212.5078,-273.5 323.5518,-273.5 323.5518,-245.5 212.5078,-245.5"/>
<text text-anchor="start" x="220.5078" y="-261.5" font-family="Helvetica,sans-Serif" font-size="10.00" fill="#000000">FE_DGVector&lt; dim &gt;</text>
<text text-anchor="middle" x="268.0298" y="-251.5" font-family="Helvetica,sans-Serif" font-size="10.00" fill="#000000">::InternalData</text>
</a>
</g>
</g>
<!-- Node0&#45;&gt;Node2 -->
<g id="edge2" class="edge">
<title>Node0&#45;&gt;Node2</title>
<path fill="none" stroke="#191970" d="M103.3017,-185.4346C125.3702,-201.0929 157.9721,-222.5183 189.0215,-236.5 196.4465,-239.8435 204.4819,-242.8384 212.4879,-245.4741"/>
<polygon fill="#191970" stroke="#191970" points="105.2605,-182.5322 95.0985,-179.5348 101.1733,-188.2151 105.2605,-182.5322"/>
</g>
<!-- Node3 -->
<g id="node4" class="node">
<title>Node3</title>
<g id="a_node4"><a xlink:href="classFE__Enriched_1_1InternalData.html" target="_top" xlink:title="FE_Enriched\&lt; dim, spacedim\l \&gt;::InternalData">
<polygon fill="#ffffff" stroke="#000000" points="194.583,-198.5 194.583,-226.5 341.4766,-226.5 341.4766,-198.5 194.583,-198.5"/>
<text text-anchor="start" x="202.583" y="-214.5" font-family="Helvetica,sans-Serif" font-size="10.00" fill="#000000">FE_Enriched&lt; dim, spacedim</text>
<text text-anchor="middle" x="268.0298" y="-204.5" font-family="Helvetica,sans-Serif" font-size="10.00" fill="#000000"> &gt;::InternalData</text>
</a>
</g>
</g>
<!-- Node0&#45;&gt;Node3 -->
<g id="edge3" class="edge">
<title>Node0&#45;&gt;Node3</title>
<path fill="none" stroke="#191970" d="M143.6118,-181.967C165.5341,-187.3469 189.6637,-193.2685 210.7912,-198.4533"/>
<polygon fill="#191970" stroke="#191970" points="144.2594,-178.5222 133.7134,-179.5379 142.591,-185.3204 144.2594,-178.5222"/>
</g>
<!-- Node4 -->
<g id="node5" class="node">
<title>Node4</title>
<g id="a_node5"><a xlink:href="classFE__Poly_1_1InternalData.html" target="_top" xlink:title="FE_Poly\&lt; PolynomialType,\l dim, spacedim \&gt;::InternalData">
<polygon fill="#ffffff" stroke="#000000" points="192.0806,-151.5 192.0806,-179.5 343.979,-179.5 343.979,-151.5 192.0806,-151.5"/>
<text text-anchor="start" x="200.0806" y="-167.5" font-family="Helvetica,sans-Serif" font-size="10.00" fill="#000000">FE_Poly&lt; PolynomialType,</text>
<text text-anchor="middle" x="268.0298" y="-157.5" font-family="Helvetica,sans-Serif" font-size="10.00" fill="#000000"> dim, spacedim &gt;::InternalData</text>
</a>
</g>
</g>
<!-- Node0&#45;&gt;Node4 -->
<g id="edge4" class="edge">
<title>Node0&#45;&gt;Node4</title>
<path fill="none" stroke="#191970" d="M163.3254,-165.5C172.8736,-165.5 182.5414,-165.5 191.9447,-165.5"/>
<polygon fill="#191970" stroke="#191970" points="163.0298,-162.0001 153.0298,-165.5 163.0298,-169.0001 163.0298,-162.0001"/>
</g>
<!-- Node5 -->
<g id="node6" class="node">
<title>Node5</title>
<g id="a_node6"><a xlink:href="classFE__PolyFace_1_1InternalData.html" target="_top" xlink:title="FE_PolyFace\&lt; PolynomialType,\l dim, spacedim \&gt;::InternalData">
<polygon fill="#ffffff" stroke="#000000" points="189.0215,-104.5 189.0215,-132.5 347.0381,-132.5 347.0381,-104.5 189.0215,-104.5"/>
<text text-anchor="start" x="197.0215" y="-120.5" font-family="Helvetica,sans-Serif" font-size="10.00" fill="#000000">FE_PolyFace&lt; PolynomialType,</text>
<text text-anchor="middle" x="268.0298" y="-110.5" font-family="Helvetica,sans-Serif" font-size="10.00" fill="#000000"> dim, spacedim &gt;::InternalData</text>
</a>
</g>
</g>
<!-- Node0&#45;&gt;Node5 -->
<g id="edge5" class="edge">
<title>Node0&#45;&gt;Node5</title>
<path fill="none" stroke="#191970" d="M143.6118,-149.033C165.5341,-143.6531 189.6637,-137.7315 210.7912,-132.5467"/>
<polygon fill="#191970" stroke="#191970" points="142.591,-145.6796 133.7134,-151.4621 144.2594,-152.4778 142.591,-145.6796"/>
</g>
<!-- Node6 -->
<g id="node7" class="node">
<title>Node6</title>
<g id="a_node7"><a xlink:href="classFE__PolyTensor_1_1InternalData.html" target="_top" xlink:title="FE_PolyTensor\&lt; Polynomial\lType, dim, spacedim \&gt;::\lInternalData">
<polygon fill="#ffffff" stroke="#000000" points="197.3613,-47.5 197.3613,-85.5 338.6982,-85.5 338.6982,-47.5 197.3613,-47.5"/>
<text text-anchor="start" x="205.3613" y="-73.5" font-family="Helvetica,sans-Serif" font-size="10.00" fill="#000000">FE_PolyTensor&lt; Polynomial</text>
<text text-anchor="start" x="205.3613" y="-63.5" font-family="Helvetica,sans-Serif" font-size="10.00" fill="#000000">Type, dim, spacedim &gt;::</text>
<text text-anchor="middle" x="268.0298" y="-53.5" font-family="Helvetica,sans-Serif" font-size="10.00" fill="#000000">InternalData</text>
</a>
</g>
</g>
<!-- Node0&#45;&gt;Node6 -->
<g id="edge6" class="edge">
<title>Node0&#45;&gt;Node6</title>
<path fill="none" stroke="#191970" d="M104.8188,-145.6175C127.0285,-130.586 159.091,-110.1123 189.0215,-95.5 196.2431,-91.9743 204.0086,-88.625 211.7509,-85.539"/>
<polygon fill="#191970" stroke="#191970" points="102.8027,-142.7561 96.5232,-151.2894 106.7536,-148.5346 102.8027,-142.7561"/>
</g>
<!-- Node7 -->
<g id="node8" class="node">
<title>Node7</title>
<g id="a_node8"><a xlink:href="classFESystem_1_1InternalData.html" target="_top" xlink:title="FESystem\&lt; dim, spacedim\l \&gt;::InternalData">
<polygon fill="#ffffff" stroke="#000000" points="200.4277,-.5 200.4277,-28.5 335.6318,-28.5 335.6318,-.5 200.4277,-.5"/>
<text text-anchor="start" x="208.4277" y="-16.5" font-family="Helvetica,sans-Serif" font-size="10.00" fill="#000000">FESystem&lt; dim, spacedim</text>
<text text-anchor="middle" x="268.0298" y="-6.5" font-family="Helvetica,sans-Serif" font-size="10.00" fill="#000000"> &gt;::InternalData</text>
</a>
</g>
</g>
<!-- Node0&#45;&gt;Node7 -->
<g id="edge7" class="edge">
<title>Node0&#45;&gt;Node7</title>
<path fill="none" stroke="#191970" d="M90.7135,-142.9069C109.7217,-114.4799 146.0665,-66.0549 189.0215,-38.5 195.0547,-34.6298 201.745,-31.3559 208.6058,-28.593"/>
<polygon fill="#191970" stroke="#191970" points="87.7142,-141.0984 85.1648,-151.3819 93.5707,-144.9327 87.7142,-141.0984"/>
</g>
</g>
</svg>
