<?xml version="1.0" encoding="UTF-8" standalone="no"?>
<!DOCTYPE svg PUBLIC "-//W3C//DTD SVG 1.1//EN"
 "http://www.w3.org/Graphics/SVG/1.1/DTD/svg11.dtd">
<!-- Generated by graphviz version 2.40.1 (20161225.0304)
 -->
<!-- Title: MGSmootherBlock&lt; MatrixType, RelaxationType, number &gt; Pages: 1 -->
<svg width="343pt" height="299pt"
 viewBox="0.00 0.00 342.81 299.00" xmlns="http://www.w3.org/2000/svg" xmlns:xlink="http://www.w3.org/1999/xlink">
<g id="graph0" class="graph" transform="scale(1 1) rotate(0) translate(4 295)">
<title>MGSmootherBlock&lt; MatrixType, RelaxationType, number &gt;</title>
<polygon fill="#ffffff" stroke="transparent" points="-4,4 -4,-295 338.8057,-295 338.8057,4 -4,4"/>
<!-- Node0 -->
<g id="node1" class="node">
<title>Node0</title>
<polygon fill="#bfbfbf" stroke="#000000" points="83.7314,-.5 83.7314,-28.5 243.9502,-28.5 243.9502,-.5 83.7314,-.5"/>
<text text-anchor="start" x="91.7314" y="-16.5" font-family="Helvetica,sans-Serif" font-size="10.00" fill="#000000">MGSmootherBlock&lt; MatrixType,</text>
<text text-anchor="middle" x="163.8408" y="-6.5" font-family="Helvetica,sans-Serif" font-size="10.00" fill="#000000"> RelaxationType, number &gt;</text>
</g>
<!-- Node1 -->
<g id="node2" class="node">
<title>Node1</title>
<g id="a_node2"><a xlink:href="classMGSmoother.html" target="_top" xlink:title="MGSmoother\&lt; BlockVector\l\&lt; number \&gt; \&gt;">
<polygon fill="#ffffff" stroke="#000000" points="95.3965,-66.5 95.3965,-94.5 232.2852,-94.5 232.2852,-66.5 95.3965,-66.5"/>
<text text-anchor="start" x="103.3965" y="-82.5" font-family="Helvetica,sans-Serif" font-size="10.00" fill="#000000">MGSmoother&lt; BlockVector</text>
<text text-anchor="middle" x="163.8408" y="-72.5" font-family="Helvetica,sans-Serif" font-size="10.00" fill="#000000">&lt; number &gt; &gt;</text>
</a>
</g>
</g>
<!-- Node1&#45;&gt;Node0 -->
<g id="edge1" class="edge">
<title>Node1&#45;&gt;Node0</title>
<path fill="none" stroke="#191970" d="M163.8408,-56.0322C163.8408,-46.8606 163.8408,-36.7449 163.8408,-28.7931"/>
<polygon fill="#191970" stroke="#191970" points="160.3409,-56.1789 163.8408,-66.179 167.3409,-56.179 160.3409,-56.1789"/>
</g>
<!-- Node2 -->
<g id="node3" class="node">
<title>Node2</title>
<g id="a_node3"><a xlink:href="classMGSmootherBase.html" target="_top" xlink:title="MGSmootherBase\&lt; BlockVector\l\&lt; number \&gt; \&gt;">
<polygon fill="#ffffff" stroke="#000000" points="0,-141.5 0,-169.5 159.6816,-169.5 159.6816,-141.5 0,-141.5"/>
<text text-anchor="start" x="8" y="-157.5" font-family="Helvetica,sans-Serif" font-size="10.00" fill="#000000">MGSmootherBase&lt; BlockVector</text>
<text text-anchor="middle" x="79.8408" y="-147.5" font-family="Helvetica,sans-Serif" font-size="10.00" fill="#000000">&lt; number &gt; &gt;</text>
</a>
</g>
</g>
<!-- Node2&#45;&gt;Node1 -->
<g id="edge2" class="edge">
<title>Node2&#45;&gt;Node1</title>
<path fill="none" stroke="#191970" d="M103.1684,-134.6718C117.4947,-121.8805 135.4604,-105.8397 148.1119,-94.5437"/>
<polygon fill="#191970" stroke="#191970" points="100.7689,-132.1221 95.6406,-141.3931 105.431,-137.3437 100.7689,-132.1221"/>
</g>
<!-- Node3 -->
<g id="node4" class="node">
<title>Node3</title>
<g id="a_node4"><a xlink:href="classSubscriptor.html" target="_top" xlink:title="Subscriptor">
<polygon fill="#ffffff" stroke="#000000" points="55.5527,-272.5 55.5527,-290.5 122.1289,-290.5 122.1289,-272.5 55.5527,-272.5"/>
<text text-anchor="middle" x="88.8408" y="-278.5" font-family="Helvetica,sans-Serif" font-size="10.00" fill="#000000">Subscriptor</text>
</a>
</g>
</g>
<!-- Node3&#45;&gt;Node2 -->
<g id="edge3" class="edge">
<title>Node3&#45;&gt;Node2</title>
<path fill="none" stroke="#191970" d="M87.4615,-262.1897C85.6397,-236.6844 82.4735,-192.3578 80.8557,-169.7089"/>
<polygon fill="#191970" stroke="#191970" points="83.9899,-262.7132 88.1936,-272.4384 90.9721,-262.2144 83.9899,-262.7132"/>
</g>
<!-- Node4 -->
<g id="node5" class="node">
<title>Node4</title>
<g id="a_node5"><a xlink:href="classMGSmootherBase.html" target="_top" xlink:title="MGSmootherBase\&lt; VectorType \&gt;">
<polygon fill="#ffffff" stroke="#000000" points="105.0752,-216.5 105.0752,-234.5 270.6064,-234.5 270.6064,-216.5 105.0752,-216.5"/>
<text text-anchor="middle" x="187.8408" y="-222.5" font-family="Helvetica,sans-Serif" font-size="10.00" fill="#000000">MGSmootherBase&lt; VectorType &gt;</text>
</a>
</g>
</g>
<!-- Node3&#45;&gt;Node4 -->
<g id="edge5" class="edge">
<title>Node3&#45;&gt;Node4</title>
<path fill="none" stroke="#191970" d="M114.0831,-267.2215C132.2436,-256.9489 156.1908,-243.4031 171.7972,-234.5752"/>
<polygon fill="#191970" stroke="#191970" points="112.1694,-264.2828 105.1887,-272.2527 115.6159,-270.3756 112.1694,-264.2828"/>
</g>
<!-- Node4&#45;&gt;Node2 -->
<g id="edge4" class="edge">
<title>Node4&#45;&gt;Node2</title>
<path fill="none" stroke="#ffa500" stroke-dasharray="5,2" d="M134.2453,-213.0449C124.526,-209.2416 114.9312,-204.3273 106.876,-198 97.3858,-190.5455 90.2711,-178.7779 85.7286,-169.5134"/>
<polygon fill="#ffa500" stroke="#ffa500" points="133.3589,-216.4441 143.9536,-216.4891 135.6993,-209.847 133.3589,-216.4441"/>
<text text-anchor="middle" x="169.8232" y="-190" font-family="Helvetica,sans-Serif" font-size="10.00" fill="#000000"> &lt; BlockVector&lt; number &gt; &gt;</text>
</g>
<!-- Node5 -->
<g id="node6" class="node">
<title>Node5</title>
<g id="a_node6"><a xlink:href="classMGSmoother.html" target="_top" xlink:title="MGSmoother\&lt; VectorType \&gt;">
<polygon fill="#ffffff" stroke="#000000" points="177.4717,-146.5 177.4717,-164.5 320.21,-164.5 320.21,-146.5 177.4717,-146.5"/>
<text text-anchor="middle" x="248.8408" y="-152.5" font-family="Helvetica,sans-Serif" font-size="10.00" fill="#000000">MGSmoother&lt; VectorType &gt;</text>
</a>
</g>
</g>
<!-- Node4&#45;&gt;Node5 -->
<g id="edge7" class="edge">
<title>Node4&#45;&gt;Node5</title>
<path fill="none" stroke="#191970" d="M219.7378,-211.1257C225.3489,-207.4798 230.7067,-203.1144 234.8408,-198 242.7523,-188.2128 246.2571,-173.7933 247.7643,-164.5236"/>
<polygon fill="#191970" stroke="#191970" points="217.7544,-208.2296 210.8513,-216.2669 221.2598,-214.2886 217.7544,-208.2296"/>
</g>
<!-- Node5&#45;&gt;Node1 -->
<g id="edge6" class="edge">
<title>Node5&#45;&gt;Node1</title>
<path fill="none" stroke="#ffa500" stroke-dasharray="5,2" d="M230.7556,-139.5424C215.6628,-126.2253 194.3538,-107.4232 179.8661,-94.64"/>
<polygon fill="#ffa500" stroke="#ffa500" points="228.6041,-142.3117 238.4182,-146.3035 233.2354,-137.0628 228.6041,-142.3117"/>
<text text-anchor="middle" x="272.8232" y="-115" font-family="Helvetica,sans-Serif" font-size="10.00" fill="#000000"> &lt; BlockVector&lt; number &gt; &gt;</text>
</g>
</g>
</svg>
