<?xml version="1.0" encoding="UTF-8" standalone="no"?>
<!DOCTYPE svg PUBLIC "-//W3C//DTD SVG 1.1//EN"
 "http://www.w3.org/Graphics/SVG/1.1/DTD/svg11.dtd">
<!-- Generated by graphviz version 2.40.1 (20161225.0304)
 -->
<!-- Title: Functions::LSingularityFunction Pages: 1 -->
<svg width="340pt" height="204pt"
 viewBox="0.00 0.00 340.24 204.00" xmlns="http://www.w3.org/2000/svg" xmlns:xlink="http://www.w3.org/1999/xlink">
<g id="graph0" class="graph" transform="scale(1 1) rotate(0) translate(4 200)">
<title>Functions::LSingularityFunction</title>
<polygon fill="#ffffff" stroke="transparent" points="-4,4 -4,-200 336.2441,-200 336.2441,4 -4,4"/>
<!-- Node0 -->
<g id="node1" class="node">
<title>Node0</title>
<polygon fill="#bfbfbf" stroke="#000000" points="73.9795,-.5 73.9795,-18.5 229.4961,-18.5 229.4961,-.5 73.9795,-.5"/>
<text text-anchor="middle" x="151.7378" y="-6.5" font-family="Helvetica,sans-Serif" font-size="10.00" fill="#000000">Functions::LSingularityFunction</text>
</g>
<!-- Node1 -->
<g id="node2" class="node">
<title>Node1</title>
<g id="a_node2"><a xlink:href="classFunction.html" target="_top" xlink:title="Function\&lt; 2 \&gt;">
<polygon fill="#ffffff" stroke="#000000" points="113.1616,-56.5 113.1616,-74.5 190.314,-74.5 190.314,-56.5 113.1616,-56.5"/>
<text text-anchor="middle" x="151.7378" y="-62.5" font-family="Helvetica,sans-Serif" font-size="10.00" fill="#000000">Function&lt; 2 &gt;</text>
</a>
</g>
</g>
<!-- Node1&#45;&gt;Node0 -->
<g id="edge1" class="edge">
<title>Node1&#45;&gt;Node0</title>
<path fill="none" stroke="#191970" d="M151.7378,-46.2065C151.7378,-36.8384 151.7378,-26.0262 151.7378,-18.5752"/>
<polygon fill="#191970" stroke="#191970" points="148.2379,-46.2527 151.7378,-56.2527 155.2379,-46.2528 148.2379,-46.2527"/>
</g>
<!-- Node2 -->
<g id="node3" class="node">
<title>Node2</title>
<g id="a_node3"><a xlink:href="classFunctionTime.html" target="_top" xlink:title="FunctionTime\&lt; double \&gt;">
<polygon fill="#ffffff" stroke="#000000" points="0,-121.5 0,-139.5 123.4756,-139.5 123.4756,-121.5 0,-121.5"/>
<text text-anchor="middle" x="61.7378" y="-127.5" font-family="Helvetica,sans-Serif" font-size="10.00" fill="#000000">FunctionTime&lt; double &gt;</text>
</a>
</g>
</g>
<!-- Node2&#45;&gt;Node1 -->
<g id="edge2" class="edge">
<title>Node2&#45;&gt;Node1</title>
<path fill="none" stroke="#191970" d="M82.6642,-115.3865C100.1105,-102.7864 124.3984,-85.2451 139.0398,-74.6708"/>
<polygon fill="#191970" stroke="#191970" points="80.3095,-112.7697 74.2519,-121.462 84.4079,-118.4445 80.3095,-112.7697"/>
</g>
<!-- Node3 -->
<g id="node4" class="node">
<title>Node3</title>
<g id="a_node4"><a xlink:href="classSubscriptor.html" target="_top" xlink:title="Subscriptor">
<polygon fill="#ffffff" stroke="#000000" points="118.4497,-177.5 118.4497,-195.5 185.0259,-195.5 185.0259,-177.5 118.4497,-177.5"/>
<text text-anchor="middle" x="151.7378" y="-183.5" font-family="Helvetica,sans-Serif" font-size="10.00" fill="#000000">Subscriptor</text>
</a>
</g>
</g>
<!-- Node3&#45;&gt;Node1 -->
<g id="edge3" class="edge">
<title>Node3&#45;&gt;Node1</title>
<path fill="none" stroke="#191970" d="M151.7378,-167.1238C151.7378,-140.6786 151.7378,-94.3298 151.7378,-74.7002"/>
<polygon fill="#191970" stroke="#191970" points="148.2379,-167.4053 151.7378,-177.4053 155.2379,-167.4054 148.2379,-167.4053"/>
</g>
<!-- Node4 -->
<g id="node5" class="node">
<title>Node4</title>
<g id="a_node5"><a xlink:href="classFunction.html" target="_top" xlink:title="Function\&lt; dim, Number \&gt;">
<polygon fill="#ffffff" stroke="#000000" points="179.3242,-121.5 179.3242,-139.5 308.1514,-139.5 308.1514,-121.5 179.3242,-121.5"/>
<text text-anchor="middle" x="243.7378" y="-127.5" font-family="Helvetica,sans-Serif" font-size="10.00" fill="#000000">Function&lt; dim, Number &gt;</text>
</a>
</g>
</g>
<!-- Node3&#45;&gt;Node4 -->
<g id="edge6" class="edge">
<title>Node3&#45;&gt;Node4</title>
<path fill="none" stroke="#191970" d="M175.6611,-171.938C192.4794,-161.7008 214.4587,-148.3221 228.8286,-139.5752"/>
<polygon fill="#191970" stroke="#191970" points="173.6519,-169.0635 166.9297,-177.2527 177.2916,-175.0429 173.6519,-169.0635"/>
</g>
<!-- Node4&#45;&gt;Node1 -->
<g id="edge4" class="edge">
<title>Node4&#45;&gt;Node1</title>
<path fill="none" stroke="#ffa500" stroke-dasharray="5,2" d="M222.3463,-115.3865C204.5123,-102.7864 179.6847,-85.2451 164.7179,-74.6708"/>
<polygon fill="#ffa500" stroke="#ffa500" points="220.7587,-118.5502 230.9456,-121.462 224.798,-112.8331 220.7587,-118.5502"/>
<text text-anchor="middle" x="216.5259" y="-95" font-family="Helvetica,sans-Serif" font-size="10.00" fill="#000000"> &lt; 2 &gt;</text>
</g>
<!-- Node5 -->
<g id="node6" class="node">
<title>Node5</title>
<g id="a_node6"><a xlink:href="classFunctionTime.html" target="_top" xlink:title="FunctionTime\&lt; Number \&gt;">
<polygon fill="#ffffff" stroke="#000000" points="203.2314,-177.5 203.2314,-195.5 332.2441,-195.5 332.2441,-177.5 203.2314,-177.5"/>
<text text-anchor="middle" x="267.7378" y="-183.5" font-family="Helvetica,sans-Serif" font-size="10.00" fill="#000000">FunctionTime&lt; Number &gt;</text>
</a>
</g>
</g>
<!-- Node5&#45;&gt;Node4 -->
<g id="edge5" class="edge">
<title>Node5&#45;&gt;Node4</title>
<path fill="none" stroke="#191970" d="M259.7301,-167.8154C255.6564,-158.3101 250.8899,-147.1882 247.6272,-139.5752"/>
<polygon fill="#191970" stroke="#191970" points="256.6184,-169.44 263.7747,-177.2527 263.0524,-166.6825 256.6184,-169.44"/>
</g>
</g>
</svg>
