<?xml version="1.0" encoding="UTF-8" standalone="no"?>
<!DOCTYPE svg PUBLIC "-//W3C//DTD SVG 1.1//EN"
 "http://www.w3.org/Graphics/SVG/1.1/DTD/svg11.dtd">
<!-- Generated by graphviz version 2.40.1 (20161225.0304)
 -->
<!-- Title: MGSmootherIdentity&lt; VectorType &gt; Pages: 1 -->
<svg width="174pt" height="147pt"
 viewBox="0.00 0.00 173.53 147.00" xmlns="http://www.w3.org/2000/svg" xmlns:xlink="http://www.w3.org/1999/xlink">
<g id="graph0" class="graph" transform="scale(1 1) rotate(0) translate(4 143)">
<title>MGSmootherIdentity&lt; VectorType &gt;</title>
<polygon fill="#ffffff" stroke="transparent" points="-4,4 -4,-143 169.5313,-143 169.5313,4 -4,4"/>
<!-- Node0 -->
<g id="node1" class="node">
<title>Node0</title>
<polygon fill="#bfbfbf" stroke="#000000" points="28.9136,-.5 28.9136,-28.5 136.6177,-28.5 136.6177,-.5 28.9136,-.5"/>
<text text-anchor="start" x="36.9136" y="-16.5" font-family="Helvetica,sans-Serif" font-size="10.00" fill="#000000">MGSmootherIdentity</text>
<text text-anchor="middle" x="82.7656" y="-6.5" font-family="Helvetica,sans-Serif" font-size="10.00" fill="#000000">&lt; VectorType &gt;</text>
</g>
<!-- Node1 -->
<g id="node2" class="node">
<title>Node1</title>
<g id="a_node2"><a xlink:href="classMGSmootherBase.html" target="_top" xlink:title="MGSmootherBase\&lt; VectorType \&gt;">
<polygon fill="#ffffff" stroke="#000000" points="0,-65.5 0,-83.5 165.5313,-83.5 165.5313,-65.5 0,-65.5"/>
<text text-anchor="middle" x="82.7656" y="-71.5" font-family="Helvetica,sans-Serif" font-size="10.00" fill="#000000">MGSmootherBase&lt; VectorType &gt;</text>
</a>
</g>
</g>
<!-- Node1&#45;&gt;Node0 -->
<g id="edge1" class="edge">
<title>Node1&#45;&gt;Node0</title>
<path fill="none" stroke="#191970" d="M82.7656,-55.1865C82.7656,-46.6283 82.7656,-36.7354 82.7656,-28.8477"/>
<polygon fill="#191970" stroke="#191970" points="79.2657,-55.3873 82.7656,-65.3873 86.2657,-55.3873 79.2657,-55.3873"/>
</g>
<!-- Node2 -->
<g id="node3" class="node">
<title>Node2</title>
<g id="a_node3"><a xlink:href="classSubscriptor.html" target="_top" xlink:title="Subscriptor">
<polygon fill="#ffffff" stroke="#000000" points="49.4775,-120.5 49.4775,-138.5 116.0537,-138.5 116.0537,-120.5 49.4775,-120.5"/>
<text text-anchor="middle" x="82.7656" y="-126.5" font-family="Helvetica,sans-Serif" font-size="10.00" fill="#000000">Subscriptor</text>
</a>
</g>
</g>
<!-- Node2&#45;&gt;Node1 -->
<g id="edge2" class="edge">
<title>Node2&#45;&gt;Node1</title>
<path fill="none" stroke="#191970" d="M82.7656,-110.383C82.7656,-101.3738 82.7656,-91.0373 82.7656,-83.7795"/>
<polygon fill="#191970" stroke="#191970" points="79.2657,-110.4178 82.7656,-120.4179 86.2657,-110.4179 79.2657,-110.4178"/>
</g>
</g>
</svg>
