<?xml version="1.0" encoding="UTF-8" standalone="no"?>
<!DOCTYPE svg PUBLIC "-//W3C//DTD SVG 1.1//EN"
 "http://www.w3.org/Graphics/SVG/1.1/DTD/svg11.dtd">
<!-- Generated by graphviz version 2.40.1 (20161225.0304)
 -->
<!-- Title: FE_P1NC Pages: 1 -->
<svg width="206pt" height="224pt"
 viewBox="0.00 0.00 206.34 224.00" xmlns="http://www.w3.org/2000/svg" xmlns:xlink="http://www.w3.org/1999/xlink">
<g id="graph0" class="graph" transform="scale(1 1) rotate(0) translate(4 220)">
<title>FE_P1NC</title>
<polygon fill="#ffffff" stroke="transparent" points="-4,4 -4,-220 202.3384,-220 202.3384,4 -4,4"/>
<!-- Node0 -->
<g id="node1" class="node">
<title>Node0</title>
<polygon fill="#bfbfbf" stroke="#000000" points="44.7808,-.5 44.7808,-18.5 105.7954,-18.5 105.7954,-.5 44.7808,-.5"/>
<text text-anchor="middle" x="75.2881" y="-6.5" font-family="Helvetica,sans-Serif" font-size="10.00" fill="#000000">FE_P1NC</text>
</g>
<!-- Node1 -->
<g id="node2" class="node">
<title>Node1</title>
<g id="a_node2"><a xlink:href="classFiniteElement.html" target="_top" xlink:title="FiniteElement\&lt; 2, 2 \&gt;">
<polygon fill="#ffffff" stroke="#000000" points="19.7612,-56.5 19.7612,-74.5 130.8149,-74.5 130.8149,-56.5 19.7612,-56.5"/>
<text text-anchor="middle" x="75.2881" y="-62.5" font-family="Helvetica,sans-Serif" font-size="10.00" fill="#000000">FiniteElement&lt; 2, 2 &gt;</text>
</a>
</g>
</g>
<!-- Node1&#45;&gt;Node0 -->
<g id="edge1" class="edge">
<title>Node1&#45;&gt;Node0</title>
<path fill="none" stroke="#191970" d="M75.2881,-46.2065C75.2881,-36.8384 75.2881,-26.0262 75.2881,-18.5752"/>
<polygon fill="#191970" stroke="#191970" points="71.7882,-46.2527 75.2881,-56.2527 78.7882,-46.2528 71.7882,-46.2527"/>
</g>
<!-- Node2 -->
<g id="node3" class="node">
<title>Node2</title>
<g id="a_node3"><a xlink:href="classSubscriptor.html" target="_top" xlink:title="Subscriptor">
<polygon fill="#ffffff" stroke="#000000" points="0,-192.5 0,-210.5 66.5762,-210.5 66.5762,-192.5 0,-192.5"/>
<text text-anchor="middle" x="33.2881" y="-198.5" font-family="Helvetica,sans-Serif" font-size="10.00" fill="#000000">Subscriptor</text>
</a>
</g>
</g>
<!-- Node2&#45;&gt;Node1 -->
<g id="edge2" class="edge">
<title>Node2&#45;&gt;Node1</title>
<path fill="none" stroke="#191970" d="M22.3891,-182.9877C14.0415,-166.2584 5.3441,-141.2294 14.2881,-121 23.4356,-100.3101 44.5278,-84.0182 59.336,-74.5767"/>
<polygon fill="#191970" stroke="#191970" points="19.544,-185.0843 27.3807,-192.2144 25.7008,-181.7535 19.544,-185.0843"/>
</g>
<!-- Node4 -->
<g id="node5" class="node">
<title>Node4</title>
<g id="a_node5"><a xlink:href="classFiniteElement.html" target="_top" xlink:title="FiniteElement\&lt; dim,\l spacedim \&gt;">
<polygon fill="#ffffff" stroke="#000000" points="22.9644,-121.5 22.9644,-149.5 127.6118,-149.5 127.6118,-121.5 22.9644,-121.5"/>
<text text-anchor="start" x="30.9644" y="-137.5" font-family="Helvetica,sans-Serif" font-size="10.00" fill="#000000">FiniteElement&lt; dim,</text>
<text text-anchor="middle" x="75.2881" y="-127.5" font-family="Helvetica,sans-Serif" font-size="10.00" fill="#000000"> spacedim &gt;</text>
</a>
</g>
</g>
<!-- Node2&#45;&gt;Node4 -->
<g id="edge5" class="edge">
<title>Node2&#45;&gt;Node4</title>
<path fill="none" stroke="#191970" d="M44.5566,-183.7924C51.3592,-173.1025 59.911,-159.6639 66.2651,-149.6789"/>
<polygon fill="#191970" stroke="#191970" points="41.544,-182.0073 39.128,-192.323 47.4496,-185.7654 41.544,-182.0073"/>
</g>
<!-- Node3 -->
<g id="node4" class="node">
<title>Node3</title>
<g id="a_node4"><a xlink:href="classFiniteElementData.html" target="_top" xlink:title="FiniteElementData\&lt;\l dim \&gt;">
<polygon fill="#ffffff" stroke="#000000" points="94.2378,-187.5 94.2378,-215.5 198.3384,-215.5 198.3384,-187.5 94.2378,-187.5"/>
<text text-anchor="start" x="102.2378" y="-203.5" font-family="Helvetica,sans-Serif" font-size="10.00" fill="#000000">FiniteElementData&lt;</text>
<text text-anchor="middle" x="146.2881" y="-193.5" font-family="Helvetica,sans-Serif" font-size="10.00" fill="#000000"> dim &gt;</text>
</a>
</g>
</g>
<!-- Node3&#45;&gt;Node1 -->
<g id="edge3" class="edge">
<title>Node3&#45;&gt;Node1</title>
<path fill="none" stroke="#191970" d="M146.3521,-176.9606C145.6531,-160.6065 143.274,-138.9092 136.2881,-121 130.7305,-106.7525 127.2599,-103.6535 116.2881,-93 109.0321,-85.9546 99.7543,-79.5614 91.8601,-74.7161"/>
<polygon fill="#191970" stroke="#191970" points="142.8617,-177.4047 146.6035,-187.3168 149.8597,-177.2347 142.8617,-177.4047"/>
</g>
<!-- Node3&#45;&gt;Node4 -->
<g id="edge6" class="edge">
<title>Node3&#45;&gt;Node4</title>
<path fill="none" stroke="#191970" d="M123.4564,-180.2762C112.7357,-170.3105 100.2409,-158.6956 90.664,-149.7931"/>
<polygon fill="#191970" stroke="#191970" points="121.1749,-182.934 130.8821,-187.179 125.9408,-177.807 121.1749,-182.934"/>
</g>
<!-- Node4&#45;&gt;Node1 -->
<g id="edge4" class="edge">
<title>Node4&#45;&gt;Node1</title>
<path fill="none" stroke="#ffa500" stroke-dasharray="5,2" d="M75.2881,-111.007C75.2881,-98.4648 75.2881,-83.9386 75.2881,-74.7368"/>
<polygon fill="#ffa500" stroke="#ffa500" points="71.7882,-111.3344 75.2881,-121.3345 78.7882,-111.3345 71.7882,-111.3344"/>
<text text-anchor="middle" x="93.6353" y="-95" font-family="Helvetica,sans-Serif" font-size="10.00" fill="#000000"> &lt; 2, 2 &gt;</text>
</g>
</g>
</svg>
