<?xml version="1.0" encoding="UTF-8" standalone="no"?>
<!DOCTYPE svg PUBLIC "-//W3C//DTD SVG 1.1//EN"
 "http://www.w3.org/Graphics/SVG/1.1/DTD/svg11.dtd">
<!-- Generated by graphviz version 2.40.1 (20161225.0304)
 -->
<!-- Title: Table&lt; 6, T &gt; Pages: 1 -->
<svg width="167pt" height="204pt"
 viewBox="0.00 0.00 166.64 204.00" xmlns="http://www.w3.org/2000/svg" xmlns:xlink="http://www.w3.org/1999/xlink">
<g id="graph0" class="graph" transform="scale(1 1) rotate(0) translate(4 200)">
<title>Table&lt; 6, T &gt;</title>
<polygon fill="#ffffff" stroke="transparent" points="-4,4 -4,-200 162.6406,-200 162.6406,4 -4,4"/>
<!-- Node0 -->
<g id="node1" class="node">
<title>Node0</title>
<polygon fill="#bfbfbf" stroke="#000000" points="11.3965,-.5 11.3965,-18.5 85.4141,-18.5 85.4141,-.5 11.3965,-.5"/>
<text text-anchor="middle" x="48.4053" y="-6.5" font-family="Helvetica,sans-Serif" font-size="10.00" fill="#000000">Table&lt; 6, T &gt;</text>
</g>
<!-- Node1 -->
<g id="node2" class="node">
<title>Node1</title>
<g id="a_node2"><a xlink:href="classTableBase.html" target="_top" xlink:title="TableBase\&lt; 6, T \&gt;">
<polygon fill="#ffffff" stroke="#000000" points="0,-56.5 0,-74.5 96.8105,-74.5 96.8105,-56.5 0,-56.5"/>
<text text-anchor="middle" x="48.4053" y="-62.5" font-family="Helvetica,sans-Serif" font-size="10.00" fill="#000000">TableBase&lt; 6, T &gt;</text>
</a>
</g>
</g>
<!-- Node1&#45;&gt;Node0 -->
<g id="edge1" class="edge">
<title>Node1&#45;&gt;Node0</title>
<path fill="none" stroke="#191970" d="M48.4053,-46.2065C48.4053,-36.8384 48.4053,-26.0262 48.4053,-18.5752"/>
<polygon fill="#191970" stroke="#191970" points="44.9054,-46.2527 48.4053,-56.2527 51.9054,-46.2528 44.9054,-46.2527"/>
</g>
<!-- Node2 -->
<g id="node3" class="node">
<title>Node2</title>
<g id="a_node3"><a xlink:href="classSubscriptor.html" target="_top" xlink:title="Subscriptor">
<polygon fill="#ffffff" stroke="#000000" points="11.1172,-177.5 11.1172,-195.5 77.6934,-195.5 77.6934,-177.5 11.1172,-177.5"/>
<text text-anchor="middle" x="44.4053" y="-183.5" font-family="Helvetica,sans-Serif" font-size="10.00" fill="#000000">Subscriptor</text>
</a>
</g>
</g>
<!-- Node2&#45;&gt;Node1 -->
<g id="edge2" class="edge">
<title>Node2&#45;&gt;Node1</title>
<path fill="none" stroke="#191970" d="M45.0458,-167.1238C45.92,-140.6786 47.4522,-94.3298 48.1011,-74.7002"/>
<polygon fill="#191970" stroke="#191970" points="41.5383,-167.2951 44.7059,-177.4053 48.5345,-167.5265 41.5383,-167.2951"/>
</g>
<!-- Node3 -->
<g id="node4" class="node">
<title>Node3</title>
<g id="a_node4"><a xlink:href="classTableBase.html" target="_top" xlink:title="TableBase\&lt; N, T \&gt;">
<polygon fill="#ffffff" stroke="#000000" points="60.1699,-121.5 60.1699,-139.5 158.6406,-139.5 158.6406,-121.5 60.1699,-121.5"/>
<text text-anchor="middle" x="109.4053" y="-127.5" font-family="Helvetica,sans-Serif" font-size="10.00" fill="#000000">TableBase&lt; N, T &gt;</text>
</a>
</g>
</g>
<!-- Node2&#45;&gt;Node3 -->
<g id="edge4" class="edge">
<title>Node2&#45;&gt;Node3</title>
<path fill="none" stroke="#191970" d="M62.9805,-170.4967C74.6164,-160.4719 89.189,-147.9171 98.8716,-139.5752"/>
<polygon fill="#191970" stroke="#191970" points="60.4303,-168.074 55.1387,-177.2527 64.9993,-173.3773 60.4303,-168.074"/>
</g>
<!-- Node3&#45;&gt;Node1 -->
<g id="edge3" class="edge">
<title>Node3&#45;&gt;Node1</title>
<path fill="none" stroke="#ffa500" stroke-dasharray="5,2" d="M93.9453,-114.0262C82.3169,-101.6354 66.7981,-85.0989 57.2101,-74.8821"/>
<polygon fill="#ffa500" stroke="#ffa500" points="91.5281,-116.5652 100.9235,-121.462 96.6325,-111.775 91.5281,-116.5652"/>
<text text-anchor="middle" x="100.8501" y="-95" font-family="Helvetica,sans-Serif" font-size="10.00" fill="#000000"> &lt; 6, T &gt;</text>
</g>
</g>
</svg>
