<?xml version="1.0" encoding="UTF-8" standalone="no"?>
<!DOCTYPE svg PUBLIC "-//W3C//DTD SVG 1.1//EN"
 "http://www.w3.org/Graphics/SVG/1.1/DTD/svg11.dtd">
<!-- Generated by graphviz version 2.40.1 (20161225.0304)
 -->
<!-- Title: LinearAlgebra::CommunicationPatternBase Pages: 1 -->
<svg width="306pt" height="102pt"
 viewBox="0.00 0.00 305.57 102.00" xmlns="http://www.w3.org/2000/svg" xmlns:xlink="http://www.w3.org/1999/xlink">
<g id="graph0" class="graph" transform="scale(1 1) rotate(0) translate(4 98)">
<title>LinearAlgebra::CommunicationPatternBase</title>
<polygon fill="#ffffff" stroke="transparent" points="-4,4 -4,-98 301.5742,-98 301.5742,4 -4,4"/>
<!-- Node0 -->
<g id="node1" class="node">
<title>Node0</title>
<polygon fill="#bfbfbf" stroke="#000000" points="80.5796,-65.5 80.5796,-93.5 233.8745,-93.5 233.8745,-65.5 80.5796,-65.5"/>
<text text-anchor="start" x="88.5796" y="-81.5" font-family="Helvetica,sans-Serif" font-size="10.00" fill="#000000">LinearAlgebra::Communication</text>
<text text-anchor="middle" x="157.2271" y="-71.5" font-family="Helvetica,sans-Serif" font-size="10.00" fill="#000000">PatternBase</text>
</g>
<!-- Node1 -->
<g id="node2" class="node">
<title>Node1</title>
<g id="a_node2"><a xlink:href="classLinearAlgebra_1_1EpetraWrappers_1_1CommunicationPattern.html" target="_top" xlink:title="LinearAlgebra::EpetraWrappers\l::CommunicationPattern">
<polygon fill="#ffffff" stroke="#000000" points="0,-.5 0,-28.5 156.4541,-28.5 156.4541,-.5 0,-.5"/>
<text text-anchor="start" x="8" y="-16.5" font-family="Helvetica,sans-Serif" font-size="10.00" fill="#000000">LinearAlgebra::EpetraWrappers</text>
<text text-anchor="middle" x="78.2271" y="-6.5" font-family="Helvetica,sans-Serif" font-size="10.00" fill="#000000">::CommunicationPattern</text>
</a>
</g>
</g>
<!-- Node0&#45;&gt;Node1 -->
<g id="edge1" class="edge">
<title>Node0&#45;&gt;Node1</title>
<path fill="none" stroke="#191970" d="M132.1697,-58.8832C120.1644,-49.0054 106.095,-37.4293 95.3354,-28.5765"/>
<polygon fill="#191970" stroke="#191970" points="130.1393,-61.745 140.0852,-65.396 134.5869,-56.3395 130.1393,-61.745"/>
</g>
<!-- Node2 -->
<g id="node3" class="node">
<title>Node2</title>
<g id="a_node3"><a xlink:href="classUtilities_1_1MPI_1_1Partitioner.html" target="_top" xlink:title="Utilities::MPI::Partitioner">
<polygon fill="#ffffff" stroke="#000000" points="174.8799,-5.5 174.8799,-23.5 297.5742,-23.5 297.5742,-5.5 174.8799,-5.5"/>
<text text-anchor="middle" x="236.2271" y="-11.5" font-family="Helvetica,sans-Serif" font-size="10.00" fill="#000000">Utilities::MPI::Partitioner</text>
</a>
</g>
</g>
<!-- Node0&#45;&gt;Node2 -->
<g id="edge2" class="edge">
<title>Node0&#45;&gt;Node2</title>
<path fill="none" stroke="#191970" d="M182.4411,-58.7543C196.8444,-46.9034 214.1766,-32.6427 225.1983,-23.5743"/>
<polygon fill="#191970" stroke="#191970" points="179.8672,-56.3395 174.3689,-65.396 184.3148,-61.745 179.8672,-56.3395"/>
</g>
</g>
</svg>
