<?xml version="1.0" encoding="UTF-8" standalone="no"?>
<!DOCTYPE svg PUBLIC "-//W3C//DTD SVG 1.1//EN"
 "http://www.w3.org/Graphics/SVG/1.1/DTD/svg11.dtd">
<!-- Generated by graphviz version 2.40.1 (20161225.0304)
 -->
<!-- Title: MGSmootherBase&lt; VectorType &gt; Pages: 1 -->
<svg width="1091pt" height="186pt"
 viewBox="0.00 0.00 1090.83 186.00" xmlns="http://www.w3.org/2000/svg" xmlns:xlink="http://www.w3.org/1999/xlink">
<g id="graph0" class="graph" transform="scale(1 1) rotate(0) translate(4 182)">
<title>MGSmootherBase&lt; VectorType &gt;</title>
<polygon fill="#ffffff" stroke="transparent" points="-4,4 -4,-182 1086.8262,-182 1086.8262,4 -4,4"/>
<!-- Node0 -->
<g id="node1" class="node">
<title>Node0</title>
<polygon fill="#bfbfbf" stroke="#000000" points="103.5762,-52.5 103.5762,-70.5 269.1074,-70.5 269.1074,-52.5 103.5762,-52.5"/>
<text text-anchor="middle" x="186.3418" y="-58.5" font-family="Helvetica,sans-Serif" font-size="10.00" fill="#000000">MGSmootherBase&lt; VectorType &gt;</text>
</g>
<!-- Node2 -->
<g id="node3" class="node">
<title>Node2</title>
<g id="a_node3"><a xlink:href="classMGSmoother.html" target="_top" xlink:title="MGSmoother\&lt; VectorType \&gt;">
<polygon fill="#ffffff" stroke="#000000" points="437.5439,-94.5 437.5439,-112.5 580.2822,-112.5 580.2822,-94.5 437.5439,-94.5"/>
<text text-anchor="middle" x="508.9131" y="-100.5" font-family="Helvetica,sans-Serif" font-size="10.00" fill="#000000">MGSmoother&lt; VectorType &gt;</text>
</a>
</g>
</g>
<!-- Node0&#45;&gt;Node2 -->
<g id="edge2" class="edge">
<title>Node0&#45;&gt;Node2</title>
<path fill="none" stroke="#191970" d="M260.3955,-71.8962C269.3923,-73.1275 278.457,-74.3531 287.1074,-75.5 337.3197,-82.1572 393.9776,-89.3033 437.4615,-94.7099"/>
<polygon fill="#191970" stroke="#191970" points="260.6759,-68.4019 250.2924,-70.5075 259.7226,-75.3367 260.6759,-68.4019"/>
</g>
<!-- Node8 -->
<g id="node9" class="node">
<title>Node8</title>
<g id="a_node9"><a xlink:href="classMGSmootherIdentity.html" target="_top" xlink:title="MGSmootherIdentity\l\&lt; VectorType \&gt;">
<polygon fill="#ffffff" stroke="#000000" points="455.061,-47.5 455.061,-75.5 562.7651,-75.5 562.7651,-47.5 455.061,-47.5"/>
<text text-anchor="start" x="463.061" y="-63.5" font-family="Helvetica,sans-Serif" font-size="10.00" fill="#000000">MGSmootherIdentity</text>
<text text-anchor="middle" x="508.9131" y="-53.5" font-family="Helvetica,sans-Serif" font-size="10.00" fill="#000000">&lt; VectorType &gt;</text>
</a>
</g>
</g>
<!-- Node0&#45;&gt;Node8 -->
<g id="edge8" class="edge">
<title>Node0&#45;&gt;Node8</title>
<path fill="none" stroke="#191970" d="M279.506,-61.5C336.4227,-61.5 407.2057,-61.5 454.9758,-61.5"/>
<polygon fill="#191970" stroke="#191970" points="279.412,-58.0001 269.4119,-61.5 279.4119,-65.0001 279.412,-58.0001"/>
</g>
<!-- Node9 -->
<g id="node10" class="node">
<title>Node9</title>
<g id="a_node10"><a xlink:href="classMGSmootherBase.html" target="_top" xlink:title="MGSmootherBase\&lt; BlockVector\l\&lt; number \&gt; \&gt;">
<polygon fill="#ffffff" stroke="#000000" points="429.0723,-.5 429.0723,-28.5 588.7539,-28.5 588.7539,-.5 429.0723,-.5"/>
<text text-anchor="start" x="437.0723" y="-16.5" font-family="Helvetica,sans-Serif" font-size="10.00" fill="#000000">MGSmootherBase&lt; BlockVector</text>
<text text-anchor="middle" x="508.9131" y="-6.5" font-family="Helvetica,sans-Serif" font-size="10.00" fill="#000000">&lt; number &gt; &gt;</text>
</a>
</g>
</g>
<!-- Node0&#45;&gt;Node9 -->
<g id="edge9" class="edge">
<title>Node0&#45;&gt;Node9</title>
<path fill="none" stroke="#ffa500" stroke-dasharray="5,2" d="M258.3598,-51.0067C308.9649,-43.6333 376.6856,-33.7661 428.9635,-26.149"/>
<polygon fill="#ffa500" stroke="#ffa500" points="257.546,-47.5882 248.1551,-52.4935 258.5553,-54.5151 257.546,-47.5882"/>
<text text-anchor="middle" x="349.0898" y="-48.5" font-family="Helvetica,sans-Serif" font-size="10.00" fill="#000000"> &lt; BlockVector&lt; number &gt; &gt;</text>
</g>
<!-- Node1 -->
<g id="node2" class="node">
<title>Node1</title>
<g id="a_node2"><a xlink:href="classSubscriptor.html" target="_top" xlink:title="Subscriptor">
<polygon fill="#ffffff" stroke="#000000" points="0,-52.5 0,-70.5 66.5762,-70.5 66.5762,-52.5 0,-52.5"/>
<text text-anchor="middle" x="33.2881" y="-58.5" font-family="Helvetica,sans-Serif" font-size="10.00" fill="#000000">Subscriptor</text>
</a>
</g>
</g>
<!-- Node1&#45;&gt;Node0 -->
<g id="edge1" class="edge">
<title>Node1&#45;&gt;Node0</title>
<path fill="none" stroke="#191970" d="M77.0111,-61.5C85.3108,-61.5 94.2455,-61.5 103.3026,-61.5"/>
<polygon fill="#191970" stroke="#191970" points="76.8764,-58.0001 66.8764,-61.5 76.8763,-65.0001 76.8764,-58.0001"/>
</g>
<!-- Node3 -->
<g id="node4" class="node">
<title>Node3</title>
<g id="a_node4"><a xlink:href="classmg_1_1SmootherRelaxation.html" target="_top" xlink:title="mg::SmootherRelaxation\l\&lt; VectorType \&gt;">
<polygon fill="#ffffff" stroke="#000000" points="754.1362,-149.5 754.1362,-177.5 880.1899,-177.5 880.1899,-149.5 754.1362,-149.5"/>
<text text-anchor="start" x="762.1362" y="-165.5" font-family="Helvetica,sans-Serif" font-size="10.00" fill="#000000">mg::SmootherRelaxation</text>
<text text-anchor="middle" x="817.1631" y="-155.5" font-family="Helvetica,sans-Serif" font-size="10.00" fill="#000000">&lt; VectorType &gt;</text>
</a>
</g>
</g>
<!-- Node2&#45;&gt;Node3 -->
<g id="edge3" class="edge">
<title>Node2&#45;&gt;Node3</title>
<path fill="none" stroke="#191970" d="M562.8745,-114.669C577.1349,-117.5828 592.5189,-120.6921 606.7539,-123.5 656.1852,-133.2503 712.2361,-143.8852 754.0506,-151.7367"/>
<polygon fill="#191970" stroke="#191970" points="563.2207,-111.1674 552.7217,-112.5891 561.8158,-118.0249 563.2207,-111.1674"/>
</g>
<!-- Node4 -->
<g id="node5" class="node">
<title>Node4</title>
<g id="a_node5"><a xlink:href="classMGSmootherPrecondition.html" target="_top" xlink:title="MGSmootherPrecondition\l\&lt; VectorType \&gt;">
<polygon fill="#ffffff" stroke="#000000" points="751.6362,-102.5 751.6362,-130.5 882.6899,-130.5 882.6899,-102.5 751.6362,-102.5"/>
<text text-anchor="start" x="759.6362" y="-118.5" font-family="Helvetica,sans-Serif" font-size="10.00" fill="#000000">MGSmootherPrecondition</text>
<text text-anchor="middle" x="817.1631" y="-108.5" font-family="Helvetica,sans-Serif" font-size="10.00" fill="#000000">&lt; VectorType &gt;</text>
</a>
</g>
</g>
<!-- Node2&#45;&gt;Node4 -->
<g id="edge4" class="edge">
<title>Node2&#45;&gt;Node4</title>
<path fill="none" stroke="#191970" d="M590.6061,-106.9453C640.921,-109.0672 704.5661,-111.7514 751.579,-113.7341"/>
<polygon fill="#191970" stroke="#191970" points="590.5452,-103.4397 580.4066,-106.5151 590.2502,-110.4335 590.5452,-103.4397"/>
</g>
<!-- Node5 -->
<g id="node6" class="node">
<title>Node5</title>
<g id="a_node6"><a xlink:href="classMGSmootherRelaxation.html" target="_top" xlink:title="MGSmootherRelaxation\l\&lt; VectorType \&gt;">
<polygon fill="#ffffff" stroke="#000000" points="755.8062,-55.5 755.8062,-83.5 878.52,-83.5 878.52,-55.5 755.8062,-55.5"/>
<text text-anchor="start" x="763.8062" y="-71.5" font-family="Helvetica,sans-Serif" font-size="10.00" fill="#000000">MGSmootherRelaxation</text>
<text text-anchor="middle" x="817.1631" y="-61.5" font-family="Helvetica,sans-Serif" font-size="10.00" fill="#000000">&lt; VectorType &gt;</text>
</a>
</g>
</g>
<!-- Node2&#45;&gt;Node5 -->
<g id="edge5" class="edge">
<title>Node2&#45;&gt;Node5</title>
<path fill="none" stroke="#191970" d="M590.5687,-94.4934C642.3703,-88.7797 708.3132,-81.5062 755.6866,-76.2809"/>
<polygon fill="#191970" stroke="#191970" points="589.9626,-91.0389 580.4066,-95.6143 590.7301,-97.9967 589.9626,-91.0389"/>
</g>
<!-- Node6 -->
<g id="node7" class="node">
<title>Node6</title>
<g id="a_node7"><a xlink:href="classMGSmoother.html" target="_top" xlink:title="MGSmoother\&lt; BlockVector\l\&lt; number \&gt; \&gt;">
<polygon fill="#ffffff" stroke="#000000" points="748.7188,-5.5 748.7188,-33.5 885.6074,-33.5 885.6074,-5.5 748.7188,-5.5"/>
<text text-anchor="start" x="756.7188" y="-21.5" font-family="Helvetica,sans-Serif" font-size="10.00" fill="#000000">MGSmoother&lt; BlockVector</text>
<text text-anchor="middle" x="817.1631" y="-11.5" font-family="Helvetica,sans-Serif" font-size="10.00" fill="#000000">&lt; number &gt; &gt;</text>
</a>
</g>
</g>
<!-- Node2&#45;&gt;Node6 -->
<g id="edge6" class="edge">
<title>Node2&#45;&gt;Node6</title>
<path fill="none" stroke="#ffa500" stroke-dasharray="5,2" d="M577.9721,-90.8653C581.7121,-89.2831 585.3343,-87.503 588.7539,-85.5 599.0729,-79.4559 596.4153,-71.5105 606.7539,-65.5 649.9093,-40.4108 705.2749,-28.9793 748.3799,-23.7839"/>
<polygon fill="#ffa500" stroke="#ffa500" points="576.628,-87.631 568.4811,-94.4044 579.0737,-94.1899 576.628,-87.631"/>
<text text-anchor="middle" x="668.7363" y="-67.5" font-family="Helvetica,sans-Serif" font-size="10.00" fill="#000000"> &lt; BlockVector&lt; number &gt; &gt;</text>
</g>
<!-- Node7 -->
<g id="node8" class="node">
<title>Node7</title>
<g id="a_node8"><a xlink:href="classMGSmootherBlock.html" target="_top" xlink:title="MGSmootherBlock\&lt; MatrixType,\l RelaxationType, number \&gt;">
<polygon fill="#ffffff" stroke="#000000" points="922.6074,-5.5 922.6074,-33.5 1082.8262,-33.5 1082.8262,-5.5 922.6074,-5.5"/>
<text text-anchor="start" x="930.6074" y="-21.5" font-family="Helvetica,sans-Serif" font-size="10.00" fill="#000000">MGSmootherBlock&lt; MatrixType,</text>
<text text-anchor="middle" x="1002.7168" y="-11.5" font-family="Helvetica,sans-Serif" font-size="10.00" fill="#000000"> RelaxationType, number &gt;</text>
</a>
</g>
</g>
<!-- Node6&#45;&gt;Node7 -->
<g id="edge7" class="edge">
<title>Node6&#45;&gt;Node7</title>
<path fill="none" stroke="#191970" d="M895.9514,-19.5C904.7428,-19.5 913.7058,-19.5 922.5147,-19.5"/>
<polygon fill="#191970" stroke="#191970" points="895.7293,-16.0001 885.7293,-19.5 895.7292,-23.0001 895.7293,-16.0001"/>
</g>
<!-- Node9&#45;&gt;Node6 -->
<g id="edge10" class="edge">
<title>Node9&#45;&gt;Node6</title>
<path fill="none" stroke="#191970" d="M599.1271,-15.9633C646.8759,-16.7378 704.5703,-17.6737 748.6141,-18.3881"/>
<polygon fill="#191970" stroke="#191970" points="599.1529,-12.4634 589.0975,-15.8006 599.0393,-19.4625 599.1529,-12.4634"/>
</g>
</g>
</svg>
