<?xml version="1.0" encoding="UTF-8" standalone="no"?>
<!DOCTYPE svg PUBLIC "-//W3C//DTD SVG 1.1//EN"
 "http://www.w3.org/Graphics/SVG/1.1/DTD/svg11.dtd">
<!-- Generated by graphviz version 2.40.1 (20161225.0304)
 -->
<!-- Title: FE_DGRaviartThomas&lt; dim, spacedim &gt; Pages: 1 -->
<svg width="1224pt" height="99pt"
 viewBox="0.00 0.00 1224.34 99.00" xmlns="http://www.w3.org/2000/svg" xmlns:xlink="http://www.w3.org/1999/xlink">
<g id="graph0" class="graph" transform="scale(1 1) rotate(0) translate(4 95)">
<title>FE_DGRaviartThomas&lt; dim, spacedim &gt;</title>
<polygon fill="#ffffff" stroke="transparent" points="-4,4 -4,-95 1220.3438,-95 1220.3438,4 -4,4"/>
<!-- Node0 -->
<g id="node1" class="node">
<title>Node0</title>
<polygon fill="#bfbfbf" stroke="#000000" points="1099.2061,-25.5 1099.2061,-53.5 1216.3438,-53.5 1216.3438,-25.5 1099.2061,-25.5"/>
<text text-anchor="start" x="1107.2061" y="-41.5" font-family="Helvetica,sans-Serif" font-size="10.00" fill="#000000">FE_DGRaviartThomas</text>
<text text-anchor="middle" x="1157.7749" y="-31.5" font-family="Helvetica,sans-Serif" font-size="10.00" fill="#000000">&lt; dim, spacedim &gt;</text>
</g>
<!-- Node1 -->
<g id="node2" class="node">
<title>Node1</title>
<g id="a_node2"><a xlink:href="classFE__DGVector.html" target="_top" xlink:title="FE_DGVector\&lt; Polynomials\lRaviartThomas\&lt; dim \&gt;,\l dim, spacedim \&gt;">
<polygon fill="#ffffff" stroke="#000000" points="921.9824,-20.5 921.9824,-58.5 1062.2061,-58.5 1062.2061,-20.5 921.9824,-20.5"/>
<text text-anchor="start" x="929.9824" y="-46.5" font-family="Helvetica,sans-Serif" font-size="10.00" fill="#000000">FE_DGVector&lt; Polynomials</text>
<text text-anchor="start" x="929.9824" y="-36.5" font-family="Helvetica,sans-Serif" font-size="10.00" fill="#000000">RaviartThomas&lt; dim &gt;,</text>
<text text-anchor="middle" x="992.0942" y="-26.5" font-family="Helvetica,sans-Serif" font-size="10.00" fill="#000000"> dim, spacedim &gt;</text>
</a>
</g>
</g>
<!-- Node1&#45;&gt;Node0 -->
<g id="edge1" class="edge">
<title>Node1&#45;&gt;Node0</title>
<path fill="none" stroke="#191970" d="M1072.4759,-39.5C1081.4723,-39.5 1090.5074,-39.5 1099.1563,-39.5"/>
<polygon fill="#191970" stroke="#191970" points="1072.3578,-36.0001 1062.3578,-39.5 1072.3577,-43.0001 1072.3578,-36.0001"/>
</g>
<!-- Node2 -->
<g id="node3" class="node">
<title>Node2</title>
<g id="a_node3"><a xlink:href="classFE__PolyTensor.html" target="_top" xlink:title="FE_PolyTensor\&lt; Polynomials\lRaviartThomas\&lt; dim \&gt;, dim,\l spacedim \&gt;">
<polygon fill="#ffffff" stroke="#000000" points="599.8652,-47.5 599.8652,-85.5 746.2021,-85.5 746.2021,-47.5 599.8652,-47.5"/>
<text text-anchor="start" x="607.8652" y="-73.5" font-family="Helvetica,sans-Serif" font-size="10.00" fill="#000000">FE_PolyTensor&lt; Polynomials</text>
<text text-anchor="start" x="607.8652" y="-63.5" font-family="Helvetica,sans-Serif" font-size="10.00" fill="#000000">RaviartThomas&lt; dim &gt;, dim,</text>
<text text-anchor="middle" x="673.0337" y="-53.5" font-family="Helvetica,sans-Serif" font-size="10.00" fill="#000000"> spacedim &gt;</text>
</a>
</g>
</g>
<!-- Node2&#45;&gt;Node1 -->
<g id="edge2" class="edge">
<title>Node2&#45;&gt;Node1</title>
<path fill="none" stroke="#191970" d="M756.4317,-59.8101C800.343,-56.2445 855.0848,-51.7311 903.9824,-47.5 909.7975,-46.9968 915.8277,-46.4667 921.881,-45.9289"/>
<polygon fill="#191970" stroke="#191970" points="756.0598,-56.3287 746.3754,-60.6256 756.6256,-63.3058 756.0598,-56.3287"/>
</g>
<!-- Node3 -->
<g id="node4" class="node">
<title>Node3</title>
<g id="a_node4"><a xlink:href="classFiniteElement.html" target="_top" xlink:title="FiniteElement\&lt; dim,\l spacedim \&gt;">
<polygon fill="#ffffff" stroke="#000000" points="141.1006,-46.5 141.1006,-74.5 245.748,-74.5 245.748,-46.5 141.1006,-46.5"/>
<text text-anchor="start" x="149.1006" y="-62.5" font-family="Helvetica,sans-Serif" font-size="10.00" fill="#000000">FiniteElement&lt; dim,</text>
<text text-anchor="middle" x="193.4243" y="-52.5" font-family="Helvetica,sans-Serif" font-size="10.00" fill="#000000"> spacedim &gt;</text>
</a>
</g>
</g>
<!-- Node3&#45;&gt;Node2 -->
<g id="edge3" class="edge">
<title>Node3&#45;&gt;Node2</title>
<path fill="none" stroke="#191970" d="M256.0798,-65.1281C258.6695,-65.2646 261.2337,-65.3895 263.748,-65.5 402.0399,-71.575 436.7724,-69.9145 575.1904,-68.5 583.1754,-68.4184 591.5264,-68.2993 599.8398,-68.1593"/>
<polygon fill="#191970" stroke="#191970" points="256.1994,-61.6293 246.0155,-64.5515 255.7989,-68.6179 256.1994,-61.6293"/>
</g>
<!-- Node6 -->
<g id="node7" class="node">
<title>Node6</title>
<g id="a_node7"><a xlink:href="classFE__PolyTensor.html" target="_top" xlink:title="FE_PolyTensor\&lt; Polynomial\lType, dim, spacedim \&gt;">
<polygon fill="#ffffff" stroke="#000000" points="282.748,-25.5 282.748,-53.5 424.085,-53.5 424.085,-25.5 282.748,-25.5"/>
<text text-anchor="start" x="290.748" y="-41.5" font-family="Helvetica,sans-Serif" font-size="10.00" fill="#000000">FE_PolyTensor&lt; Polynomial</text>
<text text-anchor="middle" x="353.4165" y="-31.5" font-family="Helvetica,sans-Serif" font-size="10.00" fill="#000000">Type, dim, spacedim &gt;</text>
</a>
</g>
</g>
<!-- Node3&#45;&gt;Node6 -->
<g id="edge7" class="edge">
<title>Node3&#45;&gt;Node6</title>
<path fill="none" stroke="#191970" d="M255.9195,-52.2971C264.6675,-51.1489 273.7091,-49.9621 282.5975,-48.7954"/>
<polygon fill="#191970" stroke="#191970" points="255.2712,-48.8521 245.8117,-53.6238 256.1822,-55.7926 255.2712,-48.8521"/>
</g>
<!-- Node4 -->
<g id="node5" class="node">
<title>Node4</title>
<g id="a_node5"><a xlink:href="classSubscriptor.html" target="_top" xlink:title="Subscriptor">
<polygon fill="#ffffff" stroke="#000000" points="18.7622,-72.5 18.7622,-90.5 85.3384,-90.5 85.3384,-72.5 18.7622,-72.5"/>
<text text-anchor="middle" x="52.0503" y="-78.5" font-family="Helvetica,sans-Serif" font-size="10.00" fill="#000000">Subscriptor</text>
</a>
</g>
</g>
<!-- Node4&#45;&gt;Node3 -->
<g id="edge4" class="edge">
<title>Node4&#45;&gt;Node3</title>
<path fill="none" stroke="#191970" d="M95.6606,-75.022C110.0246,-72.8884 126.1458,-70.4937 141.091,-68.2737"/>
<polygon fill="#191970" stroke="#191970" points="94.9311,-71.5919 85.554,-76.5233 95.9597,-78.5159 94.9311,-71.5919"/>
</g>
<!-- Node5 -->
<g id="node6" class="node">
<title>Node5</title>
<g id="a_node6"><a xlink:href="classFiniteElementData.html" target="_top" xlink:title="FiniteElementData\&lt;\l dim \&gt;">
<polygon fill="#ffffff" stroke="#000000" points="0,-25.5 0,-53.5 104.1006,-53.5 104.1006,-25.5 0,-25.5"/>
<text text-anchor="start" x="8" y="-41.5" font-family="Helvetica,sans-Serif" font-size="10.00" fill="#000000">FiniteElementData&lt;</text>
<text text-anchor="middle" x="52.0503" y="-31.5" font-family="Helvetica,sans-Serif" font-size="10.00" fill="#000000"> dim &gt;</text>
</a>
</g>
</g>
<!-- Node5&#45;&gt;Node3 -->
<g id="edge5" class="edge">
<title>Node5&#45;&gt;Node3</title>
<path fill="none" stroke="#191970" d="M114.2377,-48.7374C123.1434,-50.0603 132.2318,-51.4103 140.9263,-52.7018"/>
<polygon fill="#191970" stroke="#191970" points="114.6968,-45.2673 104.2911,-47.26 113.6683,-52.1914 114.6968,-45.2673"/>
</g>
<!-- Node6&#45;&gt;Node2 -->
<g id="edge6" class="edge">
<title>Node6&#45;&gt;Node2</title>
<path fill="none" stroke="#ffa500" stroke-dasharray="5,2" d="M434.7096,-40.0498C476.7546,-41.0292 528.8442,-43.3228 575.1904,-48.5 583.1721,-49.3916 591.4824,-50.5532 599.7386,-51.8573"/>
<polygon fill="#ffa500" stroke="#ffa500" points="434.5952,-36.5467 424.5231,-39.8335 434.4465,-43.5451 434.5952,-36.5467"/>
<text text-anchor="start" x="442.085" y="-60.5" font-family="Helvetica,sans-Serif" font-size="10.00" fill="#000000"> &lt; PolynomialsRaviartThomas</text>
<text text-anchor="middle" x="508.6377" y="-50.5" font-family="Helvetica,sans-Serif" font-size="10.00" fill="#000000">&lt; dim &gt;, dim, spacedim &gt;</text>
</g>
<!-- Node7 -->
<g id="node8" class="node">
<title>Node7</title>
<g id="a_node8"><a xlink:href="classFE__DGVector.html" target="_top" xlink:title="FE_DGVector\&lt; PolynomialType,\l dim, spacedim \&gt;">
<polygon fill="#ffffff" stroke="#000000" points="593.1904,-.5 593.1904,-28.5 752.877,-28.5 752.877,-.5 593.1904,-.5"/>
<text text-anchor="start" x="601.1904" y="-16.5" font-family="Helvetica,sans-Serif" font-size="10.00" fill="#000000">FE_DGVector&lt; PolynomialType,</text>
<text text-anchor="middle" x="673.0337" y="-6.5" font-family="Helvetica,sans-Serif" font-size="10.00" fill="#000000"> dim, spacedim &gt;</text>
</a>
</g>
</g>
<!-- Node6&#45;&gt;Node7 -->
<g id="edge9" class="edge">
<title>Node6&#45;&gt;Node7</title>
<path fill="none" stroke="#191970" d="M434.4838,-29.2336C437.0459,-28.9761 439.5846,-28.7306 442.085,-28.5 492.1838,-23.8786 548.543,-20.428 593.0445,-18.1089"/>
<polygon fill="#191970" stroke="#191970" points="434.096,-25.755 424.5163,-30.2804 434.8272,-32.7167 434.096,-25.755"/>
</g>
<!-- Node7&#45;&gt;Node1 -->
<g id="edge8" class="edge">
<title>Node7&#45;&gt;Node1</title>
<path fill="none" stroke="#ffa500" stroke-dasharray="5,2" d="M763.1454,-17.9161C805.8867,-19.9599 857.6302,-23.0461 903.9824,-27.5 909.8221,-28.0611 915.8696,-28.7201 921.9345,-29.4354"/>
<polygon fill="#ffa500" stroke="#ffa500" points="763.1992,-14.4149 753.0468,-17.4445 762.8726,-21.4073 763.1992,-14.4149"/>
<text text-anchor="start" x="770.877" y="-39.5" font-family="Helvetica,sans-Serif" font-size="10.00" fill="#000000"> &lt; PolynomialsRaviartThomas</text>
<text text-anchor="middle" x="837.4297" y="-29.5" font-family="Helvetica,sans-Serif" font-size="10.00" fill="#000000">&lt; dim &gt;, dim, spacedim &gt;</text>
</g>
</g>
</svg>
