<?xml version="1.0" encoding="UTF-8" standalone="no"?>
<!DOCTYPE svg PUBLIC "-//W3C//DTD SVG 1.1//EN"
 "http://www.w3.org/Graphics/SVG/1.1/DTD/svg11.dtd">
<!-- Generated by graphviz version 2.40.1 (20161225.0304)
 -->
<!-- Title: MeshWorker::Assembler::MatrixSimple&lt; MatrixType &gt; Pages: 1 -->
<svg width="160pt" height="102pt"
 viewBox="0.00 0.00 159.61 102.00" xmlns="http://www.w3.org/2000/svg" xmlns:xlink="http://www.w3.org/1999/xlink">
<g id="graph0" class="graph" transform="scale(1 1) rotate(0) translate(4 98)">
<title>MeshWorker::Assembler::MatrixSimple&lt; MatrixType &gt;</title>
<polygon fill="#ffffff" stroke="transparent" points="-4,4 -4,-98 155.6055,-98 155.6055,4 -4,4"/>
<!-- Node0 -->
<g id="node1" class="node">
<title>Node0</title>
<polygon fill="#bfbfbf" stroke="#000000" points="3.0591,-65.5 3.0591,-93.5 148.5464,-93.5 148.5464,-65.5 3.0591,-65.5"/>
<text text-anchor="start" x="11.0591" y="-81.5" font-family="Helvetica,sans-Serif" font-size="10.00" fill="#000000">MeshWorker::Assembler</text>
<text text-anchor="middle" x="75.8027" y="-71.5" font-family="Helvetica,sans-Serif" font-size="10.00" fill="#000000">::MatrixSimple&lt; MatrixType &gt;</text>
</g>
<!-- Node1 -->
<g id="node2" class="node">
<title>Node1</title>
<g id="a_node2"><a xlink:href="classMeshWorker_1_1Assembler_1_1SystemSimple.html" target="_top" xlink:title="MeshWorker::Assembler\l::SystemSimple\&lt; MatrixType \&gt;">
<polygon fill="#ffffff" stroke="#000000" points="0,-.5 0,-28.5 151.6055,-28.5 151.6055,-.5 0,-.5"/>
<text text-anchor="start" x="8" y="-16.5" font-family="Helvetica,sans-Serif" font-size="10.00" fill="#000000">MeshWorker::Assembler</text>
<text text-anchor="middle" x="75.8027" y="-6.5" font-family="Helvetica,sans-Serif" font-size="10.00" fill="#000000">::SystemSimple&lt; MatrixType &gt;</text>
</a>
</g>
</g>
<!-- Node0&#45;&gt;Node1 -->
<g id="edge1" class="edge">
<title>Node0&#45;&gt;Node1</title>
<path fill="none" stroke="#8b1a1a" d="M75.8027,-55.1081C75.8027,-46.1539 75.8027,-36.3227 75.8027,-28.5765"/>
<polygon fill="#8b1a1a" stroke="#8b1a1a" points="72.3028,-55.3959 75.8027,-65.396 79.3028,-55.396 72.3028,-55.3959"/>
</g>
</g>
</svg>
