<?xml version="1.0" encoding="UTF-8" standalone="no"?>
<!DOCTYPE svg PUBLIC "-//W3C//DTD SVG 1.1//EN"
 "http://www.w3.org/Graphics/SVG/1.1/DTD/svg11.dtd">
<!-- Generated by graphviz version 2.40.1 (20161225.0304)
 -->
<!-- Title: SparseMatrixIterators::Accessor&lt; number, true &gt; Pages: 1 -->
<svg width="144pt" height="102pt"
 viewBox="0.00 0.00 144.06 102.00" xmlns="http://www.w3.org/2000/svg" xmlns:xlink="http://www.w3.org/1999/xlink">
<g id="graph0" class="graph" transform="scale(1 1) rotate(0) translate(4 98)">
<title>SparseMatrixIterators::Accessor&lt; number, true &gt;</title>
<polygon fill="#ffffff" stroke="transparent" points="-4,4 -4,-98 140.0635,-98 140.0635,4 -4,4"/>
<!-- Node0 -->
<g id="node1" class="node">
<title>Node0</title>
<polygon fill="#bfbfbf" stroke="#000000" points="0,-.5 0,-28.5 136.0635,-28.5 136.0635,-.5 0,-.5"/>
<text text-anchor="start" x="8" y="-16.5" font-family="Helvetica,sans-Serif" font-size="10.00" fill="#000000">SparseMatrixIterators</text>
<text text-anchor="middle" x="68.0317" y="-6.5" font-family="Helvetica,sans-Serif" font-size="10.00" fill="#000000">::Accessor&lt; number, true &gt;</text>
</g>
<!-- Node1 -->
<g id="node2" class="node">
<title>Node1</title>
<g id="a_node2"><a xlink:href="classSparsityPatternIterators_1_1Accessor.html" target="_top" xlink:title="SparsityPatternIterators\l::Accessor">
<polygon fill="#ffffff" stroke="#000000" points="7.5098,-65.5 7.5098,-93.5 128.5537,-93.5 128.5537,-65.5 7.5098,-65.5"/>
<text text-anchor="start" x="15.5098" y="-81.5" font-family="Helvetica,sans-Serif" font-size="10.00" fill="#000000">SparsityPatternIterators</text>
<text text-anchor="middle" x="68.0317" y="-71.5" font-family="Helvetica,sans-Serif" font-size="10.00" fill="#000000">::Accessor</text>
</a>
</g>
</g>
<!-- Node1&#45;&gt;Node0 -->
<g id="edge1" class="edge">
<title>Node1&#45;&gt;Node0</title>
<path fill="none" stroke="#191970" d="M68.0317,-55.1081C68.0317,-46.1539 68.0317,-36.3227 68.0317,-28.5765"/>
<polygon fill="#191970" stroke="#191970" points="64.5318,-55.3959 68.0317,-65.396 71.5318,-55.396 64.5318,-55.3959"/>
</g>
</g>
</svg>
