<?xml version="1.0" encoding="UTF-8" standalone="no"?>
<!DOCTYPE svg PUBLIC "-//W3C//DTD SVG 1.1//EN"
 "http://www.w3.org/Graphics/SVG/1.1/DTD/svg11.dtd">
<!-- Generated by graphviz version 2.40.1 (20161225.0304)
 -->
<!-- Title: internal::Triangulation::TriaObjects&lt; G &gt; Pages: 1 -->
<svg width="574pt" height="228pt"
 viewBox="0.00 0.00 573.53 228.00" xmlns="http://www.w3.org/2000/svg" xmlns:xlink="http://www.w3.org/1999/xlink">
<g id="graph0" class="graph" transform="scale(1 1) rotate(0) translate(4 224)">
<title>internal::Triangulation::TriaObjects&lt; G &gt;</title>
<polygon fill="#ffffff" stroke="transparent" points="-4,4 -4,-224 569.5313,-224 569.5313,4 -4,4"/>
<!-- Node0 -->
<g id="node1" class="node">
<title>Node0</title>
<polygon fill="#bfbfbf" stroke="#000000" points="0,-88.5 0,-116.5 111.8008,-116.5 111.8008,-88.5 0,-88.5"/>
<text text-anchor="start" x="8" y="-104.5" font-family="Helvetica,sans-Serif" font-size="10.00" fill="#000000">internal::Triangulation</text>
<text text-anchor="middle" x="55.9004" y="-94.5" font-family="Helvetica,sans-Serif" font-size="10.00" fill="#000000">::TriaObjects&lt; G &gt;</text>
</g>
<!-- Node1 -->
<g id="node2" class="node">
<title>Node1</title>
<g id="a_node2"><a xlink:href="classinternal_1_1Triangulation_1_1TriaObjects.html" target="_top" xlink:title="internal::Triangulation\l::TriaObjects\&lt; TriaObject\l\&lt; 3 \&gt; \&gt;">
<polygon fill="#ffffff" stroke="#000000" points="272.6079,-181.5 272.6079,-219.5 399.1206,-219.5 399.1206,-181.5 272.6079,-181.5"/>
<text text-anchor="start" x="280.6079" y="-207.5" font-family="Helvetica,sans-Serif" font-size="10.00" fill="#000000">internal::Triangulation</text>
<text text-anchor="start" x="280.6079" y="-197.5" font-family="Helvetica,sans-Serif" font-size="10.00" fill="#000000">::TriaObjects&lt; TriaObject</text>
<text text-anchor="middle" x="335.8643" y="-187.5" font-family="Helvetica,sans-Serif" font-size="10.00" fill="#000000">&lt; 3 &gt; &gt;</text>
</a>
</g>
</g>
<!-- Node0&#45;&gt;Node1 -->
<g id="edge1" class="edge">
<title>Node0&#45;&gt;Node1</title>
<path fill="none" stroke="#ffa500" stroke-dasharray="5,2" d="M87.7355,-121.7398C100.5042,-128.9189 115.5493,-136.721 129.8008,-142.5 176.2963,-161.3541 231.058,-176.4523 272.4377,-186.5128"/>
<polygon fill="#ffa500" stroke="#ffa500" points="89.2996,-118.602 78.8842,-116.6602 85.8154,-124.6733 89.2996,-118.602"/>
<text text-anchor="middle" x="183.3994" y="-178.5" font-family="Helvetica,sans-Serif" font-size="10.00" fill="#000000"> &lt; TriaObject&lt; 3 &gt; &gt;</text>
</g>
<!-- Node3 -->
<g id="node4" class="node">
<title>Node3</title>
<g id="a_node4"><a xlink:href="classinternal_1_1Triangulation_1_1TriaObjects.html" target="_top" xlink:title="internal::Triangulation\l::TriaObjects\&lt; TriaObject\l\&lt; 2 \&gt; \&gt;">
<polygon fill="#ffffff" stroke="#000000" points="272.6079,-124.5 272.6079,-162.5 399.1206,-162.5 399.1206,-124.5 272.6079,-124.5"/>
<text text-anchor="start" x="280.6079" y="-150.5" font-family="Helvetica,sans-Serif" font-size="10.00" fill="#000000">internal::Triangulation</text>
<text text-anchor="start" x="280.6079" y="-140.5" font-family="Helvetica,sans-Serif" font-size="10.00" fill="#000000">::TriaObjects&lt; TriaObject</text>
<text text-anchor="middle" x="335.8643" y="-130.5" font-family="Helvetica,sans-Serif" font-size="10.00" fill="#000000">&lt; 2 &gt; &gt;</text>
</a>
</g>
</g>
<!-- Node0&#45;&gt;Node3 -->
<g id="edge3" class="edge">
<title>Node0&#45;&gt;Node3</title>
<path fill="none" stroke="#ffa500" stroke-dasharray="5,2" d="M121.9191,-112.1683C167.3126,-118.816 227.264,-127.5958 272.1528,-134.1696"/>
<polygon fill="#ffa500" stroke="#ffa500" points="122.284,-108.6845 111.8824,-110.6984 121.2697,-115.6106 122.284,-108.6845"/>
<text text-anchor="middle" x="183.3994" y="-130.5" font-family="Helvetica,sans-Serif" font-size="10.00" fill="#000000"> &lt; TriaObject&lt; 2 &gt; &gt;</text>
</g>
<!-- Node5 -->
<g id="node6" class="node">
<title>Node5</title>
<g id="a_node6"><a xlink:href="classinternal_1_1Triangulation_1_1TriaObjects.html" target="_top" xlink:title="internal::Triangulation\l::TriaObjects\&lt; internal\l::Triangulation::TriaObject\l\&lt; dim \&gt; \&gt;">
<polygon fill="#ffffff" stroke="#000000" points="270.7061,-57.5 270.7061,-105.5 401.0225,-105.5 401.0225,-57.5 270.7061,-57.5"/>
<text text-anchor="start" x="278.7061" y="-93.5" font-family="Helvetica,sans-Serif" font-size="10.00" fill="#000000">internal::Triangulation</text>
<text text-anchor="start" x="278.7061" y="-83.5" font-family="Helvetica,sans-Serif" font-size="10.00" fill="#000000">::TriaObjects&lt; internal</text>
<text text-anchor="start" x="278.7061" y="-73.5" font-family="Helvetica,sans-Serif" font-size="10.00" fill="#000000">::Triangulation::TriaObject</text>
<text text-anchor="middle" x="335.8643" y="-63.5" font-family="Helvetica,sans-Serif" font-size="10.00" fill="#000000">&lt; dim &gt; &gt;</text>
</a>
</g>
</g>
<!-- Node0&#45;&gt;Node5 -->
<g id="edge5" class="edge">
<title>Node0&#45;&gt;Node5</title>
<path fill="none" stroke="#ffa500" stroke-dasharray="5,2" d="M122.0601,-92.3247C124.6717,-92.027 127.2593,-91.7502 129.8008,-91.5 176.6736,-86.8857 229.7636,-84.3733 270.3157,-83.0209"/>
<polygon fill="#ffa500" stroke="#ffa500" points="121.4155,-88.8774 111.9144,-93.5656 122.2654,-95.8256 121.4155,-88.8774"/>
<text text-anchor="start" x="129.8008" y="-103.5" font-family="Helvetica,sans-Serif" font-size="10.00" fill="#000000"> &lt; internal::Triangulation</text>
<text text-anchor="middle" x="183.3994" y="-93.5" font-family="Helvetica,sans-Serif" font-size="10.00" fill="#000000">::TriaObject&lt; dim &gt; &gt;</text>
</g>
<!-- Node6 -->
<g id="node7" class="node">
<title>Node6</title>
<g id="a_node7"><a xlink:href="classinternal_1_1Triangulation_1_1TriaObjects.html" target="_top" xlink:title="internal::Triangulation\l::TriaObjects\&lt; internal\l::Triangulation::TriaObject\&lt; 1 \&gt; \&gt;">
<polygon fill="#ffffff" stroke="#000000" points="254.998,-.5 254.998,-38.5 416.7305,-38.5 416.7305,-.5 254.998,-.5"/>
<text text-anchor="start" x="262.998" y="-26.5" font-family="Helvetica,sans-Serif" font-size="10.00" fill="#000000">internal::Triangulation</text>
<text text-anchor="start" x="262.998" y="-16.5" font-family="Helvetica,sans-Serif" font-size="10.00" fill="#000000">::TriaObjects&lt; internal</text>
<text text-anchor="middle" x="335.8643" y="-6.5" font-family="Helvetica,sans-Serif" font-size="10.00" fill="#000000">::Triangulation::TriaObject&lt; 1 &gt; &gt;</text>
</a>
</g>
</g>
<!-- Node0&#45;&gt;Node6 -->
<g id="edge6" class="edge">
<title>Node0&#45;&gt;Node6</title>
<path fill="none" stroke="#ffa500" stroke-dasharray="5,2" d="M84.9968,-83.0868C98.1956,-75.0497 114.2952,-66.2763 129.8008,-60.5 169.793,-45.6016 216.2718,-35.7573 254.9547,-29.4593"/>
<polygon fill="#ffa500" stroke="#ffa500" points="82.9863,-80.216 76.3655,-88.4873 86.6993,-86.1501 82.9863,-80.216"/>
<text text-anchor="start" x="129.8008" y="-72.5" font-family="Helvetica,sans-Serif" font-size="10.00" fill="#000000"> &lt; internal::Triangulation</text>
<text text-anchor="middle" x="183.3994" y="-62.5" font-family="Helvetica,sans-Serif" font-size="10.00" fill="#000000">::TriaObject&lt; 1 &gt; &gt;</text>
</g>
<!-- Node2 -->
<g id="node3" class="node">
<title>Node2</title>
<g id="a_node3"><a xlink:href="classinternal_1_1Triangulation_1_1TriaObjectsHex.html" target="_top" xlink:title="internal::Triangulation\l::TriaObjectsHex">
<polygon fill="#ffffff" stroke="#000000" points="453.7305,-186.5 453.7305,-214.5 565.5313,-214.5 565.5313,-186.5 453.7305,-186.5"/>
<text text-anchor="start" x="461.7305" y="-202.5" font-family="Helvetica,sans-Serif" font-size="10.00" fill="#000000">internal::Triangulation</text>
<text text-anchor="middle" x="509.6309" y="-192.5" font-family="Helvetica,sans-Serif" font-size="10.00" fill="#000000">::TriaObjectsHex</text>
</a>
</g>
</g>
<!-- Node1&#45;&gt;Node2 -->
<g id="edge2" class="edge">
<title>Node1&#45;&gt;Node2</title>
<path fill="none" stroke="#191970" d="M409.6774,-200.5C424.4092,-200.5 439.6542,-200.5 453.6654,-200.5"/>
<polygon fill="#191970" stroke="#191970" points="409.5819,-197.0001 399.5818,-200.5 409.5818,-204.0001 409.5819,-197.0001"/>
</g>
<!-- Node4 -->
<g id="node5" class="node">
<title>Node4</title>
<g id="a_node5"><a xlink:href="classinternal_1_1Triangulation_1_1TriaObjectsQuad3D.html" target="_top" xlink:title="internal::Triangulation\l::TriaObjectsQuad3D">
<polygon fill="#ffffff" stroke="#000000" points="453.7305,-129.5 453.7305,-157.5 565.5313,-157.5 565.5313,-129.5 453.7305,-129.5"/>
<text text-anchor="start" x="461.7305" y="-145.5" font-family="Helvetica,sans-Serif" font-size="10.00" fill="#000000">internal::Triangulation</text>
<text text-anchor="middle" x="509.6309" y="-135.5" font-family="Helvetica,sans-Serif" font-size="10.00" fill="#000000">::TriaObjectsQuad3D</text>
</a>
</g>
</g>
<!-- Node3&#45;&gt;Node4 -->
<g id="edge4" class="edge">
<title>Node3&#45;&gt;Node4</title>
<path fill="none" stroke="#191970" d="M409.6774,-143.5C424.4092,-143.5 439.6542,-143.5 453.6654,-143.5"/>
<polygon fill="#191970" stroke="#191970" points="409.5819,-140.0001 399.5818,-143.5 409.5818,-147.0001 409.5819,-140.0001"/>
</g>
</g>
</svg>
