<?xml version="1.0" encoding="UTF-8" standalone="no"?>
<!DOCTYPE svg PUBLIC "-//W3C//DTD SVG 1.1//EN"
 "http://www.w3.org/Graphics/SVG/1.1/DTD/svg11.dtd">
<!-- Generated by graphviz version 2.40.1 (20161225.0304)
 -->
<!-- Title: Boundary&lt; dim, spacedim &gt; Pages: 1 -->
<svg width="1552pt" height="330pt"
 viewBox="0.00 0.00 1552.48 330.00" xmlns="http://www.w3.org/2000/svg" xmlns:xlink="http://www.w3.org/1999/xlink">
<g id="graph0" class="graph" transform="scale(1 1) rotate(0) translate(4 326)">
<title>Boundary&lt; dim, spacedim &gt;</title>
<polygon fill="#ffffff" stroke="transparent" points="-4,4 -4,-326 1548.4756,-326 1548.4756,4 -4,4"/>
<!-- Node0 -->
<g id="node1" class="node">
<title>Node0</title>
<polygon fill="#bfbfbf" stroke="#000000" points="411.0557,-141.5 411.0557,-159.5 551.5674,-159.5 551.5674,-141.5 411.0557,-141.5"/>
<text text-anchor="middle" x="481.3115" y="-147.5" font-family="Helvetica,sans-Serif" font-size="10.00" fill="#000000">Boundary&lt; dim, spacedim &gt;</text>
</g>
<!-- Node4 -->
<g id="node5" class="node">
<title>Node4</title>
<g id="a_node5"><a xlink:href="classOpenCASCADE_1_1DirectionalProjectionBoundary.html" target="_top" xlink:title="OpenCASCADE::Directional\lProjectionBoundary\&lt; dim,\l spacedim \&gt;">
<polygon fill="#ffffff" stroke="#000000" points="660.0918,-283.5 660.0918,-321.5 801.6973,-321.5 801.6973,-283.5 660.0918,-283.5"/>
<text text-anchor="start" x="668.0918" y="-309.5" font-family="Helvetica,sans-Serif" font-size="10.00" fill="#000000">OpenCASCADE::Directional</text>
<text text-anchor="start" x="668.0918" y="-299.5" font-family="Helvetica,sans-Serif" font-size="10.00" fill="#000000">ProjectionBoundary&lt; dim,</text>
<text text-anchor="middle" x="730.8945" y="-289.5" font-family="Helvetica,sans-Serif" font-size="10.00" fill="#000000"> spacedim &gt;</text>
</a>
</g>
</g>
<!-- Node0&#45;&gt;Node4 -->
<g id="edge4" class="edge">
<title>Node0&#45;&gt;Node4</title>
<path fill="none" stroke="#191970" d="M498.1963,-166.7859C526.4132,-193.1407 585.9327,-245.1404 645.3652,-274.5 651.9491,-277.7524 658.9984,-280.7544 666.1202,-283.4882"/>
<polygon fill="#191970" stroke="#191970" points="500.4559,-164.1055 490.7854,-159.7773 495.6461,-169.1914 500.4559,-164.1055"/>
</g>
<!-- Node5 -->
<g id="node6" class="node">
<title>Node5</title>
<g id="a_node6"><a xlink:href="classOpenCASCADE_1_1NormalProjectionBoundary.html" target="_top" xlink:title="OpenCASCADE::NormalProjection\lBoundary\&lt; dim, spacedim \&gt;">
<polygon fill="#ffffff" stroke="#000000" points="645.3652,-236.5 645.3652,-264.5 816.4238,-264.5 816.4238,-236.5 645.3652,-236.5"/>
<text text-anchor="start" x="653.3652" y="-252.5" font-family="Helvetica,sans-Serif" font-size="10.00" fill="#000000">OpenCASCADE::NormalProjection</text>
<text text-anchor="middle" x="730.8945" y="-242.5" font-family="Helvetica,sans-Serif" font-size="10.00" fill="#000000">Boundary&lt; dim, spacedim &gt;</text>
</a>
</g>
</g>
<!-- Node0&#45;&gt;Node5 -->
<g id="edge5" class="edge">
<title>Node0&#45;&gt;Node5</title>
<path fill="none" stroke="#191970" d="M507.1983,-164.3981C539.0264,-181.073 595.0246,-209.0805 645.3652,-227.5 654.1737,-230.723 663.6405,-233.7159 672.9519,-236.4054"/>
<polygon fill="#191970" stroke="#191970" points="508.6069,-161.184 498.1296,-159.6102 505.3386,-167.3742 508.6069,-161.184"/>
</g>
<!-- Node6 -->
<g id="node7" class="node">
<title>Node6</title>
<g id="a_node7"><a xlink:href="classOpenCASCADE_1_1NormalToMeshProjectionBoundary.html" target="_top" xlink:title="OpenCASCADE::NormalToMesh\lProjectionBoundary\&lt; dim,\l spacedim \&gt;">
<polygon fill="#ffffff" stroke="#000000" points="650.0918,-179.5 650.0918,-217.5 811.6973,-217.5 811.6973,-179.5 650.0918,-179.5"/>
<text text-anchor="start" x="658.0918" y="-205.5" font-family="Helvetica,sans-Serif" font-size="10.00" fill="#000000">OpenCASCADE::NormalToMesh</text>
<text text-anchor="start" x="658.0918" y="-195.5" font-family="Helvetica,sans-Serif" font-size="10.00" fill="#000000">ProjectionBoundary&lt; dim,</text>
<text text-anchor="middle" x="730.8945" y="-185.5" font-family="Helvetica,sans-Serif" font-size="10.00" fill="#000000"> spacedim &gt;</text>
</a>
</g>
</g>
<!-- Node0&#45;&gt;Node6 -->
<g id="edge6" class="edge">
<title>Node0&#45;&gt;Node6</title>
<path fill="none" stroke="#191970" d="M538.1926,-161.4394C571.206,-167.7886 613.3374,-175.8913 649.7812,-182.9002"/>
<polygon fill="#191970" stroke="#191970" points="538.7373,-157.9801 528.2562,-159.5284 537.4152,-164.8541 538.7373,-157.9801"/>
</g>
<!-- Node7 -->
<g id="node8" class="node">
<title>Node7</title>
<g id="a_node8"><a xlink:href="classStraightBoundary.html" target="_top" xlink:title="StraightBoundary\&lt; dim,\l spacedim \&gt;">
<polygon fill="#ffffff" stroke="#000000" points="670.5044,-91.5 670.5044,-119.5 791.2847,-119.5 791.2847,-91.5 670.5044,-91.5"/>
<text text-anchor="start" x="678.5044" y="-107.5" font-family="Helvetica,sans-Serif" font-size="10.00" fill="#000000">StraightBoundary&lt; dim,</text>
<text text-anchor="middle" x="730.8945" y="-97.5" font-family="Helvetica,sans-Serif" font-size="10.00" fill="#000000"> spacedim &gt;</text>
</a>
</g>
</g>
<!-- Node0&#45;&gt;Node7 -->
<g id="edge7" class="edge">
<title>Node0&#45;&gt;Node7</title>
<path fill="none" stroke="#191970" d="M541.6714,-139.6171C580.6382,-132.5913 631.1546,-123.4832 670.1893,-116.4452"/>
<polygon fill="#191970" stroke="#191970" points="540.7384,-136.2288 531.5181,-141.4477 541.9805,-143.1177 540.7384,-136.2288"/>
</g>
<!-- Node14 -->
<g id="node15" class="node">
<title>Node14</title>
<g id="a_node15"><a xlink:href="classStraightBoundary.html" target="_top" xlink:title="StraightBoundary\&lt; dim,\l dim \&gt;">
<polygon fill="#ffffff" stroke="#000000" points="913.1416,-131.5 913.1416,-159.5 1033.9219,-159.5 1033.9219,-131.5 913.1416,-131.5"/>
<text text-anchor="start" x="921.1416" y="-147.5" font-family="Helvetica,sans-Serif" font-size="10.00" fill="#000000">StraightBoundary&lt; dim,</text>
<text text-anchor="middle" x="973.5317" y="-137.5" font-family="Helvetica,sans-Serif" font-size="10.00" fill="#000000"> dim &gt;</text>
</a>
</g>
</g>
<!-- Node0&#45;&gt;Node14 -->
<g id="edge18" class="edge">
<title>Node0&#45;&gt;Node14</title>
<path fill="none" stroke="#191970" d="M561.7753,-149.6826C660.2672,-148.6822 824.8152,-147.0107 913.1321,-146.1135"/>
<polygon fill="#191970" stroke="#191970" points="561.537,-146.1848 551.5731,-149.7863 561.6082,-153.1844 561.537,-146.1848"/>
</g>
<!-- Node17 -->
<g id="node18" class="node">
<title>Node17</title>
<g id="a_node18"><a xlink:href="classTorusBoundary.html" target="_top" xlink:title="TorusBoundary\&lt; dim,\l spacedim \&gt;">
<polygon fill="#ffffff" stroke="#000000" points="675.5093,-44.5 675.5093,-72.5 786.2798,-72.5 786.2798,-44.5 675.5093,-44.5"/>
<text text-anchor="start" x="683.5093" y="-60.5" font-family="Helvetica,sans-Serif" font-size="10.00" fill="#000000">TorusBoundary&lt; dim,</text>
<text text-anchor="middle" x="730.8945" y="-50.5" font-family="Helvetica,sans-Serif" font-size="10.00" fill="#000000"> spacedim &gt;</text>
</a>
</g>
</g>
<!-- Node0&#45;&gt;Node17 -->
<g id="edge19" class="edge">
<title>Node0&#45;&gt;Node17</title>
<path fill="none" stroke="#191970" d="M509.721,-137.1618C542.0769,-122.2991 596.7619,-98.1704 645.3652,-81.5 654.9647,-78.2075 665.2993,-75.0839 675.352,-72.2611"/>
<polygon fill="#191970" stroke="#191970" points="508.0359,-134.0849 500.4279,-141.4584 510.9735,-140.4387 508.0359,-134.0849"/>
</g>
<!-- Node18 -->
<g id="node19" class="node">
<title>Node18</title>
<g id="a_node19"><a xlink:href="classBoundary.html" target="_top" xlink:title="Boundary\&lt; dim, dim \&gt;">
<polygon fill="#ffffff" stroke="#000000" points="673.981,-3.5 673.981,-21.5 787.8081,-21.5 787.8081,-3.5 673.981,-3.5"/>
<text text-anchor="middle" x="730.8945" y="-9.5" font-family="Helvetica,sans-Serif" font-size="10.00" fill="#000000">Boundary&lt; dim, dim &gt;</text>
</a>
</g>
</g>
<!-- Node0&#45;&gt;Node18 -->
<g id="edge20" class="edge">
<title>Node0&#45;&gt;Node18</title>
<path fill="none" stroke="#ffa500" stroke-dasharray="5,2" d="M498.008,-134.0923C515.0965,-117.8041 542.8598,-92.7031 569.5674,-74.5 601.0429,-53.0473 609.8336,-48.2271 645.3652,-34.5 658.8091,-29.3062 673.9118,-24.9604 687.6424,-21.5401"/>
<polygon fill="#ffa500" stroke="#ffa500" points="495.2928,-131.8486 490.5281,-141.3116 500.1541,-136.8853 495.2928,-131.8486"/>
<text text-anchor="middle" x="598.4663" y="-76.5" font-family="Helvetica,sans-Serif" font-size="10.00" fill="#000000"> &lt; dim, dim &gt;</text>
</g>
<!-- Node1 -->
<g id="node2" class="node">
<title>Node1</title>
<g id="a_node2"><a xlink:href="classFlatManifold.html" target="_top" xlink:title="FlatManifold\&lt; dim,\l spacedim \&gt;">
<polygon fill="#ffffff" stroke="#000000" points="276.0781,-136.5 276.0781,-164.5 374.0557,-164.5 374.0557,-136.5 276.0781,-136.5"/>
<text text-anchor="start" x="284.0781" y="-152.5" font-family="Helvetica,sans-Serif" font-size="10.00" fill="#000000">FlatManifold&lt; dim,</text>
<text text-anchor="middle" x="325.0669" y="-142.5" font-family="Helvetica,sans-Serif" font-size="10.00" fill="#000000"> spacedim &gt;</text>
</a>
</g>
</g>
<!-- Node1&#45;&gt;Node0 -->
<g id="edge1" class="edge">
<title>Node1&#45;&gt;Node0</title>
<path fill="none" stroke="#191970" d="M384.1805,-150.5C392.9464,-150.5 402.0523,-150.5 411.0191,-150.5"/>
<polygon fill="#191970" stroke="#191970" points="384.075,-147.0001 374.075,-150.5 384.0749,-154.0001 384.075,-147.0001"/>
</g>
<!-- Node2 -->
<g id="node3" class="node">
<title>Node2</title>
<g id="a_node3"><a xlink:href="classManifold.html" target="_top" xlink:title="Manifold\&lt; dim, spacedim \&gt;">
<polygon fill="#ffffff" stroke="#000000" points="103.5762,-141.5 103.5762,-159.5 239.0781,-159.5 239.0781,-141.5 103.5762,-141.5"/>
<text text-anchor="middle" x="171.3271" y="-147.5" font-family="Helvetica,sans-Serif" font-size="10.00" fill="#000000">Manifold&lt; dim, spacedim &gt;</text>
</a>
</g>
</g>
<!-- Node2&#45;&gt;Node1 -->
<g id="edge2" class="edge">
<title>Node2&#45;&gt;Node1</title>
<path fill="none" stroke="#191970" d="M249.4129,-150.5C258.4675,-150.5 267.4997,-150.5 276.0066,-150.5"/>
<polygon fill="#191970" stroke="#191970" points="249.2072,-147.0001 239.2072,-150.5 249.2071,-154.0001 249.2072,-147.0001"/>
</g>
<!-- Node3 -->
<g id="node4" class="node">
<title>Node3</title>
<g id="a_node4"><a xlink:href="classSubscriptor.html" target="_top" xlink:title="Subscriptor">
<polygon fill="#ffffff" stroke="#000000" points="0,-141.5 0,-159.5 66.5762,-159.5 66.5762,-141.5 0,-141.5"/>
<text text-anchor="middle" x="33.2881" y="-147.5" font-family="Helvetica,sans-Serif" font-size="10.00" fill="#000000">Subscriptor</text>
</a>
</g>
</g>
<!-- Node3&#45;&gt;Node2 -->
<g id="edge3" class="edge">
<title>Node3&#45;&gt;Node2</title>
<path fill="none" stroke="#191970" d="M76.9826,-150.5C85.3786,-150.5 94.3551,-150.5 103.3091,-150.5"/>
<polygon fill="#191970" stroke="#191970" points="76.7035,-147.0001 66.7035,-150.5 76.7035,-154.0001 76.7035,-147.0001"/>
</g>
<!-- Node8 -->
<g id="node9" class="node">
<title>Node8</title>
<g id="a_node9"><a xlink:href="classCylinderBoundary.html" target="_top" xlink:title="CylinderBoundary\&lt; dim,\l spacedim \&gt;">
<polygon fill="#ffffff" stroke="#000000" points="912.0332,-84.5 912.0332,-112.5 1035.0303,-112.5 1035.0303,-84.5 912.0332,-84.5"/>
<text text-anchor="start" x="920.0332" y="-100.5" font-family="Helvetica,sans-Serif" font-size="10.00" fill="#000000">CylinderBoundary&lt; dim,</text>
<text text-anchor="middle" x="973.5317" y="-90.5" font-family="Helvetica,sans-Serif" font-size="10.00" fill="#000000"> spacedim &gt;</text>
</a>
</g>
</g>
<!-- Node7&#45;&gt;Node8 -->
<g id="edge8" class="edge">
<title>Node7&#45;&gt;Node8</title>
<path fill="none" stroke="#191970" d="M801.6369,-103.4591C836.6028,-102.4504 878.3962,-101.2446 912.0174,-100.2747"/>
<polygon fill="#191970" stroke="#191970" points="801.3911,-99.9646 791.4962,-103.7517 801.5931,-106.9617 801.3911,-99.9646"/>
</g>
<!-- Node9 -->
<g id="node10" class="node">
<title>Node9</title>
<g id="a_node10"><a xlink:href="classHyperBallBoundary.html" target="_top" xlink:title="HyperBallBoundary\&lt;\l dim, spacedim \&gt;">
<polygon fill="#ffffff" stroke="#000000" points="919.5332,-37.5 919.5332,-65.5 1027.5303,-65.5 1027.5303,-37.5 919.5332,-37.5"/>
<text text-anchor="start" x="927.5332" y="-53.5" font-family="Helvetica,sans-Serif" font-size="10.00" fill="#000000">HyperBallBoundary&lt;</text>
<text text-anchor="middle" x="973.5317" y="-43.5" font-family="Helvetica,sans-Serif" font-size="10.00" fill="#000000"> dim, spacedim &gt;</text>
</a>
</g>
</g>
<!-- Node7&#45;&gt;Node9 -->
<g id="edge9" class="edge">
<title>Node7&#45;&gt;Node9</title>
<path fill="none" stroke="#191970" d="M801.3862,-89.8118C839.0398,-81.4318 884.6673,-71.2772 919.4849,-63.5284"/>
<polygon fill="#191970" stroke="#191970" points="800.4971,-86.4239 791.4962,-92.0128 802.0178,-93.2568 800.4971,-86.4239"/>
</g>
<!-- Node7&#45;&gt;Node14 -->
<g id="edge14" class="edge">
<title>Node7&#45;&gt;Node14</title>
<path fill="none" stroke="#ffa500" stroke-dasharray="5,2" d="M801.821,-113.1765C830.0509,-116.637 862.7679,-121.1556 892.2217,-126.5 900.2093,-127.9494 908.5932,-129.6738 916.8177,-131.4837"/>
<polygon fill="#ffa500" stroke="#ffa500" points="801.9846,-109.671 791.6378,-111.9499 801.1474,-116.6208 801.9846,-109.671"/>
<text text-anchor="middle" x="863.3228" y="-128.5" font-family="Helvetica,sans-Serif" font-size="10.00" fill="#000000"> &lt; dim, dim &gt;</text>
</g>
<!-- Node15 -->
<g id="node16" class="node">
<title>Node15</title>
<g id="a_node16"><a xlink:href="classStraightBoundary.html" target="_top" xlink:title="StraightBoundary\&lt; dim \&gt;">
<polygon fill="#ffffff" stroke="#000000" points="910.2217,-.5 910.2217,-18.5 1036.8418,-18.5 1036.8418,-.5 910.2217,-.5"/>
<text text-anchor="middle" x="973.5317" y="-6.5" font-family="Helvetica,sans-Serif" font-size="10.00" fill="#000000">StraightBoundary&lt; dim &gt;</text>
</a>
</g>
</g>
<!-- Node7&#45;&gt;Node15 -->
<g id="edge16" class="edge">
<title>Node7&#45;&gt;Node15</title>
<path fill="none" stroke="#ffa500" stroke-dasharray="5,2" d="M800.8984,-90.0933C806.3604,-87.6376 811.6142,-84.7935 816.4238,-81.5 827.425,-73.9667 823.8262,-65.5912 834.4238,-57.5 863.2207,-35.5137 875.9102,-39.1353 910.2217,-27.5 919.6365,-24.3074 929.9641,-21.2058 939.4968,-18.5022"/>
<polygon fill="#ffa500" stroke="#ffa500" points="799.5119,-86.8785 791.5513,-93.87 802.1343,-93.3687 799.5119,-86.8785"/>
<text text-anchor="middle" x="863.3228" y="-59.5" font-family="Helvetica,sans-Serif" font-size="10.00" fill="#000000"> &lt; dim &gt;</text>
</g>
<!-- Node10 -->
<g id="node11" class="node">
<title>Node10</title>
<g id="a_node11"><a xlink:href="classHyperBallBoundary.html" target="_top" xlink:title="HyperBallBoundary\&lt;\l dim \&gt;">
<polygon fill="#ffffff" stroke="#000000" points="1113.0029,-49.5 1113.0029,-77.5 1221,-77.5 1221,-49.5 1113.0029,-49.5"/>
<text text-anchor="start" x="1121.0029" y="-65.5" font-family="Helvetica,sans-Serif" font-size="10.00" fill="#000000">HyperBallBoundary&lt;</text>
<text text-anchor="middle" x="1167.0015" y="-55.5" font-family="Helvetica,sans-Serif" font-size="10.00" fill="#000000"> dim &gt;</text>
</a>
</g>
</g>
<!-- Node9&#45;&gt;Node10 -->
<g id="edge10" class="edge">
<title>Node9&#45;&gt;Node10</title>
<path fill="none" stroke="#ffa500" stroke-dasharray="5,2" d="M1037.8889,-55.4918C1062.1963,-56.9994 1089.587,-58.6984 1112.8652,-60.1422"/>
<polygon fill="#ffa500" stroke="#ffa500" points="1037.8786,-51.9845 1027.6811,-54.8586 1037.4452,-58.9711 1037.8786,-51.9845"/>
<text text-anchor="middle" x="1072.9058" y="-61.5" font-family="Helvetica,sans-Serif" font-size="10.00" fill="#000000"> &lt; dim &gt;</text>
</g>
<!-- Node11 -->
<g id="node12" class="node">
<title>Node11</title>
<g id="a_node12"><a xlink:href="classHalfHyperBallBoundary.html" target="_top" xlink:title="HalfHyperBallBoundary\l\&lt; dim \&gt;">
<polygon fill="#ffffff" stroke="#000000" points="1262.0332,-67.5 1262.0332,-95.5 1381.9736,-95.5 1381.9736,-67.5 1262.0332,-67.5"/>
<text text-anchor="start" x="1270.0332" y="-83.5" font-family="Helvetica,sans-Serif" font-size="10.00" fill="#000000">HalfHyperBallBoundary</text>
<text text-anchor="middle" x="1322.0034" y="-73.5" font-family="Helvetica,sans-Serif" font-size="10.00" fill="#000000">&lt; dim &gt;</text>
</a>
</g>
</g>
<!-- Node10&#45;&gt;Node11 -->
<g id="edge11" class="edge">
<title>Node10&#45;&gt;Node11</title>
<path fill="none" stroke="#191970" d="M1231.2592,-70.9621C1241.4365,-72.144 1251.9278,-73.3623 1262.0028,-74.5323"/>
<polygon fill="#191970" stroke="#191970" points="1231.5506,-67.4725 1221.2136,-69.7955 1230.7431,-74.4258 1231.5506,-67.4725"/>
</g>
<!-- Node12 -->
<g id="node13" class="node">
<title>Node12</title>
<g id="a_node13"><a xlink:href="classHyperShellBoundary.html" target="_top" xlink:title="HyperShellBoundary\l\&lt; dim \&gt;">
<polygon fill="#ffffff" stroke="#000000" points="1268.144,-20.5 1268.144,-48.5 1375.8628,-48.5 1375.8628,-20.5 1268.144,-20.5"/>
<text text-anchor="start" x="1276.144" y="-36.5" font-family="Helvetica,sans-Serif" font-size="10.00" fill="#000000">HyperShellBoundary</text>
<text text-anchor="middle" x="1322.0034" y="-26.5" font-family="Helvetica,sans-Serif" font-size="10.00" fill="#000000">&lt; dim &gt;</text>
</a>
</g>
</g>
<!-- Node10&#45;&gt;Node12 -->
<g id="edge12" class="edge">
<title>Node10&#45;&gt;Node12</title>
<path fill="none" stroke="#191970" d="M1231.3435,-51.462C1243.5617,-49.176 1256.2294,-46.8059 1268.0836,-44.5881"/>
<polygon fill="#191970" stroke="#191970" points="1230.3994,-48.0778 1221.2136,-53.3572 1231.6868,-54.9584 1230.3994,-48.0778"/>
</g>
<!-- Node13 -->
<g id="node14" class="node">
<title>Node13</title>
<g id="a_node14"><a xlink:href="classHalfHyperShellBoundary.html" target="_top" xlink:title="HalfHyperShellBoundary\l\&lt; dim \&gt;">
<polygon fill="#ffffff" stroke="#000000" points="1418.9736,-20.5 1418.9736,-48.5 1544.4756,-48.5 1544.4756,-20.5 1418.9736,-20.5"/>
<text text-anchor="start" x="1426.9736" y="-36.5" font-family="Helvetica,sans-Serif" font-size="10.00" fill="#000000">HalfHyperShellBoundary</text>
<text text-anchor="middle" x="1481.7246" y="-26.5" font-family="Helvetica,sans-Serif" font-size="10.00" fill="#000000">&lt; dim &gt;</text>
</a>
</g>
</g>
<!-- Node12&#45;&gt;Node13 -->
<g id="edge13" class="edge">
<title>Node12&#45;&gt;Node13</title>
<path fill="none" stroke="#191970" d="M1386.2467,-34.5C1397.007,-34.5 1408.1608,-34.5 1418.8851,-34.5"/>
<polygon fill="#191970" stroke="#191970" points="1386.0778,-31.0001 1376.0777,-34.5 1386.0777,-38.0001 1386.0778,-31.0001"/>
</g>
<!-- Node14&#45;&gt;Node10 -->
<g id="edge15" class="edge">
<title>Node14&#45;&gt;Node10</title>
<path fill="none" stroke="#191970" d="M1021.2658,-127.7374C1026.5383,-125.6767 1031.8151,-123.5708 1036.8418,-121.5 1071.3818,-107.271 1110.46,-89.6487 1136.7057,-77.5866"/>
<polygon fill="#191970" stroke="#191970" points="1019.9019,-124.5121 1011.835,-131.3806 1022.4244,-131.0419 1019.9019,-124.5121"/>
</g>
<!-- Node16 -->
<g id="node17" class="node">
<title>Node16</title>
<g id="a_node17"><a xlink:href="classConeBoundary.html" target="_top" xlink:title="ConeBoundary\&lt; dim \&gt;">
<polygon fill="#ffffff" stroke="#000000" points="1108.9697,-.5 1108.9697,-18.5 1225.0332,-18.5 1225.0332,-.5 1108.9697,-.5"/>
<text text-anchor="middle" x="1167.0015" y="-6.5" font-family="Helvetica,sans-Serif" font-size="10.00" fill="#000000">ConeBoundary&lt; dim &gt;</text>
</a>
</g>
</g>
<!-- Node15&#45;&gt;Node16 -->
<g id="edge17" class="edge">
<title>Node15&#45;&gt;Node16</title>
<path fill="none" stroke="#191970" d="M1047.0786,-9.5C1067.4828,-9.5 1089.3495,-9.5 1108.7492,-9.5"/>
<polygon fill="#191970" stroke="#191970" points="1046.881,-6.0001 1036.881,-9.5 1046.8809,-13.0001 1046.881,-6.0001"/>
</g>
<!-- Node18&#45;&gt;Node15 -->
<g id="edge21" class="edge">
<title>Node18&#45;&gt;Node15</title>
<path fill="none" stroke="#191970" d="M798.1942,-11.6679C833.1088,-11.2362 875.5241,-10.7118 909.8913,-10.2869"/>
<polygon fill="#191970" stroke="#191970" points="798.0448,-8.1694 788.0889,-11.7928 798.1315,-15.1688 798.0448,-8.1694"/>
</g>
</g>
</svg>
