<?xml version="1.0" encoding="UTF-8" standalone="no"?>
<!DOCTYPE svg PUBLIC "-//W3C//DTD SVG 1.1//EN"
 "http://www.w3.org/Graphics/SVG/1.1/DTD/svg11.dtd">
<!-- Generated by graphviz version 2.40.1 (20161225.0304)
 -->
<!-- Title: FESystem&lt; dim, spacedim &gt;::InternalData Pages: 1 -->
<svg width="161pt" height="102pt"
 viewBox="0.00 0.00 161.02 102.00" xmlns="http://www.w3.org/2000/svg" xmlns:xlink="http://www.w3.org/1999/xlink">
<g id="graph0" class="graph" transform="scale(1 1) rotate(0) translate(4 98)">
<title>FESystem&lt; dim, spacedim &gt;::InternalData</title>
<polygon fill="#ffffff" stroke="transparent" points="-4,4 -4,-98 157.0215,-98 157.0215,4 -4,4"/>
<!-- Node0 -->
<g id="node1" class="node">
<title>Node0</title>
<polygon fill="#bfbfbf" stroke="#000000" points="8.9087,-.5 8.9087,-28.5 144.1128,-28.5 144.1128,-.5 8.9087,-.5"/>
<text text-anchor="start" x="16.9087" y="-16.5" font-family="Helvetica,sans-Serif" font-size="10.00" fill="#000000">FESystem&lt; dim, spacedim</text>
<text text-anchor="middle" x="76.5107" y="-6.5" font-family="Helvetica,sans-Serif" font-size="10.00" fill="#000000"> &gt;::InternalData</text>
</g>
<!-- Node1 -->
<g id="node2" class="node">
<title>Node1</title>
<g id="a_node2"><a xlink:href="classFiniteElement_1_1InternalDataBase.html" target="_top" xlink:title="FiniteElement\&lt; dim,\l spacedim \&gt;::InternalDataBase">
<polygon fill="#ffffff" stroke="#000000" points="0,-65.5 0,-93.5 153.0215,-93.5 153.0215,-65.5 0,-65.5"/>
<text text-anchor="start" x="8" y="-81.5" font-family="Helvetica,sans-Serif" font-size="10.00" fill="#000000">FiniteElement&lt; dim,</text>
<text text-anchor="middle" x="76.5107" y="-71.5" font-family="Helvetica,sans-Serif" font-size="10.00" fill="#000000"> spacedim &gt;::InternalDataBase</text>
</a>
</g>
</g>
<!-- Node1&#45;&gt;Node0 -->
<g id="edge1" class="edge">
<title>Node1&#45;&gt;Node0</title>
<path fill="none" stroke="#191970" d="M76.5107,-55.1081C76.5107,-46.1539 76.5107,-36.3227 76.5107,-28.5765"/>
<polygon fill="#191970" stroke="#191970" points="73.0108,-55.3959 76.5107,-65.396 80.0108,-55.396 73.0108,-55.3959"/>
</g>
</g>
</svg>
