<?xml version="1.0" encoding="UTF-8" standalone="no"?>
<!DOCTYPE svg PUBLIC "-//W3C//DTD SVG 1.1//EN"
 "http://www.w3.org/Graphics/SVG/1.1/DTD/svg11.dtd">
<!-- Generated by graphviz version 2.40.1 (20161225.0304)
 -->
<!-- Title: QGaussLobattoChebyshev&lt; dim &gt; Pages: 1 -->
<svg width="144pt" height="147pt"
 viewBox="0.00 0.00 144.07 147.00" xmlns="http://www.w3.org/2000/svg" xmlns:xlink="http://www.w3.org/1999/xlink">
<g id="graph0" class="graph" transform="scale(1 1) rotate(0) translate(4 143)">
<title>QGaussLobattoChebyshev&lt; dim &gt;</title>
<polygon fill="#ffffff" stroke="transparent" points="-4,4 -4,-143 140.0732,-143 140.0732,4 -4,4"/>
<!-- Node0 -->
<g id="node1" class="node">
<title>Node0</title>
<polygon fill="#bfbfbf" stroke="#000000" points="0,-.5 0,-28.5 136.0732,-28.5 136.0732,-.5 0,-.5"/>
<text text-anchor="start" x="8" y="-16.5" font-family="Helvetica,sans-Serif" font-size="10.00" fill="#000000">QGaussLobattoChebyshev</text>
<text text-anchor="middle" x="68.0366" y="-6.5" font-family="Helvetica,sans-Serif" font-size="10.00" fill="#000000">&lt; dim &gt;</text>
</g>
<!-- Node1 -->
<g id="node2" class="node">
<title>Node1</title>
<g id="a_node2"><a xlink:href="classQuadrature.html" target="_top" xlink:title="Quadrature\&lt; dim \&gt;">
<polygon fill="#ffffff" stroke="#000000" points="18.0688,-65.5 18.0688,-83.5 118.0044,-83.5 118.0044,-65.5 18.0688,-65.5"/>
<text text-anchor="middle" x="68.0366" y="-71.5" font-family="Helvetica,sans-Serif" font-size="10.00" fill="#000000">Quadrature&lt; dim &gt;</text>
</a>
</g>
</g>
<!-- Node1&#45;&gt;Node0 -->
<g id="edge1" class="edge">
<title>Node1&#45;&gt;Node0</title>
<path fill="none" stroke="#191970" d="M68.0366,-55.1865C68.0366,-46.6283 68.0366,-36.7354 68.0366,-28.8477"/>
<polygon fill="#191970" stroke="#191970" points="64.5367,-55.3873 68.0366,-65.3873 71.5367,-55.3873 64.5367,-55.3873"/>
</g>
<!-- Node2 -->
<g id="node3" class="node">
<title>Node2</title>
<g id="a_node3"><a xlink:href="classSubscriptor.html" target="_top" xlink:title="Subscriptor">
<polygon fill="#ffffff" stroke="#000000" points="34.7485,-120.5 34.7485,-138.5 101.3247,-138.5 101.3247,-120.5 34.7485,-120.5"/>
<text text-anchor="middle" x="68.0366" y="-126.5" font-family="Helvetica,sans-Serif" font-size="10.00" fill="#000000">Subscriptor</text>
</a>
</g>
</g>
<!-- Node2&#45;&gt;Node1 -->
<g id="edge2" class="edge">
<title>Node2&#45;&gt;Node1</title>
<path fill="none" stroke="#191970" d="M68.0366,-110.383C68.0366,-101.3738 68.0366,-91.0373 68.0366,-83.7795"/>
<polygon fill="#191970" stroke="#191970" points="64.5367,-110.4178 68.0366,-120.4179 71.5367,-110.4179 64.5367,-110.4178"/>
</g>
</g>
</svg>
