<?xml version="1.0" encoding="UTF-8" standalone="no"?>
<!DOCTYPE svg PUBLIC "-//W3C//DTD SVG 1.1//EN"
 "http://www.w3.org/Graphics/SVG/1.1/DTD/svg11.dtd">
<!-- Generated by graphviz version 2.40.1 (20161225.0304)
 -->
<!-- Title: FE_Nothing&lt; dim, spacedim &gt; Pages: 1 -->
<svg width="196pt" height="224pt"
 viewBox="0.00 0.00 196.34 224.00" xmlns="http://www.w3.org/2000/svg" xmlns:xlink="http://www.w3.org/1999/xlink">
<g id="graph0" class="graph" transform="scale(1 1) rotate(0) translate(4 220)">
<title>FE_Nothing&lt; dim, spacedim &gt;</title>
<polygon fill="#ffffff" stroke="transparent" points="-4,4 -4,-220 192.3384,-220 192.3384,4 -4,4"/>
<!-- Node0 -->
<g id="node1" class="node">
<title>Node0</title>
<polygon fill="#bfbfbf" stroke="#000000" points="9.0322,-65.5 9.0322,-83.5 159.5439,-83.5 159.5439,-65.5 9.0322,-65.5"/>
<text text-anchor="middle" x="84.2881" y="-71.5" font-family="Helvetica,sans-Serif" font-size="10.00" fill="#000000">FE_Nothing&lt; dim, spacedim &gt;</text>
</g>
<!-- Node4 -->
<g id="node5" class="node">
<title>Node4</title>
<g id="a_node5"><a xlink:href="classFE__Nothing.html" target="_top" xlink:title="FE_Nothing\&lt; dim \&gt;">
<polygon fill="#ffffff" stroke="#000000" points="33.2095,-.5 33.2095,-18.5 135.3667,-18.5 135.3667,-.5 33.2095,-.5"/>
<text text-anchor="middle" x="84.2881" y="-6.5" font-family="Helvetica,sans-Serif" font-size="10.00" fill="#000000">FE_Nothing&lt; dim &gt;</text>
</a>
</g>
</g>
<!-- Node0&#45;&gt;Node4 -->
<g id="edge4" class="edge">
<title>Node0&#45;&gt;Node4</title>
<path fill="none" stroke="#ffa500" stroke-dasharray="5,2" d="M84.2881,-55.1265C84.2881,-43.1522 84.2881,-28.3205 84.2881,-18.8821"/>
<polygon fill="#ffa500" stroke="#ffa500" points="80.7882,-55.462 84.2881,-65.462 87.7882,-55.4621 80.7882,-55.462"/>
<text text-anchor="middle" x="102.3521" y="-39" font-family="Helvetica,sans-Serif" font-size="10.00" fill="#000000"> &lt; dim &gt;</text>
</g>
<!-- Node1 -->
<g id="node2" class="node">
<title>Node1</title>
<g id="a_node2"><a xlink:href="classFiniteElement.html" target="_top" xlink:title="FiniteElement\&lt; dim,\l spacedim \&gt;">
<polygon fill="#ffffff" stroke="#000000" points="31.9644,-121.5 31.9644,-149.5 136.6118,-149.5 136.6118,-121.5 31.9644,-121.5"/>
<text text-anchor="start" x="39.9644" y="-137.5" font-family="Helvetica,sans-Serif" font-size="10.00" fill="#000000">FiniteElement&lt; dim,</text>
<text text-anchor="middle" x="84.2881" y="-127.5" font-family="Helvetica,sans-Serif" font-size="10.00" fill="#000000"> spacedim &gt;</text>
</a>
</g>
</g>
<!-- Node1&#45;&gt;Node0 -->
<g id="edge1" class="edge">
<title>Node1&#45;&gt;Node0</title>
<path fill="none" stroke="#191970" d="M84.2881,-111.1001C84.2881,-101.5157 84.2881,-91.0935 84.2881,-83.831"/>
<polygon fill="#191970" stroke="#191970" points="80.7882,-111.352 84.2881,-121.3521 87.7882,-111.3521 80.7882,-111.352"/>
</g>
<!-- Node2 -->
<g id="node3" class="node">
<title>Node2</title>
<g id="a_node3"><a xlink:href="classSubscriptor.html" target="_top" xlink:title="Subscriptor">
<polygon fill="#ffffff" stroke="#000000" points="0,-192.5 0,-210.5 66.5762,-210.5 66.5762,-192.5 0,-192.5"/>
<text text-anchor="middle" x="33.2881" y="-198.5" font-family="Helvetica,sans-Serif" font-size="10.00" fill="#000000">Subscriptor</text>
</a>
</g>
</g>
<!-- Node2&#45;&gt;Node1 -->
<g id="edge2" class="edge">
<title>Node2&#45;&gt;Node1</title>
<path fill="none" stroke="#191970" d="M46.7216,-184.1155C55.0215,-173.3744 65.538,-159.7648 73.3316,-149.6789"/>
<polygon fill="#191970" stroke="#191970" points="43.7244,-182.27 40.3794,-192.323 49.2634,-186.5502 43.7244,-182.27"/>
</g>
<!-- Node3 -->
<g id="node4" class="node">
<title>Node3</title>
<g id="a_node4"><a xlink:href="classFiniteElementData.html" target="_top" xlink:title="FiniteElementData\&lt;\l dim \&gt;">
<polygon fill="#ffffff" stroke="#000000" points="84.2378,-187.5 84.2378,-215.5 188.3384,-215.5 188.3384,-187.5 84.2378,-187.5"/>
<text text-anchor="start" x="92.2378" y="-203.5" font-family="Helvetica,sans-Serif" font-size="10.00" fill="#000000">FiniteElementData&lt;</text>
<text text-anchor="middle" x="136.2881" y="-193.5" font-family="Helvetica,sans-Serif" font-size="10.00" fill="#000000"> dim &gt;</text>
</a>
</g>
</g>
<!-- Node3&#45;&gt;Node1 -->
<g id="edge3" class="edge">
<title>Node3&#45;&gt;Node1</title>
<path fill="none" stroke="#191970" d="M118.6459,-179.108C111.007,-169.4125 102.291,-158.3499 95.5493,-149.7931"/>
<polygon fill="#191970" stroke="#191970" points="116.0669,-181.4901 125.0049,-187.179 121.5653,-177.158 116.0669,-181.4901"/>
</g>
</g>
</svg>
