<?xml version="1.0" encoding="UTF-8" standalone="no"?>
<!DOCTYPE svg PUBLIC "-//W3C//DTD SVG 1.1//EN"
 "http://www.w3.org/Graphics/SVG/1.1/DTD/svg11.dtd">
<!-- Generated by graphviz version 2.40.1 (20161225.0304)
 -->
<!-- Title: VectorFunctionFromTensorFunction&lt; dim, Number &gt; Pages: 1 -->
<svg width="222pt" height="147pt"
 viewBox="0.00 0.00 221.79 147.00" xmlns="http://www.w3.org/2000/svg" xmlns:xlink="http://www.w3.org/1999/xlink">
<g id="graph0" class="graph" transform="scale(1 1) rotate(0) translate(4 143)">
<title>VectorFunctionFromTensorFunction&lt; dim, Number &gt;</title>
<polygon fill="#ffffff" stroke="transparent" points="-4,4 -4,-143 217.7944,-143 217.7944,4 -4,4"/>
<!-- Node0 -->
<g id="node1" class="node">
<title>Node0</title>
<polygon fill="#bfbfbf" stroke="#000000" points="54.4795,-.5 54.4795,-28.5 190.5332,-28.5 190.5332,-.5 54.4795,-.5"/>
<text text-anchor="start" x="62.4795" y="-16.5" font-family="Helvetica,sans-Serif" font-size="10.00" fill="#000000">VectorFunctionFromTensor</text>
<text text-anchor="middle" x="122.5063" y="-6.5" font-family="Helvetica,sans-Serif" font-size="10.00" fill="#000000">Function&lt; dim, Number &gt;</text>
</g>
<!-- Node1 -->
<g id="node2" class="node">
<title>Node1</title>
<g id="a_node2"><a xlink:href="classFunction.html" target="_top" xlink:title="Function\&lt; dim, Number \&gt;">
<polygon fill="#ffffff" stroke="#000000" points="58.0928,-65.5 58.0928,-83.5 186.9199,-83.5 186.9199,-65.5 58.0928,-65.5"/>
<text text-anchor="middle" x="122.5063" y="-71.5" font-family="Helvetica,sans-Serif" font-size="10.00" fill="#000000">Function&lt; dim, Number &gt;</text>
</a>
</g>
</g>
<!-- Node1&#45;&gt;Node0 -->
<g id="edge1" class="edge">
<title>Node1&#45;&gt;Node0</title>
<path fill="none" stroke="#191970" d="M122.5063,-55.1865C122.5063,-46.6283 122.5063,-36.7354 122.5063,-28.8477"/>
<polygon fill="#191970" stroke="#191970" points="119.0064,-55.3873 122.5063,-65.3873 126.0064,-55.3873 119.0064,-55.3873"/>
</g>
<!-- Node2 -->
<g id="node3" class="node">
<title>Node2</title>
<g id="a_node3"><a xlink:href="classFunctionTime.html" target="_top" xlink:title="FunctionTime\&lt; Number \&gt;">
<polygon fill="#ffffff" stroke="#000000" points="0,-120.5 0,-138.5 129.0127,-138.5 129.0127,-120.5 0,-120.5"/>
<text text-anchor="middle" x="64.5063" y="-126.5" font-family="Helvetica,sans-Serif" font-size="10.00" fill="#000000">FunctionTime&lt; Number &gt;</text>
</a>
</g>
</g>
<!-- Node2&#45;&gt;Node1 -->
<g id="edge2" class="edge">
<title>Node2&#45;&gt;Node1</title>
<path fill="none" stroke="#191970" d="M81.5909,-113.2992C91.7318,-103.6828 104.2259,-91.8349 112.7207,-83.7795"/>
<polygon fill="#191970" stroke="#191970" points="78.9318,-110.9972 74.0839,-120.4179 83.7485,-116.0766 78.9318,-110.9972"/>
</g>
<!-- Node3 -->
<g id="node4" class="node">
<title>Node3</title>
<g id="a_node4"><a xlink:href="classSubscriptor.html" target="_top" xlink:title="Subscriptor">
<polygon fill="#ffffff" stroke="#000000" points="147.2183,-120.5 147.2183,-138.5 213.7944,-138.5 213.7944,-120.5 147.2183,-120.5"/>
<text text-anchor="middle" x="180.5063" y="-126.5" font-family="Helvetica,sans-Serif" font-size="10.00" fill="#000000">Subscriptor</text>
</a>
</g>
</g>
<!-- Node3&#45;&gt;Node1 -->
<g id="edge3" class="edge">
<title>Node3&#45;&gt;Node1</title>
<path fill="none" stroke="#191970" d="M163.4218,-113.2992C153.2809,-103.6828 140.7868,-91.8349 132.292,-83.7795"/>
<polygon fill="#191970" stroke="#191970" points="161.2642,-116.0766 170.9288,-120.4179 166.0809,-110.9972 161.2642,-116.0766"/>
</g>
</g>
</svg>
