<?xml version="1.0" encoding="UTF-8" standalone="no"?>
<!DOCTYPE svg PUBLIC "-//W3C//DTD SVG 1.1//EN"
 "http://www.w3.org/Graphics/SVG/1.1/DTD/svg11.dtd">
<!-- Generated by graphviz version 2.40.1 (20161225.0304)
 -->
<!-- Title: Functions::CosineGradFunction&lt; dim &gt; Pages: 1 -->
<svg width="340pt" height="214pt"
 viewBox="0.00 0.00 340.24 214.00" xmlns="http://www.w3.org/2000/svg" xmlns:xlink="http://www.w3.org/1999/xlink">
<g id="graph0" class="graph" transform="scale(1 1) rotate(0) translate(4 210)">
<title>Functions::CosineGradFunction&lt; dim &gt;</title>
<polygon fill="#ffffff" stroke="transparent" points="-4,4 -4,-210 336.2441,-210 336.2441,4 -4,4"/>
<!-- Node0 -->
<g id="node1" class="node">
<title>Node0</title>
<polygon fill="#bfbfbf" stroke="#000000" points="73.4253,-.5 73.4253,-28.5 230.0503,-28.5 230.0503,-.5 73.4253,-.5"/>
<text text-anchor="start" x="81.4253" y="-16.5" font-family="Helvetica,sans-Serif" font-size="10.00" fill="#000000">Functions::CosineGradFunction</text>
<text text-anchor="middle" x="151.7378" y="-6.5" font-family="Helvetica,sans-Serif" font-size="10.00" fill="#000000">&lt; dim &gt;</text>
</g>
<!-- Node1 -->
<g id="node2" class="node">
<title>Node1</title>
<g id="a_node2"><a xlink:href="classFunction.html" target="_top" xlink:title="Function\&lt; dim \&gt;">
<polygon fill="#ffffff" stroke="#000000" points="107.8857,-66.5 107.8857,-84.5 195.5898,-84.5 195.5898,-66.5 107.8857,-66.5"/>
<text text-anchor="middle" x="151.7378" y="-72.5" font-family="Helvetica,sans-Serif" font-size="10.00" fill="#000000">Function&lt; dim &gt;</text>
</a>
</g>
</g>
<!-- Node1&#45;&gt;Node0 -->
<g id="edge1" class="edge">
<title>Node1&#45;&gt;Node0</title>
<path fill="none" stroke="#191970" d="M151.7378,-56.2842C151.7378,-47.3664 151.7378,-36.9504 151.7378,-28.7488"/>
<polygon fill="#191970" stroke="#191970" points="148.2379,-56.4992 151.7378,-66.4992 155.2379,-56.4993 148.2379,-56.4992"/>
</g>
<!-- Node2 -->
<g id="node3" class="node">
<title>Node2</title>
<g id="a_node3"><a xlink:href="classFunctionTime.html" target="_top" xlink:title="FunctionTime\&lt; double \&gt;">
<polygon fill="#ffffff" stroke="#000000" points="0,-131.5 0,-149.5 123.4756,-149.5 123.4756,-131.5 0,-131.5"/>
<text text-anchor="middle" x="61.7378" y="-137.5" font-family="Helvetica,sans-Serif" font-size="10.00" fill="#000000">FunctionTime&lt; double &gt;</text>
</a>
</g>
</g>
<!-- Node2&#45;&gt;Node1 -->
<g id="edge2" class="edge">
<title>Node2&#45;&gt;Node1</title>
<path fill="none" stroke="#191970" d="M82.6642,-125.3865C100.1105,-112.7864 124.3984,-95.2451 139.0398,-84.6708"/>
<polygon fill="#191970" stroke="#191970" points="80.3095,-122.7697 74.2519,-131.462 84.4079,-128.4445 80.3095,-122.7697"/>
</g>
<!-- Node3 -->
<g id="node4" class="node">
<title>Node3</title>
<g id="a_node4"><a xlink:href="classSubscriptor.html" target="_top" xlink:title="Subscriptor">
<polygon fill="#ffffff" stroke="#000000" points="118.4497,-187.5 118.4497,-205.5 185.0259,-205.5 185.0259,-187.5 118.4497,-187.5"/>
<text text-anchor="middle" x="151.7378" y="-193.5" font-family="Helvetica,sans-Serif" font-size="10.00" fill="#000000">Subscriptor</text>
</a>
</g>
</g>
<!-- Node3&#45;&gt;Node1 -->
<g id="edge3" class="edge">
<title>Node3&#45;&gt;Node1</title>
<path fill="none" stroke="#191970" d="M151.7378,-177.1238C151.7378,-150.6786 151.7378,-104.3298 151.7378,-84.7002"/>
<polygon fill="#191970" stroke="#191970" points="148.2379,-177.4053 151.7378,-187.4053 155.2379,-177.4054 148.2379,-177.4053"/>
</g>
<!-- Node4 -->
<g id="node5" class="node">
<title>Node4</title>
<g id="a_node5"><a xlink:href="classFunction.html" target="_top" xlink:title="Function\&lt; dim, Number \&gt;">
<polygon fill="#ffffff" stroke="#000000" points="179.3242,-131.5 179.3242,-149.5 308.1514,-149.5 308.1514,-131.5 179.3242,-131.5"/>
<text text-anchor="middle" x="243.7378" y="-137.5" font-family="Helvetica,sans-Serif" font-size="10.00" fill="#000000">Function&lt; dim, Number &gt;</text>
</a>
</g>
</g>
<!-- Node3&#45;&gt;Node4 -->
<g id="edge6" class="edge">
<title>Node3&#45;&gt;Node4</title>
<path fill="none" stroke="#191970" d="M175.6611,-181.938C192.4794,-171.7008 214.4587,-158.3221 228.8286,-149.5752"/>
<polygon fill="#191970" stroke="#191970" points="173.6519,-179.0635 166.9297,-187.2527 177.2916,-185.0429 173.6519,-179.0635"/>
</g>
<!-- Node4&#45;&gt;Node1 -->
<g id="edge4" class="edge">
<title>Node4&#45;&gt;Node1</title>
<path fill="none" stroke="#ffa500" stroke-dasharray="5,2" d="M222.3463,-125.3865C204.5123,-112.7864 179.6847,-95.2451 164.7179,-84.6708"/>
<polygon fill="#ffa500" stroke="#ffa500" points="220.7587,-128.5502 230.9456,-131.462 224.798,-122.8331 220.7587,-128.5502"/>
<text text-anchor="middle" x="221.8018" y="-105" font-family="Helvetica,sans-Serif" font-size="10.00" fill="#000000"> &lt; dim &gt;</text>
</g>
<!-- Node5 -->
<g id="node6" class="node">
<title>Node5</title>
<g id="a_node6"><a xlink:href="classFunctionTime.html" target="_top" xlink:title="FunctionTime\&lt; Number \&gt;">
<polygon fill="#ffffff" stroke="#000000" points="203.2314,-187.5 203.2314,-205.5 332.2441,-205.5 332.2441,-187.5 203.2314,-187.5"/>
<text text-anchor="middle" x="267.7378" y="-193.5" font-family="Helvetica,sans-Serif" font-size="10.00" fill="#000000">FunctionTime&lt; Number &gt;</text>
</a>
</g>
</g>
<!-- Node5&#45;&gt;Node4 -->
<g id="edge5" class="edge">
<title>Node5&#45;&gt;Node4</title>
<path fill="none" stroke="#191970" d="M259.7301,-177.8154C255.6564,-168.3101 250.8899,-157.1882 247.6272,-149.5752"/>
<polygon fill="#191970" stroke="#191970" points="256.6184,-179.44 263.7747,-187.2527 263.0524,-176.6825 256.6184,-179.44"/>
</g>
</g>
</svg>
