<?xml version="1.0" encoding="UTF-8" standalone="no"?>
<!DOCTYPE svg PUBLIC "-//W3C//DTD SVG 1.1//EN"
 "http://www.w3.org/Graphics/SVG/1.1/DTD/svg11.dtd">
<!-- Generated by graphviz version 2.40.1 (20161225.0304)
 -->
<!-- Title: MatrixFreeOperators::LaplaceOperator&lt; dim, fe_degree, n_q_points_1d, n_components, VectorType &gt; Pages: 1 -->
<svg width="176pt" height="177pt"
 viewBox="0.00 0.00 176.06 177.00" xmlns="http://www.w3.org/2000/svg" xmlns:xlink="http://www.w3.org/1999/xlink">
<g id="graph0" class="graph" transform="scale(1 1) rotate(0) translate(4 173)">
<title>MatrixFreeOperators::LaplaceOperator&lt; dim, fe_degree, n_q_points_1d, n_components, VectorType &gt;</title>
<polygon fill="#ffffff" stroke="transparent" points="-4,4 -4,-173 172.0557,-173 172.0557,4 -4,4"/>
<!-- Node0 -->
<g id="node1" class="node">
<title>Node0</title>
<polygon fill="#bfbfbf" stroke="#000000" points="0,-.5 0,-48.5 168.0557,-48.5 168.0557,-.5 0,-.5"/>
<text text-anchor="start" x="8" y="-36.5" font-family="Helvetica,sans-Serif" font-size="10.00" fill="#000000">MatrixFreeOperators</text>
<text text-anchor="start" x="8" y="-26.5" font-family="Helvetica,sans-Serif" font-size="10.00" fill="#000000">::LaplaceOperator&lt; dim,</text>
<text text-anchor="start" x="8" y="-16.5" font-family="Helvetica,sans-Serif" font-size="10.00" fill="#000000"> fe_degree, n_q_points</text>
<text text-anchor="middle" x="84.0278" y="-6.5" font-family="Helvetica,sans-Serif" font-size="10.00" fill="#000000">_1d, n_components, VectorType &gt;</text>
</g>
<!-- Node1 -->
<g id="node2" class="node">
<title>Node1</title>
<g id="a_node2"><a xlink:href="classMatrixFreeOperators_1_1Base.html" target="_top" xlink:title="MatrixFreeOperators\l::Base\&lt; dim, VectorType \&gt;">
<polygon fill="#ffffff" stroke="#000000" points="17.3804,-85.5 17.3804,-113.5 150.6753,-113.5 150.6753,-85.5 17.3804,-85.5"/>
<text text-anchor="start" x="25.3804" y="-101.5" font-family="Helvetica,sans-Serif" font-size="10.00" fill="#000000">MatrixFreeOperators</text>
<text text-anchor="middle" x="84.0278" y="-91.5" font-family="Helvetica,sans-Serif" font-size="10.00" fill="#000000">::Base&lt; dim, VectorType &gt;</text>
</a>
</g>
</g>
<!-- Node1&#45;&gt;Node0 -->
<g id="edge1" class="edge">
<title>Node1&#45;&gt;Node0</title>
<path fill="none" stroke="#191970" d="M84.0278,-75.2848C84.0278,-66.7309 84.0278,-57.1178 84.0278,-48.5755"/>
<polygon fill="#191970" stroke="#191970" points="80.5279,-75.393 84.0278,-85.3931 87.5279,-75.3931 80.5279,-75.393"/>
</g>
<!-- Node2 -->
<g id="node3" class="node">
<title>Node2</title>
<g id="a_node3"><a xlink:href="classSubscriptor.html" target="_top" xlink:title="Subscriptor">
<polygon fill="#ffffff" stroke="#000000" points="50.7397,-150.5 50.7397,-168.5 117.3159,-168.5 117.3159,-150.5 50.7397,-150.5"/>
<text text-anchor="middle" x="84.0278" y="-156.5" font-family="Helvetica,sans-Serif" font-size="10.00" fill="#000000">Subscriptor</text>
</a>
</g>
</g>
<!-- Node2&#45;&gt;Node1 -->
<g id="edge2" class="edge">
<title>Node2&#45;&gt;Node1</title>
<path fill="none" stroke="#191970" d="M84.0278,-140.1865C84.0278,-131.6283 84.0278,-121.7354 84.0278,-113.8477"/>
<polygon fill="#191970" stroke="#191970" points="80.5279,-140.3873 84.0278,-150.3873 87.5279,-140.3873 80.5279,-140.3873"/>
</g>
</g>
</svg>
