<?xml version="1.0" encoding="UTF-8" standalone="no"?>
<!DOCTYPE svg PUBLIC "-//W3C//DTD SVG 1.1//EN"
 "http://www.w3.org/Graphics/SVG/1.1/DTD/svg11.dtd">
<!-- Generated by graphviz version 2.40.1 (20161225.0304)
 -->
<!-- Title: Point&lt; dim, Number &gt; Pages: 1 -->
<svg width="798pt" height="222pt"
 viewBox="0.00 0.00 797.67 222.00" xmlns="http://www.w3.org/2000/svg" xmlns:xlink="http://www.w3.org/1999/xlink">
<g id="graph0" class="graph" transform="scale(1 1) rotate(0) translate(4 218)">
<title>Point&lt; dim, Number &gt;</title>
<polygon fill="#ffffff" stroke="transparent" points="-4,4 -4,-218 793.665,-218 793.665,4 -4,4"/>
<!-- Node0 -->
<g id="node1" class="node">
<title>Node0</title>
<polygon fill="#bfbfbf" stroke="#000000" points="397.0703,-94.5 397.0703,-112.5 510.3359,-112.5 510.3359,-94.5 397.0703,-94.5"/>
<text text-anchor="middle" x="453.7031" y="-100.5" font-family="Helvetica,sans-Serif" font-size="10.00" fill="#000000">Point&lt; dim, Number &gt;</text>
</g>
<!-- Node3 -->
<g id="node4" class="node">
<title>Node3</title>
<g id="a_node4"><a xlink:href="classPoint.html" target="_top" xlink:title="Point\&lt; 2 \&gt;">
<polygon fill="#ffffff" stroke="#000000" points="689.0337,-195.5 689.0337,-213.5 750.6245,-213.5 750.6245,-195.5 689.0337,-195.5"/>
<text text-anchor="middle" x="719.8291" y="-201.5" font-family="Helvetica,sans-Serif" font-size="10.00" fill="#000000">Point&lt; 2 &gt;</text>
</a>
</g>
</g>
<!-- Node0&#45;&gt;Node3 -->
<g id="edge3" class="edge">
<title>Node0&#45;&gt;Node3</title>
<path fill="none" stroke="#ffa500" stroke-dasharray="5,2" d="M466.3985,-120.8687C479.7863,-137.7763 502.4947,-162.7333 528.3359,-175.5 580.4886,-201.2658 649.6048,-205.4512 688.9402,-205.4568"/>
<polygon fill="#ffa500" stroke="#ffa500" points="469.1349,-118.6853 460.2799,-112.8681 463.5745,-122.9376 469.1349,-118.6853"/>
<text text-anchor="middle" x="580.1646" y="-203.5" font-family="Helvetica,sans-Serif" font-size="10.00" fill="#000000"> &lt; 2 &gt;</text>
</g>
<!-- Node4 -->
<g id="node5" class="node">
<title>Node4</title>
<g id="a_node5"><a xlink:href="classPoint.html" target="_top" xlink:title="Point\&lt; 3 \&gt;">
<polygon fill="#ffffff" stroke="#000000" points="689.0337,-158.5 689.0337,-176.5 750.6245,-176.5 750.6245,-158.5 689.0337,-158.5"/>
<text text-anchor="middle" x="719.8291" y="-164.5" font-family="Helvetica,sans-Serif" font-size="10.00" fill="#000000">Point&lt; 3 &gt;</text>
</a>
</g>
</g>
<!-- Node0&#45;&gt;Node4 -->
<g id="edge4" class="edge">
<title>Node0&#45;&gt;Node4</title>
<path fill="none" stroke="#ffa500" stroke-dasharray="5,2" d="M476.6226,-117.7206C490.9661,-125.9627 510.1213,-135.8067 528.3359,-141.5 583.2546,-158.6659 650.532,-164.5009 688.9622,-166.4826"/>
<polygon fill="#ffa500" stroke="#ffa500" points="478.3397,-114.6699 467.9499,-112.5954 474.7783,-120.6963 478.3397,-114.6699"/>
<text text-anchor="middle" x="580.1646" y="-163.5" font-family="Helvetica,sans-Serif" font-size="10.00" fill="#000000"> &lt; 3 &gt;</text>
</g>
<!-- Node5 -->
<g id="node6" class="node">
<title>Node5</title>
<g id="a_node6"><a xlink:href="classPoint.html" target="_top" xlink:title="Point\&lt; dim, VectorizedArray\l\&lt; Number \&gt; \&gt;">
<polygon fill="#ffffff" stroke="#000000" points="649.9932,-111.5 649.9932,-139.5 789.665,-139.5 789.665,-111.5 649.9932,-111.5"/>
<text text-anchor="start" x="657.9932" y="-127.5" font-family="Helvetica,sans-Serif" font-size="10.00" fill="#000000">Point&lt; dim, VectorizedArray</text>
<text text-anchor="middle" x="719.8291" y="-117.5" font-family="Helvetica,sans-Serif" font-size="10.00" fill="#000000">&lt; Number &gt; &gt;</text>
</a>
</g>
</g>
<!-- Node0&#45;&gt;Node5 -->
<g id="edge5" class="edge">
<title>Node0&#45;&gt;Node5</title>
<path fill="none" stroke="#ffa500" stroke-dasharray="5,2" d="M520.523,-109.0238C559.9887,-112.2864 609.8912,-116.4117 649.8893,-119.7182"/>
<polygon fill="#ffa500" stroke="#ffa500" points="520.7218,-105.5284 510.4674,-108.1926 520.145,-112.5046 520.7218,-105.5284"/>
<text text-anchor="start" x="528.3359" y="-129.5" font-family="Helvetica,sans-Serif" font-size="10.00" fill="#000000"> &lt; dim, VectorizedArray</text>
<text text-anchor="middle" x="580.1646" y="-119.5" font-family="Helvetica,sans-Serif" font-size="10.00" fill="#000000">&lt; Number &gt; &gt;</text>
</g>
<!-- Node6 -->
<g id="node7" class="node">
<title>Node6</title>
<g id="a_node7"><a xlink:href="classPoint.html" target="_top" xlink:title="Point\&lt; dim&#45;1 \&gt;">
<polygon fill="#ffffff" stroke="#000000" points="679.312,-74.5 679.312,-92.5 760.3462,-92.5 760.3462,-74.5 679.312,-74.5"/>
<text text-anchor="middle" x="719.8291" y="-80.5" font-family="Helvetica,sans-Serif" font-size="10.00" fill="#000000">Point&lt; dim&#45;1 &gt;</text>
</a>
</g>
</g>
<!-- Node0&#45;&gt;Node6 -->
<g id="edge6" class="edge">
<title>Node0&#45;&gt;Node6</title>
<path fill="none" stroke="#ffa500" stroke-dasharray="5,2" d="M520.6948,-93.3015C523.2725,-93.0122 525.8265,-92.7433 528.3359,-92.5 580.1792,-87.4737 640.2012,-85.2293 679.0272,-84.244"/>
<polygon fill="#ffa500" stroke="#ffa500" points="520.1889,-89.837 510.6789,-94.5073 521.0256,-96.7868 520.1889,-89.837"/>
<text text-anchor="middle" x="580.1646" y="-94.5" font-family="Helvetica,sans-Serif" font-size="10.00" fill="#000000"> &lt; dim&#45;1 &gt;</text>
</g>
<!-- Node7 -->
<g id="node8" class="node">
<title>Node7</title>
<g id="a_node8"><a xlink:href="classPoint.html" target="_top" xlink:title="Point\&lt; spacedim \&gt;">
<polygon fill="#ffffff" stroke="#000000" points="670.4155,-37.5 670.4155,-55.5 769.2427,-55.5 769.2427,-37.5 670.4155,-37.5"/>
<text text-anchor="middle" x="719.8291" y="-43.5" font-family="Helvetica,sans-Serif" font-size="10.00" fill="#000000">Point&lt; spacedim &gt;</text>
</a>
</g>
</g>
<!-- Node0&#45;&gt;Node7 -->
<g id="edge7" class="edge">
<title>Node0&#45;&gt;Node7</title>
<path fill="none" stroke="#ffa500" stroke-dasharray="5,2" d="M481.0693,-90.1303C494.9326,-83.8781 512.2069,-76.8653 528.3359,-72.5 575.6184,-59.7031 631.2536,-53.046 670.3354,-49.6877"/>
<polygon fill="#ffa500" stroke="#ffa500" points="479.2434,-87.1188 471.6426,-94.4998 482.1872,-93.4698 479.2434,-87.1188"/>
<text text-anchor="middle" x="580.1646" y="-74.5" font-family="Helvetica,sans-Serif" font-size="10.00" fill="#000000"> &lt; spacedim &gt;</text>
</g>
<!-- Node8 -->
<g id="node9" class="node">
<title>Node8</title>
<g id="a_node9"><a xlink:href="classPoint.html" target="_top" xlink:title="Point\&lt; dim \&gt;">
<polygon fill="#ffffff" stroke="#000000" points="683.7578,-.5 683.7578,-18.5 755.9004,-18.5 755.9004,-.5 683.7578,-.5"/>
<text text-anchor="middle" x="719.8291" y="-6.5" font-family="Helvetica,sans-Serif" font-size="10.00" fill="#000000">Point&lt; dim &gt;</text>
</a>
</g>
</g>
<!-- Node0&#45;&gt;Node8 -->
<g id="edge8" class="edge">
<title>Node0&#45;&gt;Node8</title>
<path fill="none" stroke="#ffa500" stroke-dasharray="5,2" d="M468.1687,-87.015C482.0605,-72.3224 504.4164,-51.4928 528.3359,-40.5 578.828,-17.2953 643.7828,-11.1248 683.5816,-9.6702"/>
<polygon fill="#ffa500" stroke="#ffa500" points="465.5376,-84.7058 461.3657,-94.4447 470.7003,-89.433 465.5376,-84.7058"/>
<text text-anchor="middle" x="580.1646" y="-42.5" font-family="Helvetica,sans-Serif" font-size="10.00" fill="#000000"> &lt; dim &gt;</text>
</g>
<!-- Node1 -->
<g id="node2" class="node">
<title>Node1</title>
<g id="a_node2"><a xlink:href="classTensor.html" target="_top" xlink:title="Tensor\&lt; 1, dim, Number \&gt;">
<polygon fill="#ffffff" stroke="#000000" points="228.4648,-94.5 228.4648,-112.5 360.0703,-112.5 360.0703,-94.5 228.4648,-94.5"/>
<text text-anchor="middle" x="294.2676" y="-100.5" font-family="Helvetica,sans-Serif" font-size="10.00" fill="#000000">Tensor&lt; 1, dim, Number &gt;</text>
</a>
</g>
</g>
<!-- Node1&#45;&gt;Node0 -->
<g id="edge1" class="edge">
<title>Node1&#45;&gt;Node0</title>
<path fill="none" stroke="#191970" d="M370.536,-103.5C379.4703,-103.5 388.4625,-103.5 397.0625,-103.5"/>
<polygon fill="#191970" stroke="#191970" points="370.4975,-100.0001 360.4975,-103.5 370.4975,-107.0001 370.4975,-100.0001"/>
</g>
<!-- Node2 -->
<g id="node3" class="node">
<title>Node2</title>
<g id="a_node3"><a xlink:href="classTensor.html" target="_top" xlink:title="Tensor\&lt; rank_, dim,\l Number \&gt;">
<polygon fill="#ffffff" stroke="#000000" points="0,-89.5 0,-117.5 104.0957,-117.5 104.0957,-89.5 0,-89.5"/>
<text text-anchor="start" x="8" y="-105.5" font-family="Helvetica,sans-Serif" font-size="10.00" fill="#000000">Tensor&lt; rank_, dim,</text>
<text text-anchor="middle" x="52.0479" y="-95.5" font-family="Helvetica,sans-Serif" font-size="10.00" fill="#000000"> Number &gt;</text>
</a>
</g>
</g>
<!-- Node2&#45;&gt;Node1 -->
<g id="edge2" class="edge">
<title>Node2&#45;&gt;Node1</title>
<path fill="none" stroke="#ffa500" stroke-dasharray="5,2" d="M114.3745,-103.5C149.2705,-103.5 192.7624,-103.5 228.2406,-103.5"/>
<polygon fill="#ffa500" stroke="#ffa500" points="114.3077,-100.0001 104.3077,-103.5 114.3077,-107.0001 114.3077,-100.0001"/>
<text text-anchor="middle" x="166.2803" y="-105.5" font-family="Helvetica,sans-Serif" font-size="10.00" fill="#000000"> &lt; 1, dim, Number &gt;</text>
</g>
</g>
</svg>
