<?xml version="1.0" encoding="UTF-8" standalone="no"?>
<!DOCTYPE svg PUBLIC "-//W3C//DTD SVG 1.1//EN"
 "http://www.w3.org/Graphics/SVG/1.1/DTD/svg11.dtd">
<!-- Generated by graphviz version 2.40.1 (20161225.0304)
 -->
<!-- Title: LinearOperator&lt; Range, Domain, Payload &gt; Pages: 1 -->
<svg width="239pt" height="198pt"
 viewBox="0.00 0.00 239.46 198.00" xmlns="http://www.w3.org/2000/svg" xmlns:xlink="http://www.w3.org/1999/xlink">
<g id="graph0" class="graph" transform="scale(1 1) rotate(0) translate(4 194)">
<title>LinearOperator&lt; Range, Domain, Payload &gt;</title>
<polygon fill="#ffffff" stroke="transparent" points="-4,4 -4,-194 235.4595,-194 235.4595,4 -4,4"/>
<!-- Node0 -->
<g id="node1" class="node">
<title>Node0</title>
<polygon fill="#bfbfbf" stroke="#000000" points="22.3706,-161.5 22.3706,-189.5 146.4956,-189.5 146.4956,-161.5 22.3706,-161.5"/>
<text text-anchor="start" x="30.3706" y="-177.5" font-family="Helvetica,sans-Serif" font-size="10.00" fill="#000000">LinearOperator&lt; Range,</text>
<text text-anchor="middle" x="84.4331" y="-167.5" font-family="Helvetica,sans-Serif" font-size="10.00" fill="#000000"> Domain, Payload &gt;</text>
</g>
<!-- Node1 -->
<g id="node2" class="node">
<title>Node1</title>
<g id="a_node2"><a xlink:href="classLinearOperator.html" target="_top" xlink:title="LinearOperator\&lt; Range,\l Domain, BlockPayload\l::BlockType \&gt;">
<polygon fill="#ffffff" stroke="#000000" points="22.3706,-66.5 22.3706,-104.5 146.4956,-104.5 146.4956,-66.5 22.3706,-66.5"/>
<text text-anchor="start" x="30.3706" y="-92.5" font-family="Helvetica,sans-Serif" font-size="10.00" fill="#000000">LinearOperator&lt; Range,</text>
<text text-anchor="start" x="30.3706" y="-82.5" font-family="Helvetica,sans-Serif" font-size="10.00" fill="#000000"> Domain, BlockPayload</text>
<text text-anchor="middle" x="84.4331" y="-72.5" font-family="Helvetica,sans-Serif" font-size="10.00" fill="#000000">::BlockType &gt;</text>
</a>
</g>
</g>
<!-- Node0&#45;&gt;Node1 -->
<g id="edge1" class="edge">
<title>Node0&#45;&gt;Node1</title>
<path fill="none" stroke="#ffa500" stroke-dasharray="5,2" d="M84.4331,-151.1632C84.4331,-136.6073 84.4331,-118.367 84.4331,-104.8073"/>
<polygon fill="#ffa500" stroke="#ffa500" points="80.9332,-151.4375 84.4331,-161.4375 87.9332,-151.4375 80.9332,-151.4375"/>
<text text-anchor="start" x="84.4331" y="-135" font-family="Helvetica,sans-Serif" font-size="10.00" fill="#000000"> &lt; Range, Domain, BlockPayload</text>
<text text-anchor="middle" x="157.9463" y="-125" font-family="Helvetica,sans-Serif" font-size="10.00" fill="#000000">::BlockType &gt;</text>
</g>
<!-- Node2 -->
<g id="node3" class="node">
<title>Node2</title>
<g id="a_node3"><a xlink:href="classBlockLinearOperator.html" target="_top" xlink:title="BlockLinearOperator\l\&lt; Range, Domain, BlockPayload \&gt;">
<polygon fill="#ffffff" stroke="#000000" points="0,-.5 0,-28.5 168.8662,-28.5 168.8662,-.5 0,-.5"/>
<text text-anchor="start" x="8" y="-16.5" font-family="Helvetica,sans-Serif" font-size="10.00" fill="#000000">BlockLinearOperator</text>
<text text-anchor="middle" x="84.4331" y="-6.5" font-family="Helvetica,sans-Serif" font-size="10.00" fill="#000000">&lt; Range, Domain, BlockPayload &gt;</text>
</a>
</g>
</g>
<!-- Node1&#45;&gt;Node2 -->
<g id="edge2" class="edge">
<title>Node1&#45;&gt;Node2</title>
<path fill="none" stroke="#191970" d="M84.4331,-56.2143C84.4331,-46.768 84.4331,-36.7158 84.4331,-28.8465"/>
<polygon fill="#191970" stroke="#191970" points="80.9332,-56.4733 84.4331,-66.4733 87.9332,-56.4733 80.9332,-56.4733"/>
</g>
</g>
</svg>
