<?xml version="1.0" encoding="UTF-8" standalone="no"?>
<!DOCTYPE svg PUBLIC "-//W3C//DTD SVG 1.1//EN"
 "http://www.w3.org/Graphics/SVG/1.1/DTD/svg11.dtd">
<!-- Generated by graphviz version 2.40.1 (20161225.0304)
 -->
<!-- Title: PETScWrappers::BlockVector Pages: 1 -->
<svg width="253pt" height="204pt"
 viewBox="0.00 0.00 252.76 204.00" xmlns="http://www.w3.org/2000/svg" xmlns:xlink="http://www.w3.org/1999/xlink">
<g id="graph0" class="graph" transform="scale(1 1) rotate(0) translate(4 200)">
<title>PETScWrappers::BlockVector</title>
<polygon fill="#ffffff" stroke="transparent" points="-4,4 -4,-200 248.7637,-200 248.7637,4 -4,4"/>
<!-- Node0 -->
<g id="node1" class="node">
<title>Node0</title>
<polygon fill="#bfbfbf" stroke="#000000" points="0,-.5 0,-18.5 148.6514,-18.5 148.6514,-.5 0,-.5"/>
<text text-anchor="middle" x="74.3257" y="-6.5" font-family="Helvetica,sans-Serif" font-size="10.00" fill="#000000">PETScWrappers::BlockVector</text>
</g>
<!-- Node1 -->
<g id="node2" class="node">
<title>Node1</title>
<g id="a_node2"><a xlink:href="classBlockVectorBase.html" target="_top" xlink:title="BlockVectorBase\&lt; Vector \&gt;">
<polygon fill="#ffffff" stroke="#000000" points="5.73,-56.5 5.73,-74.5 142.9214,-74.5 142.9214,-56.5 5.73,-56.5"/>
<text text-anchor="middle" x="74.3257" y="-62.5" font-family="Helvetica,sans-Serif" font-size="10.00" fill="#000000">BlockVectorBase&lt; Vector &gt;</text>
</a>
</g>
</g>
<!-- Node1&#45;&gt;Node0 -->
<g id="edge1" class="edge">
<title>Node1&#45;&gt;Node0</title>
<path fill="none" stroke="#191970" d="M74.3257,-46.2065C74.3257,-36.8384 74.3257,-26.0262 74.3257,-18.5752"/>
<polygon fill="#191970" stroke="#191970" points="70.8258,-46.2527 74.3257,-56.2527 77.8258,-46.2528 70.8258,-46.2527"/>
</g>
<!-- Node2 -->
<g id="node3" class="node">
<title>Node2</title>
<g id="a_node3"><a xlink:href="classSubscriptor.html" target="_top" xlink:title="Subscriptor">
<polygon fill="#ffffff" stroke="#000000" points="37.0376,-177.5 37.0376,-195.5 103.6138,-195.5 103.6138,-177.5 37.0376,-177.5"/>
<text text-anchor="middle" x="70.3257" y="-183.5" font-family="Helvetica,sans-Serif" font-size="10.00" fill="#000000">Subscriptor</text>
</a>
</g>
</g>
<!-- Node2&#45;&gt;Node1 -->
<g id="edge2" class="edge">
<title>Node2&#45;&gt;Node1</title>
<path fill="none" stroke="#191970" d="M70.9662,-167.1238C71.8404,-140.6786 73.3726,-94.3298 74.0215,-74.7002"/>
<polygon fill="#191970" stroke="#191970" points="67.4587,-167.2951 70.6263,-177.4053 74.4549,-167.5265 67.4587,-167.2951"/>
</g>
<!-- Node3 -->
<g id="node4" class="node">
<title>Node3</title>
<g id="a_node4"><a xlink:href="classBlockVectorBase.html" target="_top" xlink:title="BlockVectorBase\&lt; VectorType \&gt;">
<polygon fill="#ffffff" stroke="#000000" points="85.8877,-121.5 85.8877,-139.5 244.7637,-139.5 244.7637,-121.5 85.8877,-121.5"/>
<text text-anchor="middle" x="165.3257" y="-127.5" font-family="Helvetica,sans-Serif" font-size="10.00" fill="#000000">BlockVectorBase&lt; VectorType &gt;</text>
</a>
</g>
</g>
<!-- Node2&#45;&gt;Node3 -->
<g id="edge4" class="edge">
<title>Node2&#45;&gt;Node3</title>
<path fill="none" stroke="#191970" d="M95.0291,-171.938C112.3958,-161.7008 135.0918,-148.3221 149.9303,-139.5752"/>
<polygon fill="#191970" stroke="#191970" points="92.8503,-169.1594 86.013,-177.2527 96.4051,-175.1897 92.8503,-169.1594"/>
</g>
<!-- Node3&#45;&gt;Node1 -->
<g id="edge3" class="edge">
<title>Node3&#45;&gt;Node1</title>
<path fill="none" stroke="#ffa500" stroke-dasharray="5,2" d="M144.1667,-115.3865C126.5266,-102.7864 101.9688,-85.2451 87.1647,-74.6708"/>
<polygon fill="#ffa500" stroke="#ffa500" points="142.5008,-118.4977 152.6725,-121.462 146.5695,-112.8015 142.5008,-118.4977"/>
<text text-anchor="middle" x="148.5103" y="-95" font-family="Helvetica,sans-Serif" font-size="10.00" fill="#000000"> &lt; Vector &gt;</text>
</g>
</g>
</svg>
