<?xml version="1.0" encoding="UTF-8" standalone="no"?>
<!DOCTYPE svg PUBLIC "-//W3C//DTD SVG 1.1//EN"
 "http://www.w3.org/Graphics/SVG/1.1/DTD/svg11.dtd">
<!-- Generated by graphviz version 2.40.1 (20161225.0304)
 -->
<!-- Title: PreconditionChebyshev&lt; MatrixType, VectorType, PreconditionerType &gt; Pages: 1 -->
<svg width="140pt" height="102pt"
 viewBox="0.00 0.00 139.90 102.00" xmlns="http://www.w3.org/2000/svg" xmlns:xlink="http://www.w3.org/1999/xlink">
<g id="graph0" class="graph" transform="scale(1 1) rotate(0) translate(4 98)">
<title>PreconditionChebyshev&lt; MatrixType, VectorType, PreconditionerType &gt;</title>
<polygon fill="#ffffff" stroke="transparent" points="-4,4 -4,-98 135.8984,-98 135.8984,4 -4,4"/>
<!-- Node0 -->
<g id="node1" class="node">
<title>Node0</title>
<polygon fill="#bfbfbf" stroke="#000000" points="0,-.5 0,-38.5 131.8984,-38.5 131.8984,-.5 0,-.5"/>
<text text-anchor="start" x="8" y="-26.5" font-family="Helvetica,sans-Serif" font-size="10.00" fill="#000000">PreconditionChebyshev</text>
<text text-anchor="start" x="8" y="-16.5" font-family="Helvetica,sans-Serif" font-size="10.00" fill="#000000">&lt; MatrixType, VectorType,</text>
<text text-anchor="middle" x="65.9492" y="-6.5" font-family="Helvetica,sans-Serif" font-size="10.00" fill="#000000"> PreconditionerType &gt;</text>
</g>
<!-- Node1 -->
<g id="node2" class="node">
<title>Node1</title>
<g id="a_node2"><a xlink:href="classSubscriptor.html" target="_top" xlink:title="Subscriptor">
<polygon fill="#ffffff" stroke="#000000" points="32.6611,-75.5 32.6611,-93.5 99.2373,-93.5 99.2373,-75.5 32.6611,-75.5"/>
<text text-anchor="middle" x="65.9492" y="-81.5" font-family="Helvetica,sans-Serif" font-size="10.00" fill="#000000">Subscriptor</text>
</a>
</g>
</g>
<!-- Node1&#45;&gt;Node0 -->
<g id="edge1" class="edge">
<title>Node1&#45;&gt;Node0</title>
<path fill="none" stroke="#191970" d="M65.9492,-65.4456C65.9492,-56.9924 65.9492,-47.066 65.9492,-38.6068"/>
<polygon fill="#191970" stroke="#191970" points="62.4493,-65.462 65.9492,-75.462 69.4493,-65.4621 62.4493,-65.462"/>
</g>
</g>
</svg>
