<?xml version="1.0" encoding="UTF-8" standalone="no"?>
<!DOCTYPE svg PUBLIC "-//W3C//DTD SVG 1.1//EN"
 "http://www.w3.org/Graphics/SVG/1.1/DTD/svg11.dtd">
<!-- Generated by graphviz version 2.40.1 (20161225.0304)
 -->
<!-- Title: RefinementCase&lt; dim &gt; Pages: 1 -->
<svg width="616pt" height="247pt"
 viewBox="0.00 0.00 616.09 246.50" xmlns="http://www.w3.org/2000/svg" xmlns:xlink="http://www.w3.org/1999/xlink">
<g id="graph0" class="graph" transform="scale(1 1) rotate(0) translate(4 242.5)">
<title>RefinementCase&lt; dim &gt;</title>
<polygon fill="#ffffff" stroke="transparent" points="-4,4 -4,-242.5 612.0898,-242.5 612.0898,4 -4,4"/>
<!-- Node0 -->
<g id="node1" class="node">
<title>Node0</title>
<polygon fill="#bfbfbf" stroke="#000000" points="156.3789,-119.5 156.3789,-137.5 280.2109,-137.5 280.2109,-119.5 156.3789,-119.5"/>
<text text-anchor="middle" x="218.2949" y="-125.5" font-family="Helvetica,sans-Serif" font-size="10.00" fill="#000000">RefinementCase&lt; dim &gt;</text>
</g>
<!-- Node2 -->
<g id="node3" class="node">
<title>Node2</title>
<g id="a_node3"><a xlink:href="classRefinementCase.html" target="_top" xlink:title="RefinementCase\&lt; TriaObject\l\&lt; 2 \&gt; ::dimension \&gt;">
<polygon fill="#ffffff" stroke="#000000" points="463.4082,-208.5 463.4082,-236.5 608.0898,-236.5 608.0898,-208.5 463.4082,-208.5"/>
<text text-anchor="start" x="471.4082" y="-224.5" font-family="Helvetica,sans-Serif" font-size="10.00" fill="#000000">RefinementCase&lt; TriaObject</text>
<text text-anchor="middle" x="535.749" y="-214.5" font-family="Helvetica,sans-Serif" font-size="10.00" fill="#000000">&lt; 2 &gt; ::dimension &gt;</text>
</a>
</g>
</g>
<!-- Node0&#45;&gt;Node2 -->
<g id="edge2" class="edge">
<title>Node0&#45;&gt;Node2</title>
<path fill="none" stroke="#ffa500" stroke-dasharray="5,2" d="M235.1853,-144.8864C250.3862,-158.6117 273.9969,-177.5149 298.2109,-187.5 350.8133,-209.1916 414.8536,-217.7018 463.1792,-220.9203"/>
<polygon fill="#ffa500" stroke="#ffa500" points="237.3615,-142.1305 227.6552,-137.8834 232.5944,-147.2565 237.3615,-142.1305"/>
<text text-anchor="start" x="330.5327" y="-230.5" font-family="Helvetica,sans-Serif" font-size="10.00" fill="#000000"> &lt; TriaObject&lt; 2 &gt; </text>
<text text-anchor="middle" x="371.8096" y="-220.5" font-family="Helvetica,sans-Serif" font-size="10.00" fill="#000000">::dimension &gt;</text>
</g>
<!-- Node3 -->
<g id="node4" class="node">
<title>Node3</title>
<g id="a_node4"><a xlink:href="classRefinementCase.html" target="_top" xlink:title="RefinementCase\&lt; TriaObject\l\&lt; 3 \&gt; ::dimension \&gt;">
<polygon fill="#ffffff" stroke="#000000" points="463.4082,-161.5 463.4082,-189.5 608.0898,-189.5 608.0898,-161.5 463.4082,-161.5"/>
<text text-anchor="start" x="471.4082" y="-177.5" font-family="Helvetica,sans-Serif" font-size="10.00" fill="#000000">RefinementCase&lt; TriaObject</text>
<text text-anchor="middle" x="535.749" y="-167.5" font-family="Helvetica,sans-Serif" font-size="10.00" fill="#000000">&lt; 3 &gt; ::dimension &gt;</text>
</a>
</g>
</g>
<!-- Node0&#45;&gt;Node3 -->
<g id="edge3" class="edge">
<title>Node0&#45;&gt;Node3</title>
<path fill="none" stroke="#ffa500" stroke-dasharray="5,2" d="M278.028,-139.2021C284.8294,-140.35 291.6665,-141.4725 298.2109,-142.5 353.5327,-151.1858 416.2923,-159.8538 463.4034,-166.1253"/>
<polygon fill="#ffa500" stroke="#ffa500" points="278.5738,-135.7447 268.1271,-137.5102 277.3947,-142.6447 278.5738,-135.7447"/>
<text text-anchor="start" x="330.5327" y="-175.5" font-family="Helvetica,sans-Serif" font-size="10.00" fill="#000000"> &lt; TriaObject&lt; 3 &gt; </text>
<text text-anchor="middle" x="371.8096" y="-165.5" font-family="Helvetica,sans-Serif" font-size="10.00" fill="#000000">::dimension &gt;</text>
</g>
<!-- Node4 -->
<g id="node5" class="node">
<title>Node4</title>
<g id="a_node5"><a xlink:href="classRefinementCase.html" target="_top" xlink:title="RefinementCase\&lt; G::\ldimension \&gt;">
<polygon fill="#ffffff" stroke="#000000" points="479.5313,-114.5 479.5313,-142.5 591.9668,-142.5 591.9668,-114.5 479.5313,-114.5"/>
<text text-anchor="start" x="487.5313" y="-130.5" font-family="Helvetica,sans-Serif" font-size="10.00" fill="#000000">RefinementCase&lt; G::</text>
<text text-anchor="middle" x="535.749" y="-120.5" font-family="Helvetica,sans-Serif" font-size="10.00" fill="#000000">dimension &gt;</text>
</a>
</g>
</g>
<!-- Node0&#45;&gt;Node4 -->
<g id="edge4" class="edge">
<title>Node0&#45;&gt;Node4</title>
<path fill="none" stroke="#ffa500" stroke-dasharray="5,2" d="M290.3399,-128.5C347.683,-128.5 426.797,-128.5 479.5309,-128.5"/>
<polygon fill="#ffa500" stroke="#ffa500" points="290.2569,-125.0001 280.2569,-128.5 290.2568,-132.0001 290.2569,-125.0001"/>
<text text-anchor="middle" x="371.8096" y="-130.5" font-family="Helvetica,sans-Serif" font-size="10.00" fill="#000000"> &lt; G::dimension &gt;</text>
</g>
<!-- Node5 -->
<g id="node6" class="node">
<title>Node5</title>
<g id="a_node6"><a xlink:href="classRefinementCase.html" target="_top" xlink:title="RefinementCase\&lt; internal\l::Triangulation::TriaObject\l\&lt; dim \&gt; ::dimension \&gt;">
<polygon fill="#ffffff" stroke="#000000" points="469.7998,-57.5 469.7998,-95.5 601.6982,-95.5 601.6982,-57.5 469.7998,-57.5"/>
<text text-anchor="start" x="477.7998" y="-83.5" font-family="Helvetica,sans-Serif" font-size="10.00" fill="#000000">RefinementCase&lt; internal</text>
<text text-anchor="start" x="477.7998" y="-73.5" font-family="Helvetica,sans-Serif" font-size="10.00" fill="#000000">::Triangulation::TriaObject</text>
<text text-anchor="middle" x="535.749" y="-63.5" font-family="Helvetica,sans-Serif" font-size="10.00" fill="#000000">&lt; dim &gt; ::dimension &gt;</text>
</a>
</g>
</g>
<!-- Node0&#45;&gt;Node5 -->
<g id="edge5" class="edge">
<title>Node0&#45;&gt;Node5</title>
<path fill="none" stroke="#ffa500" stroke-dasharray="5,2" d="M253.8351,-116.3767C267.5638,-112.0778 283.4868,-107.5544 298.2109,-104.5 355.5404,-92.6075 421.7774,-85.3213 469.7183,-81.1749"/>
<polygon fill="#ffa500" stroke="#ffa500" points="252.728,-113.0561 244.2748,-119.4431 254.866,-119.7217 252.728,-113.0561"/>
<text text-anchor="start" x="298.2109" y="-116.5" font-family="Helvetica,sans-Serif" font-size="10.00" fill="#000000"> &lt; internal::Triangulation</text>
<text text-anchor="middle" x="371.8096" y="-106.5" font-family="Helvetica,sans-Serif" font-size="10.00" fill="#000000">::TriaObject&lt; dim &gt; ::dimension &gt;</text>
</g>
<!-- Node6 -->
<g id="node7" class="node">
<title>Node6</title>
<g id="a_node7"><a xlink:href="classRefinementCase.html" target="_top" xlink:title="RefinementCase\&lt; internal\l::Triangulation::TriaObject\l\&lt; 1 \&gt; ::dimension \&gt;">
<polygon fill="#ffffff" stroke="#000000" points="469.7998,-.5 469.7998,-38.5 601.6982,-38.5 601.6982,-.5 469.7998,-.5"/>
<text text-anchor="start" x="477.7998" y="-26.5" font-family="Helvetica,sans-Serif" font-size="10.00" fill="#000000">RefinementCase&lt; internal</text>
<text text-anchor="start" x="477.7998" y="-16.5" font-family="Helvetica,sans-Serif" font-size="10.00" fill="#000000">::Triangulation::TriaObject</text>
<text text-anchor="middle" x="535.749" y="-6.5" font-family="Helvetica,sans-Serif" font-size="10.00" fill="#000000">&lt; 1 &gt; ::dimension &gt;</text>
</a>
</g>
</g>
<!-- Node0&#45;&gt;Node6 -->
<g id="edge6" class="edge">
<title>Node0&#45;&gt;Node6</title>
<path fill="none" stroke="#ffa500" stroke-dasharray="5,2" d="M232.8307,-111.444C247.5829,-95.3345 271.9371,-71.854 298.2109,-59.5 352.4239,-34.0089 420.3426,-24.5212 469.6533,-21.1085"/>
<polygon fill="#ffa500" stroke="#ffa500" points="230.056,-109.2974 226.0321,-119.0984 235.2897,-113.9459 230.056,-109.2974"/>
<text text-anchor="start" x="303.4868" y="-71.5" font-family="Helvetica,sans-Serif" font-size="10.00" fill="#000000"> &lt; internal::Triangulation</text>
<text text-anchor="middle" x="371.8096" y="-61.5" font-family="Helvetica,sans-Serif" font-size="10.00" fill="#000000">::TriaObject&lt; 1 &gt; ::dimension &gt;</text>
</g>
<!-- Node1 -->
<g id="node2" class="node">
<title>Node1</title>
<g id="a_node2"><a xlink:href="structRefinementPossibilities.html" target="_top" xlink:title="RefinementPossibilities\l\&lt; dim \&gt;">
<polygon fill="#ffffff" stroke="#000000" points="0,-114.5 0,-142.5 119.3789,-142.5 119.3789,-114.5 0,-114.5"/>
<text text-anchor="start" x="8" y="-130.5" font-family="Helvetica,sans-Serif" font-size="10.00" fill="#000000">RefinementPossibilities</text>
<text text-anchor="middle" x="59.6895" y="-120.5" font-family="Helvetica,sans-Serif" font-size="10.00" fill="#000000">&lt; dim &gt;</text>
</a>
</g>
</g>
<!-- Node1&#45;&gt;Node0 -->
<g id="edge1" class="edge">
<title>Node1&#45;&gt;Node0</title>
<path fill="none" stroke="#191970" d="M129.8391,-128.5C138.5989,-128.5 147.5096,-128.5 156.1361,-128.5"/>
<polygon fill="#191970" stroke="#191970" points="129.6514,-125.0001 119.6514,-128.5 129.6513,-132.0001 129.6514,-125.0001"/>
</g>
</g>
</svg>
