<?xml version="1.0" encoding="UTF-8" standalone="no"?>
<!DOCTYPE svg PUBLIC "-//W3C//DTD SVG 1.1//EN"
 "http://www.w3.org/Graphics/SVG/1.1/DTD/svg11.dtd">
<!-- Generated by graphviz version 2.40.1 (20161225.0304)
 -->
<!-- Title: internal::DoFHandler::Policy::PolicyBase&lt; dim, spacedim &gt; Pages: 1 -->
<svg width="443pt" height="104pt"
 viewBox="0.00 0.00 442.58 104.00" xmlns="http://www.w3.org/2000/svg" xmlns:xlink="http://www.w3.org/1999/xlink">
<g id="graph0" class="graph" transform="scale(1 1) rotate(0) translate(4 100)">
<title>internal::DoFHandler::Policy::PolicyBase&lt; dim, spacedim &gt;</title>
<polygon fill="#ffffff" stroke="transparent" points="-4,4 -4,-100 438.585,-100 438.585,4 -4,4"/>
<!-- Node0 -->
<g id="node1" class="node">
<title>Node0</title>
<polygon fill="#bfbfbf" stroke="#000000" points="0,-28.5 0,-66.5 108.2656,-66.5 108.2656,-28.5 0,-28.5"/>
<text text-anchor="start" x="8" y="-54.5" font-family="Helvetica,sans-Serif" font-size="10.00" fill="#000000">internal::DoFHandler</text>
<text text-anchor="start" x="8" y="-44.5" font-family="Helvetica,sans-Serif" font-size="10.00" fill="#000000">::Policy::PolicyBase</text>
<text text-anchor="middle" x="54.1328" y="-34.5" font-family="Helvetica,sans-Serif" font-size="10.00" fill="#000000">&lt; dim, spacedim &gt;</text>
</g>
<!-- Node1 -->
<g id="node2" class="node">
<title>Node1</title>
<g id="a_node2"><a xlink:href="classinternal_1_1DoFHandler_1_1Policy_1_1ParallelDistributed.html" target="_top" xlink:title="internal::DoFHandler\l::Policy::ParallelDistributed\l\&lt; dim, spacedim \&gt;">
<polygon fill="#ffffff" stroke="#000000" points="144.2656,-57.5 144.2656,-95.5 279.2012,-95.5 279.2012,-57.5 144.2656,-57.5"/>
<text text-anchor="start" x="152.2656" y="-83.5" font-family="Helvetica,sans-Serif" font-size="10.00" fill="#000000">internal::DoFHandler</text>
<text text-anchor="start" x="152.2656" y="-73.5" font-family="Helvetica,sans-Serif" font-size="10.00" fill="#000000">::Policy::ParallelDistributed</text>
<text text-anchor="middle" x="211.7334" y="-63.5" font-family="Helvetica,sans-Serif" font-size="10.00" fill="#000000">&lt; dim, spacedim &gt;</text>
</a>
</g>
</g>
<!-- Node0&#45;&gt;Node1 -->
<g id="edge1" class="edge">
<title>Node0&#45;&gt;Node1</title>
<path fill="none" stroke="#191970" d="M118.2201,-59.2927C126.7249,-60.8576 135.4667,-62.4662 144.0302,-64.042"/>
<polygon fill="#191970" stroke="#191970" points="118.8383,-55.8477 108.37,-57.4802 117.5715,-62.7322 118.8383,-55.8477"/>
</g>
<!-- Node2 -->
<g id="node3" class="node">
<title>Node2</title>
<g id="a_node3"><a xlink:href="classinternal_1_1DoFHandler_1_1Policy_1_1Sequential.html" target="_top" xlink:title="internal::DoFHandler\l::Policy::Sequential\l\&lt; dim, spacedim \&gt;">
<polygon fill="#ffffff" stroke="#000000" points="157.6006,-.5 157.6006,-38.5 265.8662,-38.5 265.8662,-.5 157.6006,-.5"/>
<text text-anchor="start" x="165.6006" y="-26.5" font-family="Helvetica,sans-Serif" font-size="10.00" fill="#000000">internal::DoFHandler</text>
<text text-anchor="start" x="165.6006" y="-16.5" font-family="Helvetica,sans-Serif" font-size="10.00" fill="#000000">::Policy::Sequential</text>
<text text-anchor="middle" x="211.7334" y="-6.5" font-family="Helvetica,sans-Serif" font-size="10.00" fill="#000000">&lt; dim, spacedim &gt;</text>
</a>
</g>
</g>
<!-- Node0&#45;&gt;Node2 -->
<g id="edge2" class="edge">
<title>Node0&#45;&gt;Node2</title>
<path fill="none" stroke="#191970" d="M118.5685,-36.0521C131.4615,-33.7615 144.8855,-31.3765 157.3962,-29.1538"/>
<polygon fill="#191970" stroke="#191970" points="117.6035,-32.6686 108.37,-37.864 118.8281,-39.5607 117.6035,-32.6686"/>
</g>
<!-- Node3 -->
<g id="node4" class="node">
<title>Node3</title>
<g id="a_node4"><a xlink:href="classinternal_1_1DoFHandler_1_1Policy_1_1ParallelShared.html" target="_top" xlink:title="internal::DoFHandler\l::Policy::ParallelShared\l\&lt; dim, spacedim \&gt;">
<polygon fill="#ffffff" stroke="#000000" points="315.2012,-.5 315.2012,-38.5 434.585,-38.5 434.585,-.5 315.2012,-.5"/>
<text text-anchor="start" x="323.2012" y="-26.5" font-family="Helvetica,sans-Serif" font-size="10.00" fill="#000000">internal::DoFHandler</text>
<text text-anchor="start" x="323.2012" y="-16.5" font-family="Helvetica,sans-Serif" font-size="10.00" fill="#000000">::Policy::ParallelShared</text>
<text text-anchor="middle" x="374.8931" y="-6.5" font-family="Helvetica,sans-Serif" font-size="10.00" fill="#000000">&lt; dim, spacedim &gt;</text>
</a>
</g>
</g>
<!-- Node2&#45;&gt;Node3 -->
<g id="edge3" class="edge">
<title>Node2&#45;&gt;Node3</title>
<path fill="none" stroke="#191970" d="M276.2146,-19.5C289.0632,-19.5 302.5042,-19.5 315.1841,-19.5"/>
<polygon fill="#191970" stroke="#191970" points="276.0632,-16.0001 266.0632,-19.5 276.0632,-23.0001 276.0632,-16.0001"/>
</g>
</g>
</svg>
