<?xml version="1.0" encoding="UTF-8" standalone="no"?>
<!DOCTYPE svg PUBLIC "-//W3C//DTD SVG 1.1//EN"
 "http://www.w3.org/Graphics/SVG/1.1/DTD/svg11.dtd">
<!-- Generated by graphviz version 2.40.1 (20161225.0304)
 -->
<!-- Title: TrilinosWrappers::SparseMatrixIterators::Accessor&lt; Constess &gt; Pages: 1 -->
<svg width="157pt" height="198pt"
 viewBox="0.00 0.00 157.37 198.00" xmlns="http://www.w3.org/2000/svg" xmlns:xlink="http://www.w3.org/1999/xlink">
<g id="graph0" class="graph" transform="scale(1 1) rotate(0) translate(4 194)">
<title>TrilinosWrappers::SparseMatrixIterators::Accessor&lt; Constess &gt;</title>
<polygon fill="#ffffff" stroke="transparent" points="-4,4 -4,-194 153.374,-194 153.374,4 -4,4"/>
<!-- Node0 -->
<g id="node1" class="node">
<title>Node0</title>
<polygon fill="#bfbfbf" stroke="#000000" points="10.5518,-85.5 10.5518,-123.5 138.8223,-123.5 138.8223,-85.5 10.5518,-85.5"/>
<text text-anchor="start" x="18.5518" y="-111.5" font-family="Helvetica,sans-Serif" font-size="10.00" fill="#000000">TrilinosWrappers::Sparse</text>
<text text-anchor="start" x="18.5518" y="-101.5" font-family="Helvetica,sans-Serif" font-size="10.00" fill="#000000">MatrixIterators::Accessor</text>
<text text-anchor="middle" x="74.687" y="-91.5" font-family="Helvetica,sans-Serif" font-size="10.00" fill="#000000">&lt; Constess &gt;</text>
</g>
<!-- Node2 -->
<g id="node3" class="node">
<title>Node2</title>
<g id="a_node3"><a xlink:href="classTrilinosWrappers_1_1SparseMatrixIterators_1_1Accessor.html" target="_top" xlink:title="TrilinosWrappers::Sparse\lMatrixIterators::Accessor\l\&lt; Constness \&gt;">
<polygon fill="#ffffff" stroke="#000000" points="10.5518,-.5 10.5518,-38.5 138.8223,-38.5 138.8223,-.5 10.5518,-.5"/>
<text text-anchor="start" x="18.5518" y="-26.5" font-family="Helvetica,sans-Serif" font-size="10.00" fill="#000000">TrilinosWrappers::Sparse</text>
<text text-anchor="start" x="18.5518" y="-16.5" font-family="Helvetica,sans-Serif" font-size="10.00" fill="#000000">MatrixIterators::Accessor</text>
<text text-anchor="middle" x="74.687" y="-6.5" font-family="Helvetica,sans-Serif" font-size="10.00" fill="#000000">&lt; Constness &gt;</text>
</a>
</g>
</g>
<!-- Node0&#45;&gt;Node2 -->
<g id="edge2" class="edge">
<title>Node0&#45;&gt;Node2</title>
<path fill="none" stroke="#ffa500" stroke-dasharray="5,2" d="M74.687,-75.1317C74.687,-63.076 74.687,-49.457 74.687,-38.7115"/>
<polygon fill="#ffa500" stroke="#ffa500" points="71.1871,-75.2121 74.687,-85.2122 78.1871,-75.2122 71.1871,-75.2121"/>
<text text-anchor="middle" x="108.3174" y="-59" font-family="Helvetica,sans-Serif" font-size="10.00" fill="#000000"> &lt; Constness &gt;</text>
</g>
<!-- Node1 -->
<g id="node2" class="node">
<title>Node1</title>
<g id="a_node2"><a xlink:href="classTrilinosWrappers_1_1SparseMatrixIterators_1_1AccessorBase.html" target="_top" xlink:title="TrilinosWrappers::Sparse\lMatrixIterators::AccessorBase">
<polygon fill="#ffffff" stroke="#000000" points="0,-161.5 0,-189.5 149.374,-189.5 149.374,-161.5 0,-161.5"/>
<text text-anchor="start" x="8" y="-177.5" font-family="Helvetica,sans-Serif" font-size="10.00" fill="#000000">TrilinosWrappers::Sparse</text>
<text text-anchor="middle" x="74.687" y="-167.5" font-family="Helvetica,sans-Serif" font-size="10.00" fill="#000000">MatrixIterators::AccessorBase</text>
</a>
</g>
</g>
<!-- Node1&#45;&gt;Node0 -->
<g id="edge1" class="edge">
<title>Node1&#45;&gt;Node0</title>
<path fill="none" stroke="#191970" d="M74.687,-151.1894C74.687,-142.1757 74.687,-132.0901 74.687,-123.6055"/>
<polygon fill="#191970" stroke="#191970" points="71.1871,-151.4727 74.687,-161.4727 78.1871,-151.4727 71.1871,-151.4727"/>
</g>
</g>
</svg>
