<?xml version="1.0" encoding="UTF-8" standalone="no"?>
<!DOCTYPE svg PUBLIC "-//W3C//DTD SVG 1.1//EN"
 "http://www.w3.org/Graphics/SVG/1.1/DTD/svg11.dtd">
<!-- Generated by graphviz version 2.40.1 (20161225.0304)
 -->
<!-- Title: PETScWrappers::MatrixFree Pages: 1 -->
<svg width="154pt" height="137pt"
 viewBox="0.00 0.00 153.86 137.00" xmlns="http://www.w3.org/2000/svg" xmlns:xlink="http://www.w3.org/1999/xlink">
<g id="graph0" class="graph" transform="scale(1 1) rotate(0) translate(4 133)">
<title>PETScWrappers::MatrixFree</title>
<polygon fill="#ffffff" stroke="transparent" points="-4,4 -4,-133 149.8584,-133 149.8584,4 -4,4"/>
<!-- Node0 -->
<g id="node1" class="node">
<title>Node0</title>
<polygon fill="#bfbfbf" stroke="#000000" points="1.1157,-.5 1.1157,-18.5 144.7427,-18.5 144.7427,-.5 1.1157,-.5"/>
<text text-anchor="middle" x="72.9292" y="-6.5" font-family="Helvetica,sans-Serif" font-size="10.00" fill="#000000">PETScWrappers::MatrixFree</text>
</g>
<!-- Node1 -->
<g id="node2" class="node">
<title>Node1</title>
<g id="a_node2"><a xlink:href="classPETScWrappers_1_1MatrixBase.html" target="_top" xlink:title="PETScWrappers::MatrixBase">
<polygon fill="#ffffff" stroke="#000000" points="0,-55.5 0,-73.5 145.8584,-73.5 145.8584,-55.5 0,-55.5"/>
<text text-anchor="middle" x="72.9292" y="-61.5" font-family="Helvetica,sans-Serif" font-size="10.00" fill="#000000">PETScWrappers::MatrixBase</text>
</a>
</g>
</g>
<!-- Node1&#45;&gt;Node0 -->
<g id="edge1" class="edge">
<title>Node1&#45;&gt;Node0</title>
<path fill="none" stroke="#191970" d="M72.9292,-45.383C72.9292,-36.3738 72.9292,-26.0373 72.9292,-18.7795"/>
<polygon fill="#191970" stroke="#191970" points="69.4293,-45.4178 72.9292,-55.4179 76.4293,-45.4179 69.4293,-45.4178"/>
</g>
<!-- Node2 -->
<g id="node3" class="node">
<title>Node2</title>
<g id="a_node3"><a xlink:href="classSubscriptor.html" target="_top" xlink:title="Subscriptor">
<polygon fill="#ffffff" stroke="#000000" points="39.6411,-110.5 39.6411,-128.5 106.2173,-128.5 106.2173,-110.5 39.6411,-110.5"/>
<text text-anchor="middle" x="72.9292" y="-116.5" font-family="Helvetica,sans-Serif" font-size="10.00" fill="#000000">Subscriptor</text>
</a>
</g>
</g>
<!-- Node2&#45;&gt;Node1 -->
<g id="edge2" class="edge">
<title>Node2&#45;&gt;Node1</title>
<path fill="none" stroke="#191970" d="M72.9292,-100.383C72.9292,-91.3738 72.9292,-81.0373 72.9292,-73.7795"/>
<polygon fill="#191970" stroke="#191970" points="69.4293,-100.4178 72.9292,-110.4179 76.4293,-100.4179 69.4293,-100.4178"/>
</g>
</g>
</svg>
