<?xml version="1.0" encoding="UTF-8" standalone="no"?>
<!DOCTYPE svg PUBLIC "-//W3C//DTD SVG 1.1//EN"
 "http://www.w3.org/Graphics/SVG/1.1/DTD/svg11.dtd">
<!-- Generated by graphviz version 2.40.1 (20161225.0304)
 -->
<!-- Title: MappingManifold&lt; dim, spacedim &gt; Pages: 1 -->
<svg width="144pt" height="147pt"
 viewBox="0.00 0.00 144.06 147.00" xmlns="http://www.w3.org/2000/svg" xmlns:xlink="http://www.w3.org/1999/xlink">
<g id="graph0" class="graph" transform="scale(1 1) rotate(0) translate(4 143)">
<title>MappingManifold&lt; dim, spacedim &gt;</title>
<polygon fill="#ffffff" stroke="transparent" points="-4,4 -4,-143 140.0635,-143 140.0635,4 -4,4"/>
<!-- Node0 -->
<g id="node1" class="node">
<title>Node0</title>
<polygon fill="#bfbfbf" stroke="#000000" points="8.1982,-.5 8.1982,-28.5 127.8652,-28.5 127.8652,-.5 8.1982,-.5"/>
<text text-anchor="start" x="16.1982" y="-16.5" font-family="Helvetica,sans-Serif" font-size="10.00" fill="#000000">MappingManifold&lt; dim,</text>
<text text-anchor="middle" x="68.0317" y="-6.5" font-family="Helvetica,sans-Serif" font-size="10.00" fill="#000000"> spacedim &gt;</text>
</g>
<!-- Node1 -->
<g id="node2" class="node">
<title>Node1</title>
<g id="a_node2"><a xlink:href="classMapping.html" target="_top" xlink:title="Abstract base class for mapping classes. ">
<polygon fill="#ffffff" stroke="#000000" points="0,-65.5 0,-83.5 136.0635,-83.5 136.0635,-65.5 0,-65.5"/>
<text text-anchor="middle" x="68.0317" y="-71.5" font-family="Helvetica,sans-Serif" font-size="10.00" fill="#000000">Mapping&lt; dim, spacedim &gt;</text>
</a>
</g>
</g>
<!-- Node1&#45;&gt;Node0 -->
<g id="edge1" class="edge">
<title>Node1&#45;&gt;Node0</title>
<path fill="none" stroke="#191970" d="M68.0317,-55.1865C68.0317,-46.6283 68.0317,-36.7354 68.0317,-28.8477"/>
<polygon fill="#191970" stroke="#191970" points="64.5318,-55.3873 68.0317,-65.3873 71.5318,-55.3873 64.5318,-55.3873"/>
</g>
<!-- Node2 -->
<g id="node3" class="node">
<title>Node2</title>
<g id="a_node3"><a xlink:href="classSubscriptor.html" target="_top" xlink:title="Subscriptor">
<polygon fill="#ffffff" stroke="#000000" points="34.7437,-120.5 34.7437,-138.5 101.3198,-138.5 101.3198,-120.5 34.7437,-120.5"/>
<text text-anchor="middle" x="68.0317" y="-126.5" font-family="Helvetica,sans-Serif" font-size="10.00" fill="#000000">Subscriptor</text>
</a>
</g>
</g>
<!-- Node2&#45;&gt;Node1 -->
<g id="edge2" class="edge">
<title>Node2&#45;&gt;Node1</title>
<path fill="none" stroke="#191970" d="M68.0317,-110.383C68.0317,-101.3738 68.0317,-91.0373 68.0317,-83.7795"/>
<polygon fill="#191970" stroke="#191970" points="64.5318,-110.4178 68.0317,-120.4179 71.5318,-110.4179 64.5318,-110.4178"/>
</g>
</g>
</svg>
