<?xml version="1.0" encoding="UTF-8" standalone="no"?>
<!DOCTYPE svg PUBLIC "-//W3C//DTD SVG 1.1//EN"
 "http://www.w3.org/Graphics/SVG/1.1/DTD/svg11.dtd">
<!-- Generated by graphviz version 2.40.1 (20161225.0304)
 -->
<!-- Title: TimeStepping::TimeStepping&lt; VectorType &gt; Pages: 1 -->
<svg width="523pt" height="131pt"
 viewBox="0.00 0.00 522.86 131.00" xmlns="http://www.w3.org/2000/svg" xmlns:xlink="http://www.w3.org/1999/xlink">
<g id="graph0" class="graph" transform="scale(1 1) rotate(0) translate(4 127)">
<title>TimeStepping::TimeStepping&lt; VectorType &gt;</title>
<polygon fill="#ffffff" stroke="transparent" points="-4,4 -4,-127 518.8633,-127 518.8633,4 -4,4"/>
<!-- Node0 -->
<g id="node1" class="node">
<title>Node0</title>
<polygon fill="#bfbfbf" stroke="#000000" points="0,-47.5 0,-75.5 144.2227,-75.5 144.2227,-47.5 0,-47.5"/>
<text text-anchor="start" x="8" y="-63.5" font-family="Helvetica,sans-Serif" font-size="10.00" fill="#000000">TimeStepping::TimeStepping</text>
<text text-anchor="middle" x="72.1113" y="-53.5" font-family="Helvetica,sans-Serif" font-size="10.00" fill="#000000">&lt; VectorType &gt;</text>
</g>
<!-- Node1 -->
<g id="node2" class="node">
<title>Node1</title>
<g id="a_node2"><a xlink:href="classTimeStepping_1_1RungeKutta.html" target="_top" xlink:title="TimeStepping::RungeKutta\l\&lt; VectorType \&gt;">
<polygon fill="#ffffff" stroke="#000000" points="180.2227,-47.5 180.2227,-75.5 315.9297,-75.5 315.9297,-47.5 180.2227,-47.5"/>
<text text-anchor="start" x="188.2227" y="-63.5" font-family="Helvetica,sans-Serif" font-size="10.00" fill="#000000">TimeStepping::RungeKutta</text>
<text text-anchor="middle" x="248.0762" y="-53.5" font-family="Helvetica,sans-Serif" font-size="10.00" fill="#000000">&lt; VectorType &gt;</text>
</a>
</g>
</g>
<!-- Node0&#45;&gt;Node1 -->
<g id="edge1" class="edge">
<title>Node0&#45;&gt;Node1</title>
<path fill="none" stroke="#191970" d="M154.7132,-61.5C163.1759,-61.5 171.7053,-61.5 179.9865,-61.5"/>
<polygon fill="#191970" stroke="#191970" points="154.4448,-58.0001 144.4447,-61.5 154.4447,-65.0001 154.4448,-58.0001"/>
</g>
<!-- Node2 -->
<g id="node3" class="node">
<title>Node2</title>
<g id="a_node3"><a xlink:href="classTimeStepping_1_1EmbeddedExplicitRungeKutta.html" target="_top" xlink:title="TimeStepping::EmbeddedExplicit\lRungeKutta\&lt; VectorType \&gt;">
<polygon fill="#ffffff" stroke="#000000" points="351.9297,-94.5 351.9297,-122.5 514.8633,-122.5 514.8633,-94.5 351.9297,-94.5"/>
<text text-anchor="start" x="359.9297" y="-110.5" font-family="Helvetica,sans-Serif" font-size="10.00" fill="#000000">TimeStepping::EmbeddedExplicit</text>
<text text-anchor="middle" x="433.3965" y="-100.5" font-family="Helvetica,sans-Serif" font-size="10.00" fill="#000000">RungeKutta&lt; VectorType &gt;</text>
</a>
</g>
</g>
<!-- Node1&#45;&gt;Node2 -->
<g id="edge2" class="edge">
<title>Node1&#45;&gt;Node2</title>
<path fill="none" stroke="#191970" d="M313.2922,-78.0398C334.4285,-83.4002 357.6589,-89.2918 378.0105,-94.4533"/>
<polygon fill="#191970" stroke="#191970" points="313.9809,-74.6037 303.4274,-75.5379 312.26,-81.3889 313.9809,-74.6037"/>
</g>
<!-- Node3 -->
<g id="node4" class="node">
<title>Node3</title>
<g id="a_node4"><a xlink:href="classTimeStepping_1_1ExplicitRungeKutta.html" target="_top" xlink:title="TimeStepping::ExplicitRunge\lKutta\&lt; VectorType \&gt;">
<polygon fill="#ffffff" stroke="#000000" points="361.3804,-47.5 361.3804,-75.5 505.4126,-75.5 505.4126,-47.5 361.3804,-47.5"/>
<text text-anchor="start" x="369.3804" y="-63.5" font-family="Helvetica,sans-Serif" font-size="10.00" fill="#000000">TimeStepping::ExplicitRunge</text>
<text text-anchor="middle" x="433.3965" y="-53.5" font-family="Helvetica,sans-Serif" font-size="10.00" fill="#000000">Kutta&lt; VectorType &gt;</text>
</a>
</g>
</g>
<!-- Node1&#45;&gt;Node3 -->
<g id="edge3" class="edge">
<title>Node1&#45;&gt;Node3</title>
<path fill="none" stroke="#191970" d="M326.1189,-61.5C337.7122,-61.5 349.6186,-61.5 361.0876,-61.5"/>
<polygon fill="#191970" stroke="#191970" points="326.0303,-58.0001 316.0303,-61.5 326.0303,-65.0001 326.0303,-58.0001"/>
</g>
<!-- Node4 -->
<g id="node5" class="node">
<title>Node4</title>
<g id="a_node5"><a xlink:href="classTimeStepping_1_1ImplicitRungeKutta.html" target="_top" xlink:title="TimeStepping::ImplicitRunge\lKutta\&lt; VectorType \&gt;">
<polygon fill="#ffffff" stroke="#000000" points="361.6611,-.5 361.6611,-28.5 505.1318,-28.5 505.1318,-.5 361.6611,-.5"/>
<text text-anchor="start" x="369.6611" y="-16.5" font-family="Helvetica,sans-Serif" font-size="10.00" fill="#000000">TimeStepping::ImplicitRunge</text>
<text text-anchor="middle" x="433.3965" y="-6.5" font-family="Helvetica,sans-Serif" font-size="10.00" fill="#000000">Kutta&lt; VectorType &gt;</text>
</a>
</g>
</g>
<!-- Node1&#45;&gt;Node4 -->
<g id="edge4" class="edge">
<title>Node1&#45;&gt;Node4</title>
<path fill="none" stroke="#191970" d="M313.2922,-44.9602C334.4285,-39.5998 357.6589,-33.7082 378.0105,-28.5467"/>
<polygon fill="#191970" stroke="#191970" points="312.26,-41.6111 303.4274,-47.4621 313.9809,-48.3963 312.26,-41.6111"/>
</g>
</g>
</svg>
