<?xml version="1.0" encoding="UTF-8" standalone="no"?>
<!DOCTYPE svg PUBLIC "-//W3C//DTD SVG 1.1//EN"
 "http://www.w3.org/Graphics/SVG/1.1/DTD/svg11.dtd">
<!-- Generated by graphviz version 2.40.1 (20161225.0304)
 -->
<!-- Title: TensorProductPolynomials&lt; dim, PolynomialType &gt; Pages: 1 -->
<svg width="649pt" height="164pt"
 viewBox="0.00 0.00 648.95 164.00" xmlns="http://www.w3.org/2000/svg" xmlns:xlink="http://www.w3.org/1999/xlink">
<g id="graph0" class="graph" transform="scale(1 1) rotate(0) translate(4 160)">
<title>TensorProductPolynomials&lt; dim, PolynomialType &gt;</title>
<polygon fill="#ffffff" stroke="transparent" points="-4,4 -4,-160 644.9512,-160 644.9512,4 -4,4"/>
<!-- Node0 -->
<g id="node1" class="node">
<title>Node0</title>
<polygon fill="#bfbfbf" stroke="#000000" points="0,-70.5 0,-98.5 134.3887,-98.5 134.3887,-70.5 0,-70.5"/>
<text text-anchor="start" x="8" y="-86.5" font-family="Helvetica,sans-Serif" font-size="10.00" fill="#000000">TensorProductPolynomials</text>
<text text-anchor="middle" x="67.1943" y="-76.5" font-family="Helvetica,sans-Serif" font-size="10.00" fill="#000000">&lt; dim, PolynomialType &gt;</text>
</g>
<!-- Node1 -->
<g id="node2" class="node">
<title>Node1</title>
<g id="a_node2"><a xlink:href="classTensorProductPolynomials.html" target="_top" xlink:title="TensorProductPolynomials\l\&lt; dim, Polynomials::PiecewisePolynomial\l\&lt; double \&gt; \&gt;">
<polygon fill="#ffffff" stroke="#000000" points="269.876,-117.5 269.876,-155.5 469.5625,-155.5 469.5625,-117.5 269.876,-117.5"/>
<text text-anchor="start" x="277.876" y="-143.5" font-family="Helvetica,sans-Serif" font-size="10.00" fill="#000000">TensorProductPolynomials</text>
<text text-anchor="start" x="277.876" y="-133.5" font-family="Helvetica,sans-Serif" font-size="10.00" fill="#000000">&lt; dim, Polynomials::PiecewisePolynomial</text>
<text text-anchor="middle" x="369.7192" y="-123.5" font-family="Helvetica,sans-Serif" font-size="10.00" fill="#000000">&lt; double &gt; &gt;</text>
</a>
</g>
</g>
<!-- Node0&#45;&gt;Node1 -->
<g id="edge1" class="edge">
<title>Node0&#45;&gt;Node1</title>
<path fill="none" stroke="#ffa500" stroke-dasharray="5,2" d="M144.6984,-97.8219C182.7284,-104.3588 228.9946,-112.3113 269.6622,-119.3015"/>
<polygon fill="#ffa500" stroke="#ffa500" points="145.1587,-94.3498 134.7103,-96.1051 143.9728,-101.2486 145.1587,-94.3498"/>
<text text-anchor="start" x="152.3887" y="-136.5" font-family="Helvetica,sans-Serif" font-size="10.00" fill="#000000"> &lt; dim, Polynomials</text>
<text text-anchor="start" x="152.3887" y="-126.5" font-family="Helvetica,sans-Serif" font-size="10.00" fill="#000000">::PiecewisePolynomial</text>
<text text-anchor="middle" x="202.1323" y="-116.5" font-family="Helvetica,sans-Serif" font-size="10.00" fill="#000000">&lt; double &gt; &gt;</text>
</g>
<!-- Node2 -->
<g id="node3" class="node">
<title>Node2</title>
<g id="a_node3"><a xlink:href="classTensorProductPolynomials.html" target="_top" xlink:title="TensorProductPolynomials\l\&lt; dim&#45;1 \&gt;">
<polygon fill="#ffffff" stroke="#000000" points="302.5249,-70.5 302.5249,-98.5 436.9136,-98.5 436.9136,-70.5 302.5249,-70.5"/>
<text text-anchor="start" x="310.5249" y="-86.5" font-family="Helvetica,sans-Serif" font-size="10.00" fill="#000000">TensorProductPolynomials</text>
<text text-anchor="middle" x="369.7192" y="-76.5" font-family="Helvetica,sans-Serif" font-size="10.00" fill="#000000">&lt; dim&#45;1 &gt;</text>
</a>
</g>
</g>
<!-- Node0&#45;&gt;Node2 -->
<g id="edge2" class="edge">
<title>Node0&#45;&gt;Node2</title>
<path fill="none" stroke="#ffa500" stroke-dasharray="5,2" d="M144.8922,-84.5C193.6139,-84.5 255.7955,-84.5 302.4097,-84.5"/>
<polygon fill="#ffa500" stroke="#ffa500" points="144.7103,-81.0001 134.7103,-84.5 144.7103,-88.0001 144.7103,-81.0001"/>
<text text-anchor="middle" x="202.1323" y="-86.5" font-family="Helvetica,sans-Serif" font-size="10.00" fill="#000000"> &lt; dim&#45;1 &gt;</text>
</g>
<!-- Node3 -->
<g id="node4" class="node">
<title>Node3</title>
<g id="a_node4"><a xlink:href="classTensorProductPolynomials.html" target="_top" xlink:title="TensorProductPolynomials\l\&lt; dim \&gt;">
<polygon fill="#ffffff" stroke="#000000" points="302.5249,-23.5 302.5249,-51.5 436.9136,-51.5 436.9136,-23.5 302.5249,-23.5"/>
<text text-anchor="start" x="310.5249" y="-39.5" font-family="Helvetica,sans-Serif" font-size="10.00" fill="#000000">TensorProductPolynomials</text>
<text text-anchor="middle" x="369.7192" y="-29.5" font-family="Helvetica,sans-Serif" font-size="10.00" fill="#000000">&lt; dim &gt;</text>
</a>
</g>
</g>
<!-- Node0&#45;&gt;Node3 -->
<g id="edge3" class="edge">
<title>Node0&#45;&gt;Node3</title>
<path fill="none" stroke="#ffa500" stroke-dasharray="5,2" d="M144.7019,-71.7219C147.2947,-71.3076 149.8625,-70.8993 152.3887,-70.5 202.5236,-62.5747 259.2254,-53.9771 302.1388,-47.545"/>
<polygon fill="#ffa500" stroke="#ffa500" points="143.931,-68.3008 134.6131,-73.3433 145.0418,-75.2121 143.931,-68.3008"/>
<text text-anchor="middle" x="202.1323" y="-72.5" font-family="Helvetica,sans-Serif" font-size="10.00" fill="#000000"> &lt; dim &gt;</text>
</g>
<!-- Node4 -->
<g id="node5" class="node">
<title>Node4</title>
<g id="a_node5"><a xlink:href="classTensorProductPolynomialsBubbles.html" target="_top" xlink:title="TensorProductPolynomials\lBubbles\&lt; dim \&gt;">
<polygon fill="#ffffff" stroke="#000000" points="506.5625,-47.5 506.5625,-75.5 640.9512,-75.5 640.9512,-47.5 506.5625,-47.5"/>
<text text-anchor="start" x="514.5625" y="-63.5" font-family="Helvetica,sans-Serif" font-size="10.00" fill="#000000">TensorProductPolynomials</text>
<text text-anchor="middle" x="573.7568" y="-53.5" font-family="Helvetica,sans-Serif" font-size="10.00" fill="#000000">Bubbles&lt; dim &gt;</text>
</a>
</g>
</g>
<!-- Node3&#45;&gt;Node4 -->
<g id="edge4" class="edge">
<title>Node3&#45;&gt;Node4</title>
<path fill="none" stroke="#191970" d="M447.1679,-46.6099C466.6853,-48.9057 487.4784,-51.3515 506.4526,-53.5833"/>
<polygon fill="#191970" stroke="#191970" points="447.4347,-43.1173 437.0943,-45.425 446.6169,-50.0693 447.4347,-43.1173"/>
</g>
<!-- Node5 -->
<g id="node6" class="node">
<title>Node5</title>
<g id="a_node6"><a xlink:href="classTensorProductPolynomialsConst.html" target="_top" xlink:title="TensorProductPolynomials\lConst\&lt; dim \&gt;">
<polygon fill="#ffffff" stroke="#000000" points="506.5625,-.5 506.5625,-28.5 640.9512,-28.5 640.9512,-.5 506.5625,-.5"/>
<text text-anchor="start" x="514.5625" y="-16.5" font-family="Helvetica,sans-Serif" font-size="10.00" fill="#000000">TensorProductPolynomials</text>
<text text-anchor="middle" x="573.7568" y="-6.5" font-family="Helvetica,sans-Serif" font-size="10.00" fill="#000000">Const&lt; dim &gt;</text>
</a>
</g>
</g>
<!-- Node3&#45;&gt;Node5 -->
<g id="edge5" class="edge">
<title>Node3&#45;&gt;Node5</title>
<path fill="none" stroke="#191970" d="M447.1679,-28.7696C466.6853,-26.5696 487.4784,-24.2257 506.4526,-22.0868"/>
<polygon fill="#191970" stroke="#191970" points="446.6392,-25.307 437.0943,-29.9052 447.4234,-32.2629 446.6392,-25.307"/>
</g>
</g>
</svg>
