<?xml version="1.0" encoding="UTF-8" standalone="no"?>
<!DOCTYPE svg PUBLIC "-//W3C//DTD SVG 1.1//EN"
 "http://www.w3.org/Graphics/SVG/1.1/DTD/svg11.dtd">
<!-- Generated by graphviz version 2.40.1 (20161225.0304)
 -->
<!-- Title: PETScWrappers::PreconditionerBase Pages: 1 -->
<svg width="407pt" height="447pt"
 viewBox="0.00 0.00 406.89 447.00" xmlns="http://www.w3.org/2000/svg" xmlns:xlink="http://www.w3.org/1999/xlink">
<g id="graph0" class="graph" transform="scale(1 1) rotate(0) translate(4 443)">
<title>PETScWrappers::PreconditionerBase</title>
<polygon fill="#ffffff" stroke="transparent" points="-4,4 -4,-443 402.8936,-443 402.8936,4 -4,4"/>
<!-- Node0 -->
<g id="node1" class="node">
<title>Node0</title>
<polygon fill="#bfbfbf" stroke="#000000" points="0,-200.5 0,-218.5 183.1191,-218.5 183.1191,-200.5 0,-200.5"/>
<text text-anchor="middle" x="91.5596" y="-206.5" font-family="Helvetica,sans-Serif" font-size="10.00" fill="#000000">PETScWrappers::PreconditionerBase</text>
</g>
<!-- Node1 -->
<g id="node2" class="node">
<title>Node1</title>
<g id="a_node2"><a xlink:href="classPETScWrappers_1_1PreconditionBlockJacobi.html" target="_top" xlink:title="PETScWrappers::Precondition\lBlockJacobi">
<polygon fill="#ffffff" stroke="#000000" points="233.2891,-410.5 233.2891,-438.5 384.7236,-438.5 384.7236,-410.5 233.2891,-410.5"/>
<text text-anchor="start" x="241.2891" y="-426.5" font-family="Helvetica,sans-Serif" font-size="10.00" fill="#000000">PETScWrappers::Precondition</text>
<text text-anchor="middle" x="309.0063" y="-416.5" font-family="Helvetica,sans-Serif" font-size="10.00" fill="#000000">BlockJacobi</text>
</a>
</g>
</g>
<!-- Node0&#45;&gt;Node1 -->
<g id="edge1" class="edge">
<title>Node0&#45;&gt;Node1</title>
<path fill="none" stroke="#191970" d="M98.6322,-228.4021C114.1493,-267.1938 154.9931,-355.967 219.1191,-401.5 223.9787,-404.9506 229.3113,-407.8842 234.8785,-410.3781"/>
<polygon fill="#191970" stroke="#191970" points="101.8109,-226.919 94.9288,-218.8638 95.2855,-229.4526 101.8109,-226.919"/>
</g>
<!-- Node2 -->
<g id="node3" class="node">
<title>Node2</title>
<g id="a_node3"><a xlink:href="classPETScWrappers_1_1PreconditionBoomerAMG.html" target="_top" xlink:title="PETScWrappers::Precondition\lBoomerAMG">
<polygon fill="#ffffff" stroke="#000000" points="233.2891,-363.5 233.2891,-391.5 384.7236,-391.5 384.7236,-363.5 233.2891,-363.5"/>
<text text-anchor="start" x="241.2891" y="-379.5" font-family="Helvetica,sans-Serif" font-size="10.00" fill="#000000">PETScWrappers::Precondition</text>
<text text-anchor="middle" x="309.0063" y="-369.5" font-family="Helvetica,sans-Serif" font-size="10.00" fill="#000000">BoomerAMG</text>
</a>
</g>
</g>
<!-- Node0&#45;&gt;Node2 -->
<g id="edge2" class="edge">
<title>Node0&#45;&gt;Node2</title>
<path fill="none" stroke="#191970" d="M102.2219,-227.4934C121.5022,-258.4064 165.2099,-321.4554 219.1191,-354.5 224.7499,-357.9514 230.8826,-360.8873 237.2121,-363.3842"/>
<polygon fill="#191970" stroke="#191970" points="105.0328,-225.3804 96.8384,-218.6647 99.0563,-229.0248 105.0328,-225.3804"/>
</g>
<!-- Node3 -->
<g id="node4" class="node">
<title>Node3</title>
<g id="a_node4"><a xlink:href="classPETScWrappers_1_1PreconditionEisenstat.html" target="_top" xlink:title="PETScWrappers::Precondition\lEisenstat">
<polygon fill="#ffffff" stroke="#000000" points="233.2891,-316.5 233.2891,-344.5 384.7236,-344.5 384.7236,-316.5 233.2891,-316.5"/>
<text text-anchor="start" x="241.2891" y="-332.5" font-family="Helvetica,sans-Serif" font-size="10.00" fill="#000000">PETScWrappers::Precondition</text>
<text text-anchor="middle" x="309.0063" y="-322.5" font-family="Helvetica,sans-Serif" font-size="10.00" fill="#000000">Eisenstat</text>
</a>
</g>
</g>
<!-- Node0&#45;&gt;Node3 -->
<g id="edge3" class="edge">
<title>Node0&#45;&gt;Node3</title>
<path fill="none" stroke="#191970" d="M108.0617,-225.8023C131.0327,-247.591 174.8347,-285.9553 219.1191,-307.5 226.2168,-310.953 233.8904,-313.9269 241.6597,-316.4784"/>
<polygon fill="#191970" stroke="#191970" points="110.2068,-223.0086 100.5788,-218.5866 105.3478,-228.0475 110.2068,-223.0086"/>
</g>
<!-- Node4 -->
<g id="node5" class="node">
<title>Node4</title>
<g id="a_node5"><a xlink:href="classPETScWrappers_1_1PreconditionICC.html" target="_top" xlink:title="PETScWrappers::PreconditionICC">
<polygon fill="#ffffff" stroke="#000000" points="224.6782,-279.5 224.6782,-297.5 393.3345,-297.5 393.3345,-279.5 224.6782,-279.5"/>
<text text-anchor="middle" x="309.0063" y="-285.5" font-family="Helvetica,sans-Serif" font-size="10.00" fill="#000000">PETScWrappers::PreconditionICC</text>
</a>
</g>
</g>
<!-- Node0&#45;&gt;Node4 -->
<g id="edge4" class="edge">
<title>Node0&#45;&gt;Node4</title>
<path fill="none" stroke="#191970" d="M115.9679,-223.4313C141.0953,-237.2253 181.7441,-258.0375 219.1191,-270.5 229.8387,-274.0744 241.5264,-277.0506 252.8206,-279.4856"/>
<polygon fill="#191970" stroke="#191970" points="117.5773,-220.3216 107.1367,-218.5203 114.1753,-226.4393 117.5773,-220.3216"/>
</g>
<!-- Node5 -->
<g id="node6" class="node">
<title>Node5</title>
<g id="a_node6"><a xlink:href="classPETScWrappers_1_1PreconditionILU.html" target="_top" xlink:title="PETScWrappers::PreconditionILU">
<polygon fill="#ffffff" stroke="#000000" points="225.5083,-242.5 225.5083,-260.5 392.5044,-260.5 392.5044,-242.5 225.5083,-242.5"/>
<text text-anchor="middle" x="309.0063" y="-248.5" font-family="Helvetica,sans-Serif" font-size="10.00" fill="#000000">PETScWrappers::PreconditionILU</text>
</a>
</g>
</g>
<!-- Node0&#45;&gt;Node5 -->
<g id="edge5" class="edge">
<title>Node0&#45;&gt;Node5</title>
<path fill="none" stroke="#191970" d="M148.3832,-220.4755C183.7592,-227.3084 228.713,-235.9913 262.061,-242.4325"/>
<polygon fill="#191970" stroke="#191970" points="148.6897,-216.9701 138.2074,-218.5101 147.3621,-223.8431 148.6897,-216.9701"/>
</g>
<!-- Node6 -->
<g id="node7" class="node">
<title>Node6</title>
<g id="a_node7"><a xlink:href="classPETScWrappers_1_1PreconditionJacobi.html" target="_top" xlink:title="PETScWrappers::Precondition\lJacobi">
<polygon fill="#ffffff" stroke="#000000" points="233.2891,-195.5 233.2891,-223.5 384.7236,-223.5 384.7236,-195.5 233.2891,-195.5"/>
<text text-anchor="start" x="241.2891" y="-211.5" font-family="Helvetica,sans-Serif" font-size="10.00" fill="#000000">PETScWrappers::Precondition</text>
<text text-anchor="middle" x="309.0063" y="-201.5" font-family="Helvetica,sans-Serif" font-size="10.00" fill="#000000">Jacobi</text>
</a>
</g>
</g>
<!-- Node0&#45;&gt;Node6 -->
<g id="edge6" class="edge">
<title>Node0&#45;&gt;Node6</title>
<path fill="none" stroke="#191970" d="M193.3148,-209.5C206.6654,-209.5 220.1567,-209.5 232.9791,-209.5"/>
<polygon fill="#191970" stroke="#191970" points="193.1464,-206.0001 183.1464,-209.5 193.1463,-213.0001 193.1464,-206.0001"/>
</g>
<!-- Node7 -->
<g id="node8" class="node">
<title>Node7</title>
<g id="a_node8"><a xlink:href="classPETScWrappers_1_1PreconditionLU.html" target="_top" xlink:title="PETScWrappers::PreconditionLU">
<polygon fill="#ffffff" stroke="#000000" points="226.8975,-158.5 226.8975,-176.5 391.1152,-176.5 391.1152,-158.5 226.8975,-158.5"/>
<text text-anchor="middle" x="309.0063" y="-164.5" font-family="Helvetica,sans-Serif" font-size="10.00" fill="#000000">PETScWrappers::PreconditionLU</text>
</a>
</g>
</g>
<!-- Node0&#45;&gt;Node7 -->
<g id="edge7" class="edge">
<title>Node0&#45;&gt;Node7</title>
<path fill="none" stroke="#191970" d="M148.3832,-198.5245C183.7592,-191.6916 228.713,-183.0087 262.061,-176.5675"/>
<polygon fill="#191970" stroke="#191970" points="147.3621,-195.1569 138.2074,-200.4899 148.6897,-202.0299 147.3621,-195.1569"/>
</g>
<!-- Node8 -->
<g id="node9" class="node">
<title>Node8</title>
<g id="a_node9"><a xlink:href="classPETScWrappers_1_1PreconditionNone.html" target="_top" xlink:title="PETScWrappers::PreconditionNone">
<polygon fill="#ffffff" stroke="#000000" points="221.3359,-121.5 221.3359,-139.5 396.6768,-139.5 396.6768,-121.5 221.3359,-121.5"/>
<text text-anchor="middle" x="309.0063" y="-127.5" font-family="Helvetica,sans-Serif" font-size="10.00" fill="#000000">PETScWrappers::PreconditionNone</text>
</a>
</g>
</g>
<!-- Node0&#45;&gt;Node8 -->
<g id="edge8" class="edge">
<title>Node0&#45;&gt;Node8</title>
<path fill="none" stroke="#191970" d="M116.445,-195.6757C141.6491,-182.1875 182.0897,-161.9352 219.1191,-149.5 230.9131,-145.5394 243.8647,-142.2284 256.1737,-139.5389"/>
<polygon fill="#191970" stroke="#191970" points="114.6956,-192.6427 107.5701,-200.4835 118.03,-198.7976 114.6956,-192.6427"/>
</g>
<!-- Node9 -->
<g id="node10" class="node">
<title>Node9</title>
<g id="a_node10"><a xlink:href="classPETScWrappers_1_1PreconditionParaSails.html" target="_top" xlink:title="PETScWrappers::Precondition\lParaSails">
<polygon fill="#ffffff" stroke="#000000" points="233.2891,-74.5 233.2891,-102.5 384.7236,-102.5 384.7236,-74.5 233.2891,-74.5"/>
<text text-anchor="start" x="241.2891" y="-90.5" font-family="Helvetica,sans-Serif" font-size="10.00" fill="#000000">PETScWrappers::Precondition</text>
<text text-anchor="middle" x="309.0063" y="-80.5" font-family="Helvetica,sans-Serif" font-size="10.00" fill="#000000">ParaSails</text>
</a>
</g>
</g>
<!-- Node0&#45;&gt;Node9 -->
<g id="edge9" class="edge">
<title>Node0&#45;&gt;Node9</title>
<path fill="none" stroke="#191970" d="M108.4781,-193.1126C131.6167,-171.5767 175.2832,-133.9749 219.1191,-112.5 226.9519,-108.6628 235.4797,-105.3766 244.0608,-102.5796"/>
<polygon fill="#191970" stroke="#191970" points="105.7806,-190.8463 100.9199,-200.2604 110.5904,-195.9323 105.7806,-190.8463"/>
</g>
<!-- Node10 -->
<g id="node11" class="node">
<title>Node10</title>
<g id="a_node11"><a xlink:href="classPETScWrappers_1_1PreconditionSOR.html" target="_top" xlink:title="PETScWrappers::PreconditionSOR">
<polygon fill="#ffffff" stroke="#000000" points="222.4541,-37.5 222.4541,-55.5 395.5586,-55.5 395.5586,-37.5 222.4541,-37.5"/>
<text text-anchor="middle" x="309.0063" y="-43.5" font-family="Helvetica,sans-Serif" font-size="10.00" fill="#000000">PETScWrappers::PreconditionSOR</text>
</a>
</g>
</g>
<!-- Node0&#45;&gt;Node10 -->
<g id="edge10" class="edge">
<title>Node0&#45;&gt;Node10</title>
<path fill="none" stroke="#191970" d="M102.1121,-191.3948C121.2244,-160.3337 164.6823,-97.1828 219.1191,-65.5 226.2875,-61.3279 234.2525,-58.0668 242.3947,-55.5187"/>
<polygon fill="#191970" stroke="#191970" points="98.9289,-189.897 96.7792,-200.2715 104.9293,-193.5019 98.9289,-189.897"/>
</g>
<!-- Node11 -->
<g id="node12" class="node">
<title>Node11</title>
<g id="a_node12"><a xlink:href="classPETScWrappers_1_1PreconditionSSOR.html" target="_top" xlink:title="PETScWrappers::PreconditionSSOR">
<polygon fill="#ffffff" stroke="#000000" points="219.1191,-.5 219.1191,-18.5 398.8936,-18.5 398.8936,-.5 219.1191,-.5"/>
<text text-anchor="middle" x="309.0063" y="-6.5" font-family="Helvetica,sans-Serif" font-size="10.00" fill="#000000">PETScWrappers::PreconditionSSOR</text>
</a>
</g>
</g>
<!-- Node0&#45;&gt;Node11 -->
<g id="edge11" class="edge">
<title>Node0&#45;&gt;Node11</title>
<path fill="none" stroke="#191970" d="M99.2295,-190.4619C115.3713,-152.981 156.5941,-69.6971 219.1191,-28.5 225.3791,-24.3754 232.3702,-21.1249 239.6131,-18.5665"/>
<polygon fill="#191970" stroke="#191970" points="95.8124,-189.5616 95.1861,-200.138 102.2712,-192.2606 95.8124,-189.5616"/>
</g>
</g>
</svg>
