<?xml version="1.0" encoding="UTF-8" standalone="no"?>
<!DOCTYPE svg PUBLIC "-//W3C//DTD SVG 1.1//EN"
 "http://www.w3.org/Graphics/SVG/1.1/DTD/svg11.dtd">
<!-- Generated by graphviz version 2.40.1 (20161225.0304)
 -->
<!-- Title: FESubfaceValues&lt; dim, spacedim &gt; Pages: 1 -->
<svg width="139pt" height="222pt"
 viewBox="0.00 0.00 139.15 222.00" xmlns="http://www.w3.org/2000/svg" xmlns:xlink="http://www.w3.org/1999/xlink">
<g id="graph0" class="graph" transform="scale(1 1) rotate(0) translate(4 218)">
<title>FESubfaceValues&lt; dim, spacedim &gt;</title>
<polygon fill="#ffffff" stroke="transparent" points="-4,4 -4,-218 135.1514,-218 135.1514,4 -4,4"/>
<!-- Node0 -->
<g id="node1" class="node">
<title>Node0</title>
<polygon fill="#bfbfbf" stroke="#000000" points="4.165,-.5 4.165,-28.5 126.9863,-28.5 126.9863,-.5 4.165,-.5"/>
<text text-anchor="start" x="12.165" y="-16.5" font-family="Helvetica,sans-Serif" font-size="10.00" fill="#000000">FESubfaceValues&lt; dim,</text>
<text text-anchor="middle" x="65.5757" y="-6.5" font-family="Helvetica,sans-Serif" font-size="10.00" fill="#000000"> spacedim &gt;</text>
</g>
<!-- Node1 -->
<g id="node2" class="node">
<title>Node1</title>
<g id="a_node2"><a xlink:href="classFEFaceValuesBase.html" target="_top" xlink:title="FEFaceValuesBase\&lt; dim,\l spacedim \&gt;">
<polygon fill="#ffffff" stroke="#000000" points="0,-65.5 0,-93.5 131.1514,-93.5 131.1514,-65.5 0,-65.5"/>
<text text-anchor="start" x="8" y="-81.5" font-family="Helvetica,sans-Serif" font-size="10.00" fill="#000000">FEFaceValuesBase&lt; dim,</text>
<text text-anchor="middle" x="65.5757" y="-71.5" font-family="Helvetica,sans-Serif" font-size="10.00" fill="#000000"> spacedim &gt;</text>
</a>
</g>
</g>
<!-- Node1&#45;&gt;Node0 -->
<g id="edge1" class="edge">
<title>Node1&#45;&gt;Node0</title>
<path fill="none" stroke="#191970" d="M65.5757,-55.1081C65.5757,-46.1539 65.5757,-36.3227 65.5757,-28.5765"/>
<polygon fill="#191970" stroke="#191970" points="62.0758,-55.3959 65.5757,-65.396 69.0758,-55.396 62.0758,-55.3959"/>
</g>
<!-- Node2 -->
<g id="node3" class="node">
<title>Node2</title>
<g id="a_node3"><a xlink:href="classFEValuesBase.html" target="_top" xlink:title="FEValuesBase\&lt; dim,\l spacedim \&gt;">
<polygon fill="#ffffff" stroke="#000000" points="11.1157,-130.5 11.1157,-158.5 120.0356,-158.5 120.0356,-130.5 11.1157,-130.5"/>
<text text-anchor="start" x="19.1157" y="-146.5" font-family="Helvetica,sans-Serif" font-size="10.00" fill="#000000">FEValuesBase&lt; dim,</text>
<text text-anchor="middle" x="65.5757" y="-136.5" font-family="Helvetica,sans-Serif" font-size="10.00" fill="#000000"> spacedim &gt;</text>
</a>
</g>
</g>
<!-- Node2&#45;&gt;Node1 -->
<g id="edge2" class="edge">
<title>Node2&#45;&gt;Node1</title>
<path fill="none" stroke="#191970" d="M65.5757,-120.1081C65.5757,-111.1539 65.5757,-101.3227 65.5757,-93.5765"/>
<polygon fill="#191970" stroke="#191970" points="62.0758,-120.3959 65.5757,-130.396 69.0758,-120.396 62.0758,-120.3959"/>
</g>
<!-- Node3 -->
<g id="node4" class="node">
<title>Node3</title>
<g id="a_node4"><a xlink:href="classSubscriptor.html" target="_top" xlink:title="Subscriptor">
<polygon fill="#ffffff" stroke="#000000" points="32.2876,-195.5 32.2876,-213.5 98.8638,-213.5 98.8638,-195.5 32.2876,-195.5"/>
<text text-anchor="middle" x="65.5757" y="-201.5" font-family="Helvetica,sans-Serif" font-size="10.00" fill="#000000">Subscriptor</text>
</a>
</g>
</g>
<!-- Node3&#45;&gt;Node2 -->
<g id="edge3" class="edge">
<title>Node3&#45;&gt;Node2</title>
<path fill="none" stroke="#191970" d="M65.5757,-185.1865C65.5757,-176.6283 65.5757,-166.7354 65.5757,-158.8477"/>
<polygon fill="#191970" stroke="#191970" points="62.0758,-185.3873 65.5757,-195.3873 69.0758,-185.3873 62.0758,-185.3873"/>
</g>
</g>
</svg>
