<?xml version="1.0" encoding="UTF-8" standalone="no"?>
<!DOCTYPE svg PUBLIC "-//W3C//DTD SVG 1.1//EN"
 "http://www.w3.org/Graphics/SVG/1.1/DTD/svg11.dtd">
<!-- Generated by graphviz version 2.40.1 (20161225.0304)
 -->
<!-- Title: MappingFEField&lt; dim, spacedim, VectorType, DoFHandlerType &gt; Pages: 1 -->
<svg width="144pt" height="157pt"
 viewBox="0.00 0.00 144.06 157.00" xmlns="http://www.w3.org/2000/svg" xmlns:xlink="http://www.w3.org/1999/xlink">
<g id="graph0" class="graph" transform="scale(1 1) rotate(0) translate(4 153)">
<title>MappingFEField&lt; dim, spacedim, VectorType, DoFHandlerType &gt;</title>
<polygon fill="#ffffff" stroke="transparent" points="-4,4 -4,-153 140.0635,-153 140.0635,4 -4,4"/>
<!-- Node0 -->
<g id="node1" class="node">
<title>Node0</title>
<polygon fill="#bfbfbf" stroke="#000000" points="8.0566,-.5 8.0566,-38.5 128.0068,-38.5 128.0068,-.5 8.0566,-.5"/>
<text text-anchor="start" x="16.0566" y="-26.5" font-family="Helvetica,sans-Serif" font-size="10.00" fill="#000000">MappingFEField&lt; dim,</text>
<text text-anchor="start" x="16.0566" y="-16.5" font-family="Helvetica,sans-Serif" font-size="10.00" fill="#000000"> spacedim, VectorType,</text>
<text text-anchor="middle" x="68.0317" y="-6.5" font-family="Helvetica,sans-Serif" font-size="10.00" fill="#000000"> DoFHandlerType &gt;</text>
</g>
<!-- Node1 -->
<g id="node2" class="node">
<title>Node1</title>
<g id="a_node2"><a xlink:href="classMapping.html" target="_top" xlink:title="Abstract base class for mapping classes. ">
<polygon fill="#ffffff" stroke="#000000" points="0,-75.5 0,-93.5 136.0635,-93.5 136.0635,-75.5 0,-75.5"/>
<text text-anchor="middle" x="68.0317" y="-81.5" font-family="Helvetica,sans-Serif" font-size="10.00" fill="#000000">Mapping&lt; dim, spacedim &gt;</text>
</a>
</g>
</g>
<!-- Node1&#45;&gt;Node0 -->
<g id="edge1" class="edge">
<title>Node1&#45;&gt;Node0</title>
<path fill="none" stroke="#191970" d="M68.0317,-65.4456C68.0317,-56.9924 68.0317,-47.066 68.0317,-38.6068"/>
<polygon fill="#191970" stroke="#191970" points="64.5318,-65.462 68.0317,-75.462 71.5318,-65.4621 64.5318,-65.462"/>
</g>
<!-- Node2 -->
<g id="node3" class="node">
<title>Node2</title>
<g id="a_node3"><a xlink:href="classSubscriptor.html" target="_top" xlink:title="Subscriptor">
<polygon fill="#ffffff" stroke="#000000" points="34.7437,-130.5 34.7437,-148.5 101.3198,-148.5 101.3198,-130.5 34.7437,-130.5"/>
<text text-anchor="middle" x="68.0317" y="-136.5" font-family="Helvetica,sans-Serif" font-size="10.00" fill="#000000">Subscriptor</text>
</a>
</g>
</g>
<!-- Node2&#45;&gt;Node1 -->
<g id="edge2" class="edge">
<title>Node2&#45;&gt;Node1</title>
<path fill="none" stroke="#191970" d="M68.0317,-120.383C68.0317,-111.3738 68.0317,-101.0373 68.0317,-93.7795"/>
<polygon fill="#191970" stroke="#191970" points="64.5318,-120.4178 68.0317,-130.4179 71.5318,-120.4179 64.5318,-120.4178"/>
</g>
</g>
</svg>
