<?xml version="1.0" encoding="UTF-8" standalone="no"?>
<!DOCTYPE svg PUBLIC "-//W3C//DTD SVG 1.1//EN"
 "http://www.w3.org/Graphics/SVG/1.1/DTD/svg11.dtd">
<!-- Generated by graphviz version 2.40.1 (20161225.0304)
 -->
<!-- Title: FunctionDerivative&lt; dim &gt; Pages: 1 -->
<svg width="340pt" height="280pt"
 viewBox="0.00 0.00 340.24 280.00" xmlns="http://www.w3.org/2000/svg" xmlns:xlink="http://www.w3.org/1999/xlink">
<g id="graph0" class="graph" transform="scale(1 1) rotate(0) translate(4 276)">
<title>FunctionDerivative&lt; dim &gt;</title>
<polygon fill="#ffffff" stroke="transparent" points="-4,4 -4,-276 336.2441,-276 336.2441,4 -4,4"/>
<!-- Node0 -->
<g id="node1" class="node">
<title>Node0</title>
<polygon fill="#bfbfbf" stroke="#000000" points="102.3315,-.5 102.3315,-28.5 201.144,-28.5 201.144,-.5 102.3315,-.5"/>
<text text-anchor="start" x="110.3315" y="-16.5" font-family="Helvetica,sans-Serif" font-size="10.00" fill="#000000">FunctionDerivative</text>
<text text-anchor="middle" x="151.7378" y="-6.5" font-family="Helvetica,sans-Serif" font-size="10.00" fill="#000000">&lt; dim &gt;</text>
</g>
<!-- Node1 -->
<g id="node2" class="node">
<title>Node1</title>
<g id="a_node2"><a xlink:href="classAutoDerivativeFunction.html" target="_top" xlink:title="AutoDerivativeFunction\l\&lt; dim \&gt;">
<polygon fill="#ffffff" stroke="#000000" points="92.0459,-66.5 92.0459,-94.5 211.4297,-94.5 211.4297,-66.5 92.0459,-66.5"/>
<text text-anchor="start" x="100.0459" y="-82.5" font-family="Helvetica,sans-Serif" font-size="10.00" fill="#000000">AutoDerivativeFunction</text>
<text text-anchor="middle" x="151.7378" y="-72.5" font-family="Helvetica,sans-Serif" font-size="10.00" fill="#000000">&lt; dim &gt;</text>
</a>
</g>
</g>
<!-- Node1&#45;&gt;Node0 -->
<g id="edge1" class="edge">
<title>Node1&#45;&gt;Node0</title>
<path fill="none" stroke="#191970" d="M151.7378,-56.0322C151.7378,-46.8606 151.7378,-36.7449 151.7378,-28.7931"/>
<polygon fill="#191970" stroke="#191970" points="148.2379,-56.1789 151.7378,-66.179 155.2379,-56.179 148.2379,-56.1789"/>
</g>
<!-- Node2 -->
<g id="node3" class="node">
<title>Node2</title>
<g id="a_node3"><a xlink:href="classFunction.html" target="_top" xlink:title="Function\&lt; dim \&gt;">
<polygon fill="#ffffff" stroke="#000000" points="107.8857,-132.5 107.8857,-150.5 195.5898,-150.5 195.5898,-132.5 107.8857,-132.5"/>
<text text-anchor="middle" x="151.7378" y="-138.5" font-family="Helvetica,sans-Serif" font-size="10.00" fill="#000000">Function&lt; dim &gt;</text>
</a>
</g>
</g>
<!-- Node2&#45;&gt;Node1 -->
<g id="edge2" class="edge">
<title>Node2&#45;&gt;Node1</title>
<path fill="none" stroke="#191970" d="M151.7378,-122.2842C151.7378,-113.3664 151.7378,-102.9504 151.7378,-94.7488"/>
<polygon fill="#191970" stroke="#191970" points="148.2379,-122.4992 151.7378,-132.4992 155.2379,-122.4993 148.2379,-122.4992"/>
</g>
<!-- Node3 -->
<g id="node4" class="node">
<title>Node3</title>
<g id="a_node4"><a xlink:href="classFunctionTime.html" target="_top" xlink:title="FunctionTime\&lt; double \&gt;">
<polygon fill="#ffffff" stroke="#000000" points="0,-197.5 0,-215.5 123.4756,-215.5 123.4756,-197.5 0,-197.5"/>
<text text-anchor="middle" x="61.7378" y="-203.5" font-family="Helvetica,sans-Serif" font-size="10.00" fill="#000000">FunctionTime&lt; double &gt;</text>
</a>
</g>
</g>
<!-- Node3&#45;&gt;Node2 -->
<g id="edge3" class="edge">
<title>Node3&#45;&gt;Node2</title>
<path fill="none" stroke="#191970" d="M82.6642,-191.3865C100.1105,-178.7864 124.3984,-161.2451 139.0398,-150.6708"/>
<polygon fill="#191970" stroke="#191970" points="80.3095,-188.7697 74.2519,-197.462 84.4079,-194.4445 80.3095,-188.7697"/>
</g>
<!-- Node4 -->
<g id="node5" class="node">
<title>Node4</title>
<g id="a_node5"><a xlink:href="classSubscriptor.html" target="_top" xlink:title="Subscriptor">
<polygon fill="#ffffff" stroke="#000000" points="118.4497,-253.5 118.4497,-271.5 185.0259,-271.5 185.0259,-253.5 118.4497,-253.5"/>
<text text-anchor="middle" x="151.7378" y="-259.5" font-family="Helvetica,sans-Serif" font-size="10.00" fill="#000000">Subscriptor</text>
</a>
</g>
</g>
<!-- Node4&#45;&gt;Node2 -->
<g id="edge4" class="edge">
<title>Node4&#45;&gt;Node2</title>
<path fill="none" stroke="#191970" d="M151.7378,-243.1238C151.7378,-216.6786 151.7378,-170.3298 151.7378,-150.7002"/>
<polygon fill="#191970" stroke="#191970" points="148.2379,-243.4053 151.7378,-253.4053 155.2379,-243.4054 148.2379,-243.4053"/>
</g>
<!-- Node5 -->
<g id="node6" class="node">
<title>Node5</title>
<g id="a_node6"><a xlink:href="classFunction.html" target="_top" xlink:title="Function\&lt; dim, Number \&gt;">
<polygon fill="#ffffff" stroke="#000000" points="179.3242,-197.5 179.3242,-215.5 308.1514,-215.5 308.1514,-197.5 179.3242,-197.5"/>
<text text-anchor="middle" x="243.7378" y="-203.5" font-family="Helvetica,sans-Serif" font-size="10.00" fill="#000000">Function&lt; dim, Number &gt;</text>
</a>
</g>
</g>
<!-- Node4&#45;&gt;Node5 -->
<g id="edge7" class="edge">
<title>Node4&#45;&gt;Node5</title>
<path fill="none" stroke="#191970" d="M175.6611,-247.938C192.4794,-237.7008 214.4587,-224.3221 228.8286,-215.5752"/>
<polygon fill="#191970" stroke="#191970" points="173.6519,-245.0635 166.9297,-253.2527 177.2916,-251.0429 173.6519,-245.0635"/>
</g>
<!-- Node5&#45;&gt;Node2 -->
<g id="edge5" class="edge">
<title>Node5&#45;&gt;Node2</title>
<path fill="none" stroke="#ffa500" stroke-dasharray="5,2" d="M222.3463,-191.3865C204.5123,-178.7864 179.6847,-161.2451 164.7179,-150.6708"/>
<polygon fill="#ffa500" stroke="#ffa500" points="220.7587,-194.5502 230.9456,-197.462 224.798,-188.8331 220.7587,-194.5502"/>
<text text-anchor="middle" x="221.8018" y="-171" font-family="Helvetica,sans-Serif" font-size="10.00" fill="#000000"> &lt; dim &gt;</text>
</g>
<!-- Node6 -->
<g id="node7" class="node">
<title>Node6</title>
<g id="a_node7"><a xlink:href="classFunctionTime.html" target="_top" xlink:title="FunctionTime\&lt; Number \&gt;">
<polygon fill="#ffffff" stroke="#000000" points="203.2314,-253.5 203.2314,-271.5 332.2441,-271.5 332.2441,-253.5 203.2314,-253.5"/>
<text text-anchor="middle" x="267.7378" y="-259.5" font-family="Helvetica,sans-Serif" font-size="10.00" fill="#000000">FunctionTime&lt; Number &gt;</text>
</a>
</g>
</g>
<!-- Node6&#45;&gt;Node5 -->
<g id="edge6" class="edge">
<title>Node6&#45;&gt;Node5</title>
<path fill="none" stroke="#191970" d="M259.7301,-243.8154C255.6564,-234.3101 250.8899,-223.1882 247.6272,-215.5752"/>
<polygon fill="#191970" stroke="#191970" points="256.6184,-245.44 263.7747,-253.2527 263.0524,-242.6825 256.6184,-245.44"/>
</g>
</g>
</svg>
