<?xml version="1.0" encoding="UTF-8" standalone="no"?>
<!DOCTYPE svg PUBLIC "-//W3C//DTD SVG 1.1//EN"
 "http://www.w3.org/Graphics/SVG/1.1/DTD/svg11.dtd">
<!-- Generated by graphviz version 2.40.1 (20161225.0304)
 -->
<!-- Title: EigenPower&lt; VectorType &gt; Pages: 1 -->
<svg width="145pt" height="137pt"
 viewBox="0.00 0.00 145.20 137.00" xmlns="http://www.w3.org/2000/svg" xmlns:xlink="http://www.w3.org/1999/xlink">
<g id="graph0" class="graph" transform="scale(1 1) rotate(0) translate(4 133)">
<title>EigenPower&lt; VectorType &gt;</title>
<polygon fill="#ffffff" stroke="transparent" points="-4,4 -4,-133 141.1963,-133 141.1963,4 -4,4"/>
<!-- Node0 -->
<g id="node1" class="node">
<title>Node0</title>
<polygon fill="#bfbfbf" stroke="#000000" points="0,-.5 0,-18.5 137.1963,-18.5 137.1963,-.5 0,-.5"/>
<text text-anchor="middle" x="68.5981" y="-6.5" font-family="Helvetica,sans-Serif" font-size="10.00" fill="#000000">EigenPower&lt; VectorType &gt;</text>
</g>
<!-- Node1 -->
<g id="node2" class="node">
<title>Node1</title>
<g id="a_node2"><a xlink:href="classSolver.html" target="_top" xlink:title="Solver\&lt; VectorType \&gt;">
<polygon fill="#ffffff" stroke="#000000" points="12.7881,-55.5 12.7881,-73.5 124.4082,-73.5 124.4082,-55.5 12.7881,-55.5"/>
<text text-anchor="middle" x="68.5981" y="-61.5" font-family="Helvetica,sans-Serif" font-size="10.00" fill="#000000">Solver&lt; VectorType &gt;</text>
</a>
</g>
</g>
<!-- Node1&#45;&gt;Node0 -->
<g id="edge1" class="edge">
<title>Node1&#45;&gt;Node0</title>
<path fill="none" stroke="#8b1a1a" d="M68.5981,-45.383C68.5981,-36.3738 68.5981,-26.0373 68.5981,-18.7795"/>
<polygon fill="#8b1a1a" stroke="#8b1a1a" points="65.0982,-45.4178 68.5981,-55.4179 72.0982,-45.4179 65.0982,-45.4178"/>
</g>
<!-- Node2 -->
<g id="node3" class="node">
<title>Node2</title>
<g id="a_node3"><a xlink:href="classSubscriptor.html" target="_top" xlink:title="Subscriptor">
<polygon fill="#ffffff" stroke="#000000" points="35.3101,-110.5 35.3101,-128.5 101.8862,-128.5 101.8862,-110.5 35.3101,-110.5"/>
<text text-anchor="middle" x="68.5981" y="-116.5" font-family="Helvetica,sans-Serif" font-size="10.00" fill="#000000">Subscriptor</text>
</a>
</g>
</g>
<!-- Node2&#45;&gt;Node1 -->
<g id="edge2" class="edge">
<title>Node2&#45;&gt;Node1</title>
<path fill="none" stroke="#191970" d="M68.5981,-100.383C68.5981,-91.3738 68.5981,-81.0373 68.5981,-73.7795"/>
<polygon fill="#191970" stroke="#191970" points="65.0982,-100.4178 68.5981,-110.4179 72.0982,-100.4179 65.0982,-100.4178"/>
</g>
</g>
</svg>
