<?xml version="1.0" encoding="UTF-8" standalone="no"?>
<!DOCTYPE svg PUBLIC "-//W3C//DTD SVG 1.1//EN"
 "http://www.w3.org/Graphics/SVG/1.1/DTD/svg11.dtd">
<!-- Generated by graphviz version 2.40.1 (20161225.0304)
 -->
<!-- Title: TriaAccessor&lt; 0, 1, spacedim &gt; Pages: 1 -->
<svg width="157pt" height="112pt"
 viewBox="0.00 0.00 157.12 112.00" xmlns="http://www.w3.org/2000/svg" xmlns:xlink="http://www.w3.org/1999/xlink">
<g id="graph0" class="graph" transform="scale(1 1) rotate(0) translate(4 108)">
<title>TriaAccessor&lt; 0, 1, spacedim &gt;</title>
<polygon fill="#ffffff" stroke="transparent" points="-4,4 -4,-108 153.1152,-108 153.1152,4 -4,4"/>
<!-- Node0 -->
<g id="node1" class="node">
<title>Node0</title>
<polygon fill="#bfbfbf" stroke="#000000" points="23.5303,-75.5 23.5303,-103.5 125.585,-103.5 125.585,-75.5 23.5303,-75.5"/>
<text text-anchor="start" x="31.5303" y="-91.5" font-family="Helvetica,sans-Serif" font-size="10.00" fill="#000000">TriaAccessor&lt; 0, 1,</text>
<text text-anchor="middle" x="74.5576" y="-81.5" font-family="Helvetica,sans-Serif" font-size="10.00" fill="#000000"> spacedim &gt;</text>
</g>
<!-- Node1 -->
<g id="node2" class="node">
<title>Node1</title>
<g id="a_node2"><a xlink:href="classDoFAccessor_3_010_00_01DoFHandlerType_3_011_00_01spacedim_01_4_00_01level__dof__access_01_4.html" target="_top" xlink:title="DoFAccessor\&lt; 0, DoFHandler\lType\&lt; 1, spacedim \&gt;, level\l_dof_access \&gt;">
<polygon fill="#ffffff" stroke="#000000" points="0,-.5 0,-38.5 149.1152,-38.5 149.1152,-.5 0,-.5"/>
<text text-anchor="start" x="8" y="-26.5" font-family="Helvetica,sans-Serif" font-size="10.00" fill="#000000">DoFAccessor&lt; 0, DoFHandler</text>
<text text-anchor="start" x="8" y="-16.5" font-family="Helvetica,sans-Serif" font-size="10.00" fill="#000000">Type&lt; 1, spacedim &gt;, level</text>
<text text-anchor="middle" x="74.5576" y="-6.5" font-family="Helvetica,sans-Serif" font-size="10.00" fill="#000000">_dof_access &gt;</text>
</a>
</g>
</g>
<!-- Node0&#45;&gt;Node1 -->
<g id="edge1" class="edge">
<title>Node0&#45;&gt;Node1</title>
<path fill="none" stroke="#191970" d="M74.5576,-65.0725C74.5576,-56.4275 74.5576,-46.8328 74.5576,-38.6857"/>
<polygon fill="#191970" stroke="#191970" points="71.0577,-65.3344 74.5576,-75.3345 78.0577,-65.3345 71.0577,-65.3344"/>
</g>
</g>
</svg>
