<?xml version="1.0" encoding="UTF-8" standalone="no"?>
<!DOCTYPE svg PUBLIC "-//W3C//DTD SVG 1.1//EN"
 "http://www.w3.org/Graphics/SVG/1.1/DTD/svg11.dtd">
<!-- Generated by graphviz version 2.40.1 (20161225.0304)
 -->
<!-- Title: DerivativeForm&lt; order, dim, spacedim, Number &gt; Pages: 1 -->
<svg width="373pt" height="225pt"
 viewBox="0.00 0.00 373.33 225.00" xmlns="http://www.w3.org/2000/svg" xmlns:xlink="http://www.w3.org/1999/xlink">
<g id="graph0" class="graph" transform="scale(1 1) rotate(0) translate(4 221)">
<title>DerivativeForm&lt; order, dim, spacedim, Number &gt;</title>
<polygon fill="#ffffff" stroke="transparent" points="-4,4 -4,-221 369.334,-221 369.334,4 -4,4"/>
<!-- Node0 -->
<g id="node1" class="node">
<title>Node0</title>
<polygon fill="#bfbfbf" stroke="#000000" points="0,-94.5 0,-122.5 132.9873,-122.5 132.9873,-94.5 0,-94.5"/>
<text text-anchor="start" x="8" y="-110.5" font-family="Helvetica,sans-Serif" font-size="10.00" fill="#000000">DerivativeForm&lt; order,</text>
<text text-anchor="middle" x="66.4937" y="-100.5" font-family="Helvetica,sans-Serif" font-size="10.00" fill="#000000"> dim, spacedim, Number &gt;</text>
</g>
<!-- Node1 -->
<g id="node2" class="node">
<title>Node1</title>
<g id="a_node2"><a xlink:href="classDerivativeForm.html" target="_top" xlink:title="DerivativeForm\&lt; 1,\l dim, spacedim \&gt;">
<polygon fill="#ffffff" stroke="#000000" points="264.5879,-188.5 264.5879,-216.5 365.334,-216.5 365.334,-188.5 264.5879,-188.5"/>
<text text-anchor="start" x="272.5879" y="-204.5" font-family="Helvetica,sans-Serif" font-size="10.00" fill="#000000">DerivativeForm&lt; 1,</text>
<text text-anchor="middle" x="314.9609" y="-194.5" font-family="Helvetica,sans-Serif" font-size="10.00" fill="#000000"> dim, spacedim &gt;</text>
</a>
</g>
</g>
<!-- Node0&#45;&gt;Node1 -->
<g id="edge1" class="edge">
<title>Node0&#45;&gt;Node1</title>
<path fill="none" stroke="#ffa500" stroke-dasharray="5,2" d="M97.1253,-127.7702C112.8063,-137.0521 132.4545,-147.8084 150.9873,-155.5 187.9124,-170.8248 231.4927,-183.057 264.4405,-191.1967"/>
<polygon fill="#ffa500" stroke="#ffa500" points="98.7617,-124.67 88.3894,-122.5098 95.1507,-130.6668 98.7617,-124.67"/>
<text text-anchor="middle" x="198.7876" y="-187.5" font-family="Helvetica,sans-Serif" font-size="10.00" fill="#000000"> &lt; 1, dim, spacedim &gt;</text>
</g>
<!-- Node2 -->
<g id="node3" class="node">
<title>Node2</title>
<g id="a_node3"><a xlink:href="classDerivativeForm.html" target="_top" xlink:title="DerivativeForm\&lt; 4,\l dim, spacedim \&gt;">
<polygon fill="#ffffff" stroke="#000000" points="264.5879,-141.5 264.5879,-169.5 365.334,-169.5 365.334,-141.5 264.5879,-141.5"/>
<text text-anchor="start" x="272.5879" y="-157.5" font-family="Helvetica,sans-Serif" font-size="10.00" fill="#000000">DerivativeForm&lt; 4,</text>
<text text-anchor="middle" x="314.9609" y="-147.5" font-family="Helvetica,sans-Serif" font-size="10.00" fill="#000000"> dim, spacedim &gt;</text>
</a>
</g>
</g>
<!-- Node0&#45;&gt;Node2 -->
<g id="edge2" class="edge">
<title>Node0&#45;&gt;Node2</title>
<path fill="none" stroke="#ffa500" stroke-dasharray="5,2" d="M142.9352,-122.9597C182.3959,-130.424 229.4467,-139.3242 264.3593,-145.9282"/>
<polygon fill="#ffa500" stroke="#ffa500" points="143.5546,-119.5148 133.0783,-121.0951 142.2535,-126.3929 143.5546,-119.5148"/>
<text text-anchor="middle" x="198.7876" y="-143.5" font-family="Helvetica,sans-Serif" font-size="10.00" fill="#000000"> &lt; 4, dim, spacedim &gt;</text>
</g>
<!-- Node3 -->
<g id="node4" class="node">
<title>Node3</title>
<g id="a_node4"><a xlink:href="classDerivativeForm.html" target="_top" xlink:title="DerivativeForm\&lt; 1,\l spacedim, dim \&gt;">
<polygon fill="#ffffff" stroke="#000000" points="264.5879,-94.5 264.5879,-122.5 365.334,-122.5 365.334,-94.5 264.5879,-94.5"/>
<text text-anchor="start" x="272.5879" y="-110.5" font-family="Helvetica,sans-Serif" font-size="10.00" fill="#000000">DerivativeForm&lt; 1,</text>
<text text-anchor="middle" x="314.9609" y="-100.5" font-family="Helvetica,sans-Serif" font-size="10.00" fill="#000000"> spacedim, dim &gt;</text>
</a>
</g>
</g>
<!-- Node0&#45;&gt;Node3 -->
<g id="edge3" class="edge">
<title>Node0&#45;&gt;Node3</title>
<path fill="none" stroke="#ffa500" stroke-dasharray="5,2" d="M143.1861,-108.5C182.5952,-108.5 229.5207,-108.5 264.3593,-108.5"/>
<polygon fill="#ffa500" stroke="#ffa500" points="143.0784,-105.0001 133.0783,-108.5 143.0783,-112.0001 143.0784,-105.0001"/>
<text text-anchor="middle" x="198.7876" y="-110.5" font-family="Helvetica,sans-Serif" font-size="10.00" fill="#000000"> &lt; 1, spacedim, dim &gt;</text>
</g>
<!-- Node4 -->
<g id="node5" class="node">
<title>Node4</title>
<g id="a_node5"><a xlink:href="classDerivativeForm.html" target="_top" xlink:title="DerivativeForm\&lt; 2,\l dim, spacedim \&gt;">
<polygon fill="#ffffff" stroke="#000000" points="264.5879,-47.5 264.5879,-75.5 365.334,-75.5 365.334,-47.5 264.5879,-47.5"/>
<text text-anchor="start" x="272.5879" y="-63.5" font-family="Helvetica,sans-Serif" font-size="10.00" fill="#000000">DerivativeForm&lt; 2,</text>
<text text-anchor="middle" x="314.9609" y="-53.5" font-family="Helvetica,sans-Serif" font-size="10.00" fill="#000000"> dim, spacedim &gt;</text>
</a>
</g>
</g>
<!-- Node0&#45;&gt;Node4 -->
<g id="edge4" class="edge">
<title>Node0&#45;&gt;Node4</title>
<path fill="none" stroke="#ffa500" stroke-dasharray="5,2" d="M142.9352,-94.0403C182.3959,-86.576 229.4467,-77.6758 264.3593,-71.0718"/>
<polygon fill="#ffa500" stroke="#ffa500" points="142.2535,-90.6071 133.0783,-95.9049 143.5546,-97.4852 142.2535,-90.6071"/>
<text text-anchor="middle" x="198.7876" y="-93.5" font-family="Helvetica,sans-Serif" font-size="10.00" fill="#000000"> &lt; 2, dim, spacedim &gt;</text>
</g>
<!-- Node5 -->
<g id="node6" class="node">
<title>Node5</title>
<g id="a_node6"><a xlink:href="classDerivativeForm.html" target="_top" xlink:title="DerivativeForm\&lt; 3,\l dim, spacedim \&gt;">
<polygon fill="#ffffff" stroke="#000000" points="264.5879,-.5 264.5879,-28.5 365.334,-28.5 365.334,-.5 264.5879,-.5"/>
<text text-anchor="start" x="272.5879" y="-16.5" font-family="Helvetica,sans-Serif" font-size="10.00" fill="#000000">DerivativeForm&lt; 3,</text>
<text text-anchor="middle" x="314.9609" y="-6.5" font-family="Helvetica,sans-Serif" font-size="10.00" fill="#000000"> dim, spacedim &gt;</text>
</a>
</g>
</g>
<!-- Node0&#45;&gt;Node5 -->
<g id="edge5" class="edge">
<title>Node0&#45;&gt;Node5</title>
<path fill="none" stroke="#ffa500" stroke-dasharray="5,2" d="M96.7283,-88.9392C112.445,-79.3945 132.2433,-68.316 150.9873,-60.5 187.8277,-45.138 231.4126,-33.1859 264.3837,-25.3194"/>
<polygon fill="#ffa500" stroke="#ffa500" points="94.6496,-86.1094 87.9849,-94.3455 98.331,-92.0632 94.6496,-86.1094"/>
<text text-anchor="middle" x="198.7876" y="-62.5" font-family="Helvetica,sans-Serif" font-size="10.00" fill="#000000"> &lt; 3, dim, spacedim &gt;</text>
</g>
</g>
</svg>
