<?xml version="1.0" encoding="UTF-8" standalone="no"?>
<!DOCTYPE svg PUBLIC "-//W3C//DTD SVG 1.1//EN"
 "http://www.w3.org/Graphics/SVG/1.1/DTD/svg11.dtd">
<!-- Generated by graphviz version 2.40.1 (20161225.0304)
 -->
<!-- Title: FESystem&lt; dim, spacedim &gt; Pages: 1 -->
<svg width="196pt" height="157pt"
 viewBox="0.00 0.00 196.34 157.00" xmlns="http://www.w3.org/2000/svg" xmlns:xlink="http://www.w3.org/1999/xlink">
<g id="graph0" class="graph" transform="scale(1 1) rotate(0) translate(4 153)">
<title>FESystem&lt; dim, spacedim &gt;</title>
<polygon fill="#ffffff" stroke="transparent" points="-4,4 -4,-153 192.3384,-153 192.3384,4 -4,4"/>
<!-- Node0 -->
<g id="node1" class="node">
<title>Node0</title>
<polygon fill="#bfbfbf" stroke="#000000" points="12.377,-.5 12.377,-18.5 156.1992,-18.5 156.1992,-.5 12.377,-.5"/>
<text text-anchor="middle" x="84.2881" y="-6.5" font-family="Helvetica,sans-Serif" font-size="10.00" fill="#000000">FESystem&lt; dim, spacedim &gt;</text>
</g>
<!-- Node1 -->
<g id="node2" class="node">
<title>Node1</title>
<g id="a_node2"><a xlink:href="classFiniteElement.html" target="_top" xlink:title="FiniteElement\&lt; dim,\l spacedim \&gt;">
<polygon fill="#ffffff" stroke="#000000" points="31.9644,-55.5 31.9644,-83.5 136.6118,-83.5 136.6118,-55.5 31.9644,-55.5"/>
<text text-anchor="start" x="39.9644" y="-71.5" font-family="Helvetica,sans-Serif" font-size="10.00" fill="#000000">FiniteElement&lt; dim,</text>
<text text-anchor="middle" x="84.2881" y="-61.5" font-family="Helvetica,sans-Serif" font-size="10.00" fill="#000000"> spacedim &gt;</text>
</a>
</g>
</g>
<!-- Node1&#45;&gt;Node0 -->
<g id="edge1" class="edge">
<title>Node1&#45;&gt;Node0</title>
<path fill="none" stroke="#191970" d="M84.2881,-45.2151C84.2881,-35.8253 84.2881,-25.6598 84.2881,-18.5842"/>
<polygon fill="#191970" stroke="#191970" points="80.7882,-45.2808 84.2881,-55.2808 87.7882,-45.2809 80.7882,-45.2808"/>
</g>
<!-- Node2 -->
<g id="node3" class="node">
<title>Node2</title>
<g id="a_node3"><a xlink:href="classSubscriptor.html" target="_top" xlink:title="Subscriptor">
<polygon fill="#ffffff" stroke="#000000" points="0,-125.5 0,-143.5 66.5762,-143.5 66.5762,-125.5 0,-125.5"/>
<text text-anchor="middle" x="33.2881" y="-131.5" font-family="Helvetica,sans-Serif" font-size="10.00" fill="#000000">Subscriptor</text>
</a>
</g>
</g>
<!-- Node2&#45;&gt;Node1 -->
<g id="edge2" class="edge">
<title>Node2&#45;&gt;Node1</title>
<path fill="none" stroke="#191970" d="M46.6323,-117.4927C54.8101,-107.07 65.1652,-93.8724 72.9458,-83.9559"/>
<polygon fill="#191970" stroke="#191970" points="43.7987,-115.4341 40.3794,-125.462 49.3059,-119.7551 43.7987,-115.4341"/>
</g>
<!-- Node3 -->
<g id="node4" class="node">
<title>Node3</title>
<g id="a_node4"><a xlink:href="classFiniteElementData.html" target="_top" xlink:title="FiniteElementData\&lt;\l dim \&gt;">
<polygon fill="#ffffff" stroke="#000000" points="84.2378,-120.5 84.2378,-148.5 188.3384,-148.5 188.3384,-120.5 84.2378,-120.5"/>
<text text-anchor="start" x="92.2378" y="-136.5" font-family="Helvetica,sans-Serif" font-size="10.00" fill="#000000">FiniteElementData&lt;</text>
<text text-anchor="middle" x="136.2881" y="-126.5" font-family="Helvetica,sans-Serif" font-size="10.00" fill="#000000"> dim &gt;</text>
</a>
</g>
</g>
<!-- Node3&#45;&gt;Node1 -->
<g id="edge3" class="edge">
<title>Node3&#45;&gt;Node1</title>
<path fill="none" stroke="#191970" d="M118.6459,-112.4472C111.007,-102.8986 102.291,-92.0037 95.5493,-83.5765"/>
<polygon fill="#191970" stroke="#191970" points="116.0248,-114.7737 125.0049,-120.396 121.4909,-110.4008 116.0248,-114.7737"/>
</g>
</g>
</svg>
