<?xml version="1.0" encoding="UTF-8" standalone="no"?>
<!DOCTYPE svg PUBLIC "-//W3C//DTD SVG 1.1//EN"
 "http://www.w3.org/Graphics/SVG/1.1/DTD/svg11.dtd">
<!-- Generated by graphviz version 2.40.1 (20161225.0304)
 -->
<!-- Title: MGCoarseGridApplySmoother&lt; VectorType &gt; Pages: 1 -->
<svg width="160pt" height="157pt"
 viewBox="0.00 0.00 159.61 157.00" xmlns="http://www.w3.org/2000/svg" xmlns:xlink="http://www.w3.org/1999/xlink">
<g id="graph0" class="graph" transform="scale(1 1) rotate(0) translate(4 153)">
<title>MGCoarseGridApplySmoother&lt; VectorType &gt;</title>
<polygon fill="#ffffff" stroke="transparent" points="-4,4 -4,-153 155.6055,-153 155.6055,4 -4,4"/>
<!-- Node0 -->
<g id="node1" class="node">
<title>Node0</title>
<polygon fill="#bfbfbf" stroke="#000000" points="0,-.5 0,-28.5 151.6055,-28.5 151.6055,-.5 0,-.5"/>
<text text-anchor="start" x="8" y="-16.5" font-family="Helvetica,sans-Serif" font-size="10.00" fill="#000000">MGCoarseGridApplySmoother</text>
<text text-anchor="middle" x="75.8027" y="-6.5" font-family="Helvetica,sans-Serif" font-size="10.00" fill="#000000">&lt; VectorType &gt;</text>
</g>
<!-- Node1 -->
<g id="node2" class="node">
<title>Node1</title>
<g id="a_node2"><a xlink:href="classMGCoarseGridBase.html" target="_top" xlink:title="MGCoarseGridBase\&lt; Vector\lType \&gt;">
<polygon fill="#ffffff" stroke="#000000" points="4.3018,-65.5 4.3018,-93.5 147.3037,-93.5 147.3037,-65.5 4.3018,-65.5"/>
<text text-anchor="start" x="12.3018" y="-81.5" font-family="Helvetica,sans-Serif" font-size="10.00" fill="#000000">MGCoarseGridBase&lt; Vector</text>
<text text-anchor="middle" x="75.8027" y="-71.5" font-family="Helvetica,sans-Serif" font-size="10.00" fill="#000000">Type &gt;</text>
</a>
</g>
</g>
<!-- Node1&#45;&gt;Node0 -->
<g id="edge1" class="edge">
<title>Node1&#45;&gt;Node0</title>
<path fill="none" stroke="#191970" d="M75.8027,-55.1081C75.8027,-46.1539 75.8027,-36.3227 75.8027,-28.5765"/>
<polygon fill="#191970" stroke="#191970" points="72.3028,-55.3959 75.8027,-65.396 79.3028,-55.396 72.3028,-55.3959"/>
</g>
<!-- Node2 -->
<g id="node3" class="node">
<title>Node2</title>
<g id="a_node3"><a xlink:href="classSubscriptor.html" target="_top" xlink:title="Subscriptor">
<polygon fill="#ffffff" stroke="#000000" points="42.5146,-130.5 42.5146,-148.5 109.0908,-148.5 109.0908,-130.5 42.5146,-130.5"/>
<text text-anchor="middle" x="75.8027" y="-136.5" font-family="Helvetica,sans-Serif" font-size="10.00" fill="#000000">Subscriptor</text>
</a>
</g>
</g>
<!-- Node2&#45;&gt;Node1 -->
<g id="edge2" class="edge">
<title>Node2&#45;&gt;Node1</title>
<path fill="none" stroke="#191970" d="M75.8027,-120.1865C75.8027,-111.6283 75.8027,-101.7354 75.8027,-93.8477"/>
<polygon fill="#191970" stroke="#191970" points="72.3028,-120.3873 75.8027,-130.3873 79.3028,-120.3873 72.3028,-120.3873"/>
</g>
</g>
</svg>
