<?xml version="1.0" encoding="UTF-8" standalone="no"?>
<!DOCTYPE svg PUBLIC "-//W3C//DTD SVG 1.1//EN"
 "http://www.w3.org/Graphics/SVG/1.1/DTD/svg11.dtd">
<!-- Generated by graphviz version 2.40.1 (20161225.0304)
 -->
<!-- Title: Functions::FEFieldFunction&lt; dim, DoFHandlerType, VectorType &gt; Pages: 1 -->
<svg width="351pt" height="244pt"
 viewBox="0.00 0.00 350.94 244.00" xmlns="http://www.w3.org/2000/svg" xmlns:xlink="http://www.w3.org/1999/xlink">
<g id="graph0" class="graph" transform="scale(1 1) rotate(0) translate(4 240)">
<title>Functions::FEFieldFunction&lt; dim, DoFHandlerType, VectorType &gt;</title>
<polygon fill="#ffffff" stroke="transparent" points="-4,4 -4,-240 346.9399,-240 346.9399,4 -4,4"/>
<!-- Node0 -->
<g id="node1" class="node">
<title>Node0</title>
<polygon fill="#bfbfbf" stroke="#000000" points="69.3848,-.5 69.3848,-28.5 255.4824,-28.5 255.4824,-.5 69.3848,-.5"/>
<text text-anchor="start" x="77.3848" y="-16.5" font-family="Helvetica,sans-Serif" font-size="10.00" fill="#000000">Functions::FEFieldFunction</text>
<text text-anchor="middle" x="162.4336" y="-6.5" font-family="Helvetica,sans-Serif" font-size="10.00" fill="#000000">&lt; dim, DoFHandlerType, VectorType &gt;</text>
</g>
<!-- Node1 -->
<g id="node2" class="node">
<title>Node1</title>
<g id="a_node2"><a xlink:href="classFunction.html" target="_top" xlink:title="Function\&lt; dim, VectorType\l::value_type \&gt;">
<polygon fill="#ffffff" stroke="#000000" points="95.0928,-66.5 95.0928,-94.5 229.7744,-94.5 229.7744,-66.5 95.0928,-66.5"/>
<text text-anchor="start" x="103.0928" y="-82.5" font-family="Helvetica,sans-Serif" font-size="10.00" fill="#000000">Function&lt; dim, VectorType</text>
<text text-anchor="middle" x="162.4336" y="-72.5" font-family="Helvetica,sans-Serif" font-size="10.00" fill="#000000">::value_type &gt;</text>
</a>
</g>
</g>
<!-- Node1&#45;&gt;Node0 -->
<g id="edge1" class="edge">
<title>Node1&#45;&gt;Node0</title>
<path fill="none" stroke="#191970" d="M162.4336,-56.0322C162.4336,-46.8606 162.4336,-36.7449 162.4336,-28.7931"/>
<polygon fill="#191970" stroke="#191970" points="158.9337,-56.1789 162.4336,-66.179 165.9337,-56.179 158.9337,-56.1789"/>
</g>
<!-- Node2 -->
<g id="node3" class="node">
<title>Node2</title>
<g id="a_node3"><a xlink:href="classFunctionTime.html" target="_top" xlink:title="FunctionTime\&lt; VectorType\l::value_type \&gt;">
<polygon fill="#ffffff" stroke="#000000" points="0,-151.5 0,-179.5 134.8672,-179.5 134.8672,-151.5 0,-151.5"/>
<text text-anchor="start" x="8" y="-167.5" font-family="Helvetica,sans-Serif" font-size="10.00" fill="#000000">FunctionTime&lt; VectorType</text>
<text text-anchor="middle" x="67.4336" y="-157.5" font-family="Helvetica,sans-Serif" font-size="10.00" fill="#000000">::value_type &gt;</text>
</a>
</g>
</g>
<!-- Node2&#45;&gt;Node1 -->
<g id="edge2" class="edge">
<title>Node2&#45;&gt;Node1</title>
<path fill="none" stroke="#191970" d="M90.6545,-144.7234C108.0735,-129.138 131.4505,-108.2217 146.723,-94.5569"/>
<polygon fill="#191970" stroke="#191970" points="88.2396,-142.1876 83.1209,-151.464 92.9071,-147.4044 88.2396,-142.1876"/>
</g>
<!-- Node3 -->
<g id="node4" class="node">
<title>Node3</title>
<g id="a_node4"><a xlink:href="classSubscriptor.html" target="_top" xlink:title="Subscriptor">
<polygon fill="#ffffff" stroke="#000000" points="129.1455,-217.5 129.1455,-235.5 195.7217,-235.5 195.7217,-217.5 129.1455,-217.5"/>
<text text-anchor="middle" x="162.4336" y="-223.5" font-family="Helvetica,sans-Serif" font-size="10.00" fill="#000000">Subscriptor</text>
</a>
</g>
</g>
<!-- Node3&#45;&gt;Node1 -->
<g id="edge3" class="edge">
<title>Node3&#45;&gt;Node1</title>
<path fill="none" stroke="#191970" d="M162.4336,-207.0107C162.4336,-177.1557 162.4336,-120.8096 162.4336,-94.5861"/>
<polygon fill="#191970" stroke="#191970" points="158.9337,-207.367 162.4336,-217.367 165.9337,-207.3671 158.9337,-207.367"/>
</g>
<!-- Node4 -->
<g id="node5" class="node">
<title>Node4</title>
<g id="a_node5"><a xlink:href="classFunction.html" target="_top" xlink:title="Function\&lt; dim, Number \&gt;">
<polygon fill="#ffffff" stroke="#000000" points="190.02,-156.5 190.02,-174.5 318.8472,-174.5 318.8472,-156.5 190.02,-156.5"/>
<text text-anchor="middle" x="254.4336" y="-162.5" font-family="Helvetica,sans-Serif" font-size="10.00" fill="#000000">Function&lt; dim, Number &gt;</text>
</a>
</g>
</g>
<!-- Node3&#45;&gt;Node4 -->
<g id="edge6" class="edge">
<title>Node3&#45;&gt;Node4</title>
<path fill="none" stroke="#191970" d="M184.504,-211.8664C202.0261,-200.2485 225.968,-184.3739 240.803,-174.5377"/>
<polygon fill="#191970" stroke="#191970" points="182.4088,-209.0561 176.0085,-217.4992 186.2771,-214.8902 182.4088,-209.0561"/>
</g>
<!-- Node4&#45;&gt;Node1 -->
<g id="edge4" class="edge">
<title>Node4&#45;&gt;Node1</title>
<path fill="none" stroke="#ffa500" stroke-dasharray="5,2" d="M236.9618,-149.3576C219.8381,-133.5368 193.9997,-109.6644 177.6836,-94.5897"/>
<polygon fill="#ffa500" stroke="#ffa500" points="234.8678,-152.1881 244.588,-156.4035 239.6181,-147.0466 234.8678,-152.1881"/>
<text text-anchor="start" x="217.4336" y="-125" font-family="Helvetica,sans-Serif" font-size="10.00" fill="#000000"> &lt; dim, VectorType::</text>
<text text-anchor="middle" x="261.7646" y="-115" font-family="Helvetica,sans-Serif" font-size="10.00" fill="#000000">value_type &gt;</text>
</g>
<!-- Node5 -->
<g id="node6" class="node">
<title>Node5</title>
<g id="a_node6"><a xlink:href="classFunctionTime.html" target="_top" xlink:title="FunctionTime\&lt; Number \&gt;">
<polygon fill="#ffffff" stroke="#000000" points="213.9272,-217.5 213.9272,-235.5 342.9399,-235.5 342.9399,-217.5 213.9272,-217.5"/>
<text text-anchor="middle" x="278.4336" y="-223.5" font-family="Helvetica,sans-Serif" font-size="10.00" fill="#000000">FunctionTime&lt; Number &gt;</text>
</a>
</g>
</g>
<!-- Node5&#45;&gt;Node4 -->
<g id="edge5" class="edge">
<title>Node5&#45;&gt;Node4</title>
<path fill="none" stroke="#191970" d="M271.1109,-207.8882C266.7587,-196.8264 261.4334,-183.2911 257.9894,-174.5377"/>
<polygon fill="#191970" stroke="#191970" points="267.974,-209.475 274.8923,-217.4992 274.488,-206.9121 267.974,-209.475"/>
</g>
</g>
</svg>
