<?xml version="1.0" encoding="UTF-8" standalone="no"?>
<!DOCTYPE svg PUBLIC "-//W3C//DTD SVG 1.1//EN"
 "http://www.w3.org/Graphics/SVG/1.1/DTD/svg11.dtd">
<!-- Generated by graphviz version 2.40.1 (20161225.0304)
 -->
<!-- Title: Algorithms::OutputOperator&lt; VectorType &gt; Pages: 1 -->
<svg width="165pt" height="157pt"
 viewBox="0.00 0.00 165.17 157.00" xmlns="http://www.w3.org/2000/svg" xmlns:xlink="http://www.w3.org/1999/xlink">
<g id="graph0" class="graph" transform="scale(1 1) rotate(0) translate(4 153)">
<title>Algorithms::OutputOperator&lt; VectorType &gt;</title>
<polygon fill="#ffffff" stroke="transparent" points="-4,4 -4,-153 161.167,-153 161.167,4 -4,4"/>
<!-- Node0 -->
<g id="node1" class="node">
<title>Node0</title>
<polygon fill="#bfbfbf" stroke="#000000" points="9.4458,-65.5 9.4458,-93.5 147.7212,-93.5 147.7212,-65.5 9.4458,-65.5"/>
<text text-anchor="start" x="17.4458" y="-81.5" font-family="Helvetica,sans-Serif" font-size="10.00" fill="#000000">Algorithms::OutputOperator</text>
<text text-anchor="middle" x="78.5835" y="-71.5" font-family="Helvetica,sans-Serif" font-size="10.00" fill="#000000">&lt; VectorType &gt;</text>
</g>
<!-- Node2 -->
<g id="node3" class="node">
<title>Node2</title>
<g id="a_node3"><a xlink:href="classAlgorithms_1_1DoFOutputOperator.html" target="_top" xlink:title="Algorithms::DoFOutputOperator\l\&lt; VectorType \&gt;">
<polygon fill="#ffffff" stroke="#000000" points="0,-.5 0,-28.5 157.167,-28.5 157.167,-.5 0,-.5"/>
<text text-anchor="start" x="8" y="-16.5" font-family="Helvetica,sans-Serif" font-size="10.00" fill="#000000">Algorithms::DoFOutputOperator</text>
<text text-anchor="middle" x="78.5835" y="-6.5" font-family="Helvetica,sans-Serif" font-size="10.00" fill="#000000">&lt; VectorType &gt;</text>
</a>
</g>
</g>
<!-- Node0&#45;&gt;Node2 -->
<g id="edge2" class="edge">
<title>Node0&#45;&gt;Node2</title>
<path fill="none" stroke="#191970" d="M78.5835,-55.1081C78.5835,-46.1539 78.5835,-36.3227 78.5835,-28.5765"/>
<polygon fill="#191970" stroke="#191970" points="75.0836,-55.3959 78.5835,-65.396 82.0836,-55.396 75.0836,-55.3959"/>
</g>
<!-- Node1 -->
<g id="node2" class="node">
<title>Node1</title>
<g id="a_node2"><a xlink:href="classSubscriptor.html" target="_top" xlink:title="Subscriptor">
<polygon fill="#ffffff" stroke="#000000" points="45.2954,-130.5 45.2954,-148.5 111.8716,-148.5 111.8716,-130.5 45.2954,-130.5"/>
<text text-anchor="middle" x="78.5835" y="-136.5" font-family="Helvetica,sans-Serif" font-size="10.00" fill="#000000">Subscriptor</text>
</a>
</g>
</g>
<!-- Node1&#45;&gt;Node0 -->
<g id="edge1" class="edge">
<title>Node1&#45;&gt;Node0</title>
<path fill="none" stroke="#191970" d="M78.5835,-120.1865C78.5835,-111.6283 78.5835,-101.7354 78.5835,-93.8477"/>
<polygon fill="#191970" stroke="#191970" points="75.0836,-120.3873 78.5835,-130.3873 82.0836,-120.3873 75.0836,-120.3873"/>
</g>
</g>
</svg>
