<?xml version="1.0" encoding="UTF-8" standalone="no"?>
<!DOCTYPE svg PUBLIC "-//W3C//DTD SVG 1.1//EN"
 "http://www.w3.org/Graphics/SVG/1.1/DTD/svg11.dtd">
<!-- Generated by graphviz version 2.40.1 (20161225.0304)
 -->
<!-- Title: TrilinosWrappers::BlockSparsityPattern Pages: 1 -->
<svg width="230pt" height="234pt"
 viewBox="0.00 0.00 230.39 234.00" xmlns="http://www.w3.org/2000/svg" xmlns:xlink="http://www.w3.org/1999/xlink">
<g id="graph0" class="graph" transform="scale(1 1) rotate(0) translate(4 230)">
<title>TrilinosWrappers::BlockSparsityPattern</title>
<polygon fill="#ffffff" stroke="transparent" points="-4,4 -4,-230 226.3862,-230 226.3862,4 -4,4"/>
<!-- Node0 -->
<g id="node1" class="node">
<title>Node0</title>
<polygon fill="#bfbfbf" stroke="#000000" points="0,-.5 0,-28.5 157.1621,-28.5 157.1621,-.5 0,-.5"/>
<text text-anchor="start" x="8" y="-16.5" font-family="Helvetica,sans-Serif" font-size="10.00" fill="#000000">TrilinosWrappers::BlockSparsity</text>
<text text-anchor="middle" x="78.5811" y="-6.5" font-family="Helvetica,sans-Serif" font-size="10.00" fill="#000000">Pattern</text>
</g>
<!-- Node1 -->
<g id="node2" class="node">
<title>Node1</title>
<g id="a_node2"><a xlink:href="classBlockSparsityPatternBase.html" target="_top" xlink:title="BlockSparsityPatternBase\l\&lt; SparsityPattern \&gt;">
<polygon fill="#ffffff" stroke="#000000" points="12.7759,-66.5 12.7759,-94.5 144.3862,-94.5 144.3862,-66.5 12.7759,-66.5"/>
<text text-anchor="start" x="20.7759" y="-82.5" font-family="Helvetica,sans-Serif" font-size="10.00" fill="#000000">BlockSparsityPatternBase</text>
<text text-anchor="middle" x="78.5811" y="-72.5" font-family="Helvetica,sans-Serif" font-size="10.00" fill="#000000">&lt; SparsityPattern &gt;</text>
</a>
</g>
</g>
<!-- Node1&#45;&gt;Node0 -->
<g id="edge1" class="edge">
<title>Node1&#45;&gt;Node0</title>
<path fill="none" stroke="#191970" d="M78.5811,-56.0322C78.5811,-46.8606 78.5811,-36.7449 78.5811,-28.7931"/>
<polygon fill="#191970" stroke="#191970" points="75.0812,-56.1789 78.5811,-66.179 82.0812,-56.179 75.0812,-56.1789"/>
</g>
<!-- Node2 -->
<g id="node3" class="node">
<title>Node2</title>
<g id="a_node3"><a xlink:href="classSubscriptor.html" target="_top" xlink:title="Subscriptor">
<polygon fill="#ffffff" stroke="#000000" points="41.293,-207.5 41.293,-225.5 107.8691,-225.5 107.8691,-207.5 41.293,-207.5"/>
<text text-anchor="middle" x="74.5811" y="-213.5" font-family="Helvetica,sans-Serif" font-size="10.00" fill="#000000">Subscriptor</text>
</a>
</g>
</g>
<!-- Node2&#45;&gt;Node1 -->
<g id="edge2" class="edge">
<title>Node2&#45;&gt;Node1</title>
<path fill="none" stroke="#191970" d="M75.1513,-197.1119C75.9662,-169.4066 77.4446,-119.1399 78.1646,-94.6595"/>
<polygon fill="#191970" stroke="#191970" points="71.6516,-197.0536 74.856,-207.1522 78.6486,-197.2594 71.6516,-197.0536"/>
</g>
<!-- Node3 -->
<g id="node4" class="node">
<title>Node3</title>
<g id="a_node4"><a xlink:href="classBlockSparsityPatternBase.html" target="_top" xlink:title="BlockSparsityPatternBase\l\&lt; SparsityPatternType \&gt;">
<polygon fill="#ffffff" stroke="#000000" points="90.7759,-141.5 90.7759,-169.5 222.3862,-169.5 222.3862,-141.5 90.7759,-141.5"/>
<text text-anchor="start" x="98.7759" y="-157.5" font-family="Helvetica,sans-Serif" font-size="10.00" fill="#000000">BlockSparsityPatternBase</text>
<text text-anchor="middle" x="156.5811" y="-147.5" font-family="Helvetica,sans-Serif" font-size="10.00" fill="#000000">&lt; SparsityPatternType &gt;</text>
</a>
</g>
</g>
<!-- Node2&#45;&gt;Node3 -->
<g id="edge4" class="edge">
<title>Node2&#45;&gt;Node3</title>
<path fill="none" stroke="#191970" d="M95.0428,-201.2784C108.1299,-191.5429 124.9809,-179.0074 137.7397,-169.5162"/>
<polygon fill="#191970" stroke="#191970" points="92.6148,-198.7224 86.6804,-207.4992 96.7929,-204.3388 92.6148,-198.7224"/>
</g>
<!-- Node3&#45;&gt;Node1 -->
<g id="edge3" class="edge">
<title>Node3&#45;&gt;Node1</title>
<path fill="none" stroke="#ffa500" stroke-dasharray="5,2" d="M134.5494,-134.3157C121.3083,-121.5839 104.8255,-105.7351 93.1865,-94.5437"/>
<polygon fill="#ffa500" stroke="#ffa500" points="132.2756,-136.9849 141.9099,-141.3931 137.1274,-131.939 132.2756,-136.9849"/>
<text text-anchor="middle" x="165.7705" y="-115" font-family="Helvetica,sans-Serif" font-size="10.00" fill="#000000"> &lt; SparsityPattern &gt;</text>
</g>
</g>
</svg>
