<?xml version="1.0" encoding="UTF-8" standalone="no"?>
<!DOCTYPE svg PUBLIC "-//W3C//DTD SVG 1.1//EN"
 "http://www.w3.org/Graphics/SVG/1.1/DTD/svg11.dtd">
<!-- Generated by graphviz version 2.40.1 (20161225.0304)
 -->
<!-- Title: LinearAlgebra::EpetraWrappers::CommunicationPattern Pages: 1 -->
<svg width="164pt" height="102pt"
 viewBox="0.00 0.00 164.45 102.00" xmlns="http://www.w3.org/2000/svg" xmlns:xlink="http://www.w3.org/1999/xlink">
<g id="graph0" class="graph" transform="scale(1 1) rotate(0) translate(4 98)">
<title>LinearAlgebra::EpetraWrappers::CommunicationPattern</title>
<polygon fill="#ffffff" stroke="transparent" points="-4,4 -4,-98 160.4541,-98 160.4541,4 -4,4"/>
<!-- Node0 -->
<g id="node1" class="node">
<title>Node0</title>
<polygon fill="#bfbfbf" stroke="#000000" points="0,-.5 0,-28.5 156.4541,-28.5 156.4541,-.5 0,-.5"/>
<text text-anchor="start" x="8" y="-16.5" font-family="Helvetica,sans-Serif" font-size="10.00" fill="#000000">LinearAlgebra::EpetraWrappers</text>
<text text-anchor="middle" x="78.2271" y="-6.5" font-family="Helvetica,sans-Serif" font-size="10.00" fill="#000000">::CommunicationPattern</text>
</g>
<!-- Node1 -->
<g id="node2" class="node">
<title>Node1</title>
<g id="a_node2"><a xlink:href="classLinearAlgebra_1_1CommunicationPatternBase.html" target="_top" xlink:title="LinearAlgebra::Communication\lPatternBase">
<polygon fill="#ffffff" stroke="#000000" points="1.5796,-65.5 1.5796,-93.5 154.8745,-93.5 154.8745,-65.5 1.5796,-65.5"/>
<text text-anchor="start" x="9.5796" y="-81.5" font-family="Helvetica,sans-Serif" font-size="10.00" fill="#000000">LinearAlgebra::Communication</text>
<text text-anchor="middle" x="78.2271" y="-71.5" font-family="Helvetica,sans-Serif" font-size="10.00" fill="#000000">PatternBase</text>
</a>
</g>
</g>
<!-- Node1&#45;&gt;Node0 -->
<g id="edge1" class="edge">
<title>Node1&#45;&gt;Node0</title>
<path fill="none" stroke="#191970" d="M78.2271,-55.1081C78.2271,-46.1539 78.2271,-36.3227 78.2271,-28.5765"/>
<polygon fill="#191970" stroke="#191970" points="74.7271,-55.3959 78.2271,-65.396 81.7271,-55.396 74.7271,-55.3959"/>
</g>
</g>
</svg>
