<?xml version="1.0" encoding="UTF-8" standalone="no"?>
<!DOCTYPE svg PUBLIC "-//W3C//DTD SVG 1.1//EN"
 "http://www.w3.org/Graphics/SVG/1.1/DTD/svg11.dtd">
<!-- Generated by graphviz version 2.40.1 (20161225.0304)
 -->
<!-- Title: Algorithms::OperatorBase Pages: 1 -->
<svg width="282pt" height="147pt"
 viewBox="0.00 0.00 282.36 147.00" xmlns="http://www.w3.org/2000/svg" xmlns:xlink="http://www.w3.org/1999/xlink">
<g id="graph0" class="graph" transform="scale(1 1) rotate(0) translate(4 143)">
<title>Algorithms::OperatorBase</title>
<polygon fill="#ffffff" stroke="transparent" points="-4,4 -4,-143 278.3633,-143 278.3633,4 -4,4"/>
<!-- Node0 -->
<g id="node1" class="node">
<title>Node0</title>
<polygon fill="#bfbfbf" stroke="#000000" points="58.8252,-65.5 58.8252,-83.5 189.874,-83.5 189.874,-65.5 58.8252,-65.5"/>
<text text-anchor="middle" x="124.3496" y="-71.5" font-family="Helvetica,sans-Serif" font-size="10.00" fill="#000000">Algorithms::OperatorBase</text>
</g>
<!-- Node2 -->
<g id="node3" class="node">
<title>Node2</title>
<g id="a_node3"><a xlink:href="classAlgorithms_1_1Newton.html" target="_top" xlink:title="Algorithms::Newton\l\&lt; VectorType \&gt;">
<polygon fill="#ffffff" stroke="#000000" points="0,-.5 0,-28.5 102.6992,-28.5 102.6992,-.5 0,-.5"/>
<text text-anchor="start" x="8" y="-16.5" font-family="Helvetica,sans-Serif" font-size="10.00" fill="#000000">Algorithms::Newton</text>
<text text-anchor="middle" x="51.3496" y="-6.5" font-family="Helvetica,sans-Serif" font-size="10.00" fill="#000000">&lt; VectorType &gt;</text>
</a>
</g>
</g>
<!-- Node0&#45;&gt;Node2 -->
<g id="edge2" class="edge">
<title>Node0&#45;&gt;Node2</title>
<path fill="none" stroke="#191970" d="M105.2394,-58.7929C93.8626,-49.4422 79.5445,-37.6739 68.5269,-28.6183"/>
<polygon fill="#191970" stroke="#191970" points="103.3147,-61.7415 113.2625,-65.3873 107.7594,-56.3337 103.3147,-61.7415"/>
</g>
<!-- Node3 -->
<g id="node4" class="node">
<title>Node3</title>
<g id="a_node4"><a xlink:href="classAlgorithms_1_1ThetaTimestepping.html" target="_top" xlink:title="Algorithms::ThetaTimestepping\l\&lt; VectorType \&gt;">
<polygon fill="#ffffff" stroke="#000000" points="120.3359,-.5 120.3359,-28.5 274.3633,-28.5 274.3633,-.5 120.3359,-.5"/>
<text text-anchor="start" x="128.3359" y="-16.5" font-family="Helvetica,sans-Serif" font-size="10.00" fill="#000000">Algorithms::ThetaTimestepping</text>
<text text-anchor="middle" x="197.3496" y="-6.5" font-family="Helvetica,sans-Serif" font-size="10.00" fill="#000000">&lt; VectorType &gt;</text>
</a>
</g>
</g>
<!-- Node0&#45;&gt;Node3 -->
<g id="edge3" class="edge">
<title>Node0&#45;&gt;Node3</title>
<path fill="none" stroke="#191970" d="M143.4599,-58.7929C154.8366,-49.4422 169.1547,-37.6739 180.1724,-28.6183"/>
<polygon fill="#191970" stroke="#191970" points="140.9398,-56.3337 135.4367,-65.3873 145.3846,-61.7415 140.9398,-56.3337"/>
</g>
<!-- Node1 -->
<g id="node2" class="node">
<title>Node1</title>
<g id="a_node2"><a xlink:href="classSubscriptor.html" target="_top" xlink:title="Subscriptor">
<polygon fill="#ffffff" stroke="#000000" points="91.0615,-120.5 91.0615,-138.5 157.6377,-138.5 157.6377,-120.5 91.0615,-120.5"/>
<text text-anchor="middle" x="124.3496" y="-126.5" font-family="Helvetica,sans-Serif" font-size="10.00" fill="#000000">Subscriptor</text>
</a>
</g>
</g>
<!-- Node1&#45;&gt;Node0 -->
<g id="edge1" class="edge">
<title>Node1&#45;&gt;Node0</title>
<path fill="none" stroke="#191970" d="M124.3496,-110.383C124.3496,-101.3738 124.3496,-91.0373 124.3496,-83.7795"/>
<polygon fill="#191970" stroke="#191970" points="120.8497,-110.4178 124.3496,-120.4179 127.8497,-110.4179 120.8497,-110.4178"/>
</g>
</g>
</svg>
