<?xml version="1.0" encoding="UTF-8" standalone="no"?>
<!DOCTYPE svg PUBLIC "-//W3C//DTD SVG 1.1//EN"
 "http://www.w3.org/Graphics/SVG/1.1/DTD/svg11.dtd">
<!-- Generated by graphviz version 2.40.1 (20161225.0304)
 -->
<!-- Title: FlatManifold&lt; dim, spacedim &gt; Pages: 1 -->
<svg width="1491pt" height="381pt"
 viewBox="0.00 0.00 1491.23 381.00" xmlns="http://www.w3.org/2000/svg" xmlns:xlink="http://www.w3.org/1999/xlink">
<g id="graph0" class="graph" transform="scale(1 1) rotate(0) translate(4 377)">
<title>FlatManifold&lt; dim, spacedim &gt;</title>
<polygon fill="#ffffff" stroke="transparent" points="-4,4 -4,-377 1487.2344,-377 1487.2344,4 -4,4"/>
<!-- Node0 -->
<g id="node1" class="node">
<title>Node0</title>
<polygon fill="#bfbfbf" stroke="#000000" points="276.0781,-43.5 276.0781,-71.5 374.0557,-71.5 374.0557,-43.5 276.0781,-43.5"/>
<text text-anchor="start" x="284.0781" y="-59.5" font-family="Helvetica,sans-Serif" font-size="10.00" fill="#000000">FlatManifold&lt; dim,</text>
<text text-anchor="middle" x="325.0669" y="-49.5" font-family="Helvetica,sans-Serif" font-size="10.00" fill="#000000"> spacedim &gt;</text>
</g>
<!-- Node3 -->
<g id="node4" class="node">
<title>Node3</title>
<g id="a_node4"><a xlink:href="classBoundary.html" target="_top" xlink:title="Boundary\&lt; dim, spacedim \&gt;">
<polygon fill="#ffffff" stroke="#000000" points="512.3164,-169.5 512.3164,-187.5 652.8281,-187.5 652.8281,-169.5 512.3164,-169.5"/>
<text text-anchor="middle" x="582.5723" y="-175.5" font-family="Helvetica,sans-Serif" font-size="10.00" fill="#000000">Boundary&lt; dim, spacedim &gt;</text>
</a>
</g>
</g>
<!-- Node0&#45;&gt;Node3 -->
<g id="edge3" class="edge">
<title>Node0&#45;&gt;Node3</title>
<path fill="none" stroke="#191970" d="M364.371,-75.9687C420.4349,-102.3128 521.231,-149.6762 563.3039,-169.4459"/>
<polygon fill="#191970" stroke="#191970" points="365.6491,-72.7022 355.11,-71.617 362.6721,-79.0376 365.6491,-72.7022"/>
</g>
<!-- Node18 -->
<g id="node18" class="node">
<title>Node18</title>
<g id="a_node18"><a xlink:href="classBoundary.html" target="_top" xlink:title="Boundary\&lt; dim, dim \&gt;">
<polygon fill="#ffffff" stroke="#000000" points="775.2417,-46.5 775.2417,-64.5 889.0688,-64.5 889.0688,-46.5 775.2417,-46.5"/>
<text text-anchor="middle" x="832.1553" y="-52.5" font-family="Helvetica,sans-Serif" font-size="10.00" fill="#000000">Boundary&lt; dim, dim &gt;</text>
</a>
</g>
</g>
<!-- Node0&#45;&gt;Node18 -->
<g id="edge21" class="edge">
<title>Node0&#45;&gt;Node18</title>
<path fill="none" stroke="#191970" d="M384.2047,-57.2668C482.4424,-56.8793 678.0266,-56.1079 774.9624,-55.7256"/>
<polygon fill="#191970" stroke="#191970" points="384.1355,-53.7669 374.1494,-57.3064 384.1632,-60.7668 384.1355,-53.7669"/>
</g>
<!-- Node19 -->
<g id="node19" class="node">
<title>Node19</title>
<g id="a_node19"><a xlink:href="classFlatManifold.html" target="_top" xlink:title="FlatManifold\&lt; chartdim,\l chartdim \&gt;">
<polygon fill="#ffffff" stroke="#000000" points="522.4678,-.5 522.4678,-28.5 642.6768,-28.5 642.6768,-.5 522.4678,-.5"/>
<text text-anchor="start" x="530.4678" y="-16.5" font-family="Helvetica,sans-Serif" font-size="10.00" fill="#000000">FlatManifold&lt; chartdim,</text>
<text text-anchor="middle" x="582.5723" y="-6.5" font-family="Helvetica,sans-Serif" font-size="10.00" fill="#000000"> chartdim &gt;</text>
</a>
</g>
</g>
<!-- Node0&#45;&gt;Node19 -->
<g id="edge22" class="edge">
<title>Node0&#45;&gt;Node19</title>
<path fill="none" stroke="#ffa500" stroke-dasharray="5,2" d="M368.8335,-40.0972C376.4801,-37.5548 384.4293,-35.2191 392.0557,-33.5 435.0204,-23.815 484.5469,-19.0656 522.333,-16.7372"/>
<polygon fill="#ffa500" stroke="#ffa500" points="367.6496,-36.8033 359.3569,-43.3973 369.9517,-43.4139 367.6496,-36.8033"/>
<text text-anchor="middle" x="443.186" y="-35.5" font-family="Helvetica,sans-Serif" font-size="10.00" fill="#000000"> &lt; chartdim, chartdim &gt;</text>
</g>
<!-- Node1 -->
<g id="node2" class="node">
<title>Node1</title>
<g id="a_node2"><a xlink:href="classManifold.html" target="_top" xlink:title="Manifold\&lt; dim, spacedim \&gt;">
<polygon fill="#ffffff" stroke="#000000" points="103.5762,-48.5 103.5762,-66.5 239.0781,-66.5 239.0781,-48.5 103.5762,-48.5"/>
<text text-anchor="middle" x="171.3271" y="-54.5" font-family="Helvetica,sans-Serif" font-size="10.00" fill="#000000">Manifold&lt; dim, spacedim &gt;</text>
</a>
</g>
</g>
<!-- Node1&#45;&gt;Node0 -->
<g id="edge1" class="edge">
<title>Node1&#45;&gt;Node0</title>
<path fill="none" stroke="#191970" d="M249.4129,-57.5C258.4675,-57.5 267.4997,-57.5 276.0066,-57.5"/>
<polygon fill="#191970" stroke="#191970" points="249.2072,-54.0001 239.2072,-57.5 249.2071,-61.0001 249.2072,-54.0001"/>
</g>
<!-- Node2 -->
<g id="node3" class="node">
<title>Node2</title>
<g id="a_node3"><a xlink:href="classSubscriptor.html" target="_top" xlink:title="Subscriptor">
<polygon fill="#ffffff" stroke="#000000" points="0,-48.5 0,-66.5 66.5762,-66.5 66.5762,-48.5 0,-48.5"/>
<text text-anchor="middle" x="33.2881" y="-54.5" font-family="Helvetica,sans-Serif" font-size="10.00" fill="#000000">Subscriptor</text>
</a>
</g>
</g>
<!-- Node2&#45;&gt;Node1 -->
<g id="edge2" class="edge">
<title>Node2&#45;&gt;Node1</title>
<path fill="none" stroke="#191970" d="M76.9826,-57.5C85.3786,-57.5 94.3551,-57.5 103.3091,-57.5"/>
<polygon fill="#191970" stroke="#191970" points="76.7035,-54.0001 66.7035,-57.5 76.7035,-61.0001 76.7035,-54.0001"/>
</g>
<!-- Node4 -->
<g id="node5" class="node">
<title>Node4</title>
<g id="a_node5"><a xlink:href="classOpenCASCADE_1_1DirectionalProjectionBoundary.html" target="_top" xlink:title="OpenCASCADE::Directional\lProjectionBoundary\&lt; dim,\l spacedim \&gt;">
<polygon fill="#ffffff" stroke="#000000" points="761.3525,-287.5 761.3525,-325.5 902.958,-325.5 902.958,-287.5 761.3525,-287.5"/>
<text text-anchor="start" x="769.3525" y="-313.5" font-family="Helvetica,sans-Serif" font-size="10.00" fill="#000000">OpenCASCADE::Directional</text>
<text text-anchor="start" x="769.3525" y="-303.5" font-family="Helvetica,sans-Serif" font-size="10.00" fill="#000000">ProjectionBoundary&lt; dim,</text>
<text text-anchor="middle" x="832.1553" y="-293.5" font-family="Helvetica,sans-Serif" font-size="10.00" fill="#000000"> spacedim &gt;</text>
</a>
</g>
</g>
<!-- Node3&#45;&gt;Node4 -->
<g id="edge4" class="edge">
<title>Node3&#45;&gt;Node4</title>
<path fill="none" stroke="#191970" d="M603.6916,-193.5818C634.1067,-214.7783 692.5438,-253.5725 746.626,-278.5 753.5789,-281.7047 761.0036,-284.7084 768.4648,-287.4707"/>
<polygon fill="#191970" stroke="#191970" points="605.3815,-190.4915 595.1879,-187.6034 601.3556,-196.218 605.3815,-190.4915"/>
</g>
<!-- Node5 -->
<g id="node6" class="node">
<title>Node5</title>
<g id="a_node6"><a xlink:href="classOpenCASCADE_1_1NormalProjectionBoundary.html" target="_top" xlink:title="OpenCASCADE::NormalProjection\lBoundary\&lt; dim, spacedim \&gt;">
<polygon fill="#ffffff" stroke="#000000" points="746.626,-240.5 746.626,-268.5 917.6846,-268.5 917.6846,-240.5 746.626,-240.5"/>
<text text-anchor="start" x="754.626" y="-256.5" font-family="Helvetica,sans-Serif" font-size="10.00" fill="#000000">OpenCASCADE::NormalProjection</text>
<text text-anchor="middle" x="832.1553" y="-246.5" font-family="Helvetica,sans-Serif" font-size="10.00" fill="#000000">Boundary&lt; dim, spacedim &gt;</text>
</a>
</g>
</g>
<!-- Node3&#45;&gt;Node5 -->
<g id="edge5" class="edge">
<title>Node3&#45;&gt;Node5</title>
<path fill="none" stroke="#191970" d="M619.795,-190.6886C652.975,-201.4602 702.9097,-217.4421 746.626,-230.5 757.7089,-233.8104 769.639,-237.2411 780.9685,-240.4374"/>
<polygon fill="#191970" stroke="#191970" points="620.6534,-187.2874 610.0611,-187.522 618.4878,-193.944 620.6534,-187.2874"/>
</g>
<!-- Node6 -->
<g id="node7" class="node">
<title>Node6</title>
<g id="a_node7"><a xlink:href="classOpenCASCADE_1_1NormalToMeshProjectionBoundary.html" target="_top" xlink:title="OpenCASCADE::NormalToMesh\lProjectionBoundary\&lt; dim,\l spacedim \&gt;">
<polygon fill="#ffffff" stroke="#000000" points="751.3525,-183.5 751.3525,-221.5 912.958,-221.5 912.958,-183.5 751.3525,-183.5"/>
<text text-anchor="start" x="759.3525" y="-209.5" font-family="Helvetica,sans-Serif" font-size="10.00" fill="#000000">OpenCASCADE::NormalToMesh</text>
<text text-anchor="start" x="759.3525" y="-199.5" font-family="Helvetica,sans-Serif" font-size="10.00" fill="#000000">ProjectionBoundary&lt; dim,</text>
<text text-anchor="middle" x="832.1553" y="-189.5" font-family="Helvetica,sans-Serif" font-size="10.00" fill="#000000"> spacedim &gt;</text>
</a>
</g>
</g>
<!-- Node3&#45;&gt;Node6 -->
<g id="edge6" class="edge">
<title>Node3&#45;&gt;Node6</title>
<path fill="none" stroke="#191970" d="M663.3002,-186.2628C691.4647,-188.9711 723.0647,-192.0098 751.244,-194.7195"/>
<polygon fill="#191970" stroke="#191970" points="663.3811,-182.7545 653.092,-185.2812 662.711,-189.7224 663.3811,-182.7545"/>
</g>
<!-- Node7 -->
<g id="node8" class="node">
<title>Node7</title>
<g id="a_node8"><a xlink:href="classStraightBoundary.html" target="_top" xlink:title="StraightBoundary\&lt; dim,\l spacedim \&gt;">
<polygon fill="#ffffff" stroke="#000000" points="771.7651,-83.5 771.7651,-111.5 892.5454,-111.5 892.5454,-83.5 771.7651,-83.5"/>
<text text-anchor="start" x="779.7651" y="-99.5" font-family="Helvetica,sans-Serif" font-size="10.00" fill="#000000">StraightBoundary&lt; dim,</text>
<text text-anchor="middle" x="832.1553" y="-89.5" font-family="Helvetica,sans-Serif" font-size="10.00" fill="#000000"> spacedim &gt;</text>
</a>
</g>
</g>
<!-- Node3&#45;&gt;Node7 -->
<g id="edge7" class="edge">
<title>Node3&#45;&gt;Node7</title>
<path fill="none" stroke="#191970" d="M611.6601,-165.1749C628.6916,-157.6591 650.7365,-148.4183 670.8281,-141.5 704.3165,-129.9688 742.5256,-119.4353 773.3503,-111.5675"/>
<polygon fill="#191970" stroke="#191970" points="609.9683,-162.0972 602.2642,-169.3702 612.8223,-168.489 609.9683,-162.0972"/>
</g>
<!-- Node14 -->
<g id="node14" class="node">
<title>Node14</title>
<g id="a_node14"><a xlink:href="classStraightBoundary.html" target="_top" xlink:title="StraightBoundary\&lt; dim,\l dim \&gt;">
<polygon fill="#ffffff" stroke="#000000" points="1014.4023,-135.5 1014.4023,-163.5 1135.1826,-163.5 1135.1826,-135.5 1014.4023,-135.5"/>
<text text-anchor="start" x="1022.4023" y="-151.5" font-family="Helvetica,sans-Serif" font-size="10.00" fill="#000000">StraightBoundary&lt; dim,</text>
<text text-anchor="middle" x="1074.7925" y="-141.5" font-family="Helvetica,sans-Serif" font-size="10.00" fill="#000000"> dim &gt;</text>
</a>
</g>
</g>
<!-- Node3&#45;&gt;Node14 -->
<g id="edge17" class="edge">
<title>Node3&#45;&gt;Node14</title>
<path fill="none" stroke="#191970" d="M663.036,-173.7593C761.5279,-167.9565 926.0759,-158.2619 1014.3928,-153.0586"/>
<polygon fill="#191970" stroke="#191970" points="662.6107,-170.2782 652.8339,-174.3604 663.0224,-177.2661 662.6107,-170.2782"/>
</g>
<!-- Node17 -->
<g id="node17" class="node">
<title>Node17</title>
<g id="a_node17"><a xlink:href="classTorusBoundary.html" target="_top" xlink:title="TorusBoundary\&lt; dim,\l spacedim \&gt;">
<polygon fill="#ffffff" stroke="#000000" points="776.77,-344.5 776.77,-372.5 887.5405,-372.5 887.5405,-344.5 776.77,-344.5"/>
<text text-anchor="start" x="784.77" y="-360.5" font-family="Helvetica,sans-Serif" font-size="10.00" fill="#000000">TorusBoundary&lt; dim,</text>
<text text-anchor="middle" x="832.1553" y="-350.5" font-family="Helvetica,sans-Serif" font-size="10.00" fill="#000000"> spacedim &gt;</text>
</a>
</g>
</g>
<!-- Node3&#45;&gt;Node17 -->
<g id="edge18" class="edge">
<title>Node3&#45;&gt;Node17</title>
<path fill="none" stroke="#191970" d="M595.3646,-195.8668C620.4796,-228.6303 679.6572,-299.4968 746.626,-335.5 755.8354,-340.4511 766.1869,-344.3947 776.4241,-347.5167"/>
<polygon fill="#191970" stroke="#191970" points="598.0204,-193.5754 589.206,-187.6968 592.4306,-197.789 598.0204,-193.5754"/>
</g>
<!-- Node3&#45;&gt;Node18 -->
<g id="edge19" class="edge">
<title>Node3&#45;&gt;Node18</title>
<path fill="none" stroke="#ffa500" stroke-dasharray="5,2" d="M600.5793,-162.8742C617.8821,-148.2925 645.1207,-126.4494 670.8281,-110.5 702.6827,-90.7368 711.1708,-85.6748 746.626,-73.5 756.9591,-69.9517 768.2453,-66.9756 779.1312,-64.5303"/>
<polygon fill="#ffa500" stroke="#ffa500" points="598.2734,-160.2407 592.9335,-169.3915 602.8144,-165.5679 598.2734,-160.2407"/>
<text text-anchor="middle" x="699.7271" y="-112.5" font-family="Helvetica,sans-Serif" font-size="10.00" fill="#000000"> &lt; dim, dim &gt;</text>
</g>
<!-- Node8 -->
<g id="node9" class="node">
<title>Node8</title>
<g id="a_node9"><a xlink:href="classCylinderBoundary.html" target="_top" xlink:title="CylinderBoundary\&lt; dim,\l spacedim \&gt;">
<polygon fill="#ffffff" stroke="#000000" points="1013.2939,-88.5 1013.2939,-116.5 1136.291,-116.5 1136.291,-88.5 1013.2939,-88.5"/>
<text text-anchor="start" x="1021.2939" y="-104.5" font-family="Helvetica,sans-Serif" font-size="10.00" fill="#000000">CylinderBoundary&lt; dim,</text>
<text text-anchor="middle" x="1074.7925" y="-94.5" font-family="Helvetica,sans-Serif" font-size="10.00" fill="#000000"> spacedim &gt;</text>
</a>
</g>
</g>
<!-- Node7&#45;&gt;Node8 -->
<g id="edge8" class="edge">
<title>Node7&#45;&gt;Node8</title>
<path fill="none" stroke="#191970" d="M902.8977,-98.9578C937.8636,-99.6783 979.6569,-100.5396 1013.2782,-101.2324"/>
<polygon fill="#191970" stroke="#191970" points="902.827,-95.4557 892.757,-98.7488 902.6827,-102.4542 902.827,-95.4557"/>
</g>
<!-- Node9 -->
<g id="node10" class="node">
<title>Node9</title>
<g id="a_node10"><a xlink:href="classHyperBallBoundary.html" target="_top" xlink:title="HyperBallBoundary\&lt;\l dim, spacedim \&gt;">
<polygon fill="#ffffff" stroke="#000000" points="1020.7939,-41.5 1020.7939,-69.5 1128.791,-69.5 1128.791,-41.5 1020.7939,-41.5"/>
<text text-anchor="start" x="1028.7939" y="-57.5" font-family="Helvetica,sans-Serif" font-size="10.00" fill="#000000">HyperBallBoundary&lt;</text>
<text text-anchor="middle" x="1074.7925" y="-47.5" font-family="Helvetica,sans-Serif" font-size="10.00" fill="#000000"> dim, spacedim &gt;</text>
</a>
</g>
</g>
<!-- Node7&#45;&gt;Node9 -->
<g id="edge9" class="edge">
<title>Node7&#45;&gt;Node9</title>
<path fill="none" stroke="#191970" d="M902.6469,-85.298C940.3005,-78.7803 985.928,-70.8823 1020.7456,-64.8554"/>
<polygon fill="#191970" stroke="#191970" points="902.0135,-81.8556 892.757,-87.01 903.2075,-88.753 902.0135,-81.8556"/>
</g>
<!-- Node7&#45;&gt;Node14 -->
<g id="edge13" class="edge">
<title>Node7&#45;&gt;Node14</title>
<path fill="none" stroke="#ffa500" stroke-dasharray="5,2" d="M902.5632,-111.4604C930.8564,-117.1855 963.7555,-123.9878 993.4824,-130.5 1000.5628,-132.0511 1007.9792,-133.7211 1015.3301,-135.4044"/>
<polygon fill="#ffa500" stroke="#ffa500" points="903.255,-108.0295 892.7603,-109.4825 901.8705,-114.8913 903.255,-108.0295"/>
<text text-anchor="middle" x="964.5835" y="-132.5" font-family="Helvetica,sans-Serif" font-size="10.00" fill="#000000"> &lt; dim, dim &gt;</text>
</g>
<!-- Node15 -->
<g id="node15" class="node">
<title>Node15</title>
<g id="a_node15"><a xlink:href="classStraightBoundary.html" target="_top" xlink:title="StraightBoundary\&lt; dim \&gt;">
<polygon fill="#ffffff" stroke="#000000" points="1011.4824,-4.5 1011.4824,-22.5 1138.1025,-22.5 1138.1025,-4.5 1011.4824,-4.5"/>
<text text-anchor="middle" x="1074.7925" y="-10.5" font-family="Helvetica,sans-Serif" font-size="10.00" fill="#000000">StraightBoundary&lt; dim &gt;</text>
</a>
</g>
</g>
<!-- Node7&#45;&gt;Node15 -->
<g id="edge15" class="edge">
<title>Node7&#45;&gt;Node15</title>
<path fill="none" stroke="#ffa500" stroke-dasharray="5,2" d="M902.5477,-80.7831C907.7969,-78.6255 912.9035,-76.2071 917.6846,-73.5 927.2601,-68.0782 926.2335,-62.1359 935.6846,-56.5 966.1517,-38.3317 977.5708,-41.9083 1011.4824,-31.5 1021.314,-28.4824 1032.0576,-25.3619 1041.8569,-22.5837"/>
<polygon fill="#ffa500" stroke="#ffa500" points="901.1055,-77.5864 892.985,-84.3913 903.5768,-84.1356 901.1055,-77.5864"/>
<text text-anchor="middle" x="964.5835" y="-58.5" font-family="Helvetica,sans-Serif" font-size="10.00" fill="#000000"> &lt; dim &gt;</text>
</g>
<!-- Node10 -->
<g id="node11" class="node">
<title>Node10</title>
<g id="a_node11"><a xlink:href="classHyperBallBoundary.html" target="_top" xlink:title="HyperBallBoundary\&lt;\l dim \&gt;">
<polygon fill="#ffffff" stroke="#000000" points="1214.2637,-53.5 1214.2637,-81.5 1322.2607,-81.5 1322.2607,-53.5 1214.2637,-53.5"/>
<text text-anchor="start" x="1222.2637" y="-69.5" font-family="Helvetica,sans-Serif" font-size="10.00" fill="#000000">HyperBallBoundary&lt;</text>
<text text-anchor="middle" x="1268.2622" y="-59.5" font-family="Helvetica,sans-Serif" font-size="10.00" fill="#000000"> dim &gt;</text>
</a>
</g>
</g>
<!-- Node9&#45;&gt;Node10 -->
<g id="edge10" class="edge">
<title>Node9&#45;&gt;Node10</title>
<path fill="none" stroke="#ffa500" stroke-dasharray="5,2" d="M1139.1496,-59.4918C1163.4571,-60.9994 1190.8477,-62.6984 1214.1259,-64.1422"/>
<polygon fill="#ffa500" stroke="#ffa500" points="1139.1394,-55.9845 1128.9418,-58.8586 1138.706,-62.9711 1139.1394,-55.9845"/>
<text text-anchor="middle" x="1174.1665" y="-65.5" font-family="Helvetica,sans-Serif" font-size="10.00" fill="#000000"> &lt; dim &gt;</text>
</g>
<!-- Node11 -->
<g id="node12" class="node">
<title>Node11</title>
<g id="a_node12"><a xlink:href="classHalfHyperBallBoundary.html" target="_top" xlink:title="HalfHyperBallBoundary\l\&lt; dim \&gt;">
<polygon fill="#ffffff" stroke="#000000" points="1363.2939,-76.5 1363.2939,-104.5 1483.2344,-104.5 1483.2344,-76.5 1363.2939,-76.5"/>
<text text-anchor="start" x="1371.2939" y="-92.5" font-family="Helvetica,sans-Serif" font-size="10.00" fill="#000000">HalfHyperBallBoundary</text>
<text text-anchor="middle" x="1423.2642" y="-82.5" font-family="Helvetica,sans-Serif" font-size="10.00" fill="#000000">&lt; dim &gt;</text>
</a>
</g>
</g>
<!-- Node10&#45;&gt;Node11 -->
<g id="edge11" class="edge">
<title>Node10&#45;&gt;Node11</title>
<path fill="none" stroke="#191970" d="M1332.52,-77.0349C1342.6973,-78.5451 1353.1886,-80.1018 1363.2636,-81.5968"/>
<polygon fill="#191970" stroke="#191970" points="1332.8798,-73.5501 1322.4744,-75.5443 1331.8523,-80.4742 1332.8798,-73.5501"/>
</g>
<!-- Node12 -->
<g id="node13" class="node">
<title>Node12</title>
<g id="a_node13"><a xlink:href="classHyperShellBoundary.html" target="_top" xlink:title="HyperShellBoundary\l\&lt; dim \&gt;">
<polygon fill="#ffffff" stroke="#ff0000" points="1369.4048,-29.5 1369.4048,-57.5 1477.1235,-57.5 1477.1235,-29.5 1369.4048,-29.5"/>
<text text-anchor="start" x="1377.4048" y="-45.5" font-family="Helvetica,sans-Serif" font-size="10.00" fill="#000000">HyperShellBoundary</text>
<text text-anchor="middle" x="1423.2642" y="-35.5" font-family="Helvetica,sans-Serif" font-size="10.00" fill="#000000">&lt; dim &gt;</text>
</a>
</g>
</g>
<!-- Node10&#45;&gt;Node12 -->
<g id="edge12" class="edge">
<title>Node10&#45;&gt;Node12</title>
<path fill="none" stroke="#191970" d="M1332.6042,-57.5375C1344.8224,-55.6457 1357.4902,-53.6842 1369.3444,-51.8488"/>
<polygon fill="#191970" stroke="#191970" points="1331.821,-54.117 1322.4744,-59.106 1332.8922,-61.0345 1331.821,-54.117"/>
</g>
<!-- Node14&#45;&gt;Node10 -->
<g id="edge14" class="edge">
<title>Node14&#45;&gt;Node10</title>
<path fill="none" stroke="#191970" d="M1122.5266,-131.7374C1127.7991,-129.6767 1133.0759,-127.5708 1138.1025,-125.5 1172.6426,-111.271 1211.7208,-93.6487 1237.9665,-81.5866"/>
<polygon fill="#191970" stroke="#191970" points="1121.1626,-128.5121 1113.0957,-135.3806 1123.6852,-135.0419 1121.1626,-128.5121"/>
</g>
<!-- Node16 -->
<g id="node16" class="node">
<title>Node16</title>
<g id="a_node16"><a xlink:href="classConeBoundary.html" target="_top" xlink:title="ConeBoundary\&lt; dim \&gt;">
<polygon fill="#ffffff" stroke="#000000" points="1210.2305,-4.5 1210.2305,-22.5 1326.2939,-22.5 1326.2939,-4.5 1210.2305,-4.5"/>
<text text-anchor="middle" x="1268.2622" y="-10.5" font-family="Helvetica,sans-Serif" font-size="10.00" fill="#000000">ConeBoundary&lt; dim &gt;</text>
</a>
</g>
</g>
<!-- Node15&#45;&gt;Node16 -->
<g id="edge16" class="edge">
<title>Node15&#45;&gt;Node16</title>
<path fill="none" stroke="#191970" d="M1148.3394,-13.5C1168.7435,-13.5 1190.6103,-13.5 1210.01,-13.5"/>
<polygon fill="#191970" stroke="#191970" points="1148.1417,-10.0001 1138.1417,-13.5 1148.1417,-17.0001 1148.1417,-10.0001"/>
</g>
<!-- Node18&#45;&gt;Node15 -->
<g id="edge20" class="edge">
<title>Node18&#45;&gt;Node15</title>
<path fill="none" stroke="#191970" d="M870.542,-43.5067C889.9035,-37.871 913.854,-31.5226 935.6846,-27.5 960.2715,-22.9695 987.5925,-19.8183 1011.4673,-17.6699"/>
<polygon fill="#191970" stroke="#191970" points="869.4644,-40.1755 860.871,-46.3727 871.4534,-46.887 869.4644,-40.1755"/>
</g>
</g>
</svg>
