<?xml version="1.0" encoding="UTF-8" standalone="no"?>
<!DOCTYPE svg PUBLIC "-//W3C//DTD SVG 1.1//EN"
 "http://www.w3.org/Graphics/SVG/1.1/DTD/svg11.dtd">
<!-- Generated by graphviz version 2.40.1 (20161225.0304)
 -->
<!-- Title: ChunkSparsityPatternIterators::Accessor Pages: 1 -->
<svg width="360pt" height="131pt"
 viewBox="0.00 0.00 360.03 131.00" xmlns="http://www.w3.org/2000/svg" xmlns:xlink="http://www.w3.org/1999/xlink">
<g id="graph0" class="graph" transform="scale(1 1) rotate(0) translate(4 127)">
<title>ChunkSparsityPatternIterators::Accessor</title>
<polygon fill="#ffffff" stroke="transparent" points="-4,4 -4,-127 356.0283,-127 356.0283,4 -4,4"/>
<!-- Node0 -->
<g id="node1" class="node">
<title>Node0</title>
<polygon fill="#bfbfbf" stroke="#000000" points="0,-47.5 0,-75.5 149.9502,-75.5 149.9502,-47.5 0,-47.5"/>
<text text-anchor="start" x="8" y="-63.5" font-family="Helvetica,sans-Serif" font-size="10.00" fill="#000000">ChunkSparsityPatternIterators</text>
<text text-anchor="middle" x="74.9751" y="-53.5" font-family="Helvetica,sans-Serif" font-size="10.00" fill="#000000">::Accessor</text>
</g>
<!-- Node1 -->
<g id="node2" class="node">
<title>Node1</title>
<g id="a_node2"><a xlink:href="classChunkSparseMatrixIterators_1_1Accessor.html" target="_top" xlink:title="ChunkSparseMatrixIterators\l::Accessor\&lt; number, Constness \&gt;">
<polygon fill="#ffffff" stroke="#000000" points="185.9502,-94.5 185.9502,-122.5 352.0283,-122.5 352.0283,-94.5 185.9502,-94.5"/>
<text text-anchor="start" x="193.9502" y="-110.5" font-family="Helvetica,sans-Serif" font-size="10.00" fill="#000000">ChunkSparseMatrixIterators</text>
<text text-anchor="middle" x="268.9893" y="-100.5" font-family="Helvetica,sans-Serif" font-size="10.00" fill="#000000">::Accessor&lt; number, Constness &gt;</text>
</a>
</g>
</g>
<!-- Node0&#45;&gt;Node1 -->
<g id="edge1" class="edge">
<title>Node0&#45;&gt;Node1</title>
<path fill="none" stroke="#191970" d="M142.6503,-77.8944C164.938,-83.2935 189.5058,-89.2451 211.005,-94.4533"/>
<polygon fill="#191970" stroke="#191970" points="143.4659,-74.4908 132.9229,-75.5379 141.8178,-81.294 143.4659,-74.4908"/>
</g>
<!-- Node2 -->
<g id="node3" class="node">
<title>Node2</title>
<g id="a_node3"><a xlink:href="classChunkSparseMatrixIterators_1_1Accessor_3_01number_00_01false_01_4.html" target="_top" xlink:title="ChunkSparseMatrixIterators\l::Accessor\&lt; number, false \&gt;">
<polygon fill="#ffffff" stroke="#000000" points="198.7432,-47.5 198.7432,-75.5 339.2354,-75.5 339.2354,-47.5 198.7432,-47.5"/>
<text text-anchor="start" x="206.7432" y="-63.5" font-family="Helvetica,sans-Serif" font-size="10.00" fill="#000000">ChunkSparseMatrixIterators</text>
<text text-anchor="middle" x="268.9893" y="-53.5" font-family="Helvetica,sans-Serif" font-size="10.00" fill="#000000">::Accessor&lt; number, false &gt;</text>
</a>
</g>
</g>
<!-- Node0&#45;&gt;Node2 -->
<g id="edge2" class="edge">
<title>Node0&#45;&gt;Node2</title>
<path fill="none" stroke="#191970" d="M160.2026,-61.5C173.0384,-61.5 186.1533,-61.5 198.6306,-61.5"/>
<polygon fill="#191970" stroke="#191970" points="159.9861,-58.0001 149.986,-61.5 159.986,-65.0001 159.9861,-58.0001"/>
</g>
<!-- Node3 -->
<g id="node4" class="node">
<title>Node3</title>
<g id="a_node4"><a xlink:href="classChunkSparseMatrixIterators_1_1Accessor_3_01number_00_01true_01_4.html" target="_top" xlink:title="ChunkSparseMatrixIterators\l::Accessor\&lt; number, true \&gt;">
<polygon fill="#ffffff" stroke="#000000" points="198.7432,-.5 198.7432,-28.5 339.2354,-28.5 339.2354,-.5 198.7432,-.5"/>
<text text-anchor="start" x="206.7432" y="-16.5" font-family="Helvetica,sans-Serif" font-size="10.00" fill="#000000">ChunkSparseMatrixIterators</text>
<text text-anchor="middle" x="268.9893" y="-6.5" font-family="Helvetica,sans-Serif" font-size="10.00" fill="#000000">::Accessor&lt; number, true &gt;</text>
</a>
</g>
</g>
<!-- Node0&#45;&gt;Node3 -->
<g id="edge3" class="edge">
<title>Node0&#45;&gt;Node3</title>
<path fill="none" stroke="#191970" d="M142.6503,-45.1056C164.938,-39.7065 189.5058,-33.7549 211.005,-28.5467"/>
<polygon fill="#191970" stroke="#191970" points="141.8178,-41.706 132.9229,-47.4621 143.4659,-48.5092 141.8178,-41.706"/>
</g>
</g>
</svg>
