<?xml version="1.0" encoding="UTF-8" standalone="no"?>
<!DOCTYPE svg PUBLIC "-//W3C//DTD SVG 1.1//EN"
 "http://www.w3.org/Graphics/SVG/1.1/DTD/svg11.dtd">
<!-- Generated by graphviz version 2.40.1 (20161225.0304)
 -->
<!-- Title: MGLevelGlobalTransfer&lt; LinearAlgebra::distributed::Vector&lt; Number &gt; &gt; Pages: 1 -->
<svg width="274pt" height="310pt"
 viewBox="0.00 0.00 273.87 310.00" xmlns="http://www.w3.org/2000/svg" xmlns:xlink="http://www.w3.org/1999/xlink">
<g id="graph0" class="graph" transform="scale(1 1) rotate(0) translate(4 306)">
<title>MGLevelGlobalTransfer&lt; LinearAlgebra::distributed::Vector&lt; Number &gt; &gt;</title>
<polygon fill="#ffffff" stroke="transparent" points="-4,4 -4,-306 269.8696,-306 269.8696,4 -4,4"/>
<!-- Node0 -->
<g id="node1" class="node">
<title>Node0</title>
<polygon fill="#bfbfbf" stroke="#000000" points="12.2241,-66.5 12.2241,-104.5 150.8022,-104.5 150.8022,-66.5 12.2241,-66.5"/>
<text text-anchor="start" x="20.2241" y="-92.5" font-family="Helvetica,sans-Serif" font-size="10.00" fill="#000000">MGLevelGlobalTransfer</text>
<text text-anchor="start" x="20.2241" y="-82.5" font-family="Helvetica,sans-Serif" font-size="10.00" fill="#000000">&lt; LinearAlgebra::distributed</text>
<text text-anchor="middle" x="81.5132" y="-72.5" font-family="Helvetica,sans-Serif" font-size="10.00" fill="#000000">::Vector&lt; Number &gt; &gt;</text>
</g>
<!-- Node4 -->
<g id="node5" class="node">
<title>Node4</title>
<g id="a_node5"><a xlink:href="classMGTransferMatrixFree.html" target="_top" xlink:title="MGTransferMatrixFree\l\&lt; dim, Number \&gt;">
<polygon fill="#ffffff" stroke="#000000" points="23.1348,-.5 23.1348,-28.5 139.8916,-28.5 139.8916,-.5 23.1348,-.5"/>
<text text-anchor="start" x="31.1348" y="-16.5" font-family="Helvetica,sans-Serif" font-size="10.00" fill="#000000">MGTransferMatrixFree</text>
<text text-anchor="middle" x="81.5132" y="-6.5" font-family="Helvetica,sans-Serif" font-size="10.00" fill="#000000">&lt; dim, Number &gt;</text>
</a>
</g>
</g>
<!-- Node0&#45;&gt;Node4 -->
<g id="edge5" class="edge">
<title>Node0&#45;&gt;Node4</title>
<path fill="none" stroke="#191970" d="M81.5132,-56.2143C81.5132,-46.768 81.5132,-36.7158 81.5132,-28.8465"/>
<polygon fill="#191970" stroke="#191970" points="78.0133,-56.4733 81.5132,-66.4733 85.0133,-56.4733 78.0133,-56.4733"/>
</g>
<!-- Node1 -->
<g id="node2" class="node">
<title>Node1</title>
<g id="a_node2"><a xlink:href="classMGTransferBase.html" target="_top" xlink:title="MGTransferBase\&lt; LinearAlgebra\l::distributed::Vector\&lt; Number \&gt; \&gt;">
<polygon fill="#ffffff" stroke="#000000" points="0,-142.5 0,-170.5 163.0264,-170.5 163.0264,-142.5 0,-142.5"/>
<text text-anchor="start" x="8" y="-158.5" font-family="Helvetica,sans-Serif" font-size="10.00" fill="#000000">MGTransferBase&lt; LinearAlgebra</text>
<text text-anchor="middle" x="81.5132" y="-148.5" font-family="Helvetica,sans-Serif" font-size="10.00" fill="#000000">::distributed::Vector&lt; Number &gt; &gt;</text>
</a>
</g>
</g>
<!-- Node1&#45;&gt;Node0 -->
<g id="edge1" class="edge">
<title>Node1&#45;&gt;Node0</title>
<path fill="none" stroke="#191970" d="M81.5132,-132.1894C81.5132,-123.1757 81.5132,-113.0901 81.5132,-104.6055"/>
<polygon fill="#191970" stroke="#191970" points="78.0133,-132.4727 81.5132,-142.4727 85.0133,-132.4727 78.0133,-132.4727"/>
</g>
<!-- Node2 -->
<g id="node3" class="node">
<title>Node2</title>
<g id="a_node3"><a xlink:href="classSubscriptor.html" target="_top" xlink:title="Subscriptor">
<polygon fill="#ffffff" stroke="#000000" points="44.2251,-283.5 44.2251,-301.5 110.8013,-301.5 110.8013,-283.5 44.2251,-283.5"/>
<text text-anchor="middle" x="77.5132" y="-289.5" font-family="Helvetica,sans-Serif" font-size="10.00" fill="#000000">Subscriptor</text>
</a>
</g>
</g>
<!-- Node2&#45;&gt;Node1 -->
<g id="edge2" class="edge">
<title>Node2&#45;&gt;Node1</title>
<path fill="none" stroke="#191970" d="M78.0834,-273.1119C78.8983,-245.4066 80.3767,-195.1399 81.0967,-170.6595"/>
<polygon fill="#191970" stroke="#191970" points="74.5837,-273.0536 77.7881,-283.1522 81.5807,-273.2594 74.5837,-273.0536"/>
</g>
<!-- Node3 -->
<g id="node4" class="node">
<title>Node3</title>
<g id="a_node4"><a xlink:href="classMGTransferBase.html" target="_top" xlink:title="MGTransferBase\&lt; VectorType \&gt;">
<polygon fill="#ffffff" stroke="#000000" points="93.9922,-227.5 93.9922,-245.5 253.0342,-245.5 253.0342,-227.5 93.9922,-227.5"/>
<text text-anchor="middle" x="173.5132" y="-233.5" font-family="Helvetica,sans-Serif" font-size="10.00" fill="#000000">MGTransferBase&lt; VectorType &gt;</text>
</a>
</g>
</g>
<!-- Node2&#45;&gt;Node3 -->
<g id="edge4" class="edge">
<title>Node2&#45;&gt;Node3</title>
<path fill="none" stroke="#191970" d="M102.4766,-277.938C120.0261,-267.7008 142.9611,-254.3221 157.9557,-245.5752"/>
<polygon fill="#191970" stroke="#191970" points="100.2399,-275.1908 93.3656,-283.2527 103.767,-281.2372 100.2399,-275.1908"/>
</g>
<!-- Node3&#45;&gt;Node1 -->
<g id="edge3" class="edge">
<title>Node3&#45;&gt;Node1</title>
<path fill="none" stroke="#ffa500" stroke-dasharray="5,2" d="M154.9867,-220.39C138.2412,-205.8287 113.8296,-184.6013 97.8119,-170.6728"/>
<polygon fill="#ffa500" stroke="#ffa500" points="153.1169,-223.4023 162.9596,-227.323 157.7102,-218.12 153.1169,-223.4023"/>
<text text-anchor="start" x="140.5132" y="-201" font-family="Helvetica,sans-Serif" font-size="10.00" fill="#000000"> &lt; LinearAlgebra::distributed</text>
<text text-anchor="middle" x="203.1914" y="-191" font-family="Helvetica,sans-Serif" font-size="10.00" fill="#000000">::Vector&lt; Number &gt; &gt;</text>
</g>
</g>
</svg>
