<?xml version="1.0" encoding="UTF-8" standalone="no"?>
<!DOCTYPE svg PUBLIC "-//W3C//DTD SVG 1.1//EN"
 "http://www.w3.org/Graphics/SVG/1.1/DTD/svg11.dtd">
<!-- Generated by graphviz version 2.40.1 (20161225.0304)
 -->
<!-- Title: TrilinosWrappers::VectorBase Pages: 1 -->
<svg width="266pt" height="147pt"
 viewBox="0.00 0.00 265.65 147.00" xmlns="http://www.w3.org/2000/svg" xmlns:xlink="http://www.w3.org/1999/xlink">
<g id="graph0" class="graph" transform="scale(1 1) rotate(0) translate(4 143)">
<title>TrilinosWrappers::VectorBase</title>
<polygon fill="#ffffff" stroke="transparent" points="-4,4 -4,-143 261.6523,-143 261.6523,4 -4,4"/>
<!-- Node0 -->
<g id="node1" class="node">
<title>Node0</title>
<polygon fill="#bfbfbf" stroke="#000000" points="52.3154,-65.5 52.3154,-83.5 200.0488,-83.5 200.0488,-65.5 52.3154,-65.5"/>
<text text-anchor="middle" x="126.1821" y="-71.5" font-family="Helvetica,sans-Serif" font-size="10.00" fill="#000000">TrilinosWrappers::VectorBase</text>
</g>
<!-- Node2 -->
<g id="node3" class="node">
<title>Node2</title>
<g id="a_node3"><a xlink:href="classTrilinosWrappers_1_1MPI_1_1Vector.html" target="_top" xlink:title="TrilinosWrappers::MPI\l::Vector">
<polygon fill="#ffffff" stroke="#000000" points="0,-.5 0,-28.5 114.3643,-28.5 114.3643,-.5 0,-.5"/>
<text text-anchor="start" x="8" y="-16.5" font-family="Helvetica,sans-Serif" font-size="10.00" fill="#000000">TrilinosWrappers::MPI</text>
<text text-anchor="middle" x="57.1821" y="-6.5" font-family="Helvetica,sans-Serif" font-size="10.00" fill="#000000">::Vector</text>
</a>
</g>
</g>
<!-- Node0&#45;&gt;Node2 -->
<g id="edge2" class="edge">
<title>Node0&#45;&gt;Node2</title>
<path fill="none" stroke="#191970" d="M108.119,-58.7929C97.3657,-49.4422 83.8321,-37.6739 73.4182,-28.6183"/>
<polygon fill="#191970" stroke="#191970" points="105.8598,-61.4666 115.7025,-65.3873 110.4531,-56.1843 105.8598,-61.4666"/>
</g>
<!-- Node3 -->
<g id="node4" class="node">
<title>Node3</title>
<g id="a_node4"><a xlink:href="classTrilinosWrappers_1_1Vector.html" target="_top" xlink:title="TrilinosWrappers::Vector">
<polygon fill="#ffffff" stroke="#000000" points="132.7119,-5.5 132.7119,-23.5 257.6523,-23.5 257.6523,-5.5 132.7119,-5.5"/>
<text text-anchor="middle" x="195.1821" y="-11.5" font-family="Helvetica,sans-Serif" font-size="10.00" fill="#000000">TrilinosWrappers::Vector</text>
</a>
</g>
</g>
<!-- Node0&#45;&gt;Node3 -->
<g id="edge3" class="edge">
<title>Node0&#45;&gt;Node3</title>
<path fill="none" stroke="#191970" d="M144.4195,-58.6414C157.2333,-47.4989 173.9281,-32.9817 184.6039,-23.6985"/>
<polygon fill="#191970" stroke="#191970" points="141.9112,-56.1843 136.6617,-65.3873 146.5045,-61.4666 141.9112,-56.1843"/>
</g>
<!-- Node1 -->
<g id="node2" class="node">
<title>Node1</title>
<g id="a_node2"><a xlink:href="classSubscriptor.html" target="_top" xlink:title="Subscriptor">
<polygon fill="#ffffff" stroke="#000000" points="92.894,-120.5 92.894,-138.5 159.4702,-138.5 159.4702,-120.5 92.894,-120.5"/>
<text text-anchor="middle" x="126.1821" y="-126.5" font-family="Helvetica,sans-Serif" font-size="10.00" fill="#000000">Subscriptor</text>
</a>
</g>
</g>
<!-- Node1&#45;&gt;Node0 -->
<g id="edge1" class="edge">
<title>Node1&#45;&gt;Node0</title>
<path fill="none" stroke="#191970" d="M126.1821,-110.383C126.1821,-101.3738 126.1821,-91.0373 126.1821,-83.7795"/>
<polygon fill="#191970" stroke="#191970" points="122.6822,-110.4178 126.1821,-120.4179 129.6822,-110.4179 122.6822,-110.4178"/>
</g>
</g>
</svg>
