<?xml version="1.0" encoding="UTF-8" standalone="no"?>
<!DOCTYPE svg PUBLIC "-//W3C//DTD SVG 1.1//EN"
 "http://www.w3.org/Graphics/SVG/1.1/DTD/svg11.dtd">
<!-- Generated by graphviz version 2.40.1 (20161225.0304)
 -->
<!-- Title: DataOutReader&lt; dim, spacedim &gt; Pages: 1 -->
<svg width="128pt" height="102pt"
 viewBox="0.00 0.00 127.66 102.00" xmlns="http://www.w3.org/2000/svg" xmlns:xlink="http://www.w3.org/1999/xlink">
<g id="graph0" class="graph" transform="scale(1 1) rotate(0) translate(4 98)">
<title>DataOutReader&lt; dim, spacedim &gt;</title>
<polygon fill="#ffffff" stroke="transparent" points="-4,4 -4,-98 123.6621,-98 123.6621,4 -4,4"/>
<!-- Node0 -->
<g id="node1" class="node">
<title>Node0</title>
<polygon fill="#bfbfbf" stroke="#000000" points="3.0566,-.5 3.0566,-28.5 116.6055,-28.5 116.6055,-.5 3.0566,-.5"/>
<text text-anchor="start" x="11.0566" y="-16.5" font-family="Helvetica,sans-Serif" font-size="10.00" fill="#000000">DataOutReader&lt; dim,</text>
<text text-anchor="middle" x="59.8311" y="-6.5" font-family="Helvetica,sans-Serif" font-size="10.00" fill="#000000"> spacedim &gt;</text>
</g>
<!-- Node1 -->
<g id="node2" class="node">
<title>Node1</title>
<g id="a_node2"><a xlink:href="classDataOutInterface.html" target="_top" xlink:title="DataOutInterface\&lt; dim,\l spacedim \&gt;">
<polygon fill="#ffffff" stroke="#000000" points="0,-65.5 0,-93.5 119.6621,-93.5 119.6621,-65.5 0,-65.5"/>
<text text-anchor="start" x="8" y="-81.5" font-family="Helvetica,sans-Serif" font-size="10.00" fill="#000000">DataOutInterface&lt; dim,</text>
<text text-anchor="middle" x="59.8311" y="-71.5" font-family="Helvetica,sans-Serif" font-size="10.00" fill="#000000"> spacedim &gt;</text>
</a>
</g>
</g>
<!-- Node1&#45;&gt;Node0 -->
<g id="edge1" class="edge">
<title>Node1&#45;&gt;Node0</title>
<path fill="none" stroke="#191970" d="M59.8311,-55.1081C59.8311,-46.1539 59.8311,-36.3227 59.8311,-28.5765"/>
<polygon fill="#191970" stroke="#191970" points="56.3312,-55.3959 59.8311,-65.396 63.3312,-55.396 56.3312,-55.3959"/>
</g>
</g>
</svg>
