<?xml version="1.0" encoding="UTF-8" standalone="no"?>
<!DOCTYPE svg PUBLIC "-//W3C//DTD SVG 1.1//EN"
 "http://www.w3.org/Graphics/SVG/1.1/DTD/svg11.dtd">
<!-- Generated by graphviz version 2.40.1 (20161225.0304)
 -->
<!-- Title: FEEvaluation&lt; dim, fe_degree, n_q_points_1d, n_components_, Number &gt; Pages: 1 -->
<svg width="167pt" height="187pt"
 viewBox="0.00 0.00 167.14 187.00" xmlns="http://www.w3.org/2000/svg" xmlns:xlink="http://www.w3.org/1999/xlink">
<g id="graph0" class="graph" transform="scale(1 1) rotate(0) translate(4 183)">
<title>FEEvaluation&lt; dim, fe_degree, n_q_points_1d, n_components_, Number &gt;</title>
<polygon fill="#ffffff" stroke="transparent" points="-4,4 -4,-183 163.1445,-183 163.1445,4 -4,4"/>
<!-- Node0 -->
<g id="node1" class="node">
<title>Node0</title>
<polygon fill="#bfbfbf" stroke="#000000" points="0,-.5 0,-38.5 159.1445,-38.5 159.1445,-.5 0,-.5"/>
<text text-anchor="start" x="8" y="-26.5" font-family="Helvetica,sans-Serif" font-size="10.00" fill="#000000">FEEvaluation&lt; dim,</text>
<text text-anchor="start" x="8" y="-16.5" font-family="Helvetica,sans-Serif" font-size="10.00" fill="#000000"> fe_degree, n_q_points</text>
<text text-anchor="middle" x="79.5723" y="-6.5" font-family="Helvetica,sans-Serif" font-size="10.00" fill="#000000">_1d, n_components_, Number &gt;</text>
</g>
<!-- Node1 -->
<g id="node2" class="node">
<title>Node1</title>
<g id="a_node2"><a xlink:href="classFEEvaluationAccess.html" target="_top" xlink:title="FEEvaluationAccess\l\&lt; dim, n_components\l_, Number \&gt;">
<polygon fill="#ffffff" stroke="#000000" points="23.6279,-75.5 23.6279,-113.5 135.5166,-113.5 135.5166,-75.5 23.6279,-75.5"/>
<text text-anchor="start" x="31.6279" y="-101.5" font-family="Helvetica,sans-Serif" font-size="10.00" fill="#000000">FEEvaluationAccess</text>
<text text-anchor="start" x="31.6279" y="-91.5" font-family="Helvetica,sans-Serif" font-size="10.00" fill="#000000">&lt; dim, n_components</text>
<text text-anchor="middle" x="79.5723" y="-81.5" font-family="Helvetica,sans-Serif" font-size="10.00" fill="#000000">_, Number &gt;</text>
</a>
</g>
</g>
<!-- Node1&#45;&gt;Node0 -->
<g id="edge1" class="edge">
<title>Node1&#45;&gt;Node0</title>
<path fill="none" stroke="#191970" d="M79.5723,-64.8977C79.5723,-56.1033 79.5723,-46.7019 79.5723,-38.7489"/>
<polygon fill="#191970" stroke="#191970" points="76.0724,-65.1856 79.5723,-75.1856 83.0724,-65.1857 76.0724,-65.1856"/>
</g>
<!-- Node2 -->
<g id="node3" class="node">
<title>Node2</title>
<g id="a_node3"><a xlink:href="classFEEvaluationBase.html" target="_top" xlink:title="FEEvaluationBase\&lt; dim,\l n_components_, Number \&gt;">
<polygon fill="#ffffff" stroke="#000000" points="9.7314,-150.5 9.7314,-178.5 149.4131,-178.5 149.4131,-150.5 9.7314,-150.5"/>
<text text-anchor="start" x="17.7314" y="-166.5" font-family="Helvetica,sans-Serif" font-size="10.00" fill="#000000">FEEvaluationBase&lt; dim,</text>
<text text-anchor="middle" x="79.5723" y="-156.5" font-family="Helvetica,sans-Serif" font-size="10.00" fill="#000000"> n_components_, Number &gt;</text>
</a>
</g>
</g>
<!-- Node2&#45;&gt;Node1 -->
<g id="edge2" class="edge">
<title>Node2&#45;&gt;Node1</title>
<path fill="none" stroke="#191970" d="M79.5723,-140.0725C79.5723,-131.4275 79.5723,-121.8328 79.5723,-113.6857"/>
<polygon fill="#191970" stroke="#191970" points="76.0724,-140.3344 79.5723,-150.3345 83.0724,-140.3345 76.0724,-140.3344"/>
</g>
</g>
</svg>
