<?xml version="1.0" encoding="UTF-8" standalone="no"?>
<!DOCTYPE svg PUBLIC "-//W3C//DTD SVG 1.1//EN"
 "http://www.w3.org/Graphics/SVG/1.1/DTD/svg11.dtd">
<!-- Generated by graphviz version 2.40.1 (20161225.0304)
 -->
<!-- Title: OpenCASCADE::NURBSPatchManifold&lt; dim, spacedim &gt; Pages: 1 -->
<svg width="238pt" height="290pt"
 viewBox="0.00 0.00 237.97 290.00" xmlns="http://www.w3.org/2000/svg" xmlns:xlink="http://www.w3.org/1999/xlink">
<g id="graph0" class="graph" transform="scale(1 1) rotate(0) translate(4 286)">
<title>OpenCASCADE::NURBSPatchManifold&lt; dim, spacedim &gt;</title>
<polygon fill="#ffffff" stroke="transparent" points="-4,4 -4,-286 233.9697,-286 233.9697,4 -4,4"/>
<!-- Node0 -->
<g id="node1" class="node">
<title>Node0</title>
<polygon fill="#bfbfbf" stroke="#000000" points="0,-.5 0,-28.5 192.7383,-28.5 192.7383,-.5 0,-.5"/>
<text text-anchor="start" x="8" y="-16.5" font-family="Helvetica,sans-Serif" font-size="10.00" fill="#000000">OpenCASCADE::NURBSPatchManifold</text>
<text text-anchor="middle" x="96.3691" y="-6.5" font-family="Helvetica,sans-Serif" font-size="10.00" fill="#000000">&lt; dim, spacedim &gt;</text>
</g>
<!-- Node1 -->
<g id="node2" class="node">
<title>Node1</title>
<g id="a_node2"><a xlink:href="classChartManifold.html" target="_top" xlink:title="ChartManifold\&lt; dim,\l spacedim, 2 \&gt;">
<polygon fill="#ffffff" stroke="#000000" points="43.4888,-66.5 43.4888,-94.5 149.2495,-94.5 149.2495,-66.5 43.4888,-66.5"/>
<text text-anchor="start" x="51.4888" y="-82.5" font-family="Helvetica,sans-Serif" font-size="10.00" fill="#000000">ChartManifold&lt; dim,</text>
<text text-anchor="middle" x="96.3691" y="-72.5" font-family="Helvetica,sans-Serif" font-size="10.00" fill="#000000"> spacedim, 2 &gt;</text>
</a>
</g>
</g>
<!-- Node1&#45;&gt;Node0 -->
<g id="edge1" class="edge">
<title>Node1&#45;&gt;Node0</title>
<path fill="none" stroke="#191970" d="M96.3691,-56.0322C96.3691,-46.8606 96.3691,-36.7449 96.3691,-28.7931"/>
<polygon fill="#191970" stroke="#191970" points="92.8692,-56.1789 96.3691,-66.179 99.8692,-56.179 92.8692,-56.1789"/>
</g>
<!-- Node2 -->
<g id="node3" class="node">
<title>Node2</title>
<g id="a_node3"><a xlink:href="classManifold.html" target="_top" xlink:title="Manifold\&lt; dim, spacedim \&gt;">
<polygon fill="#ffffff" stroke="#000000" points="24.6182,-207.5 24.6182,-225.5 160.1201,-225.5 160.1201,-207.5 24.6182,-207.5"/>
<text text-anchor="middle" x="92.3691" y="-213.5" font-family="Helvetica,sans-Serif" font-size="10.00" fill="#000000">Manifold&lt; dim, spacedim &gt;</text>
</a>
</g>
</g>
<!-- Node2&#45;&gt;Node1 -->
<g id="edge2" class="edge">
<title>Node2&#45;&gt;Node1</title>
<path fill="none" stroke="#191970" d="M92.9394,-197.1119C93.7542,-169.4066 95.2327,-119.1399 95.9527,-94.6595"/>
<polygon fill="#191970" stroke="#191970" points="89.4397,-197.0536 92.6441,-207.1522 96.4367,-197.2594 89.4397,-197.0536"/>
</g>
<!-- Node4 -->
<g id="node5" class="node">
<title>Node4</title>
<g id="a_node5"><a xlink:href="classChartManifold.html" target="_top" xlink:title="ChartManifold\&lt; dim,\l spacedim, chartdim \&gt;">
<polygon fill="#ffffff" stroke="#000000" points="108.3213,-141.5 108.3213,-169.5 222.417,-169.5 222.417,-141.5 108.3213,-141.5"/>
<text text-anchor="start" x="116.3213" y="-157.5" font-family="Helvetica,sans-Serif" font-size="10.00" fill="#000000">ChartManifold&lt; dim,</text>
<text text-anchor="middle" x="165.3691" y="-147.5" font-family="Helvetica,sans-Serif" font-size="10.00" fill="#000000"> spacedim, chartdim &gt;</text>
</a>
</g>
</g>
<!-- Node2&#45;&gt;Node4 -->
<g id="edge5" class="edge">
<title>Node2&#45;&gt;Node4</title>
<path fill="none" stroke="#191970" d="M110.9221,-200.9968C122.5239,-191.3022 137.3465,-178.9162 148.5957,-169.5162"/>
<polygon fill="#191970" stroke="#191970" points="108.5699,-198.4013 103.1405,-207.4992 113.0584,-203.7728 108.5699,-198.4013"/>
</g>
<!-- Node3 -->
<g id="node4" class="node">
<title>Node3</title>
<g id="a_node4"><a xlink:href="classSubscriptor.html" target="_top" xlink:title="Subscriptor">
<polygon fill="#ffffff" stroke="#000000" points="59.0811,-263.5 59.0811,-281.5 125.6572,-281.5 125.6572,-263.5 59.0811,-263.5"/>
<text text-anchor="middle" x="92.3691" y="-269.5" font-family="Helvetica,sans-Serif" font-size="10.00" fill="#000000">Subscriptor</text>
</a>
</g>
</g>
<!-- Node3&#45;&gt;Node2 -->
<g id="edge3" class="edge">
<title>Node3&#45;&gt;Node2</title>
<path fill="none" stroke="#191970" d="M92.3691,-253.2065C92.3691,-243.8384 92.3691,-233.0262 92.3691,-225.5752"/>
<polygon fill="#191970" stroke="#191970" points="88.8692,-253.2527 92.3691,-263.2527 95.8692,-253.2528 88.8692,-253.2527"/>
</g>
<!-- Node4&#45;&gt;Node1 -->
<g id="edge4" class="edge">
<title>Node4&#45;&gt;Node1</title>
<path fill="none" stroke="#ffa500" stroke-dasharray="5,2" d="M145.5504,-133.9579C133.8941,-121.288 119.4892,-105.6305 109.2893,-94.5437"/>
<polygon fill="#ffa500" stroke="#ffa500" points="143.0444,-136.4034 152.3908,-141.3931 148.1959,-131.664 143.0444,-136.4034"/>
<text text-anchor="middle" x="182.1694" y="-115" font-family="Helvetica,sans-Serif" font-size="10.00" fill="#000000"> &lt; dim, spacedim, 2 &gt;</text>
</g>
</g>
</svg>
