<?xml version="1.0" encoding="UTF-8" standalone="no"?>
<!DOCTYPE svg PUBLIC "-//W3C//DTD SVG 1.1//EN"
 "http://www.w3.org/Graphics/SVG/1.1/DTD/svg11.dtd">
<!-- Generated by graphviz version 2.40.1 (20161225.0304)
 -->
<!-- Title: SwappableVector&lt; number &gt; Pages: 1 -->
<svg width="190pt" height="204pt"
 viewBox="0.00 0.00 190.07 204.00" xmlns="http://www.w3.org/2000/svg" xmlns:xlink="http://www.w3.org/1999/xlink">
<g id="graph0" class="graph" transform="scale(1 1) rotate(0) translate(4 200)">
<title>SwappableVector&lt; number &gt;</title>
<polygon fill="#ffffff" stroke="transparent" points="-4,4 -4,-200 186.0684,-200 186.0684,4 -4,4"/>
<!-- Node0 -->
<g id="node1" class="node">
<title>Node0</title>
<polygon fill="#bfbfbf" stroke="#000000" points="0,-.5 0,-18.5 144.9795,-18.5 144.9795,-.5 0,-.5"/>
<text text-anchor="middle" x="72.4897" y="-6.5" font-family="Helvetica,sans-Serif" font-size="10.00" fill="#000000">SwappableVector&lt; number &gt;</text>
</g>
<!-- Node1 -->
<g id="node2" class="node">
<title>Node1</title>
<g id="a_node2"><a xlink:href="classVector.html" target="_top" xlink:title="Vector\&lt; number \&gt;">
<polygon fill="#ffffff" stroke="#000000" points="24.7412,-56.5 24.7412,-74.5 120.2383,-74.5 120.2383,-56.5 24.7412,-56.5"/>
<text text-anchor="middle" x="72.4897" y="-62.5" font-family="Helvetica,sans-Serif" font-size="10.00" fill="#000000">Vector&lt; number &gt;</text>
</a>
</g>
</g>
<!-- Node1&#45;&gt;Node0 -->
<g id="edge1" class="edge">
<title>Node1&#45;&gt;Node0</title>
<path fill="none" stroke="#191970" d="M72.4897,-46.2065C72.4897,-36.8384 72.4897,-26.0262 72.4897,-18.5752"/>
<polygon fill="#191970" stroke="#191970" points="68.9898,-46.2527 72.4897,-56.2527 75.9898,-46.2528 68.9898,-46.2527"/>
</g>
<!-- Node2 -->
<g id="node3" class="node">
<title>Node2</title>
<g id="a_node3"><a xlink:href="classSubscriptor.html" target="_top" xlink:title="Subscriptor">
<polygon fill="#ffffff" stroke="#000000" points="35.2017,-177.5 35.2017,-195.5 101.7778,-195.5 101.7778,-177.5 35.2017,-177.5"/>
<text text-anchor="middle" x="68.4897" y="-183.5" font-family="Helvetica,sans-Serif" font-size="10.00" fill="#000000">Subscriptor</text>
</a>
</g>
</g>
<!-- Node2&#45;&gt;Node1 -->
<g id="edge2" class="edge">
<title>Node2&#45;&gt;Node1</title>
<path fill="none" stroke="#191970" d="M69.1303,-167.1238C70.0045,-140.6786 71.5367,-94.3298 72.1856,-74.7002"/>
<polygon fill="#191970" stroke="#191970" points="65.6228,-167.2951 68.7904,-177.4053 72.619,-167.5265 65.6228,-167.2951"/>
</g>
<!-- Node3 -->
<g id="node4" class="node">
<title>Node3</title>
<g id="a_node4"><a xlink:href="classVector.html" target="_top" xlink:title="Vector\&lt; Number \&gt;">
<polygon fill="#ffffff" stroke="#000000" points="84.9111,-121.5 84.9111,-139.5 182.0684,-139.5 182.0684,-121.5 84.9111,-121.5"/>
<text text-anchor="middle" x="133.4897" y="-127.5" font-family="Helvetica,sans-Serif" font-size="10.00" fill="#000000">Vector&lt; Number &gt;</text>
</a>
</g>
</g>
<!-- Node2&#45;&gt;Node3 -->
<g id="edge4" class="edge">
<title>Node2&#45;&gt;Node3</title>
<path fill="none" stroke="#191970" d="M87.065,-170.4967C98.7009,-160.4719 113.2734,-147.9171 122.956,-139.5752"/>
<polygon fill="#191970" stroke="#191970" points="84.5148,-168.074 79.2232,-177.2527 89.0838,-173.3773 84.5148,-168.074"/>
</g>
<!-- Node3&#45;&gt;Node1 -->
<g id="edge3" class="edge">
<title>Node3&#45;&gt;Node1</title>
<path fill="none" stroke="#ffa500" stroke-dasharray="5,2" d="M118.0297,-114.0262C106.4014,-101.6354 90.8826,-85.0989 81.2945,-74.8821"/>
<polygon fill="#ffa500" stroke="#ffa500" points="115.6126,-116.5652 125.008,-121.462 120.7169,-111.775 115.6126,-116.5652"/>
<text text-anchor="middle" x="133.4502" y="-95" font-family="Helvetica,sans-Serif" font-size="10.00" fill="#000000"> &lt; number &gt;</text>
</g>
</g>
</svg>
