<?xml version="1.0" encoding="UTF-8" standalone="no"?>
<!DOCTYPE svg PUBLIC "-//W3C//DTD SVG 1.1//EN"
 "http://www.w3.org/Graphics/SVG/1.1/DTD/svg11.dtd">
<!-- Generated by graphviz version 2.40.1 (20161225.0304)
 -->
<!-- Title: FE_DGNedelec&lt; dim, spacedim &gt; Pages: 1 -->
<svg width="1208pt" height="99pt"
 viewBox="0.00 0.00 1207.97 99.00" xmlns="http://www.w3.org/2000/svg" xmlns:xlink="http://www.w3.org/1999/xlink">
<g id="graph0" class="graph" transform="scale(1 1) rotate(0) translate(4 95)">
<title>FE_DGNedelec&lt; dim, spacedim &gt;</title>
<polygon fill="#ffffff" stroke="transparent" points="-4,4 -4,-95 1203.9717,-95 1203.9717,4 -4,4"/>
<!-- Node0 -->
<g id="node1" class="node">
<title>Node0</title>
<polygon fill="#bfbfbf" stroke="#000000" points="1086.4326,-23.5 1086.4326,-51.5 1199.9717,-51.5 1199.9717,-23.5 1086.4326,-23.5"/>
<text text-anchor="start" x="1094.4326" y="-39.5" font-family="Helvetica,sans-Serif" font-size="10.00" fill="#000000">FE_DGNedelec&lt; dim,</text>
<text text-anchor="middle" x="1143.2021" y="-29.5" font-family="Helvetica,sans-Serif" font-size="10.00" fill="#000000"> spacedim &gt;</text>
</g>
<!-- Node1 -->
<g id="node2" class="node">
<title>Node1</title>
<g id="a_node2"><a xlink:href="classFE__DGVector.html" target="_top" xlink:title="FE_DGVector\&lt; Polynomials\lNedelec\&lt; dim \&gt;, dim, spacedim \&gt;">
<polygon fill="#ffffff" stroke="#000000" points="884.751,-23.5 884.751,-51.5 1049.4326,-51.5 1049.4326,-23.5 884.751,-23.5"/>
<text text-anchor="start" x="892.751" y="-39.5" font-family="Helvetica,sans-Serif" font-size="10.00" fill="#000000">FE_DGVector&lt; Polynomials</text>
<text text-anchor="middle" x="967.0918" y="-29.5" font-family="Helvetica,sans-Serif" font-size="10.00" fill="#000000">Nedelec&lt; dim &gt;, dim, spacedim &gt;</text>
</a>
</g>
</g>
<!-- Node1&#45;&gt;Node0 -->
<g id="edge1" class="edge">
<title>Node1&#45;&gt;Node0</title>
<path fill="none" stroke="#191970" d="M1059.6961,-37.5C1068.7429,-37.5 1077.7256,-37.5 1086.2607,-37.5"/>
<polygon fill="#191970" stroke="#191970" points="1059.4751,-34.0001 1049.475,-37.5 1059.475,-41.0001 1059.4751,-34.0001"/>
</g>
<!-- Node2 -->
<g id="node3" class="node">
<title>Node2</title>
<g id="a_node3"><a xlink:href="classFE__PolyTensor.html" target="_top" xlink:title="FE_PolyTensor\&lt; Polynomials\lNedelec\&lt; dim \&gt;, dim, spacedim \&gt;">
<polygon fill="#ffffff" stroke="#000000" points="572.0771,-47.5 572.0771,-75.5 736.7588,-75.5 736.7588,-47.5 572.0771,-47.5"/>
<text text-anchor="start" x="580.0771" y="-63.5" font-family="Helvetica,sans-Serif" font-size="10.00" fill="#000000">FE_PolyTensor&lt; Polynomials</text>
<text text-anchor="middle" x="654.418" y="-53.5" font-family="Helvetica,sans-Serif" font-size="10.00" fill="#000000">Nedelec&lt; dim &gt;, dim, spacedim &gt;</text>
</a>
</g>
</g>
<!-- Node2&#45;&gt;Node1 -->
<g id="edge2" class="edge">
<title>Node2&#45;&gt;Node1</title>
<path fill="none" stroke="#191970" d="M747.025,-54.3917C790.6757,-51.0412 842.3237,-47.0769 884.6114,-43.831"/>
<polygon fill="#191970" stroke="#191970" points="746.6811,-50.9077 736.9783,-55.1629 747.2169,-57.8872 746.6811,-50.9077"/>
</g>
<!-- Node3 -->
<g id="node4" class="node">
<title>Node3</title>
<g id="a_node4"><a xlink:href="classFiniteElement.html" target="_top" xlink:title="FiniteElement\&lt; dim,\l spacedim \&gt;">
<polygon fill="#ffffff" stroke="#000000" points="141.1006,-46.5 141.1006,-74.5 245.748,-74.5 245.748,-46.5 141.1006,-46.5"/>
<text text-anchor="start" x="149.1006" y="-62.5" font-family="Helvetica,sans-Serif" font-size="10.00" fill="#000000">FiniteElement&lt; dim,</text>
<text text-anchor="middle" x="193.4243" y="-52.5" font-family="Helvetica,sans-Serif" font-size="10.00" fill="#000000"> spacedim &gt;</text>
</a>
</g>
</g>
<!-- Node3&#45;&gt;Node2 -->
<g id="edge3" class="edge">
<title>Node3&#45;&gt;Node2</title>
<path fill="none" stroke="#191970" d="M256.0798,-65.1281C258.6695,-65.2646 261.2337,-65.3895 263.748,-65.5 392.6658,-71.1632 425.1133,-72.9929 554.0771,-68.5 559.9236,-68.2963 565.9581,-68.0261 572.0315,-67.7102"/>
<polygon fill="#191970" stroke="#191970" points="256.1994,-61.6293 246.0155,-64.5515 255.7989,-68.6179 256.1994,-61.6293"/>
</g>
<!-- Node6 -->
<g id="node7" class="node">
<title>Node6</title>
<g id="a_node7"><a xlink:href="classFE__PolyTensor.html" target="_top" xlink:title="FE_PolyTensor\&lt; Polynomial\lType, dim, spacedim \&gt;">
<polygon fill="#ffffff" stroke="#000000" points="282.748,-25.5 282.748,-53.5 424.085,-53.5 424.085,-25.5 282.748,-25.5"/>
<text text-anchor="start" x="290.748" y="-41.5" font-family="Helvetica,sans-Serif" font-size="10.00" fill="#000000">FE_PolyTensor&lt; Polynomial</text>
<text text-anchor="middle" x="353.4165" y="-31.5" font-family="Helvetica,sans-Serif" font-size="10.00" fill="#000000">Type, dim, spacedim &gt;</text>
</a>
</g>
</g>
<!-- Node3&#45;&gt;Node6 -->
<g id="edge7" class="edge">
<title>Node3&#45;&gt;Node6</title>
<path fill="none" stroke="#191970" d="M255.9195,-52.2971C264.6675,-51.1489 273.7091,-49.9621 282.5975,-48.7954"/>
<polygon fill="#191970" stroke="#191970" points="255.2712,-48.8521 245.8117,-53.6238 256.1822,-55.7926 255.2712,-48.8521"/>
</g>
<!-- Node4 -->
<g id="node5" class="node">
<title>Node4</title>
<g id="a_node5"><a xlink:href="classSubscriptor.html" target="_top" xlink:title="Subscriptor">
<polygon fill="#ffffff" stroke="#000000" points="18.7622,-72.5 18.7622,-90.5 85.3384,-90.5 85.3384,-72.5 18.7622,-72.5"/>
<text text-anchor="middle" x="52.0503" y="-78.5" font-family="Helvetica,sans-Serif" font-size="10.00" fill="#000000">Subscriptor</text>
</a>
</g>
</g>
<!-- Node4&#45;&gt;Node3 -->
<g id="edge4" class="edge">
<title>Node4&#45;&gt;Node3</title>
<path fill="none" stroke="#191970" d="M95.6606,-75.022C110.0246,-72.8884 126.1458,-70.4937 141.091,-68.2737"/>
<polygon fill="#191970" stroke="#191970" points="94.9311,-71.5919 85.554,-76.5233 95.9597,-78.5159 94.9311,-71.5919"/>
</g>
<!-- Node5 -->
<g id="node6" class="node">
<title>Node5</title>
<g id="a_node6"><a xlink:href="classFiniteElementData.html" target="_top" xlink:title="FiniteElementData\&lt;\l dim \&gt;">
<polygon fill="#ffffff" stroke="#000000" points="0,-25.5 0,-53.5 104.1006,-53.5 104.1006,-25.5 0,-25.5"/>
<text text-anchor="start" x="8" y="-41.5" font-family="Helvetica,sans-Serif" font-size="10.00" fill="#000000">FiniteElementData&lt;</text>
<text text-anchor="middle" x="52.0503" y="-31.5" font-family="Helvetica,sans-Serif" font-size="10.00" fill="#000000"> dim &gt;</text>
</a>
</g>
</g>
<!-- Node5&#45;&gt;Node3 -->
<g id="edge5" class="edge">
<title>Node5&#45;&gt;Node3</title>
<path fill="none" stroke="#191970" d="M114.2377,-48.7374C123.1434,-50.0603 132.2318,-51.4103 140.9263,-52.7018"/>
<polygon fill="#191970" stroke="#191970" points="114.6968,-45.2673 104.2911,-47.26 113.6683,-52.1914 114.6968,-45.2673"/>
</g>
<!-- Node6&#45;&gt;Node2 -->
<g id="edge6" class="edge">
<title>Node6&#45;&gt;Node2</title>
<path fill="none" stroke="#ffa500" stroke-dasharray="5,2" d="M434.2212,-41.5763C470.8574,-42.9156 514.7009,-45.0723 554.0771,-48.5 559.9395,-49.0103 565.9859,-49.6097 572.0677,-50.2661"/>
<polygon fill="#ffa500" stroke="#ffa500" points="434.2056,-38.0737 424.0887,-41.2199 433.9594,-45.0694 434.2056,-38.0737"/>
<text text-anchor="start" x="442.085" y="-60.5" font-family="Helvetica,sans-Serif" font-size="10.00" fill="#000000"> &lt; PolynomialsNedelec</text>
<text text-anchor="middle" x="498.0811" y="-50.5" font-family="Helvetica,sans-Serif" font-size="10.00" fill="#000000">&lt; dim &gt;, dim, spacedim &gt;</text>
</g>
<!-- Node7 -->
<g id="node8" class="node">
<title>Node7</title>
<g id="a_node8"><a xlink:href="classFE__DGVector.html" target="_top" xlink:title="FE_DGVector\&lt; PolynomialType,\l dim, spacedim \&gt;">
<polygon fill="#ffffff" stroke="#000000" points="574.5747,-.5 574.5747,-28.5 734.2612,-28.5 734.2612,-.5 574.5747,-.5"/>
<text text-anchor="start" x="582.5747" y="-16.5" font-family="Helvetica,sans-Serif" font-size="10.00" fill="#000000">FE_DGVector&lt; PolynomialType,</text>
<text text-anchor="middle" x="654.418" y="-6.5" font-family="Helvetica,sans-Serif" font-size="10.00" fill="#000000"> dim, spacedim &gt;</text>
</a>
</g>
</g>
<!-- Node6&#45;&gt;Node7 -->
<g id="edge9" class="edge">
<title>Node6&#45;&gt;Node7</title>
<path fill="none" stroke="#191970" d="M434.6016,-32.7571C477.9801,-29.1542 531.1886,-24.7349 574.3904,-21.1468"/>
<polygon fill="#191970" stroke="#191970" points="434.0445,-29.2912 424.3685,-33.607 434.6239,-36.2672 434.0445,-29.2912"/>
</g>
<!-- Node7&#45;&gt;Node1 -->
<g id="edge8" class="edge">
<title>Node7&#45;&gt;Node1</title>
<path fill="none" stroke="#ffa500" stroke-dasharray="5,2" d="M744.887,-17.1291C782.6102,-18.6488 826.8481,-20.9814 866.751,-24.5 872.6128,-25.0169 878.6587,-25.6211 884.7402,-26.281"/>
<polygon fill="#ffa500" stroke="#ffa500" points="744.5576,-13.6137 734.4289,-16.7217 744.285,-20.6084 744.5576,-13.6137"/>
<text text-anchor="start" x="754.7588" y="-36.5" font-family="Helvetica,sans-Serif" font-size="10.00" fill="#000000"> &lt; PolynomialsNedelec</text>
<text text-anchor="middle" x="810.7549" y="-26.5" font-family="Helvetica,sans-Serif" font-size="10.00" fill="#000000">&lt; dim &gt;, dim, spacedim &gt;</text>
</g>
</g>
</svg>
