<?xml version="1.0" encoding="UTF-8" standalone="no"?>
<!DOCTYPE svg PUBLIC "-//W3C//DTD SVG 1.1//EN"
 "http://www.w3.org/Graphics/SVG/1.1/DTD/svg11.dtd">
<!-- Generated by graphviz version 2.40.1 (20161225.0304)
 -->
<!-- Title: MGLevelObject&lt; Object &gt; Pages: 1 -->
<svg width="792pt" height="523pt"
 viewBox="0.00 0.00 792.34 522.50" xmlns="http://www.w3.org/2000/svg" xmlns:xlink="http://www.w3.org/1999/xlink">
<g id="graph0" class="graph" transform="scale(1 1) rotate(0) translate(4 518.5)">
<title>MGLevelObject&lt; Object &gt;</title>
<polygon fill="#ffffff" stroke="transparent" points="-4,4 -4,-518.5 788.3418,-518.5 788.3418,4 -4,4"/>
<!-- Node0 -->
<g id="node1" class="node">
<title>Node0</title>
<polygon fill="#bfbfbf" stroke="#000000" points="103.5762,-250.5 103.5762,-268.5 234.6299,-268.5 234.6299,-250.5 103.5762,-250.5"/>
<text text-anchor="middle" x="169.103" y="-256.5" font-family="Helvetica,sans-Serif" font-size="10.00" fill="#000000">MGLevelObject&lt; Object &gt;</text>
</g>
<!-- Node2 -->
<g id="node3" class="node">
<title>Node2</title>
<g id="a_node3"><a xlink:href="classMGLevelObject.html" target="_top" xlink:title="MGLevelObject\&lt; MatrixType \&gt;">
<polygon fill="#ffffff" stroke="#000000" points="428.7866,-481.5 428.7866,-499.5 579.8452,-499.5 579.8452,-481.5 428.7866,-481.5"/>
<text text-anchor="middle" x="504.3159" y="-487.5" font-family="Helvetica,sans-Serif" font-size="10.00" fill="#000000">MGLevelObject&lt; MatrixType &gt;</text>
</a>
</g>
</g>
<!-- Node0&#45;&gt;Node2 -->
<g id="edge2" class="edge">
<title>Node0&#45;&gt;Node2</title>
<path fill="none" stroke="#ffa500" stroke-dasharray="5,2" d="M170.357,-278.633C174.2508,-320.861 189.9909,-421.9705 252.6299,-468.5 313.0162,-513.3562 405.4498,-507.9856 459.8912,-499.553"/>
<polygon fill="#ffa500" stroke="#ffa500" points="173.8402,-278.2811 169.5578,-268.5904 166.8622,-278.8366 173.8402,-278.2811"/>
<text text-anchor="middle" x="326.8438" y="-506.5" font-family="Helvetica,sans-Serif" font-size="10.00" fill="#000000"> &lt; MatrixType &gt;</text>
</g>
<!-- Node3 -->
<g id="node4" class="node">
<title>Node3</title>
<g id="a_node4"><a xlink:href="classMGLevelObject.html" target="_top" xlink:title="MGLevelObject\&lt; LinearAlgebra\l::distributed::Vector\&lt; Number \&gt; \&gt;">
<polygon fill="#ffffff" stroke="#000000" points="422.8027,-433.5 422.8027,-461.5 585.8291,-461.5 585.8291,-433.5 422.8027,-433.5"/>
<text text-anchor="start" x="430.8027" y="-449.5" font-family="Helvetica,sans-Serif" font-size="10.00" fill="#000000">MGLevelObject&lt; LinearAlgebra</text>
<text text-anchor="middle" x="504.3159" y="-439.5" font-family="Helvetica,sans-Serif" font-size="10.00" fill="#000000">::distributed::Vector&lt; Number &gt; &gt;</text>
</a>
</g>
</g>
<!-- Node0&#45;&gt;Node3 -->
<g id="edge3" class="edge">
<title>Node0&#45;&gt;Node3</title>
<path fill="none" stroke="#ffa500" stroke-dasharray="5,2" d="M172.8311,-278.7758C180.7152,-313.793 202.6306,-387.3785 252.6299,-421.5 279.5708,-439.8855 359.946,-445.6897 422.6981,-447.3224"/>
<polygon fill="#ffa500" stroke="#ffa500" points="176.2292,-277.9266 170.7466,-268.8606 169.379,-279.3668 176.2292,-277.9266"/>
<text text-anchor="start" x="264.1655" y="-457.5" font-family="Helvetica,sans-Serif" font-size="10.00" fill="#000000"> &lt; LinearAlgebra::distributed</text>
<text text-anchor="middle" x="326.8438" y="-447.5" font-family="Helvetica,sans-Serif" font-size="10.00" fill="#000000">::Vector&lt; Number &gt; &gt;</text>
</g>
<!-- Node4 -->
<g id="node5" class="node">
<title>Node4</title>
<g id="a_node5"><a xlink:href="classMGLevelObject.html" target="_top" xlink:title="MGLevelObject\&lt; std\l::shared_ptr\&lt; PointerMatrix\lBase\&lt; VectorType \&gt; \&gt; \&gt;">
<polygon fill="#ffffff" stroke="#000000" points="435.8716,-376.5 435.8716,-414.5 572.7603,-414.5 572.7603,-376.5 435.8716,-376.5"/>
<text text-anchor="start" x="443.8716" y="-402.5" font-family="Helvetica,sans-Serif" font-size="10.00" fill="#000000">MGLevelObject&lt; std</text>
<text text-anchor="start" x="443.8716" y="-392.5" font-family="Helvetica,sans-Serif" font-size="10.00" fill="#000000">::shared_ptr&lt; PointerMatrix</text>
<text text-anchor="middle" x="504.3159" y="-382.5" font-family="Helvetica,sans-Serif" font-size="10.00" fill="#000000">Base&lt; VectorType &gt; &gt; &gt;</text>
</a>
</g>
</g>
<!-- Node0&#45;&gt;Node4 -->
<g id="edge4" class="edge">
<title>Node0&#45;&gt;Node4</title>
<path fill="none" stroke="#ffa500" stroke-dasharray="5,2" d="M178.5127,-277.4102C191.7166,-300.5738 218.0523,-340.227 252.6299,-359.5 283.1369,-376.5041 372.1033,-386.2421 435.5964,-391.1996"/>
<polygon fill="#ffa500" stroke="#ffa500" points="181.5551,-275.6789 173.6722,-268.6 175.4201,-279.0497 181.5551,-275.6789"/>
<text text-anchor="start" x="281.6851" y="-409.5" font-family="Helvetica,sans-Serif" font-size="10.00" fill="#000000"> &lt; std::shared_ptr&lt;</text>
<text text-anchor="start" x="281.6851" y="-399.5" font-family="Helvetica,sans-Serif" font-size="10.00" fill="#000000"> PointerMatrixBase&lt;</text>
<text text-anchor="middle" x="326.8438" y="-389.5" font-family="Helvetica,sans-Serif" font-size="10.00" fill="#000000"> VectorType &gt; &gt; &gt;</text>
</g>
<!-- Node5 -->
<g id="node6" class="node">
<title>Node5</title>
<g id="a_node6"><a xlink:href="classMGLevelObject.html" target="_top" xlink:title="MGLevelObject\&lt; VectorType \&gt;">
<polygon fill="#ffffff" stroke="#000000" points="428.2202,-339.5 428.2202,-357.5 580.4116,-357.5 580.4116,-339.5 428.2202,-339.5"/>
<text text-anchor="middle" x="504.3159" y="-345.5" font-family="Helvetica,sans-Serif" font-size="10.00" fill="#000000">MGLevelObject&lt; VectorType &gt;</text>
</a>
</g>
</g>
<!-- Node0&#45;&gt;Node5 -->
<g id="edge5" class="edge">
<title>Node0&#45;&gt;Node5</title>
<path fill="none" stroke="#ffa500" stroke-dasharray="5,2" d="M187.5413,-275.5523C203.599,-288.5801 228.0945,-306.251 252.6299,-315.5 309.0213,-336.7576 376.9845,-344.7209 428.0655,-347.5272"/>
<polygon fill="#ffa500" stroke="#ffa500" points="189.4617,-272.5962 179.5417,-268.8753 184.9762,-277.9703 189.4617,-272.5962"/>
<text text-anchor="middle" x="326.8438" y="-347.5" font-family="Helvetica,sans-Serif" font-size="10.00" fill="#000000"> &lt; VectorType &gt;</text>
</g>
<!-- Node6 -->
<g id="node7" class="node">
<title>Node6</title>
<g id="a_node7"><a xlink:href="classMGLevelObject.html" target="_top" xlink:title="MGLevelObject\&lt; SparseMatrix\l\&lt; number \&gt; \&gt;">
<polygon fill="#ffffff" stroke="#000000" points="428.0957,-292.5 428.0957,-320.5 580.5361,-320.5 580.5361,-292.5 428.0957,-292.5"/>
<text text-anchor="start" x="436.0957" y="-308.5" font-family="Helvetica,sans-Serif" font-size="10.00" fill="#000000">MGLevelObject&lt; SparseMatrix</text>
<text text-anchor="middle" x="504.3159" y="-298.5" font-family="Helvetica,sans-Serif" font-size="10.00" fill="#000000">&lt; number &gt; &gt;</text>
</a>
</g>
</g>
<!-- Node0&#45;&gt;Node6 -->
<g id="edge6" class="edge">
<title>Node0&#45;&gt;Node6</title>
<path fill="none" stroke="#ffa500" stroke-dasharray="5,2" d="M205.4921,-271.5725C220.0092,-275.9619 236.9666,-280.5613 252.6299,-283.5 310.9566,-294.4432 377.9041,-300.2432 428.0831,-303.28"/>
<polygon fill="#ffa500" stroke="#ffa500" points="206.4656,-268.21 195.8775,-268.5902 204.3917,-274.8957 206.4656,-268.21"/>
<text text-anchor="middle" x="326.8438" y="-303.5" font-family="Helvetica,sans-Serif" font-size="10.00" fill="#000000"> &lt; SparseMatrix&lt; number &gt; &gt;</text>
</g>
<!-- Node7 -->
<g id="node8" class="node">
<title>Node7</title>
<g id="a_node8"><a xlink:href="classMGLevelObject.html" target="_top" xlink:title="MGLevelObject\&lt; PointerMatrix\l\&lt; MatrixType, VectorType \&gt; \&gt;">
<polygon fill="#ffffff" stroke="#000000" points="428.0957,-245.5 428.0957,-273.5 580.5361,-273.5 580.5361,-245.5 428.0957,-245.5"/>
<text text-anchor="start" x="436.0957" y="-261.5" font-family="Helvetica,sans-Serif" font-size="10.00" fill="#000000">MGLevelObject&lt; PointerMatrix</text>
<text text-anchor="middle" x="504.3159" y="-251.5" font-family="Helvetica,sans-Serif" font-size="10.00" fill="#000000">&lt; MatrixType, VectorType &gt; &gt;</text>
</a>
</g>
</g>
<!-- Node0&#45;&gt;Node7 -->
<g id="edge7" class="edge">
<title>Node0&#45;&gt;Node7</title>
<path fill="none" stroke="#ffa500" stroke-dasharray="5,2" d="M245.262,-259.5C299.9565,-259.5 373.3757,-259.5 428.0863,-259.5"/>
<polygon fill="#ffa500" stroke="#ffa500" points="244.9304,-256.0001 234.9303,-259.5 244.9303,-263.0001 244.9304,-256.0001"/>
<text text-anchor="start" x="261.541" y="-271.5" font-family="Helvetica,sans-Serif" font-size="10.00" fill="#000000"> &lt; PointerMatrix&lt; MatrixType,</text>
<text text-anchor="middle" x="326.8438" y="-261.5" font-family="Helvetica,sans-Serif" font-size="10.00" fill="#000000"> VectorType &gt; &gt;</text>
</g>
<!-- Node8 -->
<g id="node9" class="node">
<title>Node8</title>
<g id="a_node9"><a xlink:href="classMGLevelObject.html" target="_top" xlink:title="MGLevelObject\&lt; PointerMatrix\l\&lt; RelaxationType, BlockVector\l\&lt; number \&gt; \&gt; \&gt;">
<polygon fill="#ffffff" stroke="#000000" points="428.0957,-188.5 428.0957,-226.5 580.5361,-226.5 580.5361,-188.5 428.0957,-188.5"/>
<text text-anchor="start" x="436.0957" y="-214.5" font-family="Helvetica,sans-Serif" font-size="10.00" fill="#000000">MGLevelObject&lt; PointerMatrix</text>
<text text-anchor="start" x="436.0957" y="-204.5" font-family="Helvetica,sans-Serif" font-size="10.00" fill="#000000">&lt; RelaxationType, BlockVector</text>
<text text-anchor="middle" x="504.3159" y="-194.5" font-family="Helvetica,sans-Serif" font-size="10.00" fill="#000000">&lt; number &gt; &gt; &gt;</text>
</a>
</g>
</g>
<!-- Node0&#45;&gt;Node8 -->
<g id="edge8" class="edge">
<title>Node0&#45;&gt;Node8</title>
<path fill="none" stroke="#ffa500" stroke-dasharray="5,2" d="M205.8583,-247.4859C220.3047,-243.1478 237.1165,-238.5688 252.6299,-235.5 310.9623,-223.9609 377.9095,-216.7991 428.0869,-212.6101"/>
<polygon fill="#ffa500" stroke="#ffa500" points="204.8106,-244.1463 196.2798,-250.4293 206.8668,-250.8375 204.8106,-244.1463"/>
<text text-anchor="start" x="252.6299" y="-247.5" font-family="Helvetica,sans-Serif" font-size="10.00" fill="#000000"> &lt; PointerMatrix&lt; Relaxation</text>
<text text-anchor="middle" x="326.8438" y="-237.5" font-family="Helvetica,sans-Serif" font-size="10.00" fill="#000000">Type, BlockVector&lt; number &gt; &gt; &gt;</text>
</g>
<!-- Node9 -->
<g id="node10" class="node">
<title>Node9</title>
<g id="a_node10"><a xlink:href="classMGLevelObject.html" target="_top" xlink:title="MGLevelObject\&lt; SparsityPattern \&gt;">
<polygon fill="#ffffff" stroke="#000000" points="419.0576,-151.5 419.0576,-169.5 589.5742,-169.5 589.5742,-151.5 419.0576,-151.5"/>
<text text-anchor="middle" x="504.3159" y="-157.5" font-family="Helvetica,sans-Serif" font-size="10.00" fill="#000000">MGLevelObject&lt; SparsityPattern &gt;</text>
</a>
</g>
</g>
<!-- Node0&#45;&gt;Node9 -->
<g id="edge9" class="edge">
<title>Node0&#45;&gt;Node9</title>
<path fill="none" stroke="#ffa500" stroke-dasharray="5,2" d="M187.3069,-243.5956C203.3815,-230.4469 228.0269,-212.3864 252.6299,-202.5 305.5528,-181.2336 368.9037,-170.7348 418.8073,-165.552"/>
<polygon fill="#ffa500" stroke="#ffa500" points="184.7179,-241.1994 179.3131,-250.312 189.2209,-246.5588 184.7179,-241.1994"/>
<text text-anchor="middle" x="326.8438" y="-204.5" font-family="Helvetica,sans-Serif" font-size="10.00" fill="#000000"> &lt; SparsityPattern &gt;</text>
</g>
<!-- Node10 -->
<g id="node11" class="node">
<title>Node10</title>
<g id="a_node11"><a xlink:href="classMGLevelObject.html" target="_top" xlink:title="MGLevelObject\&lt; PointerMatrix\l\&lt; MatrixType, BlockVector\l\&lt; number \&gt; \&gt; \&gt;">
<polygon fill="#ffffff" stroke="#000000" points="428.0957,-94.5 428.0957,-132.5 580.5361,-132.5 580.5361,-94.5 428.0957,-94.5"/>
<text text-anchor="start" x="436.0957" y="-120.5" font-family="Helvetica,sans-Serif" font-size="10.00" fill="#000000">MGLevelObject&lt; PointerMatrix</text>
<text text-anchor="start" x="436.0957" y="-110.5" font-family="Helvetica,sans-Serif" font-size="10.00" fill="#000000">&lt; MatrixType, BlockVector</text>
<text text-anchor="middle" x="504.3159" y="-100.5" font-family="Helvetica,sans-Serif" font-size="10.00" fill="#000000">&lt; number &gt; &gt; &gt;</text>
</a>
</g>
</g>
<!-- Node0&#45;&gt;Node10 -->
<g id="edge10" class="edge">
<title>Node0&#45;&gt;Node10</title>
<path fill="none" stroke="#ffa500" stroke-dasharray="5,2" d="M176.681,-241.1157C188.589,-214.7948 214.3453,-167.0649 252.6299,-144.5 305.4446,-113.3711 375.2706,-106.9349 427.9749,-107.5387"/>
<polygon fill="#ffa500" stroke="#ffa500" points="173.4411,-239.7898 172.674,-250.3568 179.8634,-242.5745 173.4411,-239.7898"/>
<text text-anchor="start" x="261.541" y="-156.5" font-family="Helvetica,sans-Serif" font-size="10.00" fill="#000000"> &lt; PointerMatrix&lt; MatrixType,</text>
<text text-anchor="middle" x="326.8438" y="-146.5" font-family="Helvetica,sans-Serif" font-size="10.00" fill="#000000"> BlockVector&lt; number &gt; &gt; &gt;</text>
</g>
<!-- Node11 -->
<g id="node12" class="node">
<title>Node11</title>
<g id="a_node12"><a xlink:href="classMGLevelObject.html" target="_top" xlink:title="MGLevelObject\&lt; Relaxation\lType \&gt;">
<polygon fill="#ffffff" stroke="#000000" points="433.9233,-47.5 433.9233,-75.5 574.7085,-75.5 574.7085,-47.5 433.9233,-47.5"/>
<text text-anchor="start" x="441.9233" y="-63.5" font-family="Helvetica,sans-Serif" font-size="10.00" fill="#000000">MGLevelObject&lt; Relaxation</text>
<text text-anchor="middle" x="504.3159" y="-53.5" font-family="Helvetica,sans-Serif" font-size="10.00" fill="#000000">Type &gt;</text>
</a>
</g>
</g>
<!-- Node0&#45;&gt;Node11 -->
<g id="edge11" class="edge">
<title>Node0&#45;&gt;Node11</title>
<path fill="none" stroke="#ffa500" stroke-dasharray="5,2" d="M172.6977,-240.5093C180.4482,-205.2838 202.2726,-130.1683 252.6299,-94.5 305.0449,-57.3742 379.3588,-51.8258 433.6459,-53.9326"/>
<polygon fill="#ffa500" stroke="#ffa500" points="169.2408,-239.9442 170.6576,-250.4439 176.0977,-241.3524 169.2408,-239.9442"/>
<text text-anchor="middle" x="326.8438" y="-96.5" font-family="Helvetica,sans-Serif" font-size="10.00" fill="#000000"> &lt; RelaxationType &gt;</text>
</g>
<!-- Node13 -->
<g id="node14" class="node">
<title>Node13</title>
<g id="a_node14"><a xlink:href="classMGLevelObject.html" target="_top" xlink:title="MGLevelObject\&lt; Preconditioner\lType \&gt;">
<polygon fill="#ffffff" stroke="#000000" points="425.3076,-.5 425.3076,-28.5 583.3242,-28.5 583.3242,-.5 425.3076,-.5"/>
<text text-anchor="start" x="433.3076" y="-16.5" font-family="Helvetica,sans-Serif" font-size="10.00" fill="#000000">MGLevelObject&lt; Preconditioner</text>
<text text-anchor="middle" x="504.3159" y="-6.5" font-family="Helvetica,sans-Serif" font-size="10.00" fill="#000000">Type &gt;</text>
</a>
</g>
</g>
<!-- Node0&#45;&gt;Node13 -->
<g id="edge13" class="edge">
<title>Node0&#45;&gt;Node13</title>
<path fill="none" stroke="#ffa500" stroke-dasharray="5,2" d="M170.0267,-240.4371C173.2546,-196.9442 187.738,-90.3122 252.6299,-40.5 301.1523,-3.2533 371.3556,1.1659 425.2967,-2.5502"/>
<polygon fill="#ffa500" stroke="#ffa500" points="166.5285,-240.3013 169.4031,-250.4987 173.5151,-240.7344 166.5285,-240.3013"/>
<text text-anchor="middle" x="326.8438" y="-42.5" font-family="Helvetica,sans-Serif" font-size="10.00" fill="#000000"> &lt; PreconditionerType &gt;</text>
</g>
<!-- Node1 -->
<g id="node2" class="node">
<title>Node1</title>
<g id="a_node2"><a xlink:href="classSubscriptor.html" target="_top" xlink:title="Subscriptor">
<polygon fill="#ffffff" stroke="#000000" points="0,-250.5 0,-268.5 66.5762,-268.5 66.5762,-250.5 0,-250.5"/>
<text text-anchor="middle" x="33.2881" y="-256.5" font-family="Helvetica,sans-Serif" font-size="10.00" fill="#000000">Subscriptor</text>
</a>
</g>
</g>
<!-- Node1&#45;&gt;Node0 -->
<g id="edge1" class="edge">
<title>Node1&#45;&gt;Node0</title>
<path fill="none" stroke="#191970" d="M76.9105,-259.5C85.4237,-259.5 94.5234,-259.5 103.567,-259.5"/>
<polygon fill="#191970" stroke="#191970" points="76.8604,-256.0001 66.8603,-259.5 76.8603,-263.0001 76.8604,-256.0001"/>
</g>
<!-- Node12 -->
<g id="node13" class="node">
<title>Node12</title>
<g id="a_node13"><a xlink:href="classmg_1_1SmootherRelaxation.html" target="_top" xlink:title="mg::SmootherRelaxation\l\&lt; RelaxationType, VectorType \&gt;">
<polygon fill="#ffffff" stroke="#000000" points="626.5742,-47.5 626.5742,-75.5 784.3418,-75.5 784.3418,-47.5 626.5742,-47.5"/>
<text text-anchor="start" x="634.5742" y="-63.5" font-family="Helvetica,sans-Serif" font-size="10.00" fill="#000000">mg::SmootherRelaxation</text>
<text text-anchor="middle" x="705.458" y="-53.5" font-family="Helvetica,sans-Serif" font-size="10.00" fill="#000000">&lt; RelaxationType, VectorType &gt;</text>
</a>
</g>
</g>
<!-- Node11&#45;&gt;Node12 -->
<g id="edge12" class="edge">
<title>Node11&#45;&gt;Node12</title>
<path fill="none" stroke="#191970" d="M585.2199,-61.5C598.8016,-61.5 612.8813,-61.5 626.4152,-61.5"/>
<polygon fill="#191970" stroke="#191970" points="584.9483,-58.0001 574.9483,-61.5 584.9482,-65.0001 584.9483,-58.0001"/>
</g>
</g>
</svg>
