<?xml version="1.0" encoding="UTF-8" standalone="no"?>
<!DOCTYPE svg PUBLIC "-//W3C//DTD SVG 1.1//EN"
 "http://www.w3.org/Graphics/SVG/1.1/DTD/svg11.dtd">
<!-- Generated by graphviz version 2.40.1 (20161225.0304)
 -->
<!-- Title: TableIndices&lt; N &gt; Pages: 1 -->
<svg width="228pt" height="92pt"
 viewBox="0.00 0.00 228.33 92.00" xmlns="http://www.w3.org/2000/svg" xmlns:xlink="http://www.w3.org/1999/xlink">
<g id="graph0" class="graph" transform="scale(1 1) rotate(0) translate(4 88)">
<title>TableIndices&lt; N &gt;</title>
<polygon fill="#ffffff" stroke="transparent" points="-4,4 -4,-88 224.3345,-88 224.3345,4 -4,4"/>
<!-- Node0 -->
<g id="node1" class="node">
<title>Node0</title>
<polygon fill="#bfbfbf" stroke="#000000" points="65.1157,-65.5 65.1157,-83.5 161.1646,-83.5 161.1646,-65.5 65.1157,-65.5"/>
<text text-anchor="middle" x="113.1401" y="-71.5" font-family="Helvetica,sans-Serif" font-size="10.00" fill="#000000">TableIndices&lt; N &gt;</text>
</g>
<!-- Node1 -->
<g id="node2" class="node">
<title>Node1</title>
<g id="a_node2"><a xlink:href="classTableIndices.html" target="_top" xlink:title="TableIndices\&lt; rank \&gt;">
<polygon fill="#ffffff" stroke="#000000" points="0,-.5 0,-18.5 108.2803,-18.5 108.2803,-.5 0,-.5"/>
<text text-anchor="middle" x="54.1401" y="-6.5" font-family="Helvetica,sans-Serif" font-size="10.00" fill="#000000">TableIndices&lt; rank &gt;</text>
</a>
</g>
</g>
<!-- Node0&#45;&gt;Node1 -->
<g id="edge1" class="edge">
<title>Node0&#45;&gt;Node1</title>
<path fill="none" stroke="#ffa500" stroke-dasharray="5,2" d="M98.187,-58.0262C86.9399,-45.6354 71.9299,-29.0989 62.6562,-18.8821"/>
<polygon fill="#ffa500" stroke="#ffa500" points="95.6237,-60.4098 104.9364,-65.462 100.807,-55.7051 95.6237,-60.4098"/>
<text text-anchor="middle" x="107.874" y="-39" font-family="Helvetica,sans-Serif" font-size="10.00" fill="#000000"> &lt; rank &gt;</text>
</g>
<!-- Node2 -->
<g id="node3" class="node">
<title>Node2</title>
<g id="a_node3"><a xlink:href="classTableIndices.html" target="_top" xlink:title="TableIndices\&lt; 3 \&gt;">
<polygon fill="#ffffff" stroke="#000000" points="125.9458,-.5 125.9458,-18.5 220.3345,-18.5 220.3345,-.5 125.9458,-.5"/>
<text text-anchor="middle" x="173.1401" y="-6.5" font-family="Helvetica,sans-Serif" font-size="10.00" fill="#000000">TableIndices&lt; 3 &gt;</text>
</a>
</g>
</g>
<!-- Node0&#45;&gt;Node2 -->
<g id="edge2" class="edge">
<title>Node0&#45;&gt;Node2</title>
<path fill="none" stroke="#ffa500" stroke-dasharray="5,2" d="M128.3467,-58.0262C139.7844,-45.6354 155.0488,-29.0989 164.4797,-18.8821"/>
<polygon fill="#ffa500" stroke="#ffa500" points="125.6939,-55.74 121.4829,-65.462 130.8375,-60.488 125.6939,-55.74"/>
<text text-anchor="middle" x="158.9282" y="-39" font-family="Helvetica,sans-Serif" font-size="10.00" fill="#000000"> &lt; 3 &gt;</text>
</g>
</g>
</svg>
