<?xml version="1.0" encoding="UTF-8" standalone="no"?>
<!DOCTYPE svg PUBLIC "-//W3C//DTD SVG 1.1//EN"
 "http://www.w3.org/Graphics/SVG/1.1/DTD/svg11.dtd">
<!-- Generated by graphviz version 2.40.1 (20161225.0304)
 -->
<!-- Title: GrowingVectorMemory&lt; VectorType &gt; Pages: 1 -->
<svg width="206pt" height="224pt"
 viewBox="0.00 0.00 205.84 224.00" xmlns="http://www.w3.org/2000/svg" xmlns:xlink="http://www.w3.org/1999/xlink">
<g id="graph0" class="graph" transform="scale(1 1) rotate(0) translate(4 220)">
<title>GrowingVectorMemory&lt; VectorType &gt;</title>
<polygon fill="#ffffff" stroke="transparent" points="-4,4 -4,-220 201.8364,-220 201.8364,4 -4,4"/>
<!-- Node0 -->
<g id="node1" class="node">
<title>Node0</title>
<polygon fill="#bfbfbf" stroke="#000000" points="15.0195,-75.5 15.0195,-103.5 132.7236,-103.5 132.7236,-75.5 15.0195,-75.5"/>
<text text-anchor="start" x="23.0195" y="-91.5" font-family="Helvetica,sans-Serif" font-size="10.00" fill="#000000">GrowingVectorMemory</text>
<text text-anchor="middle" x="73.8716" y="-81.5" font-family="Helvetica,sans-Serif" font-size="10.00" fill="#000000">&lt; VectorType &gt;</text>
</g>
<!-- Node3 -->
<g id="node4" class="node">
<title>Node3</title>
<g id="a_node4"><a xlink:href="classGrowingVectorMemory.html" target="_top" xlink:title="GrowingVectorMemory\l\&lt; BlockVector\&lt; number \&gt; \&gt;">
<polygon fill="#ffffff" stroke="#000000" points="5.2783,-.5 5.2783,-28.5 142.4648,-28.5 142.4648,-.5 5.2783,-.5"/>
<text text-anchor="start" x="13.2783" y="-16.5" font-family="Helvetica,sans-Serif" font-size="10.00" fill="#000000">GrowingVectorMemory</text>
<text text-anchor="middle" x="73.8716" y="-6.5" font-family="Helvetica,sans-Serif" font-size="10.00" fill="#000000">&lt; BlockVector&lt; number &gt; &gt;</text>
</a>
</g>
</g>
<!-- Node0&#45;&gt;Node3 -->
<g id="edge3" class="edge">
<title>Node0&#45;&gt;Node3</title>
<path fill="none" stroke="#ffa500" stroke-dasharray="5,2" d="M73.8716,-65.0415C73.8716,-52.9507 73.8716,-38.7938 73.8716,-28.5437"/>
<polygon fill="#ffa500" stroke="#ffa500" points="70.3717,-65.393 73.8716,-75.3931 77.3717,-65.3931 70.3717,-65.393"/>
<text text-anchor="middle" x="135.854" y="-49" font-family="Helvetica,sans-Serif" font-size="10.00" fill="#000000"> &lt; BlockVector&lt; number &gt; &gt;</text>
</g>
<!-- Node1 -->
<g id="node2" class="node">
<title>Node1</title>
<g id="a_node2"><a xlink:href="classVectorMemory.html" target="_top" xlink:title="VectorMemory\&lt; VectorType \&gt;">
<polygon fill="#ffffff" stroke="#000000" points="0,-141.5 0,-159.5 147.7432,-159.5 147.7432,-141.5 0,-141.5"/>
<text text-anchor="middle" x="73.8716" y="-147.5" font-family="Helvetica,sans-Serif" font-size="10.00" fill="#000000">VectorMemory&lt; VectorType &gt;</text>
</a>
</g>
</g>
<!-- Node1&#45;&gt;Node0 -->
<g id="edge1" class="edge">
<title>Node1&#45;&gt;Node0</title>
<path fill="none" stroke="#191970" d="M73.8716,-131.2842C73.8716,-122.3664 73.8716,-111.9504 73.8716,-103.7488"/>
<polygon fill="#191970" stroke="#191970" points="70.3717,-131.4992 73.8716,-141.4992 77.3717,-131.4993 70.3717,-131.4992"/>
</g>
<!-- Node2 -->
<g id="node3" class="node">
<title>Node2</title>
<g id="a_node3"><a xlink:href="classSubscriptor.html" target="_top" xlink:title="Subscriptor">
<polygon fill="#ffffff" stroke="#000000" points="40.5835,-197.5 40.5835,-215.5 107.1597,-215.5 107.1597,-197.5 40.5835,-197.5"/>
<text text-anchor="middle" x="73.8716" y="-203.5" font-family="Helvetica,sans-Serif" font-size="10.00" fill="#000000">Subscriptor</text>
</a>
</g>
</g>
<!-- Node2&#45;&gt;Node1 -->
<g id="edge2" class="edge">
<title>Node2&#45;&gt;Node1</title>
<path fill="none" stroke="#191970" d="M73.8716,-187.2065C73.8716,-177.8384 73.8716,-167.0262 73.8716,-159.5752"/>
<polygon fill="#191970" stroke="#191970" points="70.3717,-187.2527 73.8716,-197.2527 77.3717,-187.2528 70.3717,-187.2527"/>
</g>
</g>
</svg>
