<?xml version="1.0" encoding="UTF-8" standalone="no"?>
<!DOCTYPE svg PUBLIC "-//W3C//DTD SVG 1.1//EN"
 "http://www.w3.org/Graphics/SVG/1.1/DTD/svg11.dtd">
<!-- Generated by graphviz version 2.40.1 (20161225.0304)
 -->
<!-- Title: ConstantFunction&lt; dim, Number &gt; Pages: 1 -->
<svg width="222pt" height="277pt"
 viewBox="0.00 0.00 221.79 277.00" xmlns="http://www.w3.org/2000/svg" xmlns:xlink="http://www.w3.org/1999/xlink">
<g id="graph0" class="graph" transform="scale(1 1) rotate(0) translate(4 273)">
<title>ConstantFunction&lt; dim, Number &gt;</title>
<polygon fill="#ffffff" stroke="transparent" points="-4,4 -4,-273 217.7944,-273 217.7944,4 -4,4"/>
<!-- Node0 -->
<g id="node1" class="node">
<title>Node0</title>
<polygon fill="#bfbfbf" stroke="#000000" points="61.562,-65.5 61.562,-93.5 183.4507,-93.5 183.4507,-65.5 61.562,-65.5"/>
<text text-anchor="start" x="69.562" y="-81.5" font-family="Helvetica,sans-Serif" font-size="10.00" fill="#000000">ConstantFunction&lt; dim,</text>
<text text-anchor="middle" x="122.5063" y="-71.5" font-family="Helvetica,sans-Serif" font-size="10.00" fill="#000000"> Number &gt;</text>
</g>
<!-- Node5 -->
<g id="node6" class="node">
<title>Node5</title>
<g id="a_node6"><a xlink:href="classComponentSelectFunction.html" target="_top" xlink:title="ComponentSelectFunction\l\&lt; dim, Number \&gt;">
<polygon fill="#ffffff" stroke="#000000" points="55.583,-.5 55.583,-28.5 189.4297,-28.5 189.4297,-.5 55.583,-.5"/>
<text text-anchor="start" x="63.583" y="-16.5" font-family="Helvetica,sans-Serif" font-size="10.00" fill="#000000">ComponentSelectFunction</text>
<text text-anchor="middle" x="122.5063" y="-6.5" font-family="Helvetica,sans-Serif" font-size="10.00" fill="#000000">&lt; dim, Number &gt;</text>
</a>
</g>
</g>
<!-- Node0&#45;&gt;Node5 -->
<g id="edge5" class="edge">
<title>Node0&#45;&gt;Node5</title>
<path fill="none" stroke="#191970" d="M122.5063,-55.1081C122.5063,-46.1539 122.5063,-36.3227 122.5063,-28.5765"/>
<polygon fill="#191970" stroke="#191970" points="119.0064,-55.3959 122.5063,-65.396 126.0064,-55.396 119.0064,-55.3959"/>
</g>
<!-- Node1 -->
<g id="node2" class="node">
<title>Node1</title>
<g id="a_node2"><a xlink:href="classZeroFunction.html" target="_top" xlink:title="ZeroFunction\&lt; dim,\l Number \&gt;">
<polygon fill="#ffffff" stroke="#000000" points="71.2935,-130.5 71.2935,-158.5 173.7192,-158.5 173.7192,-130.5 71.2935,-130.5"/>
<text text-anchor="start" x="79.2935" y="-146.5" font-family="Helvetica,sans-Serif" font-size="10.00" fill="#000000">ZeroFunction&lt; dim,</text>
<text text-anchor="middle" x="122.5063" y="-136.5" font-family="Helvetica,sans-Serif" font-size="10.00" fill="#000000"> Number &gt;</text>
</a>
</g>
</g>
<!-- Node1&#45;&gt;Node0 -->
<g id="edge1" class="edge">
<title>Node1&#45;&gt;Node0</title>
<path fill="none" stroke="#191970" d="M122.5063,-120.1081C122.5063,-111.1539 122.5063,-101.3227 122.5063,-93.5765"/>
<polygon fill="#191970" stroke="#191970" points="119.0064,-120.3959 122.5063,-130.396 126.0064,-120.396 119.0064,-120.3959"/>
</g>
<!-- Node2 -->
<g id="node3" class="node">
<title>Node2</title>
<g id="a_node3"><a xlink:href="classFunction.html" target="_top" xlink:title="Function\&lt; dim, Number \&gt;">
<polygon fill="#ffffff" stroke="#000000" points="58.0928,-195.5 58.0928,-213.5 186.9199,-213.5 186.9199,-195.5 58.0928,-195.5"/>
<text text-anchor="middle" x="122.5063" y="-201.5" font-family="Helvetica,sans-Serif" font-size="10.00" fill="#000000">Function&lt; dim, Number &gt;</text>
</a>
</g>
</g>
<!-- Node2&#45;&gt;Node1 -->
<g id="edge2" class="edge">
<title>Node2&#45;&gt;Node1</title>
<path fill="none" stroke="#191970" d="M122.5063,-185.1865C122.5063,-176.6283 122.5063,-166.7354 122.5063,-158.8477"/>
<polygon fill="#191970" stroke="#191970" points="119.0064,-185.3873 122.5063,-195.3873 126.0064,-185.3873 119.0064,-185.3873"/>
</g>
<!-- Node3 -->
<g id="node4" class="node">
<title>Node3</title>
<g id="a_node4"><a xlink:href="classFunctionTime.html" target="_top" xlink:title="FunctionTime\&lt; Number \&gt;">
<polygon fill="#ffffff" stroke="#000000" points="0,-250.5 0,-268.5 129.0127,-268.5 129.0127,-250.5 0,-250.5"/>
<text text-anchor="middle" x="64.5063" y="-256.5" font-family="Helvetica,sans-Serif" font-size="10.00" fill="#000000">FunctionTime&lt; Number &gt;</text>
</a>
</g>
</g>
<!-- Node3&#45;&gt;Node2 -->
<g id="edge3" class="edge">
<title>Node3&#45;&gt;Node2</title>
<path fill="none" stroke="#191970" d="M81.5909,-243.2992C91.7318,-233.6828 104.2259,-221.8349 112.7207,-213.7795"/>
<polygon fill="#191970" stroke="#191970" points="78.9318,-240.9972 74.0839,-250.4179 83.7485,-246.0766 78.9318,-240.9972"/>
</g>
<!-- Node4 -->
<g id="node5" class="node">
<title>Node4</title>
<g id="a_node5"><a xlink:href="classSubscriptor.html" target="_top" xlink:title="Subscriptor">
<polygon fill="#ffffff" stroke="#000000" points="147.2183,-250.5 147.2183,-268.5 213.7944,-268.5 213.7944,-250.5 147.2183,-250.5"/>
<text text-anchor="middle" x="180.5063" y="-256.5" font-family="Helvetica,sans-Serif" font-size="10.00" fill="#000000">Subscriptor</text>
</a>
</g>
</g>
<!-- Node4&#45;&gt;Node2 -->
<g id="edge4" class="edge">
<title>Node4&#45;&gt;Node2</title>
<path fill="none" stroke="#191970" d="M163.4218,-243.2992C153.2809,-233.6828 140.7868,-221.8349 132.292,-213.7795"/>
<polygon fill="#191970" stroke="#191970" points="161.2642,-246.0766 170.9288,-250.4179 166.0809,-240.9972 161.2642,-246.0766"/>
</g>
</g>
</svg>
