<?xml version="1.0" encoding="UTF-8" standalone="no"?>
<!DOCTYPE svg PUBLIC "-//W3C//DTD SVG 1.1//EN"
 "http://www.w3.org/Graphics/SVG/1.1/DTD/svg11.dtd">
<!-- Generated by graphviz version 2.40.1 (20161225.0304)
 -->
<!-- Title: TorusManifold&lt; dim &gt; Pages: 1 -->
<svg width="206pt" height="280pt"
 viewBox="0.00 0.00 205.80 280.00" xmlns="http://www.w3.org/2000/svg" xmlns:xlink="http://www.w3.org/1999/xlink">
<g id="graph0" class="graph" transform="scale(1 1) rotate(0) translate(4 276)">
<title>TorusManifold&lt; dim &gt;</title>
<polygon fill="#ffffff" stroke="transparent" points="-4,4 -4,-276 201.7988,-276 201.7988,4 -4,4"/>
<!-- Node0 -->
<g id="node1" class="node">
<title>Node0</title>
<polygon fill="#bfbfbf" stroke="#000000" points="15.9507,-.5 15.9507,-18.5 127.5513,-18.5 127.5513,-.5 15.9507,-.5"/>
<text text-anchor="middle" x="71.751" y="-6.5" font-family="Helvetica,sans-Serif" font-size="10.00" fill="#000000">TorusManifold&lt; dim &gt;</text>
</g>
<!-- Node1 -->
<g id="node2" class="node">
<title>Node1</title>
<g id="a_node2"><a xlink:href="classChartManifold.html" target="_top" xlink:title="ChartManifold\&lt; dim,\l 3, 3 \&gt;">
<polygon fill="#ffffff" stroke="#000000" points="18.8706,-56.5 18.8706,-84.5 124.6313,-84.5 124.6313,-56.5 18.8706,-56.5"/>
<text text-anchor="start" x="26.8706" y="-72.5" font-family="Helvetica,sans-Serif" font-size="10.00" fill="#000000">ChartManifold&lt; dim,</text>
<text text-anchor="middle" x="71.751" y="-62.5" font-family="Helvetica,sans-Serif" font-size="10.00" fill="#000000"> 3, 3 &gt;</text>
</a>
</g>
</g>
<!-- Node1&#45;&gt;Node0 -->
<g id="edge1" class="edge">
<title>Node1&#45;&gt;Node0</title>
<path fill="none" stroke="#191970" d="M71.751,-46.1001C71.751,-36.5157 71.751,-26.0935 71.751,-18.831"/>
<polygon fill="#191970" stroke="#191970" points="68.2511,-46.352 71.751,-56.3521 75.2511,-46.3521 68.2511,-46.352"/>
</g>
<!-- Node2 -->
<g id="node3" class="node">
<title>Node2</title>
<g id="a_node3"><a xlink:href="classManifold.html" target="_top" xlink:title="Manifold\&lt; dim, spacedim \&gt;">
<polygon fill="#ffffff" stroke="#000000" points="0,-197.5 0,-215.5 135.502,-215.5 135.502,-197.5 0,-197.5"/>
<text text-anchor="middle" x="67.751" y="-203.5" font-family="Helvetica,sans-Serif" font-size="10.00" fill="#000000">Manifold&lt; dim, spacedim &gt;</text>
</a>
</g>
</g>
<!-- Node2&#45;&gt;Node1 -->
<g id="edge2" class="edge">
<title>Node2&#45;&gt;Node1</title>
<path fill="none" stroke="#191970" d="M68.3212,-187.1119C69.1361,-159.4066 70.6145,-109.1399 71.3345,-84.6595"/>
<polygon fill="#191970" stroke="#191970" points="64.8215,-187.0536 68.0259,-197.1522 71.8185,-187.2594 64.8215,-187.0536"/>
</g>
<!-- Node4 -->
<g id="node5" class="node">
<title>Node4</title>
<g id="a_node5"><a xlink:href="classChartManifold.html" target="_top" xlink:title="ChartManifold\&lt; dim,\l spacedim, chartdim \&gt;">
<polygon fill="#ffffff" stroke="#000000" points="83.7031,-131.5 83.7031,-159.5 197.7988,-159.5 197.7988,-131.5 83.7031,-131.5"/>
<text text-anchor="start" x="91.7031" y="-147.5" font-family="Helvetica,sans-Serif" font-size="10.00" fill="#000000">ChartManifold&lt; dim,</text>
<text text-anchor="middle" x="140.751" y="-137.5" font-family="Helvetica,sans-Serif" font-size="10.00" fill="#000000"> spacedim, chartdim &gt;</text>
</a>
</g>
</g>
<!-- Node2&#45;&gt;Node4 -->
<g id="edge5" class="edge">
<title>Node2&#45;&gt;Node4</title>
<path fill="none" stroke="#191970" d="M86.3039,-190.9968C97.9058,-181.3022 112.7283,-168.9162 123.9775,-159.5162"/>
<polygon fill="#191970" stroke="#191970" points="83.9517,-188.4013 78.5224,-197.4992 88.4403,-193.7728 83.9517,-188.4013"/>
</g>
<!-- Node3 -->
<g id="node4" class="node">
<title>Node3</title>
<g id="a_node4"><a xlink:href="classSubscriptor.html" target="_top" xlink:title="Subscriptor">
<polygon fill="#ffffff" stroke="#000000" points="34.4629,-253.5 34.4629,-271.5 101.0391,-271.5 101.0391,-253.5 34.4629,-253.5"/>
<text text-anchor="middle" x="67.751" y="-259.5" font-family="Helvetica,sans-Serif" font-size="10.00" fill="#000000">Subscriptor</text>
</a>
</g>
</g>
<!-- Node3&#45;&gt;Node2 -->
<g id="edge3" class="edge">
<title>Node3&#45;&gt;Node2</title>
<path fill="none" stroke="#191970" d="M67.751,-243.2065C67.751,-233.8384 67.751,-223.0262 67.751,-215.5752"/>
<polygon fill="#191970" stroke="#191970" points="64.2511,-243.2527 67.751,-253.2527 71.2511,-243.2528 64.2511,-243.2527"/>
</g>
<!-- Node4&#45;&gt;Node1 -->
<g id="edge4" class="edge">
<title>Node4&#45;&gt;Node1</title>
<path fill="none" stroke="#ffa500" stroke-dasharray="5,2" d="M120.9323,-123.9579C109.276,-111.288 94.871,-95.6305 84.6712,-84.5437"/>
<polygon fill="#ffa500" stroke="#ffa500" points="118.4262,-126.4034 127.7726,-131.3931 123.5778,-121.664 118.4262,-126.4034"/>
<text text-anchor="middle" x="138.9331" y="-105" font-family="Helvetica,sans-Serif" font-size="10.00" fill="#000000"> &lt; dim, 3, 3 &gt;</text>
</g>
</g>
</svg>
