<?xml version="1.0" encoding="UTF-8" standalone="no"?>
<!DOCTYPE svg PUBLIC "-//W3C//DTD SVG 1.1//EN"
 "http://www.w3.org/Graphics/SVG/1.1/DTD/svg11.dtd">
<!-- Generated by graphviz version 2.40.1 (20161225.0304)
 -->
<!-- Title: DoFCellAccessor&lt; DoFHandlerType, level_dof_access &gt; Pages: 1 -->
<svg width="1065pt" height="81pt"
 viewBox="0.00 0.00 1065.27 81.00" xmlns="http://www.w3.org/2000/svg" xmlns:xlink="http://www.w3.org/1999/xlink">
<g id="graph0" class="graph" transform="scale(1 1) rotate(0) translate(4 77)">
<title>DoFCellAccessor&lt; DoFHandlerType, level_dof_access &gt;</title>
<polygon fill="#ffffff" stroke="transparent" points="-4,4 -4,-77 1061.2734,-77 1061.2734,4 -4,4"/>
<!-- Node0 -->
<g id="node1" class="node">
<title>Node0</title>
<polygon fill="#bfbfbf" stroke="#000000" points="901.5029,-29.5 901.5029,-57.5 1057.2734,-57.5 1057.2734,-29.5 901.5029,-29.5"/>
<text text-anchor="start" x="909.5029" y="-45.5" font-family="Helvetica,sans-Serif" font-size="10.00" fill="#000000">DoFCellAccessor&lt; DoFHandler</text>
<text text-anchor="middle" x="979.3882" y="-35.5" font-family="Helvetica,sans-Serif" font-size="10.00" fill="#000000">Type, level_dof_access &gt;</text>
</g>
<!-- Node1 -->
<g id="node2" class="node">
<title>Node1</title>
<g id="a_node2"><a xlink:href="classDoFAccessor.html" target="_top" xlink:title="DoFAccessor\&lt; DoFHandlerType\l::dimension, DoFHandlerType,\l level_dof_access \&gt;">
<polygon fill="#ffffff" stroke="#000000" points="704.8213,-24.5 704.8213,-62.5 864.5029,-62.5 864.5029,-24.5 704.8213,-24.5"/>
<text text-anchor="start" x="712.8213" y="-50.5" font-family="Helvetica,sans-Serif" font-size="10.00" fill="#000000">DoFAccessor&lt; DoFHandlerType</text>
<text text-anchor="start" x="712.8213" y="-40.5" font-family="Helvetica,sans-Serif" font-size="10.00" fill="#000000">::dimension, DoFHandlerType,</text>
<text text-anchor="middle" x="784.6621" y="-30.5" font-family="Helvetica,sans-Serif" font-size="10.00" fill="#000000"> level_dof_access &gt;</text>
</a>
</g>
</g>
<!-- Node1&#45;&gt;Node0 -->
<g id="edge1" class="edge">
<title>Node1&#45;&gt;Node0</title>
<path fill="none" stroke="#191970" d="M874.9559,-43.5C883.7306,-43.5 892.5823,-43.5 901.2239,-43.5"/>
<polygon fill="#191970" stroke="#191970" points="874.7077,-40.0001 864.7076,-43.5 874.7076,-47.0001 874.7077,-40.0001"/>
</g>
<!-- Node2 -->
<g id="node3" class="node">
<title>Node2</title>
<g id="a_node3"><a xlink:href="classTriaAccessor.html" target="_top" xlink:title="internal::DoFAccessor\l::Inheritance\&lt; structdim,\l DoFHandlerType::dimension,\l DoFHandlerType::space_dimension\l \&gt;::BaseClass">
<polygon fill="#ffffff" stroke="#000000" points="185.7295,-14.5 185.7295,-72.5 363.4873,-72.5 363.4873,-14.5 185.7295,-14.5"/>
<text text-anchor="start" x="193.7295" y="-60.5" font-family="Helvetica,sans-Serif" font-size="10.00" fill="#000000">internal::DoFAccessor</text>
<text text-anchor="start" x="193.7295" y="-50.5" font-family="Helvetica,sans-Serif" font-size="10.00" fill="#000000">::Inheritance&lt; structdim,</text>
<text text-anchor="start" x="193.7295" y="-40.5" font-family="Helvetica,sans-Serif" font-size="10.00" fill="#000000"> DoFHandlerType::dimension,</text>
<text text-anchor="start" x="193.7295" y="-30.5" font-family="Helvetica,sans-Serif" font-size="10.00" fill="#000000"> DoFHandlerType::space_dimension</text>
<text text-anchor="middle" x="274.6084" y="-20.5" font-family="Helvetica,sans-Serif" font-size="10.00" fill="#000000"> &gt;::BaseClass</text>
</a>
</g>
</g>
<!-- Node2&#45;&gt;Node1 -->
<g id="edge2" class="edge">
<title>Node2&#45;&gt;Node1</title>
<path fill="none" stroke="#191970" d="M373.502,-50.0655C457.0396,-54.6128 579.8206,-58.9539 686.8213,-53.5 692.6192,-53.2045 698.6028,-52.8111 704.6206,-52.351"/>
<polygon fill="#191970" stroke="#191970" points="373.6915,-46.5707 363.5128,-49.5106 373.3032,-53.56 373.6915,-46.5707"/>
</g>
<!-- Node4 -->
<g id="node5" class="node">
<title>Node4</title>
<g id="a_node5"><a xlink:href="classDoFAccessor.html" target="_top" xlink:title="DoFAccessor\&lt; structdim,\l DoFHandlerType, level\l_dof_access \&gt;">
<polygon fill="#ffffff" stroke="#000000" points="400.4873,-.5 400.4873,-38.5 527.9131,-38.5 527.9131,-.5 400.4873,-.5"/>
<text text-anchor="start" x="408.4873" y="-26.5" font-family="Helvetica,sans-Serif" font-size="10.00" fill="#000000">DoFAccessor&lt; structdim,</text>
<text text-anchor="start" x="408.4873" y="-16.5" font-family="Helvetica,sans-Serif" font-size="10.00" fill="#000000"> DoFHandlerType, level</text>
<text text-anchor="middle" x="464.2002" y="-6.5" font-family="Helvetica,sans-Serif" font-size="10.00" fill="#000000">_dof_access &gt;</text>
</a>
</g>
</g>
<!-- Node2&#45;&gt;Node4 -->
<g id="edge5" class="edge">
<title>Node2&#45;&gt;Node4</title>
<path fill="none" stroke="#191970" d="M373.7688,-30.9475C382.7928,-29.8052 391.764,-28.6695 400.3543,-27.5821"/>
<polygon fill="#191970" stroke="#191970" points="373.0566,-27.5096 363.5754,-32.2379 373.9358,-34.4542 373.0566,-27.5096"/>
</g>
<!-- Node3 -->
<g id="node4" class="node">
<title>Node3</title>
<g id="a_node4"><a xlink:href="classTriaAccessorBase.html" target="_top" xlink:title="TriaAccessorBase\&lt; structdim,\l dim, spacedim \&gt;">
<polygon fill="#ffffff" stroke="#000000" points="0,-29.5 0,-57.5 148.7295,-57.5 148.7295,-29.5 0,-29.5"/>
<text text-anchor="start" x="8" y="-45.5" font-family="Helvetica,sans-Serif" font-size="10.00" fill="#000000">TriaAccessorBase&lt; structdim,</text>
<text text-anchor="middle" x="74.3647" y="-35.5" font-family="Helvetica,sans-Serif" font-size="10.00" fill="#000000"> dim, spacedim &gt;</text>
</a>
</g>
</g>
<!-- Node3&#45;&gt;Node2 -->
<g id="edge3" class="edge">
<title>Node3&#45;&gt;Node2</title>
<path fill="none" stroke="#191970" d="M159.0731,-43.5C167.7915,-43.5 176.6698,-43.5 185.4347,-43.5"/>
<polygon fill="#191970" stroke="#191970" points="158.9281,-40.0001 148.9281,-43.5 158.9281,-47.0001 158.9281,-40.0001"/>
</g>
<!-- Node4&#45;&gt;Node1 -->
<g id="edge4" class="edge">
<title>Node4&#45;&gt;Node1</title>
<path fill="none" stroke="#ffa500" stroke-dasharray="5,2" d="M538.4005,-17.4354C581.7927,-17.0746 637.5551,-18.0687 686.8213,-23.5 692.6805,-24.1459 698.7093,-24.9731 704.7591,-25.9219"/>
<polygon fill="#ffa500" stroke="#ffa500" points="538.1738,-13.9375 528.2127,-17.5467 538.2503,-20.9371 538.1738,-13.9375"/>
<text text-anchor="start" x="545.9131" y="-45.5" font-family="Helvetica,sans-Serif" font-size="10.00" fill="#000000"> &lt; DoFHandlerType::dimension,</text>
<text text-anchor="start" x="545.9131" y="-35.5" font-family="Helvetica,sans-Serif" font-size="10.00" fill="#000000"> DoFHandlerType, level_dof</text>
<text text-anchor="middle" x="616.3672" y="-25.5" font-family="Helvetica,sans-Serif" font-size="10.00" fill="#000000">_access &gt;</text>
</g>
</g>
</svg>
