<?xml version="1.0" encoding="UTF-8" standalone="no"?>
<!DOCTYPE svg PUBLIC "-//W3C//DTD SVG 1.1//EN"
 "http://www.w3.org/Graphics/SVG/1.1/DTD/svg11.dtd">
<!-- Generated by graphviz version 2.40.1 (20161225.0304)
 -->
<!-- Title: TriaAccessor&lt; structdim, dim, spacedim &gt; Pages: 1 -->
<svg width="1119pt" height="133pt"
 viewBox="0.00 0.00 1118.60 132.50" xmlns="http://www.w3.org/2000/svg" xmlns:xlink="http://www.w3.org/1999/xlink">
<g id="graph0" class="graph" transform="scale(1 1) rotate(0) translate(4 128.5)">
<title>TriaAccessor&lt; structdim, dim, spacedim &gt;</title>
<polygon fill="#ffffff" stroke="transparent" points="-4,4 -4,-128.5 1114.6045,-128.5 1114.6045,4 -4,4"/>
<!-- Node0 -->
<g id="node1" class="node">
<title>Node0</title>
<polygon fill="#bfbfbf" stroke="#000000" points="185.7295,-43.5 185.7295,-71.5 311.666,-71.5 311.666,-43.5 185.7295,-43.5"/>
<text text-anchor="start" x="193.7295" y="-59.5" font-family="Helvetica,sans-Serif" font-size="10.00" fill="#000000">TriaAccessor&lt; structdim,</text>
<text text-anchor="middle" x="248.6978" y="-49.5" font-family="Helvetica,sans-Serif" font-size="10.00" fill="#000000"> dim, spacedim &gt;</text>
</g>
<!-- Node2 -->
<g id="node3" class="node">
<title>Node2</title>
<g id="a_node3"><a xlink:href="classDoFAccessor.html" target="_top" xlink:title="DoFAccessor\&lt; structdim,\l dim, spacedim \&gt;">
<polygon fill="#ffffff" stroke="#000000" points="453.8184,-86.5 453.8184,-114.5 581.2441,-114.5 581.2441,-86.5 453.8184,-86.5"/>
<text text-anchor="start" x="461.8184" y="-102.5" font-family="Helvetica,sans-Serif" font-size="10.00" fill="#000000">DoFAccessor&lt; structdim,</text>
<text text-anchor="middle" x="517.5313" y="-92.5" font-family="Helvetica,sans-Serif" font-size="10.00" fill="#000000"> dim, spacedim &gt;</text>
</a>
</g>
</g>
<!-- Node0&#45;&gt;Node2 -->
<g id="edge2" class="edge">
<title>Node0&#45;&gt;Node2</title>
<path fill="none" stroke="#191970" d="M321.9777,-70.2315C324.5718,-70.6628 327.1407,-71.0868 329.666,-71.5 370.8654,-78.2412 417.2202,-85.4012 453.5756,-90.9202"/>
<polygon fill="#191970" stroke="#191970" points="322.328,-66.7414 311.8868,-68.5393 321.1702,-73.645 322.328,-66.7414"/>
</g>
<!-- Node3 -->
<g id="node4" class="node">
<title>Node3</title>
<g id="a_node4"><a xlink:href="classDoFAccessor.html" target="_top" xlink:title="DoFAccessor\&lt; DoFHandlerType\l::dimension, DoFHandlerType,\l level_dof_access \&gt;">
<polygon fill="#ffffff" stroke="#000000" points="758.1523,-59.5 758.1523,-97.5 917.834,-97.5 917.834,-59.5 758.1523,-59.5"/>
<text text-anchor="start" x="766.1523" y="-85.5" font-family="Helvetica,sans-Serif" font-size="10.00" fill="#000000">DoFAccessor&lt; DoFHandlerType</text>
<text text-anchor="start" x="766.1523" y="-75.5" font-family="Helvetica,sans-Serif" font-size="10.00" fill="#000000">::dimension, DoFHandlerType,</text>
<text text-anchor="middle" x="837.9932" y="-65.5" font-family="Helvetica,sans-Serif" font-size="10.00" fill="#000000"> level_dof_access &gt;</text>
</a>
</g>
</g>
<!-- Node0&#45;&gt;Node3 -->
<g id="edge5" class="edge">
<title>Node0&#45;&gt;Node3</title>
<path fill="none" stroke="#191970" d="M321.8669,-60.1074C432.9151,-64.0647 643.2012,-71.5584 758.1063,-75.6532"/>
<polygon fill="#191970" stroke="#191970" points="321.881,-56.6058 311.7627,-59.7474 321.6317,-63.6014 321.881,-56.6058"/>
</g>
<!-- Node5 -->
<g id="node6" class="node">
<title>Node5</title>
<g id="a_node6"><a xlink:href="classTriaAccessor.html" target="_top" xlink:title="TriaAccessor\&lt; dim,\l dim, spacedim \&gt;">
<polygon fill="#ffffff" stroke="#000000" points="466.7871,-.5 466.7871,-28.5 568.2754,-28.5 568.2754,-.5 466.7871,-.5"/>
<text text-anchor="start" x="474.7871" y="-16.5" font-family="Helvetica,sans-Serif" font-size="10.00" fill="#000000">TriaAccessor&lt; dim,</text>
<text text-anchor="middle" x="517.5313" y="-6.5" font-family="Helvetica,sans-Serif" font-size="10.00" fill="#000000"> dim, spacedim &gt;</text>
</a>
</g>
</g>
<!-- Node0&#45;&gt;Node5 -->
<g id="edge6" class="edge">
<title>Node0&#45;&gt;Node5</title>
<path fill="none" stroke="#ffa500" stroke-dasharray="5,2" d="M300.5825,-40.5601C310.1748,-37.8752 320.164,-35.3716 329.666,-33.5 375.4996,-24.4723 428.5173,-19.6078 466.5197,-17.069"/>
<polygon fill="#ffa500" stroke="#ffa500" points="299.3976,-37.2594 290.7671,-43.4047 301.3462,-43.9827 299.3976,-37.2594"/>
<text text-anchor="middle" x="382.7422" y="-35.5" font-family="Helvetica,sans-Serif" font-size="10.00" fill="#000000"> &lt; dim, dim, spacedim &gt;</text>
</g>
<!-- Node1 -->
<g id="node2" class="node">
<title>Node1</title>
<g id="a_node2"><a xlink:href="classTriaAccessorBase.html" target="_top" xlink:title="TriaAccessorBase\&lt; structdim,\l dim, spacedim \&gt;">
<polygon fill="#ffffff" stroke="#000000" points="0,-43.5 0,-71.5 148.7295,-71.5 148.7295,-43.5 0,-43.5"/>
<text text-anchor="start" x="8" y="-59.5" font-family="Helvetica,sans-Serif" font-size="10.00" fill="#000000">TriaAccessorBase&lt; structdim,</text>
<text text-anchor="middle" x="74.3647" y="-49.5" font-family="Helvetica,sans-Serif" font-size="10.00" fill="#000000"> dim, spacedim &gt;</text>
</a>
</g>
</g>
<!-- Node1&#45;&gt;Node0 -->
<g id="edge1" class="edge">
<title>Node1&#45;&gt;Node0</title>
<path fill="none" stroke="#191970" d="M158.8805,-57.5C167.8379,-57.5 176.8327,-57.5 185.4861,-57.5"/>
<polygon fill="#191970" stroke="#191970" points="158.8033,-54.0001 148.8033,-57.5 158.8033,-61.0001 158.8033,-54.0001"/>
</g>
<!-- Node2&#45;&gt;Node3 -->
<g id="edge3" class="edge">
<title>Node2&#45;&gt;Node3</title>
<path fill="none" stroke="#ffa500" stroke-dasharray="5,2" d="M591.6745,-95.41C641.5006,-91.9894 707.123,-87.4844 758.1052,-83.9844"/>
<polygon fill="#ffa500" stroke="#ffa500" points="591.3481,-91.9241 581.6113,-96.1008 591.8276,-98.9076 591.3481,-91.9241"/>
<text text-anchor="start" x="599.2441" y="-116.5" font-family="Helvetica,sans-Serif" font-size="10.00" fill="#000000"> &lt; DoFHandlerType::dimension,</text>
<text text-anchor="start" x="599.2441" y="-106.5" font-family="Helvetica,sans-Serif" font-size="10.00" fill="#000000"> DoFHandlerType, level_dof</text>
<text text-anchor="middle" x="669.6982" y="-96.5" font-family="Helvetica,sans-Serif" font-size="10.00" fill="#000000">_access &gt;</text>
</g>
<!-- Node4 -->
<g id="node5" class="node">
<title>Node4</title>
<g id="a_node5"><a xlink:href="classDoFCellAccessor.html" target="_top" xlink:title="DoFCellAccessor\&lt; DoFHandler\lType, level_dof_access \&gt;">
<polygon fill="#ffffff" stroke="#000000" points="954.834,-64.5 954.834,-92.5 1110.6045,-92.5 1110.6045,-64.5 954.834,-64.5"/>
<text text-anchor="start" x="962.834" y="-80.5" font-family="Helvetica,sans-Serif" font-size="10.00" fill="#000000">DoFCellAccessor&lt; DoFHandler</text>
<text text-anchor="middle" x="1032.7192" y="-70.5" font-family="Helvetica,sans-Serif" font-size="10.00" fill="#000000">Type, level_dof_access &gt;</text>
</a>
</g>
</g>
<!-- Node3&#45;&gt;Node4 -->
<g id="edge4" class="edge">
<title>Node3&#45;&gt;Node4</title>
<path fill="none" stroke="#191970" d="M928.2869,-78.5C937.0616,-78.5 945.9134,-78.5 954.555,-78.5"/>
<polygon fill="#191970" stroke="#191970" points="928.0387,-75.0001 918.0387,-78.5 928.0387,-82.0001 928.0387,-75.0001"/>
</g>
<!-- Node6 -->
<g id="node7" class="node">
<title>Node6</title>
<g id="a_node7"><a xlink:href="classCellAccessor.html" target="_top" xlink:title="CellAccessor\&lt; dim,\l spacedim \&gt;">
<polygon fill="#ffffff" stroke="#000000" points="787.0635,-.5 787.0635,-28.5 888.9229,-28.5 888.9229,-.5 787.0635,-.5"/>
<text text-anchor="start" x="795.0635" y="-16.5" font-family="Helvetica,sans-Serif" font-size="10.00" fill="#000000">CellAccessor&lt; dim,</text>
<text text-anchor="middle" x="837.9932" y="-6.5" font-family="Helvetica,sans-Serif" font-size="10.00" fill="#000000"> spacedim &gt;</text>
</a>
</g>
</g>
<!-- Node5&#45;&gt;Node6 -->
<g id="edge7" class="edge">
<title>Node5&#45;&gt;Node6</title>
<path fill="none" stroke="#191970" d="M578.4623,-14.5C638.8318,-14.5 730.2461,-14.5 786.923,-14.5"/>
<polygon fill="#191970" stroke="#191970" points="578.3094,-11.0001 568.3094,-14.5 578.3094,-18.0001 578.3094,-11.0001"/>
</g>
</g>
</svg>
