<?xml version="1.0" encoding="UTF-8" standalone="no"?>
<!DOCTYPE svg PUBLIC "-//W3C//DTD SVG 1.1//EN"
 "http://www.w3.org/Graphics/SVG/1.1/DTD/svg11.dtd">
<!-- Generated by graphviz version 2.40.1 (20161225.0304)
 -->
<!-- Title: MappingQEulerian&lt; dim, VectorType, spacedim &gt;::MappingQEulerianGeneric::SupportQuadrature Pages: 1 -->
<svg width="156pt" height="167pt"
 viewBox="0.00 0.00 156.02 167.00" xmlns="http://www.w3.org/2000/svg" xmlns:xlink="http://www.w3.org/1999/xlink">
<g id="graph0" class="graph" transform="scale(1 1) rotate(0) translate(4 163)">
<title>MappingQEulerian&lt; dim, VectorType, spacedim &gt;::MappingQEulerianGeneric::SupportQuadrature</title>
<polygon fill="#ffffff" stroke="transparent" points="-4,4 -4,-163 152.0166,-163 152.0166,4 -4,4"/>
<!-- Node0 -->
<g id="node1" class="node">
<title>Node0</title>
<polygon fill="#bfbfbf" stroke="#000000" points="0,-.5 0,-48.5 148.0166,-48.5 148.0166,-.5 0,-.5"/>
<text text-anchor="start" x="8" y="-36.5" font-family="Helvetica,sans-Serif" font-size="10.00" fill="#000000">MappingQEulerian&lt; dim,</text>
<text text-anchor="start" x="8" y="-26.5" font-family="Helvetica,sans-Serif" font-size="10.00" fill="#000000"> VectorType, spacedim</text>
<text text-anchor="start" x="8" y="-16.5" font-family="Helvetica,sans-Serif" font-size="10.00" fill="#000000"> &gt;::MappingQEulerianGeneric</text>
<text text-anchor="middle" x="74.0083" y="-6.5" font-family="Helvetica,sans-Serif" font-size="10.00" fill="#000000">::SupportQuadrature</text>
</g>
<!-- Node1 -->
<g id="node2" class="node">
<title>Node1</title>
<g id="a_node2"><a xlink:href="classQuadrature.html" target="_top" xlink:title="Quadrature\&lt; dim \&gt;">
<polygon fill="#ffffff" stroke="#000000" points="24.0405,-85.5 24.0405,-103.5 123.9761,-103.5 123.9761,-85.5 24.0405,-85.5"/>
<text text-anchor="middle" x="74.0083" y="-91.5" font-family="Helvetica,sans-Serif" font-size="10.00" fill="#000000">Quadrature&lt; dim &gt;</text>
</a>
</g>
</g>
<!-- Node1&#45;&gt;Node0 -->
<g id="edge1" class="edge">
<title>Node1&#45;&gt;Node0</title>
<path fill="none" stroke="#191970" d="M74.0083,-75.2935C74.0083,-67.0842 74.0083,-57.4082 74.0083,-48.7156"/>
<polygon fill="#191970" stroke="#191970" points="70.5084,-75.3487 74.0083,-85.3487 77.5084,-75.3488 70.5084,-75.3487"/>
</g>
<!-- Node2 -->
<g id="node3" class="node">
<title>Node2</title>
<g id="a_node3"><a xlink:href="classSubscriptor.html" target="_top" xlink:title="Subscriptor">
<polygon fill="#ffffff" stroke="#000000" points="40.7202,-140.5 40.7202,-158.5 107.2964,-158.5 107.2964,-140.5 40.7202,-140.5"/>
<text text-anchor="middle" x="74.0083" y="-146.5" font-family="Helvetica,sans-Serif" font-size="10.00" fill="#000000">Subscriptor</text>
</a>
</g>
</g>
<!-- Node2&#45;&gt;Node1 -->
<g id="edge2" class="edge">
<title>Node2&#45;&gt;Node1</title>
<path fill="none" stroke="#191970" d="M74.0083,-130.383C74.0083,-121.3738 74.0083,-111.0373 74.0083,-103.7795"/>
<polygon fill="#191970" stroke="#191970" points="70.5084,-130.4178 74.0083,-140.4179 77.5084,-130.4179 70.5084,-130.4178"/>
</g>
</g>
</svg>
