<?xml version="1.0" encoding="UTF-8" standalone="no"?>
<!DOCTYPE svg PUBLIC "-//W3C//DTD SVG 1.1//EN"
 "http://www.w3.org/Graphics/SVG/1.1/DTD/svg11.dtd">
<!-- Generated by graphviz version 2.40.1 (20161225.0304)
 -->
<!-- Title: MGMatrixSelect&lt; MatrixType, number &gt; Pages: 1 -->
<svg width="243pt" height="224pt"
 viewBox="0.00 0.00 243.41 224.00" xmlns="http://www.w3.org/2000/svg" xmlns:xlink="http://www.w3.org/1999/xlink">
<g id="graph0" class="graph" transform="scale(1 1) rotate(0) translate(4 220)">
<title>MGMatrixSelect&lt; MatrixType, number &gt;</title>
<polygon fill="#ffffff" stroke="transparent" points="-4,4 -4,-220 239.4121,-220 239.4121,4 -4,4"/>
<!-- Node0 -->
<g id="node1" class="node">
<title>Node0</title>
<polygon fill="#bfbfbf" stroke="#000000" points="0,-.5 0,-28.5 147.4258,-28.5 147.4258,-.5 0,-.5"/>
<text text-anchor="start" x="8" y="-16.5" font-family="Helvetica,sans-Serif" font-size="10.00" fill="#000000">MGMatrixSelect&lt; MatrixType,</text>
<text text-anchor="middle" x="73.7129" y="-6.5" font-family="Helvetica,sans-Serif" font-size="10.00" fill="#000000"> number &gt;</text>
</g>
<!-- Node1 -->
<g id="node2" class="node">
<title>Node1</title>
<g id="a_node2"><a xlink:href="classMGMatrixBase.html" target="_top" xlink:title="MGMatrixBase\&lt; Vector\l\&lt; number \&gt; \&gt;">
<polygon fill="#ffffff" stroke="#000000" points="14.165,-66.5 14.165,-94.5 133.2607,-94.5 133.2607,-66.5 14.165,-66.5"/>
<text text-anchor="start" x="22.165" y="-82.5" font-family="Helvetica,sans-Serif" font-size="10.00" fill="#000000">MGMatrixBase&lt; Vector</text>
<text text-anchor="middle" x="73.7129" y="-72.5" font-family="Helvetica,sans-Serif" font-size="10.00" fill="#000000">&lt; number &gt; &gt;</text>
</a>
</g>
</g>
<!-- Node1&#45;&gt;Node0 -->
<g id="edge1" class="edge">
<title>Node1&#45;&gt;Node0</title>
<path fill="none" stroke="#191970" d="M73.7129,-56.0322C73.7129,-46.8606 73.7129,-36.7449 73.7129,-28.7931"/>
<polygon fill="#191970" stroke="#191970" points="70.213,-56.1789 73.7129,-66.179 77.213,-56.179 70.213,-56.1789"/>
</g>
<!-- Node2 -->
<g id="node3" class="node">
<title>Node2</title>
<g id="a_node3"><a xlink:href="classSubscriptor.html" target="_top" xlink:title="Subscriptor">
<polygon fill="#ffffff" stroke="#000000" points="36.4248,-197.5 36.4248,-215.5 103.001,-215.5 103.001,-197.5 36.4248,-197.5"/>
<text text-anchor="middle" x="69.7129" y="-203.5" font-family="Helvetica,sans-Serif" font-size="10.00" fill="#000000">Subscriptor</text>
</a>
</g>
</g>
<!-- Node2&#45;&gt;Node1 -->
<g id="edge2" class="edge">
<title>Node2&#45;&gt;Node1</title>
<path fill="none" stroke="#191970" d="M70.3259,-187.1897C71.1356,-161.6844 72.5428,-117.3578 73.2618,-94.7089"/>
<polygon fill="#191970" stroke="#191970" points="66.8197,-187.3323 70.0006,-197.4384 73.8162,-187.5545 66.8197,-187.3323"/>
</g>
<!-- Node3 -->
<g id="node4" class="node">
<title>Node3</title>
<g id="a_node4"><a xlink:href="classMGMatrixBase.html" target="_top" xlink:title="MGMatrixBase\&lt; VectorType \&gt;">
<polygon fill="#ffffff" stroke="#000000" points="86.0137,-141.5 86.0137,-159.5 235.4121,-159.5 235.4121,-141.5 86.0137,-141.5"/>
<text text-anchor="middle" x="160.7129" y="-147.5" font-family="Helvetica,sans-Serif" font-size="10.00" fill="#000000">MGMatrixBase&lt; VectorType &gt;</text>
</a>
</g>
</g>
<!-- Node2&#45;&gt;Node3 -->
<g id="edge4" class="edge">
<title>Node2&#45;&gt;Node3</title>
<path fill="none" stroke="#191970" d="M93.3762,-191.938C110.0116,-181.7008 131.752,-168.3221 145.9657,-159.5752"/>
<polygon fill="#191970" stroke="#191970" points="91.4219,-189.0309 84.7397,-197.2527 95.0906,-194.9925 91.4219,-189.0309"/>
</g>
<!-- Node3&#45;&gt;Node1 -->
<g id="edge3" class="edge">
<title>Node3&#45;&gt;Node1</title>
<path fill="none" stroke="#ffa500" stroke-dasharray="5,2" d="M141.2739,-134.8594C126.3457,-122.8482 105.9019,-106.3992 91.4235,-94.7499"/>
<polygon fill="#ffa500" stroke="#ffa500" points="139.3539,-137.8068 149.3392,-141.3487 143.742,-132.353 139.3539,-137.8068"/>
<text text-anchor="middle" x="174.4688" y="-115" font-family="Helvetica,sans-Serif" font-size="10.00" fill="#000000"> &lt; Vector&lt; number &gt; &gt;</text>
</g>
</g>
</svg>
