<?xml version="1.0" encoding="UTF-8" standalone="no"?>
<!DOCTYPE svg PUBLIC "-//W3C//DTD SVG 1.1//EN"
 "http://www.w3.org/Graphics/SVG/1.1/DTD/svg11.dtd">
<!-- Generated by graphviz version 2.40.1 (20161225.0304)
 -->
<!-- Title: HyperBallBoundary&lt; dim, spacedim &gt; Pages: 1 -->
<svg width="263pt" height="544pt"
 viewBox="0.00 0.00 262.72 544.00" xmlns="http://www.w3.org/2000/svg" xmlns:xlink="http://www.w3.org/1999/xlink">
<g id="graph0" class="graph" transform="scale(1 1) rotate(0) translate(4 540)">
<title>HyperBallBoundary&lt; dim, spacedim &gt;</title>
<polygon fill="#ffffff" stroke="transparent" points="-4,4 -4,-540 258.7212,-540 258.7212,4 -4,4"/>
<!-- Node0 -->
<g id="node1" class="node">
<title>Node0</title>
<polygon fill="#bfbfbf" stroke="#000000" points="17.9717,-207.5 17.9717,-235.5 125.9688,-235.5 125.9688,-207.5 17.9717,-207.5"/>
<text text-anchor="start" x="25.9717" y="-223.5" font-family="Helvetica,sans-Serif" font-size="10.00" fill="#000000">HyperBallBoundary&lt;</text>
<text text-anchor="middle" x="71.9702" y="-213.5" font-family="Helvetica,sans-Serif" font-size="10.00" fill="#000000"> dim, spacedim &gt;</text>
</g>
<!-- Node6 -->
<g id="node7" class="node">
<title>Node6</title>
<g id="a_node7"><a xlink:href="classHyperBallBoundary.html" target="_top" xlink:title="HyperBallBoundary\&lt;\l dim \&gt;">
<polygon fill="#ffffff" stroke="#000000" points="17.9717,-132.5 17.9717,-160.5 125.9688,-160.5 125.9688,-132.5 17.9717,-132.5"/>
<text text-anchor="start" x="25.9717" y="-148.5" font-family="Helvetica,sans-Serif" font-size="10.00" fill="#000000">HyperBallBoundary&lt;</text>
<text text-anchor="middle" x="71.9702" y="-138.5" font-family="Helvetica,sans-Serif" font-size="10.00" fill="#000000"> dim &gt;</text>
</a>
</g>
</g>
<!-- Node0&#45;&gt;Node6 -->
<g id="edge6" class="edge">
<title>Node0&#45;&gt;Node6</title>
<path fill="none" stroke="#ffa500" stroke-dasharray="5,2" d="M71.9702,-197.0415C71.9702,-184.9507 71.9702,-170.7938 71.9702,-160.5437"/>
<polygon fill="#ffa500" stroke="#ffa500" points="68.4703,-197.393 71.9702,-207.3931 75.4703,-197.3931 68.4703,-197.393"/>
<text text-anchor="middle" x="90.0342" y="-181" font-family="Helvetica,sans-Serif" font-size="10.00" fill="#000000"> &lt; dim &gt;</text>
</g>
<!-- Node1 -->
<g id="node2" class="node">
<title>Node1</title>
<g id="a_node2"><a xlink:href="classStraightBoundary.html" target="_top" xlink:title="StraightBoundary\&lt; dim,\l spacedim \&gt;">
<polygon fill="#ffffff" stroke="#000000" points="11.5801,-273.5 11.5801,-301.5 132.3604,-301.5 132.3604,-273.5 11.5801,-273.5"/>
<text text-anchor="start" x="19.5801" y="-289.5" font-family="Helvetica,sans-Serif" font-size="10.00" fill="#000000">StraightBoundary&lt; dim,</text>
<text text-anchor="middle" x="71.9702" y="-279.5" font-family="Helvetica,sans-Serif" font-size="10.00" fill="#000000"> spacedim &gt;</text>
</a>
</g>
</g>
<!-- Node1&#45;&gt;Node0 -->
<g id="edge1" class="edge">
<title>Node1&#45;&gt;Node0</title>
<path fill="none" stroke="#191970" d="M71.9702,-263.0322C71.9702,-253.8606 71.9702,-243.7449 71.9702,-235.7931"/>
<polygon fill="#191970" stroke="#191970" points="68.4703,-263.1789 71.9702,-273.179 75.4703,-263.179 68.4703,-263.1789"/>
</g>
<!-- Node2 -->
<g id="node3" class="node">
<title>Node2</title>
<g id="a_node3"><a xlink:href="classBoundary.html" target="_top" xlink:title="Boundary\&lt; dim, spacedim \&gt;">
<polygon fill="#ffffff" stroke="#000000" points="1.7144,-339.5 1.7144,-357.5 142.2261,-357.5 142.2261,-339.5 1.7144,-339.5"/>
<text text-anchor="middle" x="71.9702" y="-345.5" font-family="Helvetica,sans-Serif" font-size="10.00" fill="#000000">Boundary&lt; dim, spacedim &gt;</text>
</a>
</g>
</g>
<!-- Node2&#45;&gt;Node1 -->
<g id="edge2" class="edge">
<title>Node2&#45;&gt;Node1</title>
<path fill="none" stroke="#191970" d="M71.9702,-329.2842C71.9702,-320.3664 71.9702,-309.9504 71.9702,-301.7488"/>
<polygon fill="#191970" stroke="#191970" points="68.4703,-329.4992 71.9702,-339.4992 75.4703,-329.4993 68.4703,-329.4992"/>
</g>
<!-- Node3 -->
<g id="node4" class="node">
<title>Node3</title>
<g id="a_node4"><a xlink:href="classFlatManifold.html" target="_top" xlink:title="FlatManifold\&lt; dim,\l spacedim \&gt;">
<polygon fill="#ffffff" stroke="#000000" points="22.9814,-395.5 22.9814,-423.5 120.959,-423.5 120.959,-395.5 22.9814,-395.5"/>
<text text-anchor="start" x="30.9814" y="-411.5" font-family="Helvetica,sans-Serif" font-size="10.00" fill="#000000">FlatManifold&lt; dim,</text>
<text text-anchor="middle" x="71.9702" y="-401.5" font-family="Helvetica,sans-Serif" font-size="10.00" fill="#000000"> spacedim &gt;</text>
</a>
</g>
</g>
<!-- Node3&#45;&gt;Node2 -->
<g id="edge3" class="edge">
<title>Node3&#45;&gt;Node2</title>
<path fill="none" stroke="#191970" d="M71.9702,-385.1001C71.9702,-375.5157 71.9702,-365.0935 71.9702,-357.831"/>
<polygon fill="#191970" stroke="#191970" points="68.4703,-385.352 71.9702,-395.3521 75.4703,-385.3521 68.4703,-385.352"/>
</g>
<!-- Node4 -->
<g id="node5" class="node">
<title>Node4</title>
<g id="a_node5"><a xlink:href="classManifold.html" target="_top" xlink:title="Manifold\&lt; dim, spacedim \&gt;">
<polygon fill="#ffffff" stroke="#000000" points="4.2192,-461.5 4.2192,-479.5 139.7212,-479.5 139.7212,-461.5 4.2192,-461.5"/>
<text text-anchor="middle" x="71.9702" y="-467.5" font-family="Helvetica,sans-Serif" font-size="10.00" fill="#000000">Manifold&lt; dim, spacedim &gt;</text>
</a>
</g>
</g>
<!-- Node4&#45;&gt;Node3 -->
<g id="edge4" class="edge">
<title>Node4&#45;&gt;Node3</title>
<path fill="none" stroke="#191970" d="M71.9702,-451.2842C71.9702,-442.3664 71.9702,-431.9504 71.9702,-423.7488"/>
<polygon fill="#191970" stroke="#191970" points="68.4703,-451.4992 71.9702,-461.4992 75.4703,-451.4993 68.4703,-451.4992"/>
</g>
<!-- Node5 -->
<g id="node6" class="node">
<title>Node5</title>
<g id="a_node6"><a xlink:href="classSubscriptor.html" target="_top" xlink:title="Subscriptor">
<polygon fill="#ffffff" stroke="#000000" points="38.6821,-517.5 38.6821,-535.5 105.2583,-535.5 105.2583,-517.5 38.6821,-517.5"/>
<text text-anchor="middle" x="71.9702" y="-523.5" font-family="Helvetica,sans-Serif" font-size="10.00" fill="#000000">Subscriptor</text>
</a>
</g>
</g>
<!-- Node5&#45;&gt;Node4 -->
<g id="edge5" class="edge">
<title>Node5&#45;&gt;Node4</title>
<path fill="none" stroke="#191970" d="M71.9702,-507.2065C71.9702,-497.8384 71.9702,-487.0262 71.9702,-479.5752"/>
<polygon fill="#191970" stroke="#191970" points="68.4703,-507.2527 71.9702,-517.2527 75.4703,-507.2528 68.4703,-507.2527"/>
</g>
<!-- Node7 -->
<g id="node8" class="node">
<title>Node7</title>
<g id="a_node8"><a xlink:href="classHalfHyperBallBoundary.html" target="_top" xlink:title="HalfHyperBallBoundary\l\&lt; dim \&gt;">
<polygon fill="#ffffff" stroke="#000000" points="0,-66.5 0,-94.5 119.9404,-94.5 119.9404,-66.5 0,-66.5"/>
<text text-anchor="start" x="8" y="-82.5" font-family="Helvetica,sans-Serif" font-size="10.00" fill="#000000">HalfHyperBallBoundary</text>
<text text-anchor="middle" x="59.9702" y="-72.5" font-family="Helvetica,sans-Serif" font-size="10.00" fill="#000000">&lt; dim &gt;</text>
</a>
</g>
</g>
<!-- Node6&#45;&gt;Node7 -->
<g id="edge7" class="edge">
<title>Node6&#45;&gt;Node7</title>
<path fill="none" stroke="#191970" d="M67.5758,-122.3309C65.894,-113.0807 64.0305,-102.8313 62.569,-94.7931"/>
<polygon fill="#191970" stroke="#191970" points="64.1339,-122.9664 69.3664,-132.179 71.021,-121.7142 64.1339,-122.9664"/>
</g>
<!-- Node8 -->
<g id="node9" class="node">
<title>Node8</title>
<g id="a_node9"><a xlink:href="classHyperShellBoundary.html" target="_top" xlink:title="HyperShellBoundary\l\&lt; dim \&gt;">
<polygon fill="#ffffff" stroke="#000000" points="138.1108,-66.5 138.1108,-94.5 245.8296,-94.5 245.8296,-66.5 138.1108,-66.5"/>
<text text-anchor="start" x="146.1108" y="-82.5" font-family="Helvetica,sans-Serif" font-size="10.00" fill="#000000">HyperShellBoundary</text>
<text text-anchor="middle" x="191.9702" y="-72.5" font-family="Helvetica,sans-Serif" font-size="10.00" fill="#000000">&lt; dim &gt;</text>
</a>
</g>
</g>
<!-- Node6&#45;&gt;Node8 -->
<g id="edge8" class="edge">
<title>Node6&#45;&gt;Node8</title>
<path fill="none" stroke="#191970" d="M106.6757,-127.412C125.7009,-116.9481 148.8795,-104.1999 166.2698,-94.6352"/>
<polygon fill="#191970" stroke="#191970" points="104.7887,-124.4553 97.7132,-132.3413 108.1621,-130.5889 104.7887,-124.4553"/>
</g>
<!-- Node9 -->
<g id="node10" class="node">
<title>Node9</title>
<g id="a_node10"><a xlink:href="classHalfHyperShellBoundary.html" target="_top" xlink:title="HalfHyperShellBoundary\l\&lt; dim \&gt;">
<polygon fill="#ffffff" stroke="#000000" points="129.2192,-.5 129.2192,-28.5 254.7212,-28.5 254.7212,-.5 129.2192,-.5"/>
<text text-anchor="start" x="137.2192" y="-16.5" font-family="Helvetica,sans-Serif" font-size="10.00" fill="#000000">HalfHyperShellBoundary</text>
<text text-anchor="middle" x="191.9702" y="-6.5" font-family="Helvetica,sans-Serif" font-size="10.00" fill="#000000">&lt; dim &gt;</text>
</a>
</g>
</g>
<!-- Node8&#45;&gt;Node9 -->
<g id="edge9" class="edge">
<title>Node8&#45;&gt;Node9</title>
<path fill="none" stroke="#191970" d="M191.9702,-56.0322C191.9702,-46.8606 191.9702,-36.7449 191.9702,-28.7931"/>
<polygon fill="#191970" stroke="#191970" points="188.4703,-56.1789 191.9702,-66.179 195.4703,-56.179 188.4703,-56.1789"/>
</g>
</g>
</svg>
