<?xml version="1.0" encoding="UTF-8" standalone="no"?>
<!DOCTYPE svg PUBLIC "-//W3C//DTD SVG 1.1//EN"
 "http://www.w3.org/Graphics/SVG/1.1/DTD/svg11.dtd">
<!-- Generated by graphviz version 2.40.1 (20161225.0304)
 -->
<!-- Title: OpenCASCADE::NormalToMeshProjectionBoundary&lt; dim, spacedim &gt; Pages: 1 -->
<svg width="170pt" height="277pt"
 viewBox="0.00 0.00 169.61 277.00" xmlns="http://www.w3.org/2000/svg" xmlns:xlink="http://www.w3.org/1999/xlink">
<g id="graph0" class="graph" transform="scale(1 1) rotate(0) translate(4 273)">
<title>OpenCASCADE::NormalToMeshProjectionBoundary&lt; dim, spacedim &gt;</title>
<polygon fill="#ffffff" stroke="transparent" points="-4,4 -4,-273 165.6055,-273 165.6055,4 -4,4"/>
<!-- Node0 -->
<g id="node1" class="node">
<title>Node0</title>
<polygon fill="#bfbfbf" stroke="#000000" points="0,-.5 0,-38.5 161.6055,-38.5 161.6055,-.5 0,-.5"/>
<text text-anchor="start" x="8" y="-26.5" font-family="Helvetica,sans-Serif" font-size="10.00" fill="#000000">OpenCASCADE::NormalToMesh</text>
<text text-anchor="start" x="8" y="-16.5" font-family="Helvetica,sans-Serif" font-size="10.00" fill="#000000">ProjectionBoundary&lt; dim,</text>
<text text-anchor="middle" x="80.8027" y="-6.5" font-family="Helvetica,sans-Serif" font-size="10.00" fill="#000000"> spacedim &gt;</text>
</g>
<!-- Node1 -->
<g id="node2" class="node">
<title>Node1</title>
<g id="a_node2"><a xlink:href="classBoundary.html" target="_top" xlink:title="Boundary\&lt; dim, spacedim \&gt;">
<polygon fill="#ffffff" stroke="#000000" points="10.5469,-75.5 10.5469,-93.5 151.0586,-93.5 151.0586,-75.5 10.5469,-75.5"/>
<text text-anchor="middle" x="80.8027" y="-81.5" font-family="Helvetica,sans-Serif" font-size="10.00" fill="#000000">Boundary&lt; dim, spacedim &gt;</text>
</a>
</g>
</g>
<!-- Node1&#45;&gt;Node0 -->
<g id="edge1" class="edge">
<title>Node1&#45;&gt;Node0</title>
<path fill="none" stroke="#191970" d="M80.8027,-65.4456C80.8027,-56.9924 80.8027,-47.066 80.8027,-38.6068"/>
<polygon fill="#191970" stroke="#191970" points="77.3028,-65.462 80.8027,-75.462 84.3028,-65.4621 77.3028,-65.462"/>
</g>
<!-- Node2 -->
<g id="node3" class="node">
<title>Node2</title>
<g id="a_node3"><a xlink:href="classFlatManifold.html" target="_top" xlink:title="FlatManifold\&lt; dim,\l spacedim \&gt;">
<polygon fill="#ffffff" stroke="#000000" points="31.814,-130.5 31.814,-158.5 129.7915,-158.5 129.7915,-130.5 31.814,-130.5"/>
<text text-anchor="start" x="39.814" y="-146.5" font-family="Helvetica,sans-Serif" font-size="10.00" fill="#000000">FlatManifold&lt; dim,</text>
<text text-anchor="middle" x="80.8027" y="-136.5" font-family="Helvetica,sans-Serif" font-size="10.00" fill="#000000"> spacedim &gt;</text>
</a>
</g>
</g>
<!-- Node2&#45;&gt;Node1 -->
<g id="edge2" class="edge">
<title>Node2&#45;&gt;Node1</title>
<path fill="none" stroke="#191970" d="M80.8027,-120.2151C80.8027,-110.8253 80.8027,-100.6598 80.8027,-93.5842"/>
<polygon fill="#191970" stroke="#191970" points="77.3028,-120.2808 80.8027,-130.2808 84.3028,-120.2809 77.3028,-120.2808"/>
</g>
<!-- Node3 -->
<g id="node4" class="node">
<title>Node3</title>
<g id="a_node4"><a xlink:href="classManifold.html" target="_top" xlink:title="Manifold\&lt; dim, spacedim \&gt;">
<polygon fill="#ffffff" stroke="#000000" points="13.0518,-195.5 13.0518,-213.5 148.5537,-213.5 148.5537,-195.5 13.0518,-195.5"/>
<text text-anchor="middle" x="80.8027" y="-201.5" font-family="Helvetica,sans-Serif" font-size="10.00" fill="#000000">Manifold&lt; dim, spacedim &gt;</text>
</a>
</g>
</g>
<!-- Node3&#45;&gt;Node2 -->
<g id="edge3" class="edge">
<title>Node3&#45;&gt;Node2</title>
<path fill="none" stroke="#191970" d="M80.8027,-185.1865C80.8027,-176.6283 80.8027,-166.7354 80.8027,-158.8477"/>
<polygon fill="#191970" stroke="#191970" points="77.3028,-185.3873 80.8027,-195.3873 84.3028,-185.3873 77.3028,-185.3873"/>
</g>
<!-- Node4 -->
<g id="node5" class="node">
<title>Node4</title>
<g id="a_node5"><a xlink:href="classSubscriptor.html" target="_top" xlink:title="Subscriptor">
<polygon fill="#ffffff" stroke="#000000" points="47.5146,-250.5 47.5146,-268.5 114.0908,-268.5 114.0908,-250.5 47.5146,-250.5"/>
<text text-anchor="middle" x="80.8027" y="-256.5" font-family="Helvetica,sans-Serif" font-size="10.00" fill="#000000">Subscriptor</text>
</a>
</g>
</g>
<!-- Node4&#45;&gt;Node3 -->
<g id="edge4" class="edge">
<title>Node4&#45;&gt;Node3</title>
<path fill="none" stroke="#191970" d="M80.8027,-240.383C80.8027,-231.3738 80.8027,-221.0373 80.8027,-213.7795"/>
<polygon fill="#191970" stroke="#191970" points="77.3028,-240.4178 80.8027,-250.4179 84.3028,-240.4179 77.3028,-240.4178"/>
</g>
</g>
</svg>
