<?xml version="1.0" encoding="UTF-8" standalone="no"?>
<!DOCTYPE svg PUBLIC "-//W3C//DTD SVG 1.1//EN"
 "http://www.w3.org/Graphics/SVG/1.1/DTD/svg11.dtd">
<!-- Generated by graphviz version 2.40.1 (20161225.0304)
 -->
<!-- Title: SLEPcWrappers::SolverBase Pages: 1 -->
<svg width="368pt" height="279pt"
 viewBox="0.00 0.00 368.00 279.00" xmlns="http://www.w3.org/2000/svg" xmlns:xlink="http://www.w3.org/1999/xlink">
<g id="graph0" class="graph" transform="scale(1 1) rotate(0) translate(4 275)">
<title>SLEPcWrappers::SolverBase</title>
<polygon fill="#ffffff" stroke="transparent" points="-4,4 -4,-275 363.9971,-275 363.9971,4 -4,4"/>
<!-- Node0 -->
<g id="node1" class="node">
<title>Node0</title>
<polygon fill="#bfbfbf" stroke="#000000" points="0,-116.5 0,-134.5 146.4346,-134.5 146.4346,-116.5 0,-116.5"/>
<text text-anchor="middle" x="73.2173" y="-122.5" font-family="Helvetica,sans-Serif" font-size="10.00" fill="#000000">SLEPcWrappers::SolverBase</text>
</g>
<!-- Node1 -->
<g id="node2" class="node">
<title>Node1</title>
<g id="a_node2"><a xlink:href="classSLEPcWrappers_1_1SolverArnoldi.html" target="_top" xlink:title="SLEPcWrappers::SolverArnoldi">
<polygon fill="#ffffff" stroke="#000000" points="193.8311,-252.5 193.8311,-270.5 348.6006,-270.5 348.6006,-252.5 193.8311,-252.5"/>
<text text-anchor="middle" x="271.2158" y="-258.5" font-family="Helvetica,sans-Serif" font-size="10.00" fill="#000000">SLEPcWrappers::SolverArnoldi</text>
</a>
</g>
</g>
<!-- Node0&#45;&gt;Node1 -->
<g id="edge1" class="edge">
<title>Node0&#45;&gt;Node1</title>
<path fill="none" stroke="#191970" d="M84.307,-143.2753C101.7538,-169.6373 138.2221,-218.6512 182.4346,-243.5 189.0154,-247.1986 196.2496,-250.1431 203.6609,-252.4861"/>
<polygon fill="#191970" stroke="#191970" points="87.1217,-141.1819 78.7608,-134.6746 81.2388,-144.9755 87.1217,-141.1819"/>
</g>
<!-- Node2 -->
<g id="node3" class="node">
<title>Node2</title>
<g id="a_node3"><a xlink:href="classSLEPcWrappers_1_1SolverGeneralizedDavidson.html" target="_top" xlink:title="SLEPcWrappers::SolverGeneralized\lDavidson">
<polygon fill="#ffffff" stroke="#000000" points="182.4346,-205.5 182.4346,-233.5 359.9971,-233.5 359.9971,-205.5 182.4346,-205.5"/>
<text text-anchor="start" x="190.4346" y="-221.5" font-family="Helvetica,sans-Serif" font-size="10.00" fill="#000000">SLEPcWrappers::SolverGeneralized</text>
<text text-anchor="middle" x="271.2158" y="-211.5" font-family="Helvetica,sans-Serif" font-size="10.00" fill="#000000">Davidson</text>
</a>
</g>
</g>
<!-- Node0&#45;&gt;Node2 -->
<g id="edge2" class="edge">
<title>Node0&#45;&gt;Node2</title>
<path fill="none" stroke="#191970" d="M92.7265,-140.992C113.7536,-156.9936 148.7512,-181.661 182.4346,-196.5 190.1572,-199.9021 198.4875,-202.8814 206.8428,-205.4671"/>
<polygon fill="#191970" stroke="#191970" points="94.6664,-138.0676 84.6148,-134.7186 90.3839,-143.6049 94.6664,-138.0676"/>
</g>
<!-- Node3 -->
<g id="node4" class="node">
<title>Node3</title>
<g id="a_node4"><a xlink:href="classSLEPcWrappers_1_1SolverJacobiDavidson.html" target="_top" xlink:title="SLEPcWrappers::SolverJacobi\lDavidson">
<polygon fill="#ffffff" stroke="#000000" points="194.9419,-158.5 194.9419,-186.5 347.4897,-186.5 347.4897,-158.5 194.9419,-158.5"/>
<text text-anchor="start" x="202.9419" y="-174.5" font-family="Helvetica,sans-Serif" font-size="10.00" fill="#000000">SLEPcWrappers::SolverJacobi</text>
<text text-anchor="middle" x="271.2158" y="-164.5" font-family="Helvetica,sans-Serif" font-size="10.00" fill="#000000">Davidson</text>
</a>
</g>
</g>
<!-- Node0&#45;&gt;Node3 -->
<g id="edge3" class="edge">
<title>Node0&#45;&gt;Node3</title>
<path fill="none" stroke="#191970" d="M121.1309,-136.8735C148.5067,-143.3719 183.061,-151.5742 212.1114,-158.4701"/>
<polygon fill="#191970" stroke="#191970" points="121.9314,-133.4664 111.3934,-134.5621 120.3147,-140.2771 121.9314,-133.4664"/>
</g>
<!-- Node4 -->
<g id="node5" class="node">
<title>Node4</title>
<g id="a_node5"><a xlink:href="classSLEPcWrappers_1_1SolverKrylovSchur.html" target="_top" xlink:title="SLEPcWrappers::SolverKrylov\lSchur">
<polygon fill="#ffffff" stroke="#000000" points="195.5034,-111.5 195.5034,-139.5 346.9282,-139.5 346.9282,-111.5 195.5034,-111.5"/>
<text text-anchor="start" x="203.5034" y="-127.5" font-family="Helvetica,sans-Serif" font-size="10.00" fill="#000000">SLEPcWrappers::SolverKrylov</text>
<text text-anchor="middle" x="271.2158" y="-117.5" font-family="Helvetica,sans-Serif" font-size="10.00" fill="#000000">Schur</text>
</a>
</g>
</g>
<!-- Node0&#45;&gt;Node4 -->
<g id="edge4" class="edge">
<title>Node0&#45;&gt;Node4</title>
<path fill="none" stroke="#191970" d="M156.8005,-125.5C169.5552,-125.5 182.6599,-125.5 195.2395,-125.5"/>
<polygon fill="#191970" stroke="#191970" points="156.6633,-122.0001 146.6633,-125.5 156.6632,-129.0001 156.6633,-122.0001"/>
</g>
<!-- Node5 -->
<g id="node6" class="node">
<title>Node5</title>
<g id="a_node6"><a xlink:href="classSLEPcWrappers_1_1SolverLanczos.html" target="_top" xlink:title="SLEPcWrappers::SolverLanczos">
<polygon fill="#ffffff" stroke="#000000" points="190.772,-74.5 190.772,-92.5 351.6597,-92.5 351.6597,-74.5 190.772,-74.5"/>
<text text-anchor="middle" x="271.2158" y="-80.5" font-family="Helvetica,sans-Serif" font-size="10.00" fill="#000000">SLEPcWrappers::SolverLanczos</text>
</a>
</g>
</g>
<!-- Node0&#45;&gt;Node5 -->
<g id="edge5" class="edge">
<title>Node0&#45;&gt;Node5</title>
<path fill="none" stroke="#191970" d="M125.79,-114.3481C157.8726,-107.5427 198.3645,-98.9534 228.4693,-92.5675"/>
<polygon fill="#191970" stroke="#191970" points="124.749,-110.991 115.6929,-116.4899 126.2016,-117.8386 124.749,-110.991"/>
</g>
<!-- Node6 -->
<g id="node7" class="node">
<title>Node6</title>
<g id="a_node7"><a xlink:href="classSLEPcWrappers_1_1SolverLAPACK.html" target="_top" xlink:title="SLEPcWrappers::SolverLAPACK">
<polygon fill="#ffffff" stroke="#000000" points="190.0322,-37.5 190.0322,-55.5 352.3994,-55.5 352.3994,-37.5 190.0322,-37.5"/>
<text text-anchor="middle" x="271.2158" y="-43.5" font-family="Helvetica,sans-Serif" font-size="10.00" fill="#000000">SLEPcWrappers::SolverLAPACK</text>
</a>
</g>
</g>
<!-- Node0&#45;&gt;Node6 -->
<g id="edge6" class="edge">
<title>Node0&#45;&gt;Node6</title>
<path fill="none" stroke="#191970" d="M95.3881,-110.7877C116.8263,-97.1859 150.6468,-77.3415 182.4346,-65.5 193.2173,-61.4833 205.0697,-58.2123 216.5048,-55.5885"/>
<polygon fill="#191970" stroke="#191970" points="93.2385,-108.0091 86.7309,-116.3698 97.0319,-113.8922 93.2385,-108.0091"/>
</g>
<!-- Node7 -->
<g id="node8" class="node">
<title>Node7</title>
<g id="a_node8"><a xlink:href="classSLEPcWrappers_1_1SolverPower.html" target="_top" xlink:title="SLEPcWrappers::SolverPower">
<polygon fill="#ffffff" stroke="#000000" points="195.2227,-.5 195.2227,-18.5 347.209,-18.5 347.209,-.5 195.2227,-.5"/>
<text text-anchor="middle" x="271.2158" y="-6.5" font-family="Helvetica,sans-Serif" font-size="10.00" fill="#000000">SLEPcWrappers::SolverPower</text>
</a>
</g>
</g>
<!-- Node0&#45;&gt;Node7 -->
<g id="edge7" class="edge">
<title>Node0&#45;&gt;Node7</title>
<path fill="none" stroke="#191970" d="M87.2743,-108.4546C106.4243,-86.422 142.8832,-48.5174 182.4346,-28.5 190.5916,-24.3716 199.6096,-21.1387 208.6799,-18.6073"/>
<polygon fill="#191970" stroke="#191970" points="84.4064,-106.4245 80.5965,-116.3106 89.7399,-110.9582 84.4064,-106.4245"/>
</g>
</g>
</svg>
