<?xml version="1.0" encoding="UTF-8" standalone="no"?>
<!DOCTYPE svg PUBLIC "-//W3C//DTD SVG 1.1//EN"
 "http://www.w3.org/Graphics/SVG/1.1/DTD/svg11.dtd">
<!-- Generated by graphviz version 2.40.1 (20161225.0304)
 -->
<!-- Title: PreconditionBlockJacobi&lt; MatrixType, inverse_type &gt; Pages: 1 -->
<svg width="246pt" height="264pt"
 viewBox="0.00 0.00 246.19 264.00" xmlns="http://www.w3.org/2000/svg" xmlns:xlink="http://www.w3.org/1999/xlink">
<g id="graph0" class="graph" transform="scale(1 1) rotate(0) translate(4 260)">
<title>PreconditionBlockJacobi&lt; MatrixType, inverse_type &gt;</title>
<polygon fill="#ffffff" stroke="transparent" points="-4,4 -4,-260 242.189,-260 242.189,4 -4,4"/>
<!-- Node0 -->
<g id="node1" class="node">
<title>Node0</title>
<polygon fill="#bfbfbf" stroke="#000000" points="0,-.5 0,-38.5 124.9502,-38.5 124.9502,-.5 0,-.5"/>
<text text-anchor="start" x="8" y="-26.5" font-family="Helvetica,sans-Serif" font-size="10.00" fill="#000000">PreconditionBlockJacobi</text>
<text text-anchor="start" x="8" y="-16.5" font-family="Helvetica,sans-Serif" font-size="10.00" fill="#000000">&lt; MatrixType, inverse</text>
<text text-anchor="middle" x="62.4751" y="-6.5" font-family="Helvetica,sans-Serif" font-size="10.00" fill="#000000">_type &gt;</text>
</g>
<!-- Node1 -->
<g id="node2" class="node">
<title>Node1</title>
<g id="a_node2"><a xlink:href="classSubscriptor.html" target="_top" xlink:title="Subscriptor">
<polygon fill="#ffffff" stroke="#000000" points="17.187,-157.5 17.187,-175.5 83.7632,-175.5 83.7632,-157.5 17.187,-157.5"/>
<text text-anchor="middle" x="50.4751" y="-163.5" font-family="Helvetica,sans-Serif" font-size="10.00" fill="#000000">Subscriptor</text>
</a>
</g>
</g>
<!-- Node1&#45;&gt;Node0 -->
<g id="edge1" class="edge">
<title>Node1&#45;&gt;Node0</title>
<path fill="none" stroke="#191970" d="M52.0586,-147.1024C54.3678,-118.814 58.6331,-66.5639 60.924,-38.5012"/>
<polygon fill="#191970" stroke="#191970" points="48.5511,-147.0528 51.2258,-157.3045 55.5279,-147.6224 48.5511,-147.0528"/>
</g>
<!-- Node2 -->
<g id="node3" class="node">
<title>Node2</title>
<g id="a_node3"><a xlink:href="classPreconditionBlock.html" target="_top" xlink:title="PreconditionBlock\&lt;\l MatrixType, inverse\l_type \&gt;">
<polygon fill="#ffffff" stroke="#000000" points="78.7363,-76.5 78.7363,-114.5 184.2139,-114.5 184.2139,-76.5 78.7363,-76.5"/>
<text text-anchor="start" x="86.7363" y="-102.5" font-family="Helvetica,sans-Serif" font-size="10.00" fill="#000000">PreconditionBlock&lt;</text>
<text text-anchor="start" x="86.7363" y="-92.5" font-family="Helvetica,sans-Serif" font-size="10.00" fill="#000000"> MatrixType, inverse</text>
<text text-anchor="middle" x="131.4751" y="-82.5" font-family="Helvetica,sans-Serif" font-size="10.00" fill="#000000">_type &gt;</text>
</a>
</g>
</g>
<!-- Node1&#45;&gt;Node2 -->
<g id="edge3" class="edge">
<title>Node1&#45;&gt;Node2</title>
<path fill="none" stroke="#191970" d="M68.7491,-150.482C80.8601,-139.8662 96.8124,-125.8834 109.5987,-114.6756"/>
<polygon fill="#191970" stroke="#191970" points="66.2774,-147.9943 61.0644,-157.218 70.8915,-153.2584 66.2774,-147.9943"/>
</g>
<!-- Node2&#45;&gt;Node0 -->
<g id="edge2" class="edge">
<title>Node2&#45;&gt;Node0</title>
<path fill="none" stroke="#8b1a1a" d="M107.1227,-68.6771C98.1328,-58.7752 88.1339,-47.7618 79.8811,-38.6719"/>
<polygon fill="#8b1a1a" stroke="#8b1a1a" points="104.7502,-71.2708 114.0635,-76.322 109.9329,-66.5655 104.7502,-71.2708"/>
</g>
<!-- Node3 -->
<g id="node4" class="node">
<title>Node3</title>
<g id="a_node4"><a xlink:href="classPreconditionBlockBase.html" target="_top" xlink:title="PreconditionBlockBase\l\&lt; inverse_type \&gt;">
<polygon fill="#ffffff" stroke="#000000" points="102.0566,-152.5 102.0566,-180.5 220.8936,-180.5 220.8936,-152.5 102.0566,-152.5"/>
<text text-anchor="start" x="110.0566" y="-168.5" font-family="Helvetica,sans-Serif" font-size="10.00" fill="#000000">PreconditionBlockBase</text>
<text text-anchor="middle" x="161.4751" y="-158.5" font-family="Helvetica,sans-Serif" font-size="10.00" fill="#000000">&lt; inverse_type &gt;</text>
</a>
</g>
</g>
<!-- Node3&#45;&gt;Node2 -->
<g id="edge4" class="edge">
<title>Node3&#45;&gt;Node2</title>
<path fill="none" stroke="#006400" d="M151.5782,-143.0772C147.6761,-133.8425 143.2511,-123.3698 139.5478,-114.6055"/>
<polygon fill="#006400" stroke="#006400" points="148.4318,-144.6235 155.5481,-152.4727 154.8799,-141.8989 148.4318,-144.6235"/>
</g>
<!-- Node4 -->
<g id="node5" class="node">
<title>Node4</title>
<g id="a_node5"><a xlink:href="classPreconditionBlockBase.html" target="_top" xlink:title="PreconditionBlockBase\l\&lt; number \&gt;">
<polygon fill="#ffffff" stroke="#000000" points="102.0566,-227.5 102.0566,-255.5 220.8936,-255.5 220.8936,-227.5 102.0566,-227.5"/>
<text text-anchor="start" x="110.0566" y="-243.5" font-family="Helvetica,sans-Serif" font-size="10.00" fill="#000000">PreconditionBlockBase</text>
<text text-anchor="middle" x="161.4751" y="-233.5" font-family="Helvetica,sans-Serif" font-size="10.00" fill="#000000">&lt; number &gt;</text>
</a>
</g>
</g>
<!-- Node4&#45;&gt;Node3 -->
<g id="edge5" class="edge">
<title>Node4&#45;&gt;Node3</title>
<path fill="none" stroke="#ffa500" stroke-dasharray="5,2" d="M161.4751,-217.0415C161.4751,-204.9507 161.4751,-190.7938 161.4751,-180.5437"/>
<polygon fill="#ffa500" stroke="#ffa500" points="157.9752,-217.393 161.4751,-227.3931 164.9752,-217.3931 157.9752,-217.393"/>
<text text-anchor="middle" x="199.832" y="-201" font-family="Helvetica,sans-Serif" font-size="10.00" fill="#000000"> &lt; inverse_type &gt;</text>
</g>
</g>
</svg>
