<?xml version="1.0" encoding="UTF-8" standalone="no"?>
<!DOCTYPE svg PUBLIC "-//W3C//DTD SVG 1.1//EN"
 "http://www.w3.org/Graphics/SVG/1.1/DTD/svg11.dtd">
<!-- Generated by graphviz version 2.40.1 (20161225.0304)
 -->
<!-- Title: SolverCG&lt; VectorType &gt; Pages: 1 -->
<svg width="135pt" height="137pt"
 viewBox="0.00 0.00 134.62 137.00" xmlns="http://www.w3.org/2000/svg" xmlns:xlink="http://www.w3.org/1999/xlink">
<g id="graph0" class="graph" transform="scale(1 1) rotate(0) translate(4 133)">
<title>SolverCG&lt; VectorType &gt;</title>
<polygon fill="#ffffff" stroke="transparent" points="-4,4 -4,-133 130.6201,-133 130.6201,4 -4,4"/>
<!-- Node0 -->
<g id="node1" class="node">
<title>Node0</title>
<polygon fill="#bfbfbf" stroke="#000000" points="0,-.5 0,-18.5 126.6201,-18.5 126.6201,-.5 0,-.5"/>
<text text-anchor="middle" x="63.3101" y="-6.5" font-family="Helvetica,sans-Serif" font-size="10.00" fill="#000000">SolverCG&lt; VectorType &gt;</text>
</g>
<!-- Node1 -->
<g id="node2" class="node">
<title>Node1</title>
<g id="a_node2"><a xlink:href="classSolver.html" target="_top" xlink:title="Solver\&lt; VectorType \&gt;">
<polygon fill="#ffffff" stroke="#000000" points="7.5,-55.5 7.5,-73.5 119.1201,-73.5 119.1201,-55.5 7.5,-55.5"/>
<text text-anchor="middle" x="63.3101" y="-61.5" font-family="Helvetica,sans-Serif" font-size="10.00" fill="#000000">Solver&lt; VectorType &gt;</text>
</a>
</g>
</g>
<!-- Node1&#45;&gt;Node0 -->
<g id="edge1" class="edge">
<title>Node1&#45;&gt;Node0</title>
<path fill="none" stroke="#191970" d="M63.3101,-45.383C63.3101,-36.3738 63.3101,-26.0373 63.3101,-18.7795"/>
<polygon fill="#191970" stroke="#191970" points="59.8102,-45.4178 63.3101,-55.4179 66.8102,-45.4179 59.8102,-45.4178"/>
</g>
<!-- Node2 -->
<g id="node3" class="node">
<title>Node2</title>
<g id="a_node3"><a xlink:href="classSubscriptor.html" target="_top" xlink:title="Subscriptor">
<polygon fill="#ffffff" stroke="#000000" points="30.022,-110.5 30.022,-128.5 96.5981,-128.5 96.5981,-110.5 30.022,-110.5"/>
<text text-anchor="middle" x="63.3101" y="-116.5" font-family="Helvetica,sans-Serif" font-size="10.00" fill="#000000">Subscriptor</text>
</a>
</g>
</g>
<!-- Node2&#45;&gt;Node1 -->
<g id="edge2" class="edge">
<title>Node2&#45;&gt;Node1</title>
<path fill="none" stroke="#191970" d="M63.3101,-100.383C63.3101,-91.3738 63.3101,-81.0373 63.3101,-73.7795"/>
<polygon fill="#191970" stroke="#191970" points="59.8102,-100.4178 63.3101,-110.4179 66.8102,-100.4179 59.8102,-100.4178"/>
</g>
</g>
</svg>
