<?xml version="1.0" encoding="UTF-8" standalone="no"?>
<!DOCTYPE svg PUBLIC "-//W3C//DTD SVG 1.1//EN"
 "http://www.w3.org/Graphics/SVG/1.1/DTD/svg11.dtd">
<!-- Generated by graphviz version 2.40.1 (20161225.0304)
 -->
<!-- Title: VectorMemory&lt; VectorType &gt; Pages: 1 -->
<svg width="858pt" height="178pt"
 viewBox="0.00 0.00 858.33 178.00" xmlns="http://www.w3.org/2000/svg" xmlns:xlink="http://www.w3.org/1999/xlink">
<g id="graph0" class="graph" transform="scale(1 1) rotate(0) translate(4 174)">
<title>VectorMemory&lt; VectorType &gt;</title>
<polygon fill="#ffffff" stroke="transparent" points="-4,4 -4,-174 854.3291,-174 854.3291,4 -4,4"/>
<!-- Node0 -->
<g id="node1" class="node">
<title>Node0</title>
<polygon fill="#bfbfbf" stroke="#000000" points="103.5762,-75.5 103.5762,-93.5 251.3193,-93.5 251.3193,-75.5 103.5762,-75.5"/>
<text text-anchor="middle" x="177.4478" y="-81.5" font-family="Helvetica,sans-Serif" font-size="10.00" fill="#000000">VectorMemory&lt; VectorType &gt;</text>
</g>
<!-- Node2 -->
<g id="node3" class="node">
<title>Node2</title>
<g id="a_node3"><a xlink:href="classGrowingVectorMemory.html" target="_top" xlink:title="GrowingVectorMemory\l\&lt; VectorType \&gt;">
<polygon fill="#ffffff" stroke="#000000" points="423.3789,-141.5 423.3789,-169.5 541.083,-169.5 541.083,-141.5 423.3789,-141.5"/>
<text text-anchor="start" x="431.3789" y="-157.5" font-family="Helvetica,sans-Serif" font-size="10.00" fill="#000000">GrowingVectorMemory</text>
<text text-anchor="middle" x="482.231" y="-147.5" font-family="Helvetica,sans-Serif" font-size="10.00" fill="#000000">&lt; VectorType &gt;</text>
</a>
</g>
</g>
<!-- Node0&#45;&gt;Node2 -->
<g id="edge2" class="edge">
<title>Node0&#45;&gt;Node2</title>
<path fill="none" stroke="#191970" d="M216.0058,-96.5969C232.3636,-101.5294 251.6886,-107.0954 269.3193,-111.5 320.9527,-124.3994 380.2976,-136.4371 423.1957,-144.6492"/>
<polygon fill="#191970" stroke="#191970" points="216.8319,-93.1899 206.2459,-93.6237 214.7919,-99.886 216.8319,-93.1899"/>
</g>
<!-- Node4 -->
<g id="node5" class="node">
<title>Node4</title>
<g id="a_node5"><a xlink:href="classPrimitiveVectorMemory.html" target="_top" xlink:title="PrimitiveVectorMemory\l\&lt; VectorType \&gt;">
<polygon fill="#ffffff" stroke="#000000" points="422.8296,-94.5 422.8296,-122.5 541.6323,-122.5 541.6323,-94.5 422.8296,-94.5"/>
<text text-anchor="start" x="430.8296" y="-110.5" font-family="Helvetica,sans-Serif" font-size="10.00" fill="#000000">PrimitiveVectorMemory</text>
<text text-anchor="middle" x="482.231" y="-100.5" font-family="Helvetica,sans-Serif" font-size="10.00" fill="#000000">&lt; VectorType &gt;</text>
</a>
</g>
</g>
<!-- Node0&#45;&gt;Node4 -->
<g id="edge4" class="edge">
<title>Node0&#45;&gt;Node4</title>
<path fill="none" stroke="#191970" d="M261.6518,-91.1306C312.7334,-95.153 376.6918,-100.1894 422.5651,-103.8016"/>
<polygon fill="#191970" stroke="#191970" points="261.8603,-87.6363 251.6164,-90.3404 261.3107,-94.6147 261.8603,-87.6363"/>
</g>
<!-- Node5 -->
<g id="node6" class="node">
<title>Node5</title>
<g id="a_node6"><a xlink:href="classVectorMemory.html" target="_top" xlink:title="VectorMemory\&lt; BlockVector\l\&lt; number \&gt; \&gt;">
<polygon fill="#ffffff" stroke="#000000" points="411.2842,-47.5 411.2842,-75.5 553.1777,-75.5 553.1777,-47.5 411.2842,-47.5"/>
<text text-anchor="start" x="419.2842" y="-63.5" font-family="Helvetica,sans-Serif" font-size="10.00" fill="#000000">VectorMemory&lt; BlockVector</text>
<text text-anchor="middle" x="482.231" y="-53.5" font-family="Helvetica,sans-Serif" font-size="10.00" fill="#000000">&lt; number &gt; &gt;</text>
</a>
</g>
</g>
<!-- Node0&#45;&gt;Node5 -->
<g id="edge5" class="edge">
<title>Node0&#45;&gt;Node5</title>
<path fill="none" stroke="#ffa500" stroke-dasharray="5,2" d="M261.766,-78.1371C308.7132,-74.5943 366.5095,-70.2327 411.1459,-66.8643"/>
<polygon fill="#ffa500" stroke="#ffa500" points="261.3246,-74.6603 251.6164,-78.903 261.8514,-81.6405 261.3246,-74.6603"/>
<text text-anchor="middle" x="331.3018" y="-79.5" font-family="Helvetica,sans-Serif" font-size="10.00" fill="#000000"> &lt; BlockVector&lt; number &gt; &gt;</text>
</g>
<!-- Node6 -->
<g id="node7" class="node">
<title>Node6</title>
<g id="a_node7"><a xlink:href="classVectorMemory.html" target="_top" xlink:title="VectorMemory\&lt; Vector\l\&lt; number \&gt; \&gt;">
<polygon fill="#ffffff" stroke="#000000" points="423.5107,-.5 423.5107,-28.5 540.9512,-28.5 540.9512,-.5 423.5107,-.5"/>
<text text-anchor="start" x="431.5107" y="-16.5" font-family="Helvetica,sans-Serif" font-size="10.00" fill="#000000">VectorMemory&lt; Vector</text>
<text text-anchor="middle" x="482.231" y="-6.5" font-family="Helvetica,sans-Serif" font-size="10.00" fill="#000000">&lt; number &gt; &gt;</text>
</a>
</g>
</g>
<!-- Node0&#45;&gt;Node6 -->
<g id="edge7" class="edge">
<title>Node0&#45;&gt;Node6</title>
<path fill="none" stroke="#ffa500" stroke-dasharray="5,2" d="M211.7301,-72.1317C228.8708,-66.2493 250.0249,-59.4404 269.3193,-54.5 320.875,-41.2991 380.4852,-30.4707 423.4949,-23.4253"/>
<polygon fill="#ffa500" stroke="#ffa500" points="210.4401,-68.8747 202.146,-75.467 212.7408,-75.4858 210.4401,-68.8747"/>
<text text-anchor="middle" x="331.3018" y="-56.5" font-family="Helvetica,sans-Serif" font-size="10.00" fill="#000000"> &lt; Vector&lt; number &gt; &gt;</text>
</g>
<!-- Node1 -->
<g id="node2" class="node">
<title>Node1</title>
<g id="a_node2"><a xlink:href="classSubscriptor.html" target="_top" xlink:title="Subscriptor">
<polygon fill="#ffffff" stroke="#000000" points="0,-75.5 0,-93.5 66.5762,-93.5 66.5762,-75.5 0,-75.5"/>
<text text-anchor="middle" x="33.2881" y="-81.5" font-family="Helvetica,sans-Serif" font-size="10.00" fill="#000000">Subscriptor</text>
</a>
</g>
</g>
<!-- Node1&#45;&gt;Node0 -->
<g id="edge1" class="edge">
<title>Node1&#45;&gt;Node0</title>
<path fill="none" stroke="#191970" d="M76.989,-84.5C85.3853,-84.5 94.393,-84.5 103.4412,-84.5"/>
<polygon fill="#191970" stroke="#191970" points="76.7236,-81.0001 66.7236,-84.5 76.7235,-88.0001 76.7236,-81.0001"/>
</g>
<!-- Node3 -->
<g id="node4" class="node">
<title>Node3</title>
<g id="a_node4"><a xlink:href="classGrowingVectorMemory.html" target="_top" xlink:title="GrowingVectorMemory\l\&lt; BlockVector\&lt; number \&gt; \&gt;">
<polygon fill="#ffffff" stroke="#000000" points="713.1426,-93.5 713.1426,-121.5 850.3291,-121.5 850.3291,-93.5 713.1426,-93.5"/>
<text text-anchor="start" x="721.1426" y="-109.5" font-family="Helvetica,sans-Serif" font-size="10.00" fill="#000000">GrowingVectorMemory</text>
<text text-anchor="middle" x="781.7358" y="-99.5" font-family="Helvetica,sans-Serif" font-size="10.00" fill="#000000">&lt; BlockVector&lt; number &gt; &gt;</text>
</a>
</g>
</g>
<!-- Node2&#45;&gt;Node3 -->
<g id="edge3" class="edge">
<title>Node2&#45;&gt;Node3</title>
<path fill="none" stroke="#ffa500" stroke-dasharray="5,2" d="M551.5022,-144.3983C600.0224,-136.6222 664.5785,-126.2762 712.9837,-118.5185"/>
<polygon fill="#ffa500" stroke="#ffa500" points="550.7236,-140.9783 541.4035,-146.0167 551.8314,-147.8901 550.7236,-140.9783"/>
<text text-anchor="middle" x="633.1602" y="-141.5" font-family="Helvetica,sans-Serif" font-size="10.00" fill="#000000"> &lt; BlockVector&lt; number &gt; &gt;</text>
</g>
<!-- Node5&#45;&gt;Node3 -->
<g id="edge6" class="edge">
<title>Node5&#45;&gt;Node3</title>
<path fill="none" stroke="#191970" d="M563.3295,-73.9557C610.1885,-81.1526 668.4931,-90.1074 713.0718,-96.9541"/>
<polygon fill="#191970" stroke="#191970" points="563.6249,-70.4601 553.2094,-72.4014 562.5622,-77.3789 563.6249,-70.4601"/>
</g>
</g>
</svg>
