<?xml version="1.0" encoding="UTF-8" standalone="no"?>
<!DOCTYPE svg PUBLIC "-//W3C//DTD SVG 1.1//EN"
 "http://www.w3.org/Graphics/SVG/1.1/DTD/svg11.dtd">
<!-- Generated by graphviz version 2.40.1 (20161225.0304)
 -->
<!-- Title: BlockDynamicSparsityPattern Pages: 1 -->
<svg width="252pt" height="224pt"
 viewBox="0.00 0.00 252.13 224.00" xmlns="http://www.w3.org/2000/svg" xmlns:xlink="http://www.w3.org/1999/xlink">
<g id="graph0" class="graph" transform="scale(1 1) rotate(0) translate(4 220)">
<title>BlockDynamicSparsityPattern</title>
<polygon fill="#ffffff" stroke="transparent" points="-4,4 -4,-220 248.1323,-220 248.1323,4 -4,4"/>
<!-- Node0 -->
<g id="node1" class="node">
<title>Node0</title>
<polygon fill="#bfbfbf" stroke="#000000" points="0,-.5 0,-18.5 147.7139,-18.5 147.7139,-.5 0,-.5"/>
<text text-anchor="middle" x="73.8569" y="-6.5" font-family="Helvetica,sans-Serif" font-size="10.00" fill="#000000">BlockDynamicSparsityPattern</text>
</g>
<!-- Node1 -->
<g id="node2" class="node">
<title>Node1</title>
<g id="a_node2"><a xlink:href="classBlockSparsityPatternBase.html" target="_top" xlink:title="BlockSparsityPatternBase\l\&lt; DynamicSparsityPattern \&gt;">
<polygon fill="#ffffff" stroke="#000000" points="3.6084,-56.5 3.6084,-84.5 144.1055,-84.5 144.1055,-56.5 3.6084,-56.5"/>
<text text-anchor="start" x="11.6084" y="-72.5" font-family="Helvetica,sans-Serif" font-size="10.00" fill="#000000">BlockSparsityPatternBase</text>
<text text-anchor="middle" x="73.8569" y="-62.5" font-family="Helvetica,sans-Serif" font-size="10.00" fill="#000000">&lt; DynamicSparsityPattern &gt;</text>
</a>
</g>
</g>
<!-- Node1&#45;&gt;Node0 -->
<g id="edge1" class="edge">
<title>Node1&#45;&gt;Node0</title>
<path fill="none" stroke="#191970" d="M73.8569,-46.1001C73.8569,-36.5157 73.8569,-26.0935 73.8569,-18.831"/>
<polygon fill="#191970" stroke="#191970" points="70.357,-46.352 73.8569,-56.3521 77.357,-46.3521 70.357,-46.352"/>
</g>
<!-- Node2 -->
<g id="node3" class="node">
<title>Node2</title>
<g id="a_node3"><a xlink:href="classSubscriptor.html" target="_top" xlink:title="Subscriptor">
<polygon fill="#ffffff" stroke="#000000" points="36.5688,-197.5 36.5688,-215.5 103.145,-215.5 103.145,-197.5 36.5688,-197.5"/>
<text text-anchor="middle" x="69.8569" y="-203.5" font-family="Helvetica,sans-Serif" font-size="10.00" fill="#000000">Subscriptor</text>
</a>
</g>
</g>
<!-- Node2&#45;&gt;Node1 -->
<g id="edge2" class="edge">
<title>Node2&#45;&gt;Node1</title>
<path fill="none" stroke="#191970" d="M70.4272,-187.1119C71.242,-159.4066 72.7205,-109.1399 73.4405,-84.6595"/>
<polygon fill="#191970" stroke="#191970" points="66.9275,-187.0536 70.1319,-197.1522 73.9244,-187.2594 66.9275,-187.0536"/>
</g>
<!-- Node3 -->
<g id="node4" class="node">
<title>Node3</title>
<g id="a_node4"><a xlink:href="classBlockSparsityPatternBase.html" target="_top" xlink:title="BlockSparsityPatternBase\l\&lt; SparsityPatternType \&gt;">
<polygon fill="#ffffff" stroke="#000000" points="86.0518,-131.5 86.0518,-159.5 217.6621,-159.5 217.6621,-131.5 86.0518,-131.5"/>
<text text-anchor="start" x="94.0518" y="-147.5" font-family="Helvetica,sans-Serif" font-size="10.00" fill="#000000">BlockSparsityPatternBase</text>
<text text-anchor="middle" x="151.8569" y="-137.5" font-family="Helvetica,sans-Serif" font-size="10.00" fill="#000000">&lt; SparsityPatternType &gt;</text>
</a>
</g>
</g>
<!-- Node2&#45;&gt;Node3 -->
<g id="edge4" class="edge">
<title>Node2&#45;&gt;Node3</title>
<path fill="none" stroke="#191970" d="M90.3187,-191.2784C103.4058,-181.5429 120.2568,-169.0074 133.0155,-159.5162"/>
<polygon fill="#191970" stroke="#191970" points="87.8907,-188.7224 81.9563,-197.4992 92.0688,-194.3388 87.8907,-188.7224"/>
</g>
<!-- Node3&#45;&gt;Node1 -->
<g id="edge3" class="edge">
<title>Node3&#45;&gt;Node1</title>
<path fill="none" stroke="#ffa500" stroke-dasharray="5,2" d="M129.8253,-124.3157C116.5841,-111.5839 100.1014,-95.7351 88.4624,-84.5437"/>
<polygon fill="#ffa500" stroke="#ffa500" points="127.5515,-126.9849 137.1857,-131.3931 132.4033,-121.939 127.5515,-126.9849"/>
<text text-anchor="middle" x="180.4946" y="-105" font-family="Helvetica,sans-Serif" font-size="10.00" fill="#000000"> &lt; DynamicSparsityPattern &gt;</text>
</g>
</g>
</svg>
