<?xml version="1.0" encoding="UTF-8" standalone="no"?>
<!DOCTYPE svg PUBLIC "-//W3C//DTD SVG 1.1//EN"
 "http://www.w3.org/Graphics/SVG/1.1/DTD/svg11.dtd">
<!-- Generated by graphviz version 2.40.1 (20161225.0304)
 -->
<!-- Title: SolverGMRES&lt; VectorType &gt; Pages: 1 -->
<svg width="156pt" height="137pt"
 viewBox="0.00 0.00 156.29 137.00" xmlns="http://www.w3.org/2000/svg" xmlns:xlink="http://www.w3.org/1999/xlink">
<g id="graph0" class="graph" transform="scale(1 1) rotate(0) translate(4 133)">
<title>SolverGMRES&lt; VectorType &gt;</title>
<polygon fill="#ffffff" stroke="transparent" points="-4,4 -4,-133 152.29,-133 152.29,4 -4,4"/>
<!-- Node0 -->
<g id="node1" class="node">
<title>Node0</title>
<polygon fill="#bfbfbf" stroke="#000000" points="0,-.5 0,-18.5 148.29,-18.5 148.29,-.5 0,-.5"/>
<text text-anchor="middle" x="74.145" y="-6.5" font-family="Helvetica,sans-Serif" font-size="10.00" fill="#000000">SolverGMRES&lt; VectorType &gt;</text>
</g>
<!-- Node1 -->
<g id="node2" class="node">
<title>Node1</title>
<g id="a_node2"><a xlink:href="classSolver.html" target="_top" xlink:title="Solver\&lt; VectorType \&gt;">
<polygon fill="#ffffff" stroke="#000000" points="18.335,-55.5 18.335,-73.5 129.9551,-73.5 129.9551,-55.5 18.335,-55.5"/>
<text text-anchor="middle" x="74.145" y="-61.5" font-family="Helvetica,sans-Serif" font-size="10.00" fill="#000000">Solver&lt; VectorType &gt;</text>
</a>
</g>
</g>
<!-- Node1&#45;&gt;Node0 -->
<g id="edge1" class="edge">
<title>Node1&#45;&gt;Node0</title>
<path fill="none" stroke="#191970" d="M74.145,-45.383C74.145,-36.3738 74.145,-26.0373 74.145,-18.7795"/>
<polygon fill="#191970" stroke="#191970" points="70.6451,-45.4178 74.145,-55.4179 77.6451,-45.4179 70.6451,-45.4178"/>
</g>
<!-- Node2 -->
<g id="node3" class="node">
<title>Node2</title>
<g id="a_node3"><a xlink:href="classSubscriptor.html" target="_top" xlink:title="Subscriptor">
<polygon fill="#ffffff" stroke="#000000" points="40.8569,-110.5 40.8569,-128.5 107.4331,-128.5 107.4331,-110.5 40.8569,-110.5"/>
<text text-anchor="middle" x="74.145" y="-116.5" font-family="Helvetica,sans-Serif" font-size="10.00" fill="#000000">Subscriptor</text>
</a>
</g>
</g>
<!-- Node2&#45;&gt;Node1 -->
<g id="edge2" class="edge">
<title>Node2&#45;&gt;Node1</title>
<path fill="none" stroke="#191970" d="M74.145,-100.383C74.145,-91.3738 74.145,-81.0373 74.145,-73.7795"/>
<polygon fill="#191970" stroke="#191970" points="70.6451,-100.4178 74.145,-110.4179 77.6451,-100.4179 70.6451,-100.4178"/>
</g>
</g>
</svg>
