<?xml version="1.0" encoding="UTF-8" standalone="no"?>
<!DOCTYPE svg PUBLIC "-//W3C//DTD SVG 1.1//EN"
 "http://www.w3.org/Graphics/SVG/1.1/DTD/svg11.dtd">
<!-- Generated by graphviz version 2.40.1 (20161225.0304)
 -->
<!-- Title: MatrixOut Pages: 1 -->
<svg width="134pt" height="158pt"
 viewBox="0.00 0.00 134.07 158.00" xmlns="http://www.w3.org/2000/svg" xmlns:xlink="http://www.w3.org/1999/xlink">
<g id="graph0" class="graph" transform="scale(1 1) rotate(0) translate(4 154)">
<title>MatrixOut</title>
<polygon fill="#ffffff" stroke="transparent" points="-4,4 -4,-154 130.0684,-154 130.0684,4 -4,4"/>
<!-- Node0 -->
<g id="node1" class="node">
<title>Node0</title>
<polygon fill="#bfbfbf" stroke="#000000" points="33.3643,-.5 33.3643,-18.5 92.7041,-18.5 92.7041,-.5 33.3643,-.5"/>
<text text-anchor="middle" x="63.0342" y="-6.5" font-family="Helvetica,sans-Serif" font-size="10.00" fill="#000000">MatrixOut</text>
</g>
<!-- Node1 -->
<g id="node2" class="node">
<title>Node1</title>
<g id="a_node2"><a xlink:href="classDataOutInterface.html" target="_top" xlink:title="DataOutInterface\&lt; 2, 2 \&gt;">
<polygon fill="#ffffff" stroke="#000000" points="0,-56.5 0,-74.5 126.0684,-74.5 126.0684,-56.5 0,-56.5"/>
<text text-anchor="middle" x="63.0342" y="-62.5" font-family="Helvetica,sans-Serif" font-size="10.00" fill="#000000">DataOutInterface&lt; 2, 2 &gt;</text>
</a>
</g>
</g>
<!-- Node1&#45;&gt;Node0 -->
<g id="edge1" class="edge">
<title>Node1&#45;&gt;Node0</title>
<path fill="none" stroke="#191970" d="M63.0342,-46.2065C63.0342,-36.8384 63.0342,-26.0262 63.0342,-18.5752"/>
<polygon fill="#191970" stroke="#191970" points="59.5343,-46.2527 63.0342,-56.2527 66.5343,-46.2528 59.5343,-46.2527"/>
</g>
<!-- Node2 -->
<g id="node3" class="node">
<title>Node2</title>
<g id="a_node3"><a xlink:href="classDataOutInterface.html" target="_top" xlink:title="DataOutInterface\&lt; dim,\l spacedim \&gt;">
<polygon fill="#ffffff" stroke="#000000" points="3.2031,-121.5 3.2031,-149.5 122.8652,-149.5 122.8652,-121.5 3.2031,-121.5"/>
<text text-anchor="start" x="11.2031" y="-137.5" font-family="Helvetica,sans-Serif" font-size="10.00" fill="#000000">DataOutInterface&lt; dim,</text>
<text text-anchor="middle" x="63.0342" y="-127.5" font-family="Helvetica,sans-Serif" font-size="10.00" fill="#000000"> spacedim &gt;</text>
</a>
</g>
</g>
<!-- Node2&#45;&gt;Node1 -->
<g id="edge2" class="edge">
<title>Node2&#45;&gt;Node1</title>
<path fill="none" stroke="#ffa500" stroke-dasharray="5,2" d="M63.0342,-111.007C63.0342,-98.4648 63.0342,-83.9386 63.0342,-74.7368"/>
<polygon fill="#ffa500" stroke="#ffa500" points="59.5343,-111.3344 63.0342,-121.3345 66.5343,-111.3345 59.5343,-111.3344"/>
<text text-anchor="middle" x="81.3813" y="-95" font-family="Helvetica,sans-Serif" font-size="10.00" fill="#000000"> &lt; 2, 2 &gt;</text>
</g>
</g>
</svg>
