<?xml version="1.0" encoding="UTF-8" standalone="no"?>
<!DOCTYPE svg PUBLIC "-//W3C//DTD SVG 1.1//EN"
 "http://www.w3.org/Graphics/SVG/1.1/DTD/svg11.dtd">
<!-- Generated by graphviz version 2.40.1 (20161225.0304)
 -->
<!-- Title: MGTransferPrebuilt&lt; VectorType &gt; Pages: 1 -->
<svg width="167pt" height="212pt"
 viewBox="0.00 0.00 167.04 212.00" xmlns="http://www.w3.org/2000/svg" xmlns:xlink="http://www.w3.org/1999/xlink">
<g id="graph0" class="graph" transform="scale(1 1) rotate(0) translate(4 208)">
<title>MGTransferPrebuilt&lt; VectorType &gt;</title>
<polygon fill="#ffffff" stroke="transparent" points="-4,4 -4,-208 163.042,-208 163.042,4 -4,4"/>
<!-- Node0 -->
<g id="node1" class="node">
<title>Node0</title>
<polygon fill="#bfbfbf" stroke="#000000" points="28.0811,-.5 28.0811,-28.5 130.9609,-28.5 130.9609,-.5 28.0811,-.5"/>
<text text-anchor="start" x="36.0811" y="-16.5" font-family="Helvetica,sans-Serif" font-size="10.00" fill="#000000">MGTransferPrebuilt</text>
<text text-anchor="middle" x="79.521" y="-6.5" font-family="Helvetica,sans-Serif" font-size="10.00" fill="#000000">&lt; VectorType &gt;</text>
</g>
<!-- Node1 -->
<g id="node2" class="node">
<title>Node1</title>
<g id="a_node2"><a xlink:href="classMGLevelGlobalTransfer.html" target="_top" xlink:title="MGLevelGlobalTransfer\l\&lt; VectorType \&gt;">
<polygon fill="#ffffff" stroke="#000000" points="18.6279,-65.5 18.6279,-93.5 140.4141,-93.5 140.4141,-65.5 18.6279,-65.5"/>
<text text-anchor="start" x="26.6279" y="-81.5" font-family="Helvetica,sans-Serif" font-size="10.00" fill="#000000">MGLevelGlobalTransfer</text>
<text text-anchor="middle" x="79.521" y="-71.5" font-family="Helvetica,sans-Serif" font-size="10.00" fill="#000000">&lt; VectorType &gt;</text>
</a>
</g>
</g>
<!-- Node1&#45;&gt;Node0 -->
<g id="edge1" class="edge">
<title>Node1&#45;&gt;Node0</title>
<path fill="none" stroke="#191970" d="M79.521,-55.1081C79.521,-46.1539 79.521,-36.3227 79.521,-28.5765"/>
<polygon fill="#191970" stroke="#191970" points="76.0211,-55.3959 79.521,-65.396 83.0211,-55.396 76.0211,-55.3959"/>
</g>
<!-- Node2 -->
<g id="node3" class="node">
<title>Node2</title>
<g id="a_node3"><a xlink:href="classMGTransferBase.html" target="_top" xlink:title="MGTransferBase\&lt; VectorType \&gt;">
<polygon fill="#ffffff" stroke="#000000" points="0,-130.5 0,-148.5 159.042,-148.5 159.042,-130.5 0,-130.5"/>
<text text-anchor="middle" x="79.521" y="-136.5" font-family="Helvetica,sans-Serif" font-size="10.00" fill="#000000">MGTransferBase&lt; VectorType &gt;</text>
</a>
</g>
</g>
<!-- Node2&#45;&gt;Node1 -->
<g id="edge2" class="edge">
<title>Node2&#45;&gt;Node1</title>
<path fill="none" stroke="#191970" d="M79.521,-120.1865C79.521,-111.6283 79.521,-101.7354 79.521,-93.8477"/>
<polygon fill="#191970" stroke="#191970" points="76.0211,-120.3873 79.521,-130.3873 83.0211,-120.3873 76.0211,-120.3873"/>
</g>
<!-- Node3 -->
<g id="node4" class="node">
<title>Node3</title>
<g id="a_node4"><a xlink:href="classSubscriptor.html" target="_top" xlink:title="Subscriptor">
<polygon fill="#ffffff" stroke="#000000" points="46.2329,-185.5 46.2329,-203.5 112.8091,-203.5 112.8091,-185.5 46.2329,-185.5"/>
<text text-anchor="middle" x="79.521" y="-191.5" font-family="Helvetica,sans-Serif" font-size="10.00" fill="#000000">Subscriptor</text>
</a>
</g>
</g>
<!-- Node3&#45;&gt;Node2 -->
<g id="edge3" class="edge">
<title>Node3&#45;&gt;Node2</title>
<path fill="none" stroke="#191970" d="M79.521,-175.383C79.521,-166.3738 79.521,-156.0373 79.521,-148.7795"/>
<polygon fill="#191970" stroke="#191970" points="76.0211,-175.4178 79.521,-185.4179 83.0211,-175.4179 76.0211,-175.4178"/>
</g>
</g>
</svg>
