<?xml version="1.0" encoding="UTF-8" standalone="no"?>
<!DOCTYPE svg PUBLIC "-//W3C//DTD SVG 1.1//EN"
 "http://www.w3.org/Graphics/SVG/1.1/DTD/svg11.dtd">
<!-- Generated by graphviz version 2.40.1 (20161225.0304)
 -->
<!-- Title: SolverControl Pages: 1 -->
<svg width="240pt" height="137pt"
 viewBox="0.00 0.00 239.60 137.00" xmlns="http://www.w3.org/2000/svg" xmlns:xlink="http://www.w3.org/1999/xlink">
<g id="graph0" class="graph" transform="scale(1 1) rotate(0) translate(4 133)">
<title>SolverControl</title>
<polygon fill="#ffffff" stroke="transparent" points="-4,4 -4,-133 235.6006,-133 235.6006,4 -4,4"/>
<!-- Node0 -->
<g id="node1" class="node">
<title>Node0</title>
<polygon fill="#bfbfbf" stroke="#000000" points="83.6772,-55.5 83.6772,-73.5 160.2583,-73.5 160.2583,-55.5 83.6772,-55.5"/>
<text text-anchor="middle" x="121.9678" y="-61.5" font-family="Helvetica,sans-Serif" font-size="10.00" fill="#000000">SolverControl</text>
</g>
<!-- Node2 -->
<g id="node3" class="node">
<title>Node2</title>
<g id="a_node3"><a xlink:href="classIterationNumberControl.html" target="_top" xlink:title="IterationNumberControl">
<polygon fill="#ffffff" stroke="#000000" points="0,-.5 0,-18.5 119.9355,-18.5 119.9355,-.5 0,-.5"/>
<text text-anchor="middle" x="59.9678" y="-6.5" font-family="Helvetica,sans-Serif" font-size="10.00" fill="#000000">IterationNumberControl</text>
</a>
</g>
</g>
<!-- Node0&#45;&gt;Node2 -->
<g id="edge2" class="edge">
<title>Node0&#45;&gt;Node2</title>
<path fill="none" stroke="#191970" d="M104.0263,-48.5841C93.1296,-38.9177 79.5989,-26.9147 70.4283,-18.7795"/>
<polygon fill="#191970" stroke="#191970" points="101.9263,-51.4 111.7297,-55.4179 106.5716,-46.1634 101.9263,-51.4"/>
</g>
<!-- Node3 -->
<g id="node4" class="node">
<title>Node3</title>
<g id="a_node4"><a xlink:href="classReductionControl.html" target="_top" xlink:title="ReductionControl">
<polygon fill="#ffffff" stroke="#000000" points="138.335,-.5 138.335,-18.5 231.6006,-18.5 231.6006,-.5 138.335,-.5"/>
<text text-anchor="middle" x="184.9678" y="-6.5" font-family="Helvetica,sans-Serif" font-size="10.00" fill="#000000">ReductionControl</text>
</a>
</g>
</g>
<!-- Node0&#45;&gt;Node3 -->
<g id="edge3" class="edge">
<title>Node0&#45;&gt;Node3</title>
<path fill="none" stroke="#191970" d="M140.1987,-48.5841C151.2711,-38.9177 165.0201,-26.9147 174.3386,-18.7795"/>
<polygon fill="#191970" stroke="#191970" points="137.6023,-46.2046 132.3709,-55.4179 142.2059,-51.4779 137.6023,-46.2046"/>
</g>
<!-- Node1 -->
<g id="node2" class="node">
<title>Node1</title>
<g id="a_node2"><a xlink:href="classSubscriptor.html" target="_top" xlink:title="Subscriptor">
<polygon fill="#ffffff" stroke="#000000" points="88.6797,-110.5 88.6797,-128.5 155.2559,-128.5 155.2559,-110.5 88.6797,-110.5"/>
<text text-anchor="middle" x="121.9678" y="-116.5" font-family="Helvetica,sans-Serif" font-size="10.00" fill="#000000">Subscriptor</text>
</a>
</g>
</g>
<!-- Node1&#45;&gt;Node0 -->
<g id="edge1" class="edge">
<title>Node1&#45;&gt;Node0</title>
<path fill="none" stroke="#191970" d="M121.9678,-100.383C121.9678,-91.3738 121.9678,-81.0373 121.9678,-73.7795"/>
<polygon fill="#191970" stroke="#191970" points="118.4679,-100.4178 121.9678,-110.4179 125.4679,-100.4179 118.4679,-100.4178"/>
</g>
</g>
</svg>
