<?xml version="1.0" encoding="UTF-8" standalone="no"?>
<!DOCTYPE svg PUBLIC "-//W3C//DTD SVG 1.1//EN"
 "http://www.w3.org/Graphics/SVG/1.1/DTD/svg11.dtd">
<!-- Generated by graphviz version 2.40.1 (20161225.0304)
 -->
<!-- Title: CellAccessor&lt; dim, spacedim &gt; Pages: 1 -->
<svg width="702pt" height="63pt"
 viewBox="0.00 0.00 702.17 63.00" xmlns="http://www.w3.org/2000/svg" xmlns:xlink="http://www.w3.org/1999/xlink">
<g id="graph0" class="graph" transform="scale(1 1) rotate(0) translate(4 59)">
<title>CellAccessor&lt; dim, spacedim &gt;</title>
<polygon fill="#ffffff" stroke="transparent" points="-4,4 -4,-59 698.166,-59 698.166,4 -4,4"/>
<!-- Node0 -->
<g id="node1" class="node">
<title>Node0</title>
<polygon fill="#bfbfbf" stroke="#000000" points="592.3066,-26.5 592.3066,-54.5 694.166,-54.5 694.166,-26.5 592.3066,-26.5"/>
<text text-anchor="start" x="600.3066" y="-42.5" font-family="Helvetica,sans-Serif" font-size="10.00" fill="#000000">CellAccessor&lt; dim,</text>
<text text-anchor="middle" x="643.2363" y="-32.5" font-family="Helvetica,sans-Serif" font-size="10.00" fill="#000000"> spacedim &gt;</text>
</g>
<!-- Node1 -->
<g id="node2" class="node">
<title>Node1</title>
<g id="a_node2"><a xlink:href="classTriaAccessor.html" target="_top" xlink:title="TriaAccessor\&lt; dim,\l dim, spacedim \&gt;">
<polygon fill="#ffffff" stroke="#000000" points="453.8184,-26.5 453.8184,-54.5 555.3066,-54.5 555.3066,-26.5 453.8184,-26.5"/>
<text text-anchor="start" x="461.8184" y="-42.5" font-family="Helvetica,sans-Serif" font-size="10.00" fill="#000000">TriaAccessor&lt; dim,</text>
<text text-anchor="middle" x="504.5625" y="-32.5" font-family="Helvetica,sans-Serif" font-size="10.00" fill="#000000"> dim, spacedim &gt;</text>
</a>
</g>
</g>
<!-- Node1&#45;&gt;Node0 -->
<g id="edge1" class="edge">
<title>Node1&#45;&gt;Node0</title>
<path fill="none" stroke="#191970" d="M565.6079,-40.5C574.393,-40.5 583.3583,-40.5 591.9287,-40.5"/>
<polygon fill="#191970" stroke="#191970" points="565.4121,-37.0001 555.4121,-40.5 565.412,-44.0001 565.4121,-37.0001"/>
</g>
<!-- Node2 -->
<g id="node3" class="node">
<title>Node2</title>
<g id="a_node3"><a xlink:href="classTriaAccessorBase.html" target="_top" xlink:title="TriaAccessorBase\&lt; structdim,\l dim, spacedim \&gt;">
<polygon fill="#ffffff" stroke="#000000" points="0,-21.5 0,-49.5 148.7295,-49.5 148.7295,-21.5 0,-21.5"/>
<text text-anchor="start" x="8" y="-37.5" font-family="Helvetica,sans-Serif" font-size="10.00" fill="#000000">TriaAccessorBase&lt; structdim,</text>
<text text-anchor="middle" x="74.3647" y="-27.5" font-family="Helvetica,sans-Serif" font-size="10.00" fill="#000000"> dim, spacedim &gt;</text>
</a>
</g>
</g>
<!-- Node2&#45;&gt;Node1 -->
<g id="edge2" class="edge">
<title>Node2&#45;&gt;Node1</title>
<path fill="none" stroke="#191970" d="M159.0503,-38.2566C161.6393,-38.3389 164.2038,-38.4202 166.7295,-38.5 286.2856,-42.276 316.2311,-46.1082 435.8184,-43.5 441.5511,-43.375 447.5509,-43.1914 453.516,-42.9755"/>
<polygon fill="#191970" stroke="#191970" points="159.0798,-34.7558 148.9731,-37.9347 158.8563,-41.7522 159.0798,-34.7558"/>
</g>
<!-- Node3 -->
<g id="node4" class="node">
<title>Node3</title>
<g id="a_node4"><a xlink:href="classTriaAccessor.html" target="_top" xlink:title="TriaAccessor\&lt; structdim,\l dim, spacedim \&gt;">
<polygon fill="#ffffff" stroke="#000000" points="185.7295,-.5 185.7295,-28.5 311.666,-28.5 311.666,-.5 185.7295,-.5"/>
<text text-anchor="start" x="193.7295" y="-16.5" font-family="Helvetica,sans-Serif" font-size="10.00" fill="#000000">TriaAccessor&lt; structdim,</text>
<text text-anchor="middle" x="248.6978" y="-6.5" font-family="Helvetica,sans-Serif" font-size="10.00" fill="#000000"> dim, spacedim &gt;</text>
</a>
</g>
</g>
<!-- Node2&#45;&gt;Node3 -->
<g id="edge4" class="edge">
<title>Node2&#45;&gt;Node3</title>
<path fill="none" stroke="#191970" d="M158.8805,-25.3193C167.8379,-24.2403 176.8327,-23.1568 185.4861,-22.1144"/>
<polygon fill="#191970" stroke="#191970" points="158.3129,-21.8623 148.8033,-26.5332 159.1501,-28.812 158.3129,-21.8623"/>
</g>
<!-- Node3&#45;&gt;Node1 -->
<g id="edge3" class="edge">
<title>Node3&#45;&gt;Node1</title>
<path fill="none" stroke="#ffa500" stroke-dasharray="5,2" d="M321.9337,-21.9314C356.4787,-25.438 398.2681,-29.6818 435.8184,-33.5 441.5471,-34.0825 447.5444,-34.6927 453.5081,-35.2997"/>
<polygon fill="#ffa500" stroke="#ffa500" points="322.2288,-18.4435 311.9264,-20.9156 321.5218,-25.4077 322.2288,-18.4435"/>
<text text-anchor="middle" x="382.7422" y="-35.5" font-family="Helvetica,sans-Serif" font-size="10.00" fill="#000000"> &lt; dim, dim, spacedim &gt;</text>
</g>
</g>
</svg>
