<?xml version="1.0" encoding="UTF-8" standalone="no"?>
<!DOCTYPE svg PUBLIC "-//W3C//DTD SVG 1.1//EN"
 "http://www.w3.org/Graphics/SVG/1.1/DTD/svg11.dtd">
<!-- Generated by graphviz version 2.40.1 (20161225.0304)
 -->
<!-- Title: FEEvaluationAccess&lt; dim, n_components_, Number &gt; Pages: 1 -->
<svg width="148pt" height="177pt"
 viewBox="0.00 0.00 147.68 177.00" xmlns="http://www.w3.org/2000/svg" xmlns:xlink="http://www.w3.org/1999/xlink">
<g id="graph0" class="graph" transform="scale(1 1) rotate(0) translate(4 173)">
<title>FEEvaluationAccess&lt; dim, n_components_, Number &gt;</title>
<polygon fill="#ffffff" stroke="transparent" points="-4,4 -4,-173 143.6816,-173 143.6816,4 -4,4"/>
<!-- Node0 -->
<g id="node1" class="node">
<title>Node0</title>
<polygon fill="#bfbfbf" stroke="#000000" points="13.8965,-65.5 13.8965,-103.5 125.7852,-103.5 125.7852,-65.5 13.8965,-65.5"/>
<text text-anchor="start" x="21.8965" y="-91.5" font-family="Helvetica,sans-Serif" font-size="10.00" fill="#000000">FEEvaluationAccess</text>
<text text-anchor="start" x="21.8965" y="-81.5" font-family="Helvetica,sans-Serif" font-size="10.00" fill="#000000">&lt; dim, n_components</text>
<text text-anchor="middle" x="69.8408" y="-71.5" font-family="Helvetica,sans-Serif" font-size="10.00" fill="#000000">_, Number &gt;</text>
</g>
<!-- Node2 -->
<g id="node3" class="node">
<title>Node2</title>
<g id="a_node3"><a xlink:href="classFEEvaluation.html" target="_top" xlink:title="FEEvaluation\&lt; dim,\l n_components_, Number \&gt;">
<polygon fill="#ffffff" stroke="#000000" points="0,-.5 0,-28.5 139.6816,-28.5 139.6816,-.5 0,-.5"/>
<text text-anchor="start" x="8" y="-16.5" font-family="Helvetica,sans-Serif" font-size="10.00" fill="#000000">FEEvaluation&lt; dim,</text>
<text text-anchor="middle" x="69.8408" y="-6.5" font-family="Helvetica,sans-Serif" font-size="10.00" fill="#000000"> n_components_, Number &gt;</text>
</a>
</g>
</g>
<!-- Node0&#45;&gt;Node2 -->
<g id="edge2" class="edge">
<title>Node0&#45;&gt;Node2</title>
<path fill="none" stroke="#191970" d="M69.8408,-55.1346C69.8408,-46.0837 69.8408,-36.5165 69.8408,-28.9404"/>
<polygon fill="#191970" stroke="#191970" points="66.3409,-55.3722 69.8408,-65.3722 73.3409,-55.3722 66.3409,-55.3722"/>
</g>
<!-- Node1 -->
<g id="node2" class="node">
<title>Node1</title>
<g id="a_node2"><a xlink:href="classFEEvaluationBase.html" target="_top" xlink:title="FEEvaluationBase\&lt; dim,\l n_components_, Number \&gt;">
<polygon fill="#ffffff" stroke="#000000" points="0,-140.5 0,-168.5 139.6816,-168.5 139.6816,-140.5 0,-140.5"/>
<text text-anchor="start" x="8" y="-156.5" font-family="Helvetica,sans-Serif" font-size="10.00" fill="#000000">FEEvaluationBase&lt; dim,</text>
<text text-anchor="middle" x="69.8408" y="-146.5" font-family="Helvetica,sans-Serif" font-size="10.00" fill="#000000"> n_components_, Number &gt;</text>
</a>
</g>
</g>
<!-- Node1&#45;&gt;Node0 -->
<g id="edge1" class="edge">
<title>Node1&#45;&gt;Node0</title>
<path fill="none" stroke="#191970" d="M69.8408,-130.0725C69.8408,-121.4275 69.8408,-111.8328 69.8408,-103.6857"/>
<polygon fill="#191970" stroke="#191970" points="66.3409,-130.3344 69.8408,-140.3345 73.3409,-130.3345 66.3409,-130.3344"/>
</g>
</g>
</svg>
