<?xml version="1.0" encoding="UTF-8" standalone="no"?>
<!DOCTYPE svg PUBLIC "-//W3C//DTD SVG 1.1//EN"
 "http://www.w3.org/Graphics/SVG/1.1/DTD/svg11.dtd">
<!-- Generated by graphviz version 2.40.1 (20161225.0304)
 -->
<!-- Title: DoFHandler&lt; dim, spacedim &gt; Pages: 1 -->
<svg width="160pt" height="148pt"
 viewBox="0.00 0.00 159.62 148.00" xmlns="http://www.w3.org/2000/svg" xmlns:xlink="http://www.w3.org/1999/xlink">
<g id="graph0" class="graph" transform="scale(1 1) rotate(0) translate(4 144)">
<title>DoFHandler&lt; dim, spacedim &gt;</title>
<polygon fill="#ffffff" stroke="transparent" points="-4,4 -4,-144 155.6152,-144 155.6152,4 -4,4"/>
<!-- Node0 -->
<g id="node1" class="node">
<title>Node0</title>
<polygon fill="#bfbfbf" stroke="#000000" points="0,-65.5 0,-83.5 151.6152,-83.5 151.6152,-65.5 0,-65.5"/>
<text text-anchor="middle" x="75.8076" y="-71.5" font-family="Helvetica,sans-Serif" font-size="10.00" fill="#000000">DoFHandler&lt; dim, spacedim &gt;</text>
</g>
<!-- Node2 -->
<g id="node3" class="node">
<title>Node2</title>
<g id="a_node3"><a xlink:href="classDoFHandler.html" target="_top" xlink:title="DoFHandler\&lt; dim \&gt;">
<polygon fill="#ffffff" stroke="#000000" points="24.1772,-.5 24.1772,-18.5 127.438,-18.5 127.438,-.5 24.1772,-.5"/>
<text text-anchor="middle" x="75.8076" y="-6.5" font-family="Helvetica,sans-Serif" font-size="10.00" fill="#000000">DoFHandler&lt; dim &gt;</text>
</a>
</g>
</g>
<!-- Node0&#45;&gt;Node2 -->
<g id="edge2" class="edge">
<title>Node0&#45;&gt;Node2</title>
<path fill="none" stroke="#ffa500" stroke-dasharray="5,2" d="M75.8076,-55.1265C75.8076,-43.1522 75.8076,-28.3205 75.8076,-18.8821"/>
<polygon fill="#ffa500" stroke="#ffa500" points="72.3077,-55.462 75.8076,-65.462 79.3077,-55.4621 72.3077,-55.462"/>
<text text-anchor="middle" x="93.8716" y="-39" font-family="Helvetica,sans-Serif" font-size="10.00" fill="#000000"> &lt; dim &gt;</text>
</g>
<!-- Node1 -->
<g id="node2" class="node">
<title>Node1</title>
<g id="a_node2"><a xlink:href="classSubscriptor.html" target="_top" xlink:title="Subscriptor">
<polygon fill="#ffffff" stroke="#000000" points="42.5195,-121.5 42.5195,-139.5 109.0957,-139.5 109.0957,-121.5 42.5195,-121.5"/>
<text text-anchor="middle" x="75.8076" y="-127.5" font-family="Helvetica,sans-Serif" font-size="10.00" fill="#000000">Subscriptor</text>
</a>
</g>
</g>
<!-- Node1&#45;&gt;Node0 -->
<g id="edge1" class="edge">
<title>Node1&#45;&gt;Node0</title>
<path fill="none" stroke="#191970" d="M75.8076,-111.2065C75.8076,-101.8384 75.8076,-91.0262 75.8076,-83.5752"/>
<polygon fill="#191970" stroke="#191970" points="72.3077,-111.2527 75.8076,-121.2527 79.3077,-111.2528 72.3077,-111.2527"/>
</g>
</g>
</svg>
