<?xml version="1.0" encoding="UTF-8" standalone="no"?>
<!DOCTYPE svg PUBLIC "-//W3C//DTD SVG 1.1//EN"
 "http://www.w3.org/Graphics/SVG/1.1/DTD/svg11.dtd">
<!-- Generated by graphviz version 2.40.1 (20161225.0304)
 -->
<!-- Title: MappingQGeneric&lt; dim, spacedim &gt; Pages: 1 -->
<svg width="602pt" height="178pt"
 viewBox="0.00 0.00 601.88 178.00" xmlns="http://www.w3.org/2000/svg" xmlns:xlink="http://www.w3.org/1999/xlink">
<g id="graph0" class="graph" transform="scale(1 1) rotate(0) translate(4 174)">
<title>MappingQGeneric&lt; dim, spacedim &gt;</title>
<polygon fill="#ffffff" stroke="transparent" points="-4,4 -4,-174 597.8799,-174 597.8799,4 -4,4"/>
<!-- Node0 -->
<g id="node1" class="node">
<title>Node0</title>
<polygon fill="#bfbfbf" stroke="#000000" points="274.6396,-78.5 274.6396,-106.5 399.3018,-106.5 399.3018,-78.5 274.6396,-78.5"/>
<text text-anchor="start" x="282.6396" y="-94.5" font-family="Helvetica,sans-Serif" font-size="10.00" fill="#000000">MappingQGeneric&lt; dim,</text>
<text text-anchor="middle" x="336.9707" y="-84.5" font-family="Helvetica,sans-Serif" font-size="10.00" fill="#000000"> spacedim &gt;</text>
</g>
<!-- Node3 -->
<g id="node4" class="node">
<title>Node3</title>
<g id="a_node4"><a xlink:href="classMappingC1_1_1MappingC1Generic.html" target="_top" xlink:title="MappingC1\&lt; dim, spacedim\l \&gt;::MappingC1Generic">
<polygon fill="#ffffff" stroke="#000000" points="444.4766,-141.5 444.4766,-169.5 584.7051,-169.5 584.7051,-141.5 444.4766,-141.5"/>
<text text-anchor="start" x="452.4766" y="-157.5" font-family="Helvetica,sans-Serif" font-size="10.00" fill="#000000">MappingC1&lt; dim, spacedim</text>
<text text-anchor="middle" x="514.5908" y="-147.5" font-family="Helvetica,sans-Serif" font-size="10.00" fill="#000000"> &gt;::MappingC1Generic</text>
</a>
</g>
</g>
<!-- Node0&#45;&gt;Node3 -->
<g id="edge3" class="edge">
<title>Node0&#45;&gt;Node3</title>
<path fill="none" stroke="#191970" d="M378.3071,-110.4311C395.7416,-117.7016 416.3528,-125.9176 435.3018,-132.5 444.2377,-135.6041 453.8361,-138.6365 463.1616,-141.4277"/>
<polygon fill="#191970" stroke="#191970" points="379.5535,-107.1584 368.9788,-106.5056 376.8383,-113.6104 379.5535,-107.1584"/>
</g>
<!-- Node4 -->
<g id="node5" class="node">
<title>Node4</title>
<g id="a_node5"><a xlink:href="classMappingQ1.html" target="_top" xlink:title="MappingQ1\&lt; dim, spacedim \&gt;">
<polygon fill="#ffffff" stroke="#000000" points="439.8892,-104.5 439.8892,-122.5 589.2925,-122.5 589.2925,-104.5 439.8892,-104.5"/>
<text text-anchor="middle" x="514.5908" y="-110.5" font-family="Helvetica,sans-Serif" font-size="10.00" fill="#000000">MappingQ1&lt; dim, spacedim &gt;</text>
</a>
</g>
</g>
<!-- Node0&#45;&gt;Node4 -->
<g id="edge4" class="edge">
<title>Node0&#45;&gt;Node4</title>
<path fill="none" stroke="#191970" d="M409.3023,-101.0518C419.3793,-102.2432 429.7497,-103.4692 439.8696,-104.6657"/>
<polygon fill="#191970" stroke="#191970" points="409.685,-97.5727 399.3432,-99.8743 408.863,-104.5243 409.685,-97.5727"/>
</g>
<!-- Node5 -->
<g id="node6" class="node">
<title>Node5</title>
<g id="a_node6"><a xlink:href="classMappingQ1Eulerian.html" target="_top" xlink:title="MappingQ1Eulerian\&lt;\l dim, spacedim \&gt;">
<polygon fill="#ffffff" stroke="#000000" points="459.4766,-57.5 459.4766,-85.5 569.7051,-85.5 569.7051,-57.5 459.4766,-57.5"/>
<text text-anchor="start" x="467.4766" y="-73.5" font-family="Helvetica,sans-Serif" font-size="10.00" fill="#000000">MappingQ1Eulerian&lt;</text>
<text text-anchor="middle" x="514.5908" y="-63.5" font-family="Helvetica,sans-Serif" font-size="10.00" fill="#000000"> dim, spacedim &gt;</text>
</a>
</g>
</g>
<!-- Node0&#45;&gt;Node5 -->
<g id="edge5" class="edge">
<title>Node0&#45;&gt;Node5</title>
<path fill="none" stroke="#191970" d="M409.5908,-83.9141C426.2476,-81.9448 443.6909,-79.8825 459.4687,-78.0171"/>
<polygon fill="#191970" stroke="#191970" points="408.863,-80.4757 399.3432,-85.1257 409.685,-87.4273 408.863,-80.4757"/>
</g>
<!-- Node6 -->
<g id="node7" class="node">
<title>Node6</title>
<g id="a_node7"><a xlink:href="classMappingQEulerian_1_1MappingQEulerianGeneric.html" target="_top" xlink:title="MappingQEulerian\&lt; dim,\l spacedim \&gt;::MappingQEulerian\lGeneric">
<polygon fill="#ffffff" stroke="#000000" points="435.3018,-.5 435.3018,-38.5 593.8799,-38.5 593.8799,-.5 435.3018,-.5"/>
<text text-anchor="start" x="443.3018" y="-26.5" font-family="Helvetica,sans-Serif" font-size="10.00" fill="#000000">MappingQEulerian&lt; dim,</text>
<text text-anchor="start" x="443.3018" y="-16.5" font-family="Helvetica,sans-Serif" font-size="10.00" fill="#000000"> spacedim &gt;::MappingQEulerian</text>
<text text-anchor="middle" x="514.5908" y="-6.5" font-family="Helvetica,sans-Serif" font-size="10.00" fill="#000000">Generic</text>
</a>
</g>
</g>
<!-- Node0&#45;&gt;Node6 -->
<g id="edge6" class="edge">
<title>Node0&#45;&gt;Node6</title>
<path fill="none" stroke="#191970" d="M375.0036,-74.13C393.1016,-65.638 415.1451,-55.6521 435.3018,-47.5 442.7452,-44.4896 450.6502,-41.4802 458.4747,-38.6105"/>
<polygon fill="#191970" stroke="#191970" points="373.4765,-70.9805 365.9301,-78.4171 376.4669,-77.3096 373.4765,-70.9805"/>
</g>
<!-- Node1 -->
<g id="node2" class="node">
<title>Node1</title>
<g id="a_node2"><a xlink:href="classMapping.html" target="_top" xlink:title="Abstract base class for mapping classes. ">
<polygon fill="#ffffff" stroke="#000000" points="102.5762,-83.5 102.5762,-101.5 238.6396,-101.5 238.6396,-83.5 102.5762,-83.5"/>
<text text-anchor="middle" x="170.6079" y="-89.5" font-family="Helvetica,sans-Serif" font-size="10.00" fill="#000000">Mapping&lt; dim, spacedim &gt;</text>
</a>
</g>
</g>
<!-- Node1&#45;&gt;Node0 -->
<g id="edge1" class="edge">
<title>Node1&#45;&gt;Node0</title>
<path fill="none" stroke="#191970" d="M248.8256,-92.5C257.452,-92.5 266.1499,-92.5 274.5463,-92.5"/>
<polygon fill="#191970" stroke="#191970" points="248.7541,-89.0001 238.754,-92.5 248.754,-96.0001 248.7541,-89.0001"/>
</g>
<!-- Node2 -->
<g id="node3" class="node">
<title>Node2</title>
<g id="a_node3"><a xlink:href="classSubscriptor.html" target="_top" xlink:title="Subscriptor">
<polygon fill="#ffffff" stroke="#000000" points="0,-83.5 0,-101.5 66.5762,-101.5 66.5762,-83.5 0,-83.5"/>
<text text-anchor="middle" x="33.2881" y="-89.5" font-family="Helvetica,sans-Serif" font-size="10.00" fill="#000000">Subscriptor</text>
</a>
</g>
</g>
<!-- Node2&#45;&gt;Node1 -->
<g id="edge2" class="edge">
<title>Node2&#45;&gt;Node1</title>
<path fill="none" stroke="#191970" d="M77.1461,-92.5C85.2213,-92.5 93.8253,-92.5 102.4194,-92.5"/>
<polygon fill="#191970" stroke="#191970" points="76.8803,-89.0001 66.8803,-92.5 76.8803,-96.0001 76.8803,-89.0001"/>
</g>
</g>
</svg>
