<?xml version="1.0" encoding="UTF-8" standalone="no"?>
<!DOCTYPE svg PUBLIC "-//W3C//DTD SVG 1.1//EN"
 "http://www.w3.org/Graphics/SVG/1.1/DTD/svg11.dtd">
<!-- Generated by graphviz version 2.40.1 (20161225.0304)
 -->
<!-- Title: ExceptionBase Pages: 1 -->
<svg width="287pt" height="158pt"
 viewBox="0.00 0.00 286.64 158.00" xmlns="http://www.w3.org/2000/svg" xmlns:xlink="http://www.w3.org/1999/xlink">
<g id="graph0" class="graph" transform="scale(1 1) rotate(0) translate(4 154)">
<title>ExceptionBase</title>
<polygon fill="#ffffff" stroke="transparent" points="-4,4 -4,-154 282.6445,-154 282.6445,4 -4,4"/>
<!-- Node0 -->
<g id="node1" class="node">
<title>Node0</title>
<polygon fill="#bfbfbf" stroke="#000000" points="0,-73.5 0,-91.5 82.709,-91.5 82.709,-73.5 0,-73.5"/>
<text text-anchor="middle" x="41.3545" y="-79.5" font-family="Helvetica,sans-Serif" font-size="10.00" fill="#000000">ExceptionBase</text>
</g>
<!-- Node1 -->
<g id="node2" class="node">
<title>Node1</title>
<g id="a_node2"><a xlink:href="classLACExceptions_1_1ExcPETScError.html" target="_top" xlink:title="LACExceptions::ExcPETScError">
<polygon fill="#ffffff" stroke="#000000" points="118.709,-131.5 118.709,-149.5 278.6445,-149.5 278.6445,-131.5 118.709,-131.5"/>
<text text-anchor="middle" x="198.6768" y="-137.5" font-family="Helvetica,sans-Serif" font-size="10.00" fill="#000000">LACExceptions::ExcPETScError</text>
</a>
</g>
</g>
<!-- Node0&#45;&gt;Node1 -->
<g id="edge1" class="edge">
<title>Node0&#45;&gt;Node1</title>
<path fill="none" stroke="#191970" d="M65.2763,-96.9002C80.2042,-105.3666 100.0639,-115.7084 118.709,-122.5 128.3363,-126.0068 138.8738,-128.9648 149.048,-131.4054"/>
<polygon fill="#191970" stroke="#191970" points="66.648,-93.6498 56.241,-91.6634 63.1378,-99.7062 66.648,-93.6498"/>
</g>
<!-- Node2 -->
<g id="node3" class="node">
<title>Node2</title>
<g id="a_node3"><a xlink:href="classSolverControl_1_1NoConvergence.html" target="_top" xlink:title="SolverControl::NoConvergence">
<polygon fill="#ffffff" stroke="#000000" points="121.4751,-94.5 121.4751,-112.5 275.8784,-112.5 275.8784,-94.5 121.4751,-94.5"/>
<text text-anchor="middle" x="198.6768" y="-100.5" font-family="Helvetica,sans-Serif" font-size="10.00" fill="#000000">SolverControl::NoConvergence</text>
</a>
</g>
</g>
<!-- Node0&#45;&gt;Node2 -->
<g id="edge2" class="edge">
<title>Node0&#45;&gt;Node2</title>
<path fill="none" stroke="#191970" d="M93.0697,-89.4031C105.2477,-91.0287 118.4058,-92.7851 131.1645,-94.4882"/>
<polygon fill="#191970" stroke="#191970" points="93.4761,-85.9264 83.1009,-88.0725 92.5499,-92.8649 93.4761,-85.9264"/>
</g>
<!-- Node3 -->
<g id="node4" class="node">
<title>Node3</title>
<g id="a_node4"><a xlink:href="classStandardExceptions_1_1ExcMPI.html" target="_top" xlink:title="StandardExceptions\l::ExcMPI">
<polygon fill="#ffffff" stroke="#000000" points="145.9258,-47.5 145.9258,-75.5 251.4277,-75.5 251.4277,-47.5 145.9258,-47.5"/>
<text text-anchor="start" x="153.9258" y="-63.5" font-family="Helvetica,sans-Serif" font-size="10.00" fill="#000000">StandardExceptions</text>
<text text-anchor="middle" x="198.6768" y="-53.5" font-family="Helvetica,sans-Serif" font-size="10.00" fill="#000000">::ExcMPI</text>
</a>
</g>
</g>
<!-- Node0&#45;&gt;Node3 -->
<g id="edge3" class="edge">
<title>Node0&#45;&gt;Node3</title>
<path fill="none" stroke="#191970" d="M93.3088,-75.5649C110.1397,-73.3183 128.8214,-70.8246 145.7238,-68.5684"/>
<polygon fill="#191970" stroke="#191970" points="92.5499,-72.1351 83.1009,-76.9275 93.4761,-79.0736 92.5499,-72.1351"/>
</g>
<!-- Node4 -->
<g id="node5" class="node">
<title>Node4</title>
<g id="a_node5"><a xlink:href="structTriangulation_1_1DistortedCellList.html" target="_top" xlink:title="Triangulation\&lt; dim,\l spacedim \&gt;::DistortedCellList">
<polygon fill="#ffffff" stroke="#000000" points="124.3999,-.5 124.3999,-28.5 272.9536,-28.5 272.9536,-.5 124.3999,-.5"/>
<text text-anchor="start" x="132.3999" y="-16.5" font-family="Helvetica,sans-Serif" font-size="10.00" fill="#000000">Triangulation&lt; dim,</text>
<text text-anchor="middle" x="198.6768" y="-6.5" font-family="Helvetica,sans-Serif" font-size="10.00" fill="#000000"> spacedim &gt;::DistortedCellList</text>
</a>
</g>
</g>
<!-- Node0&#45;&gt;Node4 -->
<g id="edge4" class="edge">
<title>Node0&#45;&gt;Node4</title>
<path fill="none" stroke="#191970" d="M63.7392,-67.9706C78.8241,-58.6355 99.418,-46.7556 118.709,-38.5 127.2377,-34.8501 136.5,-31.5252 145.5961,-28.5908"/>
<polygon fill="#191970" stroke="#191970" points="61.7161,-65.1084 55.1194,-73.399 65.4464,-71.0317 61.7161,-65.1084"/>
</g>
</g>
</svg>
