<?xml version="1.0" encoding="UTF-8" standalone="no"?>
<!DOCTYPE svg PUBLIC "-//W3C//DTD SVG 1.1//EN"
 "http://www.w3.org/Graphics/SVG/1.1/DTD/svg11.dtd">
<!-- Generated by graphviz version 2.40.1 (20161225.0304)
 -->
<!-- Title: StraightBoundary&lt; dim, spacedim &gt; Pages: 1 -->
<svg width="1445pt" height="168pt"
 viewBox="0.00 0.00 1445.40 168.00" xmlns="http://www.w3.org/2000/svg" xmlns:xlink="http://www.w3.org/1999/xlink">
<g id="graph0" class="graph" transform="scale(1 1) rotate(0) translate(4 164)">
<title>StraightBoundary&lt; dim, spacedim &gt;</title>
<polygon fill="#ffffff" stroke="transparent" points="-4,4 -4,-164 1441.3994,-164 1441.3994,4 -4,4"/>
<!-- Node0 -->
<g id="node1" class="node">
<title>Node0</title>
<polygon fill="#bfbfbf" stroke="#000000" points="588.5674,-59.5 588.5674,-87.5 709.3477,-87.5 709.3477,-59.5 588.5674,-59.5"/>
<text text-anchor="start" x="596.5674" y="-75.5" font-family="Helvetica,sans-Serif" font-size="10.00" fill="#000000">StraightBoundary&lt; dim,</text>
<text text-anchor="middle" x="648.9575" y="-65.5" font-family="Helvetica,sans-Serif" font-size="10.00" fill="#000000"> spacedim &gt;</text>
</g>
<!-- Node5 -->
<g id="node6" class="node">
<title>Node5</title>
<g id="a_node6"><a xlink:href="classCylinderBoundary.html" target="_top" xlink:title="CylinderBoundary\&lt; dim,\l spacedim \&gt;">
<polygon fill="#ffffff" stroke="#000000" points="804.957,-131.5 804.957,-159.5 927.9541,-159.5 927.9541,-131.5 804.957,-131.5"/>
<text text-anchor="start" x="812.957" y="-147.5" font-family="Helvetica,sans-Serif" font-size="10.00" fill="#000000">CylinderBoundary&lt; dim,</text>
<text text-anchor="middle" x="866.4556" y="-137.5" font-family="Helvetica,sans-Serif" font-size="10.00" fill="#000000"> spacedim &gt;</text>
</a>
</g>
</g>
<!-- Node0&#45;&gt;Node5 -->
<g id="edge5" class="edge">
<title>Node0&#45;&gt;Node5</title>
<path fill="none" stroke="#191970" d="M698.8658,-90.8474C708.3148,-94.0871 718.1266,-97.4208 727.3477,-100.5 759.0076,-111.0721 794.8468,-122.6567 822.2179,-131.424"/>
<polygon fill="#191970" stroke="#191970" points="699.7849,-87.4624 689.1902,-87.52 697.5084,-94.0819 699.7849,-87.4624"/>
</g>
<!-- Node6 -->
<g id="node7" class="node">
<title>Node6</title>
<g id="a_node7"><a xlink:href="classHyperBallBoundary.html" target="_top" xlink:title="HyperBallBoundary\&lt;\l dim, spacedim \&gt;">
<polygon fill="#ffffff" stroke="#000000" points="812.457,-84.5 812.457,-112.5 920.4541,-112.5 920.4541,-84.5 812.457,-84.5"/>
<text text-anchor="start" x="820.457" y="-100.5" font-family="Helvetica,sans-Serif" font-size="10.00" fill="#000000">HyperBallBoundary&lt;</text>
<text text-anchor="middle" x="866.4556" y="-90.5" font-family="Helvetica,sans-Serif" font-size="10.00" fill="#000000"> dim, spacedim &gt;</text>
</a>
</g>
</g>
<!-- Node0&#45;&gt;Node6 -->
<g id="edge6" class="edge">
<title>Node0&#45;&gt;Node6</title>
<path fill="none" stroke="#191970" d="M719.5494,-81.6141C749.606,-85.0689 784.1161,-89.0356 812.1327,-92.2559"/>
<polygon fill="#191970" stroke="#191970" points="719.8771,-78.1288 709.5429,-80.4639 719.0777,-85.083 719.8771,-78.1288"/>
</g>
<!-- Node11 -->
<g id="node12" class="node">
<title>Node11</title>
<g id="a_node12"><a xlink:href="classStraightBoundary.html" target="_top" xlink:title="StraightBoundary\&lt; dim,\l dim \&gt;">
<polygon fill="#ffffff" stroke="#000000" points="806.0654,-37.5 806.0654,-65.5 926.8457,-65.5 926.8457,-37.5 806.0654,-37.5"/>
<text text-anchor="start" x="814.0654" y="-53.5" font-family="Helvetica,sans-Serif" font-size="10.00" fill="#000000">StraightBoundary&lt; dim,</text>
<text text-anchor="middle" x="866.4556" y="-43.5" font-family="Helvetica,sans-Serif" font-size="10.00" fill="#000000"> dim &gt;</text>
</a>
</g>
</g>
<!-- Node0&#45;&gt;Node11 -->
<g id="edge11" class="edge">
<title>Node0&#45;&gt;Node11</title>
<path fill="none" stroke="#ffa500" stroke-dasharray="5,2" d="M719.6046,-66.354C747.4263,-63.5399 779.0566,-60.3404 805.8183,-57.6335"/>
<polygon fill="#ffa500" stroke="#ffa500" points="719.1398,-62.8831 709.5429,-67.3718 719.8443,-69.8475 719.1398,-62.8831"/>
<text text-anchor="middle" x="756.2466" y="-67.5" font-family="Helvetica,sans-Serif" font-size="10.00" fill="#000000"> &lt; dim, dim &gt;</text>
</g>
<!-- Node12 -->
<g id="node13" class="node">
<title>Node12</title>
<g id="a_node13"><a xlink:href="classStraightBoundary.html" target="_top" xlink:title="StraightBoundary\&lt; dim \&gt;">
<polygon fill="#ffffff" stroke="#000000" points="803.1455,-.5 803.1455,-18.5 929.7656,-18.5 929.7656,-.5 803.1455,-.5"/>
<text text-anchor="middle" x="866.4556" y="-6.5" font-family="Helvetica,sans-Serif" font-size="10.00" fill="#000000">StraightBoundary&lt; dim &gt;</text>
</a>
</g>
</g>
<!-- Node0&#45;&gt;Node12 -->
<g id="edge13" class="edge">
<title>Node0&#45;&gt;Node12</title>
<path fill="none" stroke="#ffa500" stroke-dasharray="5,2" d="M697.4966,-56.1753C707.335,-52.8351 717.6407,-49.4585 727.3477,-46.5 761.7705,-36.0087 801.4823,-25.6131 829.6413,-18.525"/>
<polygon fill="#ffa500" stroke="#ffa500" points="696.1747,-52.9286 687.8534,-59.4865 698.448,-59.5491 696.1747,-52.9286"/>
<text text-anchor="middle" x="756.2466" y="-48.5" font-family="Helvetica,sans-Serif" font-size="10.00" fill="#000000"> &lt; dim &gt;</text>
</g>
<!-- Node1 -->
<g id="node2" class="node">
<title>Node1</title>
<g id="a_node2"><a xlink:href="classBoundary.html" target="_top" xlink:title="Boundary\&lt; dim, spacedim \&gt;">
<polygon fill="#ffffff" stroke="#000000" points="411.0557,-64.5 411.0557,-82.5 551.5674,-82.5 551.5674,-64.5 411.0557,-64.5"/>
<text text-anchor="middle" x="481.3115" y="-70.5" font-family="Helvetica,sans-Serif" font-size="10.00" fill="#000000">Boundary&lt; dim, spacedim &gt;</text>
</a>
</g>
</g>
<!-- Node1&#45;&gt;Node0 -->
<g id="edge1" class="edge">
<title>Node1&#45;&gt;Node0</title>
<path fill="none" stroke="#191970" d="M561.9696,-73.5C570.9057,-73.5 579.8898,-73.5 588.5149,-73.5"/>
<polygon fill="#191970" stroke="#191970" points="561.9227,-70.0001 551.9226,-73.5 561.9226,-77.0001 561.9227,-70.0001"/>
</g>
<!-- Node2 -->
<g id="node3" class="node">
<title>Node2</title>
<g id="a_node3"><a xlink:href="classFlatManifold.html" target="_top" xlink:title="FlatManifold\&lt; dim,\l spacedim \&gt;">
<polygon fill="#ffffff" stroke="#000000" points="276.0781,-59.5 276.0781,-87.5 374.0557,-87.5 374.0557,-59.5 276.0781,-59.5"/>
<text text-anchor="start" x="284.0781" y="-75.5" font-family="Helvetica,sans-Serif" font-size="10.00" fill="#000000">FlatManifold&lt; dim,</text>
<text text-anchor="middle" x="325.0669" y="-65.5" font-family="Helvetica,sans-Serif" font-size="10.00" fill="#000000"> spacedim &gt;</text>
</a>
</g>
</g>
<!-- Node2&#45;&gt;Node1 -->
<g id="edge2" class="edge">
<title>Node2&#45;&gt;Node1</title>
<path fill="none" stroke="#191970" d="M384.1805,-73.5C392.9464,-73.5 402.0523,-73.5 411.0191,-73.5"/>
<polygon fill="#191970" stroke="#191970" points="384.075,-70.0001 374.075,-73.5 384.0749,-77.0001 384.075,-70.0001"/>
</g>
<!-- Node3 -->
<g id="node4" class="node">
<title>Node3</title>
<g id="a_node4"><a xlink:href="classManifold.html" target="_top" xlink:title="Manifold\&lt; dim, spacedim \&gt;">
<polygon fill="#ffffff" stroke="#000000" points="103.5762,-64.5 103.5762,-82.5 239.0781,-82.5 239.0781,-64.5 103.5762,-64.5"/>
<text text-anchor="middle" x="171.3271" y="-70.5" font-family="Helvetica,sans-Serif" font-size="10.00" fill="#000000">Manifold&lt; dim, spacedim &gt;</text>
</a>
</g>
</g>
<!-- Node3&#45;&gt;Node2 -->
<g id="edge3" class="edge">
<title>Node3&#45;&gt;Node2</title>
<path fill="none" stroke="#191970" d="M249.4129,-73.5C258.4675,-73.5 267.4997,-73.5 276.0066,-73.5"/>
<polygon fill="#191970" stroke="#191970" points="249.2072,-70.0001 239.2072,-73.5 249.2071,-77.0001 249.2072,-70.0001"/>
</g>
<!-- Node4 -->
<g id="node5" class="node">
<title>Node4</title>
<g id="a_node5"><a xlink:href="classSubscriptor.html" target="_top" xlink:title="Subscriptor">
<polygon fill="#ffffff" stroke="#000000" points="0,-64.5 0,-82.5 66.5762,-82.5 66.5762,-64.5 0,-64.5"/>
<text text-anchor="middle" x="33.2881" y="-70.5" font-family="Helvetica,sans-Serif" font-size="10.00" fill="#000000">Subscriptor</text>
</a>
</g>
</g>
<!-- Node4&#45;&gt;Node3 -->
<g id="edge4" class="edge">
<title>Node4&#45;&gt;Node3</title>
<path fill="none" stroke="#191970" d="M76.9826,-73.5C85.3786,-73.5 94.3551,-73.5 103.3091,-73.5"/>
<polygon fill="#191970" stroke="#191970" points="76.7035,-70.0001 66.7035,-73.5 76.7035,-77.0001 76.7035,-70.0001"/>
</g>
<!-- Node7 -->
<g id="node8" class="node">
<title>Node7</title>
<g id="a_node8"><a xlink:href="classHyperBallBoundary.html" target="_top" xlink:title="HyperBallBoundary\&lt;\l dim \&gt;">
<polygon fill="#ffffff" stroke="#000000" points="1005.9268,-60.5 1005.9268,-88.5 1113.9238,-88.5 1113.9238,-60.5 1005.9268,-60.5"/>
<text text-anchor="start" x="1013.9268" y="-76.5" font-family="Helvetica,sans-Serif" font-size="10.00" fill="#000000">HyperBallBoundary&lt;</text>
<text text-anchor="middle" x="1059.9253" y="-66.5" font-family="Helvetica,sans-Serif" font-size="10.00" fill="#000000"> dim &gt;</text>
</a>
</g>
</g>
<!-- Node6&#45;&gt;Node7 -->
<g id="edge7" class="edge">
<title>Node6&#45;&gt;Node7</title>
<path fill="none" stroke="#ffa500" stroke-dasharray="5,2" d="M930.8127,-90.5165C955.1202,-87.5011 982.5108,-84.1033 1005.789,-81.2156"/>
<polygon fill="#ffa500" stroke="#ffa500" points="930.098,-87.0782 920.6049,-91.7827 930.9598,-94.025 930.098,-87.0782"/>
<text text-anchor="middle" x="965.8296" y="-90.5" font-family="Helvetica,sans-Serif" font-size="10.00" fill="#000000"> &lt; dim &gt;</text>
</g>
<!-- Node8 -->
<g id="node9" class="node">
<title>Node8</title>
<g id="a_node9"><a xlink:href="classHalfHyperBallBoundary.html" target="_top" xlink:title="HalfHyperBallBoundary\l\&lt; dim \&gt;">
<polygon fill="#ffffff" stroke="#000000" points="1154.957,-78.5 1154.957,-106.5 1274.8975,-106.5 1274.8975,-78.5 1154.957,-78.5"/>
<text text-anchor="start" x="1162.957" y="-94.5" font-family="Helvetica,sans-Serif" font-size="10.00" fill="#000000">HalfHyperBallBoundary</text>
<text text-anchor="middle" x="1214.9272" y="-84.5" font-family="Helvetica,sans-Serif" font-size="10.00" fill="#000000">&lt; dim &gt;</text>
</a>
</g>
</g>
<!-- Node7&#45;&gt;Node8 -->
<g id="edge8" class="edge">
<title>Node7&#45;&gt;Node8</title>
<path fill="none" stroke="#191970" d="M1124.1831,-81.9621C1134.3604,-83.144 1144.8517,-84.3623 1154.9267,-85.5323"/>
<polygon fill="#191970" stroke="#191970" points="1124.4745,-78.4725 1114.1375,-80.7955 1123.6669,-85.4258 1124.4745,-78.4725"/>
</g>
<!-- Node9 -->
<g id="node10" class="node">
<title>Node9</title>
<g id="a_node10"><a xlink:href="classHyperShellBoundary.html" target="_top" xlink:title="HyperShellBoundary\l\&lt; dim \&gt;">
<polygon fill="#ffffff" stroke="#000000" points="1161.0679,-31.5 1161.0679,-59.5 1268.7866,-59.5 1268.7866,-31.5 1161.0679,-31.5"/>
<text text-anchor="start" x="1169.0679" y="-47.5" font-family="Helvetica,sans-Serif" font-size="10.00" fill="#000000">HyperShellBoundary</text>
<text text-anchor="middle" x="1214.9272" y="-37.5" font-family="Helvetica,sans-Serif" font-size="10.00" fill="#000000">&lt; dim &gt;</text>
</a>
</g>
</g>
<!-- Node7&#45;&gt;Node9 -->
<g id="edge9" class="edge">
<title>Node7&#45;&gt;Node9</title>
<path fill="none" stroke="#191970" d="M1124.2673,-62.462C1136.4855,-60.176 1149.1532,-57.8059 1161.0074,-55.5881"/>
<polygon fill="#191970" stroke="#191970" points="1123.3232,-59.0778 1114.1375,-64.3572 1124.6106,-65.9584 1123.3232,-59.0778"/>
</g>
<!-- Node10 -->
<g id="node11" class="node">
<title>Node10</title>
<g id="a_node11"><a xlink:href="classHalfHyperShellBoundary.html" target="_top" xlink:title="HalfHyperShellBoundary\l\&lt; dim \&gt;">
<polygon fill="#ffffff" stroke="#000000" points="1311.8975,-31.5 1311.8975,-59.5 1437.3994,-59.5 1437.3994,-31.5 1311.8975,-31.5"/>
<text text-anchor="start" x="1319.8975" y="-47.5" font-family="Helvetica,sans-Serif" font-size="10.00" fill="#000000">HalfHyperShellBoundary</text>
<text text-anchor="middle" x="1374.6484" y="-37.5" font-family="Helvetica,sans-Serif" font-size="10.00" fill="#000000">&lt; dim &gt;</text>
</a>
</g>
</g>
<!-- Node9&#45;&gt;Node10 -->
<g id="edge10" class="edge">
<title>Node9&#45;&gt;Node10</title>
<path fill="none" stroke="#191970" d="M1279.1706,-45.5C1289.9308,-45.5 1301.0846,-45.5 1311.809,-45.5"/>
<polygon fill="#191970" stroke="#191970" points="1279.0016,-42.0001 1269.0016,-45.5 1279.0015,-49.0001 1279.0016,-42.0001"/>
</g>
<!-- Node11&#45;&gt;Node7 -->
<g id="edge12" class="edge">
<title>Node11&#45;&gt;Node7</title>
<path fill="none" stroke="#191970" d="M936.8254,-59.8657C959.5923,-62.5722 984.4686,-65.5296 1005.8624,-68.0729"/>
<polygon fill="#191970" stroke="#191970" points="937.2181,-56.3878 926.8748,-58.6827 936.3917,-63.3389 937.2181,-56.3878"/>
</g>
<!-- Node13 -->
<g id="node14" class="node">
<title>Node13</title>
<g id="a_node14"><a xlink:href="classConeBoundary.html" target="_top" xlink:title="ConeBoundary\&lt; dim \&gt;">
<polygon fill="#ffffff" stroke="#000000" points="1001.8936,-.5 1001.8936,-18.5 1117.957,-18.5 1117.957,-.5 1001.8936,-.5"/>
<text text-anchor="middle" x="1059.9253" y="-6.5" font-family="Helvetica,sans-Serif" font-size="10.00" fill="#000000">ConeBoundary&lt; dim &gt;</text>
</a>
</g>
</g>
<!-- Node12&#45;&gt;Node13 -->
<g id="edge14" class="edge">
<title>Node12&#45;&gt;Node13</title>
<path fill="none" stroke="#191970" d="M940.0024,-9.5C960.4066,-9.5 982.2734,-9.5 1001.673,-9.5"/>
<polygon fill="#191970" stroke="#191970" points="939.8048,-6.0001 929.8048,-9.5 939.8048,-13.0001 939.8048,-6.0001"/>
</g>
</g>
</svg>
