<?xml version="1.0" encoding="UTF-8" standalone="no"?>
<!DOCTYPE svg PUBLIC "-//W3C//DTD SVG 1.1//EN"
 "http://www.w3.org/Graphics/SVG/1.1/DTD/svg11.dtd">
<!-- Generated by graphviz version 2.40.1 (20161225.0304)
 -->
<!-- Title: BlockVector&lt; Number &gt; Pages: 1 -->
<svg width="243pt" height="279pt"
 viewBox="0.00 0.00 242.72 279.00" xmlns="http://www.w3.org/2000/svg" xmlns:xlink="http://www.w3.org/1999/xlink">
<g id="graph0" class="graph" transform="scale(1 1) rotate(0) translate(4 275)">
<title>BlockVector&lt; Number &gt;</title>
<polygon fill="#ffffff" stroke="transparent" points="-4,4 -4,-275 238.7246,-275 238.7246,4 -4,4"/>
<!-- Node0 -->
<g id="node1" class="node">
<title>Node0</title>
<polygon fill="#bfbfbf" stroke="#000000" points="3.4814,-65.5 3.4814,-83.5 125.0918,-83.5 125.0918,-65.5 3.4814,-65.5"/>
<text text-anchor="middle" x="64.2866" y="-71.5" font-family="Helvetica,sans-Serif" font-size="10.00" fill="#000000">BlockVector&lt; Number &gt;</text>
</g>
<!-- Node4 -->
<g id="node5" class="node">
<title>Node4</title>
<g id="a_node5"><a xlink:href="classBlockVector.html" target="_top" xlink:title="BlockVector\&lt; number \&gt;">
<polygon fill="#ffffff" stroke="#000000" points="4.3115,-.5 4.3115,-18.5 124.2617,-18.5 124.2617,-.5 4.3115,-.5"/>
<text text-anchor="middle" x="64.2866" y="-6.5" font-family="Helvetica,sans-Serif" font-size="10.00" fill="#000000">BlockVector&lt; number &gt;</text>
</a>
</g>
</g>
<!-- Node0&#45;&gt;Node4 -->
<g id="edge5" class="edge">
<title>Node0&#45;&gt;Node4</title>
<path fill="none" stroke="#ffa500" stroke-dasharray="5,2" d="M64.2866,-55.1265C64.2866,-43.1522 64.2866,-28.3205 64.2866,-18.8821"/>
<polygon fill="#ffa500" stroke="#ffa500" points="60.7867,-55.462 64.2866,-65.462 67.7867,-55.4621 60.7867,-55.462"/>
<text text-anchor="middle" x="91.2471" y="-39" font-family="Helvetica,sans-Serif" font-size="10.00" fill="#000000"> &lt; number &gt;</text>
</g>
<!-- Node1 -->
<g id="node2" class="node">
<title>Node1</title>
<g id="a_node2"><a xlink:href="classBlockVectorBase.html" target="_top" xlink:title="BlockVectorBase\&lt; Vector\l\&lt; Number \&gt; \&gt;">
<polygon fill="#ffffff" stroke="#000000" points="0,-121.5 0,-149.5 128.5732,-149.5 128.5732,-121.5 0,-121.5"/>
<text text-anchor="start" x="8" y="-137.5" font-family="Helvetica,sans-Serif" font-size="10.00" fill="#000000">BlockVectorBase&lt; Vector</text>
<text text-anchor="middle" x="64.2866" y="-127.5" font-family="Helvetica,sans-Serif" font-size="10.00" fill="#000000">&lt; Number &gt; &gt;</text>
</a>
</g>
</g>
<!-- Node1&#45;&gt;Node0 -->
<g id="edge1" class="edge">
<title>Node1&#45;&gt;Node0</title>
<path fill="none" stroke="#191970" d="M64.2866,-111.1001C64.2866,-101.5157 64.2866,-91.0935 64.2866,-83.831"/>
<polygon fill="#191970" stroke="#191970" points="60.7867,-111.352 64.2866,-121.3521 67.7867,-111.3521 60.7867,-111.352"/>
</g>
<!-- Node2 -->
<g id="node3" class="node">
<title>Node2</title>
<g id="a_node3"><a xlink:href="classSubscriptor.html" target="_top" xlink:title="Subscriptor">
<polygon fill="#ffffff" stroke="#000000" points="26.9985,-252.5 26.9985,-270.5 93.5747,-270.5 93.5747,-252.5 26.9985,-252.5"/>
<text text-anchor="middle" x="60.2866" y="-258.5" font-family="Helvetica,sans-Serif" font-size="10.00" fill="#000000">Subscriptor</text>
</a>
</g>
</g>
<!-- Node2&#45;&gt;Node1 -->
<g id="edge2" class="edge">
<title>Node2&#45;&gt;Node1</title>
<path fill="none" stroke="#191970" d="M60.8996,-242.1897C61.7093,-216.6844 63.1165,-172.3578 63.8355,-149.7089"/>
<polygon fill="#191970" stroke="#191970" points="57.3934,-242.3323 60.5743,-252.4384 64.3899,-242.5545 57.3934,-242.3323"/>
</g>
<!-- Node3 -->
<g id="node4" class="node">
<title>Node3</title>
<g id="a_node4"><a xlink:href="classBlockVectorBase.html" target="_top" xlink:title="BlockVectorBase\&lt; VectorType \&gt;">
<polygon fill="#ffffff" stroke="#000000" points="75.8486,-196.5 75.8486,-214.5 234.7246,-214.5 234.7246,-196.5 75.8486,-196.5"/>
<text text-anchor="middle" x="155.2866" y="-202.5" font-family="Helvetica,sans-Serif" font-size="10.00" fill="#000000">BlockVectorBase&lt; VectorType &gt;</text>
</a>
</g>
</g>
<!-- Node2&#45;&gt;Node3 -->
<g id="edge4" class="edge">
<title>Node2&#45;&gt;Node3</title>
<path fill="none" stroke="#191970" d="M84.9901,-246.938C102.3567,-236.7008 125.0527,-223.3221 139.8912,-214.5752"/>
<polygon fill="#191970" stroke="#191970" points="82.8113,-244.1594 75.9739,-252.2527 86.366,-250.1897 82.8113,-244.1594"/>
</g>
<!-- Node3&#45;&gt;Node1 -->
<g id="edge3" class="edge">
<title>Node3&#45;&gt;Node1</title>
<path fill="none" stroke="#ffa500" stroke-dasharray="5,2" d="M135.3901,-190.195C119.7396,-178.1561 98.0971,-161.508 82.8115,-149.7499"/>
<polygon fill="#ffa500" stroke="#ffa500" points="133.3297,-193.0258 143.39,-196.3487 137.5977,-187.4774 133.3297,-193.0258"/>
<text text-anchor="middle" x="167.8726" y="-170" font-family="Helvetica,sans-Serif" font-size="10.00" fill="#000000"> &lt; Vector&lt; Number &gt; &gt;</text>
</g>
</g>
</svg>
