<?xml version="1.0" encoding="UTF-8" standalone="no"?>
<!DOCTYPE svg PUBLIC "-//W3C//DTD SVG 1.1//EN"
 "http://www.w3.org/Graphics/SVG/1.1/DTD/svg11.dtd">
<!-- Generated by graphviz version 2.40.1 (20161225.0304)
 -->
<!-- Title: Functions::FlowFunction&lt; dim &gt; Pages: 1 -->
<svg width="1018pt" height="139pt"
 viewBox="0.00 0.00 1017.54 139.00" xmlns="http://www.w3.org/2000/svg" xmlns:xlink="http://www.w3.org/1999/xlink">
<g id="graph0" class="graph" transform="scale(1 1) rotate(0) translate(4 135)">
<title>Functions::FlowFunction&lt; dim &gt;</title>
<polygon fill="#ffffff" stroke="transparent" points="-4,4 -4,-135 1013.5371,-135 1013.5371,4 -4,4"/>
<!-- Node0 -->
<g id="node1" class="node">
<title>Node0</title>
<polygon fill="#bfbfbf" stroke="#000000" points="491.6719,-55.5 491.6719,-83.5 616.0508,-83.5 616.0508,-55.5 491.6719,-55.5"/>
<text text-anchor="start" x="499.6719" y="-71.5" font-family="Helvetica,sans-Serif" font-size="10.00" fill="#000000">Functions::FlowFunction</text>
<text text-anchor="middle" x="553.8613" y="-61.5" font-family="Helvetica,sans-Serif" font-size="10.00" fill="#000000">&lt; dim &gt;</text>
</g>
<!-- Node6 -->
<g id="node7" class="node">
<title>Node6</title>
<g id="a_node7"><a xlink:href="classFunctions_1_1PoisseuilleFlow.html" target="_top" xlink:title="Functions::PoisseuilleFlow\l\&lt; dim \&gt;">
<polygon fill="#ffffff" stroke="#000000" points="684.3018,-102.5 684.3018,-130.5 818.1289,-130.5 818.1289,-102.5 684.3018,-102.5"/>
<text text-anchor="start" x="692.3018" y="-118.5" font-family="Helvetica,sans-Serif" font-size="10.00" fill="#000000">Functions::PoisseuilleFlow</text>
<text text-anchor="middle" x="751.2153" y="-108.5" font-family="Helvetica,sans-Serif" font-size="10.00" fill="#000000">&lt; dim &gt;</text>
</a>
</g>
</g>
<!-- Node0&#45;&gt;Node6 -->
<g id="edge7" class="edge">
<title>Node0&#45;&gt;Node6</title>
<path fill="none" stroke="#191970" d="M622.7016,-85.8944C645.3729,-91.2935 670.3637,-97.2451 692.2329,-102.4533"/>
<polygon fill="#191970" stroke="#191970" points="623.3455,-82.4499 612.8067,-83.5379 621.7238,-89.2595 623.3455,-82.4499"/>
</g>
<!-- Node7 -->
<g id="node8" class="node">
<title>Node7</title>
<g id="a_node8"><a xlink:href="classFunctions_1_1StokesCosine.html" target="_top" xlink:title="Functions::StokesCosine\l\&lt; dim \&gt;">
<polygon fill="#ffffff" stroke="#000000" points="687.9102,-55.5 687.9102,-83.5 814.5205,-83.5 814.5205,-55.5 687.9102,-55.5"/>
<text text-anchor="start" x="695.9102" y="-71.5" font-family="Helvetica,sans-Serif" font-size="10.00" fill="#000000">Functions::StokesCosine</text>
<text text-anchor="middle" x="751.2153" y="-61.5" font-family="Helvetica,sans-Serif" font-size="10.00" fill="#000000">&lt; dim &gt;</text>
</a>
</g>
</g>
<!-- Node0&#45;&gt;Node7 -->
<g id="edge8" class="edge">
<title>Node0&#45;&gt;Node7</title>
<path fill="none" stroke="#191970" d="M626.3663,-69.5C646.5167,-69.5 668.2365,-69.5 687.821,-69.5"/>
<polygon fill="#191970" stroke="#191970" points="626.3054,-66.0001 616.3054,-69.5 626.3053,-73.0001 626.3054,-66.0001"/>
</g>
<!-- Node8 -->
<g id="node9" class="node">
<title>Node8</title>
<g id="a_node9"><a xlink:href="classFunctions_1_1FlowFunction.html" target="_top" xlink:title="Functions::FlowFunction\&lt; 2 \&gt;">
<polygon fill="#ffffff" stroke="#000000" points="677.627,-18.5 677.627,-36.5 824.8037,-36.5 824.8037,-18.5 677.627,-18.5"/>
<text text-anchor="middle" x="751.2153" y="-24.5" font-family="Helvetica,sans-Serif" font-size="10.00" fill="#000000">Functions::FlowFunction&lt; 2 &gt;</text>
</a>
</g>
</g>
<!-- Node0&#45;&gt;Node8 -->
<g id="edge9" class="edge">
<title>Node0&#45;&gt;Node8</title>
<path fill="none" stroke="#ffa500" stroke-dasharray="5,2" d="M626.369,-54.0692C654.0982,-48.168 684.7991,-41.6344 708.8174,-36.5229"/>
<polygon fill="#ffa500" stroke="#ffa500" points="625.3578,-50.706 616.3054,-56.2109 626.8149,-57.5527 625.3578,-50.706"/>
<text text-anchor="middle" x="646.8389" y="-53.5" font-family="Helvetica,sans-Serif" font-size="10.00" fill="#000000"> &lt; 2 &gt;</text>
</g>
<!-- Node1 -->
<g id="node2" class="node">
<title>Node1</title>
<g id="a_node2"><a xlink:href="classFunction.html" target="_top" xlink:title="Function\&lt; dim \&gt;">
<polygon fill="#ffffff" stroke="#000000" points="366.9678,-60.5 366.9678,-78.5 454.6719,-78.5 454.6719,-60.5 366.9678,-60.5"/>
<text text-anchor="middle" x="410.8198" y="-66.5" font-family="Helvetica,sans-Serif" font-size="10.00" fill="#000000">Function&lt; dim &gt;</text>
</a>
</g>
</g>
<!-- Node1&#45;&gt;Node0 -->
<g id="edge1" class="edge">
<title>Node1&#45;&gt;Node0</title>
<path fill="none" stroke="#191970" d="M464.9048,-69.5C473.5955,-69.5 482.6519,-69.5 491.517,-69.5"/>
<polygon fill="#191970" stroke="#191970" points="464.9042,-66.0001 454.9042,-69.5 464.9041,-73.0001 464.9042,-66.0001"/>
</g>
<!-- Node2 -->
<g id="node3" class="node">
<title>Node2</title>
<g id="a_node3"><a xlink:href="classFunctionTime.html" target="_top" xlink:title="FunctionTime\&lt; double \&gt;">
<polygon fill="#ffffff" stroke="#000000" points="168.6885,-98.5 168.6885,-116.5 292.1641,-116.5 292.1641,-98.5 168.6885,-98.5"/>
<text text-anchor="middle" x="230.4263" y="-104.5" font-family="Helvetica,sans-Serif" font-size="10.00" fill="#000000">FunctionTime&lt; double &gt;</text>
</a>
</g>
</g>
<!-- Node2&#45;&gt;Node1 -->
<g id="edge2" class="edge">
<title>Node2&#45;&gt;Node1</title>
<path fill="none" stroke="#191970" d="M286.1647,-96.4879C306.0099,-92.495 328.5059,-87.8865 348.9678,-83.5 356.2881,-81.9307 364.0836,-80.2073 371.5854,-78.5224"/>
<polygon fill="#191970" stroke="#191970" points="285.4724,-93.057 276.3558,-98.4549 286.8488,-99.9203 285.4724,-93.057"/>
</g>
<!-- Node3 -->
<g id="node4" class="node">
<title>Node3</title>
<g id="a_node4"><a xlink:href="classSubscriptor.html" target="_top" xlink:title="Subscriptor">
<polygon fill="#ffffff" stroke="#000000" points="31.2183,-53.5 31.2183,-71.5 97.7944,-71.5 97.7944,-53.5 31.2183,-53.5"/>
<text text-anchor="middle" x="64.5063" y="-59.5" font-family="Helvetica,sans-Serif" font-size="10.00" fill="#000000">Subscriptor</text>
</a>
</g>
</g>
<!-- Node3&#45;&gt;Node1 -->
<g id="edge3" class="edge">
<title>Node3&#45;&gt;Node1</title>
<path fill="none" stroke="#191970" d="M108.1531,-63.3822C174.5283,-64.7239 300.1457,-67.263 366.7637,-68.6095"/>
<polygon fill="#191970" stroke="#191970" points="108.0957,-59.8804 98.027,-63.1775 107.9542,-66.879 108.0957,-59.8804"/>
</g>
<!-- Node4 -->
<g id="node5" class="node">
<title>Node4</title>
<g id="a_node5"><a xlink:href="classFunction.html" target="_top" xlink:title="Function\&lt; dim, Number \&gt;">
<polygon fill="#ffffff" stroke="#000000" points="166.0127,-22.5 166.0127,-40.5 294.8398,-40.5 294.8398,-22.5 166.0127,-22.5"/>
<text text-anchor="middle" x="230.4263" y="-28.5" font-family="Helvetica,sans-Serif" font-size="10.00" fill="#000000">Function&lt; dim, Number &gt;</text>
</a>
</g>
</g>
<!-- Node3&#45;&gt;Node4 -->
<g id="edge6" class="edge">
<title>Node3&#45;&gt;Node4</title>
<path fill="none" stroke="#191970" d="M108.1335,-54.3488C130.8691,-50.101 158.733,-44.895 182.1184,-40.5257"/>
<polygon fill="#191970" stroke="#191970" points="107.2698,-50.9496 98.0827,-56.2267 108.5555,-57.8305 107.2698,-50.9496"/>
</g>
<!-- Node4&#45;&gt;Node1 -->
<g id="edge4" class="edge">
<title>Node4&#45;&gt;Node1</title>
<path fill="none" stroke="#ffa500" stroke-dasharray="5,2" d="M305.0107,-37.3962C319.7034,-39.3733 334.9159,-42.0039 348.9678,-45.5 363.4985,-49.1152 379.2215,-55.2477 391.1787,-60.4086"/>
<polygon fill="#ffa500" stroke="#ffa500" points="305.3014,-33.9052 294.9426,-36.1292 304.4274,-40.8505 305.3014,-33.9052"/>
<text text-anchor="middle" x="330.9038" y="-47.5" font-family="Helvetica,sans-Serif" font-size="10.00" fill="#000000"> &lt; dim &gt;</text>
</g>
<!-- Node5 -->
<g id="node6" class="node">
<title>Node5</title>
<g id="a_node6"><a xlink:href="classFunctionTime.html" target="_top" xlink:title="FunctionTime\&lt; Number \&gt;">
<polygon fill="#ffffff" stroke="#000000" points="0,-10.5 0,-28.5 129.0127,-28.5 129.0127,-10.5 0,-10.5"/>
<text text-anchor="middle" x="64.5063" y="-16.5" font-family="Helvetica,sans-Serif" font-size="10.00" fill="#000000">FunctionTime&lt; Number &gt;</text>
</a>
</g>
</g>
<!-- Node5&#45;&gt;Node4 -->
<g id="edge5" class="edge">
<title>Node5&#45;&gt;Node4</title>
<path fill="none" stroke="#191970" d="M139.1581,-24.8991C148.1088,-25.5465 157.1897,-26.2032 165.9786,-26.8389"/>
<polygon fill="#191970" stroke="#191970" points="139.3569,-21.4044 129.1304,-24.1739 138.8519,-28.3862 139.3569,-21.4044"/>
</g>
<!-- Node9 -->
<g id="node10" class="node">
<title>Node9</title>
<g id="a_node10"><a xlink:href="classFunctions_1_1Kovasznay.html" target="_top" xlink:title="Functions::Kovasznay">
<polygon fill="#ffffff" stroke="#000000" points="878.7568,-37.5 878.7568,-55.5 992.584,-55.5 992.584,-37.5 878.7568,-37.5"/>
<text text-anchor="middle" x="935.6704" y="-43.5" font-family="Helvetica,sans-Serif" font-size="10.00" fill="#000000">Functions::Kovasznay</text>
</a>
</g>
</g>
<!-- Node8&#45;&gt;Node9 -->
<g id="edge10" class="edge">
<title>Node8&#45;&gt;Node9</title>
<path fill="none" stroke="#191970" d="M835.0427,-36.1347C849.7693,-37.6517 864.7839,-39.1983 878.5679,-40.6181"/>
<polygon fill="#191970" stroke="#191970" points="835.2181,-32.6344 824.9121,-35.0912 834.5008,-39.5975 835.2181,-32.6344"/>
</g>
<!-- Node10 -->
<g id="node11" class="node">
<title>Node10</title>
<g id="a_node11"><a xlink:href="classFunctions_1_1StokesLSingularity.html" target="_top" xlink:title="Functions::StokesLSingularity">
<polygon fill="#ffffff" stroke="#000000" points="861.8037,-.5 861.8037,-18.5 1009.5371,-18.5 1009.5371,-.5 861.8037,-.5"/>
<text text-anchor="middle" x="935.6704" y="-6.5" font-family="Helvetica,sans-Serif" font-size="10.00" fill="#000000">Functions::StokesLSingularity</text>
</a>
</g>
</g>
<!-- Node8&#45;&gt;Node10 -->
<g id="edge11" class="edge">
<title>Node8&#45;&gt;Node10</title>
<path fill="none" stroke="#191970" d="M834.9544,-19.3283C843.9057,-18.4548 852.9645,-17.5708 861.7897,-16.7096"/>
<polygon fill="#191970" stroke="#191970" points="834.5248,-15.8535 824.9121,-20.3083 835.2048,-22.8205 834.5248,-15.8535"/>
</g>
</g>
</svg>
