<?xml version="1.0" encoding="UTF-8" standalone="no"?>
<!DOCTYPE svg PUBLIC "-//W3C//DTD SVG 1.1//EN"
 "http://www.w3.org/Graphics/SVG/1.1/DTD/svg11.dtd">
<!-- Generated by graphviz version 2.40.1 (20161225.0304)
 -->
<!-- Title: PETScWrappers::MPI::Vector Pages: 1 -->
<svg width="155pt" height="147pt"
 viewBox="0.00 0.00 154.99 147.00" xmlns="http://www.w3.org/2000/svg" xmlns:xlink="http://www.w3.org/1999/xlink">
<g id="graph0" class="graph" transform="scale(1 1) rotate(0) translate(4 143)">
<title>PETScWrappers::MPI::Vector</title>
<polygon fill="#ffffff" stroke="transparent" points="-4,4 -4,-143 150.9912,-143 150.9912,4 -4,4"/>
<!-- Node0 -->
<g id="node1" class="node">
<title>Node0</title>
<polygon fill="#bfbfbf" stroke="#000000" points="16.6846,-.5 16.6846,-28.5 130.3066,-28.5 130.3066,-.5 16.6846,-.5"/>
<text text-anchor="start" x="24.6846" y="-16.5" font-family="Helvetica,sans-Serif" font-size="10.00" fill="#000000">PETScWrappers::MPI</text>
<text text-anchor="middle" x="73.4956" y="-6.5" font-family="Helvetica,sans-Serif" font-size="10.00" fill="#000000">::Vector</text>
</g>
<!-- Node1 -->
<g id="node2" class="node">
<title>Node1</title>
<g id="a_node2"><a xlink:href="classPETScWrappers_1_1VectorBase.html" target="_top" xlink:title="PETScWrappers::VectorBase">
<polygon fill="#ffffff" stroke="#000000" points="0,-65.5 0,-83.5 146.9912,-83.5 146.9912,-65.5 0,-65.5"/>
<text text-anchor="middle" x="73.4956" y="-71.5" font-family="Helvetica,sans-Serif" font-size="10.00" fill="#000000">PETScWrappers::VectorBase</text>
</a>
</g>
</g>
<!-- Node1&#45;&gt;Node0 -->
<g id="edge1" class="edge">
<title>Node1&#45;&gt;Node0</title>
<path fill="none" stroke="#191970" d="M73.4956,-55.1865C73.4956,-46.6283 73.4956,-36.7354 73.4956,-28.8477"/>
<polygon fill="#191970" stroke="#191970" points="69.9957,-55.3873 73.4956,-65.3873 76.9957,-55.3873 69.9957,-55.3873"/>
</g>
<!-- Node2 -->
<g id="node3" class="node">
<title>Node2</title>
<g id="a_node3"><a xlink:href="classSubscriptor.html" target="_top" xlink:title="Subscriptor">
<polygon fill="#ffffff" stroke="#000000" points="40.2075,-120.5 40.2075,-138.5 106.7837,-138.5 106.7837,-120.5 40.2075,-120.5"/>
<text text-anchor="middle" x="73.4956" y="-126.5" font-family="Helvetica,sans-Serif" font-size="10.00" fill="#000000">Subscriptor</text>
</a>
</g>
</g>
<!-- Node2&#45;&gt;Node1 -->
<g id="edge2" class="edge">
<title>Node2&#45;&gt;Node1</title>
<path fill="none" stroke="#191970" d="M73.4956,-110.383C73.4956,-101.3738 73.4956,-91.0373 73.4956,-83.7795"/>
<polygon fill="#191970" stroke="#191970" points="69.9957,-110.4178 73.4956,-120.4179 76.9957,-110.4179 69.9957,-110.4178"/>
</g>
</g>
</svg>
