<?xml version="1.0" encoding="UTF-8" standalone="no"?>
<!DOCTYPE svg PUBLIC "-//W3C//DTD SVG 1.1//EN"
 "http://www.w3.org/Graphics/SVG/1.1/DTD/svg11.dtd">
<!-- Generated by graphviz version 2.40.1 (20161225.0304)
 -->
<!-- Title: TriaAccessorBase&lt; structdim, dim, spacedim &gt; Pages: 1 -->
<svg width="1131pt" height="138pt"
 viewBox="0.00 0.00 1130.66 137.50" xmlns="http://www.w3.org/2000/svg" xmlns:xlink="http://www.w3.org/1999/xlink">
<g id="graph0" class="graph" transform="scale(1 1) rotate(0) translate(4 133.5)">
<title>TriaAccessorBase&lt; structdim, dim, spacedim &gt;</title>
<polygon fill="#ffffff" stroke="transparent" points="-4,4 -4,-133.5 1126.6553,-133.5 1126.6553,4 -4,4"/>
<!-- Node0 -->
<g id="node1" class="node">
<title>Node0</title>
<polygon fill="#bfbfbf" stroke="#000000" points="0,-42.5 0,-70.5 148.7295,-70.5 148.7295,-42.5 0,-42.5"/>
<text text-anchor="start" x="8" y="-58.5" font-family="Helvetica,sans-Serif" font-size="10.00" fill="#000000">TriaAccessorBase&lt; structdim,</text>
<text text-anchor="middle" x="74.3647" y="-48.5" font-family="Helvetica,sans-Serif" font-size="10.00" fill="#000000"> dim, spacedim &gt;</text>
</g>
<!-- Node1 -->
<g id="node2" class="node">
<title>Node1</title>
<g id="a_node2"><a xlink:href="classInvalidAccessor.html" target="_top" xlink:title="InvalidAccessor\&lt; structdim,\l dim, spacedim \&gt;">
<polygon fill="#ffffff" stroke="#000000" points="185.7295,-89.5 185.7295,-117.5 323.7168,-117.5 323.7168,-89.5 185.7295,-89.5"/>
<text text-anchor="start" x="193.7295" y="-105.5" font-family="Helvetica,sans-Serif" font-size="10.00" fill="#000000">InvalidAccessor&lt; structdim,</text>
<text text-anchor="middle" x="254.7231" y="-95.5" font-family="Helvetica,sans-Serif" font-size="10.00" fill="#000000"> dim, spacedim &gt;</text>
</a>
</g>
</g>
<!-- Node0&#45;&gt;Node1 -->
<g id="edge1" class="edge">
<title>Node0&#45;&gt;Node1</title>
<path fill="none" stroke="#191970" d="M138.3525,-73.1747C158.8321,-78.5115 181.2851,-84.3626 200.9589,-89.4894"/>
<polygon fill="#191970" stroke="#191970" points="139.0377,-69.7364 128.4782,-70.6015 137.2724,-76.5102 139.0377,-69.7364"/>
</g>
<!-- Node2 -->
<g id="node3" class="node">
<title>Node2</title>
<g id="a_node3"><a xlink:href="classTriaAccessor.html" target="_top" xlink:title="TriaAccessor\&lt; structdim,\l dim, spacedim \&gt;">
<polygon fill="#ffffff" stroke="#000000" points="191.7549,-42.5 191.7549,-70.5 317.6914,-70.5 317.6914,-42.5 191.7549,-42.5"/>
<text text-anchor="start" x="199.7549" y="-58.5" font-family="Helvetica,sans-Serif" font-size="10.00" fill="#000000">TriaAccessor&lt; structdim,</text>
<text text-anchor="middle" x="254.7231" y="-48.5" font-family="Helvetica,sans-Serif" font-size="10.00" fill="#000000"> dim, spacedim &gt;</text>
</a>
</g>
</g>
<!-- Node0&#45;&gt;Node2 -->
<g id="edge2" class="edge">
<title>Node0&#45;&gt;Node2</title>
<path fill="none" stroke="#191970" d="M158.8646,-56.5C169.918,-56.5 181.0858,-56.5 191.6999,-56.5"/>
<polygon fill="#191970" stroke="#191970" points="158.7647,-53.0001 148.7647,-56.5 158.7647,-60.0001 158.7647,-53.0001"/>
</g>
<!-- Node6 -->
<g id="node7" class="node">
<title>Node6</title>
<g id="a_node7"><a xlink:href="classTriaAccessor.html" target="_top" xlink:title="TriaAccessor\&lt; dim,\l dim, spacedim \&gt;">
<polygon fill="#ffffff" stroke="#000000" points="478.8379,-.5 478.8379,-28.5 580.3262,-28.5 580.3262,-.5 478.8379,-.5"/>
<text text-anchor="start" x="486.8379" y="-16.5" font-family="Helvetica,sans-Serif" font-size="10.00" fill="#000000">TriaAccessor&lt; dim,</text>
<text text-anchor="middle" x="529.582" y="-6.5" font-family="Helvetica,sans-Serif" font-size="10.00" fill="#000000"> dim, spacedim &gt;</text>
</a>
</g>
</g>
<!-- Node0&#45;&gt;Node6 -->
<g id="edge9" class="edge">
<title>Node0&#45;&gt;Node6</title>
<path fill="none" stroke="#191970" d="M141.49,-40.3549C156.0075,-37.3348 171.325,-34.5026 185.7295,-32.5 289.049,-18.1359 411.2805,-14.9907 478.6359,-14.4439"/>
<polygon fill="#191970" stroke="#191970" points="140.6376,-36.9579 131.5882,-42.4678 142.0985,-43.8038 140.6376,-36.9579"/>
</g>
<!-- Node3 -->
<g id="node4" class="node">
<title>Node3</title>
<g id="a_node4"><a xlink:href="classDoFAccessor.html" target="_top" xlink:title="DoFAccessor\&lt; structdim,\l dim, spacedim \&gt;">
<polygon fill="#ffffff" stroke="#000000" points="465.8691,-93.5 465.8691,-121.5 593.2949,-121.5 593.2949,-93.5 465.8691,-93.5"/>
<text text-anchor="start" x="473.8691" y="-109.5" font-family="Helvetica,sans-Serif" font-size="10.00" fill="#000000">DoFAccessor&lt; structdim,</text>
<text text-anchor="middle" x="529.582" y="-99.5" font-family="Helvetica,sans-Serif" font-size="10.00" fill="#000000"> dim, spacedim &gt;</text>
</a>
</g>
</g>
<!-- Node2&#45;&gt;Node3 -->
<g id="edge3" class="edge">
<title>Node2&#45;&gt;Node3</title>
<path fill="none" stroke="#191970" d="M316.7225,-72.9396C325.0958,-74.9366 333.5968,-76.8504 341.7168,-78.5 382.7901,-86.8443 429.3463,-94.0466 465.8368,-99.1864"/>
<polygon fill="#191970" stroke="#191970" points="317.5264,-69.5331 306.9822,-70.5679 315.8703,-76.3344 317.5264,-69.5331"/>
</g>
<!-- Node4 -->
<g id="node5" class="node">
<title>Node4</title>
<g id="a_node5"><a xlink:href="classDoFAccessor.html" target="_top" xlink:title="DoFAccessor\&lt; DoFHandlerType\l::dimension, DoFHandlerType,\l level_dof_access \&gt;">
<polygon fill="#ffffff" stroke="#000000" points="770.2031,-59.5 770.2031,-97.5 929.8848,-97.5 929.8848,-59.5 770.2031,-59.5"/>
<text text-anchor="start" x="778.2031" y="-85.5" font-family="Helvetica,sans-Serif" font-size="10.00" fill="#000000">DoFAccessor&lt; DoFHandlerType</text>
<text text-anchor="start" x="778.2031" y="-75.5" font-family="Helvetica,sans-Serif" font-size="10.00" fill="#000000">::dimension, DoFHandlerType,</text>
<text text-anchor="middle" x="850.0439" y="-65.5" font-family="Helvetica,sans-Serif" font-size="10.00" fill="#000000"> level_dof_access &gt;</text>
</a>
</g>
</g>
<!-- Node2&#45;&gt;Node4 -->
<g id="edge6" class="edge">
<title>Node2&#45;&gt;Node4</title>
<path fill="none" stroke="#191970" d="M328.084,-59.211C440.3802,-63.3609 654.0568,-71.2573 770.1481,-75.5475"/>
<polygon fill="#191970" stroke="#191970" points="327.9918,-55.7053 317.8693,-58.8336 327.7332,-62.7006 327.9918,-55.7053"/>
</g>
<!-- Node2&#45;&gt;Node6 -->
<g id="edge7" class="edge">
<title>Node2&#45;&gt;Node6</title>
<path fill="none" stroke="#ffa500" stroke-dasharray="5,2" d="M328.0215,-42.779C332.6523,-41.9865 337.2467,-41.22 341.7168,-40.5 387.8772,-33.0646 440.6305,-25.8782 478.4601,-20.9523"/>
<polygon fill="#ffa500" stroke="#ffa500" points="327.1115,-39.3847 317.86,-44.548 328.3121,-46.281 327.1115,-39.3847"/>
<text text-anchor="middle" x="394.793" y="-42.5" font-family="Helvetica,sans-Serif" font-size="10.00" fill="#000000"> &lt; dim, dim, spacedim &gt;</text>
</g>
<!-- Node3&#45;&gt;Node4 -->
<g id="edge4" class="edge">
<title>Node3&#45;&gt;Node4</title>
<path fill="none" stroke="#ffa500" stroke-dasharray="5,2" d="M603.7253,-100.7905C653.5514,-96.2815 719.1738,-90.343 770.156,-85.7294"/>
<polygon fill="#ffa500" stroke="#ffa500" points="603.3059,-97.314 593.6621,-101.7011 603.9369,-104.2855 603.3059,-97.314"/>
<text text-anchor="start" x="611.2949" y="-121.5" font-family="Helvetica,sans-Serif" font-size="10.00" fill="#000000"> &lt; DoFHandlerType::dimension,</text>
<text text-anchor="start" x="611.2949" y="-111.5" font-family="Helvetica,sans-Serif" font-size="10.00" fill="#000000"> DoFHandlerType, level_dof</text>
<text text-anchor="middle" x="681.749" y="-101.5" font-family="Helvetica,sans-Serif" font-size="10.00" fill="#000000">_access &gt;</text>
</g>
<!-- Node5 -->
<g id="node6" class="node">
<title>Node5</title>
<g id="a_node6"><a xlink:href="classDoFCellAccessor.html" target="_top" xlink:title="DoFCellAccessor\&lt; DoFHandler\lType, level_dof_access \&gt;">
<polygon fill="#ffffff" stroke="#000000" points="966.8848,-64.5 966.8848,-92.5 1122.6553,-92.5 1122.6553,-64.5 966.8848,-64.5"/>
<text text-anchor="start" x="974.8848" y="-80.5" font-family="Helvetica,sans-Serif" font-size="10.00" fill="#000000">DoFCellAccessor&lt; DoFHandler</text>
<text text-anchor="middle" x="1044.77" y="-70.5" font-family="Helvetica,sans-Serif" font-size="10.00" fill="#000000">Type, level_dof_access &gt;</text>
</a>
</g>
</g>
<!-- Node4&#45;&gt;Node5 -->
<g id="edge5" class="edge">
<title>Node4&#45;&gt;Node5</title>
<path fill="none" stroke="#191970" d="M940.3377,-78.5C949.1124,-78.5 957.9641,-78.5 966.6057,-78.5"/>
<polygon fill="#191970" stroke="#191970" points="940.0895,-75.0001 930.0895,-78.5 940.0894,-82.0001 940.0895,-75.0001"/>
</g>
<!-- Node7 -->
<g id="node8" class="node">
<title>Node7</title>
<g id="a_node8"><a xlink:href="classCellAccessor.html" target="_top" xlink:title="CellAccessor\&lt; dim,\l spacedim \&gt;">
<polygon fill="#ffffff" stroke="#000000" points="799.1143,-.5 799.1143,-28.5 900.9736,-28.5 900.9736,-.5 799.1143,-.5"/>
<text text-anchor="start" x="807.1143" y="-16.5" font-family="Helvetica,sans-Serif" font-size="10.00" fill="#000000">CellAccessor&lt; dim,</text>
<text text-anchor="middle" x="850.0439" y="-6.5" font-family="Helvetica,sans-Serif" font-size="10.00" fill="#000000"> spacedim &gt;</text>
</a>
</g>
</g>
<!-- Node6&#45;&gt;Node7 -->
<g id="edge8" class="edge">
<title>Node6&#45;&gt;Node7</title>
<path fill="none" stroke="#191970" d="M590.5131,-14.5C650.8825,-14.5 742.2968,-14.5 798.9738,-14.5"/>
<polygon fill="#191970" stroke="#191970" points="590.3602,-11.0001 580.3602,-14.5 590.3601,-18.0001 590.3602,-11.0001"/>
</g>
</g>
</svg>
