<?xml version="1.0" encoding="UTF-8" standalone="no"?>
<!DOCTYPE svg PUBLIC "-//W3C//DTD SVG 1.1//EN"
 "http://www.w3.org/Graphics/SVG/1.1/DTD/svg11.dtd">
<!-- Generated by graphviz version 2.40.1 (20161225.0304)
 -->
<!-- Title: PETScWrappers::Vector Pages: 1 -->
<svg width="155pt" height="137pt"
 viewBox="0.00 0.00 154.99 137.00" xmlns="http://www.w3.org/2000/svg" xmlns:xlink="http://www.w3.org/1999/xlink">
<g id="graph0" class="graph" transform="scale(1 1) rotate(0) translate(4 133)">
<title>PETScWrappers::Vector</title>
<polygon fill="#ffffff" stroke="transparent" points="-4,4 -4,-133 150.9912,-133 150.9912,4 -4,4"/>
<!-- Node0 -->
<g id="node1" class="node">
<title>Node0</title>
<polygon fill="#bfbfbf" stroke="#000000" points="11.3965,-.5 11.3965,-18.5 135.5947,-18.5 135.5947,-.5 11.3965,-.5"/>
<text text-anchor="middle" x="73.4956" y="-6.5" font-family="Helvetica,sans-Serif" font-size="10.00" fill="#000000">PETScWrappers::Vector</text>
</g>
<!-- Node1 -->
<g id="node2" class="node">
<title>Node1</title>
<g id="a_node2"><a xlink:href="classPETScWrappers_1_1VectorBase.html" target="_top" xlink:title="PETScWrappers::VectorBase">
<polygon fill="#ffffff" stroke="#000000" points="0,-55.5 0,-73.5 146.9912,-73.5 146.9912,-55.5 0,-55.5"/>
<text text-anchor="middle" x="73.4956" y="-61.5" font-family="Helvetica,sans-Serif" font-size="10.00" fill="#000000">PETScWrappers::VectorBase</text>
</a>
</g>
</g>
<!-- Node1&#45;&gt;Node0 -->
<g id="edge1" class="edge">
<title>Node1&#45;&gt;Node0</title>
<path fill="none" stroke="#191970" d="M73.4956,-45.383C73.4956,-36.3738 73.4956,-26.0373 73.4956,-18.7795"/>
<polygon fill="#191970" stroke="#191970" points="69.9957,-45.4178 73.4956,-55.4179 76.9957,-45.4179 69.9957,-45.4178"/>
</g>
<!-- Node2 -->
<g id="node3" class="node">
<title>Node2</title>
<g id="a_node3"><a xlink:href="classSubscriptor.html" target="_top" xlink:title="Subscriptor">
<polygon fill="#ffffff" stroke="#000000" points="40.2075,-110.5 40.2075,-128.5 106.7837,-128.5 106.7837,-110.5 40.2075,-110.5"/>
<text text-anchor="middle" x="73.4956" y="-116.5" font-family="Helvetica,sans-Serif" font-size="10.00" fill="#000000">Subscriptor</text>
</a>
</g>
</g>
<!-- Node2&#45;&gt;Node1 -->
<g id="edge2" class="edge">
<title>Node2&#45;&gt;Node1</title>
<path fill="none" stroke="#191970" d="M73.4956,-100.383C73.4956,-91.3738 73.4956,-81.0373 73.4956,-73.7795"/>
<polygon fill="#191970" stroke="#191970" points="69.9957,-100.4178 73.4956,-110.4179 76.9957,-100.4179 69.9957,-100.4178"/>
</g>
</g>
</svg>
