<?xml version="1.0" encoding="UTF-8" standalone="no"?>
<!DOCTYPE svg PUBLIC "-//W3C//DTD SVG 1.1//EN"
 "http://www.w3.org/Graphics/SVG/1.1/DTD/svg11.dtd">
<!-- Generated by graphviz version 2.40.1 (20161225.0304)
 -->
<!-- Title: SparsityPatternIterators::Accessor Pages: 1 -->
<svg width="331pt" height="131pt"
 viewBox="0.00 0.00 331.12 131.00" xmlns="http://www.w3.org/2000/svg" xmlns:xlink="http://www.w3.org/1999/xlink">
<g id="graph0" class="graph" transform="scale(1 1) rotate(0) translate(4 127)">
<title>SparsityPatternIterators::Accessor</title>
<polygon fill="#ffffff" stroke="transparent" points="-4,4 -4,-127 327.1221,-127 327.1221,4 -4,4"/>
<!-- Node0 -->
<g id="node1" class="node">
<title>Node0</title>
<polygon fill="#bfbfbf" stroke="#000000" points="0,-47.5 0,-75.5 121.0439,-75.5 121.0439,-47.5 0,-47.5"/>
<text text-anchor="start" x="8" y="-63.5" font-family="Helvetica,sans-Serif" font-size="10.00" fill="#000000">SparsityPatternIterators</text>
<text text-anchor="middle" x="60.522" y="-53.5" font-family="Helvetica,sans-Serif" font-size="10.00" fill="#000000">::Accessor</text>
</g>
<!-- Node1 -->
<g id="node2" class="node">
<title>Node1</title>
<g id="a_node2"><a xlink:href="classSparseMatrixIterators_1_1Accessor.html" target="_top" xlink:title="SparseMatrixIterators\l::Accessor\&lt; number, Constness \&gt;">
<polygon fill="#ffffff" stroke="#000000" points="157.0439,-94.5 157.0439,-122.5 323.1221,-122.5 323.1221,-94.5 157.0439,-94.5"/>
<text text-anchor="start" x="165.0439" y="-110.5" font-family="Helvetica,sans-Serif" font-size="10.00" fill="#000000">SparseMatrixIterators</text>
<text text-anchor="middle" x="240.083" y="-100.5" font-family="Helvetica,sans-Serif" font-size="10.00" fill="#000000">::Accessor&lt; number, Constness &gt;</text>
</a>
</g>
</g>
<!-- Node0&#45;&gt;Node1 -->
<g id="edge1" class="edge">
<title>Node0&#45;&gt;Node1</title>
<path fill="none" stroke="#191970" d="M124.2268,-78.1747C144.6159,-83.5115 166.9696,-89.3626 186.5564,-94.4894"/>
<polygon fill="#191970" stroke="#191970" points="124.9566,-74.7479 114.3962,-75.6015 123.184,-81.5197 124.9566,-74.7479"/>
</g>
<!-- Node2 -->
<g id="node3" class="node">
<title>Node2</title>
<g id="a_node3"><a xlink:href="classSparseMatrixIterators_1_1Accessor_3_01number_00_01false_01_4.html" target="_top" xlink:title="SparseMatrixIterators\l::Accessor\&lt; number, false \&gt;">
<polygon fill="#ffffff" stroke="#000000" points="170.1055,-47.5 170.1055,-75.5 310.0605,-75.5 310.0605,-47.5 170.1055,-47.5"/>
<text text-anchor="start" x="178.1055" y="-63.5" font-family="Helvetica,sans-Serif" font-size="10.00" fill="#000000">SparseMatrixIterators</text>
<text text-anchor="middle" x="240.083" y="-53.5" font-family="Helvetica,sans-Serif" font-size="10.00" fill="#000000">::Accessor&lt; number, false &gt;</text>
</a>
</g>
</g>
<!-- Node0&#45;&gt;Node2 -->
<g id="edge2" class="edge">
<title>Node0&#45;&gt;Node2</title>
<path fill="none" stroke="#191970" d="M131.3836,-61.5C144.1085,-61.5 157.3646,-61.5 170.0655,-61.5"/>
<polygon fill="#191970" stroke="#191970" points="131.3132,-58.0001 121.3131,-61.5 131.3131,-65.0001 131.3132,-58.0001"/>
</g>
<!-- Node3 -->
<g id="node4" class="node">
<title>Node3</title>
<g id="a_node4"><a xlink:href="classSparseMatrixIterators_1_1Accessor_3_01number_00_01true_01_4.html" target="_top" xlink:title="SparseMatrixIterators\l::Accessor\&lt; number, true \&gt;">
<polygon fill="#ffffff" stroke="#000000" points="172.0513,-.5 172.0513,-28.5 308.1147,-28.5 308.1147,-.5 172.0513,-.5"/>
<text text-anchor="start" x="180.0513" y="-16.5" font-family="Helvetica,sans-Serif" font-size="10.00" fill="#000000">SparseMatrixIterators</text>
<text text-anchor="middle" x="240.083" y="-6.5" font-family="Helvetica,sans-Serif" font-size="10.00" fill="#000000">::Accessor&lt; number, true &gt;</text>
</a>
</g>
</g>
<!-- Node0&#45;&gt;Node3 -->
<g id="edge3" class="edge">
<title>Node0&#45;&gt;Node3</title>
<path fill="none" stroke="#191970" d="M124.2268,-44.8253C144.6159,-39.4885 166.9696,-33.6374 186.5564,-28.5106"/>
<polygon fill="#191970" stroke="#191970" points="123.184,-41.4803 114.3962,-47.3985 124.9566,-48.2521 123.184,-41.4803"/>
</g>
</g>
</svg>
