<?xml version="1.0" encoding="UTF-8" standalone="no"?>
<!DOCTYPE svg PUBLIC "-//W3C//DTD SVG 1.1//EN"
 "http://www.w3.org/Graphics/SVG/1.1/DTD/svg11.dtd">
<!-- Generated by graphviz version 2.40.1 (20161225.0304)
 -->
<!-- Title: Quadrature&lt; dim &gt; Pages: 1 -->
<svg width="611pt" height="856pt"
 viewBox="0.00 0.00 610.97 856.00" xmlns="http://www.w3.org/2000/svg" xmlns:xlink="http://www.w3.org/1999/xlink">
<g id="graph0" class="graph" transform="scale(1 1) rotate(0) translate(4 852)">
<title>Quadrature&lt; dim &gt;</title>
<polygon fill="#ffffff" stroke="transparent" points="-4,4 -4,-852 606.9658,-852 606.9658,4 -4,4"/>
<!-- Node0 -->
<g id="node1" class="node">
<title>Node0</title>
<polygon fill="#bfbfbf" stroke="#000000" points="103.5762,-401.5 103.5762,-419.5 203.5117,-419.5 203.5117,-401.5 103.5762,-401.5"/>
<text text-anchor="middle" x="153.5439" y="-407.5" font-family="Helvetica,sans-Serif" font-size="10.00" fill="#000000">Quadrature&lt; dim &gt;</text>
</g>
<!-- Node2 -->
<g id="node3" class="node">
<title>Node2</title>
<g id="a_node3"><a xlink:href="classMappingQEulerian_1_1MappingQEulerianGeneric_1_1SupportQuadrature.html" target="_top" xlink:title="MappingQEulerian\&lt; dim\l \&gt;::MappingQEulerianGeneric\l::SupportQuadrature">
<polygon fill="#ffffff" stroke="#000000" points="284.5313,-809.5 284.5313,-847.5 432.5479,-847.5 432.5479,-809.5 284.5313,-809.5"/>
<text text-anchor="start" x="292.5313" y="-835.5" font-family="Helvetica,sans-Serif" font-size="10.00" fill="#000000">MappingQEulerian&lt; dim</text>
<text text-anchor="start" x="292.5313" y="-825.5" font-family="Helvetica,sans-Serif" font-size="10.00" fill="#000000"> &gt;::MappingQEulerianGeneric</text>
<text text-anchor="middle" x="358.5396" y="-815.5" font-family="Helvetica,sans-Serif" font-size="10.00" fill="#000000">::SupportQuadrature</text>
</a>
</g>
</g>
<!-- Node0&#45;&gt;Node2 -->
<g id="edge2" class="edge">
<title>Node0&#45;&gt;Node2</title>
<path fill="none" stroke="#191970" d="M155.4403,-429.9391C162.037,-494.5798 185.5591,-701.3394 221.5117,-756.5 237.7998,-781.4902 265.7248,-798.3455 292.1331,-809.4221"/>
<polygon fill="#191970" stroke="#191970" points="158.8833,-429.1941 154.4063,-419.5917 151.918,-429.8902 158.8833,-429.1941"/>
</g>
<!-- Node3 -->
<g id="node4" class="node">
<title>Node3</title>
<g id="a_node4"><a xlink:href="classQAnisotropic.html" target="_top" xlink:title="QAnisotropic\&lt; dim \&gt;">
<polygon fill="#ffffff" stroke="#000000" points="305.2417,-772.5 305.2417,-790.5 411.8374,-790.5 411.8374,-772.5 305.2417,-772.5"/>
<text text-anchor="middle" x="358.5396" y="-778.5" font-family="Helvetica,sans-Serif" font-size="10.00" fill="#000000">QAnisotropic&lt; dim &gt;</text>
</a>
</g>
</g>
<!-- Node0&#45;&gt;Node3 -->
<g id="edge3" class="edge">
<title>Node0&#45;&gt;Node3</title>
<path fill="none" stroke="#191970" d="M155.6954,-429.8532C162.7658,-490.6998 186.8337,-676.9608 221.5117,-725.5 240.7838,-752.4753 275.4275,-766.4842 305.0576,-773.7447"/>
<polygon fill="#191970" stroke="#191970" points="159.1508,-429.2618 154.5419,-419.7219 152.1957,-430.0537 159.1508,-429.2618"/>
</g>
<!-- Node4 -->
<g id="node5" class="node">
<title>Node4</title>
<g id="a_node5"><a xlink:href="classQGauss.html" target="_top" xlink:title="QGauss\&lt; dim \&gt;">
<polygon fill="#ffffff" stroke="#000000" points="315.5249,-735.5 315.5249,-753.5 401.5542,-753.5 401.5542,-735.5 315.5249,-735.5"/>
<text text-anchor="middle" x="358.5396" y="-741.5" font-family="Helvetica,sans-Serif" font-size="10.00" fill="#000000">QGauss&lt; dim &gt;</text>
</a>
</g>
</g>
<!-- Node0&#45;&gt;Node4 -->
<g id="edge4" class="edge">
<title>Node0&#45;&gt;Node4</title>
<path fill="none" stroke="#191970" d="M155.9222,-429.6705C163.3381,-486.8025 187.5901,-654.5443 221.5117,-696.5 244.1746,-724.5303 284.2751,-736.2228 315.2608,-741.0837"/>
<polygon fill="#191970" stroke="#191970" points="159.3644,-428.9936 154.6316,-419.5147 152.4203,-429.8762 159.3644,-428.9936"/>
</g>
<!-- Node5 -->
<g id="node6" class="node">
<title>Node5</title>
<g id="a_node6"><a xlink:href="classQGaussChebyshev.html" target="_top" xlink:title="QGaussChebyshev\&lt; dim \&gt;">
<polygon fill="#ffffff" stroke="#000000" points="290.5103,-698.5 290.5103,-716.5 426.5688,-716.5 426.5688,-698.5 290.5103,-698.5"/>
<text text-anchor="middle" x="358.5396" y="-704.5" font-family="Helvetica,sans-Serif" font-size="10.00" fill="#000000">QGaussChebyshev&lt; dim &gt;</text>
</a>
</g>
</g>
<!-- Node0&#45;&gt;Node5 -->
<g id="edge5" class="edge">
<title>Node0&#45;&gt;Node5</title>
<path fill="none" stroke="#191970" d="M156.0904,-429.5642C163.653,-483.4568 187.5868,-635.2913 221.5117,-670.5 239.4643,-689.1319 265.7421,-698.7043 290.4957,-703.5144"/>
<polygon fill="#191970" stroke="#191970" points="159.554,-429.0594 154.7274,-419.6279 152.6189,-430.0108 159.554,-429.0594"/>
</g>
<!-- Node6 -->
<g id="node7" class="node">
<title>Node6</title>
<g id="a_node7"><a xlink:href="classQGaussLobatto.html" target="_top" xlink:title="QGaussLobatto\&lt; dim \&gt;">
<polygon fill="#ffffff" stroke="#000000" points="298.8428,-661.5 298.8428,-679.5 418.2363,-679.5 418.2363,-661.5 298.8428,-661.5"/>
<text text-anchor="middle" x="358.5396" y="-667.5" font-family="Helvetica,sans-Serif" font-size="10.00" fill="#000000">QGaussLobatto&lt; dim &gt;</text>
</a>
</g>
</g>
<!-- Node0&#45;&gt;Node6 -->
<g id="edge6" class="edge">
<title>Node0&#45;&gt;Node6</title>
<path fill="none" stroke="#191970" d="M156.4155,-429.6511C164.4307,-480.4866 188.632,-616.9635 221.5117,-646.5 242.2634,-665.1417 272.1827,-671.8475 298.7733,-673.5931"/>
<polygon fill="#191970" stroke="#191970" points="159.8597,-429.0204 154.878,-419.6699 152.9413,-430.0862 159.8597,-429.0204"/>
</g>
<!-- Node7 -->
<g id="node8" class="node">
<title>Node7</title>
<g id="a_node8"><a xlink:href="classQGaussLobatto.html" target="_top" xlink:title="QGaussLobatto\&lt; 1 \&gt;">
<polygon fill="#ffffff" stroke="#000000" points="494.124,-639.5 494.124,-657.5 602.9658,-657.5 602.9658,-639.5 494.124,-639.5"/>
<text text-anchor="middle" x="548.5449" y="-645.5" font-family="Helvetica,sans-Serif" font-size="10.00" fill="#000000">QGaussLobatto&lt; 1 &gt;</text>
</a>
</g>
</g>
<!-- Node0&#45;&gt;Node7 -->
<g id="edge8" class="edge">
<title>Node0&#45;&gt;Node7</title>
<path fill="none" stroke="#191970" d="M158.7029,-429.7103C171.4695,-472.7945 209.1057,-576.2693 284.5313,-613.5 351.2832,-646.4494 438.4972,-651.7979 494.0339,-651.2301"/>
<polygon fill="#191970" stroke="#191970" points="162.0209,-428.5815 155.9258,-419.9154 155.2864,-430.4909 162.0209,-428.5815"/>
</g>
<!-- Node8 -->
<g id="node9" class="node">
<title>Node8</title>
<g id="a_node9"><a xlink:href="classQGaussLobattoChebyshev.html" target="_top" xlink:title="QGaussLobattoChebyshev\l\&lt; dim \&gt;">
<polygon fill="#ffffff" stroke="#000000" points="290.5029,-575.5 290.5029,-603.5 426.5762,-603.5 426.5762,-575.5 290.5029,-575.5"/>
<text text-anchor="start" x="298.5029" y="-591.5" font-family="Helvetica,sans-Serif" font-size="10.00" fill="#000000">QGaussLobattoChebyshev</text>
<text text-anchor="middle" x="358.5396" y="-581.5" font-family="Helvetica,sans-Serif" font-size="10.00" fill="#000000">&lt; dim &gt;</text>
</a>
</g>
</g>
<!-- Node0&#45;&gt;Node8 -->
<g id="edge9" class="edge">
<title>Node0&#45;&gt;Node8</title>
<path fill="none" stroke="#191970" d="M162.5304,-428.5706C174.1943,-450.9528 196.0907,-489.542 221.5117,-517.5 245.3799,-543.7501 253.0797,-550.0818 284.5313,-566.5 290.9721,-569.8622 297.9887,-572.8294 305.0516,-575.4185"/>
<polygon fill="#191970" stroke="#191970" points="165.5773,-426.8412 157.9154,-419.5237 159.3418,-430.0221 165.5773,-426.8412"/>
</g>
<!-- Node9 -->
<g id="node10" class="node">
<title>Node9</title>
<g id="a_node10"><a xlink:href="classQGaussLog.html" target="_top" xlink:title="QGaussLog\&lt; dim \&gt;">
<polygon fill="#ffffff" stroke="#000000" points="307.1826,-538.5 307.1826,-556.5 409.8965,-556.5 409.8965,-538.5 307.1826,-538.5"/>
<text text-anchor="middle" x="358.5396" y="-544.5" font-family="Helvetica,sans-Serif" font-size="10.00" fill="#000000">QGaussLog&lt; dim &gt;</text>
</a>
</g>
</g>
<!-- Node0&#45;&gt;Node9 -->
<g id="edge10" class="edge">
<title>Node0&#45;&gt;Node9</title>
<path fill="none" stroke="#191970" d="M166.4807,-427.911C187.7221,-454.9959 232.8313,-506.4943 284.5313,-529.5 292.6256,-533.1019 301.5524,-536.0513 310.3214,-538.4431"/>
<polygon fill="#191970" stroke="#191970" points="169.078,-425.5462 160.2171,-419.7381 163.522,-429.8043 169.078,-425.5462"/>
</g>
<!-- Node10 -->
<g id="node11" class="node">
<title>Node10</title>
<g id="a_node11"><a xlink:href="classQGaussLogR.html" target="_top" xlink:title="QGaussLogR\&lt; dim \&gt;">
<polygon fill="#ffffff" stroke="#000000" points="303.5718,-501.5 303.5718,-519.5 413.5073,-519.5 413.5073,-501.5 303.5718,-501.5"/>
<text text-anchor="middle" x="358.5396" y="-507.5" font-family="Helvetica,sans-Serif" font-size="10.00" fill="#000000">QGaussLogR&lt; dim &gt;</text>
</a>
</g>
</g>
<!-- Node0&#45;&gt;Node10 -->
<g id="edge11" class="edge">
<title>Node0&#45;&gt;Node10</title>
<path fill="none" stroke="#191970" d="M173.1786,-426.0058C197.7808,-444.6466 241.9054,-475.5341 284.5313,-492.5 293.377,-496.0208 303.1013,-498.985 312.5101,-501.4271"/>
<polygon fill="#191970" stroke="#191970" points="175.0965,-423.0654 165.0368,-419.7407 170.8276,-428.613 175.0965,-423.0654"/>
</g>
<!-- Node11 -->
<g id="node12" class="node">
<title>Node11</title>
<g id="a_node12"><a xlink:href="classQGaussOneOverR.html" target="_top" xlink:title="QGaussOneOverR\&lt; dim \&gt;">
<polygon fill="#ffffff" stroke="#000000" points="291.6284,-464.5 291.6284,-482.5 425.4507,-482.5 425.4507,-464.5 291.6284,-464.5"/>
<text text-anchor="middle" x="358.5396" y="-470.5" font-family="Helvetica,sans-Serif" font-size="10.00" fill="#000000">QGaussOneOverR&lt; dim &gt;</text>
</a>
</g>
</g>
<!-- Node0&#45;&gt;Node11 -->
<g id="edge12" class="edge">
<title>Node0&#45;&gt;Node11</title>
<path fill="none" stroke="#191970" d="M188.716,-423.0535C199.2495,-426.7769 210.8376,-430.8373 221.5117,-434.5 249.4363,-444.082 256.1592,-447.3378 284.5313,-455.5 295.587,-458.6806 307.6759,-461.7783 318.8187,-464.482"/>
<polygon fill="#191970" stroke="#191970" points="189.599,-419.6532 179.0042,-419.6109 187.2602,-426.2509 189.599,-419.6532"/>
</g>
<!-- Node12 -->
<g id="node13" class="node">
<title>Node12</title>
<g id="a_node13"><a xlink:href="classQGaussRadauChebyshev.html" target="_top" xlink:title="QGaussRadauChebyshev\l\&lt; dim \&gt;">
<polygon fill="#ffffff" stroke="#000000" points="292.4512,-417.5 292.4512,-445.5 424.6279,-445.5 424.6279,-417.5 292.4512,-417.5"/>
<text text-anchor="start" x="300.4512" y="-433.5" font-family="Helvetica,sans-Serif" font-size="10.00" fill="#000000">QGaussRadauChebyshev</text>
<text text-anchor="middle" x="358.5396" y="-423.5" font-family="Helvetica,sans-Serif" font-size="10.00" fill="#000000">&lt; dim &gt;</text>
</a>
</g>
</g>
<!-- Node0&#45;&gt;Node12 -->
<g id="edge13" class="edge">
<title>Node0&#45;&gt;Node12</title>
<path fill="none" stroke="#191970" d="M213.6453,-416.6569C238.3218,-419.1848 266.9784,-422.1204 292.2609,-424.7103"/>
<polygon fill="#191970" stroke="#191970" points="213.9962,-413.1746 203.6915,-415.6372 213.2827,-420.1381 213.9962,-413.1746"/>
</g>
<!-- Node13 -->
<g id="node14" class="node">
<title>Node13</title>
<g id="a_node14"><a xlink:href="classQIterated.html" target="_top" xlink:title="QIterated\&lt; dim \&gt;">
<polygon fill="#ffffff" stroke="#000000" points="313.02,-380.5 313.02,-398.5 404.0591,-398.5 404.0591,-380.5 313.02,-380.5"/>
<text text-anchor="middle" x="358.5396" y="-386.5" font-family="Helvetica,sans-Serif" font-size="10.00" fill="#000000">QIterated&lt; dim &gt;</text>
</a>
</g>
</g>
<!-- Node0&#45;&gt;Node13 -->
<g id="edge14" class="edge">
<title>Node0&#45;&gt;Node13</title>
<path fill="none" stroke="#191970" d="M213.7184,-404.3357C245.3686,-401.0934 283.5499,-397.182 312.7608,-394.1896"/>
<polygon fill="#191970" stroke="#191970" points="213.2827,-400.8619 203.6915,-405.3628 213.9962,-407.8254 213.2827,-400.8619"/>
</g>
<!-- Node14 -->
<g id="node15" class="node">
<title>Node14</title>
<g id="a_node15"><a xlink:href="classQMidpoint.html" target="_top" xlink:title="QMidpoint\&lt; dim \&gt;">
<polygon fill="#ffffff" stroke="#000000" points="311.0767,-343.5 311.0767,-361.5 406.0024,-361.5 406.0024,-343.5 311.0767,-343.5"/>
<text text-anchor="middle" x="358.5396" y="-349.5" font-family="Helvetica,sans-Serif" font-size="10.00" fill="#000000">QMidpoint&lt; dim &gt;</text>
</a>
</g>
</g>
<!-- Node0&#45;&gt;Node14 -->
<g id="edge15" class="edge">
<title>Node0&#45;&gt;Node14</title>
<path fill="none" stroke="#191970" d="M191.3668,-398.3163C217.4391,-390.074 252.9496,-379.1549 284.5313,-370.5 295.8814,-367.3895 308.2847,-364.2662 319.637,-361.515"/>
<polygon fill="#191970" stroke="#191970" points="189.9856,-395.0827 181.5143,-401.4456 192.1046,-401.7542 189.9856,-395.0827"/>
</g>
<!-- Node15 -->
<g id="node16" class="node">
<title>Node15</title>
<g id="a_node16"><a xlink:href="classQMilne.html" target="_top" xlink:title="QMilne\&lt; dim \&gt;">
<polygon fill="#ffffff" stroke="#000000" points="318.0273,-306.5 318.0273,-324.5 399.0518,-324.5 399.0518,-306.5 318.0273,-306.5"/>
<text text-anchor="middle" x="358.5396" y="-312.5" font-family="Helvetica,sans-Serif" font-size="10.00" fill="#000000">QMilne&lt; dim &gt;</text>
</a>
</g>
</g>
<!-- Node0&#45;&gt;Node15 -->
<g id="edge16" class="edge">
<title>Node0&#45;&gt;Node15</title>
<path fill="none" stroke="#191970" d="M174.63,-395.4605C199.7121,-378.2131 243.3785,-350.1764 284.5313,-333.5 295.0707,-329.2291 306.8812,-325.7963 317.9191,-323.1205"/>
<polygon fill="#191970" stroke="#191970" points="172.4733,-392.6974 166.2692,-401.2857 176.4749,-398.4408 172.4733,-392.6974"/>
</g>
<!-- Node16 -->
<g id="node17" class="node">
<title>Node16</title>
<g id="a_node17"><a xlink:href="classQSimpson.html" target="_top" xlink:title="QSimpson\&lt; dim \&gt;">
<polygon fill="#ffffff" stroke="#000000" points="310.5225,-269.5 310.5225,-287.5 406.5566,-287.5 406.5566,-269.5 310.5225,-269.5"/>
<text text-anchor="middle" x="358.5396" y="-275.5" font-family="Helvetica,sans-Serif" font-size="10.00" fill="#000000">QSimpson&lt; dim &gt;</text>
</a>
</g>
</g>
<!-- Node0&#45;&gt;Node16 -->
<g id="edge17" class="edge">
<title>Node0&#45;&gt;Node16</title>
<path fill="none" stroke="#191970" d="M166.9976,-393.5012C188.642,-367.5387 233.9276,-318.688 284.5313,-296.5 292.7662,-292.8892 301.8481,-289.9267 310.746,-287.5227"/>
<polygon fill="#191970" stroke="#191970" points="164.1986,-391.3955 160.5901,-401.3569 169.623,-395.8199 164.1986,-391.3955"/>
</g>
<!-- Node17 -->
<g id="node18" class="node">
<title>Node17</title>
<g id="a_node18"><a xlink:href="classQSorted.html" target="_top" xlink:title="QSorted\&lt; dim \&gt;">
<polygon fill="#ffffff" stroke="#000000" points="315.2441,-232.5 315.2441,-250.5 401.835,-250.5 401.835,-232.5 315.2441,-232.5"/>
<text text-anchor="middle" x="358.5396" y="-238.5" font-family="Helvetica,sans-Serif" font-size="10.00" fill="#000000">QSorted&lt; dim &gt;</text>
</a>
</g>
</g>
<!-- Node0&#45;&gt;Node17 -->
<g id="edge18" class="edge">
<title>Node0&#45;&gt;Node17</title>
<path fill="none" stroke="#191970" d="M162.2995,-392.214C173.7269,-369.6111 195.381,-330.7958 221.5117,-303.5 245.1342,-278.8244 253.3968,-273.5553 284.5313,-259.5 294.0524,-255.2018 304.745,-251.8423 314.9794,-249.2514"/>
<polygon fill="#191970" stroke="#191970" points="159.0737,-390.842 157.7894,-401.3587 165.3517,-393.9383 159.0737,-390.842"/>
</g>
<!-- Node18 -->
<g id="node19" class="node">
<title>Node18</title>
<g id="a_node19"><a xlink:href="classQTelles.html" target="_top" xlink:title="QTelles\&lt; dim \&gt;">
<polygon fill="#ffffff" stroke="#000000" points="317.1924,-195.5 317.1924,-213.5 399.8867,-213.5 399.8867,-195.5 317.1924,-195.5"/>
<text text-anchor="middle" x="358.5396" y="-201.5" font-family="Helvetica,sans-Serif" font-size="10.00" fill="#000000">QTelles&lt; dim &gt;</text>
</a>
</g>
</g>
<!-- Node0&#45;&gt;Node18 -->
<g id="edge19" class="edge">
<title>Node0&#45;&gt;Node18</title>
<path fill="none" stroke="#191970" d="M158.7625,-391.3951C167.6518,-361.5973 188.0866,-303.4416 221.5117,-264.5 243.4344,-238.9593 253.7052,-236.0162 284.5313,-222.5 294.7039,-218.0396 306.1689,-214.5684 316.9829,-211.9174"/>
<polygon fill="#191970" stroke="#191970" points="155.3065,-390.7506 155.9179,-401.3277 162.0359,-392.6778 155.3065,-390.7506"/>
</g>
<!-- Node19 -->
<g id="node20" class="node">
<title>Node19</title>
<g id="a_node20"><a xlink:href="classQTrapez.html" target="_top" xlink:title="QTrapez\&lt; dim \&gt;">
<polygon fill="#ffffff" stroke="#000000" points="314.5972,-158.5 314.5972,-176.5 402.4819,-176.5 402.4819,-158.5 314.5972,-158.5"/>
<text text-anchor="middle" x="358.5396" y="-164.5" font-family="Helvetica,sans-Serif" font-size="10.00" fill="#000000">QTrapez&lt; dim &gt;</text>
</a>
</g>
</g>
<!-- Node0&#45;&gt;Node19 -->
<g id="edge20" class="edge">
<title>Node0&#45;&gt;Node19</title>
<path fill="none" stroke="#191970" d="M156.6661,-391.0831C163.2265,-355.3876 181.288,-278.3467 221.5117,-227.5 244.3108,-198.6798 283.7703,-183.3885 314.5072,-175.4754"/>
<polygon fill="#191970" stroke="#191970" points="153.1833,-390.6838 154.9267,-401.1342 160.0808,-391.8775 153.1833,-390.6838"/>
</g>
<!-- Node20 -->
<g id="node21" class="node">
<title>Node20</title>
<g id="a_node21"><a xlink:href="classQuadratureSelector.html" target="_top" xlink:title="QuadratureSelector\l\&lt; dim \&gt;">
<polygon fill="#ffffff" stroke="#000000" points="306.9043,-111.5 306.9043,-139.5 410.1748,-139.5 410.1748,-111.5 306.9043,-111.5"/>
<text text-anchor="start" x="314.9043" y="-127.5" font-family="Helvetica,sans-Serif" font-size="10.00" fill="#000000">QuadratureSelector</text>
<text text-anchor="middle" x="358.5396" y="-117.5" font-family="Helvetica,sans-Serif" font-size="10.00" fill="#000000">&lt; dim &gt;</text>
</a>
</g>
</g>
<!-- Node0&#45;&gt;Node20 -->
<g id="edge21" class="edge">
<title>Node0&#45;&gt;Node20</title>
<path fill="none" stroke="#191970" d="M155.095,-391.0297C159.2496,-349.9032 173.789,-252.7758 221.5117,-189.5 242.065,-162.2484 277.0797,-146.1703 306.5683,-136.9451"/>
<polygon fill="#191970" stroke="#191970" points="151.6021,-390.7932 154.1796,-401.0697 158.5732,-391.4289 151.6021,-390.7932"/>
</g>
<!-- Node21 -->
<g id="node22" class="node">
<title>Node21</title>
<g id="a_node22"><a xlink:href="classQWeddle.html" target="_top" xlink:title="QWeddle\&lt; dim \&gt;">
<polygon fill="#ffffff" stroke="#000000" points="313.1104,-74.5 313.1104,-92.5 403.9688,-92.5 403.9688,-74.5 313.1104,-74.5"/>
<text text-anchor="middle" x="358.5396" y="-80.5" font-family="Helvetica,sans-Serif" font-size="10.00" fill="#000000">QWeddle&lt; dim &gt;</text>
</a>
</g>
</g>
<!-- Node0&#45;&gt;Node21 -->
<g id="edge22" class="edge">
<title>Node0&#45;&gt;Node21</title>
<path fill="none" stroke="#191970" d="M154.4218,-391.104C157.3249,-345.4513 169.6711,-229.1447 221.5117,-150.5 241.038,-120.8777 252.5803,-116.9238 284.5313,-101.5 293.3434,-97.2461 303.245,-93.9474 312.8698,-91.4072"/>
<polygon fill="#191970" stroke="#191970" points="150.9253,-390.9448 153.8689,-401.1225 157.9147,-391.3306 150.9253,-390.9448"/>
</g>
<!-- Node22 -->
<g id="node23" class="node">
<title>Node22</title>
<g id="a_node23"><a xlink:href="classQuadrature.html" target="_top" xlink:title="Quadrature\&lt; 1 \&gt;">
<polygon fill="#ffffff" stroke="#000000" points="313.8477,-37.5 313.8477,-55.5 403.2314,-55.5 403.2314,-37.5 313.8477,-37.5"/>
<text text-anchor="middle" x="358.5396" y="-43.5" font-family="Helvetica,sans-Serif" font-size="10.00" fill="#000000">Quadrature&lt; 1 &gt;</text>
</a>
</g>
</g>
<!-- Node0&#45;&gt;Node22 -->
<g id="edge23" class="edge">
<title>Node0&#45;&gt;Node22</title>
<path fill="none" stroke="#ffa500" stroke-dasharray="5,2" d="M155.5576,-391.1C162.2156,-330.1225 185.1861,-143.5905 221.5117,-96.5 243.3209,-68.2278 282.6747,-55.9312 313.6305,-50.5887"/>
<polygon fill="#ffa500" stroke="#ffa500" points="152.055,-390.9394 154.4744,-401.2543 159.0155,-391.682 152.055,-390.9394"/>
<text text-anchor="middle" x="244.0215" y="-98.5" font-family="Helvetica,sans-Serif" font-size="10.00" fill="#000000"> &lt; 1 &gt;</text>
</g>
<!-- Node23 -->
<g id="node24" class="node">
<title>Node23</title>
<g id="a_node24"><a xlink:href="classQuadrature.html" target="_top" xlink:title="Quadrature\&lt; dim&#45;1 \&gt;">
<polygon fill="#ffffff" stroke="#000000" points="304.126,-.5 304.126,-18.5 412.9531,-18.5 412.9531,-.5 304.126,-.5"/>
<text text-anchor="middle" x="358.5396" y="-6.5" font-family="Helvetica,sans-Serif" font-size="10.00" fill="#000000">Quadrature&lt; dim&#45;1 &gt;</text>
</a>
</g>
</g>
<!-- Node0&#45;&gt;Node23 -->
<g id="edge24" class="edge">
<title>Node0&#45;&gt;Node23</title>
<path fill="none" stroke="#ffa500" stroke-dasharray="5,2" d="M154.7522,-391.2356C159.3015,-324.4618 177.437,-104.1454 221.5117,-51.5 241.6371,-27.4611 275.1463,-16.911 303.9894,-12.3951"/>
<polygon fill="#ffa500" stroke="#ffa500" points="151.2594,-391.0128 154.0967,-401.2206 158.2444,-391.4714 151.2594,-391.0128"/>
<text text-anchor="middle" x="244.0215" y="-53.5" font-family="Helvetica,sans-Serif" font-size="10.00" fill="#000000"> &lt; dim&#45;1 &gt;</text>
</g>
<!-- Node1 -->
<g id="node2" class="node">
<title>Node1</title>
<g id="a_node2"><a xlink:href="classSubscriptor.html" target="_top" xlink:title="Subscriptor">
<polygon fill="#ffffff" stroke="#000000" points="0,-401.5 0,-419.5 66.5762,-419.5 66.5762,-401.5 0,-401.5"/>
<text text-anchor="middle" x="33.2881" y="-407.5" font-family="Helvetica,sans-Serif" font-size="10.00" fill="#000000">Subscriptor</text>
</a>
</g>
</g>
<!-- Node1&#45;&gt;Node0 -->
<g id="edge1" class="edge">
<title>Node1&#45;&gt;Node0</title>
<path fill="none" stroke="#191970" d="M76.8896,-410.5C85.4097,-410.5 94.4098,-410.5 103.1299,-410.5"/>
<polygon fill="#191970" stroke="#191970" points="76.7861,-407.0001 66.786,-410.5 76.786,-414.0001 76.7861,-407.0001"/>
</g>
<!-- Node6&#45;&gt;Node7 -->
<g id="edge7" class="edge">
<title>Node6&#45;&gt;Node7</title>
<path fill="none" stroke="#ffa500" stroke-dasharray="5,2" d="M428.4807,-662.4018C450.0377,-659.9058 473.4488,-657.1951 493.8255,-654.8358"/>
<polygon fill="#ffa500" stroke="#ffa500" points="427.9287,-658.9422 418.3976,-663.5693 428.7339,-665.8958 427.9287,-658.9422"/>
<text text-anchor="middle" x="463.3359" y="-661.5" font-family="Helvetica,sans-Serif" font-size="10.00" fill="#000000"> &lt; 1 &gt;</text>
</g>
</g>
</svg>
