<?xml version="1.0" encoding="UTF-8" standalone="no"?>
<!DOCTYPE svg PUBLIC "-//W3C//DTD SVG 1.1//EN"
 "http://www.w3.org/Graphics/SVG/1.1/DTD/svg11.dtd">
<!-- Generated by graphviz version 2.40.1 (20161225.0304)
 -->
<!-- Title: FE_DGP&lt; dim, spacedim &gt; Pages: 1 -->
<svg width="249pt" height="310pt"
 viewBox="0.00 0.00 249.44 310.00" xmlns="http://www.w3.org/2000/svg" xmlns:xlink="http://www.w3.org/1999/xlink">
<g id="graph0" class="graph" transform="scale(1 1) rotate(0) translate(4 306)">
<title>FE_DGP&lt; dim, spacedim &gt;</title>
<polygon fill="#ffffff" stroke="transparent" points="-4,4 -4,-306 245.4404,-306 245.4404,4 -4,4"/>
<!-- Node0 -->
<g id="node1" class="node">
<title>Node0</title>
<polygon fill="#bfbfbf" stroke="#000000" points="19.4312,-.5 19.4312,-18.5 157.145,-18.5 157.145,-.5 19.4312,-.5"/>
<text text-anchor="middle" x="88.2881" y="-6.5" font-family="Helvetica,sans-Serif" font-size="10.00" fill="#000000">FE_DGP&lt; dim, spacedim &gt;</text>
</g>
<!-- Node1 -->
<g id="node2" class="node">
<title>Node1</title>
<g id="a_node2"><a xlink:href="classFE__Poly.html" target="_top" xlink:title="FE_Poly\&lt; PolynomialSpace\l\&lt; dim \&gt;, dim, spacedim \&gt;">
<polygon fill="#ffffff" stroke="#000000" points="18.4497,-56.5 18.4497,-84.5 158.1265,-84.5 158.1265,-56.5 18.4497,-56.5"/>
<text text-anchor="start" x="26.4497" y="-72.5" font-family="Helvetica,sans-Serif" font-size="10.00" fill="#000000">FE_Poly&lt; PolynomialSpace</text>
<text text-anchor="middle" x="88.2881" y="-62.5" font-family="Helvetica,sans-Serif" font-size="10.00" fill="#000000">&lt; dim &gt;, dim, spacedim &gt;</text>
</a>
</g>
</g>
<!-- Node1&#45;&gt;Node0 -->
<g id="edge1" class="edge">
<title>Node1&#45;&gt;Node0</title>
<path fill="none" stroke="#191970" d="M88.2881,-46.1001C88.2881,-36.5157 88.2881,-26.0935 88.2881,-18.831"/>
<polygon fill="#191970" stroke="#191970" points="84.7882,-46.352 88.2881,-56.3521 91.7882,-46.3521 84.7882,-46.352"/>
</g>
<!-- Node2 -->
<g id="node3" class="node">
<title>Node2</title>
<g id="a_node3"><a xlink:href="classFiniteElement.html" target="_top" xlink:title="FiniteElement\&lt; dim,\l spacedim \&gt;">
<polygon fill="#ffffff" stroke="#000000" points="31.9644,-207.5 31.9644,-235.5 136.6118,-235.5 136.6118,-207.5 31.9644,-207.5"/>
<text text-anchor="start" x="39.9644" y="-223.5" font-family="Helvetica,sans-Serif" font-size="10.00" fill="#000000">FiniteElement&lt; dim,</text>
<text text-anchor="middle" x="84.2881" y="-213.5" font-family="Helvetica,sans-Serif" font-size="10.00" fill="#000000"> spacedim &gt;</text>
</a>
</g>
</g>
<!-- Node2&#45;&gt;Node1 -->
<g id="edge2" class="edge">
<title>Node2&#45;&gt;Node1</title>
<path fill="none" stroke="#191970" d="M84.9353,-197.0677C85.7788,-165.2268 87.2265,-110.576 87.9099,-84.778"/>
<polygon fill="#191970" stroke="#191970" points="81.4305,-197.2051 84.6644,-207.2943 88.4281,-197.3905 81.4305,-197.2051"/>
</g>
<!-- Node5 -->
<g id="node6" class="node">
<title>Node5</title>
<g id="a_node6"><a xlink:href="classFE__Poly.html" target="_top" xlink:title="FE_Poly\&lt; PolynomialType,\l dim, spacedim \&gt;">
<polygon fill="#ffffff" stroke="#000000" points="100.3955,-141.5 100.3955,-169.5 236.1807,-169.5 236.1807,-141.5 100.3955,-141.5"/>
<text text-anchor="start" x="108.3955" y="-157.5" font-family="Helvetica,sans-Serif" font-size="10.00" fill="#000000">FE_Poly&lt; PolynomialType,</text>
<text text-anchor="middle" x="168.2881" y="-147.5" font-family="Helvetica,sans-Serif" font-size="10.00" fill="#000000"> dim, spacedim &gt;</text>
</a>
</g>
</g>
<!-- Node2&#45;&gt;Node5 -->
<g id="edge6" class="edge">
<title>Node2&#45;&gt;Node5</title>
<path fill="none" stroke="#191970" d="M110.6216,-200.8094C123.5612,-190.6426 138.8166,-178.6562 150.3855,-169.5663"/>
<polygon fill="#191970" stroke="#191970" points="108.2157,-198.2486 102.5148,-207.179 112.5404,-203.7529 108.2157,-198.2486"/>
</g>
<!-- Node3 -->
<g id="node4" class="node">
<title>Node3</title>
<g id="a_node4"><a xlink:href="classSubscriptor.html" target="_top" xlink:title="Subscriptor">
<polygon fill="#ffffff" stroke="#000000" points="0,-278.5 0,-296.5 66.5762,-296.5 66.5762,-278.5 0,-278.5"/>
<text text-anchor="middle" x="33.2881" y="-284.5" font-family="Helvetica,sans-Serif" font-size="10.00" fill="#000000">Subscriptor</text>
</a>
</g>
</g>
<!-- Node3&#45;&gt;Node2 -->
<g id="edge3" class="edge">
<title>Node3&#45;&gt;Node2</title>
<path fill="none" stroke="#191970" d="M46.7216,-270.1155C55.0215,-259.3744 65.538,-245.7648 73.3316,-235.6789"/>
<polygon fill="#191970" stroke="#191970" points="43.7244,-268.27 40.3794,-278.323 49.2634,-272.5502 43.7244,-268.27"/>
</g>
<!-- Node4 -->
<g id="node5" class="node">
<title>Node4</title>
<g id="a_node5"><a xlink:href="classFiniteElementData.html" target="_top" xlink:title="FiniteElementData\&lt;\l dim \&gt;">
<polygon fill="#ffffff" stroke="#000000" points="84.2378,-273.5 84.2378,-301.5 188.3384,-301.5 188.3384,-273.5 84.2378,-273.5"/>
<text text-anchor="start" x="92.2378" y="-289.5" font-family="Helvetica,sans-Serif" font-size="10.00" fill="#000000">FiniteElementData&lt;</text>
<text text-anchor="middle" x="136.2881" y="-279.5" font-family="Helvetica,sans-Serif" font-size="10.00" fill="#000000"> dim &gt;</text>
</a>
</g>
</g>
<!-- Node4&#45;&gt;Node2 -->
<g id="edge4" class="edge">
<title>Node4&#45;&gt;Node2</title>
<path fill="none" stroke="#191970" d="M118.6459,-265.108C111.007,-255.4125 102.291,-244.3499 95.5493,-235.7931"/>
<polygon fill="#191970" stroke="#191970" points="116.0669,-267.4901 125.0049,-273.179 121.5653,-263.158 116.0669,-267.4901"/>
</g>
<!-- Node5&#45;&gt;Node1 -->
<g id="edge5" class="edge">
<title>Node5&#45;&gt;Node1</title>
<path fill="none" stroke="#ffa500" stroke-dasharray="5,2" d="M147.9359,-133.8758C133.3578,-118.3866 114.1474,-97.9755 101.5181,-84.5569"/>
<polygon fill="#ffa500" stroke="#ffa500" points="145.6753,-136.5807 155.0777,-141.464 150.7727,-131.7832 145.6753,-136.5807"/>
<text text-anchor="start" x="135.2881" y="-115" font-family="Helvetica,sans-Serif" font-size="10.00" fill="#000000"> &lt; PolynomialSpace&lt;</text>
<text text-anchor="middle" x="188.3643" y="-105" font-family="Helvetica,sans-Serif" font-size="10.00" fill="#000000"> dim &gt;, dim, spacedim &gt;</text>
</g>
</g>
</svg>
