<?xml version="1.0" encoding="UTF-8" standalone="no"?>
<!DOCTYPE svg PUBLIC "-//W3C//DTD SVG 1.1//EN"
 "http://www.w3.org/Graphics/SVG/1.1/DTD/svg11.dtd">
<!-- Generated by graphviz version 2.40.1 (20161225.0304)
 -->
<!-- Title: QGaussRadauChebyshev&lt; dim &gt; Pages: 1 -->
<svg width="140pt" height="147pt"
 viewBox="0.00 0.00 140.18 147.00" xmlns="http://www.w3.org/2000/svg" xmlns:xlink="http://www.w3.org/1999/xlink">
<g id="graph0" class="graph" transform="scale(1 1) rotate(0) translate(4 143)">
<title>QGaussRadauChebyshev&lt; dim &gt;</title>
<polygon fill="#ffffff" stroke="transparent" points="-4,4 -4,-143 136.1768,-143 136.1768,4 -4,4"/>
<!-- Node0 -->
<g id="node1" class="node">
<title>Node0</title>
<polygon fill="#bfbfbf" stroke="#000000" points="0,-.5 0,-28.5 132.1768,-28.5 132.1768,-.5 0,-.5"/>
<text text-anchor="start" x="8" y="-16.5" font-family="Helvetica,sans-Serif" font-size="10.00" fill="#000000">QGaussRadauChebyshev</text>
<text text-anchor="middle" x="66.0884" y="-6.5" font-family="Helvetica,sans-Serif" font-size="10.00" fill="#000000">&lt; dim &gt;</text>
</g>
<!-- Node1 -->
<g id="node2" class="node">
<title>Node1</title>
<g id="a_node2"><a xlink:href="classQuadrature.html" target="_top" xlink:title="Quadrature\&lt; dim \&gt;">
<polygon fill="#ffffff" stroke="#000000" points="16.1206,-65.5 16.1206,-83.5 116.0562,-83.5 116.0562,-65.5 16.1206,-65.5"/>
<text text-anchor="middle" x="66.0884" y="-71.5" font-family="Helvetica,sans-Serif" font-size="10.00" fill="#000000">Quadrature&lt; dim &gt;</text>
</a>
</g>
</g>
<!-- Node1&#45;&gt;Node0 -->
<g id="edge1" class="edge">
<title>Node1&#45;&gt;Node0</title>
<path fill="none" stroke="#191970" d="M66.0884,-55.1865C66.0884,-46.6283 66.0884,-36.7354 66.0884,-28.8477"/>
<polygon fill="#191970" stroke="#191970" points="62.5885,-55.3873 66.0884,-65.3873 69.5885,-55.3873 62.5885,-55.3873"/>
</g>
<!-- Node2 -->
<g id="node3" class="node">
<title>Node2</title>
<g id="a_node3"><a xlink:href="classSubscriptor.html" target="_top" xlink:title="Subscriptor">
<polygon fill="#ffffff" stroke="#000000" points="32.8003,-120.5 32.8003,-138.5 99.3765,-138.5 99.3765,-120.5 32.8003,-120.5"/>
<text text-anchor="middle" x="66.0884" y="-126.5" font-family="Helvetica,sans-Serif" font-size="10.00" fill="#000000">Subscriptor</text>
</a>
</g>
</g>
<!-- Node2&#45;&gt;Node1 -->
<g id="edge2" class="edge">
<title>Node2&#45;&gt;Node1</title>
<path fill="none" stroke="#191970" d="M66.0884,-110.383C66.0884,-101.3738 66.0884,-91.0373 66.0884,-83.7795"/>
<polygon fill="#191970" stroke="#191970" points="62.5885,-110.4178 66.0884,-120.4179 69.5885,-110.4179 62.5885,-110.4178"/>
</g>
</g>
</svg>
