<?xml version="1.0" encoding="UTF-8" standalone="no"?>
<!DOCTYPE svg PUBLIC "-//W3C//DTD SVG 1.1//EN"
 "http://www.w3.org/Graphics/SVG/1.1/DTD/svg11.dtd">
<!-- Generated by graphviz version 2.40.1 (20161225.0304)
 -->
<!-- Title: MappingQ&lt; dim, spacedim &gt;::InternalData Pages: 1 -->
<svg width="143pt" height="102pt"
 viewBox="0.00 0.00 143.22 102.00" xmlns="http://www.w3.org/2000/svg" xmlns:xlink="http://www.w3.org/1999/xlink">
<g id="graph0" class="graph" transform="scale(1 1) rotate(0) translate(4 98)">
<title>MappingQ&lt; dim, spacedim &gt;::InternalData</title>
<polygon fill="#ffffff" stroke="transparent" points="-4,4 -4,-98 139.2236,-98 139.2236,4 -4,4"/>
<!-- Node0 -->
<g id="node1" class="node">
<title>Node0</title>
<polygon fill="#bfbfbf" stroke="#000000" points="0,-.5 0,-28.5 135.2236,-28.5 135.2236,-.5 0,-.5"/>
<text text-anchor="start" x="8" y="-16.5" font-family="Helvetica,sans-Serif" font-size="10.00" fill="#000000">MappingQ&lt; dim, spacedim</text>
<text text-anchor="middle" x="67.6118" y="-6.5" font-family="Helvetica,sans-Serif" font-size="10.00" fill="#000000"> &gt;::InternalData</text>
</g>
<!-- Node1 -->
<g id="node2" class="node">
<title>Node1</title>
<g id="a_node2"><a xlink:href="classMapping_1_1InternalDataBase.html" target="_top" xlink:title="Mapping\&lt; dim, spacedim\l \&gt;::InternalDataBase">
<polygon fill="#ffffff" stroke="#000000" points="3.8892,-65.5 3.8892,-93.5 131.3345,-93.5 131.3345,-65.5 3.8892,-65.5"/>
<text text-anchor="start" x="11.8892" y="-81.5" font-family="Helvetica,sans-Serif" font-size="10.00" fill="#000000">Mapping&lt; dim, spacedim</text>
<text text-anchor="middle" x="67.6118" y="-71.5" font-family="Helvetica,sans-Serif" font-size="10.00" fill="#000000"> &gt;::InternalDataBase</text>
</a>
</g>
</g>
<!-- Node1&#45;&gt;Node0 -->
<g id="edge1" class="edge">
<title>Node1&#45;&gt;Node0</title>
<path fill="none" stroke="#191970" d="M67.6118,-55.1081C67.6118,-46.1539 67.6118,-36.3227 67.6118,-28.5765"/>
<polygon fill="#191970" stroke="#191970" points="64.1119,-55.3959 67.6118,-65.396 71.1119,-55.396 64.1119,-55.3959"/>
</g>
</g>
</svg>
