<?xml version="1.0" encoding="UTF-8" standalone="no"?>
<!DOCTYPE svg PUBLIC "-//W3C//DTD SVG 1.1//EN"
 "http://www.w3.org/Graphics/SVG/1.1/DTD/svg11.dtd">
<!-- Generated by graphviz version 2.40.1 (20161225.0304)
 -->
<!-- Title: parallel::Triangulation&lt; dim, spacedim &gt; Pages: 1 -->
<svg width="840pt" height="178pt"
 viewBox="0.00 0.00 840.37 178.00" xmlns="http://www.w3.org/2000/svg" xmlns:xlink="http://www.w3.org/1999/xlink">
<g id="graph0" class="graph" transform="scale(1 1) rotate(0) translate(4 174)">
<title>parallel::Triangulation&lt; dim, spacedim &gt;</title>
<polygon fill="#ffffff" stroke="transparent" points="-4,4 -4,-174 836.3672,-174 836.3672,4 -4,4"/>
<!-- Node0 -->
<g id="node1" class="node">
<title>Node0</title>
<polygon fill="#bfbfbf" stroke="#000000" points="241.5322,-63.5 241.5322,-91.5 352.7764,-91.5 352.7764,-63.5 241.5322,-63.5"/>
<text text-anchor="start" x="249.5322" y="-79.5" font-family="Helvetica,sans-Serif" font-size="10.00" fill="#000000">parallel::Triangulation</text>
<text text-anchor="middle" x="297.1543" y="-69.5" font-family="Helvetica,sans-Serif" font-size="10.00" fill="#000000">&lt; dim, spacedim &gt;</text>
</g>
<!-- Node3 -->
<g id="node4" class="node">
<title>Node3</title>
<g id="a_node4"><a xlink:href="classparallel_1_1distributed_1_1Triangulation.html" target="_top" xlink:title="parallel::distributed\l::Triangulation\&lt; dim,\l spacedim \&gt;">
<polygon fill="#ffffff" stroke="#000000" points="483.1392,-131.5 483.1392,-169.5 589.6519,-169.5 589.6519,-131.5 483.1392,-131.5"/>
<text text-anchor="start" x="491.1392" y="-157.5" font-family="Helvetica,sans-Serif" font-size="10.00" fill="#000000">parallel::distributed</text>
<text text-anchor="start" x="491.1392" y="-147.5" font-family="Helvetica,sans-Serif" font-size="10.00" fill="#000000">::Triangulation&lt; dim,</text>
<text text-anchor="middle" x="536.3955" y="-137.5" font-family="Helvetica,sans-Serif" font-size="10.00" fill="#000000"> spacedim &gt;</text>
</a>
</g>
</g>
<!-- Node0&#45;&gt;Node3 -->
<g id="edge3" class="edge">
<title>Node0&#45;&gt;Node3</title>
<path fill="none" stroke="#191970" d="M351.851,-94.6516C358.2287,-96.6325 364.6441,-98.6165 370.7764,-100.5 408.2446,-112.0082 450.5508,-124.7764 483.0259,-134.5296"/>
<polygon fill="#191970" stroke="#191970" points="352.4943,-91.1862 341.9059,-91.5561 350.4139,-97.8699 352.4943,-91.1862"/>
</g>
<!-- Node5 -->
<g id="node6" class="node">
<title>Node5</title>
<g id="a_node6"><a xlink:href="classparallel_1_1shared_1_1Triangulation.html" target="_top" xlink:title="parallel::shared::Triangulation\l\&lt; dim, spacedim \&gt;">
<polygon fill="#ffffff" stroke="#000000" points="462.707,-84.5 462.707,-112.5 610.084,-112.5 610.084,-84.5 462.707,-84.5"/>
<text text-anchor="start" x="470.707" y="-100.5" font-family="Helvetica,sans-Serif" font-size="10.00" fill="#000000">parallel::shared::Triangulation</text>
<text text-anchor="middle" x="536.3955" y="-90.5" font-family="Helvetica,sans-Serif" font-size="10.00" fill="#000000">&lt; dim, spacedim &gt;</text>
</a>
</g>
</g>
<!-- Node0&#45;&gt;Node5 -->
<g id="edge5" class="edge">
<title>Node0&#45;&gt;Node5</title>
<path fill="none" stroke="#191970" d="M363.1328,-83.2914C393.8993,-85.992 430.6367,-89.2168 462.3493,-92.0004"/>
<polygon fill="#191970" stroke="#191970" points="363.2116,-79.785 352.9438,-82.3971 362.5994,-86.7582 363.2116,-79.785"/>
</g>
<!-- Node6 -->
<g id="node7" class="node">
<title>Node6</title>
<g id="a_node7"><a xlink:href="classparallel_1_1distributed_1_1Triangulation.html" target="_top" xlink:title="Triangulation\&lt; dim \&gt;">
<polygon fill="#ffffff" stroke="#000000" points="482.9976,-47.5 482.9976,-65.5 589.7935,-65.5 589.7935,-47.5 482.9976,-47.5"/>
<text text-anchor="middle" x="536.3955" y="-53.5" font-family="Helvetica,sans-Serif" font-size="10.00" fill="#000000">Triangulation&lt; dim &gt;</text>
</a>
</g>
</g>
<!-- Node0&#45;&gt;Node6 -->
<g id="edge6" class="edge">
<title>Node0&#45;&gt;Node6</title>
<path fill="none" stroke="#191970" d="M363.3234,-71.6918C401.0214,-68.3828 447.6356,-64.2911 482.9866,-61.1881"/>
<polygon fill="#191970" stroke="#191970" points="362.5994,-68.2418 352.9438,-72.6029 363.2116,-75.215 362.5994,-68.2418"/>
</g>
<!-- Node7 -->
<g id="node8" class="node">
<title>Node7</title>
<g id="a_node8"><a xlink:href="classparallel_1_1Triangulation.html" target="_top" xlink:title="parallel::Triangulation\l\&lt; 1, spacedim \&gt;">
<polygon fill="#ffffff" stroke="#000000" points="480.7734,-.5 480.7734,-28.5 592.0176,-28.5 592.0176,-.5 480.7734,-.5"/>
<text text-anchor="start" x="488.7734" y="-16.5" font-family="Helvetica,sans-Serif" font-size="10.00" fill="#000000">parallel::Triangulation</text>
<text text-anchor="middle" x="536.3955" y="-6.5" font-family="Helvetica,sans-Serif" font-size="10.00" fill="#000000">&lt; 1, spacedim &gt;</text>
</a>
</g>
</g>
<!-- Node0&#45;&gt;Node7 -->
<g id="edge7" class="edge">
<title>Node0&#45;&gt;Node7</title>
<path fill="none" stroke="#ffa500" stroke-dasharray="5,2" d="M343.7912,-60.0857C352.6897,-57.0322 361.9739,-54.0278 370.7764,-51.5 407.023,-41.0913 448.4278,-31.8413 480.7709,-25.1935"/>
<polygon fill="#ffa500" stroke="#ffa500" points="342.6101,-56.7909 334.3278,-63.3981 344.9227,-63.3978 342.6101,-56.7909"/>
<text text-anchor="middle" x="407.7417" y="-53.5" font-family="Helvetica,sans-Serif" font-size="10.00" fill="#000000"> &lt; 1, spacedim &gt;</text>
</g>
<!-- Node1 -->
<g id="node2" class="node">
<title>Node1</title>
<g id="a_node2"><a xlink:href="classTriangulation.html" target="_top" xlink:title="Triangulation\&lt; dim,\l spacedim \&gt;">
<polygon fill="#ffffff" stroke="#000000" points="103.5762,-63.5 103.5762,-91.5 204.5322,-91.5 204.5322,-63.5 103.5762,-63.5"/>
<text text-anchor="start" x="111.5762" y="-79.5" font-family="Helvetica,sans-Serif" font-size="10.00" fill="#000000">Triangulation&lt; dim,</text>
<text text-anchor="middle" x="154.0542" y="-69.5" font-family="Helvetica,sans-Serif" font-size="10.00" fill="#000000"> spacedim &gt;</text>
</a>
</g>
</g>
<!-- Node1&#45;&gt;Node0 -->
<g id="edge1" class="edge">
<title>Node1&#45;&gt;Node0</title>
<path fill="none" stroke="#191970" d="M214.9661,-77.5C223.6439,-77.5 232.5351,-77.5 241.1139,-77.5"/>
<polygon fill="#191970" stroke="#191970" points="214.9089,-74.0001 204.9089,-77.5 214.9088,-81.0001 214.9089,-74.0001"/>
</g>
<!-- Node2 -->
<g id="node3" class="node">
<title>Node2</title>
<g id="a_node3"><a xlink:href="classSubscriptor.html" target="_top" xlink:title="Subscriptor">
<polygon fill="#ffffff" stroke="#000000" points="0,-68.5 0,-86.5 66.5762,-86.5 66.5762,-68.5 0,-68.5"/>
<text text-anchor="middle" x="33.2881" y="-74.5" font-family="Helvetica,sans-Serif" font-size="10.00" fill="#000000">Subscriptor</text>
</a>
</g>
</g>
<!-- Node2&#45;&gt;Node1 -->
<g id="edge2" class="edge">
<title>Node2&#45;&gt;Node1</title>
<path fill="none" stroke="#191970" d="M76.7644,-77.5C85.3345,-77.5 94.3987,-77.5 103.1871,-77.5"/>
<polygon fill="#191970" stroke="#191970" points="76.6077,-74.0001 66.6076,-77.5 76.6076,-81.0001 76.6077,-74.0001"/>
</g>
<!-- Node4 -->
<g id="node5" class="node">
<title>Node4</title>
<g id="a_node5"><a xlink:href="classparallel_1_1distributed_1_1Triangulation.html" target="_top" xlink:title="parallel::distributed\l::Triangulation\&lt; dim \&gt;">
<polygon fill="#ffffff" stroke="#000000" points="701.1133,-136.5 701.1133,-164.5 813.4658,-164.5 813.4658,-136.5 701.1133,-136.5"/>
<text text-anchor="start" x="709.1133" y="-152.5" font-family="Helvetica,sans-Serif" font-size="10.00" fill="#000000">parallel::distributed</text>
<text text-anchor="middle" x="757.2896" y="-142.5" font-family="Helvetica,sans-Serif" font-size="10.00" fill="#000000">::Triangulation&lt; dim &gt;</text>
</a>
</g>
</g>
<!-- Node3&#45;&gt;Node4 -->
<g id="edge4" class="edge">
<title>Node3&#45;&gt;Node4</title>
<path fill="none" stroke="#ffa500" stroke-dasharray="5,2" d="M599.9653,-150.5C631.8104,-150.5 670.0394,-150.5 700.8384,-150.5"/>
<polygon fill="#ffa500" stroke="#ffa500" points="599.8678,-147.0001 589.8678,-150.5 599.8678,-154.0001 599.8678,-147.0001"/>
<text text-anchor="middle" x="646.1479" y="-152.5" font-family="Helvetica,sans-Serif" font-size="10.00" fill="#000000"> &lt; dim &gt;</text>
</g>
<!-- Node8 -->
<g id="node9" class="node">
<title>Node8</title>
<g id="a_node9"><a xlink:href="classparallel_1_1distributed_1_1Triangulation_3_011_00_01spacedim_01_4.html" target="_top" xlink:title="parallel::distributed\l::Triangulation\&lt; 1, spacedim \&gt;">
<polygon fill="#ffffff" stroke="#000000" points="682.2119,-.5 682.2119,-28.5 832.3672,-28.5 832.3672,-.5 682.2119,-.5"/>
<text text-anchor="start" x="690.2119" y="-16.5" font-family="Helvetica,sans-Serif" font-size="10.00" fill="#000000">parallel::distributed</text>
<text text-anchor="middle" x="757.2896" y="-6.5" font-family="Helvetica,sans-Serif" font-size="10.00" fill="#000000">::Triangulation&lt; 1, spacedim &gt;</text>
</a>
</g>
</g>
<!-- Node7&#45;&gt;Node8 -->
<g id="edge8" class="edge">
<title>Node7&#45;&gt;Node8</title>
<path fill="none" stroke="#191970" d="M602.2699,-14.5C627.335,-14.5 656.0803,-14.5 681.9557,-14.5"/>
<polygon fill="#191970" stroke="#191970" points="602.1364,-11.0001 592.1364,-14.5 602.1364,-18.0001 602.1364,-11.0001"/>
</g>
</g>
</svg>
