<?xml version="1.0" encoding="UTF-8" standalone="no"?>
<!DOCTYPE svg PUBLIC "-//W3C//DTD SVG 1.1//EN"
 "http://www.w3.org/Graphics/SVG/1.1/DTD/svg11.dtd">
<!-- Generated by graphviz version 2.40.1 (20161225.0304)
 -->
<!-- Title: FE_Q_Hierarchical&lt; dim &gt; Pages: 1 -->
<svg width="292pt" height="329pt"
 viewBox="0.00 0.00 292.18 329.00" xmlns="http://www.w3.org/2000/svg" xmlns:xlink="http://www.w3.org/1999/xlink">
<g id="graph0" class="graph" transform="scale(1 1) rotate(0) translate(4 325)">
<title>FE_Q_Hierarchical&lt; dim &gt;</title>
<polygon fill="#ffffff" stroke="transparent" points="-4,4 -4,-325 288.1807,-325 288.1807,4 -4,4"/>
<!-- Node0 -->
<g id="node1" class="node">
<title>Node0</title>
<polygon fill="#bfbfbf" stroke="#000000" points="83.7363,-.5 83.7363,-28.5 190.0488,-28.5 190.0488,-.5 83.7363,-.5"/>
<text text-anchor="start" x="91.7363" y="-16.5" font-family="Helvetica,sans-Serif" font-size="10.00" fill="#000000">FE_Q_Hierarchical&lt;</text>
<text text-anchor="middle" x="136.8926" y="-6.5" font-family="Helvetica,sans-Serif" font-size="10.00" fill="#000000"> dim &gt;</text>
</g>
<!-- Node1 -->
<g id="node2" class="node">
<title>Node1</title>
<g id="a_node2"><a xlink:href="classFE__Poly.html" target="_top" xlink:title="FE_Poly\&lt; TensorProductPolynomials\l\&lt; dim \&gt;, dim \&gt;">
<polygon fill="#ffffff" stroke="#000000" points="46.5806,-66.5 46.5806,-94.5 227.2046,-94.5 227.2046,-66.5 46.5806,-66.5"/>
<text text-anchor="start" x="54.5806" y="-82.5" font-family="Helvetica,sans-Serif" font-size="10.00" fill="#000000">FE_Poly&lt; TensorProductPolynomials</text>
<text text-anchor="middle" x="136.8926" y="-72.5" font-family="Helvetica,sans-Serif" font-size="10.00" fill="#000000">&lt; dim &gt;, dim &gt;</text>
</a>
</g>
</g>
<!-- Node1&#45;&gt;Node0 -->
<g id="edge1" class="edge">
<title>Node1&#45;&gt;Node0</title>
<path fill="none" stroke="#191970" d="M136.8926,-56.0322C136.8926,-46.8606 136.8926,-36.7449 136.8926,-28.7931"/>
<polygon fill="#191970" stroke="#191970" points="133.3927,-56.1789 136.8926,-66.179 140.3927,-56.179 133.3927,-56.1789"/>
</g>
<!-- Node2 -->
<g id="node3" class="node">
<title>Node2</title>
<g id="a_node3"><a xlink:href="classFiniteElement.html" target="_top" xlink:title="FiniteElement\&lt; dim,\l dim \&gt;">
<polygon fill="#ffffff" stroke="#000000" points="155.5688,-151.5 155.5688,-179.5 260.2163,-179.5 260.2163,-151.5 155.5688,-151.5"/>
<text text-anchor="start" x="163.5688" y="-167.5" font-family="Helvetica,sans-Serif" font-size="10.00" fill="#000000">FiniteElement&lt; dim,</text>
<text text-anchor="middle" x="207.8926" y="-157.5" font-family="Helvetica,sans-Serif" font-size="10.00" fill="#000000"> dim &gt;</text>
</a>
</g>
</g>
<!-- Node2&#45;&gt;Node1 -->
<g id="edge2" class="edge">
<title>Node2&#45;&gt;Node1</title>
<path fill="none" stroke="#191970" d="M206.5728,-141.1077C205.0301,-131.5746 201.945,-121.0279 195.8926,-113 190.1198,-105.343 181.9918,-99.2567 173.6097,-94.5206"/>
<polygon fill="#191970" stroke="#191970" points="203.1194,-141.7153 207.7352,-151.2518 210.0739,-140.9183 203.1194,-141.7153"/>
</g>
<!-- Node3 -->
<g id="node4" class="node">
<title>Node3</title>
<g id="a_node4"><a xlink:href="classSubscriptor.html" target="_top" xlink:title="Subscriptor">
<polygon fill="#ffffff" stroke="#000000" points="217.6045,-297.5 217.6045,-315.5 284.1807,-315.5 284.1807,-297.5 217.6045,-297.5"/>
<text text-anchor="middle" x="250.8926" y="-303.5" font-family="Helvetica,sans-Serif" font-size="10.00" fill="#000000">Subscriptor</text>
</a>
</g>
</g>
<!-- Node3&#45;&gt;Node2 -->
<g id="edge3" class="edge">
<title>Node3&#45;&gt;Node2</title>
<path fill="none" stroke="#191970" d="M245.1769,-287.6409C238.6113,-265.9933 227.5059,-229.4243 217.8926,-198 216.062,-192.0161 214.0329,-185.4156 212.2835,-179.735"/>
<polygon fill="#191970" stroke="#191970" points="241.9135,-288.9405 248.1644,-297.4948 248.6124,-286.9094 241.9135,-288.9405"/>
</g>
<!-- Node5 -->
<g id="node6" class="node">
<title>Node5</title>
<g id="a_node6"><a xlink:href="classFiniteElement.html" target="_top" xlink:title="FiniteElement\&lt; dim,\l spacedim \&gt;">
<polygon fill="#ffffff" stroke="#000000" points="71.5688,-226.5 71.5688,-254.5 176.2163,-254.5 176.2163,-226.5 71.5688,-226.5"/>
<text text-anchor="start" x="79.5688" y="-242.5" font-family="Helvetica,sans-Serif" font-size="10.00" fill="#000000">FiniteElement&lt; dim,</text>
<text text-anchor="middle" x="123.8926" y="-232.5" font-family="Helvetica,sans-Serif" font-size="10.00" fill="#000000"> spacedim &gt;</text>
</a>
</g>
</g>
<!-- Node3&#45;&gt;Node5 -->
<g id="edge6" class="edge">
<title>Node3&#45;&gt;Node5</title>
<path fill="none" stroke="#191970" d="M224.6178,-292.8454C203.1916,-281.7105 173.0247,-266.0332 151.2982,-254.7423"/>
<polygon fill="#191970" stroke="#191970" points="223.0128,-295.9557 233.5001,-297.4614 226.2407,-289.7443 223.0128,-295.9557"/>
</g>
<!-- Node4 -->
<g id="node5" class="node">
<title>Node4</title>
<g id="a_node5"><a xlink:href="classFiniteElementData.html" target="_top" xlink:title="FiniteElementData\&lt;\l dim \&gt;">
<polygon fill="#ffffff" stroke="#000000" points="82.8423,-292.5 82.8423,-320.5 186.9429,-320.5 186.9429,-292.5 82.8423,-292.5"/>
<text text-anchor="start" x="90.8423" y="-308.5" font-family="Helvetica,sans-Serif" font-size="10.00" fill="#000000">FiniteElementData&lt;</text>
<text text-anchor="middle" x="134.8926" y="-298.5" font-family="Helvetica,sans-Serif" font-size="10.00" fill="#000000"> dim &gt;</text>
</a>
</g>
</g>
<!-- Node4&#45;&gt;Node2 -->
<g id="edge4" class="edge">
<title>Node4&#45;&gt;Node2</title>
<path fill="none" stroke="#191970" d="M159.9592,-285.7188C168.988,-277.0634 178.5116,-266.3788 184.8926,-255 198.5463,-230.6521 204.2649,-198.0554 206.5275,-179.6712"/>
<polygon fill="#191970" stroke="#191970" points="157.5835,-283.1485 152.5712,-292.4827 162.3104,-288.3116 157.5835,-283.1485"/>
</g>
<!-- Node4&#45;&gt;Node5 -->
<g id="edge7" class="edge">
<title>Node4&#45;&gt;Node5</title>
<path fill="none" stroke="#191970" d="M130.8146,-282.0322C129.286,-272.8606 127.6001,-262.7449 126.2748,-254.7931"/>
<polygon fill="#191970" stroke="#191970" points="127.4093,-282.8905 132.5057,-292.179 134.3141,-281.7396 127.4093,-282.8905"/>
</g>
<!-- Node5&#45;&gt;Node2 -->
<g id="edge5" class="edge">
<title>Node5&#45;&gt;Node2</title>
<path fill="none" stroke="#ffa500" stroke-dasharray="5,2" d="M124.5289,-216.0729C125.7254,-209.649 127.9872,-203.0983 132.0947,-198 138.3828,-190.1953 146.8993,-184.2289 155.9554,-179.6789"/>
<polygon fill="#ffa500" stroke="#ffa500" points="120.998,-216.1627 123.3831,-226.4856 127.956,-216.9284 120.998,-216.1627"/>
<text text-anchor="middle" x="161.7915" y="-200" font-family="Helvetica,sans-Serif" font-size="10.00" fill="#000000"> &lt; dim, dim &gt;</text>
</g>
<!-- Node6 -->
<g id="node7" class="node">
<title>Node6</title>
<g id="a_node7"><a xlink:href="classFE__Poly.html" target="_top" xlink:title="FE_Poly\&lt; PolynomialType,\l dim, spacedim \&gt;">
<polygon fill="#ffffff" stroke="#000000" points="0,-151.5 0,-179.5 135.7852,-179.5 135.7852,-151.5 0,-151.5"/>
<text text-anchor="start" x="8" y="-167.5" font-family="Helvetica,sans-Serif" font-size="10.00" fill="#000000">FE_Poly&lt; PolynomialType,</text>
<text text-anchor="middle" x="67.8926" y="-157.5" font-family="Helvetica,sans-Serif" font-size="10.00" fill="#000000"> dim, spacedim &gt;</text>
</a>
</g>
</g>
<!-- Node5&#45;&gt;Node6 -->
<g id="edge9" class="edge">
<title>Node5&#45;&gt;Node6</title>
<path fill="none" stroke="#191970" d="M107.27,-218.2376C97.9077,-205.6988 86.5005,-190.4213 78.3785,-179.5437"/>
<polygon fill="#191970" stroke="#191970" points="104.572,-220.4743 113.3594,-226.3931 110.181,-216.2862 104.572,-220.4743"/>
</g>
<!-- Node6&#45;&gt;Node1 -->
<g id="edge8" class="edge">
<title>Node6&#45;&gt;Node1</title>
<path fill="none" stroke="#ffa500" stroke-dasharray="5,2" d="M61.5596,-141.3387C60.4323,-131.8402 60.9941,-121.2569 66.2832,-113 71.3057,-105.1593 78.7503,-99.1842 86.9465,-94.6386"/>
<polygon fill="#ffa500" stroke="#ffa500" points="58.1596,-142.2053 63.3881,-151.4201 65.0472,-140.956 58.1596,-142.2053"/>
<text text-anchor="start" x="66.8926" y="-125" font-family="Helvetica,sans-Serif" font-size="10.00" fill="#000000"> &lt; TensorProductPolynomials</text>
<text text-anchor="middle" x="131.6973" y="-115" font-family="Helvetica,sans-Serif" font-size="10.00" fill="#000000">&lt; dim &gt;, dim &gt;</text>
</g>
</g>
</svg>
