<?xml version="1.0" encoding="UTF-8" standalone="no"?>
<!DOCTYPE svg PUBLIC "-//W3C//DTD SVG 1.1//EN"
 "http://www.w3.org/Graphics/SVG/1.1/DTD/svg11.dtd">
<!-- Generated by graphviz version 2.40.1 (20161225.0304)
 -->
<!-- Title: MGCoarseGridSVD&lt; number, VectorType &gt; Pages: 1 -->
<svg width="157pt" height="157pt"
 viewBox="0.00 0.00 156.55 157.00" xmlns="http://www.w3.org/2000/svg" xmlns:xlink="http://www.w3.org/1999/xlink">
<g id="graph0" class="graph" transform="scale(1 1) rotate(0) translate(4 153)">
<title>MGCoarseGridSVD&lt; number, VectorType &gt;</title>
<polygon fill="#ffffff" stroke="transparent" points="-4,4 -4,-153 152.5537,-153 152.5537,4 -4,4"/>
<!-- Node0 -->
<g id="node1" class="node">
<title>Node0</title>
<polygon fill="#bfbfbf" stroke="#000000" points="0,-.5 0,-28.5 148.5537,-28.5 148.5537,-.5 0,-.5"/>
<text text-anchor="start" x="8" y="-16.5" font-family="Helvetica,sans-Serif" font-size="10.00" fill="#000000">MGCoarseGridSVD&lt; number,</text>
<text text-anchor="middle" x="74.2769" y="-6.5" font-family="Helvetica,sans-Serif" font-size="10.00" fill="#000000"> VectorType &gt;</text>
</g>
<!-- Node1 -->
<g id="node2" class="node">
<title>Node1</title>
<g id="a_node2"><a xlink:href="classMGCoarseGridBase.html" target="_top" xlink:title="MGCoarseGridBase\&lt; Vector\lType \&gt;">
<polygon fill="#ffffff" stroke="#000000" points="2.7759,-65.5 2.7759,-93.5 145.7778,-93.5 145.7778,-65.5 2.7759,-65.5"/>
<text text-anchor="start" x="10.7759" y="-81.5" font-family="Helvetica,sans-Serif" font-size="10.00" fill="#000000">MGCoarseGridBase&lt; Vector</text>
<text text-anchor="middle" x="74.2769" y="-71.5" font-family="Helvetica,sans-Serif" font-size="10.00" fill="#000000">Type &gt;</text>
</a>
</g>
</g>
<!-- Node1&#45;&gt;Node0 -->
<g id="edge1" class="edge">
<title>Node1&#45;&gt;Node0</title>
<path fill="none" stroke="#191970" d="M74.2769,-55.1081C74.2769,-46.1539 74.2769,-36.3227 74.2769,-28.5765"/>
<polygon fill="#191970" stroke="#191970" points="70.777,-55.3959 74.2769,-65.396 77.777,-55.396 70.777,-55.3959"/>
</g>
<!-- Node2 -->
<g id="node3" class="node">
<title>Node2</title>
<g id="a_node3"><a xlink:href="classSubscriptor.html" target="_top" xlink:title="Subscriptor">
<polygon fill="#ffffff" stroke="#000000" points="40.9888,-130.5 40.9888,-148.5 107.5649,-148.5 107.5649,-130.5 40.9888,-130.5"/>
<text text-anchor="middle" x="74.2769" y="-136.5" font-family="Helvetica,sans-Serif" font-size="10.00" fill="#000000">Subscriptor</text>
</a>
</g>
</g>
<!-- Node2&#45;&gt;Node1 -->
<g id="edge2" class="edge">
<title>Node2&#45;&gt;Node1</title>
<path fill="none" stroke="#191970" d="M74.2769,-120.1865C74.2769,-111.6283 74.2769,-101.7354 74.2769,-93.8477"/>
<polygon fill="#191970" stroke="#191970" points="70.777,-120.3873 74.2769,-130.3873 77.777,-120.3873 70.777,-120.3873"/>
</g>
</g>
</svg>
