<?xml version="1.0" encoding="UTF-8" standalone="no"?>
<!DOCTYPE svg PUBLIC "-//W3C//DTD SVG 1.1//EN"
 "http://www.w3.org/Graphics/SVG/1.1/DTD/svg11.dtd">
<!-- Generated by graphviz version 2.40.1 (20161225.0304)
 -->
<!-- Title: CompositionManifold&lt; dim, spacedim, chartdim, intermediate_dim, dim1, dim2 &gt; Pages: 1 -->
<svg width="144pt" height="232pt"
 viewBox="0.00 0.00 143.77 232.00" xmlns="http://www.w3.org/2000/svg" xmlns:xlink="http://www.w3.org/1999/xlink">
<g id="graph0" class="graph" transform="scale(1 1) rotate(0) translate(4 228)">
<title>CompositionManifold&lt; dim, spacedim, chartdim, intermediate_dim, dim1, dim2 &gt;</title>
<polygon fill="#ffffff" stroke="transparent" points="-4,4 -4,-228 139.7656,-228 139.7656,4 -4,4"/>
<!-- Node0 -->
<g id="node1" class="node">
<title>Node0</title>
<polygon fill="#bfbfbf" stroke="#000000" points="0,-.5 0,-48.5 135.7656,-48.5 135.7656,-.5 0,-.5"/>
<text text-anchor="start" x="8" y="-36.5" font-family="Helvetica,sans-Serif" font-size="10.00" fill="#000000">CompositionManifold</text>
<text text-anchor="start" x="8" y="-26.5" font-family="Helvetica,sans-Serif" font-size="10.00" fill="#000000">&lt; dim, spacedim, chartdim,</text>
<text text-anchor="start" x="8" y="-16.5" font-family="Helvetica,sans-Serif" font-size="10.00" fill="#000000"> intermediate_dim, dim1,</text>
<text text-anchor="middle" x="67.8828" y="-6.5" font-family="Helvetica,sans-Serif" font-size="10.00" fill="#000000"> dim2 &gt;</text>
</g>
<!-- Node1 -->
<g id="node2" class="node">
<title>Node1</title>
<g id="a_node2"><a xlink:href="classChartManifold.html" target="_top" xlink:title="ChartManifold\&lt; dim,\l spacedim, chartdim \&gt;">
<polygon fill="#ffffff" stroke="#000000" points="10.835,-85.5 10.835,-113.5 124.9307,-113.5 124.9307,-85.5 10.835,-85.5"/>
<text text-anchor="start" x="18.835" y="-101.5" font-family="Helvetica,sans-Serif" font-size="10.00" fill="#000000">ChartManifold&lt; dim,</text>
<text text-anchor="middle" x="67.8828" y="-91.5" font-family="Helvetica,sans-Serif" font-size="10.00" fill="#000000"> spacedim, chartdim &gt;</text>
</a>
</g>
</g>
<!-- Node1&#45;&gt;Node0 -->
<g id="edge1" class="edge">
<title>Node1&#45;&gt;Node0</title>
<path fill="none" stroke="#191970" d="M67.8828,-75.2848C67.8828,-66.7309 67.8828,-57.1178 67.8828,-48.5755"/>
<polygon fill="#191970" stroke="#191970" points="64.3829,-75.393 67.8828,-85.3931 71.3829,-75.3931 64.3829,-75.393"/>
</g>
<!-- Node2 -->
<g id="node3" class="node">
<title>Node2</title>
<g id="a_node3"><a xlink:href="classManifold.html" target="_top" xlink:title="Manifold\&lt; dim, spacedim \&gt;">
<polygon fill="#ffffff" stroke="#000000" points=".1318,-150.5 .1318,-168.5 135.6338,-168.5 135.6338,-150.5 .1318,-150.5"/>
<text text-anchor="middle" x="67.8828" y="-156.5" font-family="Helvetica,sans-Serif" font-size="10.00" fill="#000000">Manifold&lt; dim, spacedim &gt;</text>
</a>
</g>
</g>
<!-- Node2&#45;&gt;Node1 -->
<g id="edge2" class="edge">
<title>Node2&#45;&gt;Node1</title>
<path fill="none" stroke="#191970" d="M67.8828,-140.1865C67.8828,-131.6283 67.8828,-121.7354 67.8828,-113.8477"/>
<polygon fill="#191970" stroke="#191970" points="64.3829,-140.3873 67.8828,-150.3873 71.3829,-140.3873 64.3829,-140.3873"/>
</g>
<!-- Node3 -->
<g id="node4" class="node">
<title>Node3</title>
<g id="a_node4"><a xlink:href="classSubscriptor.html" target="_top" xlink:title="Subscriptor">
<polygon fill="#ffffff" stroke="#000000" points="34.5947,-205.5 34.5947,-223.5 101.1709,-223.5 101.1709,-205.5 34.5947,-205.5"/>
<text text-anchor="middle" x="67.8828" y="-211.5" font-family="Helvetica,sans-Serif" font-size="10.00" fill="#000000">Subscriptor</text>
</a>
</g>
</g>
<!-- Node3&#45;&gt;Node2 -->
<g id="edge3" class="edge">
<title>Node3&#45;&gt;Node2</title>
<path fill="none" stroke="#191970" d="M67.8828,-195.383C67.8828,-186.3738 67.8828,-176.0373 67.8828,-168.7795"/>
<polygon fill="#191970" stroke="#191970" points="64.3829,-195.4178 67.8828,-205.4179 71.3829,-195.4179 64.3829,-195.4178"/>
</g>
</g>
</svg>
