<?xml version="1.0" encoding="UTF-8" standalone="no"?>
<!DOCTYPE svg PUBLIC "-//W3C//DTD SVG 1.1//EN"
 "http://www.w3.org/Graphics/SVG/1.1/DTD/svg11.dtd">
<!-- Generated by graphviz version 2.40.1 (20161225.0304)
 -->
<!-- Title: internal::hp::DoFIndicesOnFacesOrEdges&lt; structdim &gt; Pages: 1 -->
<svg width="345pt" height="84pt"
 viewBox="0.00 0.00 345.02 84.00" xmlns="http://www.w3.org/2000/svg" xmlns:xlink="http://www.w3.org/1999/xlink">
<g id="graph0" class="graph" transform="scale(1 1) rotate(0) translate(4 80)">
<title>internal::hp::DoFIndicesOnFacesOrEdges&lt; structdim &gt;</title>
<polygon fill="#ffffff" stroke="transparent" points="-4,4 -4,-80 341.0186,-80 341.0186,4 -4,4"/>
<!-- Node0 -->
<g id="node1" class="node">
<title>Node0</title>
<polygon fill="#bfbfbf" stroke="#000000" points="0,-23.5 0,-51.5 153.832,-51.5 153.832,-23.5 0,-23.5"/>
<text text-anchor="start" x="8" y="-39.5" font-family="Helvetica,sans-Serif" font-size="10.00" fill="#000000">internal::hp::DoFIndices</text>
<text text-anchor="middle" x="76.916" y="-29.5" font-family="Helvetica,sans-Serif" font-size="10.00" fill="#000000">OnFacesOrEdges&lt; structdim &gt;</text>
</g>
<!-- Node1 -->
<g id="node2" class="node">
<title>Node1</title>
<g id="a_node2"><a xlink:href="classinternal_1_1hp_1_1DoFIndicesOnFacesOrEdges.html" target="_top" xlink:title="internal::hp::DoFIndices\lOnFacesOrEdges\&lt; 1 \&gt;">
<polygon fill="#ffffff" stroke="#000000" points="215.4082,-47.5 215.4082,-75.5 337.0186,-75.5 337.0186,-47.5 215.4082,-47.5"/>
<text text-anchor="start" x="223.4082" y="-63.5" font-family="Helvetica,sans-Serif" font-size="10.00" fill="#000000">internal::hp::DoFIndices</text>
<text text-anchor="middle" x="276.2134" y="-53.5" font-family="Helvetica,sans-Serif" font-size="10.00" fill="#000000">OnFacesOrEdges&lt; 1 &gt;</text>
</a>
</g>
</g>
<!-- Node0&#45;&gt;Node1 -->
<g id="edge1" class="edge">
<title>Node0&#45;&gt;Node1</title>
<path fill="none" stroke="#ffa500" stroke-dasharray="5,2" d="M164.0337,-47.991C181.2532,-50.0646 198.98,-52.1993 215.1131,-54.1421"/>
<polygon fill="#ffa500" stroke="#ffa500" points="164.3163,-44.4998 153.9696,-46.779 163.4794,-51.4496 164.3163,-44.4998"/>
<text text-anchor="middle" x="184.6201" y="-53.5" font-family="Helvetica,sans-Serif" font-size="10.00" fill="#000000"> &lt; 1 &gt;</text>
</g>
<!-- Node2 -->
<g id="node3" class="node">
<title>Node2</title>
<g id="a_node3"><a xlink:href="classinternal_1_1hp_1_1DoFIndicesOnFacesOrEdges.html" target="_top" xlink:title="internal::hp::DoFIndices\lOnFacesOrEdges\&lt; 2 \&gt;">
<polygon fill="#ffffff" stroke="#000000" points="215.4082,-.5 215.4082,-28.5 337.0186,-28.5 337.0186,-.5 215.4082,-.5"/>
<text text-anchor="start" x="223.4082" y="-16.5" font-family="Helvetica,sans-Serif" font-size="10.00" fill="#000000">internal::hp::DoFIndices</text>
<text text-anchor="middle" x="276.2134" y="-6.5" font-family="Helvetica,sans-Serif" font-size="10.00" fill="#000000">OnFacesOrEdges&lt; 2 &gt;</text>
</a>
</g>
</g>
<!-- Node0&#45;&gt;Node2 -->
<g id="edge2" class="edge">
<title>Node0&#45;&gt;Node2</title>
<path fill="none" stroke="#ffa500" stroke-dasharray="5,2" d="M164.0337,-27.4461C181.2532,-25.4589 198.98,-23.4132 215.1131,-21.5513"/>
<polygon fill="#ffa500" stroke="#ffa500" points="163.5024,-23.9841 153.9696,-28.6076 164.3049,-30.938 163.5024,-23.9841"/>
<text text-anchor="middle" x="184.6201" y="-27.5" font-family="Helvetica,sans-Serif" font-size="10.00" fill="#000000"> &lt; 2 &gt;</text>
</g>
</g>
</svg>
