<?xml version="1.0" encoding="UTF-8" standalone="no"?>
<!DOCTYPE svg PUBLIC "-//W3C//DTD SVG 1.1//EN"
 "http://www.w3.org/Graphics/SVG/1.1/DTD/svg11.dtd">
<!-- Generated by graphviz version 2.40.1 (20161225.0304)
 -->
<!-- Title: FE_Q_Base&lt; PolynomialType, dim, spacedim &gt; Pages: 1 -->
<svg width="1478pt" height="286pt"
 viewBox="0.00 0.00 1477.88 286.00" xmlns="http://www.w3.org/2000/svg" xmlns:xlink="http://www.w3.org/1999/xlink">
<g id="graph0" class="graph" transform="scale(1 1) rotate(0) translate(4 282)">
<title>FE_Q_Base&lt; PolynomialType, dim, spacedim &gt;</title>
<polygon fill="#ffffff" stroke="transparent" points="-4,4 -4,-282 1473.876,-282 1473.876,4 -4,4"/>
<!-- Node0 -->
<g id="node1" class="node">
<title>Node0</title>
<polygon fill="#bfbfbf" stroke="#000000" points="455.5332,-129.5 455.5332,-157.5 607.998,-157.5 607.998,-129.5 455.5332,-129.5"/>
<text text-anchor="start" x="463.5332" y="-145.5" font-family="Helvetica,sans-Serif" font-size="10.00" fill="#000000">FE_Q_Base&lt; PolynomialType,</text>
<text text-anchor="middle" x="531.7656" y="-135.5" font-family="Helvetica,sans-Serif" font-size="10.00" fill="#000000"> dim, spacedim &gt;</text>
</g>
<!-- Node5 -->
<g id="node6" class="node">
<title>Node5</title>
<g id="a_node6"><a xlink:href="classFE__Q__Base.html" target="_top" xlink:title="FE_Q_Base\&lt; TensorProduct\lPolynomials\&lt; dim \&gt;, dim,\l dim \&gt;">
<polygon fill="#ffffff" stroke="#000000" points="999.8193,-239.5 999.8193,-277.5 1143.2119,-277.5 1143.2119,-239.5 999.8193,-239.5"/>
<text text-anchor="start" x="1007.8193" y="-265.5" font-family="Helvetica,sans-Serif" font-size="10.00" fill="#000000">FE_Q_Base&lt; TensorProduct</text>
<text text-anchor="start" x="1007.8193" y="-255.5" font-family="Helvetica,sans-Serif" font-size="10.00" fill="#000000">Polynomials&lt; dim &gt;, dim,</text>
<text text-anchor="middle" x="1071.5156" y="-245.5" font-family="Helvetica,sans-Serif" font-size="10.00" fill="#000000"> dim &gt;</text>
</a>
</g>
</g>
<!-- Node0&#45;&gt;Node5 -->
<g id="edge5" class="edge">
<title>Node0&#45;&gt;Node5</title>
<path fill="none" stroke="#ffa500" stroke-dasharray="5,2" d="M552.6817,-165.0835C570.4674,-181.9474 597.5815,-204.3364 625.998,-215.5 750.5783,-264.4419 909.2093,-266.9899 999.6678,-263.419"/>
<polygon fill="#ffa500" stroke="#ffa500" points="554.7985,-162.2591 545.1951,-157.7841 549.9118,-167.2712 554.7985,-162.2591"/>
<text text-anchor="start" x="653.0366" y="-268.5" font-family="Helvetica,sans-Serif" font-size="10.00" fill="#000000"> &lt; TensorProductPolynomials</text>
<text text-anchor="middle" x="717.8413" y="-258.5" font-family="Helvetica,sans-Serif" font-size="10.00" fill="#000000">&lt; dim &gt;, dim, dim &gt;</text>
</g>
<!-- Node7 -->
<g id="node8" class="node">
<title>Node7</title>
<g id="a_node8"><a xlink:href="classFE__Q__Base.html" target="_top" xlink:title="FE_Q_Base\&lt; TensorProduct\lPolynomials\&lt; dim \&gt;, dim,\l spacedim \&gt;">
<polygon fill="#ffffff" stroke="#000000" points="833.0557,-181.5 833.0557,-219.5 976.4482,-219.5 976.4482,-181.5 833.0557,-181.5"/>
<text text-anchor="start" x="841.0557" y="-207.5" font-family="Helvetica,sans-Serif" font-size="10.00" fill="#000000">FE_Q_Base&lt; TensorProduct</text>
<text text-anchor="start" x="841.0557" y="-197.5" font-family="Helvetica,sans-Serif" font-size="10.00" fill="#000000">Polynomials&lt; dim &gt;, dim,</text>
<text text-anchor="middle" x="904.752" y="-187.5" font-family="Helvetica,sans-Serif" font-size="10.00" fill="#000000"> spacedim &gt;</text>
</a>
</g>
</g>
<!-- Node0&#45;&gt;Node7 -->
<g id="edge7" class="edge">
<title>Node0&#45;&gt;Node7</title>
<path fill="none" stroke="#ffa500" stroke-dasharray="5,2" d="M591.6821,-160.0161C603.0214,-162.784 614.8292,-165.4259 625.998,-167.5 695.8321,-180.4684 776.5043,-189.3668 833.0373,-194.6259"/>
<polygon fill="#ffa500" stroke="#ffa500" points="592.416,-156.592 581.8657,-157.5624 590.7184,-163.383 592.416,-156.592"/>
<text text-anchor="start" x="653.0366" y="-203.5" font-family="Helvetica,sans-Serif" font-size="10.00" fill="#000000"> &lt; TensorProductPolynomials</text>
<text text-anchor="middle" x="717.8413" y="-193.5" font-family="Helvetica,sans-Serif" font-size="10.00" fill="#000000">&lt; dim &gt;, dim, spacedim &gt;</text>
</g>
<!-- Node10 -->
<g id="node11" class="node">
<title>Node10</title>
<g id="a_node11"><a xlink:href="classFE__Q__Base.html" target="_top" xlink:title="FE_Q_Base\&lt; TensorProduct\lPolynomialsBubbles\&lt; dim\l \&gt;, dim, spacedim \&gt;">
<polygon fill="#ffffff" stroke="#000000" points="833.0557,-124.5 833.0557,-162.5 976.4482,-162.5 976.4482,-124.5 833.0557,-124.5"/>
<text text-anchor="start" x="841.0557" y="-150.5" font-family="Helvetica,sans-Serif" font-size="10.00" fill="#000000">FE_Q_Base&lt; TensorProduct</text>
<text text-anchor="start" x="841.0557" y="-140.5" font-family="Helvetica,sans-Serif" font-size="10.00" fill="#000000">PolynomialsBubbles&lt; dim</text>
<text text-anchor="middle" x="904.752" y="-130.5" font-family="Helvetica,sans-Serif" font-size="10.00" fill="#000000"> &gt;, dim, spacedim &gt;</text>
</a>
</g>
</g>
<!-- Node0&#45;&gt;Node10 -->
<g id="edge11" class="edge">
<title>Node0&#45;&gt;Node10</title>
<path fill="none" stroke="#ffa500" stroke-dasharray="5,2" d="M618.3911,-143.5C683.5122,-143.5 771.6765,-143.5 832.9037,-143.5"/>
<polygon fill="#ffa500" stroke="#ffa500" points="618.1451,-140.0001 608.145,-143.5 618.145,-147.0001 618.1451,-140.0001"/>
<text text-anchor="start" x="643.7764" y="-155.5" font-family="Helvetica,sans-Serif" font-size="10.00" fill="#000000"> &lt; TensorProductPolynomials</text>
<text text-anchor="middle" x="717.8413" y="-145.5" font-family="Helvetica,sans-Serif" font-size="10.00" fill="#000000">Bubbles&lt; dim &gt;, dim, spacedim &gt;</text>
</g>
<!-- Node12 -->
<g id="node13" class="node">
<title>Node12</title>
<g id="a_node13"><a xlink:href="classFE__Q__Base.html" target="_top" xlink:title="FE_Q_Base\&lt; TensorProduct\lPolynomialsConst\&lt; dim\l \&gt;, dim, spacedim \&gt;">
<polygon fill="#ffffff" stroke="#000000" points="833.0557,-67.5 833.0557,-105.5 976.4482,-105.5 976.4482,-67.5 833.0557,-67.5"/>
<text text-anchor="start" x="841.0557" y="-93.5" font-family="Helvetica,sans-Serif" font-size="10.00" fill="#000000">FE_Q_Base&lt; TensorProduct</text>
<text text-anchor="start" x="841.0557" y="-83.5" font-family="Helvetica,sans-Serif" font-size="10.00" fill="#000000">PolynomialsConst&lt; dim</text>
<text text-anchor="middle" x="904.752" y="-73.5" font-family="Helvetica,sans-Serif" font-size="10.00" fill="#000000"> &gt;, dim, spacedim &gt;</text>
</a>
</g>
</g>
<!-- Node0&#45;&gt;Node12 -->
<g id="edge13" class="edge">
<title>Node0&#45;&gt;Node12</title>
<path fill="none" stroke="#ffa500" stroke-dasharray="5,2" d="M591.6821,-126.9839C603.0214,-124.216 614.8292,-121.5741 625.998,-119.5 695.8321,-106.5316 776.5043,-97.6332 833.0373,-92.3741"/>
<polygon fill="#ffa500" stroke="#ffa500" points="590.7184,-123.617 581.8657,-129.4376 592.416,-130.408 590.7184,-123.617"/>
<text text-anchor="start" x="648.7837" y="-131.5" font-family="Helvetica,sans-Serif" font-size="10.00" fill="#000000"> &lt; TensorProductPolynomials</text>
<text text-anchor="middle" x="717.8413" y="-121.5" font-family="Helvetica,sans-Serif" font-size="10.00" fill="#000000">Const&lt; dim &gt;, dim, spacedim &gt;</text>
</g>
<!-- Node14 -->
<g id="node15" class="node">
<title>Node14</title>
<g id="a_node15"><a xlink:href="classFE__Q__Base.html" target="_top" xlink:title="FE_Q_Base\&lt; TensorProduct\lPolynomials\&lt; dim, Polynomials\l::PiecewisePolynomial\&lt; double\l \&gt; \&gt;, dim, spacedim \&gt;">
<polygon fill="#ffffff" stroke="#000000" points="827.6846,-.5 827.6846,-48.5 981.8193,-48.5 981.8193,-.5 827.6846,-.5"/>
<text text-anchor="start" x="835.6846" y="-36.5" font-family="Helvetica,sans-Serif" font-size="10.00" fill="#000000">FE_Q_Base&lt; TensorProduct</text>
<text text-anchor="start" x="835.6846" y="-26.5" font-family="Helvetica,sans-Serif" font-size="10.00" fill="#000000">Polynomials&lt; dim, Polynomials</text>
<text text-anchor="start" x="835.6846" y="-16.5" font-family="Helvetica,sans-Serif" font-size="10.00" fill="#000000">::PiecewisePolynomial&lt; double</text>
<text text-anchor="middle" x="904.752" y="-6.5" font-family="Helvetica,sans-Serif" font-size="10.00" fill="#000000"> &gt; &gt;, dim, spacedim &gt;</text>
</a>
</g>
</g>
<!-- Node0&#45;&gt;Node14 -->
<g id="edge15" class="edge">
<title>Node0&#45;&gt;Node14</title>
<path fill="none" stroke="#ffa500" stroke-dasharray="5,2" d="M549.9306,-121.6918C567.3237,-102.4297 595.3854,-75.319 625.998,-61.5 689.8494,-32.6765 769.7054,-24.541 827.5605,-22.957"/>
<polygon fill="#ffa500" stroke="#ffa500" points="547.1248,-119.5826 543.1533,-129.4049 552.3833,-124.2031 547.1248,-119.5826"/>
<text text-anchor="start" x="625.998" y="-83.5" font-family="Helvetica,sans-Serif" font-size="10.00" fill="#000000"> &lt; TensorProductPolynomials</text>
<text text-anchor="start" x="625.998" y="-73.5" font-family="Helvetica,sans-Serif" font-size="10.00" fill="#000000">&lt; dim, Polynomials::PiecewisePolynomial</text>
<text text-anchor="middle" x="717.8413" y="-63.5" font-family="Helvetica,sans-Serif" font-size="10.00" fill="#000000">&lt; double &gt; &gt;, dim, spacedim &gt;</text>
</g>
<!-- Node1 -->
<g id="node2" class="node">
<title>Node1</title>
<g id="a_node2"><a xlink:href="classFE__Poly.html" target="_top" xlink:title="FE_Poly\&lt; PolynomialType,\l dim, spacedim \&gt;">
<polygon fill="#ffffff" stroke="#000000" points="282.748,-129.5 282.748,-157.5 418.5332,-157.5 418.5332,-129.5 282.748,-129.5"/>
<text text-anchor="start" x="290.748" y="-145.5" font-family="Helvetica,sans-Serif" font-size="10.00" fill="#000000">FE_Poly&lt; PolynomialType,</text>
<text text-anchor="middle" x="350.6406" y="-135.5" font-family="Helvetica,sans-Serif" font-size="10.00" fill="#000000"> dim, spacedim &gt;</text>
</a>
</g>
</g>
<!-- Node1&#45;&gt;Node0 -->
<g id="edge1" class="edge">
<title>Node1&#45;&gt;Node0</title>
<path fill="none" stroke="#191970" d="M428.8783,-143.5C437.7138,-143.5 446.7087,-143.5 455.5183,-143.5"/>
<polygon fill="#191970" stroke="#191970" points="428.6002,-140.0001 418.6002,-143.5 428.6002,-147.0001 428.6002,-140.0001"/>
</g>
<!-- Node2 -->
<g id="node3" class="node">
<title>Node2</title>
<g id="a_node3"><a xlink:href="classFiniteElement.html" target="_top" xlink:title="FiniteElement\&lt; dim,\l spacedim \&gt;">
<polygon fill="#ffffff" stroke="#000000" points="141.1006,-129.5 141.1006,-157.5 245.748,-157.5 245.748,-129.5 141.1006,-129.5"/>
<text text-anchor="start" x="149.1006" y="-145.5" font-family="Helvetica,sans-Serif" font-size="10.00" fill="#000000">FiniteElement&lt; dim,</text>
<text text-anchor="middle" x="193.4243" y="-135.5" font-family="Helvetica,sans-Serif" font-size="10.00" fill="#000000"> spacedim &gt;</text>
</a>
</g>
</g>
<!-- Node2&#45;&gt;Node1 -->
<g id="edge2" class="edge">
<title>Node2&#45;&gt;Node1</title>
<path fill="none" stroke="#191970" d="M255.9073,-143.5C264.6713,-143.5 273.7148,-143.5 282.5762,-143.5"/>
<polygon fill="#191970" stroke="#191970" points="255.7751,-140.0001 245.7751,-143.5 255.775,-147.0001 255.7751,-140.0001"/>
</g>
<!-- Node3 -->
<g id="node4" class="node">
<title>Node3</title>
<g id="a_node4"><a xlink:href="classSubscriptor.html" target="_top" xlink:title="Subscriptor">
<polygon fill="#ffffff" stroke="#000000" points="18.7622,-155.5 18.7622,-173.5 85.3384,-173.5 85.3384,-155.5 18.7622,-155.5"/>
<text text-anchor="middle" x="52.0503" y="-161.5" font-family="Helvetica,sans-Serif" font-size="10.00" fill="#000000">Subscriptor</text>
</a>
</g>
</g>
<!-- Node3&#45;&gt;Node2 -->
<g id="edge3" class="edge">
<title>Node3&#45;&gt;Node2</title>
<path fill="none" stroke="#191970" d="M95.6606,-158.022C110.0246,-155.8884 126.1458,-153.4937 141.091,-151.2737"/>
<polygon fill="#191970" stroke="#191970" points="94.9311,-154.5919 85.554,-159.5233 95.9597,-161.5159 94.9311,-154.5919"/>
</g>
<!-- Node4 -->
<g id="node5" class="node">
<title>Node4</title>
<g id="a_node5"><a xlink:href="classFiniteElementData.html" target="_top" xlink:title="FiniteElementData\&lt;\l dim \&gt;">
<polygon fill="#ffffff" stroke="#000000" points="0,-108.5 0,-136.5 104.1006,-136.5 104.1006,-108.5 0,-108.5"/>
<text text-anchor="start" x="8" y="-124.5" font-family="Helvetica,sans-Serif" font-size="10.00" fill="#000000">FiniteElementData&lt;</text>
<text text-anchor="middle" x="52.0503" y="-114.5" font-family="Helvetica,sans-Serif" font-size="10.00" fill="#000000"> dim &gt;</text>
</a>
</g>
</g>
<!-- Node4&#45;&gt;Node2 -->
<g id="edge4" class="edge">
<title>Node4&#45;&gt;Node2</title>
<path fill="none" stroke="#191970" d="M114.2377,-131.7374C123.1434,-133.0603 132.2318,-134.4103 140.9263,-135.7018"/>
<polygon fill="#191970" stroke="#191970" points="114.6968,-128.2673 104.2911,-130.26 113.6683,-135.1914 114.6968,-128.2673"/>
</g>
<!-- Node6 -->
<g id="node7" class="node">
<title>Node6</title>
<g id="a_node7"><a xlink:href="classFE__Q.html" target="_top" xlink:title="FE_Q\&lt; dim \&gt;">
<polygon fill="#ffffff" stroke="#000000" points="1394.4082,-214.5 1394.4082,-232.5 1469.876,-232.5 1469.876,-214.5 1394.4082,-214.5"/>
<text text-anchor="middle" x="1432.1421" y="-220.5" font-family="Helvetica,sans-Serif" font-size="10.00" fill="#000000">FE_Q&lt; dim &gt;</text>
</a>
</g>
</g>
<!-- Node5&#45;&gt;Node6 -->
<g id="edge6" class="edge">
<title>Node5&#45;&gt;Node6</title>
<path fill="none" stroke="#191970" d="M1153.6605,-258.4341C1202.771,-257.5162 1266.3042,-254.7873 1322.2803,-247.5 1347.835,-244.1731 1376.2453,-237.8962 1397.7721,-232.596"/>
<polygon fill="#191970" stroke="#191970" points="1153.3485,-254.9387 1143.4077,-258.6034 1153.4642,-261.9377 1153.3485,-254.9387"/>
</g>
<!-- Node8 -->
<g id="node9" class="node">
<title>Node8</title>
<g id="a_node9"><a xlink:href="classFE__Bernstein.html" target="_top" xlink:title="FE_Bernstein\&lt; dim,\l spacedim \&gt;">
<polygon fill="#ffffff" stroke="#000000" points="1189.6982,-209.5 1189.6982,-237.5 1293.7939,-237.5 1293.7939,-209.5 1189.6982,-209.5"/>
<text text-anchor="start" x="1197.6982" y="-225.5" font-family="Helvetica,sans-Serif" font-size="10.00" fill="#000000">FE_Bernstein&lt; dim,</text>
<text text-anchor="middle" x="1241.7461" y="-215.5" font-family="Helvetica,sans-Serif" font-size="10.00" fill="#000000"> spacedim &gt;</text>
</a>
</g>
</g>
<!-- Node7&#45;&gt;Node8 -->
<g id="edge8" class="edge">
<title>Node7&#45;&gt;Node8</title>
<path fill="none" stroke="#191970" d="M986.9637,-206.111C1050.1125,-210.4209 1135.4065,-216.2423 1189.5049,-219.9345"/>
<polygon fill="#191970" stroke="#191970" points="986.8475,-202.595 976.6323,-205.4059 986.3707,-209.5788 986.8475,-202.595"/>
</g>
<!-- Node9 -->
<g id="node10" class="node">
<title>Node9</title>
<g id="a_node10"><a xlink:href="classFE__Q.html" target="_top" xlink:title="FE_Q\&lt; dim, spacedim \&gt;">
<polygon fill="#ffffff" stroke="#000000" points="1179.835,-172.5 1179.835,-190.5 1303.6572,-190.5 1303.6572,-172.5 1179.835,-172.5"/>
<text text-anchor="middle" x="1241.7461" y="-178.5" font-family="Helvetica,sans-Serif" font-size="10.00" fill="#000000">FE_Q&lt; dim, spacedim &gt;</text>
</a>
</g>
</g>
<!-- Node7&#45;&gt;Node9 -->
<g id="edge9" class="edge">
<title>Node7&#45;&gt;Node9</title>
<path fill="none" stroke="#191970" d="M986.7422,-195.8773C1046.1844,-192.5259 1125.336,-188.0633 1179.5987,-185.0039"/>
<polygon fill="#191970" stroke="#191970" points="986.4194,-192.3899 976.6323,-196.4473 986.8135,-199.3788 986.4194,-192.3899"/>
</g>
<!-- Node9&#45;&gt;Node6 -->
<g id="edge10" class="edge">
<title>Node9&#45;&gt;Node6</title>
<path fill="none" stroke="#ffa500" stroke-dasharray="5,2" d="M1292.6424,-192.7274C1324.6076,-199.7786 1365.1491,-208.7218 1394.2779,-215.1474"/>
<polygon fill="#ffa500" stroke="#ffa500" points="1293.11,-189.2464 1282.5908,-190.5101 1291.6021,-196.0821 1293.11,-189.2464"/>
<text text-anchor="middle" x="1358.3442" y="-212.5" font-family="Helvetica,sans-Serif" font-size="10.00" fill="#000000"> &lt; dim &gt;</text>
</g>
<!-- Node11 -->
<g id="node12" class="node">
<title>Node11</title>
<g id="a_node12"><a xlink:href="classFE__Q__Bubbles.html" target="_top" xlink:title="FE_Q_Bubbles\&lt; dim,\l spacedim \&gt;">
<polygon fill="#ffffff" stroke="#000000" points="1186.0825,-125.5 1186.0825,-153.5 1297.4097,-153.5 1297.4097,-125.5 1186.0825,-125.5"/>
<text text-anchor="start" x="1194.0825" y="-141.5" font-family="Helvetica,sans-Serif" font-size="10.00" fill="#000000">FE_Q_Bubbles&lt; dim,</text>
<text text-anchor="middle" x="1241.7461" y="-131.5" font-family="Helvetica,sans-Serif" font-size="10.00" fill="#000000"> spacedim &gt;</text>
</a>
</g>
</g>
<!-- Node10&#45;&gt;Node11 -->
<g id="edge12" class="edge">
<title>Node10&#45;&gt;Node11</title>
<path fill="none" stroke="#191970" d="M986.7404,-142.5268C1048.5005,-141.7938 1131.5379,-140.8081 1185.8299,-140.1637"/>
<polygon fill="#191970" stroke="#191970" points="986.59,-139.0283 976.6323,-142.6468 986.6732,-146.0278 986.59,-139.0283"/>
</g>
<!-- Node13 -->
<g id="node14" class="node">
<title>Node13</title>
<g id="a_node14"><a xlink:href="classFE__Q__DG0.html" target="_top" xlink:title="FE_Q_DG0\&lt; dim, spacedim \&gt;">
<polygon fill="#ffffff" stroke="#000000" points="1166.7734,-77.5 1166.7734,-95.5 1316.7188,-95.5 1316.7188,-77.5 1166.7734,-77.5"/>
<text text-anchor="middle" x="1241.7461" y="-83.5" font-family="Helvetica,sans-Serif" font-size="10.00" fill="#000000">FE_Q_DG0&lt; dim, spacedim &gt;</text>
</a>
</g>
</g>
<!-- Node12&#45;&gt;Node13 -->
<g id="edge14" class="edge">
<title>Node12&#45;&gt;Node13</title>
<path fill="none" stroke="#191970" d="M986.682,-86.5C1041.5973,-86.5 1113.3547,-86.5 1166.7653,-86.5"/>
<polygon fill="#191970" stroke="#191970" points="986.6323,-83.0001 976.6323,-86.5 986.6323,-90.0001 986.6323,-83.0001"/>
</g>
<!-- Node15 -->
<g id="node16" class="node">
<title>Node15</title>
<g id="a_node16"><a xlink:href="classFE__Q__iso__Q1.html" target="_top" xlink:title="FE_Q_iso_Q1\&lt; dim, spacedim \&gt;">
<polygon fill="#ffffff" stroke="#000000" points="1161.2119,-15.5 1161.2119,-33.5 1322.2803,-33.5 1322.2803,-15.5 1161.2119,-15.5"/>
<text text-anchor="middle" x="1241.7461" y="-21.5" font-family="Helvetica,sans-Serif" font-size="10.00" fill="#000000">FE_Q_iso_Q1&lt; dim, spacedim &gt;</text>
</a>
</g>
</g>
<!-- Node14&#45;&gt;Node15 -->
<g id="edge16" class="edge">
<title>Node14&#45;&gt;Node15</title>
<path fill="none" stroke="#191970" d="M992.3006,-24.5C1044.4234,-24.5 1110.1016,-24.5 1160.9799,-24.5"/>
<polygon fill="#191970" stroke="#191970" points="992.0653,-21.0001 982.0652,-24.5 992.0652,-28.0001 992.0653,-21.0001"/>
</g>
</g>
</svg>
