<?xml version="1.0" encoding="UTF-8" standalone="no"?>
<!DOCTYPE svg PUBLIC "-//W3C//DTD SVG 1.1//EN"
 "http://www.w3.org/Graphics/SVG/1.1/DTD/svg11.dtd">
<!-- Generated by graphviz version 2.40.1 (20161225.0304)
 -->
<!-- Title: Patterns::PatternBase Pages: 1 -->
<svg width="407pt" height="323pt"
 viewBox="0.00 0.00 407.04 323.00" xmlns="http://www.w3.org/2000/svg" xmlns:xlink="http://www.w3.org/1999/xlink">
<g id="graph0" class="graph" transform="scale(1 1) rotate(0) translate(4 319)">
<title>Patterns::PatternBase</title>
<polygon fill="#ffffff" stroke="transparent" points="-4,4 -4,-319 403.0381,-319 403.0381,4 -4,4"/>
<!-- Node0 -->
<g id="node1" class="node">
<title>Node0</title>
<polygon fill="#bfbfbf" stroke="#000000" points="0,-148.5 0,-166.5 113.832,-166.5 113.832,-148.5 0,-148.5"/>
<text text-anchor="middle" x="56.916" y="-154.5" font-family="Helvetica,sans-Serif" font-size="10.00" fill="#000000">Patterns::PatternBase</text>
</g>
<!-- Node1 -->
<g id="node2" class="node">
<title>Node1</title>
<g id="a_node2"><a xlink:href="classPatterns_1_1Anything.html" target="_top" xlink:title="Patterns::Anything">
<polygon fill="#ffffff" stroke="#000000" points="168.1719,-296.5 168.1719,-314.5 265.8857,-314.5 265.8857,-296.5 168.1719,-296.5"/>
<text text-anchor="middle" x="217.0288" y="-302.5" font-family="Helvetica,sans-Serif" font-size="10.00" fill="#000000">Patterns::Anything</text>
</a>
</g>
</g>
<!-- Node0&#45;&gt;Node1 -->
<g id="edge1" class="edge">
<title>Node0&#45;&gt;Node1</title>
<path fill="none" stroke="#191970" d="M64.991,-175.912C78.4027,-204.302 107.9976,-258.5103 149.832,-287.5 155.2918,-291.2834 161.5073,-294.272 167.9017,-296.6326"/>
<polygon fill="#191970" stroke="#191970" points="68.1284,-174.3564 60.7893,-166.7151 61.7614,-177.2653 68.1284,-174.3564"/>
</g>
<!-- Node2 -->
<g id="node3" class="node">
<title>Node2</title>
<g id="a_node3"><a xlink:href="classPatterns_1_1DirectoryName.html" target="_top" xlink:title="Patterns::DirectoryName">
<polygon fill="#ffffff" stroke="#000000" points="154.29,-259.5 154.29,-277.5 279.7676,-277.5 279.7676,-259.5 154.29,-259.5"/>
<text text-anchor="middle" x="217.0288" y="-265.5" font-family="Helvetica,sans-Serif" font-size="10.00" fill="#000000">Patterns::DirectoryName</text>
</a>
</g>
</g>
<!-- Node0&#45;&gt;Node2 -->
<g id="edge2" class="edge">
<title>Node0&#45;&gt;Node2</title>
<path fill="none" stroke="#191970" d="M69.5245,-174.8095C85.7562,-195.8379 115.9377,-230.9226 149.832,-250.5 156.2115,-254.1848 163.3661,-257.1356 170.5641,-259.4929"/>
<polygon fill="#191970" stroke="#191970" points="72.263,-172.6277 63.452,-166.7441 66.6708,-176.8382 72.263,-172.6277"/>
</g>
<!-- Node3 -->
<g id="node4" class="node">
<title>Node3</title>
<g id="a_node4"><a xlink:href="classPatterns_1_1Double.html" target="_top" xlink:title="Patterns::Double">
<polygon fill="#ffffff" stroke="#000000" points="171.7852,-222.5 171.7852,-240.5 262.2725,-240.5 262.2725,-222.5 171.7852,-222.5"/>
<text text-anchor="middle" x="217.0288" y="-228.5" font-family="Helvetica,sans-Serif" font-size="10.00" fill="#000000">Patterns::Double</text>
</a>
</g>
</g>
<!-- Node0&#45;&gt;Node3 -->
<g id="edge3" class="edge">
<title>Node0&#45;&gt;Node3</title>
<path fill="none" stroke="#191970" d="M77.9371,-172.5262C96.1958,-184.9886 123.7357,-202.4031 149.832,-213.5 158.0566,-216.9973 167.1411,-219.9768 175.9012,-222.4455"/>
<polygon fill="#191970" stroke="#191970" points="79.7395,-169.5167 69.5293,-166.688 75.747,-175.2665 79.7395,-169.5167"/>
</g>
<!-- Node4 -->
<g id="node5" class="node">
<title>Node4</title>
<g id="a_node5"><a xlink:href="classPatterns_1_1FileName.html" target="_top" xlink:title="Patterns::FileName">
<polygon fill="#ffffff" stroke="#000000" points="166.2358,-185.5 166.2358,-203.5 267.8218,-203.5 267.8218,-185.5 166.2358,-185.5"/>
<text text-anchor="middle" x="217.0288" y="-191.5" font-family="Helvetica,sans-Serif" font-size="10.00" fill="#000000">Patterns::FileName</text>
</a>
</g>
</g>
<!-- Node0&#45;&gt;Node4 -->
<g id="edge4" class="edge">
<title>Node0&#45;&gt;Node4</title>
<path fill="none" stroke="#191970" d="M106.0437,-168.8528C129.1489,-174.1921 156.3156,-180.47 177.988,-185.4782"/>
<polygon fill="#191970" stroke="#191970" points="106.6153,-165.3927 96.084,-166.5512 105.0392,-172.213 106.6153,-165.3927"/>
</g>
<!-- Node5 -->
<g id="node6" class="node">
<title>Node5</title>
<g id="a_node6"><a xlink:href="classPatterns_1_1Integer.html" target="_top" xlink:title="Patterns::Integer">
<polygon fill="#ffffff" stroke="#000000" points="172.0635,-148.5 172.0635,-166.5 261.9941,-166.5 261.9941,-148.5 172.0635,-148.5"/>
<text text-anchor="middle" x="217.0288" y="-154.5" font-family="Helvetica,sans-Serif" font-size="10.00" fill="#000000">Patterns::Integer</text>
</a>
</g>
</g>
<!-- Node0&#45;&gt;Node5 -->
<g id="edge5" class="edge">
<title>Node0&#45;&gt;Node5</title>
<path fill="none" stroke="#191970" d="M124.6259,-157.5C140.5762,-157.5 157.1965,-157.5 171.8715,-157.5"/>
<polygon fill="#191970" stroke="#191970" points="124.2682,-154.0001 114.2682,-157.5 124.2681,-161.0001 124.2682,-154.0001"/>
</g>
<!-- Node6 -->
<g id="node7" class="node">
<title>Node6</title>
<g id="a_node7"><a xlink:href="classPatterns_1_1List.html" target="_top" xlink:title="Patterns::List">
<polygon fill="#ffffff" stroke="#000000" points="179.8491,-111.5 179.8491,-129.5 254.2085,-129.5 254.2085,-111.5 179.8491,-111.5"/>
<text text-anchor="middle" x="217.0288" y="-117.5" font-family="Helvetica,sans-Serif" font-size="10.00" fill="#000000">Patterns::List</text>
</a>
</g>
</g>
<!-- Node0&#45;&gt;Node6 -->
<g id="edge6" class="edge">
<title>Node0&#45;&gt;Node6</title>
<path fill="none" stroke="#191970" d="M105.9547,-146.1678C129.6705,-140.6874 157.6821,-134.2143 179.6418,-129.1396"/>
<polygon fill="#191970" stroke="#191970" points="105.0392,-142.787 96.084,-148.4488 106.6153,-149.6073 105.0392,-142.787"/>
</g>
<!-- Node7 -->
<g id="node8" class="node">
<title>Node7</title>
<g id="a_node8"><a xlink:href="classPatterns_1_1Map.html" target="_top" xlink:title="Patterns::Map">
<polygon fill="#ffffff" stroke="#000000" points="177.9033,-74.5 177.9033,-92.5 256.1543,-92.5 256.1543,-74.5 177.9033,-74.5"/>
<text text-anchor="middle" x="217.0288" y="-80.5" font-family="Helvetica,sans-Serif" font-size="10.00" fill="#000000">Patterns::Map</text>
</a>
</g>
</g>
<!-- Node0&#45;&gt;Node7 -->
<g id="edge7" class="edge">
<title>Node0&#45;&gt;Node7</title>
<path fill="none" stroke="#191970" d="M78.3295,-142.6474C96.6375,-130.4916 124.0391,-113.5578 149.832,-102.5 158.8576,-98.6306 168.8989,-95.3077 178.4097,-92.5728"/>
<polygon fill="#191970" stroke="#191970" points="76.2125,-139.8535 69.8804,-148.3479 80.1276,-145.6563 76.2125,-139.8535"/>
</g>
<!-- Node8 -->
<g id="node9" class="node">
<title>Node8</title>
<g id="a_node9"><a xlink:href="classPatterns_1_1MultipleSelection.html" target="_top" xlink:title="Patterns::MultipleSelection">
<polygon fill="#ffffff" stroke="#000000" points="149.832,-37.5 149.832,-55.5 284.2256,-55.5 284.2256,-37.5 149.832,-37.5"/>
<text text-anchor="middle" x="217.0288" y="-43.5" font-family="Helvetica,sans-Serif" font-size="10.00" fill="#000000">Patterns::MultipleSelection</text>
</a>
</g>
</g>
<!-- Node0&#45;&gt;Node8 -->
<g id="edge8" class="edge">
<title>Node0&#45;&gt;Node8</title>
<path fill="none" stroke="#191970" d="M69.6109,-140.4575C85.9307,-119.7376 116.202,-85.1142 149.832,-65.5 156.8486,-61.4077 164.7952,-58.156 172.7043,-55.5853"/>
<polygon fill="#191970" stroke="#191970" points="66.8232,-138.3411 63.5018,-148.4019 72.3722,-142.6082 66.8232,-138.3411"/>
</g>
<!-- Node9 -->
<g id="node10" class="node">
<title>Node9</title>
<g id="a_node10"><a xlink:href="classPatterns_1_1Selection.html" target="_top" xlink:title="Patterns::Selection">
<polygon fill="#ffffff" stroke="#000000" points="167.061,-.5 167.061,-18.5 266.9966,-18.5 266.9966,-.5 167.061,-.5"/>
<text text-anchor="middle" x="217.0288" y="-6.5" font-family="Helvetica,sans-Serif" font-size="10.00" fill="#000000">Patterns::Selection</text>
</a>
</g>
</g>
<!-- Node0&#45;&gt;Node9 -->
<g id="edge9" class="edge">
<title>Node0&#45;&gt;Node9</title>
<path fill="none" stroke="#191970" d="M65.0777,-139.2988C78.6067,-111.2206 108.3576,-57.5536 149.832,-28.5 155.7897,-24.3265 162.646,-21.0656 169.6524,-18.5189"/>
<polygon fill="#191970" stroke="#191970" points="61.8912,-137.8505 60.8356,-148.3926 68.235,-140.8098 61.8912,-137.8505"/>
</g>
<!-- Node10 -->
<g id="node11" class="node">
<title>Node10</title>
<g id="a_node11"><a xlink:href="classPatterns_1_1Bool.html" target="_top" xlink:title="Patterns::Bool">
<polygon fill="#ffffff" stroke="#000000" points="320.2256,-.5 320.2256,-18.5 399.0381,-18.5 399.0381,-.5 320.2256,-.5"/>
<text text-anchor="middle" x="359.6318" y="-6.5" font-family="Helvetica,sans-Serif" font-size="10.00" fill="#000000">Patterns::Bool</text>
</a>
</g>
</g>
<!-- Node9&#45;&gt;Node10 -->
<g id="edge10" class="edge">
<title>Node9&#45;&gt;Node10</title>
<path fill="none" stroke="#191970" d="M277.6277,-9.5C291.9951,-9.5 306.9558,-9.5 320.1042,-9.5"/>
<polygon fill="#191970" stroke="#191970" points="277.3053,-6.0001 267.3053,-9.5 277.3053,-13.0001 277.3053,-6.0001"/>
</g>
</g>
</svg>
