<?xml version="1.0" encoding="UTF-8" standalone="no"?>
<!DOCTYPE svg PUBLIC "-//W3C//DTD SVG 1.1//EN"
 "http://www.w3.org/Graphics/SVG/1.1/DTD/svg11.dtd">
<!-- Generated by graphviz version 2.40.1 (20161225.0304)
 -->
<!-- Title: DataOutStack&lt; dim, spacedim, DoFHandlerType &gt; Pages: 1 -->
<svg width="159pt" height="168pt"
 viewBox="0.00 0.00 159.35 168.00" xmlns="http://www.w3.org/2000/svg" xmlns:xlink="http://www.w3.org/1999/xlink">
<g id="graph0" class="graph" transform="scale(1 1) rotate(0) translate(4 164)">
<title>DataOutStack&lt; dim, spacedim, DoFHandlerType &gt;</title>
<polygon fill="#ffffff" stroke="transparent" points="-4,4 -4,-164 155.3467,-164 155.3467,4 -4,4"/>
<!-- Node0 -->
<g id="node1" class="node">
<title>Node0</title>
<polygon fill="#bfbfbf" stroke="#000000" points="0,-.5 0,-28.5 151.3467,-28.5 151.3467,-.5 0,-.5"/>
<text text-anchor="start" x="8" y="-16.5" font-family="Helvetica,sans-Serif" font-size="10.00" fill="#000000">DataOutStack&lt; dim,</text>
<text text-anchor="middle" x="75.6733" y="-6.5" font-family="Helvetica,sans-Serif" font-size="10.00" fill="#000000"> spacedim, DoFHandlerType &gt;</text>
</g>
<!-- Node1 -->
<g id="node2" class="node">
<title>Node1</title>
<g id="a_node2"><a xlink:href="classDataOutInterface.html" target="_top" xlink:title="DataOutInterface\&lt; dim+1 \&gt;">
<polygon fill="#ffffff" stroke="#000000" points="7.2217,-66.5 7.2217,-84.5 144.125,-84.5 144.125,-66.5 7.2217,-66.5"/>
<text text-anchor="middle" x="75.6733" y="-72.5" font-family="Helvetica,sans-Serif" font-size="10.00" fill="#000000">DataOutInterface&lt; dim+1 &gt;</text>
</a>
</g>
</g>
<!-- Node1&#45;&gt;Node0 -->
<g id="edge1" class="edge">
<title>Node1&#45;&gt;Node0</title>
<path fill="none" stroke="#191970" d="M75.6733,-56.2842C75.6733,-47.3664 75.6733,-36.9504 75.6733,-28.7488"/>
<polygon fill="#191970" stroke="#191970" points="72.1734,-56.4992 75.6733,-66.4992 79.1734,-56.4993 72.1734,-56.4992"/>
</g>
<!-- Node2 -->
<g id="node3" class="node">
<title>Node2</title>
<g id="a_node3"><a xlink:href="classDataOutInterface.html" target="_top" xlink:title="DataOutInterface\&lt; dim,\l spacedim \&gt;">
<polygon fill="#ffffff" stroke="#000000" points="15.8423,-131.5 15.8423,-159.5 135.5044,-159.5 135.5044,-131.5 15.8423,-131.5"/>
<text text-anchor="start" x="23.8423" y="-147.5" font-family="Helvetica,sans-Serif" font-size="10.00" fill="#000000">DataOutInterface&lt; dim,</text>
<text text-anchor="middle" x="75.6733" y="-137.5" font-family="Helvetica,sans-Serif" font-size="10.00" fill="#000000"> spacedim &gt;</text>
</a>
</g>
</g>
<!-- Node2&#45;&gt;Node1 -->
<g id="edge2" class="edge">
<title>Node2&#45;&gt;Node1</title>
<path fill="none" stroke="#ffa500" stroke-dasharray="5,2" d="M75.6733,-121.007C75.6733,-108.4648 75.6733,-93.9386 75.6733,-84.7368"/>
<polygon fill="#ffa500" stroke="#ffa500" points="72.1734,-121.3344 75.6733,-131.3345 79.1734,-121.3345 72.1734,-121.3344"/>
<text text-anchor="middle" x="99.438" y="-105" font-family="Helvetica,sans-Serif" font-size="10.00" fill="#000000"> &lt; dim+1 &gt;</text>
</g>
</g>
</svg>
