<?xml version="1.0" encoding="UTF-8" standalone="no"?>
<!DOCTYPE svg PUBLIC "-//W3C//DTD SVG 1.1//EN"
 "http://www.w3.org/Graphics/SVG/1.1/DTD/svg11.dtd">
<!-- Generated by graphviz version 2.40.1 (20161225.0304)
 -->
<!-- Title: FETools::FEFactory&lt; FE &gt; Pages: 1 -->
<svg width="217pt" height="254pt"
 viewBox="0.00 0.00 217.20 254.00" xmlns="http://www.w3.org/2000/svg" xmlns:xlink="http://www.w3.org/1999/xlink">
<g id="graph0" class="graph" transform="scale(1 1) rotate(0) translate(4 250)">
<title>FETools::FEFactory&lt; FE &gt;</title>
<polygon fill="#ffffff" stroke="transparent" points="-4,4 -4,-250 213.2026,-250 213.2026,4 -4,4"/>
<!-- Node0 -->
<g id="node1" class="node">
<title>Node0</title>
<polygon fill="#bfbfbf" stroke="#000000" points="17.6563,-.5 17.6563,-28.5 121.4541,-28.5 121.4541,-.5 17.6563,-.5"/>
<text text-anchor="start" x="25.6563" y="-16.5" font-family="Helvetica,sans-Serif" font-size="10.00" fill="#000000">FETools::FEFactory</text>
<text text-anchor="middle" x="69.5552" y="-6.5" font-family="Helvetica,sans-Serif" font-size="10.00" fill="#000000">&lt; FE &gt;</text>
</g>
<!-- Node1 -->
<g id="node2" class="node">
<title>Node1</title>
<g id="a_node2"><a xlink:href="classFETools_1_1FEFactoryBase.html" target="_top" xlink:title="FETools::FEFactoryBase\l\&lt; FE::dimension, FE::space\l_dimension \&gt;">
<polygon fill="#ffffff" stroke="#000000" points="0,-66.5 0,-104.5 139.1104,-104.5 139.1104,-66.5 0,-66.5"/>
<text text-anchor="start" x="8" y="-92.5" font-family="Helvetica,sans-Serif" font-size="10.00" fill="#000000">FETools::FEFactoryBase</text>
<text text-anchor="start" x="8" y="-82.5" font-family="Helvetica,sans-Serif" font-size="10.00" fill="#000000">&lt; FE::dimension, FE::space</text>
<text text-anchor="middle" x="69.5552" y="-72.5" font-family="Helvetica,sans-Serif" font-size="10.00" fill="#000000">_dimension &gt;</text>
</a>
</g>
</g>
<!-- Node1&#45;&gt;Node0 -->
<g id="edge1" class="edge">
<title>Node1&#45;&gt;Node0</title>
<path fill="none" stroke="#191970" d="M69.5552,-56.2143C69.5552,-46.768 69.5552,-36.7158 69.5552,-28.8465"/>
<polygon fill="#191970" stroke="#191970" points="66.0553,-56.4733 69.5552,-66.4733 73.0553,-56.4733 66.0553,-56.4733"/>
</g>
<!-- Node2 -->
<g id="node3" class="node">
<title>Node2</title>
<g id="a_node3"><a xlink:href="classSubscriptor.html" target="_top" xlink:title="Subscriptor">
<polygon fill="#ffffff" stroke="#000000" points="32.2671,-227.5 32.2671,-245.5 98.8433,-245.5 98.8433,-227.5 32.2671,-227.5"/>
<text text-anchor="middle" x="65.5552" y="-233.5" font-family="Helvetica,sans-Serif" font-size="10.00" fill="#000000">Subscriptor</text>
</a>
</g>
</g>
<!-- Node2&#45;&gt;Node1 -->
<g id="edge2" class="edge">
<title>Node2&#45;&gt;Node1</title>
<path fill="none" stroke="#191970" d="M66.0736,-216.9299C66.8434,-187.8685 68.28,-133.6367 69.0451,-104.7572"/>
<polygon fill="#191970" stroke="#191970" points="62.5715,-216.9651 65.8054,-227.0543 69.5691,-217.1505 62.5715,-216.9651"/>
</g>
<!-- Node3 -->
<g id="node4" class="node">
<title>Node3</title>
<g id="a_node4"><a xlink:href="classFETools_1_1FEFactoryBase.html" target="_top" xlink:title="FETools::FEFactoryBase\l\&lt; dim, spacedim \&gt;">
<polygon fill="#ffffff" stroke="#000000" points="81.2598,-161.5 81.2598,-189.5 207.8506,-189.5 207.8506,-161.5 81.2598,-161.5"/>
<text text-anchor="start" x="89.2598" y="-177.5" font-family="Helvetica,sans-Serif" font-size="10.00" fill="#000000">FETools::FEFactoryBase</text>
<text text-anchor="middle" x="144.5552" y="-167.5" font-family="Helvetica,sans-Serif" font-size="10.00" fill="#000000">&lt; dim, spacedim &gt;</text>
</a>
</g>
</g>
<!-- Node2&#45;&gt;Node3 -->
<g id="edge4" class="edge">
<title>Node2&#45;&gt;Node3</title>
<path fill="none" stroke="#191970" d="M85.2683,-221.2784C97.8766,-211.5429 114.1111,-199.0074 126.4031,-189.5162"/>
<polygon fill="#191970" stroke="#191970" points="82.9879,-218.6173 77.2119,-227.4992 87.2661,-224.1579 82.9879,-218.6173"/>
</g>
<!-- Node3&#45;&gt;Node1 -->
<g id="edge3" class="edge">
<title>Node3&#45;&gt;Node1</title>
<path fill="none" stroke="#ffa500" stroke-dasharray="5,2" d="M126.3818,-153.692C113.9464,-138.7694 97.609,-119.1646 85.6446,-104.8073"/>
<polygon fill="#ffa500" stroke="#ffa500" points="123.7458,-155.9959 132.8364,-161.4375 129.1233,-151.5146 123.7458,-155.9959"/>
<text text-anchor="start" x="115.5552" y="-135" font-family="Helvetica,sans-Serif" font-size="10.00" fill="#000000"> &lt; FE::dimension, FE</text>
<text text-anchor="middle" x="162.3789" y="-125" font-family="Helvetica,sans-Serif" font-size="10.00" fill="#000000">::space_dimension &gt;</text>
</g>
</g>
</svg>
