<?xml version="1.0" encoding="UTF-8" standalone="no"?>
<!DOCTYPE svg PUBLIC "-//W3C//DTD SVG 1.1//EN"
 "http://www.w3.org/Graphics/SVG/1.1/DTD/svg11.dtd">
<!-- Generated by graphviz version 2.40.1 (20161225.0304)
 -->
<!-- Title: SphericalManifold&lt; dim, spacedim &gt; Pages: 1 -->
<svg width="144pt" height="147pt"
 viewBox="0.00 0.00 143.50 147.00" xmlns="http://www.w3.org/2000/svg" xmlns:xlink="http://www.w3.org/1999/xlink">
<g id="graph0" class="graph" transform="scale(1 1) rotate(0) translate(4 143)">
<title>SphericalManifold&lt; dim, spacedim &gt;</title>
<polygon fill="#ffffff" stroke="transparent" points="-4,4 -4,-143 139.502,-143 139.502,4 -4,4"/>
<!-- Node0 -->
<g id="node1" class="node">
<title>Node0</title>
<polygon fill="#bfbfbf" stroke="#000000" points="17.0874,-.5 17.0874,-28.5 118.4146,-28.5 118.4146,-.5 17.0874,-.5"/>
<text text-anchor="start" x="25.0874" y="-16.5" font-family="Helvetica,sans-Serif" font-size="10.00" fill="#000000">SphericalManifold&lt;</text>
<text text-anchor="middle" x="67.751" y="-6.5" font-family="Helvetica,sans-Serif" font-size="10.00" fill="#000000"> dim, spacedim &gt;</text>
</g>
<!-- Node1 -->
<g id="node2" class="node">
<title>Node1</title>
<g id="a_node2"><a xlink:href="classManifold.html" target="_top" xlink:title="Manifold\&lt; dim, spacedim \&gt;">
<polygon fill="#ffffff" stroke="#000000" points="0,-65.5 0,-83.5 135.502,-83.5 135.502,-65.5 0,-65.5"/>
<text text-anchor="middle" x="67.751" y="-71.5" font-family="Helvetica,sans-Serif" font-size="10.00" fill="#000000">Manifold&lt; dim, spacedim &gt;</text>
</a>
</g>
</g>
<!-- Node1&#45;&gt;Node0 -->
<g id="edge1" class="edge">
<title>Node1&#45;&gt;Node0</title>
<path fill="none" stroke="#191970" d="M67.751,-55.1865C67.751,-46.6283 67.751,-36.7354 67.751,-28.8477"/>
<polygon fill="#191970" stroke="#191970" points="64.2511,-55.3873 67.751,-65.3873 71.2511,-55.3873 64.2511,-55.3873"/>
</g>
<!-- Node2 -->
<g id="node3" class="node">
<title>Node2</title>
<g id="a_node3"><a xlink:href="classSubscriptor.html" target="_top" xlink:title="Subscriptor">
<polygon fill="#ffffff" stroke="#000000" points="34.4629,-120.5 34.4629,-138.5 101.0391,-138.5 101.0391,-120.5 34.4629,-120.5"/>
<text text-anchor="middle" x="67.751" y="-126.5" font-family="Helvetica,sans-Serif" font-size="10.00" fill="#000000">Subscriptor</text>
</a>
</g>
</g>
<!-- Node2&#45;&gt;Node1 -->
<g id="edge2" class="edge">
<title>Node2&#45;&gt;Node1</title>
<path fill="none" stroke="#191970" d="M67.751,-110.383C67.751,-101.3738 67.751,-91.0373 67.751,-83.7795"/>
<polygon fill="#191970" stroke="#191970" points="64.2511,-110.4178 67.751,-120.4179 71.2511,-110.4179 64.2511,-110.4178"/>
</g>
</g>
</svg>
