<?xml version="1.0" encoding="UTF-8" standalone="no"?>
<!DOCTYPE svg PUBLIC "-//W3C//DTD SVG 1.1//EN"
 "http://www.w3.org/Graphics/SVG/1.1/DTD/svg11.dtd">
<!-- Generated by graphviz version 2.40.1 (20161225.0304)
 -->
<!-- Title: LinearAlgebra::ReadWriteVector&lt; Number &gt; Pages: 1 -->
<svg width="139pt" height="157pt"
 viewBox="0.00 0.00 138.88 157.00" xmlns="http://www.w3.org/2000/svg" xmlns:xlink="http://www.w3.org/1999/xlink">
<g id="graph0" class="graph" transform="scale(1 1) rotate(0) translate(4 153)">
<title>LinearAlgebra::ReadWriteVector&lt; Number &gt;</title>
<polygon fill="#ffffff" stroke="transparent" points="-4,4 -4,-153 134.8828,-153 134.8828,4 -4,4"/>
<!-- Node0 -->
<g id="node1" class="node">
<title>Node0</title>
<polygon fill="#bfbfbf" stroke="#000000" points="0,-65.5 0,-93.5 130.8828,-93.5 130.8828,-65.5 0,-65.5"/>
<text text-anchor="start" x="8" y="-81.5" font-family="Helvetica,sans-Serif" font-size="10.00" fill="#000000">LinearAlgebra::ReadWrite</text>
<text text-anchor="middle" x="65.4414" y="-71.5" font-family="Helvetica,sans-Serif" font-size="10.00" fill="#000000">Vector&lt; Number &gt;</text>
</g>
<!-- Node2 -->
<g id="node3" class="node">
<title>Node2</title>
<g id="a_node3"><a xlink:href="classLinearAlgebra_1_1Vector.html" target="_top" xlink:title="LinearAlgebra::Vector\l\&lt; Number \&gt;">
<polygon fill="#ffffff" stroke="#000000" points="9.353,-.5 9.353,-28.5 121.5298,-28.5 121.5298,-.5 9.353,-.5"/>
<text text-anchor="start" x="17.353" y="-16.5" font-family="Helvetica,sans-Serif" font-size="10.00" fill="#000000">LinearAlgebra::Vector</text>
<text text-anchor="middle" x="65.4414" y="-6.5" font-family="Helvetica,sans-Serif" font-size="10.00" fill="#000000">&lt; Number &gt;</text>
</a>
</g>
</g>
<!-- Node0&#45;&gt;Node2 -->
<g id="edge2" class="edge">
<title>Node0&#45;&gt;Node2</title>
<path fill="none" stroke="#191970" d="M65.4414,-55.1081C65.4414,-46.1539 65.4414,-36.3227 65.4414,-28.5765"/>
<polygon fill="#191970" stroke="#191970" points="61.9415,-55.3959 65.4414,-65.396 68.9415,-55.396 61.9415,-55.3959"/>
</g>
<!-- Node1 -->
<g id="node2" class="node">
<title>Node1</title>
<g id="a_node2"><a xlink:href="classSubscriptor.html" target="_top" xlink:title="Subscriptor">
<polygon fill="#ffffff" stroke="#000000" points="32.1533,-130.5 32.1533,-148.5 98.7295,-148.5 98.7295,-130.5 32.1533,-130.5"/>
<text text-anchor="middle" x="65.4414" y="-136.5" font-family="Helvetica,sans-Serif" font-size="10.00" fill="#000000">Subscriptor</text>
</a>
</g>
</g>
<!-- Node1&#45;&gt;Node0 -->
<g id="edge1" class="edge">
<title>Node1&#45;&gt;Node0</title>
<path fill="none" stroke="#191970" d="M65.4414,-120.1865C65.4414,-111.6283 65.4414,-101.7354 65.4414,-93.8477"/>
<polygon fill="#191970" stroke="#191970" points="61.9415,-120.3873 65.4414,-130.3873 68.9415,-120.3873 61.9415,-120.3873"/>
</g>
</g>
</svg>
