<?xml version="1.0" encoding="UTF-8" standalone="no"?>
<!DOCTYPE svg PUBLIC "-//W3C//DTD SVG 1.1//EN"
 "http://www.w3.org/Graphics/SVG/1.1/DTD/svg11.dtd">
<!-- Generated by graphviz version 2.40.1 (20161225.0304)
 -->
<!-- Title: BlockMatrixIterators::AccessorBase&lt; BlockMatrixType &gt; Pages: 1 -->
<svg width="337pt" height="104pt"
 viewBox="0.00 0.00 337.20 104.00" xmlns="http://www.w3.org/2000/svg" xmlns:xlink="http://www.w3.org/1999/xlink">
<g id="graph0" class="graph" transform="scale(1 1) rotate(0) translate(4 100)">
<title>BlockMatrixIterators::AccessorBase&lt; BlockMatrixType &gt;</title>
<polygon fill="#ffffff" stroke="transparent" points="-4,4 -4,-100 333.2012,-100 333.2012,4 -4,4"/>
<!-- Node0 -->
<g id="node1" class="node">
<title>Node0</title>
<polygon fill="#bfbfbf" stroke="#000000" points="0,-28.5 0,-66.5 145.7656,-66.5 145.7656,-28.5 0,-28.5"/>
<text text-anchor="start" x="8" y="-54.5" font-family="Helvetica,sans-Serif" font-size="10.00" fill="#000000">BlockMatrixIterators</text>
<text text-anchor="start" x="8" y="-44.5" font-family="Helvetica,sans-Serif" font-size="10.00" fill="#000000">::AccessorBase&lt; BlockMatrix</text>
<text text-anchor="middle" x="72.8828" y="-34.5" font-family="Helvetica,sans-Serif" font-size="10.00" fill="#000000">Type &gt;</text>
</g>
<!-- Node1 -->
<g id="node2" class="node">
<title>Node1</title>
<g id="a_node2"><a xlink:href="classBlockMatrixIterators_1_1Accessor_3_01BlockMatrixType_00_01false_01_4.html" target="_top" xlink:title="BlockMatrixIterators\l::Accessor\&lt; BlockMatrixType,\l false \&gt;">
<polygon fill="#ffffff" stroke="#000000" points="181.7656,-57.5 181.7656,-95.5 329.2012,-95.5 329.2012,-57.5 181.7656,-57.5"/>
<text text-anchor="start" x="189.7656" y="-83.5" font-family="Helvetica,sans-Serif" font-size="10.00" fill="#000000">BlockMatrixIterators</text>
<text text-anchor="start" x="189.7656" y="-73.5" font-family="Helvetica,sans-Serif" font-size="10.00" fill="#000000">::Accessor&lt; BlockMatrixType,</text>
<text text-anchor="middle" x="255.4834" y="-63.5" font-family="Helvetica,sans-Serif" font-size="10.00" fill="#000000"> false &gt;</text>
</a>
</g>
</g>
<!-- Node0&#45;&gt;Node1 -->
<g id="edge1" class="edge">
<title>Node0&#45;&gt;Node1</title>
<path fill="none" stroke="#191970" d="M155.8958,-60.6838C164.5177,-62.0531 173.2391,-63.4382 181.7489,-64.7897"/>
<polygon fill="#191970" stroke="#191970" points="156.2639,-57.1985 145.8386,-59.0866 155.1658,-64.1119 156.2639,-57.1985"/>
</g>
<!-- Node2 -->
<g id="node3" class="node">
<title>Node2</title>
<g id="a_node3"><a xlink:href="classBlockMatrixIterators_1_1Accessor_3_01BlockMatrixType_00_01true_01_4.html" target="_top" xlink:title="BlockMatrixIterators\l::Accessor\&lt; BlockMatrixType,\l true \&gt;">
<polygon fill="#ffffff" stroke="#000000" points="181.7656,-.5 181.7656,-38.5 329.2012,-38.5 329.2012,-.5 181.7656,-.5"/>
<text text-anchor="start" x="189.7656" y="-26.5" font-family="Helvetica,sans-Serif" font-size="10.00" fill="#000000">BlockMatrixIterators</text>
<text text-anchor="start" x="189.7656" y="-16.5" font-family="Helvetica,sans-Serif" font-size="10.00" fill="#000000">::Accessor&lt; BlockMatrixType,</text>
<text text-anchor="middle" x="255.4834" y="-6.5" font-family="Helvetica,sans-Serif" font-size="10.00" fill="#000000"> true &gt;</text>
</a>
</g>
</g>
<!-- Node0&#45;&gt;Node2 -->
<g id="edge2" class="edge">
<title>Node0&#45;&gt;Node2</title>
<path fill="none" stroke="#191970" d="M155.8958,-34.7708C164.5177,-33.4487 173.2391,-32.1114 181.7489,-30.8065"/>
<polygon fill="#191970" stroke="#191970" points="155.1926,-31.3376 145.8386,-36.3129 156.2536,-38.2567 155.1926,-31.3376"/>
</g>
</g>
</svg>
