<?xml version="1.0" encoding="UTF-8" standalone="no"?>
<!DOCTYPE svg PUBLIC "-//W3C//DTD SVG 1.1//EN"
 "http://www.w3.org/Graphics/SVG/1.1/DTD/svg11.dtd">
<!-- Generated by graphviz version 2.40.1 (20161225.0304)
 -->
<!-- Title: FunctionManifold&lt; dim, spacedim, chartdim &gt; Pages: 1 -->
<svg width="144pt" height="212pt"
 viewBox="0.00 0.00 143.50 212.00" xmlns="http://www.w3.org/2000/svg" xmlns:xlink="http://www.w3.org/1999/xlink">
<g id="graph0" class="graph" transform="scale(1 1) rotate(0) translate(4 208)">
<title>FunctionManifold&lt; dim, spacedim, chartdim &gt;</title>
<polygon fill="#ffffff" stroke="transparent" points="-4,4 -4,-208 139.502,-208 139.502,4 -4,4"/>
<!-- Node0 -->
<g id="node1" class="node">
<title>Node0</title>
<polygon fill="#bfbfbf" stroke="#000000" points="7.9199,-.5 7.9199,-28.5 127.582,-28.5 127.582,-.5 7.9199,-.5"/>
<text text-anchor="start" x="15.9199" y="-16.5" font-family="Helvetica,sans-Serif" font-size="10.00" fill="#000000">FunctionManifold&lt; dim,</text>
<text text-anchor="middle" x="67.751" y="-6.5" font-family="Helvetica,sans-Serif" font-size="10.00" fill="#000000"> spacedim, chartdim &gt;</text>
</g>
<!-- Node1 -->
<g id="node2" class="node">
<title>Node1</title>
<g id="a_node2"><a xlink:href="classChartManifold.html" target="_top" xlink:title="ChartManifold\&lt; dim,\l spacedim, chartdim \&gt;">
<polygon fill="#ffffff" stroke="#000000" points="10.7031,-65.5 10.7031,-93.5 124.7988,-93.5 124.7988,-65.5 10.7031,-65.5"/>
<text text-anchor="start" x="18.7031" y="-81.5" font-family="Helvetica,sans-Serif" font-size="10.00" fill="#000000">ChartManifold&lt; dim,</text>
<text text-anchor="middle" x="67.751" y="-71.5" font-family="Helvetica,sans-Serif" font-size="10.00" fill="#000000"> spacedim, chartdim &gt;</text>
</a>
</g>
</g>
<!-- Node1&#45;&gt;Node0 -->
<g id="edge1" class="edge">
<title>Node1&#45;&gt;Node0</title>
<path fill="none" stroke="#191970" d="M67.751,-55.1081C67.751,-46.1539 67.751,-36.3227 67.751,-28.5765"/>
<polygon fill="#191970" stroke="#191970" points="64.2511,-55.3959 67.751,-65.396 71.2511,-55.396 64.2511,-55.3959"/>
</g>
<!-- Node2 -->
<g id="node3" class="node">
<title>Node2</title>
<g id="a_node3"><a xlink:href="classManifold.html" target="_top" xlink:title="Manifold\&lt; dim, spacedim \&gt;">
<polygon fill="#ffffff" stroke="#000000" points="0,-130.5 0,-148.5 135.502,-148.5 135.502,-130.5 0,-130.5"/>
<text text-anchor="middle" x="67.751" y="-136.5" font-family="Helvetica,sans-Serif" font-size="10.00" fill="#000000">Manifold&lt; dim, spacedim &gt;</text>
</a>
</g>
</g>
<!-- Node2&#45;&gt;Node1 -->
<g id="edge2" class="edge">
<title>Node2&#45;&gt;Node1</title>
<path fill="none" stroke="#191970" d="M67.751,-120.1865C67.751,-111.6283 67.751,-101.7354 67.751,-93.8477"/>
<polygon fill="#191970" stroke="#191970" points="64.2511,-120.3873 67.751,-130.3873 71.2511,-120.3873 64.2511,-120.3873"/>
</g>
<!-- Node3 -->
<g id="node4" class="node">
<title>Node3</title>
<g id="a_node4"><a xlink:href="classSubscriptor.html" target="_top" xlink:title="Subscriptor">
<polygon fill="#ffffff" stroke="#000000" points="34.4629,-185.5 34.4629,-203.5 101.0391,-203.5 101.0391,-185.5 34.4629,-185.5"/>
<text text-anchor="middle" x="67.751" y="-191.5" font-family="Helvetica,sans-Serif" font-size="10.00" fill="#000000">Subscriptor</text>
</a>
</g>
</g>
<!-- Node3&#45;&gt;Node2 -->
<g id="edge3" class="edge">
<title>Node3&#45;&gt;Node2</title>
<path fill="none" stroke="#191970" d="M67.751,-175.383C67.751,-166.3738 67.751,-156.0373 67.751,-148.7795"/>
<polygon fill="#191970" stroke="#191970" points="64.2511,-175.4178 67.751,-185.4179 71.2511,-175.4179 64.2511,-175.4178"/>
</g>
</g>
</svg>
