<?xml version="1.0" encoding="UTF-8" standalone="no"?>
<!DOCTYPE svg PUBLIC "-//W3C//DTD SVG 1.1//EN"
 "http://www.w3.org/Graphics/SVG/1.1/DTD/svg11.dtd">
<!-- Generated by graphviz version 2.40.1 (20161225.0304)
 -->
<!-- Title: MGTransferBlockSelect&lt; number &gt; Pages: 1 -->
<svg width="270pt" height="224pt"
 viewBox="0.00 0.00 270.48 224.00" xmlns="http://www.w3.org/2000/svg" xmlns:xlink="http://www.w3.org/1999/xlink">
<g id="graph0" class="graph" transform="scale(1 1) rotate(0) translate(4 220)">
<title>MGTransferBlockSelect&lt; number &gt;</title>
<polygon fill="#ffffff" stroke="transparent" points="-4,4 -4,-220 266.4795,-220 266.4795,4 -4,4"/>
<!-- Node0 -->
<g id="node1" class="node">
<title>Node0</title>
<polygon fill="#bfbfbf" stroke="#000000" points="73.7598,-.5 73.7598,-28.5 194.9795,-28.5 194.9795,-.5 73.7598,-.5"/>
<text text-anchor="start" x="81.7598" y="-16.5" font-family="Helvetica,sans-Serif" font-size="10.00" fill="#000000">MGTransferBlockSelect</text>
<text text-anchor="middle" x="134.3696" y="-6.5" font-family="Helvetica,sans-Serif" font-size="10.00" fill="#000000">&lt; number &gt;</text>
</g>
<!-- Node1 -->
<g id="node2" class="node">
<title>Node1</title>
<g id="a_node2"><a xlink:href="classMGTransferBase.html" target="_top" xlink:title="MGTransferBase\&lt; Vector\l\&lt; number \&gt; \&gt;">
<polygon fill="#ffffff" stroke="#000000" points="0,-66.5 0,-94.5 128.7393,-94.5 128.7393,-66.5 0,-66.5"/>
<text text-anchor="start" x="8" y="-82.5" font-family="Helvetica,sans-Serif" font-size="10.00" fill="#000000">MGTransferBase&lt; Vector</text>
<text text-anchor="middle" x="64.3696" y="-72.5" font-family="Helvetica,sans-Serif" font-size="10.00" fill="#000000">&lt; number &gt; &gt;</text>
</a>
</g>
</g>
<!-- Node1&#45;&gt;Node0 -->
<g id="edge1" class="edge">
<title>Node1&#45;&gt;Node0</title>
<path fill="none" stroke="#191970" d="M86.8797,-59.2762C97.4494,-49.3105 109.7682,-37.6956 119.2103,-28.7931"/>
<polygon fill="#191970" stroke="#191970" points="84.4335,-56.7723 79.5586,-66.179 89.2356,-61.8654 84.4335,-56.7723"/>
</g>
<!-- Node2 -->
<g id="node3" class="node">
<title>Node2</title>
<g id="a_node3"><a xlink:href="classSubscriptor.html" target="_top" xlink:title="Subscriptor">
<polygon fill="#ffffff" stroke="#000000" points="27.0815,-197.5 27.0815,-215.5 93.6577,-215.5 93.6577,-197.5 27.0815,-197.5"/>
<text text-anchor="middle" x="60.3696" y="-203.5" font-family="Helvetica,sans-Serif" font-size="10.00" fill="#000000">Subscriptor</text>
</a>
</g>
</g>
<!-- Node2&#45;&gt;Node1 -->
<g id="edge2" class="edge">
<title>Node2&#45;&gt;Node1</title>
<path fill="none" stroke="#191970" d="M60.9827,-187.1897C61.7923,-161.6844 63.1995,-117.3578 63.9186,-94.7089"/>
<polygon fill="#191970" stroke="#191970" points="57.4765,-187.3323 60.6573,-197.4384 64.4729,-187.5545 57.4765,-187.3323"/>
</g>
<!-- Node3 -->
<g id="node4" class="node">
<title>Node3</title>
<g id="a_node4"><a xlink:href="classMGTransferBase.html" target="_top" xlink:title="MGTransferBase\&lt; VectorType \&gt;">
<polygon fill="#ffffff" stroke="#000000" points="76.8486,-141.5 76.8486,-159.5 235.8906,-159.5 235.8906,-141.5 76.8486,-141.5"/>
<text text-anchor="middle" x="156.3696" y="-147.5" font-family="Helvetica,sans-Serif" font-size="10.00" fill="#000000">MGTransferBase&lt; VectorType &gt;</text>
</a>
</g>
</g>
<!-- Node2&#45;&gt;Node3 -->
<g id="edge4" class="edge">
<title>Node2&#45;&gt;Node3</title>
<path fill="none" stroke="#191970" d="M85.3331,-191.938C102.8826,-181.7008 125.8175,-168.3221 140.8122,-159.5752"/>
<polygon fill="#191970" stroke="#191970" points="83.0963,-189.1908 76.2221,-197.2527 86.6234,-195.2372 83.0963,-189.1908"/>
</g>
<!-- Node3&#45;&gt;Node1 -->
<g id="edge3" class="edge">
<title>Node3&#45;&gt;Node1</title>
<path fill="none" stroke="#ffa500" stroke-dasharray="5,2" d="M136.2545,-135.195C120.432,-123.1561 98.5516,-106.508 83.0981,-94.7499"/>
<polygon fill="#ffa500" stroke="#ffa500" points="134.2646,-138.0789 144.3422,-141.3487 138.5033,-132.5081 134.2646,-138.0789"/>
<text text-anchor="middle" x="169.1255" y="-115" font-family="Helvetica,sans-Serif" font-size="10.00" fill="#000000"> &lt; Vector&lt; number &gt; &gt;</text>
</g>
<!-- Node4 -->
<g id="node5" class="node">
<title>Node4</title>
<g id="a_node5"><a xlink:href="classMGTransferBlockBase.html" target="_top" xlink:title="MGTransferBlockBase">
<polygon fill="#ffffff" stroke="#000000" points="146.2598,-71.5 146.2598,-89.5 262.4795,-89.5 262.4795,-71.5 146.2598,-71.5"/>
<text text-anchor="middle" x="204.3696" y="-77.5" font-family="Helvetica,sans-Serif" font-size="10.00" fill="#000000">MGTransferBlockBase</text>
</a>
</g>
</g>
<!-- Node4&#45;&gt;Node0 -->
<g id="edge5" class="edge">
<title>Node4&#45;&gt;Node0</title>
<path fill="none" stroke="#8b1a1a" d="M187.2835,-64.3902C175.7001,-53.4688 160.5329,-39.1682 149.4079,-28.6789"/>
<polygon fill="#8b1a1a" stroke="#8b1a1a" points="184.9595,-67.0094 194.6364,-71.323 189.7616,-61.9163 184.9595,-67.0094"/>
</g>
</g>
</svg>
