<?xml version="1.0" encoding="UTF-8" standalone="no"?>
<!DOCTYPE svg PUBLIC "-//W3C//DTD SVG 1.1//EN"
 "http://www.w3.org/Graphics/SVG/1.1/DTD/svg11.dtd">
<!-- Generated by graphviz version 2.40.1 (20161225.0304)
 -->
<!-- Title: MGCoarseGridIterativeSolver&lt; VectorType, SolverType, MatrixType, PreconditionerType &gt; Pages: 1 -->
<svg width="176pt" height="167pt"
 viewBox="0.00 0.00 176.03 167.00" xmlns="http://www.w3.org/2000/svg" xmlns:xlink="http://www.w3.org/1999/xlink">
<g id="graph0" class="graph" transform="scale(1 1) rotate(0) translate(4 163)">
<title>MGCoarseGridIterativeSolver&lt; VectorType, SolverType, MatrixType, PreconditionerType &gt;</title>
<polygon fill="#ffffff" stroke="transparent" points="-4,4 -4,-163 172.0264,-163 172.0264,4 -4,4"/>
<!-- Node0 -->
<g id="node1" class="node">
<title>Node0</title>
<polygon fill="#bfbfbf" stroke="#000000" points="0,-.5 0,-38.5 168.0264,-38.5 168.0264,-.5 0,-.5"/>
<text text-anchor="start" x="8" y="-26.5" font-family="Helvetica,sans-Serif" font-size="10.00" fill="#000000">MGCoarseGridIterativeSolver</text>
<text text-anchor="start" x="8" y="-16.5" font-family="Helvetica,sans-Serif" font-size="10.00" fill="#000000">&lt; VectorType, SolverType,</text>
<text text-anchor="middle" x="84.0132" y="-6.5" font-family="Helvetica,sans-Serif" font-size="10.00" fill="#000000"> MatrixType, PreconditionerType &gt;</text>
</g>
<!-- Node1 -->
<g id="node2" class="node">
<title>Node1</title>
<g id="a_node2"><a xlink:href="classMGCoarseGridBase.html" target="_top" xlink:title="MGCoarseGridBase\&lt; Vector\lType \&gt;">
<polygon fill="#ffffff" stroke="#000000" points="12.5122,-75.5 12.5122,-103.5 155.5142,-103.5 155.5142,-75.5 12.5122,-75.5"/>
<text text-anchor="start" x="20.5122" y="-91.5" font-family="Helvetica,sans-Serif" font-size="10.00" fill="#000000">MGCoarseGridBase&lt; Vector</text>
<text text-anchor="middle" x="84.0132" y="-81.5" font-family="Helvetica,sans-Serif" font-size="10.00" fill="#000000">Type &gt;</text>
</a>
</g>
</g>
<!-- Node1&#45;&gt;Node0 -->
<g id="edge1" class="edge">
<title>Node1&#45;&gt;Node0</title>
<path fill="none" stroke="#191970" d="M84.0132,-65.0725C84.0132,-56.4275 84.0132,-46.8328 84.0132,-38.6857"/>
<polygon fill="#191970" stroke="#191970" points="80.5133,-65.3344 84.0132,-75.3345 87.5133,-65.3345 80.5133,-65.3344"/>
</g>
<!-- Node2 -->
<g id="node3" class="node">
<title>Node2</title>
<g id="a_node3"><a xlink:href="classSubscriptor.html" target="_top" xlink:title="Subscriptor">
<polygon fill="#ffffff" stroke="#000000" points="50.7251,-140.5 50.7251,-158.5 117.3013,-158.5 117.3013,-140.5 50.7251,-140.5"/>
<text text-anchor="middle" x="84.0132" y="-146.5" font-family="Helvetica,sans-Serif" font-size="10.00" fill="#000000">Subscriptor</text>
</a>
</g>
</g>
<!-- Node2&#45;&gt;Node1 -->
<g id="edge2" class="edge">
<title>Node2&#45;&gt;Node1</title>
<path fill="none" stroke="#191970" d="M84.0132,-130.1865C84.0132,-121.6283 84.0132,-111.7354 84.0132,-103.8477"/>
<polygon fill="#191970" stroke="#191970" points="80.5133,-130.3873 84.0132,-140.3873 87.5133,-130.3873 80.5133,-130.3873"/>
</g>
</g>
</svg>
