<?xml version="1.0" encoding="UTF-8" standalone="no"?>
<!DOCTYPE svg PUBLIC "-//W3C//DTD SVG 1.1//EN"
 "http://www.w3.org/Graphics/SVG/1.1/DTD/svg11.dtd">
<!-- Generated by graphviz version 2.40.1 (20161225.0304)
 -->
<!-- Title: FE_Bernstein&lt; dim, spacedim &gt; Pages: 1 -->
<svg width="1223pt" height="99pt"
 viewBox="0.00 0.00 1222.86 99.00" xmlns="http://www.w3.org/2000/svg" xmlns:xlink="http://www.w3.org/1999/xlink">
<g id="graph0" class="graph" transform="scale(1 1) rotate(0) translate(4 95)">
<title>FE_Bernstein&lt; dim, spacedim &gt;</title>
<polygon fill="#ffffff" stroke="transparent" points="-4,4 -4,-95 1218.8643,-95 1218.8643,4 -4,4"/>
<!-- Node0 -->
<g id="node1" class="node">
<title>Node0</title>
<polygon fill="#bfbfbf" stroke="#000000" points="1110.7686,-23.5 1110.7686,-51.5 1214.8643,-51.5 1214.8643,-23.5 1110.7686,-23.5"/>
<text text-anchor="start" x="1118.7686" y="-39.5" font-family="Helvetica,sans-Serif" font-size="10.00" fill="#000000">FE_Bernstein&lt; dim,</text>
<text text-anchor="middle" x="1162.8164" y="-29.5" font-family="Helvetica,sans-Serif" font-size="10.00" fill="#000000"> spacedim &gt;</text>
</g>
<!-- Node1 -->
<g id="node2" class="node">
<title>Node1</title>
<g id="a_node2"><a xlink:href="classFE__Q__Base.html" target="_top" xlink:title="FE_Q_Base\&lt; TensorProduct\lPolynomials\&lt; dim \&gt;, dim,\l spacedim \&gt;">
<polygon fill="#ffffff" stroke="#000000" points="930.376,-18.5 930.376,-56.5 1073.7686,-56.5 1073.7686,-18.5 930.376,-18.5"/>
<text text-anchor="start" x="938.376" y="-44.5" font-family="Helvetica,sans-Serif" font-size="10.00" fill="#000000">FE_Q_Base&lt; TensorProduct</text>
<text text-anchor="start" x="938.376" y="-34.5" font-family="Helvetica,sans-Serif" font-size="10.00" fill="#000000">Polynomials&lt; dim &gt;, dim,</text>
<text text-anchor="middle" x="1002.0723" y="-24.5" font-family="Helvetica,sans-Serif" font-size="10.00" fill="#000000"> spacedim &gt;</text>
</a>
</g>
</g>
<!-- Node1&#45;&gt;Node0 -->
<g id="edge1" class="edge">
<title>Node1&#45;&gt;Node0</title>
<path fill="none" stroke="#191970" d="M1084.1665,-37.5C1093.198,-37.5 1102.2005,-37.5 1110.7176,-37.5"/>
<polygon fill="#191970" stroke="#191970" points="1083.9816,-34.0001 1073.9816,-37.5 1083.9815,-41.0001 1083.9816,-34.0001"/>
</g>
<!-- Node2 -->
<g id="node3" class="node">
<title>Node2</title>
<g id="a_node3"><a xlink:href="classFE__Poly.html" target="_top" xlink:title="FE_Poly\&lt; TensorProductPolynomials\l\&lt; dim \&gt;, dim, spacedim \&gt;">
<polygon fill="#ffffff" stroke="#000000" points="584.1426,-47.5 584.1426,-75.5 764.7666,-75.5 764.7666,-47.5 584.1426,-47.5"/>
<text text-anchor="start" x="592.1426" y="-63.5" font-family="Helvetica,sans-Serif" font-size="10.00" fill="#000000">FE_Poly&lt; TensorProductPolynomials</text>
<text text-anchor="middle" x="674.4546" y="-53.5" font-family="Helvetica,sans-Serif" font-size="10.00" fill="#000000">&lt; dim &gt;, dim, spacedim &gt;</text>
</a>
</g>
</g>
<!-- Node2&#45;&gt;Node1 -->
<g id="edge2" class="edge">
<title>Node2&#45;&gt;Node1</title>
<path fill="none" stroke="#191970" d="M774.9002,-54.4694C817.3278,-51.4618 867.2634,-47.872 912.376,-44.5 918.1392,-44.0692 924.1101,-43.6167 930.1084,-43.1578"/>
<polygon fill="#191970" stroke="#191970" points="774.5751,-50.9836 764.8472,-55.1812 775.0695,-57.9661 774.5751,-50.9836"/>
</g>
<!-- Node3 -->
<g id="node4" class="node">
<title>Node3</title>
<g id="a_node4"><a xlink:href="classFiniteElement.html" target="_top" xlink:title="FiniteElement\&lt; dim,\l spacedim \&gt;">
<polygon fill="#ffffff" stroke="#000000" points="141.1006,-46.5 141.1006,-74.5 245.748,-74.5 245.748,-46.5 141.1006,-46.5"/>
<text text-anchor="start" x="149.1006" y="-62.5" font-family="Helvetica,sans-Serif" font-size="10.00" fill="#000000">FiniteElement&lt; dim,</text>
<text text-anchor="middle" x="193.4243" y="-52.5" font-family="Helvetica,sans-Serif" font-size="10.00" fill="#000000"> spacedim &gt;</text>
</a>
</g>
</g>
<!-- Node3&#45;&gt;Node2 -->
<g id="edge3" class="edge">
<title>Node3&#45;&gt;Node2</title>
<path fill="none" stroke="#191970" d="M256.0798,-65.1264C258.6696,-65.2633 261.2337,-65.3889 263.748,-65.5 398.0211,-71.4348 431.8084,-72.8364 566.1426,-68.5 571.981,-68.3115 577.9937,-68.0661 584.0528,-67.7802"/>
<polygon fill="#191970" stroke="#191970" points="256.1999,-61.6276 246.0156,-64.5484 255.7985,-68.6161 256.1999,-61.6276"/>
</g>
<!-- Node6 -->
<g id="node7" class="node">
<title>Node6</title>
<g id="a_node7"><a xlink:href="classFE__Poly.html" target="_top" xlink:title="FE_Poly\&lt; PolynomialType,\l dim, spacedim \&gt;">
<polygon fill="#ffffff" stroke="#000000" points="282.748,-25.5 282.748,-53.5 418.5332,-53.5 418.5332,-25.5 282.748,-25.5"/>
<text text-anchor="start" x="290.748" y="-41.5" font-family="Helvetica,sans-Serif" font-size="10.00" fill="#000000">FE_Poly&lt; PolynomialType,</text>
<text text-anchor="middle" x="350.6406" y="-31.5" font-family="Helvetica,sans-Serif" font-size="10.00" fill="#000000"> dim, spacedim &gt;</text>
</a>
</g>
</g>
<!-- Node3&#45;&gt;Node6 -->
<g id="edge7" class="edge">
<title>Node3&#45;&gt;Node6</title>
<path fill="none" stroke="#191970" d="M255.9073,-52.1539C264.6713,-50.9833 273.7148,-49.7753 282.5762,-48.5916"/>
<polygon fill="#191970" stroke="#191970" points="255.2236,-48.7141 245.7751,-53.5073 256.1505,-55.6524 255.2236,-48.7141"/>
</g>
<!-- Node4 -->
<g id="node5" class="node">
<title>Node4</title>
<g id="a_node5"><a xlink:href="classSubscriptor.html" target="_top" xlink:title="Subscriptor">
<polygon fill="#ffffff" stroke="#000000" points="18.7622,-72.5 18.7622,-90.5 85.3384,-90.5 85.3384,-72.5 18.7622,-72.5"/>
<text text-anchor="middle" x="52.0503" y="-78.5" font-family="Helvetica,sans-Serif" font-size="10.00" fill="#000000">Subscriptor</text>
</a>
</g>
</g>
<!-- Node4&#45;&gt;Node3 -->
<g id="edge4" class="edge">
<title>Node4&#45;&gt;Node3</title>
<path fill="none" stroke="#191970" d="M95.6606,-75.022C110.0246,-72.8884 126.1458,-70.4937 141.091,-68.2737"/>
<polygon fill="#191970" stroke="#191970" points="94.9311,-71.5919 85.554,-76.5233 95.9597,-78.5159 94.9311,-71.5919"/>
</g>
<!-- Node5 -->
<g id="node6" class="node">
<title>Node5</title>
<g id="a_node6"><a xlink:href="classFiniteElementData.html" target="_top" xlink:title="FiniteElementData\&lt;\l dim \&gt;">
<polygon fill="#ffffff" stroke="#000000" points="0,-25.5 0,-53.5 104.1006,-53.5 104.1006,-25.5 0,-25.5"/>
<text text-anchor="start" x="8" y="-41.5" font-family="Helvetica,sans-Serif" font-size="10.00" fill="#000000">FiniteElementData&lt;</text>
<text text-anchor="middle" x="52.0503" y="-31.5" font-family="Helvetica,sans-Serif" font-size="10.00" fill="#000000"> dim &gt;</text>
</a>
</g>
</g>
<!-- Node5&#45;&gt;Node3 -->
<g id="edge5" class="edge">
<title>Node5&#45;&gt;Node3</title>
<path fill="none" stroke="#191970" d="M114.2377,-48.7374C123.1434,-50.0603 132.2318,-51.4103 140.9263,-52.7018"/>
<polygon fill="#191970" stroke="#191970" points="114.6968,-45.2673 104.2911,-47.26 113.6683,-52.1914 114.6968,-45.2673"/>
</g>
<!-- Node6&#45;&gt;Node2 -->
<g id="edge6" class="edge">
<title>Node6&#45;&gt;Node2</title>
<path fill="none" stroke="#ffa500" stroke-dasharray="5,2" d="M428.8487,-41.3031C469.7907,-42.617 520.7232,-44.8315 566.1426,-48.5 571.9946,-48.9727 578.0177,-49.5215 584.0844,-50.1211"/>
<polygon fill="#ffa500" stroke="#ffa500" points="428.7679,-37.7991 418.6644,-40.9882 428.5514,-44.7957 428.7679,-37.7991"/>
<text text-anchor="start" x="436.5332" y="-60.5" font-family="Helvetica,sans-Serif" font-size="10.00" fill="#000000"> &lt; TensorProductPolynomials</text>
<text text-anchor="middle" x="501.3379" y="-50.5" font-family="Helvetica,sans-Serif" font-size="10.00" fill="#000000">&lt; dim &gt;, dim, spacedim &gt;</text>
</g>
<!-- Node7 -->
<g id="node8" class="node">
<title>Node7</title>
<g id="a_node8"><a xlink:href="classFE__Q__Base.html" target="_top" xlink:title="FE_Q_Base\&lt; PolynomialType,\l dim, spacedim \&gt;">
<polygon fill="#ffffff" stroke="#000000" points="598.2222,-.5 598.2222,-28.5 750.687,-28.5 750.687,-.5 598.2222,-.5"/>
<text text-anchor="start" x="606.2222" y="-16.5" font-family="Helvetica,sans-Serif" font-size="10.00" fill="#000000">FE_Q_Base&lt; PolynomialType,</text>
<text text-anchor="middle" x="674.4546" y="-6.5" font-family="Helvetica,sans-Serif" font-size="10.00" fill="#000000"> dim, spacedim &gt;</text>
</a>
</g>
</g>
<!-- Node6&#45;&gt;Node7 -->
<g id="edge9" class="edge">
<title>Node6&#45;&gt;Node7</title>
<path fill="none" stroke="#191970" d="M428.9706,-33.4525C480.3121,-29.4887 547.1017,-24.3323 598.0504,-20.3988"/>
<polygon fill="#191970" stroke="#191970" points="428.6184,-29.9692 418.9176,-34.2287 429.1573,-36.9485 428.6184,-29.9692"/>
</g>
<!-- Node7&#45;&gt;Node1 -->
<g id="edge8" class="edge">
<title>Node7&#45;&gt;Node1</title>
<path fill="none" stroke="#ffa500" stroke-dasharray="5,2" d="M760.9889,-16.0171C806.1772,-17.3452 862.3387,-19.8347 912.376,-24.5 918.1728,-25.0405 924.1676,-25.6963 930.1822,-26.4228"/>
<polygon fill="#ffa500" stroke="#ffa500" points="761.026,-12.5168 750.9318,-15.7352 760.8298,-19.5141 761.026,-12.5168"/>
<text text-anchor="start" x="782.7666" y="-36.5" font-family="Helvetica,sans-Serif" font-size="10.00" fill="#000000"> &lt; TensorProductPolynomials</text>
<text text-anchor="middle" x="847.5713" y="-26.5" font-family="Helvetica,sans-Serif" font-size="10.00" fill="#000000">&lt; dim &gt;, dim, spacedim &gt;</text>
</g>
</g>
</svg>
