<?xml version="1.0" encoding="UTF-8" standalone="no"?>
<!DOCTYPE svg PUBLIC "-//W3C//DTD SVG 1.1//EN"
 "http://www.w3.org/Graphics/SVG/1.1/DTD/svg11.dtd">
<!-- Generated by graphviz version 2.40.1 (20161225.0304)
 -->
<!-- Title: ChartManifold&lt; dim, spacedim, chartdim &gt; Pages: 1 -->
<svg width="959pt" height="522pt"
 viewBox="0.00 0.00 959.49 522.00" xmlns="http://www.w3.org/2000/svg" xmlns:xlink="http://www.w3.org/1999/xlink">
<g id="graph0" class="graph" transform="scale(1 1) rotate(0) translate(4 518)">
<title>ChartManifold&lt; dim, spacedim, chartdim &gt;</title>
<polygon fill="#ffffff" stroke="transparent" points="-4,4 -4,-518 955.4922,-518 955.4922,4 -4,4"/>
<!-- Node0 -->
<g id="node1" class="node">
<title>Node0</title>
<polygon fill="#bfbfbf" stroke="#000000" points="276.0781,-250.5 276.0781,-278.5 390.1738,-278.5 390.1738,-250.5 276.0781,-250.5"/>
<text text-anchor="start" x="284.0781" y="-266.5" font-family="Helvetica,sans-Serif" font-size="10.00" fill="#000000">ChartManifold&lt; dim,</text>
<text text-anchor="middle" x="333.126" y="-256.5" font-family="Helvetica,sans-Serif" font-size="10.00" fill="#000000"> spacedim, chartdim &gt;</text>
</g>
<!-- Node3 -->
<g id="node4" class="node">
<title>Node3</title>
<g id="a_node4"><a xlink:href="classCompositionManifold.html" target="_top" xlink:title="CompositionManifold\l\&lt; dim, spacedim, chartdim \&gt;">
<polygon fill="#ffffff" stroke="#000000" points="574.167,-485.5 574.167,-513.5 715.7725,-513.5 715.7725,-485.5 574.167,-485.5"/>
<text text-anchor="start" x="582.167" y="-501.5" font-family="Helvetica,sans-Serif" font-size="10.00" fill="#000000">CompositionManifold</text>
<text text-anchor="middle" x="644.9697" y="-491.5" font-family="Helvetica,sans-Serif" font-size="10.00" fill="#000000">&lt; dim, spacedim, chartdim &gt;</text>
</a>
</g>
</g>
<!-- Node0&#45;&gt;Node3 -->
<g id="edge3" class="edge">
<title>Node0&#45;&gt;Node3</title>
<path fill="none" stroke="#191970" d="M335.0951,-288.6116C339.8472,-330.0464 355.7714,-414.449 408.1738,-457.5 454.2265,-495.3343 522.5482,-504.0339 573.9843,-504.3266"/>
<polygon fill="#191970" stroke="#191970" points="338.5699,-288.1851 334.0708,-278.593 331.6062,-288.8972 338.5699,-288.1851"/>
</g>
<!-- Node4 -->
<g id="node5" class="node">
<title>Node4</title>
<g id="a_node5"><a xlink:href="classFunctionManifold.html" target="_top" xlink:title="FunctionManifold\&lt; dim,\l spacedim, chartdim \&gt;">
<polygon fill="#ffffff" stroke="#000000" points="585.1387,-438.5 585.1387,-466.5 704.8008,-466.5 704.8008,-438.5 585.1387,-438.5"/>
<text text-anchor="start" x="593.1387" y="-454.5" font-family="Helvetica,sans-Serif" font-size="10.00" fill="#000000">FunctionManifold&lt; dim,</text>
<text text-anchor="middle" x="644.9697" y="-444.5" font-family="Helvetica,sans-Serif" font-size="10.00" fill="#000000"> spacedim, chartdim &gt;</text>
</a>
</g>
</g>
<!-- Node0&#45;&gt;Node4 -->
<g id="edge4" class="edge">
<title>Node0&#45;&gt;Node4</title>
<path fill="none" stroke="#191970" d="M336.8776,-288.766C343.8781,-325.0485 362.5874,-392.6746 408.1738,-425.5 459.2957,-462.3113 533.3651,-464.8872 585.0053,-460.9289"/>
<polygon fill="#191970" stroke="#191970" points="340.2636,-287.8166 335.0641,-278.5854 333.3721,-289.0442 340.2636,-287.8166"/>
</g>
<!-- Node5 -->
<g id="node6" class="node">
<title>Node5</title>
<g id="a_node6"><a xlink:href="classChartManifold.html" target="_top" xlink:title="ChartManifold\&lt; dim,\l spacedim, 2 \&gt;">
<polygon fill="#ffffff" stroke="#000000" points="592.0894,-391.5 592.0894,-419.5 697.8501,-419.5 697.8501,-391.5 592.0894,-391.5"/>
<text text-anchor="start" x="600.0894" y="-407.5" font-family="Helvetica,sans-Serif" font-size="10.00" fill="#000000">ChartManifold&lt; dim,</text>
<text text-anchor="middle" x="644.9697" y="-397.5" font-family="Helvetica,sans-Serif" font-size="10.00" fill="#000000"> spacedim, 2 &gt;</text>
</a>
</g>
</g>
<!-- Node0&#45;&gt;Node5 -->
<g id="edge5" class="edge">
<title>Node0&#45;&gt;Node5</title>
<path fill="none" stroke="#ffa500" stroke-dasharray="5,2" d="M341.9863,-288.3465C353.1218,-314.6792 374.9034,-356.049 408.1738,-376.5 463.9234,-410.7687 541.0575,-413.7837 591.9434,-411.0701"/>
<polygon fill="#ffa500" stroke="#ffa500" points="345.0981,-286.7046 338.1125,-278.7389 338.606,-289.3223 345.0981,-286.7046"/>
<text text-anchor="middle" x="479.1797" y="-413.5" font-family="Helvetica,sans-Serif" font-size="10.00" fill="#000000"> &lt; dim, spacedim, 2 &gt;</text>
</g>
<!-- Node7 -->
<g id="node8" class="node">
<title>Node7</title>
<g id="a_node8"><a xlink:href="classChartManifold.html" target="_top" xlink:title="ChartManifold\&lt; dim\l_B, spacedim_B, chartdim_B \&gt;">
<polygon fill="#ffffff" stroke="#000000" points="568.1855,-344.5 568.1855,-372.5 721.7539,-372.5 721.7539,-344.5 568.1855,-344.5"/>
<text text-anchor="start" x="576.1855" y="-360.5" font-family="Helvetica,sans-Serif" font-size="10.00" fill="#000000">ChartManifold&lt; dim</text>
<text text-anchor="middle" x="644.9697" y="-350.5" font-family="Helvetica,sans-Serif" font-size="10.00" fill="#000000">_B, spacedim_B, chartdim_B &gt;</text>
</a>
</g>
</g>
<!-- Node0&#45;&gt;Node7 -->
<g id="edge7" class="edge">
<title>Node0&#45;&gt;Node7</title>
<path fill="none" stroke="#ffa500" stroke-dasharray="5,2" d="M355.5694,-285.3317C369.645,-297.2204 388.7539,-311.3388 408.1738,-319.5 458.9714,-340.8476 520.4802,-350.547 568.0766,-354.936"/>
<polygon fill="#ffa500" stroke="#ffa500" points="357.7389,-282.5798 347.8993,-278.6514 353.1415,-287.8585 357.7389,-282.5798"/>
<text text-anchor="start" x="427.627" y="-364.5" font-family="Helvetica,sans-Serif" font-size="10.00" fill="#000000"> &lt; dim_B, spacedim_B,</text>
<text text-anchor="middle" x="479.1797" y="-354.5" font-family="Helvetica,sans-Serif" font-size="10.00" fill="#000000"> chartdim_B &gt;</text>
</g>
<!-- Node8 -->
<g id="node9" class="node">
<title>Node8</title>
<g id="a_node9"><a xlink:href="classChartManifold.html" target="_top" xlink:title="ChartManifold\&lt; dim,\l spacedim, 1 \&gt;">
<polygon fill="#ffffff" stroke="#000000" points="592.0894,-297.5 592.0894,-325.5 697.8501,-325.5 697.8501,-297.5 592.0894,-297.5"/>
<text text-anchor="start" x="600.0894" y="-313.5" font-family="Helvetica,sans-Serif" font-size="10.00" fill="#000000">ChartManifold&lt; dim,</text>
<text text-anchor="middle" x="644.9697" y="-303.5" font-family="Helvetica,sans-Serif" font-size="10.00" fill="#000000"> spacedim, 1 &gt;</text>
</a>
</g>
</g>
<!-- Node0&#45;&gt;Node8 -->
<g id="edge8" class="edge">
<title>Node0&#45;&gt;Node8</title>
<path fill="none" stroke="#ffa500" stroke-dasharray="5,2" d="M383.4698,-281.4072C391.6588,-283.7287 400.1017,-285.8705 408.1738,-287.5 470.5499,-300.092 543.5708,-306.2193 591.8571,-309.103"/>
<polygon fill="#ffa500" stroke="#ffa500" points="384.2308,-277.9826 373.6491,-278.5089 382.2494,-284.6964 384.2308,-277.9826"/>
<text text-anchor="middle" x="479.1797" y="-307.5" font-family="Helvetica,sans-Serif" font-size="10.00" fill="#000000"> &lt; dim, spacedim, 1 &gt;</text>
</g>
<!-- Node10 -->
<g id="node11" class="node">
<title>Node10</title>
<g id="a_node11"><a xlink:href="classChartManifold.html" target="_top" xlink:title="ChartManifold\&lt; dim\l_A, spacedim_A, chartdim_A \&gt;">
<polygon fill="#ffffff" stroke="#000000" points="568.459,-250.5 568.459,-278.5 721.4805,-278.5 721.4805,-250.5 568.459,-250.5"/>
<text text-anchor="start" x="576.459" y="-266.5" font-family="Helvetica,sans-Serif" font-size="10.00" fill="#000000">ChartManifold&lt; dim</text>
<text text-anchor="middle" x="644.9697" y="-256.5" font-family="Helvetica,sans-Serif" font-size="10.00" fill="#000000">_A, spacedim_A, chartdim_A &gt;</text>
</a>
</g>
</g>
<!-- Node0&#45;&gt;Node10 -->
<g id="edge10" class="edge">
<title>Node0&#45;&gt;Node10</title>
<path fill="none" stroke="#ffa500" stroke-dasharray="5,2" d="M400.5814,-264.5C449.9709,-264.5 517.0592,-264.5 568.4502,-264.5"/>
<polygon fill="#ffa500" stroke="#ffa500" points="400.323,-261.0001 390.3229,-264.5 400.3229,-268.0001 400.323,-261.0001"/>
<text text-anchor="start" x="427.627" y="-276.5" font-family="Helvetica,sans-Serif" font-size="10.00" fill="#000000"> &lt; dim_A, spacedim_A,</text>
<text text-anchor="middle" x="479.1797" y="-266.5" font-family="Helvetica,sans-Serif" font-size="10.00" fill="#000000"> chartdim_A &gt;</text>
</g>
<!-- Node11 -->
<g id="node12" class="node">
<title>Node11</title>
<g id="a_node12"><a xlink:href="classChartManifold.html" target="_top" xlink:title="ChartManifold\&lt; dim1,\l intermediate_dim, chartdim \&gt;">
<polygon fill="#ffffff" stroke="#000000" points="570.9688,-203.5 570.9688,-231.5 718.9707,-231.5 718.9707,-203.5 570.9688,-203.5"/>
<text text-anchor="start" x="578.9688" y="-219.5" font-family="Helvetica,sans-Serif" font-size="10.00" fill="#000000">ChartManifold&lt; dim1,</text>
<text text-anchor="middle" x="644.9697" y="-209.5" font-family="Helvetica,sans-Serif" font-size="10.00" fill="#000000"> intermediate_dim, chartdim &gt;</text>
</a>
</g>
</g>
<!-- Node0&#45;&gt;Node11 -->
<g id="edge11" class="edge">
<title>Node0&#45;&gt;Node11</title>
<path fill="none" stroke="#ffa500" stroke-dasharray="5,2" d="M381.415,-247.3995C390.2311,-244.7536 399.4129,-242.3049 408.1738,-240.5 461.9781,-229.4155 523.7906,-223.6405 570.7678,-220.65"/>
<polygon fill="#ffa500" stroke="#ffa500" points="380.1605,-244.1245 371.6587,-250.4468 382.2474,-250.8062 380.1605,-244.1245"/>
<text text-anchor="start" x="432.3511" y="-252.5" font-family="Helvetica,sans-Serif" font-size="10.00" fill="#000000"> &lt; dim1, intermediate</text>
<text text-anchor="middle" x="479.1797" y="-242.5" font-family="Helvetica,sans-Serif" font-size="10.00" fill="#000000">_dim, chartdim &gt;</text>
</g>
<!-- Node12 -->
<g id="node13" class="node">
<title>Node12</title>
<g id="a_node13"><a xlink:href="classChartManifold.html" target="_top" xlink:title="ChartManifold\&lt; dim,\l spacedim, spacedim \&gt;">
<polygon fill="#ffffff" stroke="#000000" points="585.6953,-156.5 585.6953,-184.5 704.2441,-184.5 704.2441,-156.5 585.6953,-156.5"/>
<text text-anchor="start" x="593.6953" y="-172.5" font-family="Helvetica,sans-Serif" font-size="10.00" fill="#000000">ChartManifold&lt; dim,</text>
<text text-anchor="middle" x="644.9697" y="-162.5" font-family="Helvetica,sans-Serif" font-size="10.00" fill="#000000"> spacedim, spacedim &gt;</text>
</a>
</g>
</g>
<!-- Node0&#45;&gt;Node12 -->
<g id="edge12" class="edge">
<title>Node0&#45;&gt;Node12</title>
<path fill="none" stroke="#ffa500" stroke-dasharray="5,2" d="M355.2237,-243.4845C369.2964,-231.318 388.5231,-216.8102 408.1738,-208.5 465.3127,-184.3361 536.1554,-175.4276 585.3934,-172.202"/>
<polygon fill="#ffa500" stroke="#ffa500" points="352.7015,-241.0442 347.5691,-250.313 357.3614,-246.2678 352.7015,-241.0442"/>
<text text-anchor="middle" x="479.1797" y="-210.5" font-family="Helvetica,sans-Serif" font-size="10.00" fill="#000000"> &lt; dim, spacedim, spacedim &gt;</text>
</g>
<!-- Node14 -->
<g id="node15" class="node">
<title>Node14</title>
<g id="a_node15"><a xlink:href="classChartManifold.html" target="_top" xlink:title="ChartManifold\&lt; dim2,\l spacedim, intermediate_dim \&gt;">
<polygon fill="#ffffff" stroke="#000000" points="568.7422,-109.5 568.7422,-137.5 721.1973,-137.5 721.1973,-109.5 568.7422,-109.5"/>
<text text-anchor="start" x="576.7422" y="-125.5" font-family="Helvetica,sans-Serif" font-size="10.00" fill="#000000">ChartManifold&lt; dim2,</text>
<text text-anchor="middle" x="644.9697" y="-115.5" font-family="Helvetica,sans-Serif" font-size="10.00" fill="#000000"> spacedim, intermediate_dim &gt;</text>
</a>
</g>
</g>
<!-- Node0&#45;&gt;Node14 -->
<g id="edge14" class="edge">
<title>Node0&#45;&gt;Node14</title>
<path fill="none" stroke="#ffa500" stroke-dasharray="5,2" d="M341.9863,-240.6535C353.1218,-214.3208 374.9034,-172.951 408.1738,-152.5 455.8962,-123.1655 519.2882,-116.7325 568.4723,-117.1902"/>
<polygon fill="#ffa500" stroke="#ffa500" points="338.606,-239.6777 338.1125,-250.2611 345.0981,-242.2954 338.606,-239.6777"/>
<text text-anchor="start" x="408.1738" y="-164.5" font-family="Helvetica,sans-Serif" font-size="10.00" fill="#000000"> &lt; dim2, spacedim, intermediate</text>
<text text-anchor="middle" x="479.1797" y="-154.5" font-family="Helvetica,sans-Serif" font-size="10.00" fill="#000000">_dim &gt;</text>
</g>
<!-- Node15 -->
<g id="node16" class="node">
<title>Node15</title>
<g id="a_node16"><a xlink:href="classChartManifold.html" target="_top" xlink:title="ChartManifold\&lt; dim,\l 3, 3 \&gt;">
<polygon fill="#ffffff" stroke="#000000" points="592.0894,-62.5 592.0894,-90.5 697.8501,-90.5 697.8501,-62.5 592.0894,-62.5"/>
<text text-anchor="start" x="600.0894" y="-78.5" font-family="Helvetica,sans-Serif" font-size="10.00" fill="#000000">ChartManifold&lt; dim,</text>
<text text-anchor="middle" x="644.9697" y="-68.5" font-family="Helvetica,sans-Serif" font-size="10.00" fill="#000000"> 3, 3 &gt;</text>
</a>
</g>
</g>
<!-- Node0&#45;&gt;Node15 -->
<g id="edge15" class="edge">
<title>Node0&#45;&gt;Node15</title>
<path fill="none" stroke="#ffa500" stroke-dasharray="5,2" d="M336.8776,-240.234C343.8781,-203.9515 362.5874,-136.3254 408.1738,-103.5 461.5622,-65.0567 539.978,-63.9517 591.7375,-68.6337"/>
<polygon fill="#ffa500" stroke="#ffa500" points="333.3721,-239.9558 335.0641,-250.4146 340.2636,-241.1834 333.3721,-239.9558"/>
<text text-anchor="middle" x="479.1797" y="-105.5" font-family="Helvetica,sans-Serif" font-size="10.00" fill="#000000"> &lt; dim, 3, 3 &gt;</text>
</g>
<!-- Node17 -->
<g id="node18" class="node">
<title>Node17</title>
<g id="a_node18"><a xlink:href="classChartManifold.html" target="_top" xlink:title="ChartManifold\&lt; dim,\l spacedim_A+spacedim\l_B, chartdim_A+chartdim_B \&gt;">
<polygon fill="#ffffff" stroke="#000000" points="570.2705,-5.5 570.2705,-43.5 719.6689,-43.5 719.6689,-5.5 570.2705,-5.5"/>
<text text-anchor="start" x="578.2705" y="-31.5" font-family="Helvetica,sans-Serif" font-size="10.00" fill="#000000">ChartManifold&lt; dim,</text>
<text text-anchor="start" x="578.2705" y="-21.5" font-family="Helvetica,sans-Serif" font-size="10.00" fill="#000000"> spacedim_A+spacedim</text>
<text text-anchor="middle" x="644.9697" y="-11.5" font-family="Helvetica,sans-Serif" font-size="10.00" fill="#000000">_B, chartdim_A+chartdim_B &gt;</text>
</a>
</g>
</g>
<!-- Node0&#45;&gt;Node17 -->
<g id="edge17" class="edge">
<title>Node0&#45;&gt;Node17</title>
<path fill="none" stroke="#ffa500" stroke-dasharray="5,2" d="M337.8481,-240.4476C348.5713,-188.463 376.3152,-68.315 408.1738,-43.5 453.4003,-8.2726 519.3246,-5.6985 570.1368,-10.7038"/>
<polygon fill="#ffa500" stroke="#ffa500" points="334.3776,-239.9513 335.8229,-250.4471 341.2383,-241.3409 334.3776,-239.9513"/>
<text text-anchor="start" x="410.813" y="-55.5" font-family="Helvetica,sans-Serif" font-size="10.00" fill="#000000"> &lt; dim, spacedim_A+spacedim</text>
<text text-anchor="middle" x="479.1797" y="-45.5" font-family="Helvetica,sans-Serif" font-size="10.00" fill="#000000">_B, chartdim_A+chartdim_B &gt;</text>
</g>
<!-- Node1 -->
<g id="node2" class="node">
<title>Node1</title>
<g id="a_node2"><a xlink:href="classManifold.html" target="_top" xlink:title="Manifold\&lt; dim, spacedim \&gt;">
<polygon fill="#ffffff" stroke="#000000" points="103.5762,-255.5 103.5762,-273.5 239.0781,-273.5 239.0781,-255.5 103.5762,-255.5"/>
<text text-anchor="middle" x="171.3271" y="-261.5" font-family="Helvetica,sans-Serif" font-size="10.00" fill="#000000">Manifold&lt; dim, spacedim &gt;</text>
</a>
</g>
</g>
<!-- Node1&#45;&gt;Node0 -->
<g id="edge1" class="edge">
<title>Node1&#45;&gt;Node0</title>
<path fill="none" stroke="#191970" d="M249.5301,-264.5C258.4728,-264.5 267.4595,-264.5 276.0524,-264.5"/>
<polygon fill="#191970" stroke="#191970" points="249.4755,-261.0001 239.4755,-264.5 249.4754,-268.0001 249.4755,-261.0001"/>
</g>
<!-- Node2 -->
<g id="node3" class="node">
<title>Node2</title>
<g id="a_node3"><a xlink:href="classSubscriptor.html" target="_top" xlink:title="Subscriptor">
<polygon fill="#ffffff" stroke="#000000" points="0,-255.5 0,-273.5 66.5762,-273.5 66.5762,-255.5 0,-255.5"/>
<text text-anchor="middle" x="33.2881" y="-261.5" font-family="Helvetica,sans-Serif" font-size="10.00" fill="#000000">Subscriptor</text>
</a>
</g>
</g>
<!-- Node2&#45;&gt;Node1 -->
<g id="edge2" class="edge">
<title>Node2&#45;&gt;Node1</title>
<path fill="none" stroke="#191970" d="M76.9826,-264.5C85.3786,-264.5 94.3551,-264.5 103.3091,-264.5"/>
<polygon fill="#191970" stroke="#191970" points="76.7035,-261.0001 66.7035,-264.5 76.7035,-268.0001 76.7035,-261.0001"/>
</g>
<!-- Node6 -->
<g id="node7" class="node">
<title>Node6</title>
<g id="a_node7"><a xlink:href="classOpenCASCADE_1_1NURBSPatchManifold.html" target="_top" xlink:title="OpenCASCADE::NURBSPatchManifold\l\&lt; dim, spacedim \&gt;">
<polygon fill="#ffffff" stroke="#000000" points="758.7539,-391.5 758.7539,-419.5 951.4922,-419.5 951.4922,-391.5 758.7539,-391.5"/>
<text text-anchor="start" x="766.7539" y="-407.5" font-family="Helvetica,sans-Serif" font-size="10.00" fill="#000000">OpenCASCADE::NURBSPatchManifold</text>
<text text-anchor="middle" x="855.123" y="-397.5" font-family="Helvetica,sans-Serif" font-size="10.00" fill="#000000">&lt; dim, spacedim &gt;</text>
</a>
</g>
</g>
<!-- Node5&#45;&gt;Node6 -->
<g id="edge6" class="edge">
<title>Node5&#45;&gt;Node6</title>
<path fill="none" stroke="#191970" d="M708.2224,-405.5C724.1427,-405.5 741.5936,-405.5 758.7341,-405.5"/>
<polygon fill="#191970" stroke="#191970" points="708.0003,-402.0001 698.0003,-405.5 708.0002,-409.0001 708.0003,-402.0001"/>
</g>
<!-- Node9 -->
<g id="node10" class="node">
<title>Node9</title>
<g id="a_node10"><a xlink:href="classOpenCASCADE_1_1ArclengthProjectionLineManifold.html" target="_top" xlink:title="OpenCASCADE::ArclengthProjection\lLineManifold\&lt; dim, spacedim \&gt;">
<polygon fill="#ffffff" stroke="#000000" points="764.584,-297.5 764.584,-325.5 945.6621,-325.5 945.6621,-297.5 764.584,-297.5"/>
<text text-anchor="start" x="772.584" y="-313.5" font-family="Helvetica,sans-Serif" font-size="10.00" fill="#000000">OpenCASCADE::ArclengthProjection</text>
<text text-anchor="middle" x="855.123" y="-303.5" font-family="Helvetica,sans-Serif" font-size="10.00" fill="#000000">LineManifold&lt; dim, spacedim &gt;</text>
</a>
</g>
</g>
<!-- Node8&#45;&gt;Node9 -->
<g id="edge9" class="edge">
<title>Node8&#45;&gt;Node9</title>
<path fill="none" stroke="#191970" d="M708.1925,-311.5C725.9081,-311.5 745.521,-311.5 764.4934,-311.5"/>
<polygon fill="#191970" stroke="#191970" points="708.0003,-308.0001 698.0003,-311.5 708.0002,-315.0001 708.0003,-308.0001"/>
</g>
<!-- Node13 -->
<g id="node14" class="node">
<title>Node13</title>
<g id="a_node14"><a xlink:href="classPolarManifold.html" target="_top" xlink:title="PolarManifold\&lt; dim,\l spacedim \&gt;">
<polygon fill="#ffffff" stroke="#000000" points="802.7969,-156.5 802.7969,-184.5 907.4492,-184.5 907.4492,-156.5 802.7969,-156.5"/>
<text text-anchor="start" x="810.7969" y="-172.5" font-family="Helvetica,sans-Serif" font-size="10.00" fill="#000000">PolarManifold&lt; dim,</text>
<text text-anchor="middle" x="855.123" y="-162.5" font-family="Helvetica,sans-Serif" font-size="10.00" fill="#000000"> spacedim &gt;</text>
</a>
</g>
</g>
<!-- Node12&#45;&gt;Node13 -->
<g id="edge13" class="edge">
<title>Node12&#45;&gt;Node13</title>
<path fill="none" stroke="#191970" d="M714.7215,-170.5C743.4156,-170.5 776.0871,-170.5 802.689,-170.5"/>
<polygon fill="#191970" stroke="#191970" points="714.3486,-167.0001 704.3486,-170.5 714.3485,-174.0001 714.3486,-167.0001"/>
</g>
<!-- Node16 -->
<g id="node17" class="node">
<title>Node16</title>
<g id="a_node17"><a xlink:href="classTorusManifold.html" target="_top" xlink:title="TorusManifold\&lt; dim \&gt;">
<polygon fill="#ffffff" stroke="#000000" points="799.3228,-67.5 799.3228,-85.5 910.9233,-85.5 910.9233,-67.5 799.3228,-67.5"/>
<text text-anchor="middle" x="855.123" y="-73.5" font-family="Helvetica,sans-Serif" font-size="10.00" fill="#000000">TorusManifold&lt; dim &gt;</text>
</a>
</g>
</g>
<!-- Node15&#45;&gt;Node16 -->
<g id="edge16" class="edge">
<title>Node15&#45;&gt;Node16</title>
<path fill="none" stroke="#191970" d="M708.022,-76.5C737.009,-76.5 771.1046,-76.5 799.1681,-76.5"/>
<polygon fill="#191970" stroke="#191970" points="708.0003,-73.0001 698.0003,-76.5 708.0002,-80.0001 708.0003,-73.0001"/>
</g>
<!-- Node18 -->
<g id="node19" class="node">
<title>Node18</title>
<g id="a_node19"><a xlink:href="classTensorProductManifold.html" target="_top" xlink:title="Tensor product manifold of two ChartManifolds. ">
<polygon fill="#ffffff" stroke="#000000" points="785.8438,-.5 785.8438,-48.5 924.4023,-48.5 924.4023,-.5 785.8438,-.5"/>
<text text-anchor="start" x="793.8438" y="-36.5" font-family="Helvetica,sans-Serif" font-size="10.00" fill="#000000">TensorProductManifold</text>
<text text-anchor="start" x="793.8438" y="-26.5" font-family="Helvetica,sans-Serif" font-size="10.00" fill="#000000">&lt; dim, dim_A, spacedim</text>
<text text-anchor="start" x="793.8438" y="-16.5" font-family="Helvetica,sans-Serif" font-size="10.00" fill="#000000">_A, chartdim_A, dim_B,</text>
<text text-anchor="middle" x="855.123" y="-6.5" font-family="Helvetica,sans-Serif" font-size="10.00" fill="#000000"> spacedim_B, chartdim_B &gt;</text>
</a>
</g>
</g>
<!-- Node17&#45;&gt;Node18 -->
<g id="edge18" class="edge">
<title>Node17&#45;&gt;Node18</title>
<path fill="none" stroke="#191970" d="M730.1248,-24.5C748.6257,-24.5 767.9819,-24.5 785.7844,-24.5"/>
<polygon fill="#191970" stroke="#191970" points="729.9499,-21.0001 719.9499,-24.5 729.9498,-28.0001 729.9499,-21.0001"/>
</g>
</g>
</svg>
