<?xml version="1.0" encoding="UTF-8" standalone="no"?>
<!DOCTYPE svg PUBLIC "-//W3C//DTD SVG 1.1//EN"
 "http://www.w3.org/Graphics/SVG/1.1/DTD/svg11.dtd">
<!-- Generated by graphviz version 2.40.1 (20161225.0304)
 -->
<!-- Title: SLEPcWrappers::TransformationBase Pages: 1 -->
<svg width="391pt" height="178pt"
 viewBox="0.00 0.00 391.15 178.00" xmlns="http://www.w3.org/2000/svg" xmlns:xlink="http://www.w3.org/1999/xlink">
<g id="graph0" class="graph" transform="scale(1 1) rotate(0) translate(4 174)">
<title>SLEPcWrappers::TransformationBase</title>
<polygon fill="#ffffff" stroke="transparent" points="-4,4 -4,-174 387.1465,-174 387.1465,4 -4,4"/>
<!-- Node0 -->
<g id="node1" class="node">
<title>Node0</title>
<polygon fill="#bfbfbf" stroke="#000000" points="0,-75.5 0,-93.5 184.9697,-93.5 184.9697,-75.5 0,-75.5"/>
<text text-anchor="middle" x="92.4849" y="-81.5" font-family="Helvetica,sans-Serif" font-size="10.00" fill="#000000">SLEPcWrappers::TransformationBase</text>
</g>
<!-- Node1 -->
<g id="node2" class="node">
<title>Node1</title>
<g id="a_node2"><a xlink:href="classSLEPcWrappers_1_1TransformationCayley.html" target="_top" xlink:title="SLEPcWrappers::Transformation\lCayley">
<polygon fill="#ffffff" stroke="#000000" points="220.9697,-141.5 220.9697,-169.5 383.1465,-169.5 383.1465,-141.5 220.9697,-141.5"/>
<text text-anchor="start" x="228.9697" y="-157.5" font-family="Helvetica,sans-Serif" font-size="10.00" fill="#000000">SLEPcWrappers::Transformation</text>
<text text-anchor="middle" x="302.0581" y="-147.5" font-family="Helvetica,sans-Serif" font-size="10.00" fill="#000000">Cayley</text>
</a>
</g>
</g>
<!-- Node0&#45;&gt;Node1 -->
<g id="edge1" class="edge">
<title>Node0&#45;&gt;Node1</title>
<path fill="none" stroke="#191970" d="M124.6784,-97.3557C150.5122,-107.4702 187.8119,-121.6238 220.9697,-132.5 230.2856,-135.5557 240.2795,-138.5874 249.9584,-141.3983"/>
<polygon fill="#191970" stroke="#191970" points="125.6203,-93.965 115.0332,-93.5584 123.0559,-100.4784 125.6203,-93.965"/>
</g>
<!-- Node2 -->
<g id="node3" class="node">
<title>Node2</title>
<g id="a_node3"><a xlink:href="classSLEPcWrappers_1_1TransformationShift.html" target="_top" xlink:title="SLEPcWrappers::Transformation\lShift">
<polygon fill="#ffffff" stroke="#000000" points="220.9697,-94.5 220.9697,-122.5 383.1465,-122.5 383.1465,-94.5 220.9697,-94.5"/>
<text text-anchor="start" x="228.9697" y="-110.5" font-family="Helvetica,sans-Serif" font-size="10.00" fill="#000000">SLEPcWrappers::Transformation</text>
<text text-anchor="middle" x="302.0581" y="-100.5" font-family="Helvetica,sans-Serif" font-size="10.00" fill="#000000">Shift</text>
</a>
</g>
</g>
<!-- Node0&#45;&gt;Node2 -->
<g id="edge2" class="edge">
<title>Node0&#45;&gt;Node2</title>
<path fill="none" stroke="#191970" d="M181.1241,-94.6508C194.3162,-96.1616 207.8581,-97.7124 220.8863,-99.2043"/>
<polygon fill="#191970" stroke="#191970" points="181.4518,-91.1656 171.1185,-93.505 180.6553,-98.1201 181.4518,-91.1656"/>
</g>
<!-- Node3 -->
<g id="node4" class="node">
<title>Node3</title>
<g id="a_node4"><a xlink:href="classSLEPcWrappers_1_1TransformationShiftInvert.html" target="_top" xlink:title="SLEPcWrappers::Transformation\lShiftInvert">
<polygon fill="#ffffff" stroke="#000000" points="220.9697,-47.5 220.9697,-75.5 383.1465,-75.5 383.1465,-47.5 220.9697,-47.5"/>
<text text-anchor="start" x="228.9697" y="-63.5" font-family="Helvetica,sans-Serif" font-size="10.00" fill="#000000">SLEPcWrappers::Transformation</text>
<text text-anchor="middle" x="302.0581" y="-53.5" font-family="Helvetica,sans-Serif" font-size="10.00" fill="#000000">ShiftInvert</text>
</a>
</g>
</g>
<!-- Node0&#45;&gt;Node3 -->
<g id="edge3" class="edge">
<title>Node0&#45;&gt;Node3</title>
<path fill="none" stroke="#191970" d="M184.7265,-74.3768C196.7273,-73.0597 208.9508,-71.7182 220.7551,-70.4227"/>
<polygon fill="#191970" stroke="#191970" points="184.2707,-70.9057 174.7123,-75.4758 185.0344,-77.8639 184.2707,-70.9057"/>
</g>
<!-- Node4 -->
<g id="node5" class="node">
<title>Node4</title>
<g id="a_node5"><a xlink:href="classSLEPcWrappers_1_1TransformationSpectrumFolding.html" target="_top" xlink:title="SLEPcWrappers::Transformation\lSpectrumFolding">
<polygon fill="#ffffff" stroke="#000000" points="220.9697,-.5 220.9697,-28.5 383.1465,-28.5 383.1465,-.5 220.9697,-.5"/>
<text text-anchor="start" x="228.9697" y="-16.5" font-family="Helvetica,sans-Serif" font-size="10.00" fill="#000000">SLEPcWrappers::Transformation</text>
<text text-anchor="middle" x="302.0581" y="-6.5" font-family="Helvetica,sans-Serif" font-size="10.00" fill="#000000">SpectrumFolding</text>
</a>
</g>
</g>
<!-- Node0&#45;&gt;Node4 -->
<g id="edge4" class="edge">
<title>Node0&#45;&gt;Node4</title>
<path fill="none" stroke="#191970" d="M126.1768,-71.854C151.991,-62.3071 188.5618,-49.0881 220.9697,-38.5 231.2969,-35.126 242.4291,-31.6972 253.0382,-28.5273"/>
<polygon fill="#191970" stroke="#191970" points="124.6567,-68.6849 116.5004,-75.447 127.0933,-75.2471 124.6567,-68.6849"/>
</g>
</g>
</svg>
