<?xml version="1.0" encoding="UTF-8" standalone="no"?>
<!DOCTYPE svg PUBLIC "-//W3C//DTD SVG 1.1//EN"
 "http://www.w3.org/Graphics/SVG/1.1/DTD/svg11.dtd">
<!-- Generated by graphviz version 2.40.1 (20161225.0304)
 -->
<!-- Title: BlockSparseMatrix&lt; number &gt; Pages: 1 -->
<svg width="270pt" height="224pt"
 viewBox="0.00 0.00 270.06 224.00" xmlns="http://www.w3.org/2000/svg" xmlns:xlink="http://www.w3.org/1999/xlink">
<g id="graph0" class="graph" transform="scale(1 1) rotate(0) translate(4 220)">
<title>BlockSparseMatrix&lt; number &gt;</title>
<polygon fill="#ffffff" stroke="transparent" points="-4,4 -4,-220 266.0596,-220 266.0596,4 -4,4"/>
<!-- Node0 -->
<g id="node1" class="node">
<title>Node0</title>
<polygon fill="#bfbfbf" stroke="#000000" points="26.3965,-.5 26.3965,-28.5 131.5957,-28.5 131.5957,-.5 26.3965,-.5"/>
<text text-anchor="start" x="34.3965" y="-16.5" font-family="Helvetica,sans-Serif" font-size="10.00" fill="#000000">BlockSparseMatrix&lt;</text>
<text text-anchor="middle" x="78.9961" y="-6.5" font-family="Helvetica,sans-Serif" font-size="10.00" fill="#000000"> number &gt;</text>
</g>
<!-- Node1 -->
<g id="node2" class="node">
<title>Node1</title>
<g id="a_node2"><a xlink:href="classBlockMatrixBase.html" target="_top" xlink:title="BlockMatrixBase\&lt; SparseMatrix\l\&lt; number \&gt; \&gt;">
<polygon fill="#ffffff" stroke="#000000" points="0,-66.5 0,-94.5 157.9922,-94.5 157.9922,-66.5 0,-66.5"/>
<text text-anchor="start" x="8" y="-82.5" font-family="Helvetica,sans-Serif" font-size="10.00" fill="#000000">BlockMatrixBase&lt; SparseMatrix</text>
<text text-anchor="middle" x="78.9961" y="-72.5" font-family="Helvetica,sans-Serif" font-size="10.00" fill="#000000">&lt; number &gt; &gt;</text>
</a>
</g>
</g>
<!-- Node1&#45;&gt;Node0 -->
<g id="edge1" class="edge">
<title>Node1&#45;&gt;Node0</title>
<path fill="none" stroke="#191970" d="M78.9961,-56.0322C78.9961,-46.8606 78.9961,-36.7449 78.9961,-28.7931"/>
<polygon fill="#191970" stroke="#191970" points="75.4962,-56.1789 78.9961,-66.179 82.4962,-56.179 75.4962,-56.1789"/>
</g>
<!-- Node2 -->
<g id="node3" class="node">
<title>Node2</title>
<g id="a_node3"><a xlink:href="classSubscriptor.html" target="_top" xlink:title="Subscriptor">
<polygon fill="#ffffff" stroke="#000000" points="41.708,-197.5 41.708,-215.5 108.2842,-215.5 108.2842,-197.5 41.708,-197.5"/>
<text text-anchor="middle" x="74.9961" y="-203.5" font-family="Helvetica,sans-Serif" font-size="10.00" fill="#000000">Subscriptor</text>
</a>
</g>
</g>
<!-- Node2&#45;&gt;Node1 -->
<g id="edge2" class="edge">
<title>Node2&#45;&gt;Node1</title>
<path fill="none" stroke="#191970" d="M75.6091,-187.1897C76.4188,-161.6844 77.826,-117.3578 78.545,-94.7089"/>
<polygon fill="#191970" stroke="#191970" points="72.1029,-187.3323 75.2838,-197.4384 79.0994,-187.5545 72.1029,-187.3323"/>
</g>
<!-- Node3 -->
<g id="node4" class="node">
<title>Node3</title>
<g id="a_node4"><a xlink:href="classBlockMatrixBase.html" target="_top" xlink:title="BlockMatrixBase\&lt; MatrixType \&gt;">
<polygon fill="#ffffff" stroke="#000000" points="90.6909,-141.5 90.6909,-159.5 247.3013,-159.5 247.3013,-141.5 90.6909,-141.5"/>
<text text-anchor="middle" x="168.9961" y="-147.5" font-family="Helvetica,sans-Serif" font-size="10.00" fill="#000000">BlockMatrixBase&lt; MatrixType &gt;</text>
</a>
</g>
</g>
<!-- Node2&#45;&gt;Node3 -->
<g id="edge4" class="edge">
<title>Node2&#45;&gt;Node3</title>
<path fill="none" stroke="#191970" d="M99.4395,-191.938C116.6233,-181.7008 139.0805,-168.3221 153.7627,-159.5752"/>
<polygon fill="#191970" stroke="#191970" points="97.318,-189.1278 90.5183,-197.2527 100.9006,-195.1415 97.318,-189.1278"/>
</g>
<!-- Node3&#45;&gt;Node1 -->
<g id="edge3" class="edge">
<title>Node3&#45;&gt;Node1</title>
<path fill="none" stroke="#ffa500" stroke-dasharray="5,2" d="M149.3182,-135.195C133.8397,-123.1561 112.435,-106.508 97.3174,-94.7499"/>
<polygon fill="#ffa500" stroke="#ffa500" points="147.1878,-137.972 157.2302,-141.3487 151.4854,-132.4465 147.1878,-137.972"/>
<text text-anchor="middle" x="197.0278" y="-115" font-family="Helvetica,sans-Serif" font-size="10.00" fill="#000000"> &lt; SparseMatrix&lt; number &gt; &gt;</text>
</g>
</g>
</svg>
