<?xml version="1.0" encoding="UTF-8" standalone="no"?>
<!DOCTYPE svg PUBLIC "-//W3C//DTD SVG 1.1//EN"
 "http://www.w3.org/Graphics/SVG/1.1/DTD/svg11.dtd">
<!-- Generated by graphviz version 2.40.1 (20161225.0304)
 -->
<!-- Title: StepsDescription Pages: 1 -->
<svg width="787pt" height="120pt"
 viewBox="0.00 0.00 786.87 120.00" xmlns="http://www.w3.org/2000/svg" xmlns:xlink="http://www.w3.org/1999/xlink">
<g id="graph0" class="graph" transform="scale(1 1) rotate(0) translate(4 116)">
<title>StepsDescription</title>
<polygon fill="#ffffff" stroke="transparent" points="-4,4 -4,-116 782.8716,-116 782.8716,4 -4,4"/>
<!-- basic -->
<g id="node1" class="node">
<title>basic</title>
<polygon fill="#00ff00" stroke="#000000" points="104.8003,-70.9878 104.8003,-95.0122 87.8125,-112 63.7881,-112 46.8003,-95.0122 46.8003,-70.9878 63.7881,-54 87.8125,-54 104.8003,-70.9878"/>
</g>
<!-- fake_basic -->
<g id="node2" class="node">
<title>fake_basic</title>
<polygon fill="#ffffff" stroke="transparent" points="91.4017,-18 .1988,-18 .1988,0 91.4017,0 91.4017,-18"/>
<text text-anchor="middle" x="45.8003" y="-6" font-family="FreeSans" font-size="10.00" fill="#000000">Basic techniques</text>
</g>
<!-- basic&#45;&#45;fake_basic -->
<g id="edge1" class="edge">
<title>basic&#45;&#45;fake_basic</title>
<path fill="none" stroke="#000000" stroke-dasharray="1,5" d="M63.9435,-53.7532C58.7681,-40.9872 53.0699,-26.9318 49.4657,-18.0415"/>
</g>
<!-- techniques -->
<g id="node5" class="node">
<title>techniques</title>
<polygon fill="#ffa500" stroke="#000000" points="178.3003,-95.5 153.3003,-95.5 153.3003,-70.5 178.3003,-70.5 178.3003,-95.5"/>
</g>
<!-- basic&#45;&#45;techniques -->
<g id="edge8" class="edge">
<title>basic&#45;&#45;techniques</title>
<path fill="none" stroke="#000000" d="M104.98,-83C120.977,-83 136.974,-83 152.971,-83"/>
</g>
<!-- code_gallery -->
<g id="node3" class="node">
<title>code_gallery</title>
<ellipse fill="#ffffff" stroke="#000000" cx="708.8003" cy="-83" rx="4.5" ry="4.5"/>
</g>
<!-- fake_code_gallery -->
<g id="node4" class="node">
<title>fake_code_gallery</title>
<polygon fill="#ffffff" stroke="transparent" points="778.943,-18 706.6576,-18 706.6576,0 778.943,0 778.943,-18"/>
<text text-anchor="middle" x="742.8003" y="-6" font-family="FreeSans" font-size="10.00" fill="#000000">Code gallery</text>
</g>
<!-- code_gallery&#45;&#45;fake_code_gallery -->
<g id="edge2" class="edge">
<title>code_gallery&#45;&#45;fake_code_gallery</title>
<path fill="none" stroke="#000000" stroke-dasharray="1,5" d="M710.8253,-78.5926C716.2578,-66.7689 731.2396,-34.1615 738.6035,-18.1341"/>
</g>
<!-- fake_techniques -->
<g id="node6" class="node">
<title>fake_techniques</title>
<polygon fill="#ffffff" stroke="transparent" points="221.4259,-18 110.1747,-18 110.1747,0 221.4259,0 221.4259,-18"/>
<text text-anchor="middle" x="165.8003" y="-6" font-family="FreeSans" font-size="10.00" fill="#000000">Advanced techniques</text>
</g>
<!-- techniques&#45;&#45;fake_techniques -->
<g id="edge3" class="edge">
<title>techniques&#45;&#45;fake_techniques</title>
<path fill="none" stroke="#000000" stroke-dasharray="1,5" d="M165.8003,-70.4469C165.8003,-55.6022 165.8003,-31.2544 165.8003,-18.1063"/>
</g>
<!-- fluids -->
<g id="node9" class="node">
<title>fluids</title>
<polygon fill="#ffff00" stroke="#000000" points="289.8003,-92 271.8003,-92 271.8003,-74 289.8003,-74 289.8003,-92"/>
</g>
<!-- techniques&#45;&#45;fluids -->
<g id="edge9" class="edge">
<title>techniques&#45;&#45;fluids</title>
<path fill="none" stroke="#000000" d="M178.3784,-83C209.4517,-83 240.525,-83 271.5983,-83"/>
</g>
<!-- solids -->
<g id="node7" class="node">
<title>solids</title>
<polygon fill="#add8e6" stroke="#000000" points="393.8003,-92 375.8003,-92 375.8003,-74 393.8003,-74 393.8003,-92"/>
</g>
<!-- fake_solids -->
<g id="node8" class="node">
<title>fake_solids</title>
<polygon fill="#ffffff" stroke="transparent" points="429.113,-18 340.4876,-18 340.4876,0 429.113,0 429.113,-18"/>
<text text-anchor="middle" x="384.8003" y="-6" font-family="FreeSans" font-size="10.00" fill="#000000">Solid mechanics</text>
</g>
<!-- solids&#45;&#45;fake_solids -->
<g id="edge4" class="edge">
<title>solids&#45;&#45;fake_solids</title>
<path fill="none" stroke="#000000" stroke-dasharray="1,5" d="M384.8003,-73.9261C384.8003,-59.7236 384.8003,-32.3962 384.8003,-18.1481"/>
</g>
<!-- time_dependent -->
<g id="node11" class="node">
<title>time_dependent</title>
<polygon fill="#0000ff" stroke="#000000" points="521.8003,-92 503.8003,-92 503.8003,-74 521.8003,-74 521.8003,-92"/>
</g>
<!-- solids&#45;&#45;time_dependent -->
<g id="edge11" class="edge">
<title>solids&#45;&#45;time_dependent</title>
<path fill="none" stroke="#000000" d="M394.0503,-83C430.5412,-83 467.0321,-83 503.5229,-83"/>
</g>
<!-- fluids&#45;&#45;solids -->
<g id="edge10" class="edge">
<title>fluids&#45;&#45;solids</title>
<path fill="none" stroke="#000000" d="M290.144,-83C318.6149,-83 347.0857,-83 375.5565,-83"/>
</g>
<!-- fake_fluids -->
<g id="node10" class="node">
<title>fake_fluids</title>
<polygon fill="#ffffff" stroke="transparent" points="321.9903,-18 239.6103,-18 239.6103,0 321.9903,0 321.9903,-18"/>
<text text-anchor="middle" x="280.8003" y="-6" font-family="FreeSans" font-size="10.00" fill="#000000">Fluid dynamics</text>
</g>
<!-- fluids&#45;&#45;fake_fluids -->
<g id="edge5" class="edge">
<title>fluids&#45;&#45;fake_fluids</title>
<path fill="none" stroke="#000000" stroke-dasharray="1,5" d="M280.8003,-73.9261C280.8003,-59.7236 280.8003,-32.3962 280.8003,-18.1481"/>
</g>
<!-- fake_time_dependent -->
<g id="node12" class="node">
<title>fake_time_dependent</title>
<polygon fill="#ffffff" stroke="transparent" points="578.611,-18 446.9896,-18 446.9896,0 578.611,0 578.611,-18"/>
<text text-anchor="middle" x="512.8003" y="-6" font-family="FreeSans" font-size="10.00" fill="#000000">Time dependent problems</text>
</g>
<!-- time_dependent&#45;&#45;fake_time_dependent -->
<g id="edge6" class="edge">
<title>time_dependent&#45;&#45;fake_time_dependent</title>
<path fill="none" stroke="#000000" stroke-dasharray="1,5" d="M512.8003,-73.9261C512.8003,-59.7236 512.8003,-32.3962 512.8003,-18.1481"/>
</g>
<!-- unfinished -->
<g id="node13" class="node">
<title>unfinished</title>
<polygon fill="none" stroke="#000000" stroke-dasharray="5,2" points="651.8003,-92 633.8003,-92 633.8003,-74 651.8003,-74 651.8003,-92"/>
</g>
<!-- time_dependent&#45;&#45;unfinished -->
<g id="edge12" class="edge">
<title>time_dependent&#45;&#45;unfinished</title>
<path fill="none" stroke="#000000" d="M521.9409,-83C559.08,-83 596.2191,-83 633.3582,-83"/>
</g>
<!-- unfinished&#45;&#45;code_gallery -->
<g id="edge13" class="edge">
<title>unfinished&#45;&#45;code_gallery</title>
<path fill="none" stroke="#000000" d="M651.8237,-83C669.1838,-83 686.5438,-83 703.9039,-83"/>
</g>
<!-- fake_unfinished -->
<g id="node14" class="node">
<title>fake_unfinished</title>
<polygon fill="#ffffff" stroke="transparent" points="689.0146,-18 596.586,-18 596.586,0 689.0146,0 689.0146,-18"/>
<text text-anchor="middle" x="642.8003" y="-6" font-family="FreeSans" font-size="10.00" fill="#000000">Unfinished codes</text>
</g>
<!-- unfinished&#45;&#45;fake_unfinished -->
<g id="edge7" class="edge">
<title>unfinished&#45;&#45;fake_unfinished</title>
<path fill="none" stroke="#000000" stroke-dasharray="1,5" d="M642.8003,-73.9261C642.8003,-59.7236 642.8003,-32.3962 642.8003,-18.1481"/>
</g>
</g>
</svg>
