<?xml version="1.0" encoding="UTF-8" standalone="no"?>
<!DOCTYPE svg PUBLIC "-//W3C//DTD SVG 1.1//EN"
 "http://www.w3.org/Graphics/SVG/1.1/DTD/svg11.dtd">
<!-- Generated by graphviz version 2.40.1 (20161225.0304)
 -->
<!-- Title: G Pages: 1 -->
<svg width="438pt" height="272pt"
 viewBox="0.00 0.00 437.85 272.00" xmlns="http://www.w3.org/2000/svg" xmlns:xlink="http://www.w3.org/1999/xlink">
<g id="graph0" class="graph" transform="scale(1 1) rotate(0) translate(4 268)">
<title>G</title>
<!-- FE -->
<g id="node1" class="node">
<title>FE</title>
<g id="a_node1"><a xlink:href="group__feall.html" target="_top" xlink:title="FiniteElement">
<polygon fill="#ffffff" stroke="#000000" points="120.2314,-240.5 120.2314,-263.5 227.938,-263.5 227.938,-240.5 120.2314,-240.5"/>
<text text-anchor="middle" x="174.0847" y="-247.5" font-family="FreeSans" font-size="15.00" fill="#000000">FiniteElement</text>
</a>
</g>
</g>
<!-- DoFHandler -->
<g id="node3" class="node">
<title>DoFHandler</title>
<g id="a_node3"><a xlink:href="group__dofs.html" target="_top" xlink:title="DoFHandler">
<polygon fill="#ffffff" stroke="#000000" points="125.6514,-180.5 125.6514,-203.5 222.5181,-203.5 222.5181,-180.5 125.6514,-180.5"/>
<text text-anchor="middle" x="174.0847" y="-187.5" font-family="FreeSans" font-size="15.00" fill="#000000">DoFHandler</text>
</a>
</g>
</g>
<!-- FE&#45;&gt;DoFHandler -->
<g id="edge2" class="edge">
<title>FE&#45;&gt;DoFHandler</title>
<path fill="none" stroke="#000000" d="M174.0847,-240.4314C174.0847,-232.8779 174.0847,-222.7793 174.0847,-213.7585"/>
<polygon fill="#000000" stroke="#000000" points="177.5848,-213.5331 174.0847,-203.5331 170.5848,-213.5331 177.5848,-213.5331"/>
</g>
<!-- FEValues -->
<g id="node6" class="node">
<title>FEValues</title>
<g id="a_node6"><a xlink:href="group__feaccess.html" target="_top" xlink:title="FEValues">
<polygon fill="#ffffff" stroke="#000000" points="246.1218,-180.5 246.1218,-203.5 326.0476,-203.5 326.0476,-180.5 246.1218,-180.5"/>
<text text-anchor="middle" x="286.0847" y="-187.5" font-family="FreeSans" font-size="15.00" fill="#000000">FEValues</text>
</a>
</g>
</g>
<!-- FE&#45;&gt;FEValues -->
<g id="edge3" class="edge">
<title>FE&#45;&gt;FEValues</title>
<path fill="none" stroke="#000000" d="M195.6794,-240.4314C212.7231,-231.3008 236.7089,-218.4514 255.6917,-208.282"/>
<polygon fill="#000000" stroke="#000000" points="257.3943,-211.3405 264.5563,-203.5331 254.0887,-205.1702 257.3943,-211.3405"/>
</g>
<!-- Tria -->
<g id="node2" class="node">
<title>Tria</title>
<g id="a_node2"><a xlink:href="group__grid.html" target="_top" xlink:title="Triangulation">
<polygon fill="#ffffff" stroke="#000000" points="0,-240.5 0,-263.5 102.1694,-263.5 102.1694,-240.5 0,-240.5"/>
<text text-anchor="middle" x="51.0847" y="-247.5" font-family="FreeSans" font-size="15.00" fill="#000000">Triangulation</text>
</a>
</g>
</g>
<!-- Tria&#45;&gt;DoFHandler -->
<g id="edge1" class="edge">
<title>Tria&#45;&gt;DoFHandler</title>
<path fill="none" stroke="#000000" d="M74.8004,-240.4314C93.6881,-231.2178 120.339,-218.2174 141.2738,-208.0053"/>
<polygon fill="#000000" stroke="#000000" points="142.9887,-211.0631 150.4419,-203.5331 139.9197,-204.7717 142.9887,-211.0631"/>
</g>
<!-- Linear -->
<g id="node7" class="node">
<title>Linear</title>
<g id="a_node7"><a xlink:href="group__LAC.html" target="_top" xlink:title="Linear Systems">
<polygon fill="#ffffff" stroke="#000000" points="167.3977,-120.5 167.3977,-143.5 286.7717,-143.5 286.7717,-120.5 167.3977,-120.5"/>
<text text-anchor="middle" x="227.0847" y="-127.5" font-family="FreeSans" font-size="15.00" fill="#000000">Linear Systems</text>
</a>
</g>
</g>
<!-- DoFHandler&#45;&gt;Linear -->
<g id="edge7" class="edge">
<title>DoFHandler&#45;&gt;Linear</title>
<path fill="none" stroke="#000000" d="M184.3036,-180.4314C191.6358,-172.1309 201.6828,-160.7569 210.198,-151.1171"/>
<polygon fill="#000000" stroke="#000000" points="212.8999,-153.345 216.8972,-143.5331 207.6536,-148.7107 212.8999,-153.345"/>
</g>
<!-- Quadrature -->
<g id="node4" class="node">
<title>Quadrature</title>
<g id="a_node4"><a xlink:href="group__Quadrature.html" target="_top" xlink:title="Quadrature">
<polygon fill="#ffffff" stroke="#000000" points="246.1453,-240.5 246.1453,-263.5 338.0242,-263.5 338.0242,-240.5 246.1453,-240.5"/>
<text text-anchor="middle" x="292.0847" y="-247.5" font-family="FreeSans" font-size="15.00" fill="#000000">Quadrature</text>
</a>
</g>
</g>
<!-- Quadrature&#45;&gt;FEValues -->
<g id="edge5" class="edge">
<title>Quadrature&#45;&gt;FEValues</title>
<path fill="none" stroke="#000000" d="M290.9279,-240.4314C290.1725,-232.8779 289.1626,-222.7793 288.2606,-213.7585"/>
<polygon fill="#000000" stroke="#000000" points="291.7158,-213.1352 287.238,-203.5331 284.7505,-213.8318 291.7158,-213.1352"/>
</g>
<!-- Mapping -->
<g id="node5" class="node">
<title>Mapping</title>
<g id="a_node5"><a xlink:href="group__mapping.html" target="_top" xlink:title="Mapping">
<polygon fill="#ffffff" stroke="#000000" points="356.3152,-240.5 356.3152,-263.5 429.8542,-263.5 429.8542,-240.5 356.3152,-240.5"/>
<text text-anchor="middle" x="393.0847" y="-247.5" font-family="FreeSans" font-size="15.00" fill="#000000">Mapping</text>
</a>
</g>
</g>
<!-- Mapping&#45;&gt;FEValues -->
<g id="edge4" class="edge">
<title>Mapping&#45;&gt;FEValues</title>
<path fill="none" stroke="#000000" d="M372.454,-240.4314C356.3193,-231.3839 333.6724,-218.6847 315.6167,-208.56"/>
<polygon fill="#000000" stroke="#000000" points="317.0862,-205.3713 306.6521,-203.5331 313.6625,-211.4769 317.0862,-205.3713"/>
</g>
<!-- FEValues&#45;&gt;Linear -->
<g id="edge6" class="edge">
<title>FEValues&#45;&gt;Linear</title>
<path fill="none" stroke="#000000" d="M274.7089,-180.4314C266.4651,-172.0479 255.1383,-160.5291 245.5993,-150.8284"/>
<polygon fill="#000000" stroke="#000000" points="247.9326,-148.2094 238.4256,-143.5331 242.9414,-153.1174 247.9326,-148.2094"/>
</g>
<!-- LinearSolver -->
<g id="node8" class="node">
<title>LinearSolver</title>
<g id="a_node8"><a xlink:href="group__Solvers.html" target="_top" xlink:title="Linear Solvers">
<polygon fill="#ffffff" stroke="#000000" points="171.144,-60.5 171.144,-83.5 283.0254,-83.5 283.0254,-60.5 171.144,-60.5"/>
<text text-anchor="middle" x="227.0847" y="-67.5" font-family="FreeSans" font-size="15.00" fill="#000000">Linear Solvers</text>
</a>
</g>
</g>
<!-- Linear&#45;&gt;LinearSolver -->
<g id="edge8" class="edge">
<title>Linear&#45;&gt;LinearSolver</title>
<path fill="none" stroke="#000000" d="M227.0847,-120.4314C227.0847,-112.8779 227.0847,-102.7793 227.0847,-93.7585"/>
<polygon fill="#000000" stroke="#000000" points="230.5848,-93.5331 227.0847,-83.5331 223.5848,-93.5331 230.5848,-93.5331"/>
</g>
<!-- Output -->
<g id="node9" class="node">
<title>Output</title>
<g id="a_node9"><a xlink:href="group__output.html" target="_top" xlink:title="Output">
<polygon fill="#ffffff" stroke="#000000" points="196.5701,-.5 196.5701,-23.5 257.5994,-23.5 257.5994,-.5 196.5701,-.5"/>
<text text-anchor="middle" x="227.0847" y="-7.5" font-family="FreeSans" font-size="15.00" fill="#000000">Output</text>
</a>
</g>
</g>
<!-- LinearSolver&#45;&gt;Output -->
<g id="edge9" class="edge">
<title>LinearSolver&#45;&gt;Output</title>
<path fill="none" stroke="#000000" d="M227.0847,-60.4314C227.0847,-52.8779 227.0847,-42.7793 227.0847,-33.7585"/>
<polygon fill="#000000" stroke="#000000" points="230.5848,-33.5331 227.0847,-23.5331 223.5848,-33.5331 230.5848,-33.5331"/>
</g>
</g>
</svg>
