<?xml version="1.0" encoding="UTF-8" standalone="no"?>
<!DOCTYPE svg PUBLIC "-//W3C//DTD SVG 1.1//EN"
 "http://www.w3.org/Graphics/SVG/1.1/DTD/svg11.dtd">
<!-- Generated by graphviz version 2.40.1 (20161225.0304)
 -->
<!-- Title: Linear algebra classes Pages: 1 -->
<svg width="304pt" height="370pt"
 viewBox="0.00 0.00 304.45 370.00" xmlns="http://www.w3.org/2000/svg" xmlns:xlink="http://www.w3.org/1999/xlink">
<g id="graph0" class="graph" transform="scale(1 1) rotate(0) translate(4 366)">
<title>Linear algebra classes</title>
<polygon fill="#ffffff" stroke="transparent" points="-4,4 -4,-366 300.4521,-366 300.4521,4 -4,4"/>
<!-- Node10 -->
<g id="node1" class="node">
<title>Node10</title>
<g id="a_node1"><a xlink:href="group__Vectors.html" target="_top" xlink:title="Vector classes">
<polygon fill="#ffffff" stroke="#000000" points="184.0166,-343.5 184.0166,-361.5 264.4941,-361.5 264.4941,-343.5 184.0166,-343.5"/>
<text text-anchor="middle" x="224.2554" y="-349.5" font-family="Helvetica,sans-Serif" font-size="10.00" fill="#000000">Vector classes</text>
</a>
</g>
</g>
<!-- Node5 -->
<g id="node2" class="node">
<title>Node5</title>
<g id="a_node2"><a xlink:href="group__SLEPcWrappers.html" target="_top" xlink:title="SLEPcWrappers">
<polygon fill="#ffffff" stroke="#000000" points="179.3853,-306.5 179.3853,-324.5 269.1255,-324.5 269.1255,-306.5 179.3853,-306.5"/>
<text text-anchor="middle" x="224.2554" y="-312.5" font-family="Helvetica,sans-Serif" font-size="10.00" fill="#000000">SLEPcWrappers</text>
</a>
</g>
</g>
<!-- Node9 -->
<g id="node3" class="node">
<title>Node9</title>
<g id="a_node3"><a xlink:href="group__VMemory.html" target="_top" xlink:title="Vector memory management">
<polygon fill="#ffffff" stroke="#000000" points="152.0586,-269.5 152.0586,-287.5 296.4521,-287.5 296.4521,-269.5 152.0586,-269.5"/>
<text text-anchor="middle" x="224.2554" y="-275.5" font-family="Helvetica,sans-Serif" font-size="10.00" fill="#000000">Vector memory management</text>
</a>
</g>
</g>
<!-- Node1 -->
<g id="node4" class="node">
<title>Node1</title>
<g id="a_node4"><a xlink:href="group__LAOperators.html" target="_top" xlink:title="Linear Operators">
<polygon fill="#ffffff" stroke="#000000" points="178.7358,-232.5 178.7358,-250.5 269.7749,-250.5 269.7749,-232.5 178.7358,-232.5"/>
<text text-anchor="middle" x="224.2554" y="-238.5" font-family="Helvetica,sans-Serif" font-size="10.00" fill="#000000">Linear Operators</text>
</a>
</g>
</g>
<!-- Node0 -->
<g id="node5" class="node">
<title>Node0</title>
<polygon fill="#bfbfbf" stroke="#000000" points="0,-174.5 0,-192.5 116.0586,-192.5 116.0586,-174.5 0,-174.5"/>
<text text-anchor="middle" x="58.0293" y="-180.5" font-family="Helvetica,sans-Serif" font-size="10.00" fill="#000000">Linear algebra classes</text>
</g>
<!-- Node0&#45;&gt;Node10 -->
<g id="edge10" class="edge">
<title>Node0&#45;&gt;Node10</title>
<path fill="none" stroke="#000000" d="M64.3439,-202.2255C76.2038,-234.4478 104.9463,-300.2153 152.0586,-334.5 161.2501,-341.1889 172.6535,-345.4061 183.662,-348.0606"/>
<polygon fill="#000000" stroke="#000000" points="67.6012,-200.9384 60.9669,-192.6779 61.0018,-203.2726 67.6012,-200.9384"/>
</g>
<!-- Node0&#45;&gt;Node5 -->
<g id="edge5" class="edge">
<title>Node0&#45;&gt;Node5</title>
<path fill="none" stroke="#000000" d="M67.8378,-201.4971C82.6492,-226.9182 113.1707,-272.9716 152.0586,-297.5 160.2531,-302.6687 169.8428,-306.3538 179.3069,-308.9809"/>
<polygon fill="#000000" stroke="#000000" points="70.7553,-199.5457 62.7871,-192.5629 64.6616,-202.9906 70.7553,-199.5457"/>
</g>
<!-- Node0&#45;&gt;Node9 -->
<g id="edge9" class="edge">
<title>Node0&#45;&gt;Node9</title>
<path fill="none" stroke="#000000" d="M73.5064,-199.9256C90.9622,-217.4863 120.9888,-244.9029 152.0586,-260.5 159.3318,-264.1512 167.3977,-267.0954 175.4255,-269.4595"/>
<polygon fill="#000000" stroke="#000000" points="75.8924,-197.3588 66.4121,-192.6286 70.8734,-202.2384 75.8924,-197.3588"/>
</g>
<!-- Node0&#45;&gt;Node1 -->
<g id="edge1" class="edge">
<title>Node0&#45;&gt;Node1</title>
<path fill="none" stroke="#000000" d="M86.0629,-196.8037C104.5251,-205.2197 129.3873,-215.9045 152.0586,-223.5 161.9801,-226.8239 172.8509,-229.8465 183.0771,-232.4256"/>
<polygon fill="#000000" stroke="#000000" points="87.3248,-193.5313 76.7786,-192.517 84.3904,-199.8866 87.3248,-193.5313"/>
</g>
<!-- Node3 -->
<g id="node6" class="node">
<title>Node3</title>
<g id="a_node6"><a xlink:href="group__PETScWrappers.html" target="_top" xlink:title="PETScWrappers">
<polygon fill="#ffffff" stroke="#000000" points="179.1118,-195.5 179.1118,-213.5 269.3989,-213.5 269.3989,-195.5 179.1118,-195.5"/>
<text text-anchor="middle" x="224.2554" y="-201.5" font-family="Helvetica,sans-Serif" font-size="10.00" fill="#000000">PETScWrappers</text>
</a>
</g>
</g>
<!-- Node0&#45;&gt;Node3 -->
<g id="edge3" class="edge">
<title>Node0&#45;&gt;Node3</title>
<path fill="none" stroke="#000000" d="M126.4615,-192.1453C144.1689,-194.3824 162.7945,-196.7354 178.9844,-198.7807"/>
<polygon fill="#000000" stroke="#000000" points="126.527,-188.6258 116.1671,-190.8448 125.6495,-195.5706 126.527,-188.6258"/>
</g>
<!-- Node4 -->
<g id="node7" class="node">
<title>Node4</title>
<g id="a_node7"><a xlink:href="group__Preconditioners.html" target="_top" xlink:title="Preconditioners and\l Relaxation Operators">
<polygon fill="#ffffff" stroke="#000000" points="167.6201,-148.5 167.6201,-176.5 280.8906,-176.5 280.8906,-148.5 167.6201,-148.5"/>
<text text-anchor="start" x="175.6201" y="-164.5" font-family="Helvetica,sans-Serif" font-size="10.00" fill="#000000">Preconditioners and</text>
<text text-anchor="middle" x="224.2554" y="-154.5" font-family="Helvetica,sans-Serif" font-size="10.00" fill="#000000"> Relaxation Operators</text>
</a>
</g>
</g>
<!-- Node0&#45;&gt;Node4 -->
<g id="edge4" class="edge">
<title>Node0&#45;&gt;Node4</title>
<path fill="none" stroke="#000000" d="M126.4796,-174.8524C140.1374,-173.127 154.3409,-171.3326 167.551,-169.6637"/>
<polygon fill="#000000" stroke="#000000" points="125.6495,-171.4294 116.1671,-176.1552 126.527,-178.3742 125.6495,-171.4294"/>
</g>
<!-- Node7 -->
<g id="node8" class="node">
<title>Node7</title>
<g id="a_node8"><a xlink:href="group__Sparsity.html" target="_top" xlink:title="Sparsity patterns">
<polygon fill="#ffffff" stroke="#000000" points="178.7383,-111.5 178.7383,-129.5 269.7725,-129.5 269.7725,-111.5 178.7383,-111.5"/>
<text text-anchor="middle" x="224.2554" y="-117.5" font-family="Helvetica,sans-Serif" font-size="10.00" fill="#000000">Sparsity patterns</text>
</a>
</g>
</g>
<!-- Node0&#45;&gt;Node7 -->
<g id="edge7" class="edge">
<title>Node0&#45;&gt;Node7</title>
<path fill="none" stroke="#000000" d="M83.9755,-169.8082C102.5639,-160.386 128.3924,-148.0719 152.0586,-139.5 162.4169,-135.7482 173.8559,-132.3932 184.5161,-129.5851"/>
<polygon fill="#000000" stroke="#000000" points="82.2607,-166.7542 74.9647,-174.4367 85.4591,-172.9808 82.2607,-166.7542"/>
</g>
<!-- Node2 -->
<g id="node9" class="node">
<title>Node2</title>
<g id="a_node9"><a xlink:href="group__Matrices.html" target="_top" xlink:title="Matrix classes">
<polygon fill="#ffffff" stroke="#000000" points="184.583,-74.5 184.583,-92.5 263.9277,-92.5 263.9277,-74.5 184.583,-74.5"/>
<text text-anchor="middle" x="224.2554" y="-80.5" font-family="Helvetica,sans-Serif" font-size="10.00" fill="#000000">Matrix classes</text>
</a>
</g>
</g>
<!-- Node0&#45;&gt;Node2 -->
<g id="edge2" class="edge">
<title>Node0&#45;&gt;Node2</title>
<path fill="none" stroke="#000000" d="M72.8296,-166.845C90.0829,-148.4407 120.3081,-119.2001 152.0586,-102.5 162.0383,-97.2509 173.5732,-93.3751 184.4537,-90.5455"/>
<polygon fill="#000000" stroke="#000000" points="70.0321,-164.7173 65.8564,-174.4546 75.1929,-169.4466 70.0321,-164.7173"/>
</g>
<!-- Node6 -->
<g id="node10" class="node">
<title>Node6</title>
<g id="a_node10"><a xlink:href="group__Solvers.html" target="_top" xlink:title="Linear solver classes">
<polygon fill="#ffffff" stroke="#000000" points="169.5684,-37.5 169.5684,-55.5 278.9424,-55.5 278.9424,-37.5 169.5684,-37.5"/>
<text text-anchor="middle" x="224.2554" y="-43.5" font-family="Helvetica,sans-Serif" font-size="10.00" fill="#000000">Linear solver classes</text>
</a>
</g>
</g>
<!-- Node0&#45;&gt;Node6 -->
<g id="edge6" class="edge">
<title>Node0&#45;&gt;Node6</title>
<path fill="none" stroke="#000000" d="M67.311,-165.6696C81.8176,-139.5991 112.3628,-91.3746 152.0586,-65.5 158.4648,-61.3243 165.7529,-58.0641 173.1762,-55.5193"/>
<polygon fill="#000000" stroke="#000000" points="64.2231,-164.0218 62.5508,-174.4838 70.3823,-167.3481 64.2231,-164.0218"/>
</g>
<!-- Node8 -->
<g id="node11" class="node">
<title>Node8</title>
<g id="a_node11"><a xlink:href="group__TrilinosWrappers.html" target="_top" xlink:title="TrilinosWrappers">
<polygon fill="#ffffff" stroke="#000000" points="178.7407,-.5 178.7407,-18.5 269.77,-18.5 269.77,-.5 178.7407,-.5"/>
<text text-anchor="middle" x="224.2554" y="-6.5" font-family="Helvetica,sans-Serif" font-size="10.00" fill="#000000">TrilinosWrappers</text>
</a>
</g>
</g>
<!-- Node0&#45;&gt;Node8 -->
<g id="edge8" class="edge">
<title>Node0&#45;&gt;Node8</title>
<path fill="none" stroke="#000000" d="M64.0806,-164.8172C75.6864,-132.0225 104.2517,-64.2001 152.0586,-28.5 159.8473,-22.6838 169.269,-18.6447 178.6983,-15.8407"/>
<polygon fill="#000000" stroke="#000000" points="60.6942,-163.9047 60.7916,-174.4991 67.3222,-166.1563 60.6942,-163.9047"/>
</g>
</g>
</svg>
