<?xml version="1.0" encoding="UTF-8" standalone="no"?>
<!DOCTYPE svg PUBLIC "-//W3C//DTD SVG 1.1//EN"
 "http://www.w3.org/Graphics/SVG/1.1/DTD/svg11.dtd">
<!-- Generated by graphviz version 2.40.1 (20161225.0304)
 -->
<!-- Title: Finite element space descriptions Pages: 1 -->
<svg width="466pt" height="86pt"
 viewBox="0.00 0.00 466.40 85.50" xmlns="http://www.w3.org/2000/svg" xmlns:xlink="http://www.w3.org/1999/xlink">
<g id="graph0" class="graph" transform="scale(1 1) rotate(0) translate(4 81.5)">
<title>Finite element space descriptions</title>
<polygon fill="#ffffff" stroke="transparent" points="-4,4 -4,-81.5 462.3975,-81.5 462.3975,4 -4,4"/>
<!-- Node3 -->
<g id="node1" class="node">
<title>Node3</title>
<g id="a_node1"><a xlink:href="group__febase.html" target="_top" xlink:title="Base classes">
<polygon fill="#ffffff" stroke="#000000" points="362.0752,-58.5 362.0752,-76.5 436.9912,-76.5 436.9912,-58.5 362.0752,-58.5"/>
<text text-anchor="middle" x="399.5332" y="-64.5" font-family="Helvetica,sans-Serif" font-size="10.00" fill="#000000">Base classes</text>
</a>
</g>
</g>
<!-- Node1 -->
<g id="node2" class="node">
<title>Node1</title>
<g id="a_node2"><a xlink:href="group__feall.html" target="_top" xlink:title="Finite elements">
<polygon fill="#ffffff" stroke="#000000" points="0,-31.5 0,-49.5 83.8076,-49.5 83.8076,-31.5 0,-31.5"/>
<text text-anchor="middle" x="41.9038" y="-37.5" font-family="Helvetica,sans-Serif" font-size="10.00" fill="#000000">Finite elements</text>
</a>
</g>
</g>
<!-- Node0 -->
<g id="node4" class="node">
<title>Node0</title>
<polygon fill="#bfbfbf" stroke="#000000" points="120.8076,-26.5 120.8076,-54.5 229.0781,-54.5 229.0781,-26.5 120.8076,-26.5"/>
<text text-anchor="start" x="128.8076" y="-42.5" font-family="Helvetica,sans-Serif" font-size="10.00" fill="#000000">Finite element space</text>
<text text-anchor="middle" x="174.9429" y="-32.5" font-family="Helvetica,sans-Serif" font-size="10.00" fill="#000000"> descriptions</text>
</g>
<!-- Node1&#45;&gt;Node0 -->
<g id="edge1" class="edge">
<title>Node1&#45;&gt;Node0</title>
<path fill="none" stroke="#000000" d="M94.2785,-40.5C102.8745,-40.5 111.8009,-40.5 120.4469,-40.5"/>
<polygon fill="#000000" stroke="#000000" points="93.9982,-37.0001 83.9982,-40.5 93.9982,-44.0001 93.9982,-37.0001"/>
</g>
<!-- Node2 -->
<g id="node3" class="node">
<title>Node2</title>
<g id="a_node3"><a xlink:href="group__vector__valued.html" target="_top" xlink:title="Handling vector valued\l problems">
<polygon fill="#ffffff" stroke="#000000" points="340.6689,-.5 340.6689,-28.5 458.3975,-28.5 458.3975,-.5 340.6689,-.5"/>
<text text-anchor="start" x="348.6689" y="-16.5" font-family="Helvetica,sans-Serif" font-size="10.00" fill="#000000">Handling vector valued</text>
<text text-anchor="middle" x="399.5332" y="-6.5" font-family="Helvetica,sans-Serif" font-size="10.00" fill="#000000"> problems</text>
</a>
</g>
</g>
<!-- Node0&#45;&gt;Node3 -->
<g id="edge3" class="edge">
<title>Node0&#45;&gt;Node3</title>
<path fill="none" stroke="#ffa500" stroke-dasharray="5,2" d="M229.3099,-47.0359C270.3332,-51.9677 325.5599,-58.607 361.8311,-62.9675"/>
<text text-anchor="middle" x="284.8735" y="-69.5" font-family="Helvetica,sans-Serif" font-size="10.00" fill="#000000">FiniteElement</text>
<text text-anchor="middle" x="284.8735" y="-59.5" font-family="Helvetica,sans-Serif" font-size="10.00" fill="#000000">FESystem</text>
</g>
<!-- Node0&#45;&gt;Node2 -->
<g id="edge2" class="edge">
<title>Node0&#45;&gt;Node2</title>
<path fill="none" stroke="#ffa500" stroke-dasharray="5,2" d="M208.1041,-26.4632C220.1506,-22.049 234.0151,-17.7435 247.0781,-15.5 277.5994,-10.2581 312.0667,-9.5987 340.498,-10.4281"/>
<text text-anchor="middle" x="284.8735" y="-37.5" font-family="Helvetica,sans-Serif" font-size="10.00" fill="#000000">BlockMask</text>
<text text-anchor="middle" x="284.8735" y="-27.5" font-family="Helvetica,sans-Serif" font-size="10.00" fill="#000000">ComponentMask</text>
<text text-anchor="middle" x="284.8735" y="-17.5" font-family="Helvetica,sans-Serif" font-size="10.00" fill="#000000">FESystem</text>
</g>
</g>
</svg>
