<?xml version="1.0" encoding="UTF-8" standalone="no"?>
<!DOCTYPE svg PUBLIC "-//W3C//DTD SVG 1.1//EN"
 "http://www.w3.org/Graphics/SVG/1.1/DTD/svg11.dtd">
<!-- Generated by graphviz version 2.40.1 (20161225.0304)
 -->
<!-- Title: Matrix classes Pages: 1 -->
<svg width="389pt" height="111pt"
 viewBox="0.00 0.00 388.67 111.00" xmlns="http://www.w3.org/2000/svg" xmlns:xlink="http://www.w3.org/1999/xlink">
<g id="graph0" class="graph" transform="scale(1 1) rotate(0) translate(4 107)">
<title>Matrix classes</title>
<polygon fill="#ffffff" stroke="transparent" points="-4,4 -4,-107 384.6738,-107 384.6738,4 -4,4"/>
<!-- Node1 -->
<g id="node1" class="node">
<title>Node1</title>
<g id="a_node1"><a xlink:href="group__LAC.html" target="_top" xlink:title="Linear algebra classes">
<polygon fill="#ffffff" stroke="#000000" points="0,-37.5 0,-55.5 116.0586,-55.5 116.0586,-37.5 0,-37.5"/>
<text text-anchor="middle" x="58.0293" y="-43.5" font-family="Helvetica,sans-Serif" font-size="10.00" fill="#000000">Linear algebra classes</text>
</a>
</g>
</g>
<!-- Node0 -->
<g id="node5" class="node">
<title>Node0</title>
<polygon fill="#bfbfbf" stroke="#000000" points="152.0586,-37.5 152.0586,-55.5 231.4033,-55.5 231.4033,-37.5 152.0586,-37.5"/>
<text text-anchor="middle" x="191.731" y="-43.5" font-family="Helvetica,sans-Serif" font-size="10.00" fill="#000000">Matrix classes</text>
</g>
<!-- Node1&#45;&gt;Node0 -->
<g id="edge1" class="edge">
<title>Node1&#45;&gt;Node0</title>
<path fill="none" stroke="#000000" d="M126.4314,-46.5C135.0918,-46.5 143.7174,-46.5 151.7264,-46.5"/>
<polygon fill="#000000" stroke="#000000" points="126.2839,-43.0001 116.2839,-46.5 126.2838,-50.0001 126.2839,-43.0001"/>
</g>
<!-- Node4 -->
<g id="node2" class="node">
<title>Node4</title>
<g id="a_node2"><a xlink:href="group__Preconditioners.html" target="_top" xlink:title="Preconditioners and\l Relaxation Operators">
<polygon fill="#ffffff" stroke="#000000" points="267.4033,-74.5 267.4033,-102.5 380.6738,-102.5 380.6738,-74.5 267.4033,-74.5"/>
<text text-anchor="start" x="275.4033" y="-90.5" font-family="Helvetica,sans-Serif" font-size="10.00" fill="#000000">Preconditioners and</text>
<text text-anchor="middle" x="324.0386" y="-80.5" font-family="Helvetica,sans-Serif" font-size="10.00" fill="#000000"> Relaxation Operators</text>
</a>
</g>
</g>
<!-- Node2 -->
<g id="node3" class="node">
<title>Node2</title>
<g id="a_node3"><a xlink:href="group__Matrix1.html" target="_top" xlink:title="Basic matrices">
<polygon fill="#ffffff" stroke="#000000" points="283.5313,-37.5 283.5313,-55.5 364.5459,-55.5 364.5459,-37.5 283.5313,-37.5"/>
<text text-anchor="middle" x="324.0386" y="-43.5" font-family="Helvetica,sans-Serif" font-size="10.00" fill="#000000">Basic matrices</text>
</a>
</g>
</g>
<!-- Node3 -->
<g id="node4" class="node">
<title>Node3</title>
<g id="a_node4"><a xlink:href="group__Matrix2.html" target="_top" xlink:title="Derived matrices">
<polygon fill="#ffffff" stroke="#000000" points="278.5288,-.5 278.5288,-18.5 369.5483,-18.5 369.5483,-.5 278.5288,-.5"/>
<text text-anchor="middle" x="324.0386" y="-6.5" font-family="Helvetica,sans-Serif" font-size="10.00" fill="#000000">Derived matrices</text>
</a>
</g>
</g>
<!-- Node0&#45;&gt;Node4 -->
<g id="edge4" class="edge">
<title>Node0&#45;&gt;Node4</title>
<path fill="none" stroke="#000000" d="M229.9473,-58.6315C245.5382,-63.5807 263.6653,-69.335 279.8233,-74.4642"/>
<polygon fill="#000000" stroke="#000000" points="230.7046,-55.1998 220.1143,-55.5101 228.5866,-61.8717 230.7046,-55.1998"/>
</g>
<!-- Node0&#45;&gt;Node2 -->
<g id="edge2" class="edge">
<title>Node0&#45;&gt;Node2</title>
<path fill="none" stroke="#000000" d="M241.7267,-46.5C255.5048,-46.5 270.279,-46.5 283.454,-46.5"/>
<polygon fill="#000000" stroke="#000000" points="241.4276,-43.0001 231.4276,-46.5 241.4276,-50.0001 241.4276,-43.0001"/>
</g>
<!-- Node0&#45;&gt;Node3 -->
<g id="edge3" class="edge">
<title>Node0&#45;&gt;Node3</title>
<path fill="none" stroke="#000000" d="M233.8378,-34.7248C252.5133,-29.5021 274.1485,-23.4518 291.5481,-18.586"/>
<polygon fill="#000000" stroke="#000000" points="232.7849,-31.3848 224.097,-37.4488 234.6702,-38.1262 232.7849,-31.3848"/>
</g>
</g>
</svg>
