<?xml version="1.0" encoding="UTF-8" standalone="no"?>
<!DOCTYPE svg PUBLIC "-//W3C//DTD SVG 1.1//EN"
 "http://www.w3.org/Graphics/SVG/1.1/DTD/svg11.dtd">
<!-- Generated by graphviz version 2.40.1 (20161225.0304)
 -->
<!-- Title: Integrators Pages: 1 -->
<svg width="298pt" height="32pt"
 viewBox="0.00 0.00 297.94 31.53" xmlns="http://www.w3.org/2000/svg" xmlns:xlink="http://www.w3.org/1999/xlink">
<g id="graph0" class="graph" transform="scale(1 1) rotate(0) translate(4 27.5252)">
<title>Integrators</title>
<polygon fill="#ffffff" stroke="transparent" points="-4,4 -4,-27.5252 293.9434,-27.5252 293.9434,4 -4,4"/>
<!-- Node1 -->
<g id="node1" class="node">
<title>Node1</title>
<g id="a_node1"><a xlink:href="group__MeshWorker.html" target="_top" xlink:title="The MeshWorker interface">
<polygon fill="#ffffff" stroke="#000000" points="156.3018,-5.0252 156.3018,-23.0252 289.9434,-23.0252 289.9434,-5.0252 156.3018,-5.0252"/>
<text text-anchor="middle" x="223.1226" y="-11.0252" font-family="Helvetica,sans-Serif" font-size="10.00" fill="#000000">The MeshWorker interface</text>
</a>
</g>
</g>
<!-- Node0 -->
<g id="node2" class="node">
<title>Node0</title>
<polygon fill="#bfbfbf" stroke="#000000" points="0,-5.0252 0,-23.0252 63.8027,-23.0252 63.8027,-5.0252 0,-5.0252"/>
<text text-anchor="middle" x="31.9014" y="-11.0252" font-family="Helvetica,sans-Serif" font-size="10.00" fill="#000000">Integrators</text>
</g>
<!-- Node0&#45;&gt;Node1 -->
<g id="edge1" class="edge">
<title>Node0&#45;&gt;Node1</title>
<path fill="none" stroke="#000000" d="M74.1115,-14.0252C98.1509,-14.0252 128.8205,-14.0252 156.079,-14.0252"/>
<polygon fill="#000000" stroke="#000000" points="73.9075,-10.5253 63.9075,-14.0252 73.9075,-17.5253 73.9075,-10.5253"/>
</g>
<!-- Node0&#45;&gt;Node1 -->
<g id="edge2" class="edge">
<title>Node0&#45;&gt;Node1</title>
<path fill="none" stroke="#8a2be2" stroke-dasharray="5,2" d="M63.9118,-5.1508C69.8172,-3.8504 75.9628,-2.7175 81.8027,-2.0252 112.4897,1.6127 147.0524,-1.2002 174.3158,-5.0134"/>
<text text-anchor="middle" x="110.0522" y="-4.0252" font-family="Helvetica,sans-Serif" font-size="10.00" fill="#000000">MeshWorker</text>
</g>
</g>
</svg>
