<?xml version="1.0" encoding="UTF-8" standalone="no"?>
<!DOCTYPE svg PUBLIC "-//W3C//DTD SVG 1.1//EN"
 "http://www.w3.org/Graphics/SVG/1.1/DTD/svg11.dtd">
<!-- Generated by graphviz version 2.40.1 (20161225.0304)
 -->
<!-- Title: Sparsity patterns Pages: 1 -->
<svg width="496pt" height="38pt"
 viewBox="0.00 0.00 495.83 37.50" xmlns="http://www.w3.org/2000/svg" xmlns:xlink="http://www.w3.org/1999/xlink">
<g id="graph0" class="graph" transform="scale(1 1) rotate(0) translate(4 33.5)">
<title>Sparsity patterns</title>
<polygon fill="#ffffff" stroke="transparent" points="-4,4 -4,-33.5 491.8311,-33.5 491.8311,4 -4,4"/>
<!-- Node1 -->
<g id="node1" class="node">
<title>Node1</title>
<g id="a_node1"><a xlink:href="group__LAC.html" target="_top" xlink:title="Linear algebra classes">
<polygon fill="#ffffff" stroke="#000000" points="0,-.5 0,-18.5 116.0586,-18.5 116.0586,-.5 0,-.5"/>
<text text-anchor="middle" x="58.0293" y="-6.5" font-family="Helvetica,sans-Serif" font-size="10.00" fill="#000000">Linear algebra classes</text>
</a>
</g>
</g>
<!-- Node0 -->
<g id="node2" class="node">
<title>Node0</title>
<polygon fill="#bfbfbf" stroke="#000000" points="153.0586,-.5 153.0586,-18.5 244.0928,-18.5 244.0928,-.5 153.0586,-.5"/>
<text text-anchor="middle" x="198.5757" y="-6.5" font-family="Helvetica,sans-Serif" font-size="10.00" fill="#000000">Sparsity patterns</text>
</g>
<!-- Node1&#45;&gt;Node0 -->
<g id="edge1" class="edge">
<title>Node1&#45;&gt;Node0</title>
<path fill="none" stroke="#000000" d="M126.5146,-9.5C135.5045,-9.5 144.5335,-9.5 153.0126,-9.5"/>
<polygon fill="#000000" stroke="#000000" points="126.4127,-6.0001 116.4126,-9.5 126.4126,-13.0001 126.4127,-6.0001"/>
</g>
<!-- Node2 -->
<g id="node3" class="node">
<title>Node2</title>
<g id="a_node3"><a xlink:href="group__TrilinosWrappers.html" target="_top" xlink:title="TrilinosWrappers">
<polygon fill="#ffffff" stroke="#000000" points="396.8018,-.5 396.8018,-18.5 487.8311,-18.5 487.8311,-.5 396.8018,-.5"/>
<text text-anchor="middle" x="442.3164" y="-6.5" font-family="Helvetica,sans-Serif" font-size="10.00" fill="#000000">TrilinosWrappers</text>
</a>
</g>
</g>
<!-- Node0&#45;&gt;Node2 -->
<g id="edge2" class="edge">
<title>Node0&#45;&gt;Node2</title>
<path fill="none" stroke="#ffa500" stroke-dasharray="5,2" d="M244.1355,-9.5C287.6765,-9.5 352.9627,-9.5 396.5668,-9.5"/>
<text text-anchor="start" x="262.0928" y="-21.5" font-family="Helvetica,sans-Serif" font-size="10.00" fill="#000000">TrilinosWrappers::Sparsity</text>
<text text-anchor="middle" x="320.4473" y="-11.5" font-family="Helvetica,sans-Serif" font-size="10.00" fill="#000000">Pattern</text>
</g>
</g>
</svg>
