<?xml version="1.0" encoding="UTF-8" standalone="no"?>
<!DOCTYPE svg PUBLIC "-//W3C//DTD SVG 1.1//EN"
 "http://www.w3.org/Graphics/SVG/1.1/DTD/svg11.dtd">
<!-- Generated by graphviz version 2.40.1 (20161225.0304)
 -->
<!-- Title: hp Collections Pages: 1 -->
<svg width="347pt" height="78pt"
 viewBox="0.00 0.00 347.27 77.50" xmlns="http://www.w3.org/2000/svg" xmlns:xlink="http://www.w3.org/1999/xlink">
<g id="graph0" class="graph" transform="scale(1 1) rotate(0) translate(4 73.5)">
<title>hp Collections</title>
<polygon fill="#ffffff" stroke="transparent" points="-4,4 -4,-73.5 343.2744,-73.5 343.2744,4 -4,4"/>
<!-- Node0 -->
<g id="node1" class="node">
<title>Node0</title>
<polygon fill="#bfbfbf" stroke="#000000" points="0,-.5 0,-18.5 78.8125,-18.5 78.8125,-.5 0,-.5"/>
<text text-anchor="middle" x="39.4063" y="-6.5" font-family="Helvetica,sans-Serif" font-size="10.00" fill="#000000">hp Collections</text>
</g>
<!-- Node1 -->
<g id="node2" class="node">
<title>Node1</title>
<g id="a_node2"><a xlink:href="group__hp.html" target="_top" xlink:title="hp finite element support">
<polygon fill="#ffffff" stroke="#000000" points="213.7627,-.5 213.7627,-18.5 339.2744,-18.5 339.2744,-.5 213.7627,-.5"/>
<text text-anchor="middle" x="276.5186" y="-6.5" font-family="Helvetica,sans-Serif" font-size="10.00" fill="#000000">hp finite element support</text>
</a>
</g>
</g>
<!-- Node0&#45;&gt;Node1 -->
<g id="edge2" class="edge">
<title>Node0&#45;&gt;Node1</title>
<path fill="none" stroke="#ffa500" stroke-dasharray="5,2" d="M78.8267,-9.5C115.4357,-9.5 170.5722,-9.5 213.3235,-9.5"/>
<text text-anchor="middle" x="146.2876" y="-61.5" font-family="Helvetica,sans-Serif" font-size="10.00" fill="#000000">hp::FECollection</text>
<text text-anchor="middle" x="146.2876" y="-51.5" font-family="Helvetica,sans-Serif" font-size="10.00" fill="#000000">hp::FEValues</text>
<text text-anchor="middle" x="146.2876" y="-41.5" font-family="Helvetica,sans-Serif" font-size="10.00" fill="#000000">hp::FEFaceValues</text>
<text text-anchor="middle" x="146.2876" y="-31.5" font-family="Helvetica,sans-Serif" font-size="10.00" fill="#000000">hp::FESubfaceValues</text>
<text text-anchor="middle" x="146.2876" y="-21.5" font-family="Helvetica,sans-Serif" font-size="10.00" fill="#000000">hp::MappingCollection</text>
<text text-anchor="middle" x="146.2876" y="-11.5" font-family="Helvetica,sans-Serif" font-size="10.00" fill="#000000">hp::QCollection</text>
</g>
<!-- Node1&#45;&gt;Node0 -->
<g id="edge1" class="edge">
<title>Node1&#45;&gt;Node0</title>
<path fill="none" stroke="#000000" d="M203.4224,-7.6089C200.8375,-7.5677 198.2781,-7.5311 195.7627,-7.5 151.7882,-6.9555 140.7837,-6.7343 96.8125,-7.5 91.0294,-7.6007 84.92,-7.7584 78.9292,-7.9422"/>
<polygon fill="#000000" stroke="#000000" points="203.4187,-11.1093 213.4795,-7.7881 203.5435,-4.1104 203.4187,-11.1093"/>
</g>
</g>
</svg>
