<?xml version="1.0" encoding="UTF-8" standalone="no"?>
<!DOCTYPE svg PUBLIC "-//W3C//DTD SVG 1.1//EN"
 "http://www.w3.org/Graphics/SVG/1.1/DTD/svg11.dtd">
<!-- Generated by graphviz version 2.40.1 (20161225.0304)
 -->
<!-- Title: Input Pages: 1 -->
<svg width="350pt" height="64pt"
 viewBox="0.00 0.00 349.70 64.00" xmlns="http://www.w3.org/2000/svg" xmlns:xlink="http://www.w3.org/1999/xlink">
<g id="graph0" class="graph" transform="scale(1 1) rotate(0) translate(4 60)">
<title>Input</title>
<polygon fill="#ffffff" stroke="transparent" points="-4,4 -4,-60 345.6982,-60 345.6982,4 -4,4"/>
<!-- Node1 -->
<g id="node1" class="node">
<title>Node1</title>
<g id="a_node1"><a xlink:href="group__IO.html" target="_top" xlink:title="Input/Output">
<polygon fill="#ffffff" stroke="#000000" points="0,-18.5 0,-36.5 71.0391,-36.5 71.0391,-18.5 0,-18.5"/>
<text text-anchor="middle" x="35.5195" y="-24.5" font-family="Helvetica,sans-Serif" font-size="10.00" fill="#000000">Input/Output</text>
</a>
</g>
</g>
<!-- Node0 -->
<g id="node4" class="node">
<title>Node0</title>
<polygon fill="#bfbfbf" stroke="#000000" points="108.0391,-18.5 108.0391,-36.5 146.2803,-36.5 146.2803,-18.5 108.0391,-18.5"/>
<text text-anchor="middle" x="127.1597" y="-24.5" font-family="Helvetica,sans-Serif" font-size="10.00" fill="#000000">Input</text>
</g>
<!-- Node1&#45;&gt;Node0 -->
<g id="edge1" class="edge">
<title>Node1&#45;&gt;Node0</title>
<path fill="none" stroke="#000000" d="M81.2931,-27.5C90.6521,-27.5 100.0138,-27.5 107.8161,-27.5"/>
<polygon fill="#000000" stroke="#000000" points="81.2124,-24.0001 71.2124,-27.5 81.2124,-31.0001 81.2124,-24.0001"/>
</g>
<!-- Node2 -->
<g id="node2" class="node">
<title>Node2</title>
<g id="a_node2"><a xlink:href="group__output.html" target="_top" xlink:title="Graphical output">
<polygon fill="#ffffff" stroke="#000000" points="252.3193,-37.5 252.3193,-55.5 341.6982,-55.5 341.6982,-37.5 252.3193,-37.5"/>
<text text-anchor="middle" x="297.0088" y="-43.5" font-family="Helvetica,sans-Serif" font-size="10.00" fill="#000000">Graphical output</text>
</a>
</g>
</g>
<!-- Node3 -->
<g id="node3" class="node">
<title>Node3</title>
<g id="a_node3"><a xlink:href="group__grid.html" target="_top" xlink:title="Grid classes">
<polygon fill="#ffffff" stroke="#000000" points="261.5015,-.5 261.5015,-18.5 332.5161,-18.5 332.5161,-.5 261.5015,-.5"/>
<text text-anchor="middle" x="297.0088" y="-6.5" font-family="Helvetica,sans-Serif" font-size="10.00" fill="#000000">Grid classes</text>
</a>
</g>
</g>
<!-- Node0&#45;&gt;Node2 -->
<g id="edge2" class="edge">
<title>Node0&#45;&gt;Node2</title>
<path fill="none" stroke="#ffa500" stroke-dasharray="5,2" d="M146.3134,-29.6426C171.8201,-32.4959 217.7223,-37.6307 252.1868,-41.486"/>
<text text-anchor="middle" x="199.2998" y="-40.5" font-family="Helvetica,sans-Serif" font-size="10.00" fill="#000000">DataOutReader</text>
</g>
<!-- Node0&#45;&gt;Node3 -->
<g id="edge3" class="edge">
<title>Node0&#45;&gt;Node3</title>
<path fill="none" stroke="#ffa500" stroke-dasharray="5,2" d="M146.5091,-19.4976C152.1451,-17.5044 158.3764,-15.6187 164.2803,-14.5 196.7922,-8.3397 234.5602,-7.5146 261.4761,-7.9791"/>
<text text-anchor="middle" x="199.2998" y="-16.5" font-family="Helvetica,sans-Serif" font-size="10.00" fill="#000000">GridIn</text>
</g>
</g>
</svg>
