<?xml version="1.0" encoding="UTF-8" standalone="no"?>
<!DOCTYPE svg PUBLIC "-//W3C//DTD SVG 1.1//EN"
 "http://www.w3.org/Graphics/SVG/1.1/DTD/svg11.dtd">
<!-- Generated by graphviz version 2.40.1 (20161225.0304)
 -->
<!-- Title: Basic matrices Pages: 1 -->
<svg width="471pt" height="174pt"
 viewBox="0.00 0.00 471.14 173.50" xmlns="http://www.w3.org/2000/svg" xmlns:xlink="http://www.w3.org/1999/xlink">
<g id="graph0" class="graph" transform="scale(1 1) rotate(0) translate(4 169.5)">
<title>Basic matrices</title>
<polygon fill="#ffffff" stroke="transparent" points="-4,4 -4,-169.5 467.1387,-169.5 467.1387,4 -4,4"/>
<!-- Node2 -->
<g id="node1" class="node">
<title>Node2</title>
<g id="a_node1"><a xlink:href="group__PETScWrappers.html" target="_top" xlink:title="PETScWrappers">
<polygon fill="#ffffff" stroke="#000000" points="372.4805,-63.5 372.4805,-81.5 462.7676,-81.5 462.7676,-63.5 372.4805,-63.5"/>
<text text-anchor="middle" x="417.624" y="-69.5" font-family="Helvetica,sans-Serif" font-size="10.00" fill="#000000">PETScWrappers</text>
</a>
</g>
</g>
<!-- Node0 -->
<g id="node2" class="node">
<title>Node0</title>
<polygon fill="#bfbfbf" stroke="#000000" points="116.3447,-31.5 116.3447,-49.5 197.3594,-49.5 197.3594,-31.5 116.3447,-31.5"/>
<text text-anchor="middle" x="156.8521" y="-37.5" font-family="Helvetica,sans-Serif" font-size="10.00" fill="#000000">Basic matrices</text>
</g>
<!-- Node0&#45;&gt;Node2 -->
<g id="edge2" class="edge">
<title>Node0&#45;&gt;Node2</title>
<path fill="none" stroke="#ffa500" stroke-dasharray="5,2" d="M197.4039,-47.7602C203.4148,-48.7407 209.5421,-49.6873 215.3594,-50.5 269.0579,-58.0023 331.0806,-64.4174 372.1387,-68.3518"/>
<text text-anchor="start" x="215.3594" y="-157.5" font-family="Helvetica,sans-Serif" font-size="10.00" fill="#000000">PETScWrappers::BlockSparse</text>
<text text-anchor="middle" x="284.7344" y="-147.5" font-family="Helvetica,sans-Serif" font-size="10.00" fill="#000000">Matrix</text>
<text text-anchor="middle" x="284.7344" y="-137.5" font-family="Helvetica,sans-Serif" font-size="10.00" fill="#000000">PETScWrappers::FullMatrix</text>
<text text-anchor="middle" x="284.7344" y="-127.5" font-family="Helvetica,sans-Serif" font-size="10.00" fill="#000000">PETScWrappers::MatrixBase</text>
<text text-anchor="middle" x="284.7344" y="-117.5" font-family="Helvetica,sans-Serif" font-size="10.00" fill="#000000">PETScWrappers::MatrixFree</text>
<text text-anchor="start" x="215.3594" y="-107.5" font-family="Helvetica,sans-Serif" font-size="10.00" fill="#000000">PETScWrappers::MPI</text>
<text text-anchor="middle" x="284.7344" y="-97.5" font-family="Helvetica,sans-Serif" font-size="10.00" fill="#000000">::BlockSparseMatrix</text>
<text text-anchor="start" x="215.3594" y="-87.5" font-family="Helvetica,sans-Serif" font-size="10.00" fill="#000000">PETScWrappers::MPI</text>
<text text-anchor="middle" x="284.7344" y="-77.5" font-family="Helvetica,sans-Serif" font-size="10.00" fill="#000000">::SparseMatrix</text>
<text text-anchor="middle" x="284.7344" y="-67.5" font-family="Helvetica,sans-Serif" font-size="10.00" fill="#000000">PETScWrappers::SparseMatrix</text>
</g>
<!-- Node3 -->
<g id="node4" class="node">
<title>Node3</title>
<g id="a_node4"><a xlink:href="group__TrilinosWrappers.html" target="_top" xlink:title="TrilinosWrappers">
<polygon fill="#ffffff" stroke="#000000" points="372.1094,-.5 372.1094,-18.5 463.1387,-18.5 463.1387,-.5 372.1094,-.5"/>
<text text-anchor="middle" x="417.624" y="-6.5" font-family="Helvetica,sans-Serif" font-size="10.00" fill="#000000">TrilinosWrappers</text>
</a>
</g>
</g>
<!-- Node0&#45;&gt;Node3 -->
<g id="edge3" class="edge">
<title>Node0&#45;&gt;Node3</title>
<path fill="none" stroke="#ffa500" stroke-dasharray="5,2" d="M170.0823,-31.4171C181.4972,-24.1616 198.7251,-14.5596 215.3594,-10.5 267.8958,2.3216 330.4194,.0791 371.9025,-3.7434"/>
<text text-anchor="start" x="216.3726" y="-42.5" font-family="Helvetica,sans-Serif" font-size="10.00" fill="#000000">TrilinosWrappers::BlockSparse</text>
<text text-anchor="middle" x="284.7344" y="-32.5" font-family="Helvetica,sans-Serif" font-size="10.00" fill="#000000">Matrix</text>
<text text-anchor="start" x="216.3726" y="-22.5" font-family="Helvetica,sans-Serif" font-size="10.00" fill="#000000">TrilinosWrappers::Sparse</text>
<text text-anchor="middle" x="284.7344" y="-12.5" font-family="Helvetica,sans-Serif" font-size="10.00" fill="#000000">Matrix</text>
</g>
<!-- Node1 -->
<g id="node3" class="node">
<title>Node1</title>
<g id="a_node3"><a xlink:href="group__Matrices.html" target="_top" xlink:title="Matrix classes">
<polygon fill="#ffffff" stroke="#000000" points="0,-31.5 0,-49.5 79.3447,-49.5 79.3447,-31.5 0,-31.5"/>
<text text-anchor="middle" x="39.6724" y="-37.5" font-family="Helvetica,sans-Serif" font-size="10.00" fill="#000000">Matrix classes</text>
</a>
</g>
</g>
<!-- Node1&#45;&gt;Node0 -->
<g id="edge1" class="edge">
<title>Node1&#45;&gt;Node0</title>
<path fill="none" stroke="#000000" d="M89.8461,-40.5C98.6569,-40.5 107.727,-40.5 116.2369,-40.5"/>
<polygon fill="#000000" stroke="#000000" points="89.6713,-37.0001 79.6712,-40.5 89.6712,-44.0001 89.6713,-37.0001"/>
</g>
</g>
</svg>
