<?xml version="1.0" encoding="UTF-8" standalone="no"?>
<!DOCTYPE svg PUBLIC "-//W3C//DTD SVG 1.1//EN"
 "http://www.w3.org/Graphics/SVG/1.1/DTD/svg11.dtd">
<!-- Generated by graphviz version 2.40.1 (20161225.0304)
 -->
<!-- Title: PETScWrappers Pages: 1 -->
<svg width="570pt" height="382pt"
 viewBox="0.00 0.00 570.49 381.69" xmlns="http://www.w3.org/2000/svg" xmlns:xlink="http://www.w3.org/1999/xlink">
<g id="graph0" class="graph" transform="scale(1 1) rotate(0) translate(4 377.691)">
<title>PETScWrappers</title>
<polygon fill="#ffffff" stroke="transparent" points="-4,4 -4,-377.691 566.4893,-377.691 566.4893,4 -4,4"/>
<!-- Node4 -->
<g id="node1" class="node">
<title>Node4</title>
<g id="a_node1"><a xlink:href="group__Vectors.html" target="_top" xlink:title="Vector classes">
<polygon fill="#ffffff" stroke="#000000" points="450.0537,-290.691 450.0537,-308.691 530.5313,-308.691 530.5313,-290.691 450.0537,-290.691"/>
<text text-anchor="middle" x="490.2925" y="-296.691" font-family="Helvetica,sans-Serif" font-size="10.00" fill="#000000">Vector classes</text>
</a>
</g>
</g>
<!-- Node2 -->
<g id="node2" class="node">
<title>Node2</title>
<g id="a_node2"><a xlink:href="group__SLEPcWrappers.html" target="_top" xlink:title="SLEPcWrappers">
<polygon fill="#ffffff" stroke="#000000" points="445.4224,-240.691 445.4224,-258.691 535.1626,-258.691 535.1626,-240.691 445.4224,-240.691"/>
<text text-anchor="middle" x="490.2925" y="-246.691" font-family="Helvetica,sans-Serif" font-size="10.00" fill="#000000">SLEPcWrappers</text>
</a>
</g>
</g>
<!-- Node7 -->
<g id="node3" class="node">
<title>Node7</title>
<g id="a_node3"><a xlink:href="group__VMemory.html" target="_top" xlink:title="Vector memory management">
<polygon fill="#ffffff" stroke="#000000" points="418.0957,-203.691 418.0957,-221.691 562.4893,-221.691 562.4893,-203.691 418.0957,-203.691"/>
<text text-anchor="middle" x="490.2925" y="-209.691" font-family="Helvetica,sans-Serif" font-size="10.00" fill="#000000">Vector memory management</text>
</a>
</g>
</g>
<!-- Node1 -->
<g id="node4" class="node">
<title>Node1</title>
<g id="a_node4"><a xlink:href="group__LAC.html" target="_top" xlink:title="Linear algebra classes">
<polygon fill="#ffffff" stroke="#000000" points="0,-203.691 0,-221.691 116.0586,-221.691 116.0586,-203.691 0,-203.691"/>
<text text-anchor="middle" x="58.0293" y="-209.691" font-family="Helvetica,sans-Serif" font-size="10.00" fill="#000000">Linear algebra classes</text>
</a>
</g>
</g>
<!-- Node0 -->
<g id="node5" class="node">
<title>Node0</title>
<polygon fill="#bfbfbf" stroke="#000000" points="153.0586,-203.691 153.0586,-221.691 243.3457,-221.691 243.3457,-203.691 153.0586,-203.691"/>
<text text-anchor="middle" x="198.2021" y="-209.691" font-family="Helvetica,sans-Serif" font-size="10.00" fill="#000000">PETScWrappers</text>
</g>
<!-- Node1&#45;&gt;Node0 -->
<g id="edge1" class="edge">
<title>Node1&#45;&gt;Node0</title>
<path fill="none" stroke="#000000" d="M126.3326,-212.691C135.2986,-212.691 144.3036,-212.691 152.7601,-212.691"/>
<polygon fill="#000000" stroke="#000000" points="126.2575,-209.1911 116.2574,-212.691 126.2574,-216.1911 126.2575,-209.1911"/>
</g>
<!-- Node0&#45;&gt;Node4 -->
<g id="edge4" class="edge">
<title>Node0&#45;&gt;Node4</title>
<path fill="none" stroke="#ffa500" stroke-dasharray="5,2" d="M202.2912,-221.9246C210.554,-239.2997 231.0676,-276.4738 261.3457,-291.691 321.4022,-321.8742 401.9418,-315.6926 449.7474,-308.0051"/>
<text text-anchor="middle" x="330.7207" y="-365.691" font-family="Helvetica,sans-Serif" font-size="10.00" fill="#000000">PETScWrappers::BlockVector</text>
<text text-anchor="start" x="264.395" y="-355.691" font-family="Helvetica,sans-Serif" font-size="10.00" fill="#000000">PETScWrappers::MPI</text>
<text text-anchor="middle" x="330.7207" y="-345.691" font-family="Helvetica,sans-Serif" font-size="10.00" fill="#000000">::BlockVector</text>
<text text-anchor="start" x="264.395" y="-335.691" font-family="Helvetica,sans-Serif" font-size="10.00" fill="#000000">PETScWrappers::MPI</text>
<text text-anchor="middle" x="330.7207" y="-325.691" font-family="Helvetica,sans-Serif" font-size="10.00" fill="#000000">::Vector</text>
<text text-anchor="middle" x="330.7207" y="-315.691" font-family="Helvetica,sans-Serif" font-size="10.00" fill="#000000">PETScWrappers::Vector</text>
</g>
<!-- Node0&#45;&gt;Node4 -->
<g id="edge5" class="edge">
<title>Node0&#45;&gt;Node4</title>
<path fill="none" stroke="#8a2be2" stroke-dasharray="5,2" d="M212.4064,-221.8316C224.8306,-229.3987 243.6129,-239.8261 261.3457,-245.691 320.6246,-265.2969 339.5856,-252.299 400.0957,-267.691 423.9277,-273.7531 450.3502,-283.5012 468.4027,-290.6473"/>
<text text-anchor="middle" x="330.7207" y="-279.691" font-family="Helvetica,sans-Serif" font-size="10.00" fill="#000000">PETScWrappers</text>
<text text-anchor="middle" x="330.7207" y="-269.691" font-family="Helvetica,sans-Serif" font-size="10.00" fill="#000000">internal</text>
</g>
<!-- Node0&#45;&gt;Node2 -->
<g id="edge2" class="edge">
<title>Node0&#45;&gt;Node2</title>
<path fill="none" stroke="#000000" d="M253.6978,-222.5487C256.2809,-222.9477 258.84,-223.3308 261.3457,-223.691 324.8975,-232.8269 398.7535,-240.7271 445.0128,-245.3499"/>
<polygon fill="#000000" stroke="#000000" points="254.1047,-219.0694 243.6773,-220.9453 252.9987,-225.9814 254.1047,-219.0694"/>
</g>
<!-- Node0&#45;&gt;Node7 -->
<g id="edge8" class="edge">
<title>Node0&#45;&gt;Node7</title>
<path fill="none" stroke="#8a2be2" stroke-dasharray="5,2" d="M243.5208,-212.691C290.0704,-212.691 363.2387,-212.691 417.8343,-212.691"/>
<text text-anchor="middle" x="330.7207" y="-214.691" font-family="Helvetica,sans-Serif" font-size="10.00" fill="#000000">internal</text>
</g>
<!-- Node5 -->
<g id="node6" class="node">
<title>Node5</title>
<g id="a_node6"><a xlink:href="group__feaccess.html" target="_top" xlink:title="Finite element access\l/FEValues classes">
<polygon fill="#ffffff" stroke="#000000" points="433.938,-156.691 433.938,-184.691 546.647,-184.691 546.647,-156.691 433.938,-156.691"/>
<text text-anchor="start" x="441.938" y="-172.691" font-family="Helvetica,sans-Serif" font-size="10.00" fill="#000000">Finite element access</text>
<text text-anchor="middle" x="490.2925" y="-162.691" font-family="Helvetica,sans-Serif" font-size="10.00" fill="#000000">/FEValues classes</text>
</a>
</g>
</g>
<!-- Node0&#45;&gt;Node5 -->
<g id="edge6" class="edge">
<title>Node0&#45;&gt;Node5</title>
<path fill="none" stroke="#8a2be2" stroke-dasharray="5,2" d="M236.15,-203.6549C244.4252,-201.8589 253.1562,-200.0963 261.3457,-198.691 319.7569,-188.6679 387.1507,-180.8756 433.6183,-176.0847"/>
<text text-anchor="middle" x="330.7207" y="-200.691" font-family="Helvetica,sans-Serif" font-size="10.00" fill="#000000">internal</text>
</g>
<!-- Node3 -->
<g id="node7" class="node">
<title>Node3</title>
<g id="a_node7"><a xlink:href="group__Matrix1.html" target="_top" xlink:title="Basic matrices">
<polygon fill="#ffffff" stroke="#000000" points="449.7852,-47.691 449.7852,-65.691 530.7998,-65.691 530.7998,-47.691 449.7852,-47.691"/>
<text text-anchor="middle" x="490.2925" y="-53.691" font-family="Helvetica,sans-Serif" font-size="10.00" fill="#000000">Basic matrices</text>
</a>
</g>
</g>
<!-- Node0&#45;&gt;Node3 -->
<g id="edge3" class="edge">
<title>Node0&#45;&gt;Node3</title>
<path fill="none" stroke="#ffa500" stroke-dasharray="5,2" d="M199.3539,-203.4193C203.0372,-178.1313 217.0153,-107.7819 261.3457,-76.691 317.0411,-37.6292 400.104,-41.7274 449.3748,-48.8221"/>
<text text-anchor="start" x="261.3457" y="-168.691" font-family="Helvetica,sans-Serif" font-size="10.00" fill="#000000">PETScWrappers::BlockSparse</text>
<text text-anchor="middle" x="330.7207" y="-158.691" font-family="Helvetica,sans-Serif" font-size="10.00" fill="#000000">Matrix</text>
<text text-anchor="middle" x="330.7207" y="-148.691" font-family="Helvetica,sans-Serif" font-size="10.00" fill="#000000">PETScWrappers::FullMatrix</text>
<text text-anchor="middle" x="330.7207" y="-138.691" font-family="Helvetica,sans-Serif" font-size="10.00" fill="#000000">PETScWrappers::MatrixBase</text>
<text text-anchor="middle" x="330.7207" y="-128.691" font-family="Helvetica,sans-Serif" font-size="10.00" fill="#000000">PETScWrappers::MatrixFree</text>
<text text-anchor="start" x="261.3457" y="-118.691" font-family="Helvetica,sans-Serif" font-size="10.00" fill="#000000">PETScWrappers::MPI</text>
<text text-anchor="middle" x="330.7207" y="-108.691" font-family="Helvetica,sans-Serif" font-size="10.00" fill="#000000">::BlockSparseMatrix</text>
<text text-anchor="start" x="261.3457" y="-98.691" font-family="Helvetica,sans-Serif" font-size="10.00" fill="#000000">PETScWrappers::MPI</text>
<text text-anchor="middle" x="330.7207" y="-88.691" font-family="Helvetica,sans-Serif" font-size="10.00" fill="#000000">::SparseMatrix</text>
<text text-anchor="middle" x="330.7207" y="-78.691" font-family="Helvetica,sans-Serif" font-size="10.00" fill="#000000">PETScWrappers::SparseMatrix</text>
</g>
<!-- Node6 -->
<g id="node8" class="node">
<title>Node6</title>
<g id="a_node8"><a xlink:href="group__Solvers.html" target="_top" xlink:title="Linear solver classes">
<polygon fill="#ffffff" stroke="#000000" points="435.6055,-10.691 435.6055,-28.691 544.9795,-28.691 544.9795,-10.691 435.6055,-10.691"/>
<text text-anchor="middle" x="490.2925" y="-16.691" font-family="Helvetica,sans-Serif" font-size="10.00" fill="#000000">Linear solver classes</text>
</a>
</g>
</g>
<!-- Node0&#45;&gt;Node6 -->
<g id="edge7" class="edge">
<title>Node0&#45;&gt;Node6</title>
<path fill="none" stroke="#8a2be2" stroke-dasharray="5,2" d="M200.0337,-203.2949C206.8916,-169.1541 232.1583,-52.5326 261.3457,-30.691 318.6945,12.2246 408.5843,.2283 456.902,-10.6768"/>
<text text-anchor="middle" x="330.7207" y="-32.691" font-family="Helvetica,sans-Serif" font-size="10.00" fill="#000000">internal</text>
</g>
</g>
</svg>
