<?xml version="1.0" encoding="UTF-8" standalone="no"?>
<!DOCTYPE svg PUBLIC "-//W3C//DTD SVG 1.1//EN"
 "http://www.w3.org/Graphics/SVG/1.1/DTD/svg11.dtd">
<!-- Generated by graphviz version 2.40.1 (20161225.0304)
 -->
<!-- Title: SLEPcWrappers Pages: 1 -->
<svg width="250pt" height="64pt"
 viewBox="0.00 0.00 249.80 64.00" xmlns="http://www.w3.org/2000/svg" xmlns:xlink="http://www.w3.org/1999/xlink">
<g id="graph0" class="graph" transform="scale(1 1) rotate(0) translate(4 60)">
<title>SLEPcWrappers</title>
<polygon fill="#ffffff" stroke="transparent" points="-4,4 -4,-60 245.7988,-60 245.7988,4 -4,4"/>
<!-- Node0 -->
<g id="node1" class="node">
<title>Node0</title>
<polygon fill="#bfbfbf" stroke="#000000" points="152.0586,-18.5 152.0586,-36.5 241.7988,-36.5 241.7988,-18.5 152.0586,-18.5"/>
<text text-anchor="middle" x="196.9287" y="-24.5" font-family="Helvetica,sans-Serif" font-size="10.00" fill="#000000">SLEPcWrappers</text>
</g>
<!-- Node1 -->
<g id="node2" class="node">
<title>Node1</title>
<g id="a_node2"><a xlink:href="group__LAC.html" target="_top" xlink:title="Linear algebra classes">
<polygon fill="#ffffff" stroke="#000000" points="0,-37.5 0,-55.5 116.0586,-55.5 116.0586,-37.5 0,-37.5"/>
<text text-anchor="middle" x="58.0293" y="-43.5" font-family="Helvetica,sans-Serif" font-size="10.00" fill="#000000">Linear algebra classes</text>
</a>
</g>
</g>
<!-- Node1&#45;&gt;Node0 -->
<g id="edge1" class="edge">
<title>Node1&#45;&gt;Node0</title>
<path fill="none" stroke="#000000" d="M126.2424,-37.1692C134.8938,-35.9857 143.5707,-34.7988 151.7361,-33.6819"/>
<polygon fill="#000000" stroke="#000000" points="125.5637,-33.7293 116.1303,-38.5524 126.5125,-40.6647 125.5637,-33.7293"/>
</g>
<!-- Node2 -->
<g id="node3" class="node">
<title>Node2</title>
<g id="a_node3"><a xlink:href="group__PETScWrappers.html" target="_top" xlink:title="PETScWrappers">
<polygon fill="#ffffff" stroke="#000000" points="12.8857,-.5 12.8857,-18.5 103.1729,-18.5 103.1729,-.5 12.8857,-.5"/>
<text text-anchor="middle" x="58.0293" y="-6.5" font-family="Helvetica,sans-Serif" font-size="10.00" fill="#000000">PETScWrappers</text>
</a>
</g>
</g>
<!-- Node2&#45;&gt;Node0 -->
<g id="edge2" class="edge">
<title>Node2&#45;&gt;Node0</title>
<path fill="none" stroke="#000000" d="M113.5316,-16.6926C126.2441,-18.34 139.607,-20.0717 151.8201,-21.6544"/>
<polygon fill="#000000" stroke="#000000" points="113.8771,-13.2081 103.5102,-15.3939 112.9774,-20.1501 113.8771,-13.2081"/>
</g>
</g>
</svg>
