<?xml version="1.0" encoding="UTF-8" standalone="no"?>
<!DOCTYPE svg PUBLIC "-//W3C//DTD SVG 1.1//EN"
 "http://www.w3.org/Graphics/SVG/1.1/DTD/svg11.dtd">
<!-- Generated by graphviz version 2.40.1 (20161225.0304)
 -->
<!-- Title: The MeshWorker interface Pages: 1 -->
<svg width="298pt" height="28pt"
 viewBox="0.00 0.00 297.94 27.50" xmlns="http://www.w3.org/2000/svg" xmlns:xlink="http://www.w3.org/1999/xlink">
<g id="graph0" class="graph" transform="scale(1 1) rotate(0) translate(4 23.5)">
<title>The MeshWorker interface</title>
<polygon fill="#ffffff" stroke="transparent" points="-4,4 -4,-23.5 293.9434,-23.5 293.9434,4 -4,4"/>
<!-- Node0 -->
<g id="node1" class="node">
<title>Node0</title>
<polygon fill="#bfbfbf" stroke="#000000" points="0,-.5 0,-18.5 133.6416,-18.5 133.6416,-.5 0,-.5"/>
<text text-anchor="middle" x="66.8208" y="-6.5" font-family="Helvetica,sans-Serif" font-size="10.00" fill="#000000">The MeshWorker interface</text>
</g>
<!-- Node1 -->
<g id="node2" class="node">
<title>Node1</title>
<g id="a_node2"><a xlink:href="group__Integrators.html" target="_top" xlink:title="Integrators">
<polygon fill="#ffffff" stroke="#000000" points="226.1406,-.5 226.1406,-18.5 289.9434,-18.5 289.9434,-.5 226.1406,-.5"/>
<text text-anchor="middle" x="258.042" y="-6.5" font-family="Helvetica,sans-Serif" font-size="10.00" fill="#000000">Integrators</text>
</a>
</g>
</g>
<!-- Node0&#45;&gt;Node1 -->
<g id="edge2" class="edge">
<title>Node0&#45;&gt;Node1</title>
<path fill="none" stroke="#8a2be2" stroke-dasharray="5,2" d="M133.7007,-9.5C165.0415,-9.5 200.9229,-9.5 226.0594,-9.5"/>
<text text-anchor="middle" x="179.8911" y="-11.5" font-family="Helvetica,sans-Serif" font-size="10.00" fill="#000000">MeshWorker</text>
</g>
<!-- Node1&#45;&gt;Node0 -->
<g id="edge1" class="edge">
<title>Node1&#45;&gt;Node0</title>
<path fill="none" stroke="#000000" d="M215.9308,-7.6924C213.295,-7.6164 210.6816,-7.5509 208.1406,-7.5 183.8537,-7.0135 157.2166,-7.2024 133.6792,-7.617"/>
<polygon fill="#000000" stroke="#000000" points="215.9923,-11.1963 226.1028,-8.0295 216.2243,-4.2001 215.9923,-11.1963"/>
</g>
</g>
</svg>
