<?xml version="1.0" encoding="UTF-8" standalone="no"?>
<!DOCTYPE svg PUBLIC "-//W3C//DTD SVG 1.1//EN"
 "http://www.w3.org/Graphics/SVG/1.1/DTD/svg11.dtd">
<!-- Generated by graphviz version 2.40.1 (20161225.0304)
 -->
<!-- Title: Degrees of Freedom Pages: 1 -->
<svg width="375pt" height="149pt"
 viewBox="0.00 0.00 375.04 149.00" xmlns="http://www.w3.org/2000/svg" xmlns:xlink="http://www.w3.org/1999/xlink">
<g id="graph0" class="graph" transform="scale(1 1) rotate(0) translate(4 145)">
<title>Degrees of Freedom</title>
<polygon fill="#ffffff" stroke="transparent" points="-4,4 -4,-145 371.043,-145 371.043,4 -4,4"/>
<!-- Node1 -->
<g id="node1" class="node">
<title>Node1</title>
<g id="a_node1"><a xlink:href="group__constraints.html" target="_top" xlink:title="Constraints on degrees\l of freedom">
<polygon fill="#ffffff" stroke="#000000" points="244.5903,-112.5 244.5903,-140.5 363.9839,-140.5 363.9839,-112.5 244.5903,-112.5"/>
<text text-anchor="start" x="252.5903" y="-128.5" font-family="Helvetica,sans-Serif" font-size="10.00" fill="#000000">Constraints on degrees</text>
<text text-anchor="middle" x="304.2871" y="-118.5" font-family="Helvetica,sans-Serif" font-size="10.00" fill="#000000"> of freedom</text>
</a>
</g>
</g>
<!-- Node2 -->
<g id="node2" class="node">
<title>Node2</title>
<g id="a_node2"><a xlink:href="group__Accessors.html" target="_top" xlink:title="Accessor classes of\l the mesh iterators">
<polygon fill="#ffffff" stroke="#000000" points="252.105,-37.5 252.105,-65.5 356.4692,-65.5 356.4692,-37.5 252.105,-37.5"/>
<text text-anchor="start" x="260.105" y="-53.5" font-family="Helvetica,sans-Serif" font-size="10.00" fill="#000000">Accessor classes of</text>
<text text-anchor="middle" x="304.2871" y="-43.5" font-family="Helvetica,sans-Serif" font-size="10.00" fill="#000000"> the mesh iterators</text>
</a>
</g>
</g>
<!-- Node3 -->
<g id="node3" class="node">
<title>Node3</title>
<g id="a_node3"><a xlink:href="group__hp.html" target="_top" xlink:title="hp finite element support">
<polygon fill="#ffffff" stroke="#000000" points="241.5313,-.5 241.5313,-18.5 367.043,-18.5 367.043,-.5 241.5313,-.5"/>
<text text-anchor="middle" x="304.2871" y="-6.5" font-family="Helvetica,sans-Serif" font-size="10.00" fill="#000000">hp finite element support</text>
</a>
</g>
</g>
<!-- Node0 -->
<g id="node4" class="node">
<title>Node0</title>
<polygon fill="#bfbfbf" stroke="#000000" points="0,-73.5 0,-91.5 107.709,-91.5 107.709,-73.5 0,-73.5"/>
<text text-anchor="middle" x="53.8545" y="-79.5" font-family="Helvetica,sans-Serif" font-size="10.00" fill="#000000">Degrees of Freedom</text>
</g>
<!-- Node0&#45;&gt;Node1 -->
<g id="edge1" class="edge">
<title>Node0&#45;&gt;Node1</title>
<path fill="none" stroke="#000000" d="M72.8317,-97.7301C86.6082,-107.7732 106.1832,-120.0449 125.709,-125.5 164.2286,-136.2616 209.2725,-136.4314 244.4845,-133.9514"/>
<polygon fill="#000000" stroke="#000000" points="74.758,-94.7985 64.6747,-91.5463 70.5291,-100.3767 74.758,-94.7985"/>
</g>
<!-- Node0&#45;&gt;Node1 -->
<g id="edge4" class="edge">
<title>Node0&#45;&gt;Node1</title>
<path fill="none" stroke="#ffa500" stroke-dasharray="5,2" d="M105.1376,-91.5102C145.4919,-98.6003 201.8074,-108.4947 244.26,-115.9535"/>
<text text-anchor="middle" x="174.6201" y="-113.5" font-family="Helvetica,sans-Serif" font-size="10.00" fill="#000000">ConstraintMatrix</text>
</g>
<!-- Node0&#45;&gt;Node2 -->
<g id="edge2" class="edge">
<title>Node0&#45;&gt;Node2</title>
<path fill="none" stroke="#ffa500" stroke-dasharray="5,2" d="M70.3899,-73.4068C84.584,-66.1449 105.8379,-56.5395 125.709,-52.5 167.4845,-44.0075 215.9014,-44.3494 251.7736,-46.4855"/>
<text text-anchor="start" x="125.709" y="-84.5" font-family="Helvetica,sans-Serif" font-size="10.00" fill="#000000">internal::DoFAccessor</text>
<text text-anchor="middle" x="174.6201" y="-74.5" font-family="Helvetica,sans-Serif" font-size="10.00" fill="#000000">::Inheritance</text>
<text text-anchor="middle" x="174.6201" y="-64.5" font-family="Helvetica,sans-Serif" font-size="10.00" fill="#000000">DoFAccessor</text>
<text text-anchor="middle" x="174.6201" y="-54.5" font-family="Helvetica,sans-Serif" font-size="10.00" fill="#000000">DoFCellAccessor</text>
</g>
<!-- Node0&#45;&gt;Node3 -->
<g id="edge3" class="edge">
<title>Node0&#45;&gt;Node3</title>
<path fill="none" stroke="#ffa500" stroke-dasharray="5,2" d="M63.1224,-73.3236C75.965,-61.231 100.4585,-40.3446 125.709,-30.5 162.3554,-16.2123 206.1883,-10.9018 241.2559,-9.1928"/>
<text text-anchor="middle" x="174.6201" y="-32.5" font-family="Helvetica,sans-Serif" font-size="10.00" fill="#000000">hp::DoFHandler</text>
</g>
</g>
</svg>
