<?xml version="1.0" encoding="UTF-8" standalone="no"?>
<!DOCTYPE svg PUBLIC "-//W3C//DTD SVG 1.1//EN"
 "http://www.w3.org/Graphics/SVG/1.1/DTD/svg11.dtd">
<!-- Generated by graphviz version 2.40.1 (20161225.0304)
 -->
<!-- Title: The interplay of UpdateFlags, Mapping, and FiniteElement in FEValues Pages: 1 -->
<svg width="275pt" height="47pt"
 viewBox="0.00 0.00 274.99 47.00" xmlns="http://www.w3.org/2000/svg" xmlns:xlink="http://www.w3.org/1999/xlink">
<g id="graph0" class="graph" transform="scale(1 1) rotate(0) translate(4 43)">
<title>The interplay of UpdateFlags, Mapping, and FiniteElement in FEValues</title>
<polygon fill="#ffffff" stroke="transparent" points="-4,4 -4,-43 270.9893,-43 270.9893,4 -4,4"/>
<!-- Node1 -->
<g id="node1" class="node">
<title>Node1</title>
<g id="a_node1"><a xlink:href="group__feall.html" target="_top" xlink:title="Finite elements">
<polygon fill="#ffffff" stroke="#000000" points="0,-10.5 0,-28.5 83.8076,-28.5 83.8076,-10.5 0,-10.5"/>
<text text-anchor="middle" x="41.9038" y="-16.5" font-family="Helvetica,sans-Serif" font-size="10.00" fill="#000000">Finite elements</text>
</a>
</g>
</g>
<!-- Node0 -->
<g id="node2" class="node">
<title>Node0</title>
<polygon fill="#bfbfbf" stroke="#000000" points="119.8076,-.5 119.8076,-38.5 266.9893,-38.5 266.9893,-.5 119.8076,-.5"/>
<text text-anchor="start" x="127.8076" y="-26.5" font-family="Helvetica,sans-Serif" font-size="10.00" fill="#000000">The interplay of UpdateFlags,</text>
<text text-anchor="start" x="127.8076" y="-16.5" font-family="Helvetica,sans-Serif" font-size="10.00" fill="#000000"> Mapping, and FiniteElement</text>
<text text-anchor="middle" x="193.3984" y="-6.5" font-family="Helvetica,sans-Serif" font-size="10.00" fill="#000000"> in FEValues</text>
</g>
<!-- Node1&#45;&gt;Node0 -->
<g id="edge1" class="edge">
<title>Node1&#45;&gt;Node0</title>
<path fill="none" stroke="#000000" d="M94.2923,-19.5C102.5353,-19.5 111.1874,-19.5 119.8024,-19.5"/>
<polygon fill="#000000" stroke="#000000" points="94.1035,-16.0001 84.1035,-19.5 94.1035,-23.0001 94.1035,-16.0001"/>
</g>
</g>
</svg>
