<?xml version="1.0" encoding="UTF-8" standalone="no"?>
<!DOCTYPE svg PUBLIC "-//W3C//DTD SVG 1.1//EN"
 "http://www.w3.org/Graphics/SVG/1.1/DTD/svg11.dtd">
<!-- Generated by graphviz version 2.40.1 (20161225.0304)
 -->
<!-- Title: Base classes Pages: 1 -->
<svg width="419pt" height="84pt"
 viewBox="0.00 0.00 418.59 84.00" xmlns="http://www.w3.org/2000/svg" xmlns:xlink="http://www.w3.org/1999/xlink">
<g id="graph0" class="graph" transform="scale(1 1) rotate(0) translate(4 80)">
<title>Base classes</title>
<polygon fill="#ffffff" stroke="transparent" points="-4,4 -4,-80 414.5898,-80 414.5898,4 -4,4"/>
<!-- Node0 -->
<g id="node1" class="node">
<title>Node0</title>
<polygon fill="#bfbfbf" stroke="#000000" points="120.8076,-28.5 120.8076,-46.5 195.7236,-46.5 195.7236,-28.5 120.8076,-28.5"/>
<text text-anchor="middle" x="158.2656" y="-34.5" font-family="Helvetica,sans-Serif" font-size="10.00" fill="#000000">Base classes</text>
</g>
<!-- Node3 -->
<g id="node3" class="node">
<title>Node3</title>
<g id="a_node3"><a xlink:href="group__vector__valued.html" target="_top" xlink:title="Handling vector valued\l problems">
<polygon fill="#ffffff" stroke="#000000" points="292.8613,-47.5 292.8613,-75.5 410.5898,-75.5 410.5898,-47.5 292.8613,-47.5"/>
<text text-anchor="start" x="300.8613" y="-63.5" font-family="Helvetica,sans-Serif" font-size="10.00" fill="#000000">Handling vector valued</text>
<text text-anchor="middle" x="351.7256" y="-53.5" font-family="Helvetica,sans-Serif" font-size="10.00" fill="#000000"> problems</text>
</a>
</g>
</g>
<!-- Node0&#45;&gt;Node3 -->
<g id="edge3" class="edge">
<title>Node0&#45;&gt;Node3</title>
<path fill="none" stroke="#ffa500" stroke-dasharray="5,2" d="M196.0259,-42.1844C223.5163,-45.5948 261.2823,-50.2799 292.7349,-54.1818"/>
<text text-anchor="middle" x="244.2925" y="-53.5" font-family="Helvetica,sans-Serif" font-size="10.00" fill="#000000">FESystem</text>
</g>
<!-- Node2 -->
<g id="node4" class="node">
<title>Node2</title>
<g id="a_node4"><a xlink:href="group__fe.html" target="_top" xlink:title="Finite element space\l descriptions">
<polygon fill="#ffffff" stroke="#000000" points="297.5903,-.5 297.5903,-28.5 405.8608,-28.5 405.8608,-.5 297.5903,-.5"/>
<text text-anchor="start" x="305.5903" y="-16.5" font-family="Helvetica,sans-Serif" font-size="10.00" fill="#000000">Finite element space</text>
<text text-anchor="middle" x="351.7256" y="-6.5" font-family="Helvetica,sans-Serif" font-size="10.00" fill="#000000"> descriptions</text>
</a>
</g>
</g>
<!-- Node0&#45;&gt;Node2 -->
<g id="edge2" class="edge">
<title>Node0&#45;&gt;Node2</title>
<path fill="none" stroke="#ffa500" stroke-dasharray="5,2" d="M181.3758,-28.4114C191.1919,-24.9698 202.8586,-21.4214 213.7236,-19.5 240.991,-14.6781 271.7449,-13.1894 297.289,-13.0078"/>
<text text-anchor="middle" x="244.2925" y="-31.5" font-family="Helvetica,sans-Serif" font-size="10.00" fill="#000000">FiniteElement</text>
<text text-anchor="middle" x="244.2925" y="-21.5" font-family="Helvetica,sans-Serif" font-size="10.00" fill="#000000">FESystem</text>
</g>
<!-- Node1 -->
<g id="node2" class="node">
<title>Node1</title>
<g id="a_node2"><a xlink:href="group__feall.html" target="_top" xlink:title="Finite elements">
<polygon fill="#ffffff" stroke="#000000" points="0,-28.5 0,-46.5 83.8076,-46.5 83.8076,-28.5 0,-28.5"/>
<text text-anchor="middle" x="41.9038" y="-34.5" font-family="Helvetica,sans-Serif" font-size="10.00" fill="#000000">Finite elements</text>
</a>
</g>
</g>
<!-- Node1&#45;&gt;Node0 -->
<g id="edge1" class="edge">
<title>Node1&#45;&gt;Node0</title>
<path fill="none" stroke="#000000" d="M93.9155,-37.5C102.8902,-37.5 112.063,-37.5 120.5666,-37.5"/>
<polygon fill="#000000" stroke="#000000" points="93.9131,-34.0001 83.9131,-37.5 93.9131,-41.0001 93.9131,-34.0001"/>
</g>
</g>
</svg>
