<?xml version="1.0" encoding="UTF-8" standalone="no"?>
<!DOCTYPE svg PUBLIC "-//W3C//DTD SVG 1.1//EN"
 "http://www.w3.org/Graphics/SVG/1.1/DTD/svg11.dtd">
<!-- Generated by graphviz version 2.40.1 (20161225.0304)
 -->
<!-- Title: Constraints on degrees of freedom Pages: 1 -->
<svg width="344pt" height="37pt"
 viewBox="0.00 0.00 343.90 37.00" xmlns="http://www.w3.org/2000/svg" xmlns:xlink="http://www.w3.org/1999/xlink">
<g id="graph0" class="graph" transform="scale(1 1) rotate(0) translate(4 33)">
<title>Constraints on degrees of freedom</title>
<polygon fill="#ffffff" stroke="transparent" points="-4,4 -4,-33 339.9004,-33 339.9004,4 -4,4"/>
<!-- Node0 -->
<g id="node1" class="node">
<title>Node0</title>
<polygon fill="#bfbfbf" stroke="#000000" points="0,-.5 0,-28.5 119.3936,-28.5 119.3936,-.5 0,-.5"/>
<text text-anchor="start" x="8" y="-16.5" font-family="Helvetica,sans-Serif" font-size="10.00" fill="#000000">Constraints on degrees</text>
<text text-anchor="middle" x="59.6968" y="-6.5" font-family="Helvetica,sans-Serif" font-size="10.00" fill="#000000"> of freedom</text>
</g>
<!-- Node1 -->
<g id="node2" class="node">
<title>Node1</title>
<g id="a_node2"><a xlink:href="group__dofs.html" target="_top" xlink:title="Degrees of Freedom">
<polygon fill="#ffffff" stroke="#000000" points="228.1914,-5.5 228.1914,-23.5 335.9004,-23.5 335.9004,-5.5 228.1914,-5.5"/>
<text text-anchor="middle" x="282.0459" y="-11.5" font-family="Helvetica,sans-Serif" font-size="10.00" fill="#000000">Degrees of Freedom</text>
</a>
</g>
</g>
<!-- Node0&#45;&gt;Node1 -->
<g id="edge2" class="edge">
<title>Node0&#45;&gt;Node1</title>
<path fill="none" stroke="#ffa500" stroke-dasharray="5,2" d="M119.5748,-14.5C153.4034,-14.5 195.3478,-14.5 228.1444,-14.5"/>
<text text-anchor="middle" x="173.7925" y="-16.5" font-family="Helvetica,sans-Serif" font-size="10.00" fill="#000000">ConstraintMatrix</text>
</g>
<!-- Node1&#45;&gt;Node0 -->
<g id="edge1" class="edge">
<title>Node1&#45;&gt;Node0</title>
<path fill="none" stroke="#000000" d="M217.8496,-12.6241C215.2632,-12.5768 212.7027,-12.5349 210.1914,-12.5 177.8399,-12.0499 169.7455,-12.0837 137.3936,-12.5 131.5918,-12.5747 125.547,-12.6807 119.5045,-12.8054"/>
<polygon fill="#000000" stroke="#000000" points="217.8352,-16.1245 227.9053,-12.8318 217.9797,-9.126 217.8352,-16.1245"/>
</g>
</g>
</svg>
