<?xml version="1.0" encoding="UTF-8" standalone="no"?>
<!DOCTYPE svg PUBLIC "-//W3C//DTD SVG 1.1//EN"
 "http://www.w3.org/Graphics/SVG/1.1/DTD/svg11.dtd">
<!-- Generated by graphviz version 2.40.1 (20161225.0304)
 -->
<!-- Title: Input/Output Pages: 1 -->
<svg width="204pt" height="101pt"
 viewBox="0.00 0.00 204.42 101.00" xmlns="http://www.w3.org/2000/svg" xmlns:xlink="http://www.w3.org/1999/xlink">
<g id="graph0" class="graph" transform="scale(1 1) rotate(0) translate(4 97)">
<title>Input/Output</title>
<polygon fill="#ffffff" stroke="transparent" points="-4,4 -4,-97 200.418,-97 200.418,4 -4,4"/>
<!-- Node0 -->
<g id="node1" class="node">
<title>Node0</title>
<polygon fill="#bfbfbf" stroke="#000000" points="0,-37.5 0,-55.5 71.0391,-55.5 71.0391,-37.5 0,-37.5"/>
<text text-anchor="middle" x="35.5195" y="-43.5" font-family="Helvetica,sans-Serif" font-size="10.00" fill="#000000">Input/Output</text>
</g>
<!-- Node2 -->
<g id="node2" class="node">
<title>Node2</title>
<g id="a_node2"><a xlink:href="group__output.html" target="_top" xlink:title="Graphical output">
<polygon fill="#ffffff" stroke="#000000" points="107.0391,-74.5 107.0391,-92.5 196.418,-92.5 196.418,-74.5 107.0391,-74.5"/>
<text text-anchor="middle" x="151.7285" y="-80.5" font-family="Helvetica,sans-Serif" font-size="10.00" fill="#000000">Graphical output</text>
</a>
</g>
</g>
<!-- Node0&#45;&gt;Node2 -->
<g id="edge2" class="edge">
<title>Node0&#45;&gt;Node2</title>
<path fill="none" stroke="#000000" d="M73.6409,-58.6375C89.7799,-63.7761 108.261,-69.6603 123.1913,-74.414"/>
<polygon fill="#000000" stroke="#000000" points="74.538,-55.2501 63.9474,-55.5512 72.4143,-61.9202 74.538,-55.2501"/>
</g>
<!-- Node1 -->
<g id="node3" class="node">
<title>Node1</title>
<g id="a_node3"><a xlink:href="group__input.html" target="_top" xlink:title="Input">
<polygon fill="#ffffff" stroke="#000000" points="132.6079,-37.5 132.6079,-55.5 170.8491,-55.5 170.8491,-37.5 132.6079,-37.5"/>
<text text-anchor="middle" x="151.7285" y="-43.5" font-family="Helvetica,sans-Serif" font-size="10.00" fill="#000000">Input</text>
</a>
</g>
</g>
<!-- Node0&#45;&gt;Node1 -->
<g id="edge1" class="edge">
<title>Node0&#45;&gt;Node1</title>
<path fill="none" stroke="#000000" d="M81.5342,-46.5C99.2558,-46.5 118.5474,-46.5 132.4136,-46.5"/>
<polygon fill="#000000" stroke="#000000" points="81.3343,-43.0001 71.3343,-46.5 81.3343,-50.0001 81.3343,-43.0001"/>
</g>
<!-- Node3 -->
<g id="node4" class="node">
<title>Node3</title>
<g id="a_node4"><a xlink:href="group__textoutput.html" target="_top" xlink:title="Textual output">
<polygon fill="#ffffff" stroke="#000000" points="112.5957,-.5 112.5957,-18.5 190.8613,-18.5 190.8613,-.5 112.5957,-.5"/>
<text text-anchor="middle" x="151.7285" y="-6.5" font-family="Helvetica,sans-Serif" font-size="10.00" fill="#000000">Textual output</text>
</a>
</g>
</g>
<!-- Node0&#45;&gt;Node3 -->
<g id="edge3" class="edge">
<title>Node0&#45;&gt;Node3</title>
<path fill="none" stroke="#000000" d="M73.6409,-34.3625C89.7799,-29.2239 108.261,-23.3397 123.1913,-18.586"/>
<polygon fill="#000000" stroke="#000000" points="72.4143,-31.0798 63.9474,-37.4488 74.538,-37.7499 72.4143,-31.0798"/>
</g>
</g>
</svg>
