<?xml version="1.0" encoding="UTF-8" standalone="no"?>
<!DOCTYPE svg PUBLIC "-//W3C//DTD SVG 1.1//EN"
 "http://www.w3.org/Graphics/SVG/1.1/DTD/svg11.dtd">
<!-- Generated by graphviz version 2.40.1 (20161225.0304)
 -->
<!-- Title: Accessor classes of the mesh iterators Pages: 1 -->
<svg width="503pt" height="91pt"
 viewBox="0.00 0.00 503.04 90.50" xmlns="http://www.w3.org/2000/svg" xmlns:xlink="http://www.w3.org/1999/xlink">
<g id="graph0" class="graph" transform="scale(1 1) rotate(0) translate(4 86.5)">
<title>Accessor classes of the mesh iterators</title>
<polygon fill="#ffffff" stroke="transparent" points="-4,4 -4,-86.5 499.043,-86.5 499.043,4 -4,4"/>
<!-- Node0 -->
<g id="node1" class="node">
<title>Node0</title>
<polygon fill="#bfbfbf" stroke="#000000" points="149.1475,-26.5 149.1475,-54.5 253.5117,-54.5 253.5117,-26.5 149.1475,-26.5"/>
<text text-anchor="start" x="157.1475" y="-42.5" font-family="Helvetica,sans-Serif" font-size="10.00" fill="#000000">Accessor classes of</text>
<text text-anchor="middle" x="201.3296" y="-32.5" font-family="Helvetica,sans-Serif" font-size="10.00" fill="#000000"> the mesh iterators</text>
</g>
<!-- Node3 -->
<g id="node3" class="node">
<title>Node3</title>
<g id="a_node3"><a xlink:href="group__grid.html" target="_top" xlink:title="Grid classes">
<polygon fill="#ffffff" stroke="#000000" points="405.6812,-63.5 405.6812,-81.5 476.6958,-81.5 476.6958,-63.5 405.6812,-63.5"/>
<text text-anchor="middle" x="441.1885" y="-69.5" font-family="Helvetica,sans-Serif" font-size="10.00" fill="#000000">Grid classes</text>
</a>
</g>
</g>
<!-- Node0&#45;&gt;Node3 -->
<g id="edge3" class="edge">
<title>Node0&#45;&gt;Node3</title>
<path fill="none" stroke="#ffa500" stroke-dasharray="5,2" d="M253.8227,-48.0531C259.7873,-48.8895 265.78,-49.7201 271.5117,-50.5 317.7217,-56.7877 371.0701,-63.6376 405.4209,-67.9953"/>
<text text-anchor="middle" x="320.4229" y="-74.5" font-family="Helvetica,sans-Serif" font-size="10.00" fill="#000000">TriaAccessorBase</text>
<text text-anchor="middle" x="320.4229" y="-64.5" font-family="Helvetica,sans-Serif" font-size="10.00" fill="#000000">CellAccessor</text>
</g>
<!-- Node2 -->
<g id="node4" class="node">
<title>Node2</title>
<g id="a_node4"><a xlink:href="group__dofs.html" target="_top" xlink:title="Degrees of Freedom">
<polygon fill="#ffffff" stroke="#000000" points="387.334,-.5 387.334,-18.5 495.043,-18.5 495.043,-.5 387.334,-.5"/>
<text text-anchor="middle" x="441.1885" y="-6.5" font-family="Helvetica,sans-Serif" font-size="10.00" fill="#000000">Degrees of Freedom</text>
</a>
</g>
</g>
<!-- Node0&#45;&gt;Node2 -->
<g id="edge2" class="edge">
<title>Node0&#45;&gt;Node2</title>
<path fill="none" stroke="#ffa500" stroke-dasharray="5,2" d="M227.5078,-26.3614C240.3686,-20.1923 256.3326,-13.6548 271.5117,-10.5 309.5831,-2.5872 353.5051,-2.5687 387.1224,-4.4071"/>
<text text-anchor="start" x="271.5117" y="-42.5" font-family="Helvetica,sans-Serif" font-size="10.00" fill="#000000">internal::DoFAccessor</text>
<text text-anchor="middle" x="320.4229" y="-32.5" font-family="Helvetica,sans-Serif" font-size="10.00" fill="#000000">::Inheritance</text>
<text text-anchor="middle" x="320.4229" y="-22.5" font-family="Helvetica,sans-Serif" font-size="10.00" fill="#000000">DoFAccessor</text>
<text text-anchor="middle" x="320.4229" y="-12.5" font-family="Helvetica,sans-Serif" font-size="10.00" fill="#000000">DoFCellAccessor</text>
</g>
<!-- Node1 -->
<g id="node2" class="node">
<title>Node1</title>
<g id="a_node2"><a xlink:href="group__Iterators.html" target="_top" xlink:title="Iterators on mesh&#45;like\l containers">
<polygon fill="#ffffff" stroke="#000000" points="0,-26.5 0,-54.5 112.1475,-54.5 112.1475,-26.5 0,-26.5"/>
<text text-anchor="start" x="8" y="-42.5" font-family="Helvetica,sans-Serif" font-size="10.00" fill="#000000">Iterators on mesh&#45;like</text>
<text text-anchor="middle" x="56.0737" y="-32.5" font-family="Helvetica,sans-Serif" font-size="10.00" fill="#000000"> containers</text>
</a>
</g>
</g>
<!-- Node1&#45;&gt;Node0 -->
<g id="edge1" class="edge">
<title>Node1&#45;&gt;Node0</title>
<path fill="none" stroke="#000000" d="M122.3032,-40.5C131.2982,-40.5 140.425,-40.5 149.1262,-40.5"/>
<polygon fill="#000000" stroke="#000000" points="122.2335,-37.0001 112.2334,-40.5 122.2334,-44.0001 122.2335,-37.0001"/>
</g>
</g>
</svg>
