<?xml version="1.0" encoding="UTF-8" standalone="no"?>
<!DOCTYPE svg PUBLIC "-//W3C//DTD SVG 1.1//EN"
 "http://www.w3.org/Graphics/SVG/1.1/DTD/svg11.dtd">
<!-- Generated by graphviz version 2.40.1 (20161225.0304)
 -->
<!-- Title: Linear solver classes Pages: 1 -->
<svg width="557pt" height="195pt"
 viewBox="0.00 0.00 556.78 195.00" xmlns="http://www.w3.org/2000/svg" xmlns:xlink="http://www.w3.org/1999/xlink">
<g id="graph0" class="graph" transform="scale(1 1) rotate(0) translate(4 191)">
<title>Linear solver classes</title>
<polygon fill="#ffffff" stroke="transparent" points="-4,4 -4,-191 552.7783,-191 552.7783,4 -4,4"/>
<!-- Node4 -->
<g id="node1" class="node">
<title>Node4</title>
<g id="a_node1"><a xlink:href="group__Vectors.html" target="_top" xlink:title="Vector classes">
<polygon fill="#ffffff" stroke="#000000" points="436.3428,-168.5 436.3428,-186.5 516.8203,-186.5 516.8203,-168.5 436.3428,-168.5"/>
<text text-anchor="middle" x="476.5815" y="-174.5" font-family="Helvetica,sans-Serif" font-size="10.00" fill="#000000">Vector classes</text>
</a>
</g>
</g>
<!-- Node6 -->
<g id="node2" class="node">
<title>Node6</title>
<g id="a_node2"><a xlink:href="group__VMemory.html" target="_top" xlink:title="Vector memory management">
<polygon fill="#ffffff" stroke="#000000" points="404.3848,-131.5 404.3848,-149.5 548.7783,-149.5 548.7783,-131.5 404.3848,-131.5"/>
<text text-anchor="middle" x="476.5815" y="-137.5" font-family="Helvetica,sans-Serif" font-size="10.00" fill="#000000">Vector memory management</text>
</a>
</g>
</g>
<!-- Node1 -->
<g id="node3" class="node">
<title>Node1</title>
<g id="a_node3"><a xlink:href="group__LAC.html" target="_top" xlink:title="Linear algebra classes">
<polygon fill="#ffffff" stroke="#000000" points="0,-94.5 0,-112.5 116.0586,-112.5 116.0586,-94.5 0,-94.5"/>
<text text-anchor="middle" x="58.0293" y="-100.5" font-family="Helvetica,sans-Serif" font-size="10.00" fill="#000000">Linear algebra classes</text>
</a>
</g>
</g>
<!-- Node0 -->
<g id="node7" class="node">
<title>Node0</title>
<polygon fill="#bfbfbf" stroke="#000000" points="153.0586,-94.5 153.0586,-112.5 262.4326,-112.5 262.4326,-94.5 153.0586,-94.5"/>
<text text-anchor="middle" x="207.7456" y="-100.5" font-family="Helvetica,sans-Serif" font-size="10.00" fill="#000000">Linear solver classes</text>
</g>
<!-- Node1&#45;&gt;Node0 -->
<g id="edge1" class="edge">
<title>Node1&#45;&gt;Node0</title>
<path fill="none" stroke="#000000" d="M126.5687,-103.5C135.3508,-103.5 144.2497,-103.5 152.7773,-103.5"/>
<polygon fill="#000000" stroke="#000000" points="126.3423,-100.0001 116.3422,-103.5 126.3422,-107.0001 126.3423,-100.0001"/>
</g>
<!-- Node5 -->
<g id="node4" class="node">
<title>Node5</title>
<g id="a_node4"><a xlink:href="group__PETScWrappers.html" target="_top" xlink:title="PETScWrappers">
<polygon fill="#ffffff" stroke="#000000" points="431.438,-94.5 431.438,-112.5 521.7251,-112.5 521.7251,-94.5 431.438,-94.5"/>
<text text-anchor="middle" x="476.5815" y="-100.5" font-family="Helvetica,sans-Serif" font-size="10.00" fill="#000000">PETScWrappers</text>
</a>
</g>
</g>
<!-- Node2 -->
<g id="node5" class="node">
<title>Node2</title>
<g id="a_node5"><a xlink:href="group__Preconditioners.html" target="_top" xlink:title="Preconditioners and\l Relaxation Operators">
<polygon fill="#ffffff" stroke="#000000" points="419.9463,-47.5 419.9463,-75.5 533.2168,-75.5 533.2168,-47.5 419.9463,-47.5"/>
<text text-anchor="start" x="427.9463" y="-63.5" font-family="Helvetica,sans-Serif" font-size="10.00" fill="#000000">Preconditioners and</text>
<text text-anchor="middle" x="476.5815" y="-53.5" font-family="Helvetica,sans-Serif" font-size="10.00" fill="#000000"> Relaxation Operators</text>
</a>
</g>
</g>
<!-- Node3 -->
<g id="node6" class="node">
<title>Node3</title>
<g id="a_node6"><a xlink:href="group__feaccess.html" target="_top" xlink:title="Finite element access\l/FEValues classes">
<polygon fill="#ffffff" stroke="#000000" points="420.2271,-.5 420.2271,-28.5 532.936,-28.5 532.936,-.5 420.2271,-.5"/>
<text text-anchor="start" x="428.2271" y="-16.5" font-family="Helvetica,sans-Serif" font-size="10.00" fill="#000000">Finite element access</text>
<text text-anchor="middle" x="476.5815" y="-6.5" font-family="Helvetica,sans-Serif" font-size="10.00" fill="#000000">/FEValues classes</text>
</a>
</g>
</g>
<!-- Node0&#45;&gt;Node4 -->
<g id="edge4" class="edge">
<title>Node0&#45;&gt;Node4</title>
<path fill="none" stroke="#8a2be2" stroke-dasharray="5,2" d="M220.4822,-112.5083C234.502,-121.9762 258.0329,-136.5732 280.4326,-144.5 332.3561,-162.8747 395.7206,-171.163 436.1135,-174.8006"/>
<text text-anchor="middle" x="333.4087" y="-170.5" font-family="Helvetica,sans-Serif" font-size="10.00" fill="#000000">internal</text>
</g>
<!-- Node0&#45;&gt;Node6 -->
<g id="edge6" class="edge">
<title>Node0&#45;&gt;Node6</title>
<path fill="none" stroke="#8a2be2" stroke-dasharray="5,2" d="M251.8594,-112.5351C261.2674,-114.3109 271.1615,-116.0656 280.4326,-117.5 321.2626,-123.8171 367.114,-129.2832 404.2133,-133.2997"/>
<text text-anchor="middle" x="333.4087" y="-132.5" font-family="Helvetica,sans-Serif" font-size="10.00" fill="#000000">internal</text>
</g>
<!-- Node0&#45;&gt;Node5 -->
<g id="edge5" class="edge">
<title>Node0&#45;&gt;Node5</title>
<path fill="none" stroke="#8a2be2" stroke-dasharray="5,2" d="M262.4726,-103.5C312.214,-103.5 384.7417,-103.5 431.2978,-103.5"/>
<text text-anchor="middle" x="333.4087" y="-105.5" font-family="Helvetica,sans-Serif" font-size="10.00" fill="#000000">internal</text>
</g>
<!-- Node0&#45;&gt;Node2 -->
<g id="edge2" class="edge">
<title>Node0&#45;&gt;Node2</title>
<path fill="none" stroke="#ffa500" stroke-dasharray="5,2" d="M252.6622,-94.4959C261.8354,-92.7564 271.4337,-91.008 280.4326,-89.5 327.2502,-81.6545 380.5912,-74.1309 419.8179,-68.8621"/>
<text text-anchor="middle" x="333.4087" y="-91.5" font-family="Helvetica,sans-Serif" font-size="10.00" fill="#000000">SparseDirectUMFPACK</text>
</g>
<!-- Node0&#45;&gt;Node3 -->
<g id="edge3" class="edge">
<title>Node0&#45;&gt;Node3</title>
<path fill="none" stroke="#8a2be2" stroke-dasharray="5,2" d="M220.2609,-94.4836C234.2791,-84.779 257.9865,-69.5246 280.4326,-60.5 325.7042,-42.2982 379.8813,-30.2743 419.8153,-23.1002"/>
<text text-anchor="middle" x="333.4087" y="-62.5" font-family="Helvetica,sans-Serif" font-size="10.00" fill="#000000">internal</text>
</g>
</g>
</svg>
