<?xml version="1.0" encoding="UTF-8" standalone="no"?>
<!DOCTYPE svg PUBLIC "-//W3C//DTD SVG 1.1//EN"
 "http://www.w3.org/Graphics/SVG/1.1/DTD/svg11.dtd">
<!-- Generated by graphviz version 2.40.1 (20161225.0304)
 -->
<!-- Title: Handling vector valued problems Pages: 1 -->
<svg width="518pt" height="353pt"
 viewBox="0.00 0.00 518.08 352.50" xmlns="http://www.w3.org/2000/svg" xmlns:xlink="http://www.w3.org/1999/xlink">
<g id="graph0" class="graph" transform="scale(1 1) rotate(0) translate(4 348.5)">
<title>Handling vector valued problems</title>
<polygon fill="#ffffff" stroke="transparent" points="-4,4 -4,-348.5 514.082,-348.5 514.082,4 -4,4"/>
<!-- Node4 -->
<g id="node1" class="node">
<title>Node4</title>
<g id="a_node1"><a xlink:href="group__febase.html" target="_top" xlink:title="Base classes">
<polygon fill="#ffffff" stroke="#000000" points="416.2695,-322.5 416.2695,-340.5 491.1855,-340.5 491.1855,-322.5 416.2695,-322.5"/>
<text text-anchor="middle" x="453.7275" y="-328.5" font-family="Helvetica,sans-Serif" font-size="10.00" fill="#000000">Base classes</text>
</a>
</g>
</g>
<!-- Node1 -->
<g id="node2" class="node">
<title>Node1</title>
<g id="a_node2"><a xlink:href="group__feall.html" target="_top" xlink:title="Finite elements">
<polygon fill="#ffffff" stroke="#000000" points="0,-99.5 0,-117.5 83.8076,-117.5 83.8076,-99.5 0,-99.5"/>
<text text-anchor="middle" x="41.9038" y="-105.5" font-family="Helvetica,sans-Serif" font-size="10.00" fill="#000000">Finite elements</text>
</a>
</g>
</g>
<!-- Node0 -->
<g id="node3" class="node">
<title>Node0</title>
<polygon fill="#bfbfbf" stroke="#000000" points="120.8076,-94.5 120.8076,-122.5 238.5361,-122.5 238.5361,-94.5 120.8076,-94.5"/>
<text text-anchor="start" x="128.8076" y="-110.5" font-family="Helvetica,sans-Serif" font-size="10.00" fill="#000000">Handling vector valued</text>
<text text-anchor="middle" x="179.6719" y="-100.5" font-family="Helvetica,sans-Serif" font-size="10.00" fill="#000000"> problems</text>
</g>
<!-- Node1&#45;&gt;Node0 -->
<g id="edge1" class="edge">
<title>Node1&#45;&gt;Node0</title>
<path fill="none" stroke="#000000" d="M94.2657,-108.5C102.8728,-108.5 111.8457,-108.5 120.6025,-108.5"/>
<polygon fill="#000000" stroke="#000000" points="93.9874,-105.0001 83.9874,-108.5 93.9873,-112.0001 93.9874,-105.0001"/>
</g>
<!-- Node0&#45;&gt;Node4 -->
<g id="edge4" class="edge">
<title>Node0&#45;&gt;Node4</title>
<path fill="none" stroke="#ffa500" stroke-dasharray="5,2" d="M180.8725,-122.5938C184.7067,-158.1641 199.9646,-251.9732 256.5361,-297.5 302.004,-334.0909 372.7185,-337.2988 415.9621,-335.1805"/>
<text text-anchor="middle" x="317.9546" y="-336.5" font-family="Helvetica,sans-Serif" font-size="10.00" fill="#000000">FESystem</text>
</g>
<!-- Node2 -->
<g id="node4" class="node">
<title>Node2</title>
<g id="a_node4"><a xlink:href="group__feaccess.html" target="_top" xlink:title="Finite element access\l/FEValues classes">
<polygon fill="#ffffff" stroke="#000000" points="397.373,-111.5 397.373,-139.5 510.082,-139.5 510.082,-111.5 397.373,-111.5"/>
<text text-anchor="start" x="405.373" y="-127.5" font-family="Helvetica,sans-Serif" font-size="10.00" fill="#000000">Finite element access</text>
<text text-anchor="middle" x="453.7275" y="-117.5" font-family="Helvetica,sans-Serif" font-size="10.00" fill="#000000">/FEValues classes</text>
</a>
</g>
</g>
<!-- Node0&#45;&gt;Node2 -->
<g id="edge5" class="edge">
<title>Node0&#45;&gt;Node2</title>
<path fill="none" stroke="#ffa500" stroke-dasharray="5,2" d="M201.5106,-122.6842C216.3611,-131.4563 236.8221,-141.893 256.5361,-146.5 309.698,-158.9234 325.2951,-153.9901 379.373,-146.5 390.0026,-145.0277 401.2498,-142.4249 411.6907,-139.5418"/>
<text text-anchor="middle" x="317.9546" y="-285.5" font-family="Helvetica,sans-Serif" font-size="10.00" fill="#000000">FEValuesViews::Scalar</text>
<text text-anchor="middle" x="317.9546" y="-275.5" font-family="Helvetica,sans-Serif" font-size="10.00" fill="#000000">FEValuesViews::Vector</text>
<text text-anchor="start" x="256.5361" y="-265.5" font-family="Helvetica,sans-Serif" font-size="10.00" fill="#000000">FEValuesViews::Symmetric</text>
<text text-anchor="middle" x="317.9546" y="-255.5" font-family="Helvetica,sans-Serif" font-size="10.00" fill="#000000">Tensor&lt; 2, dim, spacedim &gt;</text>
<text text-anchor="start" x="256.5361" y="-245.5" font-family="Helvetica,sans-Serif" font-size="10.00" fill="#000000">FEValuesViews::Tensor</text>
<text text-anchor="middle" x="317.9546" y="-235.5" font-family="Helvetica,sans-Serif" font-size="10.00" fill="#000000">&lt; 2, dim, spacedim &gt;</text>
<text text-anchor="start" x="256.5361" y="-225.5" font-family="Helvetica,sans-Serif" font-size="10.00" fill="#000000">FEValuesExtractors</text>
<text text-anchor="middle" x="317.9546" y="-215.5" font-family="Helvetica,sans-Serif" font-size="10.00" fill="#000000">::Scalar</text>
<text text-anchor="start" x="256.5361" y="-205.5" font-family="Helvetica,sans-Serif" font-size="10.00" fill="#000000">FEValuesExtractors</text>
<text text-anchor="middle" x="317.9546" y="-195.5" font-family="Helvetica,sans-Serif" font-size="10.00" fill="#000000">::Vector</text>
<text text-anchor="start" x="256.5361" y="-185.5" font-family="Helvetica,sans-Serif" font-size="10.00" fill="#000000">FEValuesExtractors</text>
<text text-anchor="middle" x="317.9546" y="-175.5" font-family="Helvetica,sans-Serif" font-size="10.00" fill="#000000">::SymmetricTensor</text>
<text text-anchor="start" x="256.5361" y="-165.5" font-family="Helvetica,sans-Serif" font-size="10.00" fill="#000000">FEValuesExtractors</text>
<text text-anchor="middle" x="317.9546" y="-155.5" font-family="Helvetica,sans-Serif" font-size="10.00" fill="#000000">::Tensor</text>
</g>
<!-- Node0&#45;&gt;Node2 -->
<g id="edge7" class="edge">
<title>Node0&#45;&gt;Node2</title>
<path fill="none" stroke="#8a2be2" stroke-dasharray="5,2" d="M238.8005,-112.1678C285.6917,-115.0765 350.8074,-119.1157 397.0482,-121.9841"/>
<text text-anchor="middle" x="317.9546" y="-131.5" font-family="Helvetica,sans-Serif" font-size="10.00" fill="#000000">FEValuesViews</text>
<text text-anchor="middle" x="317.9546" y="-121.5" font-family="Helvetica,sans-Serif" font-size="10.00" fill="#000000">FEValuesExtractors</text>
</g>
<!-- Node5 -->
<g id="node5" class="node">
<title>Node5</title>
<g id="a_node5"><a xlink:href="group__Matrix2.html" target="_top" xlink:title="Derived matrices">
<polygon fill="#ffffff" stroke="#000000" points="408.2178,-58.5 408.2178,-76.5 499.2373,-76.5 499.2373,-58.5 408.2178,-58.5"/>
<text text-anchor="middle" x="453.7275" y="-64.5" font-family="Helvetica,sans-Serif" font-size="10.00" fill="#000000">Derived matrices</text>
</a>
</g>
</g>
<!-- Node0&#45;&gt;Node5 -->
<g id="edge6" class="edge">
<title>Node0&#45;&gt;Node5</title>
<path fill="none" stroke="#ffa500" stroke-dasharray="5,2" d="M229.0484,-94.4998C238.1375,-92.2521 247.5831,-90.1322 256.5361,-88.5 308.0185,-79.1145 367.8832,-73.471 408.0267,-70.4346"/>
<text text-anchor="middle" x="317.9546" y="-90.5" font-family="Helvetica,sans-Serif" font-size="10.00" fill="#000000">MatrixBlock</text>
</g>
<!-- Node3 -->
<g id="node6" class="node">
<title>Node3</title>
<g id="a_node6"><a xlink:href="group__fe.html" target="_top" xlink:title="Finite element space\l descriptions">
<polygon fill="#ffffff" stroke="#000000" points="399.5923,-.5 399.5923,-28.5 507.8628,-28.5 507.8628,-.5 399.5923,-.5"/>
<text text-anchor="start" x="407.5923" y="-16.5" font-family="Helvetica,sans-Serif" font-size="10.00" fill="#000000">Finite element space</text>
<text text-anchor="middle" x="453.7275" y="-6.5" font-family="Helvetica,sans-Serif" font-size="10.00" fill="#000000"> descriptions</text>
</a>
</g>
</g>
<!-- Node0&#45;&gt;Node3 -->
<g id="edge3" class="edge">
<title>Node0&#45;&gt;Node3</title>
<path fill="none" stroke="#ffa500" stroke-dasharray="5,2" d="M190.7204,-94.3753C204.3047,-78.1355 228.9742,-52.1012 256.5361,-39.5 301.7293,-18.8379 358.4727,-13.5105 399.473,-12.8039"/>
<text text-anchor="middle" x="317.9546" y="-61.5" font-family="Helvetica,sans-Serif" font-size="10.00" fill="#000000">BlockMask</text>
<text text-anchor="middle" x="317.9546" y="-51.5" font-family="Helvetica,sans-Serif" font-size="10.00" fill="#000000">ComponentMask</text>
<text text-anchor="middle" x="317.9546" y="-41.5" font-family="Helvetica,sans-Serif" font-size="10.00" fill="#000000">FESystem</text>
</g>
<!-- Node2&#45;&gt;Node0 -->
<g id="edge2" class="edge">
<title>Node2&#45;&gt;Node0</title>
<path fill="none" stroke="#000000" d="M396.0543,-109.2685C390.4523,-108.1437 384.8261,-107.1857 379.373,-106.5 332.4154,-100.5953 278.7576,-101.556 238.8949,-103.7396"/>
<polygon fill="#000000" stroke="#000000" points="395.5533,-112.7414 406.0692,-111.4505 397.0435,-105.9019 395.5533,-112.7414"/>
</g>
</g>
</svg>
