<?xml version="1.0" encoding="UTF-8" standalone="no"?>
<!DOCTYPE svg PUBLIC "-//W3C//DTD SVG 1.1//EN"
 "http://www.w3.org/Graphics/SVG/1.1/DTD/svg11.dtd">
<!-- Generated by graphviz version 2.40.1 (20161225.0304)
 -->
<!-- Title: Parallel computing Pages: 1 -->
<svg width="278pt" height="104pt"
 viewBox="0.00 0.00 277.76 104.00" xmlns="http://www.w3.org/2000/svg" xmlns:xlink="http://www.w3.org/1999/xlink">
<g id="graph0" class="graph" transform="scale(1 1) rotate(0) translate(4 100)">
<title>Parallel computing</title>
<polygon fill="#ffffff" stroke="transparent" points="-4,4 -4,-100 273.7578,-100 273.7578,4 -4,4"/>
<!-- Node0 -->
<g id="node1" class="node">
<title>Node0</title>
<polygon fill="#bfbfbf" stroke="#000000" points="0,-38.5 0,-56.5 98.2656,-56.5 98.2656,-38.5 0,-38.5"/>
<text text-anchor="middle" x="49.1328" y="-44.5" font-family="Helvetica,sans-Serif" font-size="10.00" fill="#000000">Parallel computing</text>
</g>
<!-- Node1 -->
<g id="node2" class="node">
<title>Node1</title>
<g id="a_node2"><a xlink:href="group__distributed.html" target="_top" xlink:title="A module discussing the use of parallelism on distributed memory clusters. ">
<polygon fill="#ffffff" stroke="#000000" points="136.7656,-57.5 136.7656,-95.5 267.2578,-95.5 267.2578,-57.5 136.7656,-57.5"/>
<text text-anchor="start" x="144.7656" y="-83.5" font-family="Helvetica,sans-Serif" font-size="10.00" fill="#000000">Parallel computing</text>
<text text-anchor="start" x="144.7656" y="-73.5" font-family="Helvetica,sans-Serif" font-size="10.00" fill="#000000"> with multiple processors</text>
<text text-anchor="middle" x="202.0117" y="-63.5" font-family="Helvetica,sans-Serif" font-size="10.00" fill="#000000"> using distributed memory</text>
</a>
</g>
</g>
<!-- Node0&#45;&gt;Node1 -->
<g id="edge1" class="edge">
<title>Node0&#45;&gt;Node1</title>
<path fill="none" stroke="#000000" d="M106.6458,-58.4098C116.4021,-60.2605 126.5973,-62.1944 136.5397,-64.0804"/>
<polygon fill="#000000" stroke="#000000" points="107.1438,-54.9419 96.6666,-56.5168 105.8391,-61.8193 107.1438,-54.9419"/>
</g>
<!-- Node2 -->
<g id="node3" class="node">
<title>Node2</title>
<g id="a_node3"><a xlink:href="group__threads.html" target="_top" xlink:title="A module discussing the use of parallelism on shared memory machines. See the detailed documentation ...">
<polygon fill="#ffffff" stroke="#000000" points="134.2656,-.5 134.2656,-38.5 269.7578,-38.5 269.7578,-.5 134.2656,-.5"/>
<text text-anchor="start" x="142.2656" y="-26.5" font-family="Helvetica,sans-Serif" font-size="10.00" fill="#000000">Parallel computing</text>
<text text-anchor="start" x="142.2656" y="-16.5" font-family="Helvetica,sans-Serif" font-size="10.00" fill="#000000"> with multiple processors</text>
<text text-anchor="middle" x="202.0117" y="-6.5" font-family="Helvetica,sans-Serif" font-size="10.00" fill="#000000"> accessing shared memory</text>
</a>
</g>
</g>
<!-- Node0&#45;&gt;Node2 -->
<g id="edge2" class="edge">
<title>Node0&#45;&gt;Node2</title>
<path fill="none" stroke="#000000" d="M108.1888,-36.6838C116.7157,-35.1221 125.5474,-33.5045 134.2283,-31.9146"/>
<polygon fill="#000000" stroke="#000000" points="107.552,-33.2421 98.3462,-38.4865 108.8131,-40.1276 107.552,-33.2421"/>
</g>
</g>
</svg>
