<?xml version="1.0" encoding="UTF-8" standalone="no"?>
<!DOCTYPE svg PUBLIC "-//W3C//DTD SVG 1.1//EN"
 "http://www.w3.org/Graphics/SVG/1.1/DTD/svg11.dtd">
<!-- Generated by graphviz version 2.40.1 (20161225.0304)
 -->
<!-- Title: Derived matrices Pages: 1 -->
<svg width="421pt" height="37pt"
 viewBox="0.00 0.00 420.77 37.00" xmlns="http://www.w3.org/2000/svg" xmlns:xlink="http://www.w3.org/1999/xlink">
<g id="graph0" class="graph" transform="scale(1 1) rotate(0) translate(4 33)">
<title>Derived matrices</title>
<polygon fill="#ffffff" stroke="transparent" points="-4,4 -4,-33 416.7676,-33 416.7676,4 -4,4"/>
<!-- Node2 -->
<g id="node1" class="node">
<title>Node2</title>
<g id="a_node1"><a xlink:href="group__vector__valued.html" target="_top" xlink:title="Handling vector valued\l problems">
<polygon fill="#ffffff" stroke="#000000" points="295.0391,-.5 295.0391,-28.5 412.7676,-28.5 412.7676,-.5 295.0391,-.5"/>
<text text-anchor="start" x="303.0391" y="-16.5" font-family="Helvetica,sans-Serif" font-size="10.00" fill="#000000">Handling vector valued</text>
<text text-anchor="middle" x="353.9033" y="-6.5" font-family="Helvetica,sans-Serif" font-size="10.00" fill="#000000"> problems</text>
</a>
</g>
</g>
<!-- Node0 -->
<g id="node2" class="node">
<title>Node0</title>
<polygon fill="#bfbfbf" stroke="#000000" points="116.3447,-5.5 116.3447,-23.5 207.3643,-23.5 207.3643,-5.5 116.3447,-5.5"/>
<text text-anchor="middle" x="161.8545" y="-11.5" font-family="Helvetica,sans-Serif" font-size="10.00" fill="#000000">Derived matrices</text>
</g>
<!-- Node0&#45;&gt;Node2 -->
<g id="edge2" class="edge">
<title>Node0&#45;&gt;Node2</title>
<path fill="none" stroke="#ffa500" stroke-dasharray="5,2" d="M207.3674,-14.5C233.5447,-14.5 266.7233,-14.5 294.8872,-14.5"/>
<text text-anchor="middle" x="251.2017" y="-16.5" font-family="Helvetica,sans-Serif" font-size="10.00" fill="#000000">MatrixBlock</text>
</g>
<!-- Node1 -->
<g id="node3" class="node">
<title>Node1</title>
<g id="a_node3"><a xlink:href="group__Matrices.html" target="_top" xlink:title="Matrix classes">
<polygon fill="#ffffff" stroke="#000000" points="0,-5.5 0,-23.5 79.3447,-23.5 79.3447,-5.5 0,-5.5"/>
<text text-anchor="middle" x="39.6724" y="-11.5" font-family="Helvetica,sans-Serif" font-size="10.00" fill="#000000">Matrix classes</text>
</a>
</g>
</g>
<!-- Node1&#45;&gt;Node0 -->
<g id="edge1" class="edge">
<title>Node1&#45;&gt;Node0</title>
<path fill="none" stroke="#000000" d="M89.7782,-14.5C98.5415,-14.5 107.6165,-14.5 116.2498,-14.5"/>
<polygon fill="#000000" stroke="#000000" points="89.6794,-11.0001 79.6794,-14.5 89.6793,-18.0001 89.6794,-11.0001"/>
</g>
</g>
</svg>
