<?xml version="1.0" encoding="UTF-8" standalone="no"?>
<!DOCTYPE svg PUBLIC "-//W3C//DTD SVG 1.1//EN"
 "http://www.w3.org/Graphics/SVG/1.1/DTD/svg11.dtd">
<!-- Generated by graphviz version 2.40.1 (20161225.0304)
 -->
<!-- Title: Grid classes Pages: 1 -->
<svg width="342pt" height="332pt"
 viewBox="0.00 0.00 342.24 332.33" xmlns="http://www.w3.org/2000/svg" xmlns:xlink="http://www.w3.org/1999/xlink">
<g id="graph0" class="graph" transform="scale(1 1) rotate(0) translate(4 328.3298)">
<title>Grid classes</title>
<polygon fill="#ffffff" stroke="transparent" points="-4,4 -4,-328.3298 338.2402,-328.3298 338.2402,4 -4,4"/>
<!-- Node1 -->
<g id="node1" class="node">
<title>Node1</title>
<g id="a_node1"><a xlink:href="group__boundary.html" target="_top" xlink:title="Boundary and manifold\l description for triangulations">
<polygon fill="#ffffff" stroke="#000000" points="190.3936,-295.8298 190.3936,-323.8298 334.2402,-323.8298 334.2402,-295.8298 190.3936,-295.8298"/>
<text text-anchor="start" x="198.3936" y="-311.8298" font-family="Helvetica,sans-Serif" font-size="10.00" fill="#000000">Boundary and manifold</text>
<text text-anchor="middle" x="262.3169" y="-301.8298" font-family="Helvetica,sans-Serif" font-size="10.00" fill="#000000"> description for triangulations</text>
</a>
</g>
</g>
<!-- Node3 -->
<g id="node2" class="node">
<title>Node3</title>
<g id="a_node2"><a xlink:href="group__manifold.html" target="_top" xlink:title="Manifold description\l for triangulations">
<polygon fill="#ffffff" stroke="#000000" points="209.8491,-248.8298 209.8491,-276.8298 314.7847,-276.8298 314.7847,-248.8298 209.8491,-248.8298"/>
<text text-anchor="start" x="217.8491" y="-264.8298" font-family="Helvetica,sans-Serif" font-size="10.00" fill="#000000">Manifold description</text>
<text text-anchor="middle" x="262.3169" y="-254.8298" font-family="Helvetica,sans-Serif" font-size="10.00" fill="#000000"> for triangulations</text>
</a>
</g>
</g>
<!-- Node6 -->
<g id="node3" class="node">
<title>Node6</title>
<g id="a_node3"><a xlink:href="group__output.html" target="_top" xlink:title="Graphical output">
<polygon fill="#ffffff" stroke="#000000" points="217.6274,-211.8298 217.6274,-229.8298 307.0063,-229.8298 307.0063,-211.8298 217.6274,-211.8298"/>
<text text-anchor="middle" x="262.3169" y="-217.8298" font-family="Helvetica,sans-Serif" font-size="10.00" fill="#000000">Graphical output</text>
</a>
</g>
</g>
<!-- Node7 -->
<g id="node4" class="node">
<title>Node7</title>
<g id="a_node4"><a xlink:href="group__Accessors.html" target="_top" xlink:title="Accessor classes of\l the mesh iterators">
<polygon fill="#ffffff" stroke="#000000" points="210.1348,-164.8298 210.1348,-192.8298 314.499,-192.8298 314.499,-164.8298 210.1348,-164.8298"/>
<text text-anchor="start" x="218.1348" y="-180.8298" font-family="Helvetica,sans-Serif" font-size="10.00" fill="#000000">Accessor classes of</text>
<text text-anchor="middle" x="262.3169" y="-170.8298" font-family="Helvetica,sans-Serif" font-size="10.00" fill="#000000"> the mesh iterators</text>
</a>
</g>
</g>
<!-- Node4 -->
<g id="node5" class="node">
<title>Node4</title>
<g id="a_node5"><a xlink:href="group__geomprimitives.html" target="_top" xlink:title="Geometric and other\l primitives">
<polygon fill="#ffffff" stroke="#000000" points="208.7383,-117.8298 208.7383,-145.8298 315.8955,-145.8298 315.8955,-117.8298 208.7383,-117.8298"/>
<text text-anchor="start" x="216.7383" y="-133.8298" font-family="Helvetica,sans-Serif" font-size="10.00" fill="#000000">Geometric and other</text>
<text text-anchor="middle" x="262.3169" y="-123.8298" font-family="Helvetica,sans-Serif" font-size="10.00" fill="#000000"> primitives</text>
</a>
</g>
</g>
<!-- Node2 -->
<g id="node6" class="node">
<title>Node2</title>
<g id="a_node6"><a xlink:href="group__Iterators.html" target="_top" xlink:title="Iterators on mesh&#45;like\l containers">
<polygon fill="#ffffff" stroke="#000000" points="206.2432,-56.8298 206.2432,-84.8298 318.3906,-84.8298 318.3906,-56.8298 206.2432,-56.8298"/>
<text text-anchor="start" x="214.2432" y="-72.8298" font-family="Helvetica,sans-Serif" font-size="10.00" fill="#000000">Iterators on mesh&#45;like</text>
<text text-anchor="middle" x="262.3169" y="-62.8298" font-family="Helvetica,sans-Serif" font-size="10.00" fill="#000000"> containers</text>
</a>
</g>
</g>
<!-- Node0 -->
<g id="node7" class="node">
<title>Node0</title>
<polygon fill="#bfbfbf" stroke="#000000" points="0,-147.8298 0,-165.8298 71.0146,-165.8298 71.0146,-147.8298 0,-147.8298"/>
<text text-anchor="middle" x="35.5073" y="-153.8298" font-family="Helvetica,sans-Serif" font-size="10.00" fill="#000000">Grid classes</text>
</g>
<!-- Node0&#45;&gt;Node1 -->
<g id="edge1" class="edge">
<title>Node0&#45;&gt;Node1</title>
<path fill="none" stroke="#000000" d="M41.0358,-175.7242C48.4421,-197.7981 63.674,-233.9505 89.0146,-254.8298 117.6398,-278.4153 156.4969,-291.9368 190.1631,-299.6639"/>
<polygon fill="#000000" stroke="#000000" points="44.2798,-174.3725 37.9409,-165.8831 37.6022,-176.4725 44.2798,-174.3725"/>
</g>
<!-- Node0&#45;&gt;Node3 -->
<g id="edge3" class="edge">
<title>Node0&#45;&gt;Node3</title>
<path fill="none" stroke="#000000" d="M44.7195,-175.3291C53.7557,-191.4943 69.0707,-214.2847 89.0146,-226.8298 125.1706,-249.5725 173.1556,-258.2314 209.4647,-261.3957"/>
<polygon fill="#000000" stroke="#000000" points="47.6945,-173.4681 39.9194,-166.2709 41.5093,-176.7458 47.6945,-173.4681"/>
</g>
<!-- Node0&#45;&gt;Node6 -->
<g id="edge7" class="edge">
<title>Node0&#45;&gt;Node6</title>
<path fill="none" stroke="#ffa500" stroke-dasharray="5,2" d="M46.1862,-166.0802C56.4542,-174.4483 72.77,-186.4127 89.0146,-192.8298 130.6831,-209.2899 181.6404,-216.079 217.4797,-218.8763"/>
<text text-anchor="middle" x="130.7041" y="-214.8298" font-family="Helvetica,sans-Serif" font-size="10.00" fill="#000000">GridOut</text>
</g>
<!-- Node0&#45;&gt;Node7 -->
<g id="edge8" class="edge">
<title>Node0&#45;&gt;Node7</title>
<path fill="none" stroke="#ffa500" stroke-dasharray="5,2" d="M71.1958,-160.2915C108.4965,-163.9096 167.4106,-169.6241 209.9735,-173.7526"/>
<text text-anchor="middle" x="130.7041" y="-180.8298" font-family="Helvetica,sans-Serif" font-size="10.00" fill="#000000">TriaAccessorBase</text>
<text text-anchor="middle" x="130.7041" y="-170.8298" font-family="Helvetica,sans-Serif" font-size="10.00" fill="#000000">CellAccessor</text>
</g>
<!-- Node0&#45;&gt;Node4 -->
<g id="edge4" class="edge">
<title>Node0&#45;&gt;Node4</title>
<path fill="none" stroke="#ffa500" stroke-dasharray="5,2" d="M56.1873,-147.8147C65.9491,-143.9967 77.8778,-139.9475 89.0146,-137.8298 128.4977,-130.3221 173.93,-129.0131 208.3694,-129.4793"/>
<text text-anchor="middle" x="130.7041" y="-149.8298" font-family="Helvetica,sans-Serif" font-size="10.00" fill="#000000">GeometryInfo&lt; 0 &gt;</text>
<text text-anchor="middle" x="130.7041" y="-139.8298" font-family="Helvetica,sans-Serif" font-size="10.00" fill="#000000">GeometryInfo</text>
</g>
<!-- Node0&#45;&gt;Node2 -->
<g id="edge2" class="edge">
<title>Node0&#45;&gt;Node2</title>
<path fill="none" stroke="#000000" d="M57.0961,-142.3236C66.6051,-136.359 78.0823,-129.7187 89.0146,-124.8298 126.845,-107.9121 171.5379,-94.1263 206.0613,-84.7188"/>
<polygon fill="#000000" stroke="#000000" points="55.1751,-139.3977 48.6643,-147.7559 58.9663,-145.2821 55.1751,-139.3977"/>
</g>
<!-- Node0&#45;&gt;Node2 -->
<g id="edge5" class="edge">
<title>Node0&#45;&gt;Node2</title>
<path fill="none" stroke="#ffa500" stroke-dasharray="5,2" d="M36.9114,-147.5834C40.7386,-126.0346 53.5507,-72.6542 89.0146,-50.8298 133.1223,-23.6861 195.6293,-41.7283 232.2752,-56.702"/>
<text text-anchor="middle" x="130.7041" y="-82.8298" font-family="Helvetica,sans-Serif" font-size="10.00" fill="#000000">FilteredIterator</text>
<text text-anchor="middle" x="130.7041" y="-72.8298" font-family="Helvetica,sans-Serif" font-size="10.00" fill="#000000">TriaRawIterator</text>
<text text-anchor="middle" x="130.7041" y="-62.8298" font-family="Helvetica,sans-Serif" font-size="10.00" fill="#000000">TriaIterator</text>
<text text-anchor="middle" x="130.7041" y="-52.8298" font-family="Helvetica,sans-Serif" font-size="10.00" fill="#000000">TriaActiveIterator</text>
</g>
<!-- Node5 -->
<g id="node8" class="node">
<title>Node5</title>
<g id="a_node8"><a xlink:href="group__input.html" target="_top" xlink:title="Input">
<polygon fill="#ffffff" stroke="#000000" points="243.1963,-5.8298 243.1963,-23.8298 281.4375,-23.8298 281.4375,-5.8298 243.1963,-5.8298"/>
<text text-anchor="middle" x="262.3169" y="-11.8298" font-family="Helvetica,sans-Serif" font-size="10.00" fill="#000000">Input</text>
</a>
</g>
</g>
<!-- Node0&#45;&gt;Node5 -->
<g id="edge6" class="edge">
<title>Node0&#45;&gt;Node5</title>
<path fill="none" stroke="#ffa500" stroke-dasharray="5,2" d="M35.934,-147.5709C37.6514,-122.3273 46.2411,-52.1668 89.0146,-21.8298 135.6812,11.2683 208.5393,-.9077 243.0049,-9.3859"/>
<text text-anchor="middle" x="130.7041" y="-23.8298" font-family="Helvetica,sans-Serif" font-size="10.00" fill="#000000">GridIn</text>
</g>
</g>
</svg>
