<?xml version="1.0" encoding="UTF-8" standalone="no"?>
<!DOCTYPE svg PUBLIC "-//W3C//DTD SVG 1.1//EN"
 "http://www.w3.org/Graphics/SVG/1.1/DTD/svg11.dtd">
<!-- Generated by graphviz version 2.40.1 (20161225.0304)
 -->
<!-- Title: Preconditioners and Relaxation Operators Pages: 1 -->
<svg width="584pt" height="214pt"
 viewBox="0.00 0.00 584.22 213.69" xmlns="http://www.w3.org/2000/svg" xmlns:xlink="http://www.w3.org/1999/xlink">
<g id="graph0" class="graph" transform="scale(1 1) rotate(0) translate(4 209.6859)">
<title>Preconditioners and Relaxation Operators</title>
<polygon fill="#ffffff" stroke="transparent" points="-4,4 -4,-209.6859 580.2197,-209.6859 580.2197,4 -4,4"/>
<!-- Node1 -->
<g id="node1" class="node">
<title>Node1</title>
<g id="a_node1"><a xlink:href="group__LAC.html" target="_top" xlink:title="Linear algebra classes">
<polygon fill="#ffffff" stroke="#000000" points="0,-114.6859 0,-132.6859 116.0586,-132.6859 116.0586,-114.6859 0,-114.6859"/>
<text text-anchor="middle" x="58.0293" y="-120.6859" font-family="Helvetica,sans-Serif" font-size="10.00" fill="#000000">Linear algebra classes</text>
</a>
</g>
</g>
<!-- Node0 -->
<g id="node2" class="node">
<title>Node0</title>
<polygon fill="#bfbfbf" stroke="#000000" points="153.0586,-90.6859 153.0586,-118.6859 266.3291,-118.6859 266.3291,-90.6859 153.0586,-90.6859"/>
<text text-anchor="start" x="161.0586" y="-106.6859" font-family="Helvetica,sans-Serif" font-size="10.00" fill="#000000">Preconditioners and</text>
<text text-anchor="middle" x="209.6938" y="-96.6859" font-family="Helvetica,sans-Serif" font-size="10.00" fill="#000000"> Relaxation Operators</text>
</g>
<!-- Node1&#45;&gt;Node0 -->
<g id="edge1" class="edge">
<title>Node1&#45;&gt;Node0</title>
<path fill="none" stroke="#000000" d="M126.2145,-115.1438C135.1325,-114.0266 144.1931,-112.8916 152.896,-111.8013"/>
<polygon fill="#000000" stroke="#000000" points="125.7204,-111.6783 116.233,-116.3943 126.5906,-118.624 125.7204,-111.6783"/>
</g>
<!-- Node3 -->
<g id="node4" class="node">
<title>Node3</title>
<g id="a_node4"><a xlink:href="group__Solvers.html" target="_top" xlink:title="Linear solver classes">
<polygon fill="#ffffff" stroke="#000000" points="466.8457,-182.6859 466.8457,-200.6859 576.2197,-200.6859 576.2197,-182.6859 466.8457,-182.6859"/>
<text text-anchor="middle" x="521.5327" y="-188.6859" font-family="Helvetica,sans-Serif" font-size="10.00" fill="#000000">Linear solver classes</text>
</a>
</g>
</g>
<!-- Node0&#45;&gt;Node3 -->
<g id="edge3" class="edge">
<title>Node0&#45;&gt;Node3</title>
<path fill="none" stroke="#ffa500" stroke-dasharray="5,2" d="M220.9189,-118.6972C234.226,-134.1728 257.9498,-158.3929 284.3291,-169.6859 342.8805,-194.7517 416.8259,-197.6215 466.456,-195.9291"/>
<text text-anchor="middle" x="366.5874" y="-197.6859" font-family="Helvetica,sans-Serif" font-size="10.00" fill="#000000">SparseDirectUMFPACK</text>
</g>
<!-- Node4 -->
<g id="node5" class="node">
<title>Node4</title>
<g id="a_node5"><a xlink:href="group__TrilinosWrappers.html" target="_top" xlink:title="TrilinosWrappers">
<polygon fill="#ffffff" stroke="#000000" points="476.0181,-9.6859 476.0181,-27.6859 567.0474,-27.6859 567.0474,-9.6859 476.0181,-9.6859"/>
<text text-anchor="middle" x="521.5327" y="-15.6859" font-family="Helvetica,sans-Serif" font-size="10.00" fill="#000000">TrilinosWrappers</text>
</a>
</g>
</g>
<!-- Node0&#45;&gt;Node4 -->
<g id="edge4" class="edge">
<title>Node0&#45;&gt;Node4</title>
<path fill="none" stroke="#ffa500" stroke-dasharray="5,2" d="M217.0157,-90.5322C228.3286,-70.4051 252.1573,-34.3326 284.3291,-19.6859 349.1697,9.8339 434.7004,-.0874 483.3458,-9.6239"/>
<text text-anchor="middle" x="366.5874" y="-161.6859" font-family="Helvetica,sans-Serif" font-size="10.00" fill="#000000">TrilinosWrappers::PreconditionBase</text>
<text text-anchor="start" x="284.3291" y="-151.6859" font-family="Helvetica,sans-Serif" font-size="10.00" fill="#000000">TrilinosWrappers::Precondition</text>
<text text-anchor="middle" x="366.5874" y="-141.6859" font-family="Helvetica,sans-Serif" font-size="10.00" fill="#000000">Jacobi</text>
<text text-anchor="middle" x="366.5874" y="-131.6859" font-family="Helvetica,sans-Serif" font-size="10.00" fill="#000000">TrilinosWrappers::PreconditionSSOR</text>
<text text-anchor="middle" x="366.5874" y="-121.6859" font-family="Helvetica,sans-Serif" font-size="10.00" fill="#000000">TrilinosWrappers::PreconditionSOR</text>
<text text-anchor="start" x="284.3291" y="-111.6859" font-family="Helvetica,sans-Serif" font-size="10.00" fill="#000000">TrilinosWrappers::Precondition</text>
<text text-anchor="middle" x="366.5874" y="-101.6859" font-family="Helvetica,sans-Serif" font-size="10.00" fill="#000000">BlockJacobi</text>
<text text-anchor="start" x="284.3291" y="-91.6859" font-family="Helvetica,sans-Serif" font-size="10.00" fill="#000000">TrilinosWrappers::Precondition</text>
<text text-anchor="middle" x="366.5874" y="-81.6859" font-family="Helvetica,sans-Serif" font-size="10.00" fill="#000000">BlockSSOR</text>
<text text-anchor="start" x="284.3291" y="-71.6859" font-family="Helvetica,sans-Serif" font-size="10.00" fill="#000000">TrilinosWrappers::Precondition</text>
<text text-anchor="middle" x="366.5874" y="-61.6859" font-family="Helvetica,sans-Serif" font-size="10.00" fill="#000000">BlockSOR</text>
<text text-anchor="middle" x="366.5874" y="-51.6859" font-family="Helvetica,sans-Serif" font-size="10.00" fill="#000000">TrilinosWrappers::PreconditionIC</text>
<text text-anchor="middle" x="366.5874" y="-41.6859" font-family="Helvetica,sans-Serif" font-size="10.00" fill="#000000">TrilinosWrappers::PreconditionILU</text>
<text text-anchor="middle" x="366.5874" y="-31.6859" font-family="Helvetica,sans-Serif" font-size="10.00" fill="#000000">TrilinosWrappers::PreconditionILUT</text>
<text text-anchor="middle" x="366.5874" y="-21.6859" font-family="Helvetica,sans-Serif" font-size="10.00" fill="#000000">...</text>
</g>
<!-- Node2 -->
<g id="node3" class="node">
<title>Node2</title>
<g id="a_node3"><a xlink:href="group__Matrices.html" target="_top" xlink:title="Matrix classes">
<polygon fill="#ffffff" stroke="#000000" points="18.3569,-77.6859 18.3569,-95.6859 97.7017,-95.6859 97.7017,-77.6859 18.3569,-77.6859"/>
<text text-anchor="middle" x="58.0293" y="-83.6859" font-family="Helvetica,sans-Serif" font-size="10.00" fill="#000000">Matrix classes</text>
</a>
</g>
</g>
<!-- Node2&#45;&gt;Node0 -->
<g id="edge2" class="edge">
<title>Node2&#45;&gt;Node0</title>
<path fill="none" stroke="#000000" d="M108.0692,-92.6247C122.4551,-94.3321 138.2469,-96.2063 153.0039,-97.9577"/>
<polygon fill="#000000" stroke="#000000" points="108.2202,-89.1182 97.8774,-91.4151 107.3952,-96.0694 108.2202,-89.1182"/>
</g>
</g>
</svg>
