<?xml version="1.0" encoding="UTF-8" standalone="no"?>
<!DOCTYPE svg PUBLIC "-//W3C//DTD SVG 1.1//EN"
 "http://www.w3.org/Graphics/SVG/1.1/DTD/svg11.dtd">
<!-- Generated by graphviz version 2.40.1 (20161225.0304)
 -->
<!-- Title: Utility functions and classes Pages: 1 -->
<svg width="265pt" height="64pt"
 viewBox="0.00 0.00 264.97 64.00" xmlns="http://www.w3.org/2000/svg" xmlns:xlink="http://www.w3.org/1999/xlink">
<g id="graph0" class="graph" transform="scale(1 1) rotate(0) translate(4 60)">
<title>Utility functions and classes</title>
<polygon fill="#ffffff" stroke="transparent" points="-4,4 -4,-60 260.9697,-60 260.9697,4 -4,4"/>
<!-- Node0 -->
<g id="node1" class="node">
<title>Node0</title>
<polygon fill="#bfbfbf" stroke="#000000" points="0,-13.5 0,-41.5 102.709,-41.5 102.709,-13.5 0,-13.5"/>
<text text-anchor="start" x="8" y="-29.5" font-family="Helvetica,sans-Serif" font-size="10.00" fill="#000000">Utility functions and</text>
<text text-anchor="middle" x="51.3545" y="-19.5" font-family="Helvetica,sans-Serif" font-size="10.00" fill="#000000"> classes</text>
</g>
<!-- Node2 -->
<g id="node2" class="node">
<title>Node2</title>
<g id="a_node2"><a xlink:href="group__data.html" target="_top" xlink:title="Data storage primitives">
<polygon fill="#ffffff" stroke="#000000" points="138.709,-37.5 138.709,-55.5 256.9697,-55.5 256.9697,-37.5 138.709,-37.5"/>
<text text-anchor="middle" x="197.8394" y="-43.5" font-family="Helvetica,sans-Serif" font-size="10.00" fill="#000000">Data storage primitives</text>
</a>
</g>
</g>
<!-- Node0&#45;&gt;Node2 -->
<g id="edge2" class="edge">
<title>Node0&#45;&gt;Node2</title>
<path fill="none" stroke="#000000" d="M113.1654,-35.5173C121.6096,-36.6125 130.2616,-37.7347 138.6575,-38.8237"/>
<polygon fill="#000000" stroke="#000000" points="113.3667,-32.0141 102.9996,-34.1987 112.4663,-38.956 113.3667,-32.0141"/>
</g>
<!-- Node1 -->
<g id="node3" class="node">
<title>Node1</title>
<g id="a_node3"><a xlink:href="group__memory.html" target="_top" xlink:title="Memory handling">
<polygon fill="#ffffff" stroke="#000000" points="151.4873,-.5 151.4873,-18.5 244.1914,-18.5 244.1914,-.5 151.4873,-.5"/>
<text text-anchor="middle" x="197.8394" y="-6.5" font-family="Helvetica,sans-Serif" font-size="10.00" fill="#000000">Memory handling</text>
</a>
</g>
</g>
<!-- Node0&#45;&gt;Node1 -->
<g id="edge1" class="edge">
<title>Node0&#45;&gt;Node1</title>
<path fill="none" stroke="#000000" d="M113.066,-19.9169C125.7828,-18.3543 138.9754,-16.7332 151.058,-15.2485"/>
<polygon fill="#000000" stroke="#000000" points="112.498,-16.4603 102.9996,-21.1539 113.3518,-23.408 112.498,-16.4603"/>
</g>
</g>
</svg>
