<?xml version="1.0" encoding="UTF-8" standalone="no"?>
<!DOCTYPE svg PUBLIC "-//W3C//DTD SVG 1.1//EN"
 "http://www.w3.org/Graphics/SVG/1.1/DTD/svg11.dtd">
<!-- Generated by graphviz version 2.40.1 (20161225.0304)
 -->
<!-- Title: Data storage primitives Pages: 1 -->
<svg width="465pt" height="37pt"
 viewBox="0.00 0.00 464.70 37.00" xmlns="http://www.w3.org/2000/svg" xmlns:xlink="http://www.w3.org/1999/xlink">
<g id="graph0" class="graph" transform="scale(1 1) rotate(0) translate(4 33)">
<title>Data storage primitives</title>
<polygon fill="#ffffff" stroke="transparent" points="-4,4 -4,-33 460.6982,-33 460.6982,4 -4,4"/>
<!-- Node1 -->
<g id="node1" class="node">
<title>Node1</title>
<g id="a_node1"><a xlink:href="group__utilities.html" target="_top" xlink:title="Utility functions and\l classes">
<polygon fill="#ffffff" stroke="#000000" points="0,-.5 0,-28.5 102.709,-28.5 102.709,-.5 0,-.5"/>
<text text-anchor="start" x="8" y="-16.5" font-family="Helvetica,sans-Serif" font-size="10.00" fill="#000000">Utility functions and</text>
<text text-anchor="middle" x="51.3545" y="-6.5" font-family="Helvetica,sans-Serif" font-size="10.00" fill="#000000"> classes</text>
</a>
</g>
</g>
<!-- Node0 -->
<g id="node2" class="node">
<title>Node0</title>
<polygon fill="#bfbfbf" stroke="#000000" points="139.709,-5.5 139.709,-23.5 257.9697,-23.5 257.9697,-5.5 139.709,-5.5"/>
<text text-anchor="middle" x="198.8394" y="-11.5" font-family="Helvetica,sans-Serif" font-size="10.00" fill="#000000">Data storage primitives</text>
</g>
<!-- Node1&#45;&gt;Node0 -->
<g id="edge1" class="edge">
<title>Node1&#45;&gt;Node0</title>
<path fill="none" stroke="#000000" d="M113.0574,-14.5C121.7947,-14.5 130.7638,-14.5 139.456,-14.5"/>
<polygon fill="#000000" stroke="#000000" points="112.9376,-11.0001 102.9375,-14.5 112.9375,-18.0001 112.9376,-11.0001"/>
</g>
<!-- Node2 -->
<g id="node3" class="node">
<title>Node2</title>
<g id="a_node3"><a xlink:href="group__mg.html" target="_top" xlink:title="Multilevel support">
<polygon fill="#ffffff" stroke="#000000" points="362.8857,-5.5 362.8857,-23.5 456.6982,-23.5 456.6982,-5.5 362.8857,-5.5"/>
<text text-anchor="middle" x="409.792" y="-11.5" font-family="Helvetica,sans-Serif" font-size="10.00" fill="#000000">Multilevel support</text>
</a>
</g>
</g>
<!-- Node0&#45;&gt;Node2 -->
<g id="edge2" class="edge">
<title>Node0&#45;&gt;Node2</title>
<path fill="none" stroke="#ffa500" stroke-dasharray="5,2" d="M258.1628,-14.5C291.188,-14.5 331.7327,-14.5 362.5845,-14.5"/>
<text text-anchor="middle" x="310.4277" y="-16.5" font-family="Helvetica,sans-Serif" font-size="10.00" fill="#000000">MGLevelObject</text>
</g>
</g>
</svg>
