<?xml version="1.0" encoding="UTF-8" standalone="no"?>
<!DOCTYPE svg PUBLIC "-//W3C//DTD SVG 1.1//EN"
 "http://www.w3.org/Graphics/SVG/1.1/DTD/svg11.dtd">
<!-- Generated by graphviz version 2.40.1 (20161225.0304)
 -->
<!-- Title: Parallel computing with multiple processors accessing shared memory Pages: 1 -->
<svg width="455pt" height="47pt"
 viewBox="0.00 0.00 454.71 47.00" xmlns="http://www.w3.org/2000/svg" xmlns:xlink="http://www.w3.org/1999/xlink">
<g id="graph0" class="graph" transform="scale(1 1) rotate(0) translate(4 43)">
<title>Parallel computing with multiple processors accessing shared memory</title>
<polygon fill="#ffffff" stroke="transparent" points="-4,4 -4,-43 450.708,-43 450.708,4 -4,4"/>
<!-- Node1 -->
<g id="node1" class="node">
<title>Node1</title>
<g id="a_node1"><a xlink:href="group__Parallel.html" target="_top" xlink:title="A module discussing the use of multiple processors. ">
<polygon fill="#ffffff" stroke="#000000" points="0,-10.5 0,-28.5 98.2656,-28.5 98.2656,-10.5 0,-10.5"/>
<text text-anchor="middle" x="49.1328" y="-16.5" font-family="Helvetica,sans-Serif" font-size="10.00" fill="#000000">Parallel computing</text>
</a>
</g>
</g>
<!-- Node0 -->
<g id="node2" class="node">
<title>Node0</title>
<polygon fill="#bfbfbf" stroke="#000000" points="135.2656,-.5 135.2656,-38.5 270.7578,-38.5 270.7578,-.5 135.2656,-.5"/>
<text text-anchor="start" x="143.2656" y="-26.5" font-family="Helvetica,sans-Serif" font-size="10.00" fill="#000000">Parallel computing</text>
<text text-anchor="start" x="143.2656" y="-16.5" font-family="Helvetica,sans-Serif" font-size="10.00" fill="#000000"> with multiple processors</text>
<text text-anchor="middle" x="203.0117" y="-6.5" font-family="Helvetica,sans-Serif" font-size="10.00" fill="#000000"> accessing shared memory</text>
</g>
<!-- Node1&#45;&gt;Node0 -->
<g id="edge1" class="edge">
<title>Node1&#45;&gt;Node0</title>
<path fill="none" stroke="#000000" d="M108.9342,-19.5C117.4969,-19.5 126.3579,-19.5 135.0633,-19.5"/>
<polygon fill="#000000" stroke="#000000" points="108.6681,-16.0001 98.6681,-19.5 108.6681,-23.0001 108.6681,-16.0001"/>
</g>
<!-- Node2 -->
<g id="node3" class="node">
<title>Node2</title>
<g id="a_node3"><a xlink:href="group__Quadrature.html" target="_top" xlink:title="Quadrature formulas">
<polygon fill="#ffffff" stroke="#000000" points="338.999,-10.5 338.999,-28.5 446.708,-28.5 446.708,-10.5 338.999,-10.5"/>
<text text-anchor="middle" x="392.8535" y="-16.5" font-family="Helvetica,sans-Serif" font-size="10.00" fill="#000000">Quadrature formulas</text>
</a>
</g>
</g>
<!-- Node0&#45;&gt;Node2 -->
<g id="edge2" class="edge">
<title>Node0&#45;&gt;Node2</title>
<path fill="none" stroke="#8a2be2" stroke-dasharray="5,2" d="M271.0128,-19.5C293.2488,-19.5 317.6335,-19.5 338.7075,-19.5"/>
<text text-anchor="middle" x="304.8784" y="-21.5" font-family="Helvetica,sans-Serif" font-size="10.00" fill="#000000">parallel</text>
</g>
</g>
</svg>
