<?xml version="1.0" encoding="UTF-8" standalone="no"?>
<!DOCTYPE svg PUBLIC "-//W3C//DTD SVG 1.1//EN"
 "http://www.w3.org/Graphics/SVG/1.1/DTD/svg11.dtd">
<!-- Generated by graphviz version 2.40.1 (20161225.0304)
 -->
<!-- Title: Vector memory management Pages: 1 -->
<svg width="487pt" height="148pt"
 viewBox="0.00 0.00 486.96 148.00" xmlns="http://www.w3.org/2000/svg" xmlns:xlink="http://www.w3.org/1999/xlink">
<g id="graph0" class="graph" transform="scale(1 1) rotate(0) translate(4 144)">
<title>Vector memory management</title>
<polygon fill="#ffffff" stroke="transparent" points="-4,4 -4,-144 482.959,-144 482.959,4 -4,4"/>
<!-- Node3 -->
<g id="node1" class="node">
<title>Node3</title>
<g id="a_node1"><a xlink:href="group__Vectors.html" target="_top" xlink:title="Vector classes">
<polygon fill="#ffffff" stroke="#000000" points="382.3657,-121.5 382.3657,-139.5 462.8433,-139.5 462.8433,-121.5 382.3657,-121.5"/>
<text text-anchor="middle" x="422.6045" y="-127.5" font-family="Helvetica,sans-Serif" font-size="10.00" fill="#000000">Vector classes</text>
</a>
</g>
</g>
<!-- Node0 -->
<g id="node2" class="node">
<title>Node0</title>
<polygon fill="#bfbfbf" stroke="#000000" points="153.0586,-63.5 153.0586,-81.5 297.4521,-81.5 297.4521,-63.5 153.0586,-63.5"/>
<text text-anchor="middle" x="225.2554" y="-69.5" font-family="Helvetica,sans-Serif" font-size="10.00" fill="#000000">Vector memory management</text>
</g>
<!-- Node0&#45;&gt;Node3 -->
<g id="edge3" class="edge">
<title>Node0&#45;&gt;Node3</title>
<path fill="none" stroke="#8a2be2" stroke-dasharray="5,2" d="M256.0912,-81.5625C293.058,-92.4269 354.6453,-110.5271 391.6602,-121.4056"/>
<text text-anchor="middle" x="331.8511" y="-109.5" font-family="Helvetica,sans-Serif" font-size="10.00" fill="#000000">internal</text>
</g>
<!-- Node4 -->
<g id="node4" class="node">
<title>Node4</title>
<g id="a_node4"><a xlink:href="group__PETScWrappers.html" target="_top" xlink:title="PETScWrappers">
<polygon fill="#ffffff" stroke="#000000" points="377.4609,-84.5 377.4609,-102.5 467.748,-102.5 467.748,-84.5 377.4609,-84.5"/>
<text text-anchor="middle" x="422.6045" y="-90.5" font-family="Helvetica,sans-Serif" font-size="10.00" fill="#000000">PETScWrappers</text>
</a>
</g>
</g>
<!-- Node0&#45;&gt;Node4 -->
<g id="edge4" class="edge">
<title>Node0&#45;&gt;Node4</title>
<path fill="none" stroke="#8a2be2" stroke-dasharray="5,2" d="M297.6203,-80.2004C324.2419,-83.0332 353.6197,-86.1593 377.2009,-88.6686"/>
<text text-anchor="middle" x="331.8511" y="-86.5" font-family="Helvetica,sans-Serif" font-size="10.00" fill="#000000">internal</text>
</g>
<!-- Node2 -->
<g id="node5" class="node">
<title>Node2</title>
<g id="a_node5"><a xlink:href="group__feaccess.html" target="_top" xlink:title="Finite element access\l/FEValues classes">
<polygon fill="#ffffff" stroke="#000000" points="366.25,-37.5 366.25,-65.5 478.959,-65.5 478.959,-37.5 366.25,-37.5"/>
<text text-anchor="start" x="374.25" y="-53.5" font-family="Helvetica,sans-Serif" font-size="10.00" fill="#000000">Finite element access</text>
<text text-anchor="middle" x="422.6045" y="-43.5" font-family="Helvetica,sans-Serif" font-size="10.00" fill="#000000">/FEValues classes</text>
</a>
</g>
</g>
<!-- Node0&#45;&gt;Node2 -->
<g id="edge2" class="edge">
<title>Node0&#45;&gt;Node2</title>
<path fill="none" stroke="#8a2be2" stroke-dasharray="5,2" d="M297.6033,-63.4941C303.6389,-62.7983 309.6488,-62.1245 315.4521,-61.5 331.8923,-59.7307 349.7714,-57.9896 366.1299,-56.4687"/>
<text text-anchor="middle" x="331.8511" y="-63.5" font-family="Helvetica,sans-Serif" font-size="10.00" fill="#000000">internal</text>
</g>
<!-- Node5 -->
<g id="node6" class="node">
<title>Node5</title>
<g id="a_node6"><a xlink:href="group__Solvers.html" target="_top" xlink:title="Linear solver classes">
<polygon fill="#ffffff" stroke="#000000" points="367.9175,-.5 367.9175,-18.5 477.2915,-18.5 477.2915,-.5 367.9175,-.5"/>
<text text-anchor="middle" x="422.6045" y="-6.5" font-family="Helvetica,sans-Serif" font-size="10.00" fill="#000000">Linear solver classes</text>
</a>
</g>
</g>
<!-- Node0&#45;&gt;Node5 -->
<g id="edge5" class="edge">
<title>Node0&#45;&gt;Node5</title>
<path fill="none" stroke="#8a2be2" stroke-dasharray="5,2" d="M253.5307,-63.4736C291.0467,-51.4973 356.892,-30.4775 394.3816,-18.5096"/>
<text text-anchor="middle" x="331.8511" y="-45.5" font-family="Helvetica,sans-Serif" font-size="10.00" fill="#000000">internal</text>
</g>
<!-- Node1 -->
<g id="node3" class="node">
<title>Node1</title>
<g id="a_node3"><a xlink:href="group__LAC.html" target="_top" xlink:title="Linear algebra classes">
<polygon fill="#ffffff" stroke="#000000" points="0,-63.5 0,-81.5 116.0586,-81.5 116.0586,-63.5 0,-63.5"/>
<text text-anchor="middle" x="58.0293" y="-69.5" font-family="Helvetica,sans-Serif" font-size="10.00" fill="#000000">Linear algebra classes</text>
</a>
</g>
</g>
<!-- Node1&#45;&gt;Node0 -->
<g id="edge1" class="edge">
<title>Node1&#45;&gt;Node0</title>
<path fill="none" stroke="#000000" d="M126.6008,-72.5C135.2988,-72.5 144.2214,-72.5 152.9751,-72.5"/>
<polygon fill="#000000" stroke="#000000" points="126.5169,-69.0001 116.5169,-72.5 126.5168,-76.0001 126.5169,-69.0001"/>
</g>
</g>
</svg>
