<?xml version="1.0" encoding="UTF-8" standalone="no"?>
<!DOCTYPE svg PUBLIC "-//W3C//DTD SVG 1.1//EN"
 "http://www.w3.org/Graphics/SVG/1.1/DTD/svg11.dtd">
<!-- Generated by graphviz version 2.40.1 (20161225.0304)
 -->
<!-- Title: Finite elements Pages: 1 -->
<svg width="275pt" height="319pt"
 viewBox="0.00 0.00 274.99 319.00" xmlns="http://www.w3.org/2000/svg" xmlns:xlink="http://www.w3.org/1999/xlink">
<g id="graph0" class="graph" transform="scale(1 1) rotate(0) translate(4 315)">
<title>Finite elements</title>
<polygon fill="#ffffff" stroke="transparent" points="-4,4 -4,-315 270.9893,-315 270.9893,4 -4,4"/>
<!-- Node1 -->
<g id="node1" class="node">
<title>Node1</title>
<g id="a_node1"><a xlink:href="group__febase.html" target="_top" xlink:title="Base classes">
<polygon fill="#ffffff" stroke="#000000" points="155.9404,-292.5 155.9404,-310.5 230.8564,-310.5 230.8564,-292.5 155.9404,-292.5"/>
<text text-anchor="middle" x="193.3984" y="-298.5" font-family="Helvetica,sans-Serif" font-size="10.00" fill="#000000">Base classes</text>
</a>
</g>
</g>
<!-- Node0 -->
<g id="node2" class="node">
<title>Node0</title>
<polygon fill="#bfbfbf" stroke="#000000" points="0,-156.5 0,-174.5 83.8076,-174.5 83.8076,-156.5 0,-156.5"/>
<text text-anchor="middle" x="41.9038" y="-162.5" font-family="Helvetica,sans-Serif" font-size="10.00" fill="#000000">Finite elements</text>
</g>
<!-- Node0&#45;&gt;Node1 -->
<g id="edge1" class="edge">
<title>Node0&#45;&gt;Node1</title>
<path fill="none" stroke="#000000" d="M49.0024,-184.1063C60.0296,-210.4307 83.8224,-258.1568 119.8076,-283.5 130.2386,-290.8462 143.3303,-295.2096 155.5688,-297.796"/>
<polygon fill="#000000" stroke="#000000" points="52.1441,-182.5372 45.173,-174.5589 45.6472,-185.1431 52.1441,-182.5372"/>
</g>
<!-- Node7 -->
<g id="node3" class="node">
<title>Node7</title>
<g id="a_node3"><a xlink:href="group__vector__valued.html" target="_top" xlink:title="Handling vector valued\l problems">
<polygon fill="#ffffff" stroke="#000000" points="134.5342,-245.5 134.5342,-273.5 252.2627,-273.5 252.2627,-245.5 134.5342,-245.5"/>
<text text-anchor="start" x="142.5342" y="-261.5" font-family="Helvetica,sans-Serif" font-size="10.00" fill="#000000">Handling vector valued</text>
<text text-anchor="middle" x="193.3984" y="-251.5" font-family="Helvetica,sans-Serif" font-size="10.00" fill="#000000"> problems</text>
</a>
</g>
</g>
<!-- Node0&#45;&gt;Node7 -->
<g id="edge7" class="edge">
<title>Node0&#45;&gt;Node7</title>
<path fill="none" stroke="#000000" d="M56.28,-182.3025C70.8153,-198.3193 94.6687,-222.0732 119.8076,-236.5 125.7286,-239.8979 132.2111,-242.8548 138.7964,-245.4115"/>
<polygon fill="#000000" stroke="#000000" points="58.8196,-179.8909 49.5709,-174.7224 53.5778,-184.5304 58.8196,-179.8909"/>
</g>
<!-- Node2 -->
<g id="node4" class="node">
<title>Node2</title>
<g id="a_node4"><a xlink:href="group__feaccess.html" target="_top" xlink:title="Finite element access\l/FEValues classes">
<polygon fill="#ffffff" stroke="#000000" points="137.0439,-198.5 137.0439,-226.5 249.7529,-226.5 249.7529,-198.5 137.0439,-198.5"/>
<text text-anchor="start" x="145.0439" y="-214.5" font-family="Helvetica,sans-Serif" font-size="10.00" fill="#000000">Finite element access</text>
<text text-anchor="middle" x="193.3984" y="-204.5" font-family="Helvetica,sans-Serif" font-size="10.00" fill="#000000">/FEValues classes</text>
</a>
</g>
</g>
<!-- Node0&#45;&gt;Node2 -->
<g id="edge2" class="edge">
<title>Node0&#45;&gt;Node2</title>
<path fill="none" stroke="#000000" d="M80.7887,-177.5637C101.3602,-183.9459 126.7284,-191.8162 148.1759,-198.4701"/>
<polygon fill="#000000" stroke="#000000" points="81.7015,-174.1824 71.1135,-174.5621 79.6273,-180.8681 81.7015,-174.1824"/>
</g>
<!-- Node4 -->
<g id="node5" class="node">
<title>Node4</title>
<g id="a_node5"><a xlink:href="group__mapping.html" target="_top" xlink:title="Mappings between reference\l and real cell">
<polygon fill="#ffffff" stroke="#000000" points="120.9136,-151.5 120.9136,-179.5 265.8833,-179.5 265.8833,-151.5 120.9136,-151.5"/>
<text text-anchor="start" x="128.9136" y="-167.5" font-family="Helvetica,sans-Serif" font-size="10.00" fill="#000000">Mappings between reference</text>
<text text-anchor="middle" x="193.3984" y="-157.5" font-family="Helvetica,sans-Serif" font-size="10.00" fill="#000000"> and real cell</text>
</a>
</g>
</g>
<!-- Node0&#45;&gt;Node4 -->
<g id="edge4" class="edge">
<title>Node0&#45;&gt;Node4</title>
<path fill="none" stroke="#000000" d="M94.2577,-165.5C102.788,-165.5 111.7572,-165.5 120.6705,-165.5"/>
<polygon fill="#000000" stroke="#000000" points="94.1035,-162.0001 84.1035,-165.5 94.1035,-169.0001 94.1035,-162.0001"/>
</g>
<!-- Node5 -->
<g id="node6" class="node">
<title>Node5</title>
<g id="a_node6"><a xlink:href="group__FE__vs__Mapping__vs__FEValues.html" target="_top" xlink:title="How Mapping, FiniteElement,\l and FEValues work together">
<polygon fill="#ffffff" stroke="#000000" points="120.0908,-104.5 120.0908,-132.5 266.7061,-132.5 266.7061,-104.5 120.0908,-104.5"/>
<text text-anchor="start" x="128.0908" y="-120.5" font-family="Helvetica,sans-Serif" font-size="10.00" fill="#000000">How Mapping, FiniteElement,</text>
<text text-anchor="middle" x="193.3984" y="-110.5" font-family="Helvetica,sans-Serif" font-size="10.00" fill="#000000"> and FEValues work together</text>
</a>
</g>
</g>
<!-- Node0&#45;&gt;Node5 -->
<g id="edge5" class="edge">
<title>Node0&#45;&gt;Node5</title>
<path fill="none" stroke="#000000" d="M80.7887,-153.4363C101.3602,-147.0541 126.7284,-139.1838 148.1759,-132.5299"/>
<polygon fill="#000000" stroke="#000000" points="79.6273,-150.1319 71.1135,-156.4379 81.7015,-156.8176 79.6273,-150.1319"/>
</g>
<!-- Node3 -->
<g id="node7" class="node">
<title>Node3</title>
<g id="a_node7"><a xlink:href="group__fe.html" target="_top" xlink:title="Finite element space\l descriptions">
<polygon fill="#ffffff" stroke="#000000" points="139.2632,-57.5 139.2632,-85.5 247.5337,-85.5 247.5337,-57.5 139.2632,-57.5"/>
<text text-anchor="start" x="147.2632" y="-73.5" font-family="Helvetica,sans-Serif" font-size="10.00" fill="#000000">Finite element space</text>
<text text-anchor="middle" x="193.3984" y="-63.5" font-family="Helvetica,sans-Serif" font-size="10.00" fill="#000000"> descriptions</text>
</a>
</g>
</g>
<!-- Node0&#45;&gt;Node3 -->
<g id="edge3" class="edge">
<title>Node0&#45;&gt;Node3</title>
<path fill="none" stroke="#000000" d="M56.3663,-149.0114C70.9662,-133.2781 94.8667,-109.9007 119.8076,-95.5 126.4412,-91.6698 133.7691,-88.3555 141.1532,-85.5171"/>
<polygon fill="#000000" stroke="#000000" points="53.7436,-146.6934 49.623,-156.4541 58.9311,-151.3934 53.7436,-146.6934"/>
</g>
<!-- Node6 -->
<g id="node8" class="node">
<title>Node6</title>
<g id="a_node8"><a xlink:href="group__UpdateFlags.html" target="_top" xlink:title="The interplay of UpdateFlags,\l Mapping, and FiniteElement\l in FEValues">
<polygon fill="#ffffff" stroke="#000000" points="119.8076,-.5 119.8076,-38.5 266.9893,-38.5 266.9893,-.5 119.8076,-.5"/>
<text text-anchor="start" x="127.8076" y="-26.5" font-family="Helvetica,sans-Serif" font-size="10.00" fill="#000000">The interplay of UpdateFlags,</text>
<text text-anchor="start" x="127.8076" y="-16.5" font-family="Helvetica,sans-Serif" font-size="10.00" fill="#000000"> Mapping, and FiniteElement</text>
<text text-anchor="middle" x="193.3984" y="-6.5" font-family="Helvetica,sans-Serif" font-size="10.00" fill="#000000"> in FEValues</text>
</a>
</g>
</g>
<!-- Node0&#45;&gt;Node6 -->
<g id="edge6" class="edge">
<title>Node0&#45;&gt;Node6</title>
<path fill="none" stroke="#000000" d="M49.8733,-146.9369C61.6783,-121.4584 86.1019,-75.7216 119.8076,-48.5 124.4015,-44.7899 129.5283,-41.508 134.8795,-38.615"/>
<polygon fill="#000000" stroke="#000000" points="46.6123,-145.6556 45.7213,-156.2129 53.0014,-148.5155 46.6123,-145.6556"/>
</g>
</g>
</svg>
