<?xml version="1.0" encoding="UTF-8" standalone="no"?>
<!DOCTYPE svg PUBLIC "-//W3C//DTD SVG 1.1//EN"
 "http://www.w3.org/Graphics/SVG/1.1/DTD/svg11.dtd">
<!-- Generated by graphviz version 2.40.1 (20161225.0304)
 -->
<!-- Title: Graphical output Pages: 1 -->
<svg width="382pt" height="64pt"
 viewBox="0.00 0.00 382.47 64.00" xmlns="http://www.w3.org/2000/svg" xmlns:xlink="http://www.w3.org/1999/xlink">
<g id="graph0" class="graph" transform="scale(1 1) rotate(0) translate(4 60)">
<title>Graphical output</title>
<polygon fill="#ffffff" stroke="transparent" points="-4,4 -4,-60 378.4717,-60 378.4717,4 -4,4"/>
<!-- Node1 -->
<g id="node1" class="node">
<title>Node1</title>
<g id="a_node1"><a xlink:href="group__IO.html" target="_top" xlink:title="Input/Output">
<polygon fill="#ffffff" stroke="#000000" points="0,-18.5 0,-36.5 71.0391,-36.5 71.0391,-18.5 0,-18.5"/>
<text text-anchor="middle" x="35.5195" y="-24.5" font-family="Helvetica,sans-Serif" font-size="10.00" fill="#000000">Input/Output</text>
</a>
</g>
</g>
<!-- Node0 -->
<g id="node2" class="node">
<title>Node0</title>
<polygon fill="#bfbfbf" stroke="#000000" points="108.0391,-18.5 108.0391,-36.5 197.418,-36.5 197.418,-18.5 108.0391,-18.5"/>
<text text-anchor="middle" x="152.7285" y="-24.5" font-family="Helvetica,sans-Serif" font-size="10.00" fill="#000000">Graphical output</text>
</g>
<!-- Node1&#45;&gt;Node0 -->
<g id="edge1" class="edge">
<title>Node1&#45;&gt;Node0</title>
<path fill="none" stroke="#000000" d="M81.3769,-27.5C90.1404,-27.5 99.3036,-27.5 108.0302,-27.5"/>
<polygon fill="#000000" stroke="#000000" points="81.323,-24.0001 71.323,-27.5 81.3229,-31.0001 81.323,-24.0001"/>
</g>
<!-- Node3 -->
<g id="node3" class="node">
<title>Node3</title>
<g id="a_node3"><a xlink:href="group__grid.html" target="_top" xlink:title="Grid classes">
<polygon fill="#ffffff" stroke="#000000" points="303.457,-37.5 303.457,-55.5 374.4717,-55.5 374.4717,-37.5 303.457,-37.5"/>
<text text-anchor="middle" x="338.9644" y="-43.5" font-family="Helvetica,sans-Serif" font-size="10.00" fill="#000000">Grid classes</text>
</a>
</g>
</g>
<!-- Node0&#45;&gt;Node3 -->
<g id="edge3" class="edge">
<title>Node0&#45;&gt;Node3</title>
<path fill="none" stroke="#ffa500" stroke-dasharray="5,2" d="M197.811,-32.0994C230.2138,-35.4051 273.3028,-39.8011 303.3144,-42.8629"/>
<text text-anchor="middle" x="250.4375" y="-42.5" font-family="Helvetica,sans-Serif" font-size="10.00" fill="#000000">GridOut</text>
</g>
<!-- Node2 -->
<g id="node4" class="node">
<title>Node2</title>
<g id="a_node4"><a xlink:href="group__input.html" target="_top" xlink:title="Input">
<polygon fill="#ffffff" stroke="#000000" points="319.8438,-.5 319.8438,-18.5 358.085,-18.5 358.085,-.5 319.8438,-.5"/>
<text text-anchor="middle" x="338.9644" y="-6.5" font-family="Helvetica,sans-Serif" font-size="10.00" fill="#000000">Input</text>
</a>
</g>
</g>
<!-- Node0&#45;&gt;Node2 -->
<g id="edge2" class="edge">
<title>Node0&#45;&gt;Node2</title>
<path fill="none" stroke="#ffa500" stroke-dasharray="5,2" d="M191.3552,-18.4555C199.2753,-16.8933 207.5853,-15.464 215.418,-14.5 252.064,-9.9897 295.2377,-9.2831 319.625,-9.3049"/>
<text text-anchor="middle" x="250.4375" y="-16.5" font-family="Helvetica,sans-Serif" font-size="10.00" fill="#000000">DataOutReader</text>
</g>
</g>
</svg>
