<?xml version="1.0" encoding="UTF-8" standalone="no"?>
<!DOCTYPE svg PUBLIC "-//W3C//DTD SVG 1.1//EN"
 "http://www.w3.org/Graphics/SVG/1.1/DTD/svg11.dtd">
<!-- Generated by graphviz version 2.40.1 (20161225.0304)
 -->
<!-- Title: hp finite element support Pages: 1 -->
<svg width="376pt" height="119pt"
 viewBox="0.00 0.00 376.17 118.96" xmlns="http://www.w3.org/2000/svg" xmlns:xlink="http://www.w3.org/1999/xlink">
<g id="graph0" class="graph" transform="scale(1 1) rotate(0) translate(4 114.958)">
<title>hp finite element support</title>
<polygon fill="#ffffff" stroke="transparent" points="-4,4 -4,-114.958 372.1709,-114.958 372.1709,4 -4,4"/>
<!-- Node1 -->
<g id="node1" class="node">
<title>Node1</title>
<g id="a_node1"><a xlink:href="group__hpcollection.html" target="_top" xlink:title="hp Collections">
<polygon fill="#ffffff" stroke="#000000" points="274.9102,-72.5 274.9102,-90.5 353.7227,-90.5 353.7227,-72.5 274.9102,-72.5"/>
<text text-anchor="middle" x="314.3164" y="-78.5" font-family="Helvetica,sans-Serif" font-size="10.00" fill="#000000">hp Collections</text>
</a>
</g>
</g>
<!-- Node0 -->
<g id="node2" class="node">
<title>Node0</title>
<polygon fill="#bfbfbf" stroke="#000000" points="0,-33.5 0,-51.5 125.5117,-51.5 125.5117,-33.5 0,-33.5"/>
<text text-anchor="middle" x="62.7559" y="-39.5" font-family="Helvetica,sans-Serif" font-size="10.00" fill="#000000">hp finite element support</text>
</g>
<!-- Node0&#45;&gt;Node1 -->
<g id="edge1" class="edge">
<title>Node0&#45;&gt;Node1</title>
<path fill="none" stroke="#000000" d="M78.4169,-59.3787C93.4544,-74.2412 117.6484,-94.8297 143.5117,-103.5 194.6799,-120.6534 258.606,-102.6809 291.8618,-90.5879"/>
<polygon fill="#000000" stroke="#000000" points="80.5386,-56.541 71.0523,-51.8229 75.5258,-61.427 80.5386,-56.541"/>
</g>
<!-- Node0&#45;&gt;Node1 -->
<g id="edge3" class="edge">
<title>Node0&#45;&gt;Node1</title>
<path fill="none" stroke="#ffa500" stroke-dasharray="5,2" d="M120.4157,-33.492C156.1698,-29.8672 202.7057,-28.7331 242.4619,-39.5 265.893,-45.8456 289.5159,-61.9505 302.988,-72.2728"/>
<text text-anchor="middle" x="192.9868" y="-91.5" font-family="Helvetica,sans-Serif" font-size="10.00" fill="#000000">hp::FECollection</text>
<text text-anchor="middle" x="192.9868" y="-81.5" font-family="Helvetica,sans-Serif" font-size="10.00" fill="#000000">hp::FEValues</text>
<text text-anchor="middle" x="192.9868" y="-71.5" font-family="Helvetica,sans-Serif" font-size="10.00" fill="#000000">hp::FEFaceValues</text>
<text text-anchor="middle" x="192.9868" y="-61.5" font-family="Helvetica,sans-Serif" font-size="10.00" fill="#000000">hp::FESubfaceValues</text>
<text text-anchor="middle" x="192.9868" y="-51.5" font-family="Helvetica,sans-Serif" font-size="10.00" fill="#000000">hp::MappingCollection</text>
<text text-anchor="middle" x="192.9868" y="-41.5" font-family="Helvetica,sans-Serif" font-size="10.00" fill="#000000">hp::QCollection</text>
</g>
<!-- Node2 -->
<g id="node3" class="node">
<title>Node2</title>
<g id="a_node3"><a xlink:href="group__dofs.html" target="_top" xlink:title="Degrees of Freedom">
<polygon fill="#ffffff" stroke="#000000" points="260.4619,-.5 260.4619,-18.5 368.1709,-18.5 368.1709,-.5 260.4619,-.5"/>
<text text-anchor="middle" x="314.3164" y="-6.5" font-family="Helvetica,sans-Serif" font-size="10.00" fill="#000000">Degrees of Freedom</text>
</a>
</g>
</g>
<!-- Node0&#45;&gt;Node2 -->
<g id="edge2" class="edge">
<title>Node0&#45;&gt;Node2</title>
<path fill="none" stroke="#ffa500" stroke-dasharray="5,2" d="M80.1419,-33.4139C96.1197,-25.6037 120.7123,-14.9218 143.5117,-10.5 182.0847,-3.0191 226.485,-3.0142 260.3472,-4.7505"/>
<text text-anchor="middle" x="192.9868" y="-12.5" font-family="Helvetica,sans-Serif" font-size="10.00" fill="#000000">hp::DoFHandler</text>
</g>
</g>
</svg>
