<?xml version="1.0" encoding="UTF-8" standalone="no"?>
<!DOCTYPE svg PUBLIC "-//W3C//DTD SVG 1.1//EN"
 "http://www.w3.org/Graphics/SVG/1.1/DTD/svg11.dtd">
<!-- Generated by graphviz version 2.40.1 (20161225.0304)
 -->
<!-- Title: Vector classes Pages: 1 -->
<svg width="562pt" height="351pt"
 viewBox="0.00 0.00 562.38 350.98" xmlns="http://www.w3.org/2000/svg" xmlns:xlink="http://www.w3.org/1999/xlink">
<g id="graph0" class="graph" transform="scale(1 1) rotate(0) translate(4 346.9791)">
<title>Vector classes</title>
<polygon fill="#ffffff" stroke="transparent" points="-4,4 -4,-346.9791 558.3838,-346.9791 558.3838,4 -4,4"/>
<!-- Node0 -->
<g id="node1" class="node">
<title>Node0</title>
<polygon fill="#bfbfbf" stroke="#000000" points="153.0586,-171.9791 153.0586,-189.9791 233.5361,-189.9791 233.5361,-171.9791 153.0586,-171.9791"/>
<text text-anchor="middle" x="193.2974" y="-177.9791" font-family="Helvetica,sans-Serif" font-size="10.00" fill="#000000">Vector classes</text>
</g>
<!-- Node6 -->
<g id="node2" class="node">
<title>Node6</title>
<g id="a_node2"><a xlink:href="group__VMemory.html" target="_top" xlink:title="Vector memory management">
<polygon fill="#ffffff" stroke="#000000" points="409.9902,-314.9791 409.9902,-332.9791 554.3838,-332.9791 554.3838,-314.9791 409.9902,-314.9791"/>
<text text-anchor="middle" x="482.187" y="-320.9791" font-family="Helvetica,sans-Serif" font-size="10.00" fill="#000000">Vector memory management</text>
</a>
</g>
</g>
<!-- Node0&#45;&gt;Node6 -->
<g id="edge7" class="edge">
<title>Node0&#45;&gt;Node6</title>
<path fill="none" stroke="#8a2be2" stroke-dasharray="5,2" d="M194.8021,-190.3018C199.037,-213.1996 213.3407,-272.2753 251.5361,-298.9791 298.5761,-331.8664 364.7143,-335.8871 414.1137,-332.9878"/>
<text text-anchor="middle" x="321.7632" y="-334.9791" font-family="Helvetica,sans-Serif" font-size="10.00" fill="#000000">internal</text>
</g>
<!-- Node2 -->
<g id="node4" class="node">
<title>Node2</title>
<g id="a_node4"><a xlink:href="group__PETScWrappers.html" target="_top" xlink:title="PETScWrappers">
<polygon fill="#ffffff" stroke="#000000" points="437.0435,-217.9791 437.0435,-235.9791 527.3306,-235.9791 527.3306,-217.9791 437.0435,-217.9791"/>
<text text-anchor="middle" x="482.187" y="-223.9791" font-family="Helvetica,sans-Serif" font-size="10.00" fill="#000000">PETScWrappers</text>
</a>
</g>
</g>
<!-- Node0&#45;&gt;Node2 -->
<g id="edge2" class="edge">
<title>Node0&#45;&gt;Node2</title>
<path fill="none" stroke="#ffa500" stroke-dasharray="5,2" d="M203.545,-190.2007C214.5203,-199.4297 232.889,-213.0799 251.5361,-218.9791 313.4227,-238.5574 389.3486,-236.5605 436.7627,-232.4544"/>
<text text-anchor="middle" x="321.7632" y="-286.9791" font-family="Helvetica,sans-Serif" font-size="10.00" fill="#000000">PETScWrappers::BlockVector</text>
<text text-anchor="start" x="255.4375" y="-276.9791" font-family="Helvetica,sans-Serif" font-size="10.00" fill="#000000">PETScWrappers::MPI</text>
<text text-anchor="middle" x="321.7632" y="-266.9791" font-family="Helvetica,sans-Serif" font-size="10.00" fill="#000000">::BlockVector</text>
<text text-anchor="start" x="255.4375" y="-256.9791" font-family="Helvetica,sans-Serif" font-size="10.00" fill="#000000">PETScWrappers::MPI</text>
<text text-anchor="middle" x="321.7632" y="-246.9791" font-family="Helvetica,sans-Serif" font-size="10.00" fill="#000000">::Vector</text>
<text text-anchor="middle" x="321.7632" y="-236.9791" font-family="Helvetica,sans-Serif" font-size="10.00" fill="#000000">PETScWrappers::Vector</text>
</g>
<!-- Node0&#45;&gt;Node2 -->
<g id="edge5" class="edge">
<title>Node0&#45;&gt;Node2</title>
<path fill="none" stroke="#8a2be2" stroke-dasharray="5,2" d="M233.6946,-180.6464C274.1535,-181.0537 337.9959,-183.7168 391.9902,-194.9791 416.551,-200.1021 443.5186,-210.3149 461.5087,-217.8307"/>
<text text-anchor="middle" x="321.7632" y="-206.9791" font-family="Helvetica,sans-Serif" font-size="10.00" fill="#000000">internal</text>
<text text-anchor="middle" x="321.7632" y="-196.9791" font-family="Helvetica,sans-Serif" font-size="10.00" fill="#000000">PETScWrappers</text>
</g>
<!-- Node4 -->
<g id="node5" class="node">
<title>Node4</title>
<g id="a_node5"><a xlink:href="group__feaccess.html" target="_top" xlink:title="Finite element access\l/FEValues classes">
<polygon fill="#ffffff" stroke="#000000" points="425.8325,-153.9791 425.8325,-181.9791 538.5415,-181.9791 538.5415,-153.9791 425.8325,-153.9791"/>
<text text-anchor="start" x="433.8325" y="-169.9791" font-family="Helvetica,sans-Serif" font-size="10.00" fill="#000000">Finite element access</text>
<text text-anchor="middle" x="482.187" y="-159.9791" font-family="Helvetica,sans-Serif" font-size="10.00" fill="#000000">/FEValues classes</text>
</a>
</g>
</g>
<!-- Node0&#45;&gt;Node4 -->
<g id="edge4" class="edge">
<title>Node0&#45;&gt;Node4</title>
<path fill="none" stroke="#8a2be2" stroke-dasharray="5,2" d="M222.3466,-171.9642C231.5832,-169.5131 241.9031,-167.1997 251.5361,-165.9791 310.5313,-158.5037 378.6947,-160.3739 425.5385,-163.2628"/>
<text text-anchor="middle" x="321.7632" y="-167.9791" font-family="Helvetica,sans-Serif" font-size="10.00" fill="#000000">internal</text>
</g>
<!-- Node5 -->
<g id="node6" class="node">
<title>Node5</title>
<g id="a_node6"><a xlink:href="group__Solvers.html" target="_top" xlink:title="Linear solver classes">
<polygon fill="#ffffff" stroke="#000000" points="427.5,-116.9791 427.5,-134.9791 536.874,-134.9791 536.874,-116.9791 427.5,-116.9791"/>
<text text-anchor="middle" x="482.187" y="-122.9791" font-family="Helvetica,sans-Serif" font-size="10.00" fill="#000000">Linear solver classes</text>
</a>
</g>
</g>
<!-- Node0&#45;&gt;Node5 -->
<g id="edge6" class="edge">
<title>Node0&#45;&gt;Node5</title>
<path fill="none" stroke="#8a2be2" stroke-dasharray="5,2" d="M205.4878,-171.7039C216.7763,-163.6606 234.3634,-152.4726 251.5361,-146.9791 309.5566,-128.4185 379.6838,-124.4714 427.2681,-124.3417"/>
<text text-anchor="middle" x="321.7632" y="-148.9791" font-family="Helvetica,sans-Serif" font-size="10.00" fill="#000000">internal</text>
</g>
<!-- Node3 -->
<g id="node7" class="node">
<title>Node3</title>
<g id="a_node7"><a xlink:href="group__TrilinosWrappers.html" target="_top" xlink:title="TrilinosWrappers">
<polygon fill="#ffffff" stroke="#000000" points="436.6724,-7.9791 436.6724,-25.9791 527.7017,-25.9791 527.7017,-7.9791 436.6724,-7.9791"/>
<text text-anchor="middle" x="482.187" y="-13.9791" font-family="Helvetica,sans-Serif" font-size="10.00" fill="#000000">TrilinosWrappers</text>
</a>
</g>
</g>
<!-- Node0&#45;&gt;Node3 -->
<g id="edge3" class="edge">
<title>Node0&#45;&gt;Node3</title>
<path fill="none" stroke="#ffa500" stroke-dasharray="5,2" d="M193.703,-171.611C195.4292,-144.6184 204.4617,-66.4148 251.5361,-31.9791 307.8905,9.245 394.1931,1.3597 443.6988,-7.9214"/>
<text text-anchor="middle" x="321.7632" y="-113.9791" font-family="Helvetica,sans-Serif" font-size="10.00" fill="#000000">TrilinosWrappers::BlockVector</text>
<text text-anchor="start" x="251.5361" y="-103.9791" font-family="Helvetica,sans-Serif" font-size="10.00" fill="#000000">LinearAlgebra::EpetraWrappers</text>
<text text-anchor="middle" x="321.7632" y="-93.9791" font-family="Helvetica,sans-Serif" font-size="10.00" fill="#000000">::Vector</text>
<text text-anchor="start" x="251.5361" y="-83.9791" font-family="Helvetica,sans-Serif" font-size="10.00" fill="#000000">TrilinosWrappers::MPI</text>
<text text-anchor="middle" x="321.7632" y="-73.9791" font-family="Helvetica,sans-Serif" font-size="10.00" fill="#000000">::BlockVector</text>
<text text-anchor="start" x="251.5361" y="-63.9791" font-family="Helvetica,sans-Serif" font-size="10.00" fill="#000000">TrilinosWrappers::MPI</text>
<text text-anchor="middle" x="321.7632" y="-53.9791" font-family="Helvetica,sans-Serif" font-size="10.00" fill="#000000">::Vector</text>
<text text-anchor="middle" x="321.7632" y="-43.9791" font-family="Helvetica,sans-Serif" font-size="10.00" fill="#000000">TrilinosWrappers::Vector</text>
<text text-anchor="middle" x="321.7632" y="-33.9791" font-family="Helvetica,sans-Serif" font-size="10.00" fill="#000000">TrilinosWrappers::VectorBase</text>
</g>
<!-- Node1 -->
<g id="node3" class="node">
<title>Node1</title>
<g id="a_node3"><a xlink:href="group__LAC.html" target="_top" xlink:title="Linear algebra classes">
<polygon fill="#ffffff" stroke="#000000" points="0,-171.9791 0,-189.9791 116.0586,-189.9791 116.0586,-171.9791 0,-171.9791"/>
<text text-anchor="middle" x="58.0293" y="-177.9791" font-family="Helvetica,sans-Serif" font-size="10.00" fill="#000000">Linear algebra classes</text>
</a>
</g>
</g>
<!-- Node1&#45;&gt;Node0 -->
<g id="edge1" class="edge">
<title>Node1&#45;&gt;Node0</title>
<path fill="none" stroke="#000000" d="M126.345,-180.9791C135.3725,-180.9791 144.3837,-180.9791 152.7354,-180.9791"/>
<polygon fill="#000000" stroke="#000000" points="126.1802,-177.4792 116.1802,-180.9791 126.1801,-184.4792 126.1802,-177.4792"/>
</g>
</g>
</svg>
