<?xml version="1.0" encoding="UTF-8" standalone="no"?>
<!DOCTYPE svg PUBLIC "-//W3C//DTD SVG 1.1//EN"
 "http://www.w3.org/Graphics/SVG/1.1/DTD/svg11.dtd">
<!-- Generated by graphviz version 2.40.1 (20161225.0304)
 -->
<!-- Title: Parallel computing with multiple processors using distributed memory Pages: 1 -->
<svg width="273pt" height="47pt"
 viewBox="0.00 0.00 272.76 47.00" xmlns="http://www.w3.org/2000/svg" xmlns:xlink="http://www.w3.org/1999/xlink">
<g id="graph0" class="graph" transform="scale(1 1) rotate(0) translate(4 43)">
<title>Parallel computing with multiple processors using distributed memory</title>
<polygon fill="#ffffff" stroke="transparent" points="-4,4 -4,-43 268.7578,-43 268.7578,4 -4,4"/>
<!-- Node1 -->
<g id="node1" class="node">
<title>Node1</title>
<g id="a_node1"><a xlink:href="group__Parallel.html" target="_top" xlink:title="A module discussing the use of multiple processors. ">
<polygon fill="#ffffff" stroke="#000000" points="0,-10.5 0,-28.5 98.2656,-28.5 98.2656,-10.5 0,-10.5"/>
<text text-anchor="middle" x="49.1328" y="-16.5" font-family="Helvetica,sans-Serif" font-size="10.00" fill="#000000">Parallel computing</text>
</a>
</g>
</g>
<!-- Node0 -->
<g id="node2" class="node">
<title>Node0</title>
<polygon fill="#bfbfbf" stroke="#000000" points="134.2656,-.5 134.2656,-38.5 264.7578,-38.5 264.7578,-.5 134.2656,-.5"/>
<text text-anchor="start" x="142.2656" y="-26.5" font-family="Helvetica,sans-Serif" font-size="10.00" fill="#000000">Parallel computing</text>
<text text-anchor="start" x="142.2656" y="-16.5" font-family="Helvetica,sans-Serif" font-size="10.00" fill="#000000"> with multiple processors</text>
<text text-anchor="middle" x="199.5117" y="-6.5" font-family="Helvetica,sans-Serif" font-size="10.00" fill="#000000"> using distributed memory</text>
</g>
<!-- Node1&#45;&gt;Node0 -->
<g id="edge1" class="edge">
<title>Node1&#45;&gt;Node0</title>
<path fill="none" stroke="#000000" d="M108.4491,-19.5C116.8472,-19.5 125.522,-19.5 134.0284,-19.5"/>
<polygon fill="#000000" stroke="#000000" points="108.3725,-16.0001 98.3725,-19.5 108.3725,-23.0001 108.3725,-16.0001"/>
</g>
</g>
</svg>
