<?xml version="1.0" encoding="UTF-8" standalone="no"?>
<!DOCTYPE svg PUBLIC "-//W3C//DTD SVG 1.1//EN"
 "http://www.w3.org/Graphics/SVG/1.1/DTD/svg11.dtd">
<!-- Generated by graphviz version 2.40.1 (20161225.0304)
 -->
<!-- Title: Iterators on mesh&#45;like containers Pages: 1 -->
<svg width="336pt" height="103pt"
 viewBox="0.00 0.00 336.28 103.00" xmlns="http://www.w3.org/2000/svg" xmlns:xlink="http://www.w3.org/1999/xlink">
<g id="graph0" class="graph" transform="scale(1 1) rotate(0) translate(4 99)">
<title>Iterators on mesh&#45;like containers</title>
<polygon fill="#ffffff" stroke="transparent" points="-4,4 -4,-99 332.2783,-99 332.2783,4 -4,4"/>
<!-- Node2 -->
<g id="node1" class="node">
<title>Node2</title>
<g id="a_node1"><a xlink:href="group__Accessors.html" target="_top" xlink:title="Accessor classes of\l the mesh iterators">
<polygon fill="#ffffff" stroke="#000000" points="223.9141,-66.5 223.9141,-94.5 328.2783,-94.5 328.2783,-66.5 223.9141,-66.5"/>
<text text-anchor="start" x="231.9141" y="-82.5" font-family="Helvetica,sans-Serif" font-size="10.00" fill="#000000">Accessor classes of</text>
<text text-anchor="middle" x="276.0962" y="-72.5" font-family="Helvetica,sans-Serif" font-size="10.00" fill="#000000"> the mesh iterators</text>
</a>
</g>
</g>
<!-- Node0 -->
<g id="node2" class="node">
<title>Node0</title>
<polygon fill="#bfbfbf" stroke="#000000" points="0,-11.5 0,-39.5 112.1475,-39.5 112.1475,-11.5 0,-11.5"/>
<text text-anchor="start" x="8" y="-27.5" font-family="Helvetica,sans-Serif" font-size="10.00" fill="#000000">Iterators on mesh&#45;like</text>
<text text-anchor="middle" x="56.0737" y="-17.5" font-family="Helvetica,sans-Serif" font-size="10.00" fill="#000000"> containers</text>
</g>
<!-- Node0&#45;&gt;Node2 -->
<g id="edge2" class="edge">
<title>Node0&#45;&gt;Node2</title>
<path fill="none" stroke="#000000" d="M87.0967,-44.56C99.9752,-51.6246 115.3469,-59.003 130.1475,-63.5 160.4132,-72.6959 195.6014,-76.9718 223.8424,-78.9364"/>
<polygon fill="#000000" stroke="#000000" points="88.6288,-41.4052 78.2036,-39.517 85.1758,-47.4943 88.6288,-41.4052"/>
</g>
<!-- Node1 -->
<g id="node3" class="node">
<title>Node1</title>
<g id="a_node3"><a xlink:href="group__grid.html" target="_top" xlink:title="Grid classes">
<polygon fill="#ffffff" stroke="#000000" points="240.5889,-.5 240.5889,-18.5 311.6035,-18.5 311.6035,-.5 240.5889,-.5"/>
<text text-anchor="middle" x="276.0962" y="-6.5" font-family="Helvetica,sans-Serif" font-size="10.00" fill="#000000">Grid classes</text>
</a>
</g>
</g>
<!-- Node0&#45;&gt;Node1 -->
<g id="edge3" class="edge">
<title>Node0&#45;&gt;Node1</title>
<path fill="none" stroke="#ffa500" stroke-dasharray="5,2" d="M112.164,-21.4211C152.524,-18.4862 205.7479,-14.6157 240.4352,-12.0933"/>
<text text-anchor="middle" x="168.0308" y="-51.5" font-family="Helvetica,sans-Serif" font-size="10.00" fill="#000000">FilteredIterator</text>
<text text-anchor="middle" x="168.0308" y="-41.5" font-family="Helvetica,sans-Serif" font-size="10.00" fill="#000000">TriaRawIterator</text>
<text text-anchor="middle" x="168.0308" y="-31.5" font-family="Helvetica,sans-Serif" font-size="10.00" fill="#000000">TriaIterator</text>
<text text-anchor="middle" x="168.0308" y="-21.5" font-family="Helvetica,sans-Serif" font-size="10.00" fill="#000000">TriaActiveIterator</text>
</g>
<!-- Node1&#45;&gt;Node0 -->
<g id="edge1" class="edge">
<title>Node1&#45;&gt;Node0</title>
<path fill="none" stroke="#000000" d="M230.3621,-5.1521C201.5064,-3.2497 163.5146,-2.2888 130.1475,-6.5 121.454,-7.5972 112.3197,-9.3915 103.5496,-11.4506"/>
<polygon fill="#000000" stroke="#000000" points="230.3283,-8.6586 240.5543,-5.8877 230.8323,-1.6768 230.3283,-8.6586"/>
</g>
</g>
</svg>
