<?xml version="1.0" encoding="UTF-8" standalone="no"?>
<!DOCTYPE svg PUBLIC "-//W3C//DTD SVG 1.1//EN"
 "http://www.w3.org/Graphics/SVG/1.1/DTD/svg11.dtd">
<!-- Generated by graphviz version 2.40.1 (20161225.0304)
 -->
<!-- Title: Finite element access/FEValues classes Pages: 1 -->
<svg width="545pt" height="375pt"
 viewBox="0.00 0.00 544.75 374.50" xmlns="http://www.w3.org/2000/svg" xmlns:xlink="http://www.w3.org/1999/xlink">
<g id="graph0" class="graph" transform="scale(1 1) rotate(0) translate(4 370.5)">
<title>Finite element access/FEValues classes</title>
<polygon fill="#ffffff" stroke="transparent" points="-4,4 -4,-370.5 540.7471,-370.5 540.7471,4 -4,4"/>
<!-- Node3 -->
<g id="node1" class="node">
<title>Node3</title>
<g id="a_node1"><a xlink:href="group__Vectors.html" target="_top" xlink:title="Vector classes">
<polygon fill="#ffffff" stroke="#000000" points="424.3115,-338.5 424.3115,-356.5 504.7891,-356.5 504.7891,-338.5 424.3115,-338.5"/>
<text text-anchor="middle" x="464.5503" y="-344.5" font-family="Helvetica,sans-Serif" font-size="10.00" fill="#000000">Vector classes</text>
</a>
</g>
</g>
<!-- Node6 -->
<g id="node2" class="node">
<title>Node6</title>
<g id="a_node2"><a xlink:href="group__VMemory.html" target="_top" xlink:title="Vector memory management">
<polygon fill="#ffffff" stroke="#000000" points="392.3535,-301.5 392.3535,-319.5 536.7471,-319.5 536.7471,-301.5 392.3535,-301.5"/>
<text text-anchor="middle" x="464.5503" y="-307.5" font-family="Helvetica,sans-Serif" font-size="10.00" fill="#000000">Vector memory management</text>
</a>
</g>
</g>
<!-- Node1 -->
<g id="node3" class="node">
<title>Node1</title>
<g id="a_node3"><a xlink:href="group__feall.html" target="_top" xlink:title="Finite elements">
<polygon fill="#ffffff" stroke="#000000" points="0,-113.5 0,-131.5 83.8076,-131.5 83.8076,-113.5 0,-113.5"/>
<text text-anchor="middle" x="41.9038" y="-119.5" font-family="Helvetica,sans-Serif" font-size="10.00" fill="#000000">Finite elements</text>
</a>
</g>
</g>
<!-- Node0 -->
<g id="node6" class="node">
<title>Node0</title>
<polygon fill="#bfbfbf" stroke="#000000" points="120.8076,-108.5 120.8076,-136.5 233.5166,-136.5 233.5166,-108.5 120.8076,-108.5"/>
<text text-anchor="start" x="128.8076" y="-124.5" font-family="Helvetica,sans-Serif" font-size="10.00" fill="#000000">Finite element access</text>
<text text-anchor="middle" x="177.1621" y="-114.5" font-family="Helvetica,sans-Serif" font-size="10.00" fill="#000000">/FEValues classes</text>
</g>
<!-- Node1&#45;&gt;Node0 -->
<g id="edge1" class="edge">
<title>Node1&#45;&gt;Node0</title>
<path fill="none" stroke="#000000" d="M94.0171,-122.5C102.7603,-122.5 111.8693,-122.5 120.7156,-122.5"/>
<polygon fill="#000000" stroke="#000000" points="93.959,-119.0001 83.9589,-122.5 93.9589,-126.0001 93.959,-119.0001"/>
</g>
<!-- Node2 -->
<g id="node4" class="node">
<title>Node2</title>
<g id="a_node4"><a xlink:href="group__vector__valued.html" target="_top" xlink:title="Handling vector valued\l problems">
<polygon fill="#ffffff" stroke="#000000" points="405.686,-108.5 405.686,-136.5 523.4146,-136.5 523.4146,-108.5 405.686,-108.5"/>
<text text-anchor="start" x="413.686" y="-124.5" font-family="Helvetica,sans-Serif" font-size="10.00" fill="#000000">Handling vector valued</text>
<text text-anchor="middle" x="464.5503" y="-114.5" font-family="Helvetica,sans-Serif" font-size="10.00" fill="#000000"> problems</text>
</a>
</g>
</g>
<!-- Node4 -->
<g id="node5" class="node">
<title>Node4</title>
<g id="a_node5"><a xlink:href="group__PETScWrappers.html" target="_top" xlink:title="PETScWrappers">
<polygon fill="#ffffff" stroke="#000000" points="419.4067,-37.5 419.4067,-55.5 509.6938,-55.5 509.6938,-37.5 419.4067,-37.5"/>
<text text-anchor="middle" x="464.5503" y="-43.5" font-family="Helvetica,sans-Serif" font-size="10.00" fill="#000000">PETScWrappers</text>
</a>
</g>
</g>
<!-- Node0&#45;&gt;Node3 -->
<g id="edge4" class="edge">
<title>Node0&#45;&gt;Node3</title>
<path fill="none" stroke="#8a2be2" stroke-dasharray="5,2" d="M180.3979,-136.629C190.2001,-178.1455 220.7829,-298.3586 251.5166,-322.5 300.8611,-361.2602 377.5411,-359.827 424.1943,-354.3191"/>
<text text-anchor="middle" x="312.9351" y="-358.5" font-family="Helvetica,sans-Serif" font-size="10.00" fill="#000000">internal</text>
</g>
<!-- Node0&#45;&gt;Node6 -->
<g id="edge7" class="edge">
<title>Node0&#45;&gt;Node6</title>
<path fill="none" stroke="#8a2be2" stroke-dasharray="5,2" d="M178.9042,-136.9412C183.7119,-169.8503 200.3926,-250.4216 251.5166,-287.5 273.4619,-303.4162 339.4722,-308.6644 392.2585,-310.2328"/>
<text text-anchor="middle" x="312.9351" y="-310.5" font-family="Helvetica,sans-Serif" font-size="10.00" fill="#000000">internal</text>
</g>
<!-- Node0&#45;&gt;Node2 -->
<g id="edge2" class="edge">
<title>Node0&#45;&gt;Node2</title>
<path fill="none" stroke="#000000" d="M181.8278,-146.3369C189.7203,-179.393 209.1784,-237.9621 251.5166,-263.5 298.2649,-291.6979 326.4649,-289.7146 374.3535,-263.5 424.8238,-235.8722 451.1791,-166.6342 460.5306,-136.6788"/>
<polygon fill="#000000" stroke="#000000" points="185.2444,-145.577 179.6573,-136.5751 178.4112,-147.0964 185.2444,-145.577"/>
</g>
<!-- Node0&#45;&gt;Node2 -->
<g id="edge3" class="edge">
<title>Node0&#45;&gt;Node2</title>
<path fill="none" stroke="#ffa500" stroke-dasharray="5,2" d="M233.586,-119.9844C239.6376,-119.7859 245.7041,-119.6172 251.5166,-119.5 306.0997,-118.3993 319.7669,-118.5925 374.3535,-119.5 384.3795,-119.6667 395.0298,-119.9375 405.3657,-120.25"/>
<text text-anchor="middle" x="312.9351" y="-251.5" font-family="Helvetica,sans-Serif" font-size="10.00" fill="#000000">FEValuesViews::Scalar</text>
<text text-anchor="middle" x="312.9351" y="-241.5" font-family="Helvetica,sans-Serif" font-size="10.00" fill="#000000">FEValuesViews::Vector</text>
<text text-anchor="start" x="251.5166" y="-231.5" font-family="Helvetica,sans-Serif" font-size="10.00" fill="#000000">FEValuesViews::Symmetric</text>
<text text-anchor="middle" x="312.9351" y="-221.5" font-family="Helvetica,sans-Serif" font-size="10.00" fill="#000000">Tensor&lt; 2, dim, spacedim &gt;</text>
<text text-anchor="start" x="251.5166" y="-211.5" font-family="Helvetica,sans-Serif" font-size="10.00" fill="#000000">FEValuesViews::Tensor</text>
<text text-anchor="middle" x="312.9351" y="-201.5" font-family="Helvetica,sans-Serif" font-size="10.00" fill="#000000">&lt; 2, dim, spacedim &gt;</text>
<text text-anchor="start" x="251.5166" y="-191.5" font-family="Helvetica,sans-Serif" font-size="10.00" fill="#000000">FEValuesExtractors</text>
<text text-anchor="middle" x="312.9351" y="-181.5" font-family="Helvetica,sans-Serif" font-size="10.00" fill="#000000">::Scalar</text>
<text text-anchor="start" x="251.5166" y="-171.5" font-family="Helvetica,sans-Serif" font-size="10.00" fill="#000000">FEValuesExtractors</text>
<text text-anchor="middle" x="312.9351" y="-161.5" font-family="Helvetica,sans-Serif" font-size="10.00" fill="#000000">::Vector</text>
<text text-anchor="start" x="251.5166" y="-151.5" font-family="Helvetica,sans-Serif" font-size="10.00" fill="#000000">FEValuesExtractors</text>
<text text-anchor="middle" x="312.9351" y="-141.5" font-family="Helvetica,sans-Serif" font-size="10.00" fill="#000000">::SymmetricTensor</text>
<text text-anchor="start" x="251.5166" y="-131.5" font-family="Helvetica,sans-Serif" font-size="10.00" fill="#000000">FEValuesExtractors</text>
<text text-anchor="middle" x="312.9351" y="-121.5" font-family="Helvetica,sans-Serif" font-size="10.00" fill="#000000">::Tensor</text>
</g>
<!-- Node0&#45;&gt;Node2 -->
<g id="edge8" class="edge">
<title>Node0&#45;&gt;Node2</title>
<path fill="none" stroke="#8a2be2" stroke-dasharray="5,2" d="M208.3348,-108.4387C221.3928,-103.2771 236.9088,-98.0701 251.5166,-95.5 305.2849,-86.0399 320.3356,-87.5884 374.3535,-95.5 391.8205,-98.0583 410.6028,-103.2634 426.4819,-108.4268"/>
<text text-anchor="middle" x="312.9351" y="-107.5" font-family="Helvetica,sans-Serif" font-size="10.00" fill="#000000">FEValuesViews</text>
<text text-anchor="middle" x="312.9351" y="-97.5" font-family="Helvetica,sans-Serif" font-size="10.00" fill="#000000">FEValuesExtractors</text>
</g>
<!-- Node0&#45;&gt;Node4 -->
<g id="edge5" class="edge">
<title>Node0&#45;&gt;Node4</title>
<path fill="none" stroke="#8a2be2" stroke-dasharray="5,2" d="M194.6512,-108.3748C209.0388,-97.5432 230.4247,-83.1871 251.5166,-75.5 306.9266,-55.3055 375.0887,-48.9919 419.1553,-47.1174"/>
<text text-anchor="middle" x="312.9351" y="-77.5" font-family="Helvetica,sans-Serif" font-size="10.00" fill="#000000">internal</text>
</g>
<!-- Node5 -->
<g id="node7" class="node">
<title>Node5</title>
<g id="a_node7"><a xlink:href="group__Solvers.html" target="_top" xlink:title="Linear solver classes">
<polygon fill="#ffffff" stroke="#000000" points="409.8633,-.5 409.8633,-18.5 519.2373,-18.5 519.2373,-.5 409.8633,-.5"/>
<text text-anchor="middle" x="464.5503" y="-6.5" font-family="Helvetica,sans-Serif" font-size="10.00" fill="#000000">Linear solver classes</text>
</a>
</g>
</g>
<!-- Node0&#45;&gt;Node5 -->
<g id="edge6" class="edge">
<title>Node0&#45;&gt;Node5</title>
<path fill="none" stroke="#8a2be2" stroke-dasharray="5,2" d="M185.0943,-108.2219C196.819,-88.6288 220.7469,-53.9673 251.5166,-37.5 300.5216,-11.2735 364.6491,-6.091 409.6946,-6.3405"/>
<text text-anchor="middle" x="312.9351" y="-39.5" font-family="Helvetica,sans-Serif" font-size="10.00" fill="#000000">internal</text>
</g>
</g>
</svg>
