<?xml version="1.0" encoding="UTF-8" standalone="no"?>
<!DOCTYPE svg PUBLIC "-//W3C//DTD SVG 1.1//EN"
 "http://www.w3.org/Graphics/SVG/1.1/DTD/svg11.dtd">
<!-- Generated by graphviz version 2.40.1 (20161225.0304)
 -->
<!-- Title: internal::Triangulation::NumberCache&lt; 1 &gt; Pages: 1 -->
<svg width="120pt" height="167pt"
 viewBox="0.00 0.00 119.80 167.00" xmlns="http://www.w3.org/2000/svg" xmlns:xlink="http://www.w3.org/1999/xlink">
<g id="graph0" class="graph" transform="scale(1 1) rotate(0) translate(4 163)">
<title>internal::Triangulation::NumberCache&lt; 1 &gt;</title>
<polygon fill="#ffffff" stroke="transparent" points="-4,4 -4,-163 115.8008,-163 115.8008,4 -4,4"/>
<!-- Node0 -->
<g id="node1" class="node">
<title>Node0</title>
<polygon fill="#bfbfbf" stroke="#000000" points="0,-130.5 0,-158.5 111.8008,-158.5 111.8008,-130.5 0,-130.5"/>
<text text-anchor="start" x="8" y="-146.5" font-family="Helvetica,sans-Serif" font-size="10.00" fill="#000000">internal::Triangulation</text>
<text text-anchor="middle" x="55.9004" y="-136.5" font-family="Helvetica,sans-Serif" font-size="10.00" fill="#000000">::NumberCache&lt; 1 &gt;</text>
</g>
<!-- Node1 -->
<g id="node2" class="node">
<title>Node1</title>
<g id="a_node2"><a xlink:href="structinternal_1_1Triangulation_1_1NumberCache_3_012_01_4.html" target="_top" xlink:title="internal::Triangulation\l::NumberCache\&lt; 2 \&gt;">
<polygon fill="#ffffff" stroke="#000000" points="0,-65.5 0,-93.5 111.8008,-93.5 111.8008,-65.5 0,-65.5"/>
<text text-anchor="start" x="8" y="-81.5" font-family="Helvetica,sans-Serif" font-size="10.00" fill="#000000">internal::Triangulation</text>
<text text-anchor="middle" x="55.9004" y="-71.5" font-family="Helvetica,sans-Serif" font-size="10.00" fill="#000000">::NumberCache&lt; 2 &gt;</text>
</a>
</g>
</g>
<!-- Node0&#45;&gt;Node1 -->
<g id="edge1" class="edge">
<title>Node0&#45;&gt;Node1</title>
<path fill="none" stroke="#191970" d="M55.9004,-120.1081C55.9004,-111.1539 55.9004,-101.3227 55.9004,-93.5765"/>
<polygon fill="#191970" stroke="#191970" points="52.4005,-120.3959 55.9004,-130.396 59.4005,-120.396 52.4005,-120.3959"/>
</g>
<!-- Node2 -->
<g id="node3" class="node">
<title>Node2</title>
<g id="a_node3"><a xlink:href="structinternal_1_1Triangulation_1_1NumberCache_3_013_01_4.html" target="_top" xlink:title="internal::Triangulation\l::NumberCache\&lt; 3 \&gt;">
<polygon fill="#ffffff" stroke="#000000" points="0,-.5 0,-28.5 111.8008,-28.5 111.8008,-.5 0,-.5"/>
<text text-anchor="start" x="8" y="-16.5" font-family="Helvetica,sans-Serif" font-size="10.00" fill="#000000">internal::Triangulation</text>
<text text-anchor="middle" x="55.9004" y="-6.5" font-family="Helvetica,sans-Serif" font-size="10.00" fill="#000000">::NumberCache&lt; 3 &gt;</text>
</a>
</g>
</g>
<!-- Node1&#45;&gt;Node2 -->
<g id="edge2" class="edge">
<title>Node1&#45;&gt;Node2</title>
<path fill="none" stroke="#191970" d="M55.9004,-55.1081C55.9004,-46.1539 55.9004,-36.3227 55.9004,-28.5765"/>
<polygon fill="#191970" stroke="#191970" points="52.4005,-55.3959 55.9004,-65.396 59.4005,-55.396 52.4005,-55.3959"/>
</g>
</g>
</svg>
