<?xml version="1.0" encoding="UTF-8" standalone="no"?>
<!DOCTYPE svg PUBLIC "-//W3C//DTD SVG 1.1//EN"
 "http://www.w3.org/Graphics/SVG/1.1/DTD/svg11.dtd">
<!-- Generated by graphviz version 2.40.1 (20161225.0304)
 -->
<!-- Title: DataOutBase::OutputFlagsBase&lt; FlagsType &gt; Pages: 1 -->
<svg width="802pt" height="461pt"
 viewBox="0.00 0.00 801.78 460.50" xmlns="http://www.w3.org/2000/svg" xmlns:xlink="http://www.w3.org/1999/xlink">
<g id="graph0" class="graph" transform="scale(1 1) rotate(0) translate(4 456.5)">
<title>DataOutBase::OutputFlagsBase&lt; FlagsType &gt;</title>
<polygon fill="#ffffff" stroke="transparent" points="-4,4 -4,-456.5 797.7754,-456.5 797.7754,4 -4,4"/>
<!-- Node0 -->
<g id="node1" class="node">
<title>Node0</title>
<polygon fill="#bfbfbf" stroke="#000000" points="0,-211.5 0,-239.5 136.0635,-239.5 136.0635,-211.5 0,-211.5"/>
<text text-anchor="start" x="8" y="-227.5" font-family="Helvetica,sans-Serif" font-size="10.00" fill="#000000">DataOutBase::OutputFlags</text>
<text text-anchor="middle" x="68.0317" y="-217.5" font-family="Helvetica,sans-Serif" font-size="10.00" fill="#000000">Base&lt; FlagsType &gt;</text>
</g>
<!-- Node1 -->
<g id="node2" class="node">
<title>Node1</title>
<g id="a_node2"><a xlink:href="structDataOutBase_1_1OutputFlagsBase.html" target="_top" xlink:title="DataOutBase::OutputFlags\lBase\&lt; TecplotFlags \&gt;">
<polygon fill="#ffffff" stroke="#000000" points="327.9888,-423.5 327.9888,-451.5 464.0522,-451.5 464.0522,-423.5 327.9888,-423.5"/>
<text text-anchor="start" x="335.9888" y="-439.5" font-family="Helvetica,sans-Serif" font-size="10.00" fill="#000000">DataOutBase::OutputFlags</text>
<text text-anchor="middle" x="396.0205" y="-429.5" font-family="Helvetica,sans-Serif" font-size="10.00" fill="#000000">Base&lt; TecplotFlags &gt;</text>
</a>
</g>
</g>
<!-- Node0&#45;&gt;Node1 -->
<g id="edge1" class="edge">
<title>Node0&#45;&gt;Node1</title>
<path fill="none" stroke="#ffa500" stroke-dasharray="5,2" d="M72.3603,-249.3921C80.7304,-288.146 103.0161,-364.1304 154.0635,-401.5 204.009,-438.063 275.5117,-444.6619 327.8356,-443.5643"/>
<polygon fill="#ffa500" stroke="#ffa500" points="75.7743,-248.6165 70.3562,-239.5119 68.914,-250.0081 75.7743,-248.6165"/>
<text text-anchor="middle" x="222.7134" y="-444.5" font-family="Helvetica,sans-Serif" font-size="10.00" fill="#000000"> &lt; TecplotFlags &gt;</text>
</g>
<!-- Node3 -->
<g id="node4" class="node">
<title>Node3</title>
<g id="a_node4"><a xlink:href="structDataOutBase_1_1OutputFlagsBase.html" target="_top" xlink:title="DataOutBase::OutputFlags\lBase\&lt; UcdFlags \&gt;">
<polygon fill="#ffffff" stroke="#000000" points="327.9888,-376.5 327.9888,-404.5 464.0522,-404.5 464.0522,-376.5 327.9888,-376.5"/>
<text text-anchor="start" x="335.9888" y="-392.5" font-family="Helvetica,sans-Serif" font-size="10.00" fill="#000000">DataOutBase::OutputFlags</text>
<text text-anchor="middle" x="396.0205" y="-382.5" font-family="Helvetica,sans-Serif" font-size="10.00" fill="#000000">Base&lt; UcdFlags &gt;</text>
</a>
</g>
</g>
<!-- Node0&#45;&gt;Node3 -->
<g id="edge3" class="edge">
<title>Node0&#45;&gt;Node3</title>
<path fill="none" stroke="#ffa500" stroke-dasharray="5,2" d="M77.8171,-249.0547C90.8408,-277.2775 116.6621,-323.7247 154.0635,-347.5 206.0916,-380.5733 276.4742,-390.01 327.9142,-391.9563"/>
<polygon fill="#ffa500" stroke="#ffa500" points="80.8572,-247.2765 73.6002,-239.5572 74.4594,-250.1171 80.8572,-247.2765"/>
<text text-anchor="middle" x="222.7134" y="-390.5" font-family="Helvetica,sans-Serif" font-size="10.00" fill="#000000"> &lt; UcdFlags &gt;</text>
</g>
<!-- Node5 -->
<g id="node6" class="node">
<title>Node5</title>
<g id="a_node6"><a xlink:href="structDataOutBase_1_1OutputFlagsBase.html" target="_top" xlink:title="DataOutBase::OutputFlags\lBase\&lt; PovrayFlags \&gt;">
<polygon fill="#ffffff" stroke="#000000" points="327.9888,-329.5 327.9888,-357.5 464.0522,-357.5 464.0522,-329.5 327.9888,-329.5"/>
<text text-anchor="start" x="335.9888" y="-345.5" font-family="Helvetica,sans-Serif" font-size="10.00" fill="#000000">DataOutBase::OutputFlags</text>
<text text-anchor="middle" x="396.0205" y="-335.5" font-family="Helvetica,sans-Serif" font-size="10.00" fill="#000000">Base&lt; PovrayFlags &gt;</text>
</a>
</g>
</g>
<!-- Node0&#45;&gt;Node5 -->
<g id="edge5" class="edge">
<title>Node0&#45;&gt;Node5</title>
<path fill="none" stroke="#ffa500" stroke-dasharray="5,2" d="M88.1269,-247.1323C104.3629,-263.2615 128.6278,-284.497 154.0635,-296.5 209.113,-322.4776 277.6917,-334.0974 327.767,-339.2947"/>
<polygon fill="#ffa500" stroke="#ffa500" points="90.3304,-244.3802 80.8316,-239.6874 85.3307,-249.2795 90.3304,-244.3802"/>
<text text-anchor="middle" x="222.7134" y="-335.5" font-family="Helvetica,sans-Serif" font-size="10.00" fill="#000000"> &lt; PovrayFlags &gt;</text>
</g>
<!-- Node7 -->
<g id="node8" class="node">
<title>Node7</title>
<g id="a_node8"><a xlink:href="structDataOutBase_1_1OutputFlagsBase.html" target="_top" xlink:title="DataOutBase::OutputFlags\lBase\&lt; DXFlags \&gt;">
<polygon fill="#ffffff" stroke="#000000" points="327.9888,-282.5 327.9888,-310.5 464.0522,-310.5 464.0522,-282.5 327.9888,-282.5"/>
<text text-anchor="start" x="335.9888" y="-298.5" font-family="Helvetica,sans-Serif" font-size="10.00" fill="#000000">DataOutBase::OutputFlags</text>
<text text-anchor="middle" x="396.0205" y="-288.5" font-family="Helvetica,sans-Serif" font-size="10.00" fill="#000000">Base&lt; DXFlags &gt;</text>
</a>
</g>
</g>
<!-- Node0&#45;&gt;Node7 -->
<g id="edge7" class="edge">
<title>Node0&#45;&gt;Node7</title>
<path fill="none" stroke="#ffa500" stroke-dasharray="5,2" d="M113.6458,-243.0017C126.5759,-247.5249 140.7569,-252.0783 154.0635,-255.5 211.9347,-270.3812 279.0175,-281.2628 327.8492,-288.0607"/>
<polygon fill="#ffa500" stroke="#ffa500" points="114.6318,-239.6373 104.0372,-239.5679 112.2761,-246.229 114.6318,-239.6373"/>
<text text-anchor="middle" x="222.7134" y="-284.5" font-family="Helvetica,sans-Serif" font-size="10.00" fill="#000000"> &lt; DXFlags &gt;</text>
</g>
<!-- Node9 -->
<g id="node10" class="node">
<title>Node9</title>
<g id="a_node10"><a xlink:href="structDataOutBase_1_1OutputFlagsBase.html" target="_top" xlink:title="DataOutBase::OutputFlags\lBase\&lt; GnuplotFlags \&gt;">
<polygon fill="#ffffff" stroke="#000000" points="327.9888,-235.5 327.9888,-263.5 464.0522,-263.5 464.0522,-235.5 327.9888,-235.5"/>
<text text-anchor="start" x="335.9888" y="-251.5" font-family="Helvetica,sans-Serif" font-size="10.00" fill="#000000">DataOutBase::OutputFlags</text>
<text text-anchor="middle" x="396.0205" y="-241.5" font-family="Helvetica,sans-Serif" font-size="10.00" fill="#000000">Base&lt; GnuplotFlags &gt;</text>
</a>
</g>
</g>
<!-- Node0&#45;&gt;Node9 -->
<g id="edge9" class="edge">
<title>Node0&#45;&gt;Node9</title>
<path fill="none" stroke="#ffa500" stroke-dasharray="5,2" d="M146.4846,-231.2406C201.717,-235.2822 274.9274,-240.6392 327.7506,-244.5045"/>
<polygon fill="#ffa500" stroke="#ffa500" points="146.6185,-227.7412 136.3897,-230.502 146.1076,-234.7225 146.6185,-227.7412"/>
<text text-anchor="middle" x="222.7134" y="-243.5" font-family="Helvetica,sans-Serif" font-size="10.00" fill="#000000"> &lt; GnuplotFlags &gt;</text>
</g>
<!-- Node11 -->
<g id="node12" class="node">
<title>Node11</title>
<g id="a_node12"><a xlink:href="structDataOutBase_1_1OutputFlagsBase.html" target="_top" xlink:title="DataOutBase::OutputFlags\lBase\&lt; EpsFlags \&gt;">
<polygon fill="#ffffff" stroke="#000000" points="327.9888,-188.5 327.9888,-216.5 464.0522,-216.5 464.0522,-188.5 327.9888,-188.5"/>
<text text-anchor="start" x="335.9888" y="-204.5" font-family="Helvetica,sans-Serif" font-size="10.00" fill="#000000">DataOutBase::OutputFlags</text>
<text text-anchor="middle" x="396.0205" y="-194.5" font-family="Helvetica,sans-Serif" font-size="10.00" fill="#000000">Base&lt; EpsFlags &gt;</text>
</a>
</g>
</g>
<!-- Node0&#45;&gt;Node11 -->
<g id="edge11" class="edge">
<title>Node0&#45;&gt;Node11</title>
<path fill="none" stroke="#ffa500" stroke-dasharray="5,2" d="M146.4736,-214.2495C149.0318,-213.9814 151.5669,-213.7304 154.0635,-213.5 212.5795,-208.1007 279.3124,-205.3183 327.8528,-203.9046"/>
<polygon fill="#ffa500" stroke="#ffa500" points="146.0752,-210.7721 136.5253,-215.3602 146.8519,-217.7289 146.0752,-210.7721"/>
<text text-anchor="middle" x="222.7134" y="-215.5" font-family="Helvetica,sans-Serif" font-size="10.00" fill="#000000"> &lt; EpsFlags &gt;</text>
</g>
<!-- Node13 -->
<g id="node14" class="node">
<title>Node13</title>
<g id="a_node14"><a xlink:href="structDataOutBase_1_1OutputFlagsBase.html" target="_top" xlink:title="DataOutBase::OutputFlags\lBase\&lt; SvgFlags \&gt;">
<polygon fill="#ffffff" stroke="#000000" points="327.9888,-141.5 327.9888,-169.5 464.0522,-169.5 464.0522,-141.5 327.9888,-141.5"/>
<text text-anchor="start" x="335.9888" y="-157.5" font-family="Helvetica,sans-Serif" font-size="10.00" fill="#000000">DataOutBase::OutputFlags</text>
<text text-anchor="middle" x="396.0205" y="-147.5" font-family="Helvetica,sans-Serif" font-size="10.00" fill="#000000">Base&lt; SvgFlags &gt;</text>
</a>
</g>
</g>
<!-- Node0&#45;&gt;Node13 -->
<g id="edge13" class="edge">
<title>Node0&#45;&gt;Node13</title>
<path fill="none" stroke="#ffa500" stroke-dasharray="5,2" d="M106.862,-207.3671C121.4015,-201.2039 138.2342,-194.7961 154.0635,-190.5 211.6149,-174.8805 278.8751,-165.8634 327.8519,-160.9063"/>
<polygon fill="#ffa500" stroke="#ffa500" points="105.4509,-204.164 97.6722,-211.3571 108.2388,-210.5849 105.4509,-204.164"/>
<text text-anchor="middle" x="222.7134" y="-192.5" font-family="Helvetica,sans-Serif" font-size="10.00" fill="#000000"> &lt; SvgFlags &gt;</text>
</g>
<!-- Node15 -->
<g id="node16" class="node">
<title>Node15</title>
<g id="a_node16"><a xlink:href="structDataOutBase_1_1OutputFlagsBase.html" target="_top" xlink:title="DataOutBase::OutputFlags\lBase\&lt; VtkFlags \&gt;">
<polygon fill="#ffffff" stroke="#000000" points="327.9888,-94.5 327.9888,-122.5 464.0522,-122.5 464.0522,-94.5 327.9888,-94.5"/>
<text text-anchor="start" x="335.9888" y="-110.5" font-family="Helvetica,sans-Serif" font-size="10.00" fill="#000000">DataOutBase::OutputFlags</text>
<text text-anchor="middle" x="396.0205" y="-100.5" font-family="Helvetica,sans-Serif" font-size="10.00" fill="#000000">Base&lt; VtkFlags &gt;</text>
</a>
</g>
</g>
<!-- Node0&#45;&gt;Node15 -->
<g id="edge15" class="edge">
<title>Node0&#45;&gt;Node15</title>
<path fill="none" stroke="#ffa500" stroke-dasharray="5,2" d="M86.536,-203.8528C102.5847,-186.5672 127.3796,-163.2071 154.0635,-150.5 208.9157,-124.3788 277.6721,-114.3242 327.8575,-110.5432"/>
<polygon fill="#ffa500" stroke="#ffa500" points="83.9082,-201.5404 79.8023,-211.3073 89.1028,-206.2327 83.9082,-201.5404"/>
<text text-anchor="middle" x="222.7134" y="-152.5" font-family="Helvetica,sans-Serif" font-size="10.00" fill="#000000"> &lt; VtkFlags &gt;</text>
</g>
<!-- Node19 -->
<g id="node20" class="node">
<title>Node19</title>
<g id="a_node20"><a xlink:href="structDataOutBase_1_1OutputFlagsBase.html" target="_top" xlink:title="DataOutBase::OutputFlags\lBase\&lt; Deal_II_IntermediateFlags \&gt;">
<polygon fill="#ffffff" stroke="#000000" points="309.3633,-47.5 309.3633,-75.5 482.6777,-75.5 482.6777,-47.5 309.3633,-47.5"/>
<text text-anchor="start" x="317.3633" y="-63.5" font-family="Helvetica,sans-Serif" font-size="10.00" fill="#000000">DataOutBase::OutputFlags</text>
<text text-anchor="middle" x="396.0205" y="-53.5" font-family="Helvetica,sans-Serif" font-size="10.00" fill="#000000">Base&lt; Deal_II_IntermediateFlags &gt;</text>
</a>
</g>
</g>
<!-- Node0&#45;&gt;Node19 -->
<g id="edge19" class="edge">
<title>Node0&#45;&gt;Node19</title>
<path fill="none" stroke="#ffa500" stroke-dasharray="5,2" d="M77.2288,-202.1047C89.9027,-173.1817 115.6228,-124.8099 154.0635,-100.5 200.0037,-71.4473 260.3466,-61.6786 309.2774,-59.1824"/>
<polygon fill="#ffa500" stroke="#ffa500" points="73.9476,-200.8783 73.2905,-211.4527 80.3985,-203.5961 73.9476,-200.8783"/>
<text text-anchor="middle" x="222.7134" y="-102.5" font-family="Helvetica,sans-Serif" font-size="10.00" fill="#000000"> &lt; Deal_II_IntermediateFlags &gt;</text>
</g>
<!-- Node21 -->
<g id="node22" class="node">
<title>Node21</title>
<g id="a_node22"><a xlink:href="structDataOutBase_1_1OutputFlagsBase.html" target="_top" xlink:title="DataOutBase::OutputFlags\lBase\&lt; GmvFlags \&gt;">
<polygon fill="#ffffff" stroke="#000000" points="327.9888,-.5 327.9888,-28.5 464.0522,-28.5 464.0522,-.5 327.9888,-.5"/>
<text text-anchor="start" x="335.9888" y="-16.5" font-family="Helvetica,sans-Serif" font-size="10.00" fill="#000000">DataOutBase::OutputFlags</text>
<text text-anchor="middle" x="396.0205" y="-6.5" font-family="Helvetica,sans-Serif" font-size="10.00" fill="#000000">Base&lt; GmvFlags &gt;</text>
</a>
</g>
</g>
<!-- Node0&#45;&gt;Node21 -->
<g id="edge21" class="edge">
<title>Node0&#45;&gt;Node21</title>
<path fill="none" stroke="#ffa500" stroke-dasharray="5,2" d="M72.2227,-201.2735C80.3948,-161.9888 102.4024,-85.0139 154.0635,-47.5 204.0628,-11.1927 275.5581,-5.5308 327.8655,-7.388"/>
<polygon fill="#ffa500" stroke="#ffa500" points="68.7481,-200.8055 70.2715,-211.2902 75.619,-202.1439 68.7481,-200.8055"/>
<text text-anchor="middle" x="222.7134" y="-49.5" font-family="Helvetica,sans-Serif" font-size="10.00" fill="#000000"> &lt; GmvFlags &gt;</text>
</g>
<!-- Node2 -->
<g id="node3" class="node">
<title>Node2</title>
<g id="a_node3"><a xlink:href="structDataOutBase_1_1TecplotFlags.html" target="_top" xlink:title="DataOutBase::TecplotFlags">
<polygon fill="#ffffff" stroke="#000000" points="521.3477,-428.5 521.3477,-446.5 659.0762,-446.5 659.0762,-428.5 521.3477,-428.5"/>
<text text-anchor="middle" x="590.2119" y="-434.5" font-family="Helvetica,sans-Serif" font-size="10.00" fill="#000000">DataOutBase::TecplotFlags</text>
</a>
</g>
</g>
<!-- Node1&#45;&gt;Node2 -->
<g id="edge2" class="edge">
<title>Node1&#45;&gt;Node2</title>
<path fill="none" stroke="#191970" d="M474.2993,-437.5C489.8224,-437.5 506.0127,-437.5 521.2,-437.5"/>
<polygon fill="#191970" stroke="#191970" points="474.2121,-434.0001 464.2121,-437.5 474.212,-441.0001 474.2121,-434.0001"/>
</g>
<!-- Node4 -->
<g id="node5" class="node">
<title>Node4</title>
<g id="a_node5"><a xlink:href="structDataOutBase_1_1UcdFlags.html" target="_top" xlink:title="DataOutBase::UcdFlags">
<polygon fill="#ffffff" stroke="#000000" points="528.2983,-381.5 528.2983,-399.5 652.1255,-399.5 652.1255,-381.5 528.2983,-381.5"/>
<text text-anchor="middle" x="590.2119" y="-387.5" font-family="Helvetica,sans-Serif" font-size="10.00" fill="#000000">DataOutBase::UcdFlags</text>
</a>
</g>
</g>
<!-- Node3&#45;&gt;Node4 -->
<g id="edge4" class="edge">
<title>Node3&#45;&gt;Node4</title>
<path fill="none" stroke="#191970" d="M474.5697,-390.5C492.3629,-390.5 511.0191,-390.5 528.0268,-390.5"/>
<polygon fill="#191970" stroke="#191970" points="474.2121,-387.0001 464.2121,-390.5 474.212,-394.0001 474.2121,-387.0001"/>
</g>
<!-- Node6 -->
<g id="node7" class="node">
<title>Node6</title>
<g id="a_node7"><a xlink:href="structDataOutBase_1_1PovrayFlags.html" target="_top" xlink:title="DataOutBase::PovrayFlags">
<polygon fill="#ffffff" stroke="#000000" points="521.6284,-334.5 521.6284,-352.5 658.7954,-352.5 658.7954,-334.5 521.6284,-334.5"/>
<text text-anchor="middle" x="590.2119" y="-340.5" font-family="Helvetica,sans-Serif" font-size="10.00" fill="#000000">DataOutBase::PovrayFlags</text>
</a>
</g>
</g>
<!-- Node5&#45;&gt;Node6 -->
<g id="edge6" class="edge">
<title>Node5&#45;&gt;Node6</title>
<path fill="none" stroke="#191970" d="M474.3597,-343.5C489.9763,-343.5 506.2659,-343.5 521.5285,-343.5"/>
<polygon fill="#191970" stroke="#191970" points="474.2121,-340.0001 464.2121,-343.5 474.212,-347.0001 474.2121,-340.0001"/>
</g>
<!-- Node8 -->
<g id="node9" class="node">
<title>Node8</title>
<g id="a_node9"><a xlink:href="structDataOutBase_1_1DXFlags.html" target="_top" xlink:title="DataOutBase::DXFlags">
<polygon fill="#ffffff" stroke="#000000" points="530.2441,-287.5 530.2441,-305.5 650.1797,-305.5 650.1797,-287.5 530.2441,-287.5"/>
<text text-anchor="middle" x="590.2119" y="-293.5" font-family="Helvetica,sans-Serif" font-size="10.00" fill="#000000">DataOutBase::DXFlags</text>
</a>
</g>
</g>
<!-- Node7&#45;&gt;Node8 -->
<g id="edge8" class="edge">
<title>Node7&#45;&gt;Node8</title>
<path fill="none" stroke="#191970" d="M474.3859,-296.5C492.9063,-296.5 512.3718,-296.5 529.9471,-296.5"/>
<polygon fill="#191970" stroke="#191970" points="474.2121,-293.0001 464.2121,-296.5 474.212,-300.0001 474.2121,-293.0001"/>
</g>
<!-- Node10 -->
<g id="node11" class="node">
<title>Node10</title>
<g id="a_node11"><a xlink:href="structDataOutBase_1_1GnuplotFlags.html" target="_top" xlink:title="DataOutBase::GnuplotFlags">
<polygon fill="#ffffff" stroke="#000000" points="519.6777,-240.5 519.6777,-258.5 660.7461,-258.5 660.7461,-240.5 519.6777,-240.5"/>
<text text-anchor="middle" x="590.2119" y="-246.5" font-family="Helvetica,sans-Serif" font-size="10.00" fill="#000000">DataOutBase::GnuplotFlags</text>
</a>
</g>
</g>
<!-- Node9&#45;&gt;Node10 -->
<g id="edge10" class="edge">
<title>Node9&#45;&gt;Node10</title>
<path fill="none" stroke="#191970" d="M474.4279,-249.5C489.3518,-249.5 504.8878,-249.5 519.5529,-249.5"/>
<polygon fill="#191970" stroke="#191970" points="474.2121,-246.0001 464.2121,-249.5 474.212,-253.0001 474.2121,-246.0001"/>
</g>
<!-- Node12 -->
<g id="node13" class="node">
<title>Node12</title>
<g id="a_node13"><a xlink:href="structDataOutBase_1_1EpsFlags.html" target="_top" xlink:title="DataOutBase::EpsFlags">
<polygon fill="#ffffff" stroke="#000000" points="528.5742,-193.5 528.5742,-211.5 651.8496,-211.5 651.8496,-193.5 528.5742,-193.5"/>
<text text-anchor="middle" x="590.2119" y="-199.5" font-family="Helvetica,sans-Serif" font-size="10.00" fill="#000000">DataOutBase::EpsFlags</text>
</a>
</g>
</g>
<!-- Node11&#45;&gt;Node12 -->
<g id="edge12" class="edge">
<title>Node11&#45;&gt;Node12</title>
<path fill="none" stroke="#191970" d="M474.3741,-202.5C492.3381,-202.5 511.1918,-202.5 528.3479,-202.5"/>
<polygon fill="#191970" stroke="#191970" points="474.2121,-199.0001 464.2121,-202.5 474.212,-206.0001 474.2121,-199.0001"/>
</g>
<!-- Node14 -->
<g id="node15" class="node">
<title>Node14</title>
<g id="a_node15"><a xlink:href="structDataOutBase_1_1SvgFlags.html" target="_top" xlink:title="DataOutBase::SvgFlags">
<polygon fill="#ffffff" stroke="#000000" points="528.5742,-146.5 528.5742,-164.5 651.8496,-164.5 651.8496,-146.5 528.5742,-146.5"/>
<text text-anchor="middle" x="590.2119" y="-152.5" font-family="Helvetica,sans-Serif" font-size="10.00" fill="#000000">DataOutBase::SvgFlags</text>
</a>
</g>
</g>
<!-- Node13&#45;&gt;Node14 -->
<g id="edge14" class="edge">
<title>Node13&#45;&gt;Node14</title>
<path fill="none" stroke="#191970" d="M474.3741,-155.5C492.3381,-155.5 511.1918,-155.5 528.3479,-155.5"/>
<polygon fill="#191970" stroke="#191970" points="474.2121,-152.0001 464.2121,-155.5 474.212,-159.0001 474.2121,-152.0001"/>
</g>
<!-- Node16 -->
<g id="node17" class="node">
<title>Node16</title>
<g id="a_node17"><a xlink:href="structDataOutBase_1_1VtkFlags.html" target="_top" xlink:title="DataOutBase::VtkFlags">
<polygon fill="#ffffff" stroke="#000000" points="529.9658,-99.5 529.9658,-117.5 650.458,-117.5 650.458,-99.5 529.9658,-99.5"/>
<text text-anchor="middle" x="590.2119" y="-105.5" font-family="Helvetica,sans-Serif" font-size="10.00" fill="#000000">DataOutBase::VtkFlags</text>
</a>
</g>
</g>
<!-- Node15&#45;&gt;Node16 -->
<g id="edge16" class="edge">
<title>Node15&#45;&gt;Node16</title>
<path fill="none" stroke="#191970" d="M474.3859,-108.5C492.9063,-108.5 512.3718,-108.5 529.9471,-108.5"/>
<polygon fill="#191970" stroke="#191970" points="474.2121,-105.0001 464.2121,-108.5 474.212,-112.0001 474.2121,-105.0001"/>
</g>
<!-- Node17 -->
<g id="node18" class="node">
<title>Node17</title>
<g id="a_node18"><a xlink:href="structGridOutFlags_1_1Vtk.html" target="_top" xlink:title="GridOutFlags::Vtk">
<polygon fill="#ffffff" stroke="#000000" points="698.0269,-117.5 698.0269,-135.5 793.4946,-135.5 793.4946,-117.5 698.0269,-117.5"/>
<text text-anchor="middle" x="745.7607" y="-123.5" font-family="Helvetica,sans-Serif" font-size="10.00" fill="#000000">GridOutFlags::Vtk</text>
</a>
</g>
</g>
<!-- Node16&#45;&gt;Node17 -->
<g id="edge17" class="edge">
<title>Node16&#45;&gt;Node17</title>
<path fill="none" stroke="#191970" d="M661.0954,-116.7026C673.4544,-118.1328 686.0474,-119.59 697.6127,-120.9283"/>
<polygon fill="#191970" stroke="#191970" points="661.1326,-113.1836 650.7966,-115.5108 660.3279,-120.1372 661.1326,-113.1836"/>
</g>
<!-- Node18 -->
<g id="node19" class="node">
<title>Node18</title>
<g id="a_node19"><a xlink:href="structGridOutFlags_1_1Vtu.html" target="_top" xlink:title="GridOutFlags::Vtu">
<polygon fill="#ffffff" stroke="#000000" points="697.7461,-80.5 697.7461,-98.5 793.7754,-98.5 793.7754,-80.5 697.7461,-80.5"/>
<text text-anchor="middle" x="745.7607" y="-86.5" font-family="Helvetica,sans-Serif" font-size="10.00" fill="#000000">GridOutFlags::Vtu</text>
</a>
</g>
</g>
<!-- Node16&#45;&gt;Node18 -->
<g id="edge18" class="edge">
<title>Node16&#45;&gt;Node18</title>
<path fill="none" stroke="#191970" d="M660.7247,-99.887C673.2025,-98.3629 685.9317,-96.808 697.6127,-95.3812"/>
<polygon fill="#191970" stroke="#191970" points="660.2984,-96.413 650.7966,-101.0997 661.1472,-103.3613 660.2984,-96.413"/>
</g>
<!-- Node20 -->
<g id="node21" class="node">
<title>Node20</title>
<g id="a_node21"><a xlink:href="structDataOutBase_1_1Deal__II__IntermediateFlags.html" target="_top" xlink:title="DataOutBase::Deal_II\l_IntermediateFlags">
<polygon fill="#ffffff" stroke="#000000" points="533.5742,-47.5 533.5742,-75.5 646.8496,-75.5 646.8496,-47.5 533.5742,-47.5"/>
<text text-anchor="start" x="541.5742" y="-63.5" font-family="Helvetica,sans-Serif" font-size="10.00" fill="#000000">DataOutBase::Deal_II</text>
<text text-anchor="middle" x="590.2119" y="-53.5" font-family="Helvetica,sans-Serif" font-size="10.00" fill="#000000">_IntermediateFlags</text>
</a>
</g>
</g>
<!-- Node19&#45;&gt;Node20 -->
<g id="edge20" class="edge">
<title>Node19&#45;&gt;Node20</title>
<path fill="none" stroke="#191970" d="M492.9847,-61.5C506.8678,-61.5 520.7545,-61.5 533.5094,-61.5"/>
<polygon fill="#191970" stroke="#191970" points="492.8926,-58.0001 482.8925,-61.5 492.8925,-65.0001 492.8926,-58.0001"/>
</g>
<!-- Node22 -->
<g id="node23" class="node">
<title>Node22</title>
<g id="a_node23"><a xlink:href="structDataOutBase_1_1GmvFlags.html" target="_top" xlink:title="DataOutBase::GmvFlags">
<polygon fill="#ffffff" stroke="#000000" points="526.6357,-5.5 526.6357,-23.5 653.7881,-23.5 653.7881,-5.5 526.6357,-5.5"/>
<text text-anchor="middle" x="590.2119" y="-11.5" font-family="Helvetica,sans-Serif" font-size="10.00" fill="#000000">DataOutBase::GmvFlags</text>
</a>
</g>
</g>
<!-- Node21&#45;&gt;Node22 -->
<g id="edge22" class="edge">
<title>Node21&#45;&gt;Node22</title>
<path fill="none" stroke="#191970" d="M474.2941,-14.5C491.6103,-14.5 509.757,-14.5 526.4158,-14.5"/>
<polygon fill="#191970" stroke="#191970" points="474.2121,-11.0001 464.2121,-14.5 474.212,-18.0001 474.2121,-11.0001"/>
</g>
</g>
</svg>
