<?xml version="1.0" encoding="UTF-8" standalone="no"?>
<!DOCTYPE svg PUBLIC "-//W3C//DTD SVG 1.1//EN"
 "http://www.w3.org/Graphics/SVG/1.1/DTD/svg11.dtd">
<!-- Generated by graphviz version 2.40.1 (20161225.0304)
 -->
<!-- Title: DataOutBase::TecplotFlags Pages: 1 -->
<svg width="153pt" height="168pt"
 viewBox="0.00 0.00 152.84 168.00" xmlns="http://www.w3.org/2000/svg" xmlns:xlink="http://www.w3.org/1999/xlink">
<g id="graph0" class="graph" transform="scale(1 1) rotate(0) translate(4 164)">
<title>DataOutBase::TecplotFlags</title>
<polygon fill="#ffffff" stroke="transparent" points="-4,4 -4,-164 148.8408,-164 148.8408,4 -4,4"/>
<!-- Node0 -->
<g id="node1" class="node">
<title>Node0</title>
<polygon fill="#bfbfbf" stroke="#000000" points="0,-.5 0,-18.5 137.7285,-18.5 137.7285,-.5 0,-.5"/>
<text text-anchor="middle" x="68.8643" y="-6.5" font-family="Helvetica,sans-Serif" font-size="10.00" fill="#000000">DataOutBase::TecplotFlags</text>
</g>
<!-- Node1 -->
<g id="node2" class="node">
<title>Node1</title>
<g id="a_node2"><a xlink:href="structDataOutBase_1_1OutputFlagsBase.html" target="_top" xlink:title="DataOutBase::OutputFlags\lBase\&lt; TecplotFlags \&gt;">
<polygon fill="#ffffff" stroke="#000000" points=".8325,-56.5 .8325,-84.5 136.896,-84.5 136.896,-56.5 .8325,-56.5"/>
<text text-anchor="start" x="8.8325" y="-72.5" font-family="Helvetica,sans-Serif" font-size="10.00" fill="#000000">DataOutBase::OutputFlags</text>
<text text-anchor="middle" x="68.8643" y="-62.5" font-family="Helvetica,sans-Serif" font-size="10.00" fill="#000000">Base&lt; TecplotFlags &gt;</text>
</a>
</g>
</g>
<!-- Node1&#45;&gt;Node0 -->
<g id="edge1" class="edge">
<title>Node1&#45;&gt;Node0</title>
<path fill="none" stroke="#191970" d="M68.8643,-46.1001C68.8643,-36.5157 68.8643,-26.0935 68.8643,-18.831"/>
<polygon fill="#191970" stroke="#191970" points="65.3644,-46.352 68.8643,-56.3521 72.3644,-46.3521 65.3644,-46.352"/>
</g>
<!-- Node2 -->
<g id="node3" class="node">
<title>Node2</title>
<g id="a_node3"><a xlink:href="structDataOutBase_1_1OutputFlagsBase.html" target="_top" xlink:title="DataOutBase::OutputFlags\lBase\&lt; FlagsType \&gt;">
<polygon fill="#ffffff" stroke="#000000" points=".8325,-131.5 .8325,-159.5 136.896,-159.5 136.896,-131.5 .8325,-131.5"/>
<text text-anchor="start" x="8.8325" y="-147.5" font-family="Helvetica,sans-Serif" font-size="10.00" fill="#000000">DataOutBase::OutputFlags</text>
<text text-anchor="middle" x="68.8643" y="-137.5" font-family="Helvetica,sans-Serif" font-size="10.00" fill="#000000">Base&lt; FlagsType &gt;</text>
</a>
</g>
</g>
<!-- Node2&#45;&gt;Node1 -->
<g id="edge2" class="edge">
<title>Node2&#45;&gt;Node1</title>
<path fill="none" stroke="#ffa500" stroke-dasharray="5,2" d="M68.8643,-121.0415C68.8643,-108.9507 68.8643,-94.7938 68.8643,-84.5437"/>
<polygon fill="#ffa500" stroke="#ffa500" points="65.3644,-121.393 68.8643,-131.3931 72.3644,-121.3931 65.3644,-121.393"/>
<text text-anchor="middle" x="106.8525" y="-105" font-family="Helvetica,sans-Serif" font-size="10.00" fill="#000000"> &lt; TecplotFlags &gt;</text>
</g>
</g>
</svg>
