<?xml version="1.0" encoding="UTF-8" standalone="no"?>
<!DOCTYPE svg PUBLIC "-//W3C//DTD SVG 1.1//EN"
 "http://www.w3.org/Graphics/SVG/1.1/DTD/svg11.dtd">
<!-- Generated by graphviz version 2.40.1 (20161225.0304)
 -->
<!-- Title: TimeStepping::EmbeddedExplicitRungeKutta&lt; VectorType &gt;::Status Pages: 1 -->
<svg width="171pt" height="112pt"
 viewBox="0.00 0.00 170.93 112.00" xmlns="http://www.w3.org/2000/svg" xmlns:xlink="http://www.w3.org/1999/xlink">
<g id="graph0" class="graph" transform="scale(1 1) rotate(0) translate(4 108)">
<title>TimeStepping::EmbeddedExplicitRungeKutta&lt; VectorType &gt;::Status</title>
<polygon fill="#ffffff" stroke="transparent" points="-4,4 -4,-108 166.9336,-108 166.9336,4 -4,4"/>
<!-- Node0 -->
<g id="node1" class="node">
<title>Node0</title>
<polygon fill="#bfbfbf" stroke="#000000" points="0,-.5 0,-38.5 162.9336,-38.5 162.9336,-.5 0,-.5"/>
<text text-anchor="start" x="8" y="-26.5" font-family="Helvetica,sans-Serif" font-size="10.00" fill="#000000">TimeStepping::EmbeddedExplicit</text>
<text text-anchor="start" x="8" y="-16.5" font-family="Helvetica,sans-Serif" font-size="10.00" fill="#000000">RungeKutta&lt; VectorType &gt;</text>
<text text-anchor="middle" x="81.4668" y="-6.5" font-family="Helvetica,sans-Serif" font-size="10.00" fill="#000000">::Status</text>
</g>
<!-- Node1 -->
<g id="node2" class="node">
<title>Node1</title>
<g id="a_node2"><a xlink:href="structTimeStepping_1_1TimeStepping_1_1Status.html" target="_top" xlink:title="TimeStepping::TimeStepping\l\&lt; VectorType \&gt;::Status">
<polygon fill="#ffffff" stroke="#000000" points="9.3555,-75.5 9.3555,-103.5 153.5781,-103.5 153.5781,-75.5 9.3555,-75.5"/>
<text text-anchor="start" x="17.3555" y="-91.5" font-family="Helvetica,sans-Serif" font-size="10.00" fill="#000000">TimeStepping::TimeStepping</text>
<text text-anchor="middle" x="81.4668" y="-81.5" font-family="Helvetica,sans-Serif" font-size="10.00" fill="#000000">&lt; VectorType &gt;::Status</text>
</a>
</g>
</g>
<!-- Node1&#45;&gt;Node0 -->
<g id="edge1" class="edge">
<title>Node1&#45;&gt;Node0</title>
<path fill="none" stroke="#191970" d="M81.4668,-65.0725C81.4668,-56.4275 81.4668,-46.8328 81.4668,-38.6857"/>
<polygon fill="#191970" stroke="#191970" points="77.9669,-65.3344 81.4668,-75.3345 84.9669,-65.3345 77.9669,-65.3344"/>
</g>
</g>
</svg>
