<?xml version="1.0" encoding="UTF-8" standalone="no"?>
<!DOCTYPE svg PUBLIC "-//W3C//DTD SVG 1.1//EN"
 "http://www.w3.org/Graphics/SVG/1.1/DTD/svg11.dtd">
<!-- Generated by graphviz version 2.40.1 (20161225.0304)
 -->
<!-- Title: GridTools::PeriodicFacePair&lt; CellIterator &gt; Pages: 1 -->
<svg width="148pt" height="112pt"
 viewBox="0.00 0.00 147.94 112.00" xmlns="http://www.w3.org/2000/svg" xmlns:xlink="http://www.w3.org/1999/xlink">
<g id="graph0" class="graph" transform="scale(1 1) rotate(0) translate(4 108)">
<title>GridTools::PeriodicFacePair&lt; CellIterator &gt;</title>
<polygon fill="#ffffff" stroke="transparent" points="-4,4 -4,-108 143.9355,-108 143.9355,4 -4,4"/>
<!-- Node0 -->
<g id="node1" class="node">
<title>Node0</title>
<polygon fill="#bfbfbf" stroke="#000000" points="0,-75.5 0,-103.5 139.9355,-103.5 139.9355,-75.5 0,-75.5"/>
<text text-anchor="start" x="8" y="-91.5" font-family="Helvetica,sans-Serif" font-size="10.00" fill="#000000">GridTools::PeriodicFacePair</text>
<text text-anchor="middle" x="69.9678" y="-81.5" font-family="Helvetica,sans-Serif" font-size="10.00" fill="#000000">&lt; CellIterator &gt;</text>
</g>
<!-- Node1 -->
<g id="node2" class="node">
<title>Node1</title>
<g id="a_node2"><a xlink:href="structGridTools_1_1PeriodicFacePair.html" target="_top" xlink:title="GridTools::PeriodicFacePair\l\&lt; TriaIterator \&gt;">
<polygon fill="#ffffff" stroke="#000000" points="0,-.5 0,-28.5 139.9355,-28.5 139.9355,-.5 0,-.5"/>
<text text-anchor="start" x="8" y="-16.5" font-family="Helvetica,sans-Serif" font-size="10.00" fill="#000000">GridTools::PeriodicFacePair</text>
<text text-anchor="middle" x="69.9678" y="-6.5" font-family="Helvetica,sans-Serif" font-size="10.00" fill="#000000">&lt; TriaIterator &gt;</text>
</a>
</g>
</g>
<!-- Node0&#45;&gt;Node1 -->
<g id="edge1" class="edge">
<title>Node0&#45;&gt;Node1</title>
<path fill="none" stroke="#ffa500" stroke-dasharray="5,2" d="M69.9678,-65.0415C69.9678,-52.9507 69.9678,-38.7938 69.9678,-28.5437"/>
<polygon fill="#ffa500" stroke="#ffa500" points="66.4679,-65.393 69.9678,-75.3931 73.4679,-65.3931 66.4679,-65.393"/>
<text text-anchor="middle" x="104.1548" y="-49" font-family="Helvetica,sans-Serif" font-size="10.00" fill="#000000"> &lt; TriaIterator &gt;</text>
</g>
</g>
</svg>
