<?xml version="1.0" encoding="UTF-8" standalone="no"?>
<!DOCTYPE svg PUBLIC "-//W3C//DTD SVG 1.1//EN"
 "http://www.w3.org/Graphics/SVG/1.1/DTD/svg11.dtd">
<!-- Generated by graphviz version 2.40.1 (20161225.0304)
 -->
<!-- Title: internal::p4est::types&lt; int &gt; Pages: 1 -->
<svg width="319pt" height="111pt"
 viewBox="0.00 0.00 319.48 111.00" xmlns="http://www.w3.org/2000/svg" xmlns:xlink="http://www.w3.org/1999/xlink">
<g id="graph0" class="graph" transform="scale(1 1) rotate(0) translate(4 107)">
<title>internal::p4est::types&lt; int &gt;</title>
<polygon fill="#ffffff" stroke="transparent" points="-4,4 -4,-107 315.4766,-107 315.4766,4 -4,4"/>
<!-- Node0 -->
<g id="node1" class="node">
<title>Node0</title>
<polygon fill="#bfbfbf" stroke="#000000" points="0,-42.5 0,-70.5 108.2754,-70.5 108.2754,-42.5 0,-42.5"/>
<text text-anchor="start" x="8" y="-58.5" font-family="Helvetica,sans-Serif" font-size="10.00" fill="#000000">internal::p4est::types</text>
<text text-anchor="middle" x="54.1377" y="-48.5" font-family="Helvetica,sans-Serif" font-size="10.00" fill="#000000">&lt; int &gt;</text>
</g>
<!-- Node1 -->
<g id="node2" class="node">
<title>Node1</title>
<g id="a_node2"><a xlink:href="structinternal_1_1p4est_1_1types.html" target="_top" xlink:title="internal::p4est::types\&lt; 2 \&gt;">
<polygon fill="#ffffff" stroke="#000000" points="180.4033,-84.5 180.4033,-102.5 311.4766,-102.5 311.4766,-84.5 180.4033,-84.5"/>
<text text-anchor="middle" x="245.9399" y="-90.5" font-family="Helvetica,sans-Serif" font-size="10.00" fill="#000000">internal::p4est::types&lt; 2 &gt;</text>
</a>
</g>
</g>
<!-- Node0&#45;&gt;Node1 -->
<g id="edge1" class="edge">
<title>Node0&#45;&gt;Node1</title>
<path fill="none" stroke="#ffa500" stroke-dasharray="5,2" d="M118.5877,-69.014C121.1842,-69.5163 123.7545,-70.0131 126.2754,-70.5 150.1626,-75.1135 176.7367,-80.2234 198.7632,-84.4528"/>
<polygon fill="#ffa500" stroke="#ffa500" points="118.976,-65.5243 108.493,-67.0598 117.6455,-72.3967 118.976,-65.5243"/>
<text text-anchor="middle" x="144.3394" y="-78.5" font-family="Helvetica,sans-Serif" font-size="10.00" fill="#000000"> &lt; 2 &gt;</text>
</g>
<!-- Node2 -->
<g id="node3" class="node">
<title>Node2</title>
<g id="a_node3"><a xlink:href="structinternal_1_1p4est_1_1types.html" target="_top" xlink:title="internal::p4est::types\&lt; 3 \&gt;">
<polygon fill="#ffffff" stroke="#000000" points="180.4033,-47.5 180.4033,-65.5 311.4766,-65.5 311.4766,-47.5 180.4033,-47.5"/>
<text text-anchor="middle" x="245.9399" y="-53.5" font-family="Helvetica,sans-Serif" font-size="10.00" fill="#000000">internal::p4est::types&lt; 3 &gt;</text>
</a>
</g>
</g>
<!-- Node0&#45;&gt;Node2 -->
<g id="edge2" class="edge">
<title>Node0&#45;&gt;Node2</title>
<path fill="none" stroke="#ffa500" stroke-dasharray="5,2" d="M118.5238,-56.5C138.4094,-56.5 160.329,-56.5 180.2983,-56.5"/>
<polygon fill="#ffa500" stroke="#ffa500" points="118.3315,-53.0001 108.3314,-56.5 118.3314,-60.0001 118.3315,-53.0001"/>
<text text-anchor="middle" x="144.3394" y="-58.5" font-family="Helvetica,sans-Serif" font-size="10.00" fill="#000000"> &lt; 3 &gt;</text>
</g>
<!-- Node3 -->
<g id="node4" class="node">
<title>Node3</title>
<g id="a_node4"><a xlink:href="structinternal_1_1p4est_1_1types.html" target="_top" xlink:title="internal::p4est::types\l\&lt; dim \&gt;">
<polygon fill="#ffffff" stroke="#000000" points="191.8022,-.5 191.8022,-28.5 300.0776,-28.5 300.0776,-.5 191.8022,-.5"/>
<text text-anchor="start" x="199.8022" y="-16.5" font-family="Helvetica,sans-Serif" font-size="10.00" fill="#000000">internal::p4est::types</text>
<text text-anchor="middle" x="245.9399" y="-6.5" font-family="Helvetica,sans-Serif" font-size="10.00" fill="#000000">&lt; dim &gt;</text>
</a>
</g>
</g>
<!-- Node0&#45;&gt;Node3 -->
<g id="edge3" class="edge">
<title>Node0&#45;&gt;Node3</title>
<path fill="none" stroke="#ffa500" stroke-dasharray="5,2" d="M118.3126,-42.4473C142.0662,-37.2458 168.7465,-31.4035 191.5477,-26.4106"/>
<polygon fill="#ffa500" stroke="#ffa500" points="117.3513,-39.0748 108.3314,-44.6329 118.8487,-45.9127 117.3513,-39.0748"/>
<text text-anchor="middle" x="144.3394" y="-41.5" font-family="Helvetica,sans-Serif" font-size="10.00" fill="#000000"> &lt; dim &gt;</text>
</g>
</g>
</svg>
