<?xml version="1.0" encoding="UTF-8" standalone="no"?>
<!DOCTYPE svg PUBLIC "-//W3C//DTD SVG 1.1//EN"
 "http://www.w3.org/Graphics/SVG/1.1/DTD/svg11.dtd">
<!-- Generated by graphviz version 2.40.1 (20161225.0304)
 -->
<!-- Title: DataOutBase::Deal_II_IntermediateFlags Pages: 1 -->
<svg width="232pt" height="178pt"
 viewBox="0.00 0.00 231.96 178.00" xmlns="http://www.w3.org/2000/svg" xmlns:xlink="http://www.w3.org/1999/xlink">
<g id="graph0" class="graph" transform="scale(1 1) rotate(0) translate(4 174)">
<title>DataOutBase::Deal_II_IntermediateFlags</title>
<polygon fill="#ffffff" stroke="transparent" points="-4,4 -4,-174 227.957,-174 227.957,4 -4,4"/>
<!-- Node0 -->
<g id="node1" class="node">
<title>Node0</title>
<polygon fill="#bfbfbf" stroke="#000000" points="30.0195,-.5 30.0195,-28.5 143.2949,-28.5 143.2949,-.5 30.0195,-.5"/>
<text text-anchor="start" x="38.0195" y="-16.5" font-family="Helvetica,sans-Serif" font-size="10.00" fill="#000000">DataOutBase::Deal_II</text>
<text text-anchor="middle" x="86.6572" y="-6.5" font-family="Helvetica,sans-Serif" font-size="10.00" fill="#000000">_IntermediateFlags</text>
</g>
<!-- Node1 -->
<g id="node2" class="node">
<title>Node1</title>
<g id="a_node2"><a xlink:href="structDataOutBase_1_1OutputFlagsBase.html" target="_top" xlink:title="DataOutBase::OutputFlags\lBase\&lt; Deal_II_IntermediateFlags \&gt;">
<polygon fill="#ffffff" stroke="#000000" points="0,-66.5 0,-94.5 173.3145,-94.5 173.3145,-66.5 0,-66.5"/>
<text text-anchor="start" x="8" y="-82.5" font-family="Helvetica,sans-Serif" font-size="10.00" fill="#000000">DataOutBase::OutputFlags</text>
<text text-anchor="middle" x="86.6572" y="-72.5" font-family="Helvetica,sans-Serif" font-size="10.00" fill="#000000">Base&lt; Deal_II_IntermediateFlags &gt;</text>
</a>
</g>
</g>
<!-- Node1&#45;&gt;Node0 -->
<g id="edge1" class="edge">
<title>Node1&#45;&gt;Node0</title>
<path fill="none" stroke="#191970" d="M86.6572,-56.0322C86.6572,-46.8606 86.6572,-36.7449 86.6572,-28.7931"/>
<polygon fill="#191970" stroke="#191970" points="83.1573,-56.1789 86.6572,-66.179 90.1573,-56.179 83.1573,-56.1789"/>
</g>
<!-- Node2 -->
<g id="node3" class="node">
<title>Node2</title>
<g id="a_node3"><a xlink:href="structDataOutBase_1_1OutputFlagsBase.html" target="_top" xlink:title="DataOutBase::OutputFlags\lBase\&lt; FlagsType \&gt;">
<polygon fill="#ffffff" stroke="#000000" points="18.6255,-141.5 18.6255,-169.5 154.689,-169.5 154.689,-141.5 18.6255,-141.5"/>
<text text-anchor="start" x="26.6255" y="-157.5" font-family="Helvetica,sans-Serif" font-size="10.00" fill="#000000">DataOutBase::OutputFlags</text>
<text text-anchor="middle" x="86.6572" y="-147.5" font-family="Helvetica,sans-Serif" font-size="10.00" fill="#000000">Base&lt; FlagsType &gt;</text>
</a>
</g>
</g>
<!-- Node2&#45;&gt;Node1 -->
<g id="edge2" class="edge">
<title>Node2&#45;&gt;Node1</title>
<path fill="none" stroke="#ffa500" stroke-dasharray="5,2" d="M86.6572,-131.0415C86.6572,-118.9507 86.6572,-104.7938 86.6572,-94.5437"/>
<polygon fill="#ffa500" stroke="#ffa500" points="83.1573,-131.393 86.6572,-141.3931 90.1573,-131.3931 83.1573,-131.393"/>
<text text-anchor="middle" x="155.3071" y="-115" font-family="Helvetica,sans-Serif" font-size="10.00" fill="#000000"> &lt; Deal_II_IntermediateFlags &gt;</text>
</g>
</g>
</svg>
