<?xml version="1.0" encoding="UTF-8" standalone="no"?>
<!DOCTYPE svg PUBLIC "-//W3C//DTD SVG 1.1//EN"
 "http://www.w3.org/Graphics/SVG/1.1/DTD/svg11.dtd">
<!-- Generated by graphviz version 2.40.1 (20161225.0304)
 -->
<!-- Title: GridOutFlags::EpsFlagsBase Pages: 1 -->
<svg width="407pt" height="82pt"
 viewBox="0.00 0.00 407.05 82.00" xmlns="http://www.w3.org/2000/svg" xmlns:xlink="http://www.w3.org/1999/xlink">
<g id="graph0" class="graph" transform="scale(1 1) rotate(0) translate(4 78)">
<title>GridOutFlags::EpsFlagsBase</title>
<polygon fill="#ffffff" stroke="transparent" points="-4,4 -4,-78 403.0488,-78 403.0488,4 -4,4"/>
<!-- Node0 -->
<g id="node1" class="node">
<title>Node0</title>
<polygon fill="#bfbfbf" stroke="#000000" points="126.7759,-55.5 126.7759,-73.5 272.2729,-73.5 272.2729,-55.5 126.7759,-55.5"/>
<text text-anchor="middle" x="199.5244" y="-61.5" font-family="Helvetica,sans-Serif" font-size="10.00" fill="#000000">GridOutFlags::EpsFlagsBase</text>
</g>
<!-- Node1 -->
<g id="node2" class="node">
<title>Node1</title>
<g id="a_node2"><a xlink:href="structGridOutFlags_1_1Eps_3_011_01_4.html" target="_top" xlink:title="GridOutFlags::Eps\&lt; 1 \&gt;">
<polygon fill="#ffffff" stroke="#000000" points="0,-.5 0,-18.5 121.0488,-18.5 121.0488,-.5 0,-.5"/>
<text text-anchor="middle" x="60.5244" y="-6.5" font-family="Helvetica,sans-Serif" font-size="10.00" fill="#000000">GridOutFlags::Eps&lt; 1 &gt;</text>
</a>
</g>
</g>
<!-- Node0&#45;&gt;Node1 -->
<g id="edge1" class="edge">
<title>Node0&#45;&gt;Node1</title>
<path fill="none" stroke="#191970" d="M167.2572,-51.7324C141.6086,-41.5837 106.3608,-27.6367 83.5115,-18.5956"/>
<polygon fill="#191970" stroke="#191970" points="165.9851,-54.993 176.5714,-55.4179 168.5606,-48.484 165.9851,-54.993"/>
</g>
<!-- Node2 -->
<g id="node3" class="node">
<title>Node2</title>
<g id="a_node3"><a xlink:href="structGridOutFlags_1_1Eps_3_012_01_4.html" target="_top" xlink:title="GridOutFlags::Eps\&lt; 2 \&gt;">
<polygon fill="#ffffff" stroke="#000000" points="139,-.5 139,-18.5 260.0488,-18.5 260.0488,-.5 139,-.5"/>
<text text-anchor="middle" x="199.5244" y="-6.5" font-family="Helvetica,sans-Serif" font-size="10.00" fill="#000000">GridOutFlags::Eps&lt; 2 &gt;</text>
</a>
</g>
</g>
<!-- Node0&#45;&gt;Node2 -->
<g id="edge2" class="edge">
<title>Node0&#45;&gt;Node2</title>
<path fill="none" stroke="#191970" d="M199.5244,-45.383C199.5244,-36.3738 199.5244,-26.0373 199.5244,-18.7795"/>
<polygon fill="#191970" stroke="#191970" points="196.0245,-45.4178 199.5244,-55.4179 203.0245,-45.4179 196.0245,-45.4178"/>
</g>
<!-- Node3 -->
<g id="node4" class="node">
<title>Node3</title>
<g id="a_node4"><a xlink:href="structGridOutFlags_1_1Eps_3_013_01_4.html" target="_top" xlink:title="GridOutFlags::Eps\&lt; 3 \&gt;">
<polygon fill="#ffffff" stroke="#000000" points="278,-.5 278,-18.5 399.0488,-18.5 399.0488,-.5 278,-.5"/>
<text text-anchor="middle" x="338.5244" y="-6.5" font-family="Helvetica,sans-Serif" font-size="10.00" fill="#000000">GridOutFlags::Eps&lt; 3 &gt;</text>
</a>
</g>
</g>
<!-- Node0&#45;&gt;Node3 -->
<g id="edge3" class="edge">
<title>Node0&#45;&gt;Node3</title>
<path fill="none" stroke="#191970" d="M231.7917,-51.7324C257.4403,-41.5837 292.688,-27.6367 315.5373,-18.5956"/>
<polygon fill="#191970" stroke="#191970" points="230.4882,-48.484 222.4774,-55.4179 233.0638,-54.993 230.4882,-48.484"/>
</g>
</g>
</svg>
