<?xml version="1.0" encoding="UTF-8" standalone="no"?>
<!DOCTYPE svg PUBLIC "-//W3C//DTD SVG 1.1//EN"
 "http://www.w3.org/Graphics/SVG/1.1/DTD/svg11.dtd">
<!-- Generated by graphviz version 2.40.1 (20161225.0304)
 -->
<!-- Title: RefinementPossibilities&lt; dim &gt; Pages: 1 -->
<svg width="616pt" height="330pt"
 viewBox="0.00 0.00 616.09 330.00" xmlns="http://www.w3.org/2000/svg" xmlns:xlink="http://www.w3.org/1999/xlink">
<g id="graph0" class="graph" transform="scale(1 1) rotate(0) translate(4 326)">
<title>RefinementPossibilities&lt; dim &gt;</title>
<polygon fill="#ffffff" stroke="transparent" points="-4,4 -4,-326 612.0898,-326 612.0898,4 -4,4"/>
<!-- Node0 -->
<g id="node1" class="node">
<title>Node0</title>
<polygon fill="#bfbfbf" stroke="#000000" points="0,-128.5 0,-156.5 119.3789,-156.5 119.3789,-128.5 0,-128.5"/>
<text text-anchor="start" x="8" y="-144.5" font-family="Helvetica,sans-Serif" font-size="10.00" fill="#000000">RefinementPossibilities</text>
<text text-anchor="middle" x="59.6895" y="-134.5" font-family="Helvetica,sans-Serif" font-size="10.00" fill="#000000">&lt; dim &gt;</text>
</g>
<!-- Node1 -->
<g id="node2" class="node">
<title>Node1</title>
<g id="a_node2"><a xlink:href="classRefinementCase.html" target="_top" xlink:title="RefinementCase\&lt; dim \&gt;">
<polygon fill="#ffffff" stroke="#000000" points="156.3789,-158.5 156.3789,-176.5 280.2109,-176.5 280.2109,-158.5 156.3789,-158.5"/>
<text text-anchor="middle" x="218.2949" y="-164.5" font-family="Helvetica,sans-Serif" font-size="10.00" fill="#000000">RefinementCase&lt; dim &gt;</text>
</a>
</g>
</g>
<!-- Node0&#45;&gt;Node1 -->
<g id="edge1" class="edge">
<title>Node0&#45;&gt;Node1</title>
<path fill="none" stroke="#191970" d="M129.648,-153.5271C140.1715,-155.1859 150.9176,-156.8797 161.131,-158.4896"/>
<polygon fill="#191970" stroke="#191970" points="130.0744,-150.0512 119.6514,-151.9514 128.9844,-156.9658 130.0744,-150.0512"/>
</g>
<!-- Node2 -->
<g id="node3" class="node">
<title>Node2</title>
<g id="a_node3"><a xlink:href="classRefinementCase.html" target="_top" xlink:title="RefinementCase\&lt; TriaObject\l\&lt; 2 \&gt; ::dimension \&gt;">
<polygon fill="#ffffff" stroke="#000000" points="463.4082,-212.5 463.4082,-240.5 608.0898,-240.5 608.0898,-212.5 463.4082,-212.5"/>
<text text-anchor="start" x="471.4082" y="-228.5" font-family="Helvetica,sans-Serif" font-size="10.00" fill="#000000">RefinementCase&lt; TriaObject</text>
<text text-anchor="middle" x="535.749" y="-218.5" font-family="Helvetica,sans-Serif" font-size="10.00" fill="#000000">&lt; 2 &gt; ::dimension &gt;</text>
</a>
</g>
</g>
<!-- Node0&#45;&gt;Node2 -->
<g id="edge10" class="edge">
<title>Node0&#45;&gt;Node2</title>
<path fill="none" stroke="#191970" d="M83.9917,-162.832C125.0032,-195.6665 211.947,-259.0539 298.2109,-282.5 361.3417,-299.6586 382.4891,-300.4192 445.4082,-282.5 473.9814,-274.3624 502.3468,-254.3111 519.4643,-240.5499"/>
<polygon fill="#191970" stroke="#191970" points="86.1571,-160.0818 76.1847,-156.5038 81.7492,-165.5197 86.1571,-160.0818"/>
</g>
<!-- Node3 -->
<g id="node4" class="node">
<title>Node3</title>
<g id="a_node4"><a xlink:href="classRefinementCase.html" target="_top" xlink:title="RefinementCase\&lt; TriaObject\l\&lt; 3 \&gt; ::dimension \&gt;">
<polygon fill="#ffffff" stroke="#000000" points="463.4082,-293.5 463.4082,-321.5 608.0898,-321.5 608.0898,-293.5 463.4082,-293.5"/>
<text text-anchor="start" x="471.4082" y="-309.5" font-family="Helvetica,sans-Serif" font-size="10.00" fill="#000000">RefinementCase&lt; TriaObject</text>
<text text-anchor="middle" x="535.749" y="-299.5" font-family="Helvetica,sans-Serif" font-size="10.00" fill="#000000">&lt; 3 &gt; ::dimension &gt;</text>
</a>
</g>
</g>
<!-- Node0&#45;&gt;Node3 -->
<g id="edge11" class="edge">
<title>Node0&#45;&gt;Node3</title>
<path fill="none" stroke="#191970" d="M72.7364,-165.2732C89.0197,-191.7053 119.2921,-234.815 156.3789,-259.5 248.5338,-320.8383 381.5942,-322.6345 463.1717,-316.4316"/>
<polygon fill="#191970" stroke="#191970" points="75.7221,-163.4464 67.572,-156.6769 69.7217,-167.0513 75.7221,-163.4464"/>
</g>
<!-- Node4 -->
<g id="node5" class="node">
<title>Node4</title>
<g id="a_node5"><a xlink:href="classRefinementCase.html" target="_top" xlink:title="RefinementCase\&lt; G::\ldimension \&gt;">
<polygon fill="#ffffff" stroke="#000000" points="479.5313,-86.5 479.5313,-114.5 591.9668,-114.5 591.9668,-86.5 479.5313,-86.5"/>
<text text-anchor="start" x="487.5313" y="-102.5" font-family="Helvetica,sans-Serif" font-size="10.00" fill="#000000">RefinementCase&lt; G::</text>
<text text-anchor="middle" x="535.749" y="-92.5" font-family="Helvetica,sans-Serif" font-size="10.00" fill="#000000">dimension &gt;</text>
</a>
</g>
</g>
<!-- Node0&#45;&gt;Node4 -->
<g id="edge7" class="edge">
<title>Node0&#45;&gt;Node4</title>
<path fill="none" stroke="#191970" d="M97.4453,-124.0232C143.5317,-102.5902 224.4575,-68.5308 298.2109,-55.5 362.6342,-44.1177 381.7259,-40.5174 445.4082,-55.5 470.6519,-61.4391 496.902,-75.5514 514.5578,-86.4016"/>
<polygon fill="#191970" stroke="#191970" points="95.7142,-120.9696 88.1549,-128.393 98.6936,-127.3039 95.7142,-120.9696"/>
</g>
<!-- Node5 -->
<g id="node6" class="node">
<title>Node5</title>
<g id="a_node6"><a xlink:href="classRefinementCase.html" target="_top" xlink:title="RefinementCase\&lt; internal\l::Triangulation::TriaObject\l\&lt; dim \&gt; ::dimension \&gt;">
<polygon fill="#ffffff" stroke="#000000" points="469.7998,-.5 469.7998,-38.5 601.6982,-38.5 601.6982,-.5 469.7998,-.5"/>
<text text-anchor="start" x="477.7998" y="-26.5" font-family="Helvetica,sans-Serif" font-size="10.00" fill="#000000">RefinementCase&lt; internal</text>
<text text-anchor="start" x="477.7998" y="-16.5" font-family="Helvetica,sans-Serif" font-size="10.00" fill="#000000">::Triangulation::TriaObject</text>
<text text-anchor="middle" x="535.749" y="-6.5" font-family="Helvetica,sans-Serif" font-size="10.00" fill="#000000">&lt; dim &gt; ::dimension &gt;</text>
</a>
</g>
</g>
<!-- Node0&#45;&gt;Node5 -->
<g id="edge9" class="edge">
<title>Node0&#45;&gt;Node5</title>
<path fill="none" stroke="#191970" d="M76.9189,-120.3977C94.4604,-99.6967 123.6676,-69.8597 156.3789,-55.5 258.7571,-10.5577 391.2959,-9.2643 469.5569,-13.5757"/>
<polygon fill="#191970" stroke="#191970" points="74.0094,-118.4251 70.3541,-128.3694 79.4129,-122.875 74.0094,-118.4251"/>
</g>
<!-- Node6 -->
<g id="node7" class="node">
<title>Node6</title>
<g id="a_node7"><a xlink:href="classRefinementCase.html" target="_top" xlink:title="RefinementCase\&lt; internal\l::Triangulation::TriaObject\l\&lt; 1 \&gt; ::dimension \&gt;">
<polygon fill="#ffffff" stroke="#000000" points="469.7998,-148.5 469.7998,-186.5 601.6982,-186.5 601.6982,-148.5 469.7998,-148.5"/>
<text text-anchor="start" x="477.7998" y="-174.5" font-family="Helvetica,sans-Serif" font-size="10.00" fill="#000000">RefinementCase&lt; internal</text>
<text text-anchor="start" x="477.7998" y="-164.5" font-family="Helvetica,sans-Serif" font-size="10.00" fill="#000000">::Triangulation::TriaObject</text>
<text text-anchor="middle" x="535.749" y="-154.5" font-family="Helvetica,sans-Serif" font-size="10.00" fill="#000000">&lt; 1 &gt; ::dimension &gt;</text>
</a>
</g>
</g>
<!-- Node0&#45;&gt;Node6 -->
<g id="edge8" class="edge">
<title>Node0&#45;&gt;Node6</title>
<path fill="none" stroke="#191970" d="M129.589,-127.725C207.6487,-113.8262 337.2403,-98.5591 445.4082,-123.5 466.4875,-128.3604 488.342,-138.8355 505.275,-148.3458"/>
<polygon fill="#191970" stroke="#191970" points="128.6025,-124.3471 119.393,-129.5851 129.8588,-131.2335 128.6025,-124.3471"/>
</g>
<!-- Node1&#45;&gt;Node2 -->
<g id="edge2" class="edge">
<title>Node1&#45;&gt;Node2</title>
<path fill="none" stroke="#ffa500" stroke-dasharray="5,2" d="M254.9203,-179.7192C268.4151,-183.897 283.9004,-188.3146 298.2109,-191.5 353.039,-203.7042 415.9605,-212.7578 463.2645,-218.5962"/>
<polygon fill="#ffa500" stroke="#ffa500" points="255.6311,-176.2733 245.0412,-176.5956 253.5207,-182.9476 255.6311,-176.2733"/>
<text text-anchor="start" x="330.5327" y="-227.5" font-family="Helvetica,sans-Serif" font-size="10.00" fill="#000000"> &lt; TriaObject&lt; 2 &gt; </text>
<text text-anchor="middle" x="371.8096" y="-217.5" font-family="Helvetica,sans-Serif" font-size="10.00" fill="#000000">::dimension &gt;</text>
</g>
<!-- Node1&#45;&gt;Node3 -->
<g id="edge3" class="edge">
<title>Node1&#45;&gt;Node3</title>
<path fill="none" stroke="#ffa500" stroke-dasharray="5,2" d="M233.0062,-184.6663C247.8897,-201.0039 272.3395,-225.1616 298.2109,-239.5 349.7995,-268.0913 414.4972,-285.5863 463.3393,-295.6568"/>
<polygon fill="#ffa500" stroke="#ffa500" points="235.3942,-182.0843 226.1381,-176.9291 230.1591,-186.7313 235.3942,-182.0843"/>
<text text-anchor="start" x="330.5327" y="-302.5" font-family="Helvetica,sans-Serif" font-size="10.00" fill="#000000"> &lt; TriaObject&lt; 3 &gt; </text>
<text text-anchor="middle" x="371.8096" y="-292.5" font-family="Helvetica,sans-Serif" font-size="10.00" fill="#000000">::dimension &gt;</text>
</g>
<!-- Node1&#45;&gt;Node4 -->
<g id="edge4" class="edge">
<title>Node1&#45;&gt;Node4</title>
<path fill="none" stroke="#ffa500" stroke-dasharray="5,2" d="M271.0982,-156.3557C328.6959,-144.1994 420.5261,-124.8183 479.4617,-112.3797"/>
<polygon fill="#ffa500" stroke="#ffa500" points="270.1699,-152.9744 261.1082,-158.4641 271.6154,-159.8235 270.1699,-152.9744"/>
<text text-anchor="middle" x="371.8096" y="-151.5" font-family="Helvetica,sans-Serif" font-size="10.00" fill="#000000"> &lt; G::dimension &gt;</text>
</g>
<!-- Node1&#45;&gt;Node5 -->
<g id="edge5" class="edge">
<title>Node1&#45;&gt;Node5</title>
<path fill="none" stroke="#ffa500" stroke-dasharray="5,2" d="M233.1633,-150.7749C248.1644,-134.8161 272.6997,-111.1043 298.2109,-96.5 352.2,-65.593 420.2998,-45.1412 469.7268,-33.1348"/>
<polygon fill="#ffa500" stroke="#ffa500" points="230.4172,-148.5907 226.233,-158.3243 235.5739,-153.3245 230.4172,-148.5907"/>
<text text-anchor="start" x="298.2109" y="-108.5" font-family="Helvetica,sans-Serif" font-size="10.00" fill="#000000"> &lt; internal::Triangulation</text>
<text text-anchor="middle" x="371.8096" y="-98.5" font-family="Helvetica,sans-Serif" font-size="10.00" fill="#000000">::TriaObject&lt; dim &gt; ::dimension &gt;</text>
</g>
<!-- Node1&#45;&gt;Node6 -->
<g id="edge6" class="edge">
<title>Node1&#45;&gt;Node6</title>
<path fill="none" stroke="#ffa500" stroke-dasharray="5,2" d="M290.4149,-167.5C344.2421,-167.5 417.2212,-167.5 469.5655,-167.5"/>
<polygon fill="#ffa500" stroke="#ffa500" points="290.2569,-164.0001 280.2569,-167.5 290.2568,-171.0001 290.2569,-164.0001"/>
<text text-anchor="start" x="303.4868" y="-179.5" font-family="Helvetica,sans-Serif" font-size="10.00" fill="#000000"> &lt; internal::Triangulation</text>
<text text-anchor="middle" x="371.8096" y="-169.5" font-family="Helvetica,sans-Serif" font-size="10.00" fill="#000000">::TriaObject&lt; 1 &gt; ::dimension &gt;</text>
</g>
</g>
</svg>
