<?xml version="1.0" encoding="UTF-8" standalone="no"?>
<!DOCTYPE svg PUBLIC "-//W3C//DTD SVG 1.1//EN"
 "http://www.w3.org/Graphics/SVG/1.1/DTD/svg11.dtd">
<!-- Generated by graphviz version 2.40.1 (20161225.0304)
 -->
<!-- Title: DataOutBase::VtkFlags Pages: 1 -->
<svg width="218pt" height="224pt"
 viewBox="0.00 0.00 217.75 224.00" xmlns="http://www.w3.org/2000/svg" xmlns:xlink="http://www.w3.org/1999/xlink">
<g id="graph0" class="graph" transform="scale(1 1) rotate(0) translate(4 220)">
<title>DataOutBase::VtkFlags</title>
<polygon fill="#ffffff" stroke="transparent" points="-4,4 -4,-220 213.7485,-220 213.7485,4 -4,4"/>
<!-- Node0 -->
<g id="node1" class="node">
<title>Node0</title>
<polygon fill="#bfbfbf" stroke="#000000" points="44.4878,-56.5 44.4878,-74.5 164.98,-74.5 164.98,-56.5 44.4878,-56.5"/>
<text text-anchor="middle" x="104.7339" y="-62.5" font-family="Helvetica,sans-Serif" font-size="10.00" fill="#000000">DataOutBase::VtkFlags</text>
</g>
<!-- Node3 -->
<g id="node4" class="node">
<title>Node3</title>
<g id="a_node4"><a xlink:href="structGridOutFlags_1_1Vtk.html" target="_top" xlink:title="GridOutFlags::Vtk">
<polygon fill="#ffffff" stroke="#000000" points="0,-.5 0,-18.5 95.4678,-18.5 95.4678,-.5 0,-.5"/>
<text text-anchor="middle" x="47.7339" y="-6.5" font-family="Helvetica,sans-Serif" font-size="10.00" fill="#000000">GridOutFlags::Vtk</text>
</a>
</g>
</g>
<!-- Node0&#45;&gt;Node3 -->
<g id="edge3" class="edge">
<title>Node0&#45;&gt;Node3</title>
<path fill="none" stroke="#191970" d="M88.1469,-49.204C77.9933,-39.2286 65.3796,-26.8361 56.9711,-18.5752"/>
<polygon fill="#191970" stroke="#191970" points="85.7352,-51.7412 95.3215,-56.2527 90.641,-46.7478 85.7352,-51.7412"/>
</g>
<!-- Node4 -->
<g id="node5" class="node">
<title>Node4</title>
<g id="a_node5"><a xlink:href="structGridOutFlags_1_1Vtu.html" target="_top" xlink:title="GridOutFlags::Vtu">
<polygon fill="#ffffff" stroke="#000000" points="113.7192,-.5 113.7192,-18.5 209.7485,-18.5 209.7485,-.5 113.7192,-.5"/>
<text text-anchor="middle" x="161.7339" y="-6.5" font-family="Helvetica,sans-Serif" font-size="10.00" fill="#000000">GridOutFlags::Vtu</text>
</a>
</g>
</g>
<!-- Node0&#45;&gt;Node4 -->
<g id="edge4" class="edge">
<title>Node0&#45;&gt;Node4</title>
<path fill="none" stroke="#191970" d="M121.3209,-49.204C131.4745,-39.2286 144.0882,-26.8361 152.4966,-18.5752"/>
<polygon fill="#191970" stroke="#191970" points="118.8268,-46.7478 114.1463,-56.2527 123.7326,-51.7412 118.8268,-46.7478"/>
</g>
<!-- Node1 -->
<g id="node2" class="node">
<title>Node1</title>
<g id="a_node2"><a xlink:href="structDataOutBase_1_1OutputFlagsBase.html" target="_top" xlink:title="DataOutBase::OutputFlags\lBase\&lt; VtkFlags \&gt;">
<polygon fill="#ffffff" stroke="#000000" points="36.7021,-112.5 36.7021,-140.5 172.7656,-140.5 172.7656,-112.5 36.7021,-112.5"/>
<text text-anchor="start" x="44.7021" y="-128.5" font-family="Helvetica,sans-Serif" font-size="10.00" fill="#000000">DataOutBase::OutputFlags</text>
<text text-anchor="middle" x="104.7339" y="-118.5" font-family="Helvetica,sans-Serif" font-size="10.00" fill="#000000">Base&lt; VtkFlags &gt;</text>
</a>
</g>
</g>
<!-- Node1&#45;&gt;Node0 -->
<g id="edge1" class="edge">
<title>Node1&#45;&gt;Node0</title>
<path fill="none" stroke="#191970" d="M104.7339,-102.1001C104.7339,-92.5157 104.7339,-82.0935 104.7339,-74.831"/>
<polygon fill="#191970" stroke="#191970" points="101.234,-102.352 104.7339,-112.3521 108.234,-102.3521 101.234,-102.352"/>
</g>
<!-- Node2 -->
<g id="node3" class="node">
<title>Node2</title>
<g id="a_node3"><a xlink:href="structDataOutBase_1_1OutputFlagsBase.html" target="_top" xlink:title="DataOutBase::OutputFlags\lBase\&lt; FlagsType \&gt;">
<polygon fill="#ffffff" stroke="#000000" points="36.7021,-187.5 36.7021,-215.5 172.7656,-215.5 172.7656,-187.5 36.7021,-187.5"/>
<text text-anchor="start" x="44.7021" y="-203.5" font-family="Helvetica,sans-Serif" font-size="10.00" fill="#000000">DataOutBase::OutputFlags</text>
<text text-anchor="middle" x="104.7339" y="-193.5" font-family="Helvetica,sans-Serif" font-size="10.00" fill="#000000">Base&lt; FlagsType &gt;</text>
</a>
</g>
</g>
<!-- Node2&#45;&gt;Node1 -->
<g id="edge2" class="edge">
<title>Node2&#45;&gt;Node1</title>
<path fill="none" stroke="#ffa500" stroke-dasharray="5,2" d="M104.7339,-177.0415C104.7339,-164.9507 104.7339,-150.7938 104.7339,-140.5437"/>
<polygon fill="#ffa500" stroke="#ffa500" points="101.234,-177.393 104.7339,-187.3931 108.234,-177.3931 101.234,-177.393"/>
<text text-anchor="middle" x="134.1919" y="-161" font-family="Helvetica,sans-Serif" font-size="10.00" fill="#000000"> &lt; VtkFlags &gt;</text>
</g>
</g>
</svg>
