<?xml version="1.0" encoding="UTF-8" standalone="no"?>
<!DOCTYPE svg PUBLIC "-//W3C//DTD SVG 1.1//EN"
 "http://www.w3.org/Graphics/SVG/1.1/DTD/svg11.dtd">
<!-- Generated by graphviz version 2.40.1 (20161225.0304)
 -->
<!-- Title: CellData&lt; structdim &gt; Pages: 1 -->
<svg width="180pt" height="92pt"
 viewBox="0.00 0.00 180.15 92.00" xmlns="http://www.w3.org/2000/svg" xmlns:xlink="http://www.w3.org/1999/xlink">
<g id="graph0" class="graph" transform="scale(1 1) rotate(0) translate(4 88)">
<title>CellData&lt; structdim &gt;</title>
<polygon fill="#ffffff" stroke="transparent" points="-4,4 -4,-88 176.1475,-88 176.1475,4 -4,4"/>
<!-- Node0 -->
<g id="node1" class="node">
<title>Node0</title>
<polygon fill="#bfbfbf" stroke="#000000" points="29.5,-65.5 29.5,-83.5 141.6475,-83.5 141.6475,-65.5 29.5,-65.5"/>
<text text-anchor="middle" x="85.5737" y="-71.5" font-family="Helvetica,sans-Serif" font-size="10.00" fill="#000000">CellData&lt; structdim &gt;</text>
</g>
<!-- Node1 -->
<g id="node2" class="node">
<title>Node1</title>
<g id="a_node2"><a xlink:href="structCellData.html" target="_top" xlink:title="CellData\&lt; 1 \&gt;">
<polygon fill="#ffffff" stroke="#000000" points="0,-.5 0,-18.5 77.1475,-18.5 77.1475,-.5 0,-.5"/>
<text text-anchor="middle" x="38.5737" y="-6.5" font-family="Helvetica,sans-Serif" font-size="10.00" fill="#000000">CellData&lt; 1 &gt;</text>
</a>
</g>
</g>
<!-- Node0&#45;&gt;Node1 -->
<g id="edge1" class="edge">
<title>Node0&#45;&gt;Node1</title>
<path fill="none" stroke="#ffa500" stroke-dasharray="5,2" d="M73.1467,-57.3137C64.2485,-45.0077 52.6046,-28.9043 45.3577,-18.8821"/>
<polygon fill="#ffa500" stroke="#ffa500" points="70.3429,-59.4093 79.0386,-65.462 76.0153,-55.3077 70.3429,-59.4093"/>
<text text-anchor="middle" x="78.3618" y="-39" font-family="Helvetica,sans-Serif" font-size="10.00" fill="#000000"> &lt; 1 &gt;</text>
</g>
<!-- Node2 -->
<g id="node3" class="node">
<title>Node2</title>
<g id="a_node3"><a xlink:href="structCellData.html" target="_top" xlink:title="CellData\&lt; 2 \&gt;">
<polygon fill="#ffffff" stroke="#000000" points="95,-.5 95,-18.5 172.1475,-18.5 172.1475,-.5 95,-.5"/>
<text text-anchor="middle" x="133.5737" y="-6.5" font-family="Helvetica,sans-Serif" font-size="10.00" fill="#000000">CellData&lt; 2 &gt;</text>
</a>
</g>
</g>
<!-- Node0&#45;&gt;Node2 -->
<g id="edge2" class="edge">
<title>Node0&#45;&gt;Node2</title>
<path fill="none" stroke="#ffa500" stroke-dasharray="5,2" d="M98.2651,-57.3137C107.3527,-45.0077 119.2444,-28.9043 126.6454,-18.8821"/>
<polygon fill="#ffa500" stroke="#ffa500" points="95.3729,-55.3385 92.2479,-65.462 101.0039,-59.4968 95.3729,-55.3385"/>
<text text-anchor="middle" x="124.3618" y="-39" font-family="Helvetica,sans-Serif" font-size="10.00" fill="#000000"> &lt; 2 &gt;</text>
</g>
</g>
</svg>
