<?xml version="1.0" encoding="UTF-8" standalone="no"?>
<!DOCTYPE svg PUBLIC "-//W3C//DTD SVG 1.1//EN"
 "http://www.w3.org/Graphics/SVG/1.1/DTD/svg11.dtd">
<!-- Generated by graphviz version 2.40.1 (20161225.0304)
 -->
<!-- Title: DataPostprocessorInputs::Scalar&lt; spacedim &gt; Pages: 1 -->
<svg width="157pt" height="102pt"
 viewBox="0.00 0.00 157.40 102.00" xmlns="http://www.w3.org/2000/svg" xmlns:xlink="http://www.w3.org/1999/xlink">
<g id="graph0" class="graph" transform="scale(1 1) rotate(0) translate(4 98)">
<title>DataPostprocessorInputs::Scalar&lt; spacedim &gt;</title>
<polygon fill="#ffffff" stroke="transparent" points="-4,4 -4,-98 153.3984,-98 153.3984,4 -4,4"/>
<!-- Node0 -->
<g id="node1" class="node">
<title>Node0</title>
<polygon fill="#bfbfbf" stroke="#000000" points="10.5591,-.5 10.5591,-28.5 138.8394,-28.5 138.8394,-.5 10.5591,-.5"/>
<text text-anchor="start" x="18.5591" y="-16.5" font-family="Helvetica,sans-Serif" font-size="10.00" fill="#000000">DataPostprocessorInputs</text>
<text text-anchor="middle" x="74.6992" y="-6.5" font-family="Helvetica,sans-Serif" font-size="10.00" fill="#000000">::Scalar&lt; spacedim &gt;</text>
</g>
<!-- Node1 -->
<g id="node2" class="node">
<title>Node1</title>
<g id="a_node2"><a xlink:href="structDataPostprocessorInputs_1_1CommonInputs.html" target="_top" xlink:title="DataPostprocessorInputs\l::CommonInputs\&lt; spacedim \&gt;">
<polygon fill="#ffffff" stroke="#000000" points="0,-65.5 0,-93.5 149.3984,-93.5 149.3984,-65.5 0,-65.5"/>
<text text-anchor="start" x="8" y="-81.5" font-family="Helvetica,sans-Serif" font-size="10.00" fill="#000000">DataPostprocessorInputs</text>
<text text-anchor="middle" x="74.6992" y="-71.5" font-family="Helvetica,sans-Serif" font-size="10.00" fill="#000000">::CommonInputs&lt; spacedim &gt;</text>
</a>
</g>
</g>
<!-- Node1&#45;&gt;Node0 -->
<g id="edge1" class="edge">
<title>Node1&#45;&gt;Node0</title>
<path fill="none" stroke="#191970" d="M74.6992,-55.1081C74.6992,-46.1539 74.6992,-36.3227 74.6992,-28.5765"/>
<polygon fill="#191970" stroke="#191970" points="71.1993,-55.3959 74.6992,-65.396 78.1993,-55.396 71.1993,-55.3959"/>
</g>
</g>
</svg>
