<?xml version="1.0" encoding="UTF-8" standalone="no"?>
<!DOCTYPE svg PUBLIC "-//W3C//DTD SVG 1.1//EN"
 "http://www.w3.org/Graphics/SVG/1.1/DTD/svg11.dtd">
<!-- Generated by graphviz version 2.40.1 (20161225.0304)
 -->
<!-- Title: internal::DataOut::ParallelDataBase&lt; dim, spacedim &gt; Pages: 1 -->
<svg width="323pt" height="131pt"
 viewBox="0.00 0.00 322.51 131.00" xmlns="http://www.w3.org/2000/svg" xmlns:xlink="http://www.w3.org/1999/xlink">
<g id="graph0" class="graph" transform="scale(1 1) rotate(0) translate(4 127)">
<title>internal::DataOut::ParallelDataBase&lt; dim, spacedim &gt;</title>
<polygon fill="#ffffff" stroke="transparent" points="-4,4 -4,-127 318.5088,-127 318.5088,4 -4,4"/>
<!-- Node0 -->
<g id="node1" class="node">
<title>Node0</title>
<polygon fill="#bfbfbf" stroke="#000000" points="0,-42.5 0,-80.5 120.7754,-80.5 120.7754,-42.5 0,-42.5"/>
<text text-anchor="start" x="8" y="-68.5" font-family="Helvetica,sans-Serif" font-size="10.00" fill="#000000">internal::DataOut::</text>
<text text-anchor="start" x="8" y="-58.5" font-family="Helvetica,sans-Serif" font-size="10.00" fill="#000000">ParallelDataBase&lt; dim,</text>
<text text-anchor="middle" x="60.3877" y="-48.5" font-family="Helvetica,sans-Serif" font-size="10.00" fill="#000000"> spacedim &gt;</text>
</g>
<!-- Node1 -->
<g id="node2" class="node">
<title>Node1</title>
<g id="a_node2"><a xlink:href="structinternal_1_1DataOut_1_1ParallelData.html" target="_top" xlink:title="internal::DataOut::\lParallelData\&lt; dim, spacedim \&gt;">
<polygon fill="#ffffff" stroke="#000000" points="159.5537,-94.5 159.5537,-122.5 311.7305,-122.5 311.7305,-94.5 159.5537,-94.5"/>
<text text-anchor="start" x="167.5537" y="-110.5" font-family="Helvetica,sans-Serif" font-size="10.00" fill="#000000">internal::DataOut::</text>
<text text-anchor="middle" x="235.6421" y="-100.5" font-family="Helvetica,sans-Serif" font-size="10.00" fill="#000000">ParallelData&lt; dim, spacedim &gt;</text>
</a>
</g>
</g>
<!-- Node0&#45;&gt;Node1 -->
<g id="edge1" class="edge">
<title>Node0&#45;&gt;Node1</title>
<path fill="none" stroke="#191970" d="M131.3157,-80.5216C148.7273,-85.1911 167.0524,-90.1055 183.4021,-94.4902"/>
<polygon fill="#191970" stroke="#191970" points="131.7567,-77.0162 121.1913,-77.8064 129.9434,-83.7773 131.7567,-77.0162"/>
</g>
<!-- Node2 -->
<g id="node3" class="node">
<title>Node2</title>
<g id="a_node3"><a xlink:href="structinternal_1_1DataOutFaces_1_1ParallelData.html" target="_top" xlink:title="internal::DataOutFaces\l::ParallelData\&lt; dim, spacedim \&gt;">
<polygon fill="#ffffff" stroke="#000000" points="156.7754,-47.5 156.7754,-75.5 314.5088,-75.5 314.5088,-47.5 156.7754,-47.5"/>
<text text-anchor="start" x="164.7754" y="-63.5" font-family="Helvetica,sans-Serif" font-size="10.00" fill="#000000">internal::DataOutFaces</text>
<text text-anchor="middle" x="235.6421" y="-53.5" font-family="Helvetica,sans-Serif" font-size="10.00" fill="#000000">::ParallelData&lt; dim, spacedim &gt;</text>
</a>
</g>
</g>
<!-- Node0&#45;&gt;Node2 -->
<g id="edge2" class="edge">
<title>Node0&#45;&gt;Node2</title>
<path fill="none" stroke="#191970" d="M131.2847,-61.5C139.6634,-61.5 148.254,-61.5 156.7345,-61.5"/>
<polygon fill="#191970" stroke="#191970" points="131.1914,-58.0001 121.1913,-61.5 131.1913,-65.0001 131.1914,-58.0001"/>
</g>
<!-- Node3 -->
<g id="node4" class="node">
<title>Node3</title>
<g id="a_node4"><a xlink:href="structinternal_1_1DataOutRotation_1_1ParallelData.html" target="_top" xlink:title="internal::DataOutRotation\l::ParallelData\&lt; dim, spacedim \&gt;">
<polygon fill="#ffffff" stroke="#000000" points="156.7754,-.5 156.7754,-28.5 314.5088,-28.5 314.5088,-.5 156.7754,-.5"/>
<text text-anchor="start" x="164.7754" y="-16.5" font-family="Helvetica,sans-Serif" font-size="10.00" fill="#000000">internal::DataOutRotation</text>
<text text-anchor="middle" x="235.6421" y="-6.5" font-family="Helvetica,sans-Serif" font-size="10.00" fill="#000000">::ParallelData&lt; dim, spacedim &gt;</text>
</a>
</g>
</g>
<!-- Node0&#45;&gt;Node3 -->
<g id="edge3" class="edge">
<title>Node0&#45;&gt;Node3</title>
<path fill="none" stroke="#191970" d="M131.3157,-42.4784C148.7273,-37.8089 167.0524,-32.8945 183.4021,-28.5098"/>
<polygon fill="#191970" stroke="#191970" points="129.9434,-39.2227 121.1913,-45.1936 131.7567,-45.9838 129.9434,-39.2227"/>
</g>
</g>
</svg>
