<?xml version="1.0" encoding="UTF-8" standalone="no"?>
<!DOCTYPE svg PUBLIC "-//W3C//DTD SVG 1.1//EN"
 "http://www.w3.org/Graphics/SVG/1.1/DTD/svg11.dtd">
<!-- Generated by graphviz version 2.40.1 (20161225.0304)
 -->
<!-- Title: DataOutBase::SvgFlags Pages: 1 -->
<svg width="144pt" height="168pt"
 viewBox="0.00 0.00 144.06 168.00" xmlns="http://www.w3.org/2000/svg" xmlns:xlink="http://www.w3.org/1999/xlink">
<g id="graph0" class="graph" transform="scale(1 1) rotate(0) translate(4 164)">
<title>DataOutBase::SvgFlags</title>
<polygon fill="#ffffff" stroke="transparent" points="-4,4 -4,-164 140.0635,-164 140.0635,4 -4,4"/>
<!-- Node0 -->
<g id="node1" class="node">
<title>Node0</title>
<polygon fill="#bfbfbf" stroke="#000000" points="6.394,-.5 6.394,-18.5 129.6694,-18.5 129.6694,-.5 6.394,-.5"/>
<text text-anchor="middle" x="68.0317" y="-6.5" font-family="Helvetica,sans-Serif" font-size="10.00" fill="#000000">DataOutBase::SvgFlags</text>
</g>
<!-- Node1 -->
<g id="node2" class="node">
<title>Node1</title>
<g id="a_node2"><a xlink:href="structDataOutBase_1_1OutputFlagsBase.html" target="_top" xlink:title="DataOutBase::OutputFlags\lBase\&lt; SvgFlags \&gt;">
<polygon fill="#ffffff" stroke="#000000" points="0,-56.5 0,-84.5 136.0635,-84.5 136.0635,-56.5 0,-56.5"/>
<text text-anchor="start" x="8" y="-72.5" font-family="Helvetica,sans-Serif" font-size="10.00" fill="#000000">DataOutBase::OutputFlags</text>
<text text-anchor="middle" x="68.0317" y="-62.5" font-family="Helvetica,sans-Serif" font-size="10.00" fill="#000000">Base&lt; SvgFlags &gt;</text>
</a>
</g>
</g>
<!-- Node1&#45;&gt;Node0 -->
<g id="edge1" class="edge">
<title>Node1&#45;&gt;Node0</title>
<path fill="none" stroke="#191970" d="M68.0317,-46.1001C68.0317,-36.5157 68.0317,-26.0935 68.0317,-18.831"/>
<polygon fill="#191970" stroke="#191970" points="64.5318,-46.352 68.0317,-56.3521 71.5318,-46.3521 64.5318,-46.352"/>
</g>
<!-- Node2 -->
<g id="node3" class="node">
<title>Node2</title>
<g id="a_node3"><a xlink:href="structDataOutBase_1_1OutputFlagsBase.html" target="_top" xlink:title="DataOutBase::OutputFlags\lBase\&lt; FlagsType \&gt;">
<polygon fill="#ffffff" stroke="#000000" points="0,-131.5 0,-159.5 136.0635,-159.5 136.0635,-131.5 0,-131.5"/>
<text text-anchor="start" x="8" y="-147.5" font-family="Helvetica,sans-Serif" font-size="10.00" fill="#000000">DataOutBase::OutputFlags</text>
<text text-anchor="middle" x="68.0317" y="-137.5" font-family="Helvetica,sans-Serif" font-size="10.00" fill="#000000">Base&lt; FlagsType &gt;</text>
</a>
</g>
</g>
<!-- Node2&#45;&gt;Node1 -->
<g id="edge2" class="edge">
<title>Node2&#45;&gt;Node1</title>
<path fill="none" stroke="#ffa500" stroke-dasharray="5,2" d="M68.0317,-121.0415C68.0317,-108.9507 68.0317,-94.7938 68.0317,-84.5437"/>
<polygon fill="#ffa500" stroke="#ffa500" points="64.5318,-121.393 68.0317,-131.3931 71.5318,-121.3931 64.5318,-121.393"/>
<text text-anchor="middle" x="98.8813" y="-105" font-family="Helvetica,sans-Serif" font-size="10.00" fill="#000000"> &lt; SvgFlags &gt;</text>
</g>
</g>
</svg>
