<?xml version="1.0" encoding="UTF-8" standalone="no"?>
<!DOCTYPE svg PUBLIC "-//W3C//DTD SVG 1.1//EN"
 "http://www.w3.org/Graphics/SVG/1.1/DTD/svg11.dtd">
<!-- Generated by graphviz version 2.40.1 (20161225.0304)
 -->
<!-- Title: DataOutBase::PovrayFlags Pages: 1 -->
<svg width="152pt" height="168pt"
 viewBox="0.00 0.00 152.17 168.00" xmlns="http://www.w3.org/2000/svg" xmlns:xlink="http://www.w3.org/1999/xlink">
<g id="graph0" class="graph" transform="scale(1 1) rotate(0) translate(4 164)">
<title>DataOutBase::PovrayFlags</title>
<polygon fill="#ffffff" stroke="transparent" points="-4,4 -4,-164 148.1743,-164 148.1743,4 -4,4"/>
<!-- Node0 -->
<g id="node1" class="node">
<title>Node0</title>
<polygon fill="#bfbfbf" stroke="#000000" points="0,-.5 0,-18.5 137.167,-18.5 137.167,-.5 0,-.5"/>
<text text-anchor="middle" x="68.5835" y="-6.5" font-family="Helvetica,sans-Serif" font-size="10.00" fill="#000000">DataOutBase::PovrayFlags</text>
</g>
<!-- Node1 -->
<g id="node2" class="node">
<title>Node1</title>
<g id="a_node2"><a xlink:href="structDataOutBase_1_1OutputFlagsBase.html" target="_top" xlink:title="DataOutBase::OutputFlags\lBase\&lt; PovrayFlags \&gt;">
<polygon fill="#ffffff" stroke="#000000" points=".5518,-56.5 .5518,-84.5 136.6152,-84.5 136.6152,-56.5 .5518,-56.5"/>
<text text-anchor="start" x="8.5518" y="-72.5" font-family="Helvetica,sans-Serif" font-size="10.00" fill="#000000">DataOutBase::OutputFlags</text>
<text text-anchor="middle" x="68.5835" y="-62.5" font-family="Helvetica,sans-Serif" font-size="10.00" fill="#000000">Base&lt; PovrayFlags &gt;</text>
</a>
</g>
</g>
<!-- Node1&#45;&gt;Node0 -->
<g id="edge1" class="edge">
<title>Node1&#45;&gt;Node0</title>
<path fill="none" stroke="#191970" d="M68.5835,-46.1001C68.5835,-36.5157 68.5835,-26.0935 68.5835,-18.831"/>
<polygon fill="#191970" stroke="#191970" points="65.0836,-46.352 68.5835,-56.3521 72.0836,-46.3521 65.0836,-46.352"/>
</g>
<!-- Node2 -->
<g id="node3" class="node">
<title>Node2</title>
<g id="a_node3"><a xlink:href="structDataOutBase_1_1OutputFlagsBase.html" target="_top" xlink:title="DataOutBase::OutputFlags\lBase\&lt; FlagsType \&gt;">
<polygon fill="#ffffff" stroke="#000000" points=".5518,-131.5 .5518,-159.5 136.6152,-159.5 136.6152,-131.5 .5518,-131.5"/>
<text text-anchor="start" x="8.5518" y="-147.5" font-family="Helvetica,sans-Serif" font-size="10.00" fill="#000000">DataOutBase::OutputFlags</text>
<text text-anchor="middle" x="68.5835" y="-137.5" font-family="Helvetica,sans-Serif" font-size="10.00" fill="#000000">Base&lt; FlagsType &gt;</text>
</a>
</g>
</g>
<!-- Node2&#45;&gt;Node1 -->
<g id="edge2" class="edge">
<title>Node2&#45;&gt;Node1</title>
<path fill="none" stroke="#ffa500" stroke-dasharray="5,2" d="M68.5835,-121.0415C68.5835,-108.9507 68.5835,-94.7938 68.5835,-84.5437"/>
<polygon fill="#ffa500" stroke="#ffa500" points="65.0836,-121.393 68.5835,-131.3931 72.0836,-121.3931 65.0836,-121.393"/>
<text text-anchor="middle" x="106.3789" y="-105" font-family="Helvetica,sans-Serif" font-size="10.00" fill="#000000"> &lt; PovrayFlags &gt;</text>
</g>
</g>
</svg>
