<?xml version="1.0" encoding="UTF-8" standalone="no"?>
<!DOCTYPE svg PUBLIC "-//W3C//DTD SVG 1.1//EN"
 "http://www.w3.org/Graphics/SVG/1.1/DTD/svg11.dtd">
<!-- Generated by graphviz version 2.40.1 (20161225.0304)
 -->
<!-- Title: DataOutBase::Patch&lt; dim, spacedim &gt; Pages: 1 -->
<svg width="142pt" height="112pt"
 viewBox="0.00 0.00 142.18 112.00" xmlns="http://www.w3.org/2000/svg" xmlns:xlink="http://www.w3.org/1999/xlink">
<g id="graph0" class="graph" transform="scale(1 1) rotate(0) translate(4 108)">
<title>DataOutBase::Patch&lt; dim, spacedim &gt;</title>
<polygon fill="#ffffff" stroke="transparent" points="-4,4 -4,-108 138.1816,-108 138.1816,4 -4,4"/>
<!-- Node0 -->
<g id="node1" class="node">
<title>Node0</title>
<polygon fill="#bfbfbf" stroke="#000000" points="0,-75.5 0,-103.5 107.1621,-103.5 107.1621,-75.5 0,-75.5"/>
<text text-anchor="start" x="8" y="-91.5" font-family="Helvetica,sans-Serif" font-size="10.00" fill="#000000">DataOutBase::Patch</text>
<text text-anchor="middle" x="53.5811" y="-81.5" font-family="Helvetica,sans-Serif" font-size="10.00" fill="#000000">&lt; dim, spacedim &gt;</text>
</g>
<!-- Node1 -->
<g id="node2" class="node">
<title>Node1</title>
<g id="a_node2"><a xlink:href="structDataOutBase_1_1Patch.html" target="_top" xlink:title="DataOutBase::Patch\l\&lt; dim+1, dim+1 \&gt;">
<polygon fill="#ffffff" stroke="#000000" points="0,-.5 0,-28.5 107.1621,-28.5 107.1621,-.5 0,-.5"/>
<text text-anchor="start" x="8" y="-16.5" font-family="Helvetica,sans-Serif" font-size="10.00" fill="#000000">DataOutBase::Patch</text>
<text text-anchor="middle" x="53.5811" y="-6.5" font-family="Helvetica,sans-Serif" font-size="10.00" fill="#000000">&lt; dim+1, dim+1 &gt;</text>
</a>
</g>
</g>
<!-- Node0&#45;&gt;Node1 -->
<g id="edge1" class="edge">
<title>Node0&#45;&gt;Node1</title>
<path fill="none" stroke="#ffa500" stroke-dasharray="5,2" d="M53.5811,-65.0415C53.5811,-52.9507 53.5811,-38.7938 53.5811,-28.5437"/>
<polygon fill="#ffa500" stroke="#ffa500" points="50.0812,-65.393 53.5811,-75.3931 57.0812,-65.3931 50.0812,-65.393"/>
<text text-anchor="middle" x="93.8813" y="-49" font-family="Helvetica,sans-Serif" font-size="10.00" fill="#000000"> &lt; dim+1, dim+1 &gt;</text>
</g>
</g>
</svg>
