<?xml version="1.0" encoding="UTF-8" standalone="no"?>
<!DOCTYPE svg PUBLIC "-//W3C//DTD SVG 1.1//EN"
 "http://www.w3.org/Graphics/SVG/1.1/DTD/svg11.dtd">
<!-- Generated by graphviz version 2.40.1 (20161225.0304)
 -->
<!-- Title: parallel::ParallelForInteger Pages: 1 -->
<svg width="341pt" height="74pt"
 viewBox="0.00 0.00 340.79 74.00" xmlns="http://www.w3.org/2000/svg" xmlns:xlink="http://www.w3.org/1999/xlink">
<g id="graph0" class="graph" transform="scale(1 1) rotate(0) translate(4 70)">
<title>parallel::ParallelForInteger</title>
<polygon fill="#ffffff" stroke="transparent" points="-4,4 -4,-70 336.7949,-70 336.7949,4 -4,4"/>
<!-- Node0 -->
<g id="node1" class="node">
<title>Node0</title>
<polygon fill="#bfbfbf" stroke="#000000" points="0,-26.5 0,-44.5 133.2803,-44.5 133.2803,-26.5 0,-26.5"/>
<text text-anchor="middle" x="66.6401" y="-32.5" font-family="Helvetica,sans-Serif" font-size="10.00" fill="#000000">parallel::ParallelForInteger</text>
</g>
<!-- Node1 -->
<g id="node2" class="node">
<title>Node1</title>
<g id="a_node2"><a xlink:href="classinternal_1_1AlignedVectorMove.html" target="_top" xlink:title="internal::AlignedVectorMove\&lt; T \&gt;">
<polygon fill="#ffffff" stroke="#000000" points="169.2803,-47.5 169.2803,-65.5 332.7949,-65.5 332.7949,-47.5 169.2803,-47.5"/>
<text text-anchor="middle" x="251.0376" y="-53.5" font-family="Helvetica,sans-Serif" font-size="10.00" fill="#000000">internal::AlignedVectorMove&lt; T &gt;</text>
</a>
</g>
</g>
<!-- Node0&#45;&gt;Node1 -->
<g id="edge1" class="edge">
<title>Node0&#45;&gt;Node1</title>
<path fill="none" stroke="#8b1a1a" d="M143.5338,-44.257C152.9019,-45.3239 162.4868,-46.4154 171.8871,-47.486"/>
<polygon fill="#8b1a1a" stroke="#8b1a1a" points="143.8044,-40.7653 133.4726,-43.1112 143.0123,-47.7203 143.8044,-40.7653"/>
</g>
<!-- Node2 -->
<g id="node3" class="node">
<title>Node2</title>
<g id="a_node3"><a xlink:href="classinternal_1_1AlignedVectorSet.html" target="_top" xlink:title="internal::AlignedVectorSet\l\&lt; T, initialize_memory \&gt;">
<polygon fill="#ffffff" stroke="#000000" points="185.4985,-.5 185.4985,-28.5 316.5767,-28.5 316.5767,-.5 185.4985,-.5"/>
<text text-anchor="start" x="193.4985" y="-16.5" font-family="Helvetica,sans-Serif" font-size="10.00" fill="#000000">internal::AlignedVectorSet</text>
<text text-anchor="middle" x="251.0376" y="-6.5" font-family="Helvetica,sans-Serif" font-size="10.00" fill="#000000">&lt; T, initialize_memory &gt;</text>
</a>
</g>
</g>
<!-- Node0&#45;&gt;Node2 -->
<g id="edge2" class="edge">
<title>Node0&#45;&gt;Node2</title>
<path fill="none" stroke="#8b1a1a" d="M143.4992,-26.7469C157.4113,-25.1626 171.8029,-23.5236 185.3585,-21.9798"/>
<polygon fill="#8b1a1a" stroke="#8b1a1a" points="143.0123,-23.2797 133.4726,-27.8888 143.8044,-30.2347 143.0123,-23.2797"/>
</g>
</g>
</svg>
