<?xml version="1.0" encoding="UTF-8" standalone="no"?>
<!DOCTYPE svg PUBLIC "-//W3C//DTD SVG 1.1//EN"
 "http://www.w3.org/Graphics/SVG/1.1/DTD/svg11.dtd">
<!-- Generated by graphviz version 2.40.1 (20161225.0304)
 -->
<!-- Title: DataPostprocessorInputs::CommonInputs&lt; spacedim &gt; Pages: 1 -->
<svg width="537pt" height="121pt"
 viewBox="0.00 0.00 537.00 121.00" xmlns="http://www.w3.org/2000/svg" xmlns:xlink="http://www.w3.org/1999/xlink">
<g id="graph0" class="graph" transform="scale(1 1) rotate(0) translate(4 117)">
<title>DataPostprocessorInputs::CommonInputs&lt; spacedim &gt;</title>
<polygon fill="#ffffff" stroke="transparent" points="-4,4 -4,-117 533.0029,-117 533.0029,4 -4,4"/>
<!-- Node0 -->
<g id="node1" class="node">
<title>Node0</title>
<polygon fill="#bfbfbf" stroke="#000000" points="0,-37.5 0,-65.5 149.3984,-65.5 149.3984,-37.5 0,-37.5"/>
<text text-anchor="start" x="8" y="-53.5" font-family="Helvetica,sans-Serif" font-size="10.00" fill="#000000">DataPostprocessorInputs</text>
<text text-anchor="middle" x="74.6992" y="-43.5" font-family="Helvetica,sans-Serif" font-size="10.00" fill="#000000">::CommonInputs&lt; spacedim &gt;</text>
</g>
<!-- Node1 -->
<g id="node2" class="node">
<title>Node1</title>
<g id="a_node2"><a xlink:href="structDataPostprocessorInputs_1_1Scalar.html" target="_top" xlink:title="DataPostprocessorInputs\l::Scalar\&lt; spacedim \&gt;">
<polygon fill="#ffffff" stroke="#000000" points="186.3984,-84.5 186.3984,-112.5 314.6787,-112.5 314.6787,-84.5 186.3984,-84.5"/>
<text text-anchor="start" x="194.3984" y="-100.5" font-family="Helvetica,sans-Serif" font-size="10.00" fill="#000000">DataPostprocessorInputs</text>
<text text-anchor="middle" x="250.5386" y="-90.5" font-family="Helvetica,sans-Serif" font-size="10.00" fill="#000000">::Scalar&lt; spacedim &gt;</text>
</a>
</g>
</g>
<!-- Node0&#45;&gt;Node1 -->
<g id="edge1" class="edge">
<title>Node0&#45;&gt;Node1</title>
<path fill="none" stroke="#191970" d="M137.3561,-68.2475C157.2491,-73.5647 179.0277,-79.3859 198.1214,-84.4894"/>
<polygon fill="#191970" stroke="#191970" points="138.0215,-64.8026 127.4568,-65.6015 136.2139,-71.5652 138.0215,-64.8026"/>
</g>
<!-- Node2 -->
<g id="node3" class="node">
<title>Node2</title>
<g id="a_node3"><a xlink:href="structDataPostprocessorInputs_1_1Vector.html" target="_top" xlink:title="DataPostprocessorInputs\l::Vector\&lt; spacedim \&gt;">
<polygon fill="#ffffff" stroke="#000000" points="186.3984,-37.5 186.3984,-65.5 314.6787,-65.5 314.6787,-37.5 186.3984,-37.5"/>
<text text-anchor="start" x="194.3984" y="-53.5" font-family="Helvetica,sans-Serif" font-size="10.00" fill="#000000">DataPostprocessorInputs</text>
<text text-anchor="middle" x="250.5386" y="-43.5" font-family="Helvetica,sans-Serif" font-size="10.00" fill="#000000">::Vector&lt; spacedim &gt;</text>
</a>
</g>
</g>
<!-- Node0&#45;&gt;Node2 -->
<g id="edge2" class="edge">
<title>Node0&#45;&gt;Node2</title>
<path fill="none" stroke="#191970" d="M159.6285,-51.5C168.6099,-51.5 177.633,-51.5 186.3223,-51.5"/>
<polygon fill="#191970" stroke="#191970" points="159.5259,-48.0001 149.5259,-51.5 159.5259,-55.0001 159.5259,-48.0001"/>
</g>
<!-- Node4 -->
<g id="node5" class="node">
<title>Node4</title>
<g id="a_node5"><a xlink:href="structDataPostprocessorInputs_1_1Vector.html" target="_top" xlink:title="Vector\&lt; double \&gt;">
<polygon fill="#ffffff" stroke="#000000" points="204.7285,-.5 204.7285,-18.5 296.3486,-18.5 296.3486,-.5 204.7285,-.5"/>
<text text-anchor="middle" x="250.5386" y="-6.5" font-family="Helvetica,sans-Serif" font-size="10.00" fill="#000000">Vector&lt; double &gt;</text>
</a>
</g>
</g>
<!-- Node0&#45;&gt;Node4 -->
<g id="edge4" class="edge">
<title>Node0&#45;&gt;Node4</title>
<path fill="none" stroke="#191970" d="M143.663,-35.0277C167.1346,-29.4214 192.4987,-23.3631 212.625,-18.5558"/>
<polygon fill="#191970" stroke="#191970" points="142.6536,-31.6703 133.7403,-37.3978 144.2799,-38.4787 142.6536,-31.6703"/>
</g>
<!-- Node3 -->
<g id="node4" class="node">
<title>Node3</title>
<g id="a_node4"><a xlink:href="structDataPostprocessorInputs_1_1Vector.html" target="_top" xlink:title="DataPostprocessorInputs\l::Vector\&lt; double \&gt;">
<polygon fill="#ffffff" stroke="#000000" points="400.7227,-37.5 400.7227,-65.5 529.0029,-65.5 529.0029,-37.5 400.7227,-37.5"/>
<text text-anchor="start" x="408.7227" y="-53.5" font-family="Helvetica,sans-Serif" font-size="10.00" fill="#000000">DataPostprocessorInputs</text>
<text text-anchor="middle" x="464.8628" y="-43.5" font-family="Helvetica,sans-Serif" font-size="10.00" fill="#000000">::Vector&lt; double &gt;</text>
</a>
</g>
</g>
<!-- Node2&#45;&gt;Node3 -->
<g id="edge3" class="edge">
<title>Node2&#45;&gt;Node3</title>
<path fill="none" stroke="#ffa500" stroke-dasharray="5,2" d="M324.8748,-51.5C349.537,-51.5 376.7666,-51.5 400.6038,-51.5"/>
<polygon fill="#ffa500" stroke="#ffa500" points="324.8429,-48.0001 314.8429,-51.5 324.8429,-55.0001 324.8429,-48.0001"/>
<text text-anchor="middle" x="357.7007" y="-53.5" font-family="Helvetica,sans-Serif" font-size="10.00" fill="#000000"> &lt; double &gt;</text>
</g>
</g>
</svg>
