<?xml version="1.0" encoding="UTF-8" standalone="no"?>
<!DOCTYPE svg PUBLIC "-//W3C//DTD SVG 1.1//EN"
 "http://www.w3.org/Graphics/SVG/1.1/DTD/svg11.dtd">
<!-- Generated by graphviz version 2.40.1 (20161225.0304)
 -->
<!-- Title: DataOutBase::GnuplotFlags Pages: 1 -->
<svg width="158pt" height="168pt"
 viewBox="0.00 0.00 158.03 168.00" xmlns="http://www.w3.org/2000/svg" xmlns:xlink="http://www.w3.org/1999/xlink">
<g id="graph0" class="graph" transform="scale(1 1) rotate(0) translate(4 164)">
<title>DataOutBase::GnuplotFlags</title>
<polygon fill="#ffffff" stroke="transparent" points="-4,4 -4,-164 154.0264,-164 154.0264,4 -4,4"/>
<!-- Node0 -->
<g id="node1" class="node">
<title>Node0</title>
<polygon fill="#bfbfbf" stroke="#000000" points="0,-.5 0,-18.5 141.0684,-18.5 141.0684,-.5 0,-.5"/>
<text text-anchor="middle" x="70.5342" y="-6.5" font-family="Helvetica,sans-Serif" font-size="10.00" fill="#000000">DataOutBase::GnuplotFlags</text>
</g>
<!-- Node1 -->
<g id="node2" class="node">
<title>Node1</title>
<g id="a_node2"><a xlink:href="structDataOutBase_1_1OutputFlagsBase.html" target="_top" xlink:title="DataOutBase::OutputFlags\lBase\&lt; GnuplotFlags \&gt;">
<polygon fill="#ffffff" stroke="#000000" points="2.5024,-56.5 2.5024,-84.5 138.5659,-84.5 138.5659,-56.5 2.5024,-56.5"/>
<text text-anchor="start" x="10.5024" y="-72.5" font-family="Helvetica,sans-Serif" font-size="10.00" fill="#000000">DataOutBase::OutputFlags</text>
<text text-anchor="middle" x="70.5342" y="-62.5" font-family="Helvetica,sans-Serif" font-size="10.00" fill="#000000">Base&lt; GnuplotFlags &gt;</text>
</a>
</g>
</g>
<!-- Node1&#45;&gt;Node0 -->
<g id="edge1" class="edge">
<title>Node1&#45;&gt;Node0</title>
<path fill="none" stroke="#191970" d="M70.5342,-46.1001C70.5342,-36.5157 70.5342,-26.0935 70.5342,-18.831"/>
<polygon fill="#191970" stroke="#191970" points="67.0343,-46.352 70.5342,-56.3521 74.0343,-46.3521 67.0343,-46.352"/>
</g>
<!-- Node2 -->
<g id="node3" class="node">
<title>Node2</title>
<g id="a_node3"><a xlink:href="structDataOutBase_1_1OutputFlagsBase.html" target="_top" xlink:title="DataOutBase::OutputFlags\lBase\&lt; FlagsType \&gt;">
<polygon fill="#ffffff" stroke="#000000" points="2.5024,-131.5 2.5024,-159.5 138.5659,-159.5 138.5659,-131.5 2.5024,-131.5"/>
<text text-anchor="start" x="10.5024" y="-147.5" font-family="Helvetica,sans-Serif" font-size="10.00" fill="#000000">DataOutBase::OutputFlags</text>
<text text-anchor="middle" x="70.5342" y="-137.5" font-family="Helvetica,sans-Serif" font-size="10.00" fill="#000000">Base&lt; FlagsType &gt;</text>
</a>
</g>
</g>
<!-- Node2&#45;&gt;Node1 -->
<g id="edge2" class="edge">
<title>Node2&#45;&gt;Node1</title>
<path fill="none" stroke="#ffa500" stroke-dasharray="5,2" d="M70.5342,-121.0415C70.5342,-108.9507 70.5342,-94.7938 70.5342,-84.5437"/>
<polygon fill="#ffa500" stroke="#ffa500" points="67.0343,-121.393 70.5342,-131.3931 74.0343,-121.3931 67.0343,-121.393"/>
<text text-anchor="middle" x="110.2803" y="-105" font-family="Helvetica,sans-Serif" font-size="10.00" fill="#000000"> &lt; GnuplotFlags &gt;</text>
</g>
</g>
</svg>
