<?xml version="1.0" encoding="UTF-8" standalone="no"?>
<!DOCTYPE svg PUBLIC "-//W3C//DTD SVG 1.1//EN"
 "http://www.w3.org/Graphics/SVG/1.1/DTD/svg11.dtd">
<!-- Generated by graphviz version 2.40.1 (20161225.0304)
 -->
<!-- Title: TimeStepping::TimeStepping&lt; VectorType &gt;::Status Pages: 1 -->
<svg width="351pt" height="141pt"
 viewBox="0.00 0.00 351.16 141.00" xmlns="http://www.w3.org/2000/svg" xmlns:xlink="http://www.w3.org/1999/xlink">
<g id="graph0" class="graph" transform="scale(1 1) rotate(0) translate(4 137)">
<title>TimeStepping::TimeStepping&lt; VectorType &gt;::Status</title>
<polygon fill="#ffffff" stroke="transparent" points="-4,4 -4,-137 347.1563,-137 347.1563,4 -4,4"/>
<!-- Node0 -->
<g id="node1" class="node">
<title>Node0</title>
<polygon fill="#bfbfbf" stroke="#000000" points="0,-47.5 0,-75.5 144.2227,-75.5 144.2227,-47.5 0,-47.5"/>
<text text-anchor="start" x="8" y="-63.5" font-family="Helvetica,sans-Serif" font-size="10.00" fill="#000000">TimeStepping::TimeStepping</text>
<text text-anchor="middle" x="72.1113" y="-53.5" font-family="Helvetica,sans-Serif" font-size="10.00" fill="#000000">&lt; VectorType &gt;::Status</text>
</g>
<!-- Node1 -->
<g id="node2" class="node">
<title>Node1</title>
<g id="a_node2"><a xlink:href="structTimeStepping_1_1EmbeddedExplicitRungeKutta_1_1Status.html" target="_top" xlink:title="TimeStepping::EmbeddedExplicit\lRungeKutta\&lt; VectorType \&gt;\l::Status">
<polygon fill="#ffffff" stroke="#000000" points="180.2227,-94.5 180.2227,-132.5 343.1563,-132.5 343.1563,-94.5 180.2227,-94.5"/>
<text text-anchor="start" x="188.2227" y="-120.5" font-family="Helvetica,sans-Serif" font-size="10.00" fill="#000000">TimeStepping::EmbeddedExplicit</text>
<text text-anchor="start" x="188.2227" y="-110.5" font-family="Helvetica,sans-Serif" font-size="10.00" fill="#000000">RungeKutta&lt; VectorType &gt;</text>
<text text-anchor="middle" x="261.6895" y="-100.5" font-family="Helvetica,sans-Serif" font-size="10.00" fill="#000000">::Status</text>
</a>
</g>
</g>
<!-- Node0&#45;&gt;Node1 -->
<g id="edge1" class="edge">
<title>Node0&#45;&gt;Node1</title>
<path fill="none" stroke="#191970" d="M133.0635,-78.2188C151.9107,-83.3884 172.8122,-89.1216 192.1919,-94.4373"/>
<polygon fill="#191970" stroke="#191970" points="133.9836,-74.8419 123.4139,-75.5719 132.1318,-81.5926 133.9836,-74.8419"/>
</g>
<!-- Node2 -->
<g id="node3" class="node">
<title>Node2</title>
<g id="a_node3"><a xlink:href="structTimeStepping_1_1ExplicitRungeKutta_1_1Status.html" target="_top" xlink:title="TimeStepping::ExplicitRunge\lKutta\&lt; VectorType \&gt;::Status">
<polygon fill="#ffffff" stroke="#000000" points="189.6733,-47.5 189.6733,-75.5 333.7056,-75.5 333.7056,-47.5 189.6733,-47.5"/>
<text text-anchor="start" x="197.6733" y="-63.5" font-family="Helvetica,sans-Serif" font-size="10.00" fill="#000000">TimeStepping::ExplicitRunge</text>
<text text-anchor="middle" x="261.6895" y="-53.5" font-family="Helvetica,sans-Serif" font-size="10.00" fill="#000000">Kutta&lt; VectorType &gt;::Status</text>
</a>
</g>
</g>
<!-- Node0&#45;&gt;Node2 -->
<g id="edge2" class="edge">
<title>Node0&#45;&gt;Node2</title>
<path fill="none" stroke="#191970" d="M154.4529,-61.5C166.0744,-61.5 177.9498,-61.5 189.3642,-61.5"/>
<polygon fill="#191970" stroke="#191970" points="154.3235,-58.0001 144.3235,-61.5 154.3235,-65.0001 154.3235,-58.0001"/>
</g>
<!-- Node3 -->
<g id="node4" class="node">
<title>Node3</title>
<g id="a_node4"><a xlink:href="structTimeStepping_1_1ImplicitRungeKutta_1_1Status.html" target="_top" xlink:title="TimeStepping::ImplicitRunge\lKutta\&lt; VectorType \&gt;::Status">
<polygon fill="#ffffff" stroke="#000000" points="189.9541,-.5 189.9541,-28.5 333.4248,-28.5 333.4248,-.5 189.9541,-.5"/>
<text text-anchor="start" x="197.9541" y="-16.5" font-family="Helvetica,sans-Serif" font-size="10.00" fill="#000000">TimeStepping::ImplicitRunge</text>
<text text-anchor="middle" x="261.6895" y="-6.5" font-family="Helvetica,sans-Serif" font-size="10.00" fill="#000000">Kutta&lt; VectorType &gt;::Status</text>
</a>
</g>
</g>
<!-- Node0&#45;&gt;Node3 -->
<g id="edge3" class="edge">
<title>Node0&#45;&gt;Node3</title>
<path fill="none" stroke="#191970" d="M138.5323,-45.033C160.2325,-39.6531 184.1176,-33.7315 205.031,-28.5467"/>
<polygon fill="#191970" stroke="#191970" points="137.5981,-41.6585 128.7342,-47.4621 139.2826,-48.4529 137.5981,-41.6585"/>
</g>
</g>
</svg>
