<?xml version="1.0" encoding="UTF-8" standalone="no"?>
<!DOCTYPE svg PUBLIC "-//W3C//DTD SVG 1.1//EN"
 "http://www.w3.org/Graphics/SVG/1.1/DTD/svg11.dtd">
<!-- Generated by graphviz version 2.40.1 (20161225.0304)
 -->
<!-- Title: GridOutFlags::Vtk Pages: 1 -->
<svg width="144pt" height="224pt"
 viewBox="0.00 0.00 144.06 224.00" xmlns="http://www.w3.org/2000/svg" xmlns:xlink="http://www.w3.org/1999/xlink">
<g id="graph0" class="graph" transform="scale(1 1) rotate(0) translate(4 220)">
<title>GridOutFlags::Vtk</title>
<polygon fill="#ffffff" stroke="transparent" points="-4,4 -4,-220 140.0635,-220 140.0635,4 -4,4"/>
<!-- Node0 -->
<g id="node1" class="node">
<title>Node0</title>
<polygon fill="#bfbfbf" stroke="#000000" points="20.2979,-.5 20.2979,-18.5 115.7656,-18.5 115.7656,-.5 20.2979,-.5"/>
<text text-anchor="middle" x="68.0317" y="-6.5" font-family="Helvetica,sans-Serif" font-size="10.00" fill="#000000">GridOutFlags::Vtk</text>
</g>
<!-- Node1 -->
<g id="node2" class="node">
<title>Node1</title>
<g id="a_node2"><a xlink:href="structDataOutBase_1_1VtkFlags.html" target="_top" xlink:title="DataOutBase::VtkFlags">
<polygon fill="#ffffff" stroke="#000000" points="7.7856,-56.5 7.7856,-74.5 128.2778,-74.5 128.2778,-56.5 7.7856,-56.5"/>
<text text-anchor="middle" x="68.0317" y="-62.5" font-family="Helvetica,sans-Serif" font-size="10.00" fill="#000000">DataOutBase::VtkFlags</text>
</a>
</g>
</g>
<!-- Node1&#45;&gt;Node0 -->
<g id="edge1" class="edge">
<title>Node1&#45;&gt;Node0</title>
<path fill="none" stroke="#191970" d="M68.0317,-46.2065C68.0317,-36.8384 68.0317,-26.0262 68.0317,-18.5752"/>
<polygon fill="#191970" stroke="#191970" points="64.5318,-46.2527 68.0317,-56.2527 71.5318,-46.2528 64.5318,-46.2527"/>
</g>
<!-- Node2 -->
<g id="node3" class="node">
<title>Node2</title>
<g id="a_node3"><a xlink:href="structDataOutBase_1_1OutputFlagsBase.html" target="_top" xlink:title="DataOutBase::OutputFlags\lBase\&lt; VtkFlags \&gt;">
<polygon fill="#ffffff" stroke="#000000" points="0,-112.5 0,-140.5 136.0635,-140.5 136.0635,-112.5 0,-112.5"/>
<text text-anchor="start" x="8" y="-128.5" font-family="Helvetica,sans-Serif" font-size="10.00" fill="#000000">DataOutBase::OutputFlags</text>
<text text-anchor="middle" x="68.0317" y="-118.5" font-family="Helvetica,sans-Serif" font-size="10.00" fill="#000000">Base&lt; VtkFlags &gt;</text>
</a>
</g>
</g>
<!-- Node2&#45;&gt;Node1 -->
<g id="edge2" class="edge">
<title>Node2&#45;&gt;Node1</title>
<path fill="none" stroke="#191970" d="M68.0317,-102.1001C68.0317,-92.5157 68.0317,-82.0935 68.0317,-74.831"/>
<polygon fill="#191970" stroke="#191970" points="64.5318,-102.352 68.0317,-112.3521 71.5318,-102.3521 64.5318,-102.352"/>
</g>
<!-- Node3 -->
<g id="node4" class="node">
<title>Node3</title>
<g id="a_node4"><a xlink:href="structDataOutBase_1_1OutputFlagsBase.html" target="_top" xlink:title="DataOutBase::OutputFlags\lBase\&lt; FlagsType \&gt;">
<polygon fill="#ffffff" stroke="#000000" points="0,-187.5 0,-215.5 136.0635,-215.5 136.0635,-187.5 0,-187.5"/>
<text text-anchor="start" x="8" y="-203.5" font-family="Helvetica,sans-Serif" font-size="10.00" fill="#000000">DataOutBase::OutputFlags</text>
<text text-anchor="middle" x="68.0317" y="-193.5" font-family="Helvetica,sans-Serif" font-size="10.00" fill="#000000">Base&lt; FlagsType &gt;</text>
</a>
</g>
</g>
<!-- Node3&#45;&gt;Node2 -->
<g id="edge3" class="edge">
<title>Node3&#45;&gt;Node2</title>
<path fill="none" stroke="#ffa500" stroke-dasharray="5,2" d="M68.0317,-177.0415C68.0317,-164.9507 68.0317,-150.7938 68.0317,-140.5437"/>
<polygon fill="#ffa500" stroke="#ffa500" points="64.5318,-177.393 68.0317,-187.3931 71.5318,-177.3931 64.5318,-177.393"/>
<text text-anchor="middle" x="97.4897" y="-161" font-family="Helvetica,sans-Serif" font-size="10.00" fill="#000000"> &lt; VtkFlags &gt;</text>
</g>
</g>
</svg>
