<?xml version="1.0" encoding="UTF-8" standalone="no"?>
<!DOCTYPE svg PUBLIC "-//W3C//DTD SVG 1.1//EN"
 "http://www.w3.org/Graphics/SVG/1.1/DTD/svg11.dtd">
<!-- Generated by graphviz version 2.40.1 (20161225.0304)
 -->
<!-- Title: DataPostprocessorInputs::Vector&lt; spacedim &gt; Pages: 1 -->
<svg width="157pt" height="178pt"
 viewBox="0.00 0.00 157.40 178.00" xmlns="http://www.w3.org/2000/svg" xmlns:xlink="http://www.w3.org/1999/xlink">
<g id="graph0" class="graph" transform="scale(1 1) rotate(0) translate(4 174)">
<title>DataPostprocessorInputs::Vector&lt; spacedim &gt;</title>
<polygon fill="#ffffff" stroke="transparent" points="-4,4 -4,-174 153.3984,-174 153.3984,4 -4,4"/>
<!-- Node0 -->
<g id="node1" class="node">
<title>Node0</title>
<polygon fill="#bfbfbf" stroke="#000000" points="10.5591,-75.5 10.5591,-103.5 138.8394,-103.5 138.8394,-75.5 10.5591,-75.5"/>
<text text-anchor="start" x="18.5591" y="-91.5" font-family="Helvetica,sans-Serif" font-size="10.00" fill="#000000">DataPostprocessorInputs</text>
<text text-anchor="middle" x="74.6992" y="-81.5" font-family="Helvetica,sans-Serif" font-size="10.00" fill="#000000">::Vector&lt; spacedim &gt;</text>
</g>
<!-- Node2 -->
<g id="node3" class="node">
<title>Node2</title>
<g id="a_node3"><a xlink:href="structDataPostprocessorInputs_1_1Vector.html" target="_top" xlink:title="DataPostprocessorInputs\l::Vector\&lt; double \&gt;">
<polygon fill="#ffffff" stroke="#000000" points="10.5591,-.5 10.5591,-28.5 138.8394,-28.5 138.8394,-.5 10.5591,-.5"/>
<text text-anchor="start" x="18.5591" y="-16.5" font-family="Helvetica,sans-Serif" font-size="10.00" fill="#000000">DataPostprocessorInputs</text>
<text text-anchor="middle" x="74.6992" y="-6.5" font-family="Helvetica,sans-Serif" font-size="10.00" fill="#000000">::Vector&lt; double &gt;</text>
</a>
</g>
</g>
<!-- Node0&#45;&gt;Node2 -->
<g id="edge2" class="edge">
<title>Node0&#45;&gt;Node2</title>
<path fill="none" stroke="#ffa500" stroke-dasharray="5,2" d="M74.6992,-65.0415C74.6992,-52.9507 74.6992,-38.7938 74.6992,-28.5437"/>
<polygon fill="#ffa500" stroke="#ffa500" points="71.1993,-65.393 74.6992,-75.3931 78.1993,-65.3931 71.1993,-65.393"/>
<text text-anchor="middle" x="99.7212" y="-49" font-family="Helvetica,sans-Serif" font-size="10.00" fill="#000000"> &lt; double &gt;</text>
</g>
<!-- Node1 -->
<g id="node2" class="node">
<title>Node1</title>
<g id="a_node2"><a xlink:href="structDataPostprocessorInputs_1_1CommonInputs.html" target="_top" xlink:title="DataPostprocessorInputs\l::CommonInputs\&lt; spacedim \&gt;">
<polygon fill="#ffffff" stroke="#000000" points="0,-141.5 0,-169.5 149.3984,-169.5 149.3984,-141.5 0,-141.5"/>
<text text-anchor="start" x="8" y="-157.5" font-family="Helvetica,sans-Serif" font-size="10.00" fill="#000000">DataPostprocessorInputs</text>
<text text-anchor="middle" x="74.6992" y="-147.5" font-family="Helvetica,sans-Serif" font-size="10.00" fill="#000000">::CommonInputs&lt; spacedim &gt;</text>
</a>
</g>
</g>
<!-- Node1&#45;&gt;Node0 -->
<g id="edge1" class="edge">
<title>Node1&#45;&gt;Node0</title>
<path fill="none" stroke="#191970" d="M74.6992,-131.0322C74.6992,-121.8606 74.6992,-111.7449 74.6992,-103.7931"/>
<polygon fill="#191970" stroke="#191970" points="71.1993,-131.1789 74.6992,-141.179 78.1993,-131.179 71.1993,-131.1789"/>
</g>
</g>
</svg>
