<?xml version="1.0" encoding="UTF-8" standalone="no"?>
<!DOCTYPE svg PUBLIC "-//W3C//DTD SVG 1.1//EN"
 "http://www.w3.org/Graphics/SVG/1.1/DTD/svg11.dtd">
<!-- Generated by graphviz version 2.40.1 (20161225.0304)
 -->
<!-- Title: TimeStepping::ImplicitRungeKutta&lt; VectorType &gt;::Status Pages: 1 -->
<svg width="152pt" height="102pt"
 viewBox="0.00 0.00 152.22 102.00" xmlns="http://www.w3.org/2000/svg" xmlns:xlink="http://www.w3.org/1999/xlink">
<g id="graph0" class="graph" transform="scale(1 1) rotate(0) translate(4 98)">
<title>TimeStepping::ImplicitRungeKutta&lt; VectorType &gt;::Status</title>
<polygon fill="#ffffff" stroke="transparent" points="-4,4 -4,-98 148.2227,-98 148.2227,4 -4,4"/>
<!-- Node0 -->
<g id="node1" class="node">
<title>Node0</title>
<polygon fill="#bfbfbf" stroke="#000000" points=".376,-.5 .376,-28.5 143.8467,-28.5 143.8467,-.5 .376,-.5"/>
<text text-anchor="start" x="8.376" y="-16.5" font-family="Helvetica,sans-Serif" font-size="10.00" fill="#000000">TimeStepping::ImplicitRunge</text>
<text text-anchor="middle" x="72.1113" y="-6.5" font-family="Helvetica,sans-Serif" font-size="10.00" fill="#000000">Kutta&lt; VectorType &gt;::Status</text>
</g>
<!-- Node1 -->
<g id="node2" class="node">
<title>Node1</title>
<g id="a_node2"><a xlink:href="structTimeStepping_1_1TimeStepping_1_1Status.html" target="_top" xlink:title="TimeStepping::TimeStepping\l\&lt; VectorType \&gt;::Status">
<polygon fill="#ffffff" stroke="#000000" points="0,-65.5 0,-93.5 144.2227,-93.5 144.2227,-65.5 0,-65.5"/>
<text text-anchor="start" x="8" y="-81.5" font-family="Helvetica,sans-Serif" font-size="10.00" fill="#000000">TimeStepping::TimeStepping</text>
<text text-anchor="middle" x="72.1113" y="-71.5" font-family="Helvetica,sans-Serif" font-size="10.00" fill="#000000">&lt; VectorType &gt;::Status</text>
</a>
</g>
</g>
<!-- Node1&#45;&gt;Node0 -->
<g id="edge1" class="edge">
<title>Node1&#45;&gt;Node0</title>
<path fill="none" stroke="#191970" d="M72.1113,-55.1081C72.1113,-46.1539 72.1113,-36.3227 72.1113,-28.5765"/>
<polygon fill="#191970" stroke="#191970" points="68.6114,-55.3959 72.1113,-65.396 75.6114,-55.396 68.6114,-55.3959"/>
</g>
</g>
</svg>
