<?xml version="1.0" encoding="UTF-8" standalone="no"?>
<!DOCTYPE svg PUBLIC "-//W3C//DTD SVG 1.1//EN"
 "http://www.w3.org/Graphics/SVG/1.1/DTD/svg11.dtd">
<!-- Generated by graphviz version 2.40.1 (20161225.0304)
 -->
<!-- Title: internal::DataOutRotation::ParallelData&lt; dim, spacedim &gt; Pages: 1 -->
<svg width="166pt" height="112pt"
 viewBox="0.00 0.00 165.73 112.00" xmlns="http://www.w3.org/2000/svg" xmlns:xlink="http://www.w3.org/1999/xlink">
<g id="graph0" class="graph" transform="scale(1 1) rotate(0) translate(4 108)">
<title>internal::DataOutRotation::ParallelData&lt; dim, spacedim &gt;</title>
<polygon fill="#ffffff" stroke="transparent" points="-4,4 -4,-108 161.7334,-108 161.7334,4 -4,4"/>
<!-- Node0 -->
<g id="node1" class="node">
<title>Node0</title>
<polygon fill="#bfbfbf" stroke="#000000" points="0,-.5 0,-28.5 157.7334,-28.5 157.7334,-.5 0,-.5"/>
<text text-anchor="start" x="8" y="-16.5" font-family="Helvetica,sans-Serif" font-size="10.00" fill="#000000">internal::DataOutRotation</text>
<text text-anchor="middle" x="78.8667" y="-6.5" font-family="Helvetica,sans-Serif" font-size="10.00" fill="#000000">::ParallelData&lt; dim, spacedim &gt;</text>
</g>
<!-- Node1 -->
<g id="node2" class="node">
<title>Node1</title>
<g id="a_node2"><a xlink:href="structinternal_1_1DataOut_1_1ParallelDataBase.html" target="_top" xlink:title="internal::DataOut::\lParallelDataBase\&lt; dim,\l spacedim \&gt;">
<polygon fill="#ffffff" stroke="#000000" points="18.479,-65.5 18.479,-103.5 139.2544,-103.5 139.2544,-65.5 18.479,-65.5"/>
<text text-anchor="start" x="26.479" y="-91.5" font-family="Helvetica,sans-Serif" font-size="10.00" fill="#000000">internal::DataOut::</text>
<text text-anchor="start" x="26.479" y="-81.5" font-family="Helvetica,sans-Serif" font-size="10.00" fill="#000000">ParallelDataBase&lt; dim,</text>
<text text-anchor="middle" x="78.8667" y="-71.5" font-family="Helvetica,sans-Serif" font-size="10.00" fill="#000000"> spacedim &gt;</text>
</a>
</g>
</g>
<!-- Node1&#45;&gt;Node0 -->
<g id="edge1" class="edge">
<title>Node1&#45;&gt;Node0</title>
<path fill="none" stroke="#191970" d="M78.8667,-55.1346C78.8667,-46.0837 78.8667,-36.5165 78.8667,-28.9404"/>
<polygon fill="#191970" stroke="#191970" points="75.3668,-55.3722 78.8667,-65.3722 82.3668,-55.3722 75.3668,-55.3722"/>
</g>
</g>
</svg>
